<?xml version="1.0" encoding="utf-8"?>
<!-- Generator: Adobe Illustrator 27.5.0, SVG Export Plug-In . SVG Version: 6.00 Build 0)  -->
<svg version="1.1" id="Layer_1" xmlns="http://www.w3.org/2000/svg" xmlns:xlink="http://www.w3.org/1999/xlink" x="0px" y="0px"
	 viewBox="0 0 3300 2200" style="enable-background:new 0 0 3300 2200;" xml:space="preserve">
<style type="text/css">
	.st0{fill:#FFFFFF;}
	.st1{fill:none;stroke:#000000;stroke-width:0.5;}
	.st2{font-family:'Helvetica-Bold';}
	.st3{font-size:13px;}
	.st4{font-family:'Helvetica';}
	.st5{fill:none;stroke:#00AEEF;stroke-width:0.5;}
	.st6{fill:#27AAE1;}
	.st7{fill:none;stroke:#27AAE1;stroke-width:0.5;}
</style>
<g id="Notes">
	<rect id="artboard" class="st0" width="3300" height="2200"/>
	<line class="st1" x1="263" y1="292" x2="3036" y2="292"/>
	<text transform="matrix(1 0 0 1 263 322)" class="st2 st3">Weight/Scale Variations</text>
	<text transform="matrix(1 0 0 1 534.0633 322)" class="st4 st3">Ultralight</text>
	<text transform="matrix(1 0 0 1 843.7775 322)" class="st4 st3">Thin</text>
	<text transform="matrix(1 0 0 1 1139.035 322)" class="st4 st3">Light</text>
	<text transform="matrix(1 0 0 1 1427.0773 322)" class="st4 st3">Regular</text>
	<text transform="matrix(1 0 0 1 1723.4419 322)" class="st4 st3">Medium</text>
	<text transform="matrix(1 0 0 1 2016.1719 322)" class="st4 st3">Semibold</text>
	<text transform="matrix(1 0 0 1 2326.9705 322)" class="st4 st3">Bold</text>
	<text transform="matrix(1 0 0 1 2618.2659 322)" class="st4 st3">Heavy</text>
	<text transform="matrix(1 0 0 1 2917.5054 322)" class="st4 st3">Black</text>
	<line class="st1" x1="263" y1="1903" x2="3036" y2="1903"/>
	<g transform="matrix(1 0 0 1 263 1933)">
		<path d="M9.2,0.8c4.3,0,7.9-3.6,7.9-7.9c0-4.3-3.6-7.9-7.9-7.9c-4.3,0-7.9,3.6-7.9,7.9C1.4-2.7,5,0.8,9.2,0.8z M9.2-0.7
			c-3.5,0-6.4-2.8-6.4-6.4c0-3.6,2.8-6.4,6.4-6.4c3.6,0,6.4,2.8,6.4,6.4C15.6-3.5,12.8-0.7,9.2-0.7z M5.7-7.1c0,0.4,0.3,0.7,0.8,0.7
			h2.1v2.1c0,0.4,0.3,0.7,0.7,0.7c0.4,0,0.7-0.3,0.7-0.7v-2.1h2.1c0.4,0,0.7-0.3,0.7-0.7c0-0.4-0.3-0.7-0.7-0.7H10v-2.1
			c0-0.4-0.3-0.8-0.7-0.8c-0.4,0-0.7,0.3-0.7,0.8v2.1H6.4C6-7.8,5.7-7.5,5.7-7.1z"/>
	</g>
	<g transform="matrix(1 0 0 1 281.867 1933)">
		<path d="M11.7,2.9c5.4,0,10-4.5,10-10c0-5.4-4.5-10-10-10c-5.4,0-10,4.5-10,10C1.7-1.6,6.3,2.9,11.7,2.9z M11.7,1.2
			c-4.6,0-8.3-3.7-8.3-8.3c0-4.6,3.7-8.3,8.3-8.3c4.6,0,8.3,3.7,8.3,8.3C20-2.4,16.3,1.2,11.7,1.2z M7.2-7.1c0,0.5,0.3,0.8,0.8,0.8
			h2.9v2.9c0,0.5,0.3,0.8,0.8,0.8c0.5,0,0.8-0.3,0.8-0.8v-2.9h2.9c0.5,0,0.8-0.3,0.8-0.8c0-0.5-0.3-0.8-0.8-0.8h-2.9v-2.9
			c0-0.5-0.3-0.8-0.8-0.8c-0.5,0-0.8,0.3-0.8,0.8v2.9H8C7.5-7.9,7.2-7.5,7.2-7.1z"/>
	</g>
	<g transform="matrix(1 0 0 1 305.646 1933)">
		<path d="M15,5.7c7,0,12.7-5.8,12.7-12.7c0-7-5.8-12.7-12.7-12.7C8-19.8,2.3-14,2.3-7.1C2.3-0.1,8,5.7,15,5.7z M15,3.8
			C8.9,3.8,4.1-1,4.1-7.1c0-6,4.8-10.9,10.9-10.9c6,0,10.9,4.9,10.9,10.9C25.9-1,21,3.8,15,3.8z M9.2-7.1c0,0.5,0.4,0.9,0.9,0.9h3.9
			v4c0,0.5,0.4,0.9,0.9,0.9c0.5,0,0.9-0.4,0.9-0.9v-4h4c0.5,0,0.9-0.4,0.9-0.9c0-0.5-0.4-0.9-0.9-0.9h-4v-3.9c0-0.5-0.4-0.9-0.9-0.9
			c-0.5,0-0.9,0.4-0.9,0.9V-8h-3.9C9.6-8,9.2-7.6,9.2-7.1z"/>
	</g>
	<text transform="matrix(1 0 0 1 263 1953)" class="st2 st3">Design Variations</text>
	<text transform="matrix(1 0 0 1 263 1971)" class="st4 st3">Symbols are supported in up to nine weights and three scales.</text>
	<text transform="matrix(1 0 0 1 263 1989)" class="st4 st3">For optimal layout with text and other symbols, vertically align</text>
	<text transform="matrix(1 0 0 1 263 2007)" class="st4 st3">symbols with the adjacent text.</text>
	<line class="st5" x1="776" y1="1919" x2="776" y2="1933"/>
	<g transform="matrix(1 0 0 1 776 1933)">
		<path d="M3.3,0.2c0.5,0,0.8-0.2,1-0.7L5.5-4h5.8l1.3,3.4C12.7,0,13,0.2,13.5,0.2c0.5,0,0.8-0.3,0.8-0.8c0-0.2,0-0.3-0.1-0.5
			L9.7-13.4C9.4-14,9-14.3,8.4-14.3c-0.6,0-1,0.3-1.2,0.9L2.6-1.2C2.5-1,2.5-0.8,2.5-0.6C2.5-0.1,2.8,0.2,3.3,0.2z M6-5.5l2.4-6.6h0
			l2.4,6.6H6z"/>
	</g>
	<line class="st5" x1="793.2" y1="1919" x2="793.2" y2="1933"/>
	<text transform="matrix(1 0 0 1 776 1953)" class="st2 st3">Margins</text>
	<text transform="matrix(1 0 0 1 776 1971)" class="st4 st3">Leading and trailing margins on the left and right side of each symbol</text>
	<text transform="matrix(1 0 0 1 776 1989)" class="st4 st3">can be adjusted by modifying the x-location of the margin guidelines.</text>
	<text transform="matrix(1 0 0 1 776 2007)" class="st4 st3">Modifications are automatically applied proportionally to all</text>
	<text transform="matrix(1 0 0 1 776 2025)" class="st4 st3">scales and weights.</text>
	<g transform="matrix(1 0 0 1 1289 1933)">
		<path d="M2.8,1.9l1.7,1.7c0.9,0.9,1.8,0.8,2.8-0.2L18-8.4l-1-1L6.4,2.3c-0.4,0.4-0.7,0.5-1.2,0L4.1,1.1C3.6,0.7,3.7,0.3,4.1,0
			l11.5-10.8l-1-1L3-0.9C2.1,0,2,1,2.8,1.9z M9.3-16.3c-0.4,0.4-0.4,1-0.2,1.4c0.2,0.4,0.7,0.6,1.3,0.4c1.5-0.3,3-0.4,4.4,0.5
			l-0.6,1.5c-0.3,0.8-0.2,1.4,0.4,2l2.3,2.3c0.5,0.5,0.9,0.5,1.5,0.4L19.4-8l0.7,0.7l0,0.6c0,0.5,0.1,0.9,0.6,1.4l0.8,0.7
			c0.5,0.5,1.1,0.5,1.6,0l2.9-2.9c0.5-0.5,0.4-1.1,0-1.5L25-9.9c-0.5-0.5-0.8-0.6-1.3-0.6l-0.6,0l-0.6-0.6l0.2-1.1
			c0.1-0.6,0-1-0.6-1.6L19.9-16C16.6-19.3,12.1-19.2,9.3-16.3z M10.8-16c2.4-1.8,5.7-1.5,7.9,0.8l2.4,2.4c0.2,0.2,0.3,0.4,0.2,0.8
			L21-10.5l1.5,1.5l1-0.1c0.3,0,0.3,0,0.5,0.2l0.6,0.6l-2.4,2.4l-0.6-0.6c-0.2-0.2-0.2-0.3-0.2-0.5l0.1-1L20-9.5l-1.5,0.3
			c-0.3,0.1-0.5,0-0.7-0.2l-2-2c-0.3-0.2-0.3-0.4-0.1-0.8l0.9-2.1c-1.6-1.5-3.6-2.1-5.6-1.5C10.7-15.7,10.6-15.8,10.8-16z"/>
	</g>
	<text transform="matrix(1 0 0 1 1289 1953)" class="st2 st3">Exporting</text>
	<text transform="matrix(1 0 0 1 1289 1971)" class="st4 st3">Symbols should be outlined when exporting to ensure the</text>
	<text transform="matrix(1 0 0 1 1289 1989)" class="st4 st3">design is preserved when submitting to Xcode.</text>
	<text id="template-version" transform="matrix(1 0 0 1 2952.4141 1933)" class="st4 st3">Template v.4.0</text>
	<text transform="matrix(1 0 0 1 2865.4575 1951)" class="st4 st3">Requires Xcode 14 or greater</text>
	<text id="descriptive-name" transform="matrix(1 0 0 1 2920.3838 1969)" class="st4 st3">Generated from doc</text>
	<text transform="matrix(1 0 0 1 2912.4111 1987)" class="st4 st3">Typeset at 100 points</text>
	<text transform="matrix(1 0 0 1 263 726)" class="st4 st3">Small</text>
	<text transform="matrix(1 0 0 1 263 1156)" class="st4 st3">Medium</text>
	<text transform="matrix(1 0 0 1 263 1586)" class="st4 st3">Large</text>
</g>
<g id="Guides">
	<g id="H-reference" transform="matrix(1 0 0 1 339 696)">
		<path class="st6" d="M1,0h2.6l25.7-67.1H30v-3.3h-1.9L1,0z M11.7-24.5H47l-0.8-2.2H12.4L11.7-24.5z M55.1,0h2.6L30.6-70.5h-1.2
			v3.3L55.1,0z"/>
	</g>
	<line id="Baseline-S" class="st7" x1="263" y1="696" x2="3036" y2="696"/>
	<line id="Capline-S" class="st7" x1="263" y1="625.5" x2="3036" y2="625.5"/>
	<g id="H-reference_00000174571773454180434430000007062903853511427765_" transform="matrix(1 0 0 1 339 1126)">
		<path class="st6" d="M1,0h2.6l25.7-67.1H30v-3.3h-1.9L1,0z M11.7-24.5H47l-0.8-2.2H12.4L11.7-24.5z M55.1,0h2.6L30.6-70.5h-1.2
			v3.3L55.1,0z"/>
	</g>
	<line id="Baseline-M" class="st7" x1="263" y1="1126" x2="3036" y2="1126"/>
	<line id="Capline-M" class="st7" x1="263" y1="1055.5" x2="3036" y2="1055.5"/>
	<g id="H-reference_00000053528753977989334210000005824699095557608631_" transform="matrix(1 0 0 1 339 1556)">
		<path class="st6" d="M1,0h2.6l25.7-67.1H30v-3.3h-1.9L1,0z M11.7-24.5H47l-0.8-2.2H12.4L11.7-24.5z M55.1,0h2.6L30.6-70.5h-1.2
			v3.3L55.1,0z"/>
	</g>
	<line id="Baseline-L" class="st7" x1="263" y1="1556" x2="3036" y2="1556"/>
	<line id="Capline-L" class="st7" x1="263" y1="1485.5" x2="3036" y2="1485.5"/>
	<line id="left-margin-Regular-M" class="st5" x1="1396.3" y1="1030.8" x2="1396.3" y2="1150.1"/>
	<line id="right-margin-Regular-M" class="st5" x1="1503.4" y1="1030.8" x2="1503.4" y2="1150.1"/>
</g>
<g id="Symbols">
	<g id="Semibold-L" transform="matrix(1 0 0 1 1973.08 1556)">
		<path d="M36.5,33.1h67.4c13.4,0,20.4-7.1,20.4-20.6v-57.9c0-8.5-1.2-12.5-6.5-17.9L84.4-97c-5.2-5.3-9.4-6.5-17.3-6.5H36.5
			c-13.3,0-20.4,7.1-20.4,20.6v95.5C16.1,26,23.1,33.1,36.5,33.1z M37.7,20.7c-6.2,0-9.3-3.2-9.3-9.2V-82c0-5.9,3.1-9.2,9.3-9.2
			h26.9V-57c0,9.2,4.5,13.5,13.5,13.5h33.8v55c0,6-3.1,9.2-9.3,9.2H37.7z M79.2-54.1c-2.8,0-4-1.2-4-4v-31.6l35.2,35.6H79.2z"/>
		<path d="M53.3,6.4c8.1,0,14.8-5,18.6-13.8l7.3,7.2c1,0.9,2.2,0.9,3,0.1l7.4-7.5L95-2.3c0.8,0.8,2,0.9,2.9,0l9.3-9.3
			c0.9-0.9,0.8-2,0.1-2.7l-5-5.1c-0.7-0.6-1.4-1-2.3-1H71.3c-3-7.3-10-12-18-12C42.7-32.4,34-23.8,34-13C34-2.3,42.7,6.4,53.3,6.4z
			 M48.2-18.9c3.3,0,5.9,2.6,5.9,5.8s-2.7,5.8-5.9,5.8c-3.2,0-5.9-2.6-5.9-5.8S45-18.9,48.2-18.9z"/>
	</g>
	<g id="Regular-L" transform="matrix(1 0 0 1 1381.33 1556)">
		<path d="M34.9,32.1h67.2c12.5,0,18.9-6.4,18.9-19v-58.4c0-7.2-0.9-10.4-5.4-15L79.3-97.1c-4.3-4.4-7.8-5.4-14.3-5.4H34.9
			c-12.4,0-18.8,6.4-18.8,19v96.6C16.1,25.7,22.4,32.1,34.9,32.1z M35.3,23.4c-7,0-10.6-3.7-10.6-10.5v-96.2
			c0-6.7,3.6-10.5,10.6-10.5h28.9v37.4c0,7.5,3.8,11.1,11.1,11.1h36.9v58.2c0,6.8-3.6,10.5-10.6,10.5H35.3z M76.3-53.5
			c-2.8,0-3.9-1.1-3.9-3.9v-34.7l38.1,38.6H76.3z"/>
		<path d="M50.5,6.1c8.3,0,15.1-5.2,18.8-14.6l8.2,8.2c0.7,0.6,1.4,0.6,2,0.1l8.1-8.3l6.1,6c0.6,0.6,1.3,0.6,1.9,0l9.5-9.5
			c0.6-0.6,0.6-1.3,0-1.9l-5-5c-0.5-0.6-1.1-0.9-1.8-0.9H68.5C65.6-27.2,58.7-32,50.6-32c-10.5,0-19,8.4-19,19
			C31.6-2.5,40.1,6,50.5,6.1z M45.2-19c3.3,0,5.9,2.7,5.9,5.9s-2.6,5.8-5.9,5.8c-3.2,0-5.9-2.6-5.9-5.8C39.3-16.3,42-18.9,45.2-19z"
			/>
	</g>
	<g id="Semibold-M" transform="matrix(1 0 0 1 1988.33 1126)">
		<path d="M28.9,18H81c10.7,0,16.4-5.8,16.4-16.5v-44.3c0-7.1-1-10.5-5.5-15.1l-24.7-25c-4.4-4.4-8-5.5-14.6-5.5H28.9
			c-10.7,0-16.4,5.8-16.4,16.5V1.4C12.5,12.3,18.1,18,28.9,18z M30,7.1c-4.5,0-6.6-2.3-6.6-6.6V-71c0-4.2,2.2-6.6,6.7-6.6h20.1V-52
			c0,7.6,3.7,11.3,11.3,11.3h25.1V0.5c0,4.3-2.2,6.6-6.6,6.6H30z M62.3-50c-2.1,0-3-0.9-3-3v-23.4l26,26.4H62.3z"/>
		<path d="M26.2-17.6c0-8.4,6.8-15.2,15.1-15.2c6.2,0,11.7,3.6,14,9.2h22c0.8,0,1.4,0.3,1.9,0.9l3.9,4c0.6,0.6,0.7,1.6-0.1,2.3
			l-7.2,7.2c-0.8,0.8-1.8,0.7-2.6,0l-4-3.9l-5.6,5.6c-0.7,0.7-1.8,0.7-2.6-0.1L55.6-13c-3,6.7-8.1,10.5-14.4,10.5
			C33-2.4,26.2-9.2,26.2-17.6z M32.7-17.6c0,2.5,2.1,4.5,4.6,4.5c2.5,0,4.6-2,4.6-4.5c0-2.4-2-4.5-4.6-4.5
			C34.7-22.2,32.7-20.1,32.7-17.6z"/>
	</g>
	<g id="Regular-M" transform="matrix(1 0 0 1 1396.32 1126)">
		<path d="M27.6,17.1h51.9c10.1,0,15.2-5.1,15.2-15.3v-44.3c0-6.2-0.7-9-4.6-13L63-82.9c-3.7-3.8-6.7-4.6-12.3-4.6H27.6
			c-10.1,0-15.1,5.1-15.1,15.3v74C12.5,12,17.5,17.1,27.6,17.1z M28,9.2c-5,0-7.6-2.7-7.6-7.6v-73.8c0-4.8,2.6-7.6,7.7-7.6h21.7
			v28.4c0,6.1,3.1,9.2,9.2,9.2h27.8V1.7c0,4.9-2.6,7.6-7.7,7.6H28z M59.8-49.6c-1.9,0-2.8-0.8-2.8-2.7v-25.9l28.1,28.6H59.8z"/>
		<path d="M39.5-2.9C46-2.9,51.2-7,54.1-14.2l6.3,6.3c0.6,0.5,1.2,0.5,1.7,0.1l6.2-6.4l4.6,4.6c0.5,0.5,1.1,0.5,1.6,0l7.4-7.4
			c0.5-0.5,0.5-1.2,0-1.6L78-22.5c-0.5-0.4-0.9-0.7-1.5-0.7h-23c-2.2-5.8-7.6-9.5-13.9-9.5c-8.2,0-14.9,6.6-14.9,14.9
			C24.7-9.6,31.4-3,39.5-2.9z M35-22.5c2.6,0,4.6,2.1,4.6,4.6c0,2.6-2,4.6-4.6,4.6c-2.5,0-4.6-2.1-4.6-4.6S32.5-22.5,35-22.5z"/>
	</g>
	<g id="Semibold-S" transform="matrix(1 0 0 1 1999.89 696)">
		<path d="M23,6.6h40.8C72.4,6.6,77,2,77-6.7v-34.2c0-5.9-0.8-8.8-4.6-12.6L53.8-72.5c-3.6-3.7-6.7-4.6-12.2-4.6H23
			c-8.6,0-13.2,4.6-13.2,13.3v57C9.8,2,14.3,6.6,23,6.6z M23.9-2.7c-3.3,0-4.9-1.7-4.9-4.8V-63c0-3.1,1.6-4.8,4.9-4.8h15.3v19.5
			c0,6.3,3,9.3,9.3,9.3h19.1v31.5c0,3.1-1.6,4.8-4.9,4.8H23.9z M49.3-46.9c-1.5,0-2.2-0.7-2.2-2.2v-17.7l19.6,19.9H49.3z"/>
		<path d="M20.8-21.3c0-6.7,5.4-12,11.9-12c4.9,0,9.1,2.8,11,7.2h17.1c0.6,0,1.1,0.3,1.6,0.7l3.2,3.3c0.5,0.5,0.6,1.3,0,1.9L60-14.6
			c-0.6,0.6-1.5,0.6-2.1,0l-3.1-3l-4.3,4.3c-0.6,0.6-1.5,0.6-2.2-0.1l-4.1-4.1c-2.4,5.2-6.4,8.1-11.3,8.1
			C26.2-9.3,20.8-14.7,20.8-21.3z M25.8-21.3c0,2,1.6,3.6,3.6,3.6s3.6-1.6,3.6-3.6c0-1.9-1.6-3.6-3.6-3.6
			C27.4-24.9,25.8-23.3,25.8-21.3z"/>
	</g>
	<g id="Regular-S" transform="matrix(1 0 0 1 1407.56 696)">
		<path d="M22,5.9h40.5c8.2,0,12.3-4.2,12.3-12.5v-34c0-5.4-0.6-7.7-4-11.2L50.6-72.5c-3.2-3.3-5.8-4-10.5-4H22
			c-8.2,0-12.3,4.2-12.3,12.5v57.4C9.8,1.8,13.8,5.9,22,5.9z M22.4-1.1c-3.7,0-5.6-2-5.6-5.5v-57.2c0-3.5,1.9-5.5,5.6-5.5h16.5v21.7
			c0,5.1,2.6,7.7,7.7,7.7h21.2v33.3c0,3.5-1.9,5.5-5.6,5.5H22.4z M47.4-46.6c-1.4,0-2-0.6-2-2v-19.5l21,21.5H47.4z"/>
		<path d="M19.6-20.8c0-6.5,5.3-11.8,11.8-11.8c4.9,0,9.2,2.9,11,7.4h18c0.5,0,0.8,0.2,1.2,0.6l3.1,3.1c0.4,0.3,0.4,0.9,0,1.4
			l-5.8,5.8c-0.4,0.4-1,0.4-1.4,0l-3.6-3.5l-4.8,4.9c-0.4,0.4-0.9,0.4-1.4-0.1l-4.8-4.8C40.6-12.2,36.5-9,31.4-9
			C24.9-9,19.6-14.3,19.6-20.8z M23.9-20.9c0,2,1.7,3.6,3.6,3.6c2.1,0,3.7-1.6,3.7-3.6s-1.6-3.6-3.7-3.6
			C25.5-24.5,23.9-22.9,23.9-20.9z"/>
	</g>
</g>
</svg>
