<?xml version="1.0" encoding="UTF-8"?>
<svg xmlns="http://www.w3.org/2000/svg" xmlns:xlink="http://www.w3.org/1999/xlink" width="112.5pt" height="112.5pt" viewBox="0 0 112.5 112.5" version="1.1">
<g id="surface13846">
<path style=" stroke:none;fill-rule:nonzero;fill:rgb(100%,100%,100%);fill-opacity:1;" d="M 11.199219 11.199219 C 6.273438 11.199219 2.238281 15.234375 2.238281 20.160156 L 2.238281 91.839844 C 2.238281 96.765625 6.273438 100.800781 11.199219 100.800781 L 13.441406 100.800781 L 13.441406 103.039062 L 24.640625 103.039062 L 24.640625 100.800781 L 87.359375 100.800781 L 87.359375 103.039062 L 98.558594 103.039062 L 98.558594 100.800781 L 100.800781 100.800781 C 105.726562 100.800781 109.761719 96.765625 109.761719 91.839844 L 109.761719 20.160156 C 109.761719 15.234375 105.726562 11.199219 100.800781 11.199219 Z M 11.199219 15.679688 L 100.800781 15.679688 C 103.300781 15.679688 105.28125 17.65625 105.28125 20.160156 L 105.28125 91.839844 C 105.28125 94.34375 103.300781 96.320312 100.800781 96.320312 L 11.199219 96.320312 C 8.699219 96.320312 6.71875 94.34375 6.71875 91.839844 L 6.71875 20.160156 C 6.71875 17.65625 8.699219 15.679688 11.199219 15.679688 Z M 15.261719 22.398438 C 14.191406 22.601562 13.421875 23.546875 13.441406 24.640625 L 13.441406 50.820312 C 13.308594 51.25 13.308594 51.722656 13.441406 52.148438 L 13.441406 60.058594 C 13.441406 60.128906 13.441406 60.199219 13.441406 60.269531 C 13.421875 60.4375 13.421875 60.59375 13.441406 60.761719 C 13.441406 60.828125 13.441406 60.898438 13.441406 60.96875 L 13.441406 87.359375 C 13.441406 88.59375 14.445312 89.601562 15.679688 89.601562 L 96.320312 89.601562 C 97.554688 89.601562 98.558594 88.59375 98.558594 87.359375 L 98.558594 24.640625 C 98.558594 23.40625 97.554688 22.398438 96.320312 22.398438 L 15.679688 22.398438 C 15.609375 22.398438 15.539062 22.398438 15.46875 22.398438 C 15.398438 22.398438 15.328125 22.398438 15.261719 22.398438 Z M 17.921875 26.878906 L 94.078125 26.878906 L 94.078125 85.121094 L 17.921875 85.121094 L 17.921875 61.460938 L 21.769531 57.609375 C 22.207031 57.191406 22.453125 56.605469 22.453125 56 C 22.453125 55.394531 22.207031 54.808594 21.769531 54.390625 L 17.921875 50.539062 Z M 55.789062 31.289062 C 55.695312 31.308594 55.597656 31.332031 55.511719 31.359375 C 55.441406 31.378906 55.371094 31.402344 55.300781 31.429688 C 49.113281 31.605469 43.515625 34.074219 39.269531 38.011719 C 38.691406 38.238281 38.238281 38.691406 38.011719 39.269531 C 34.160156 43.417969 31.703125 48.859375 31.429688 54.878906 C 31.035156 55.570312 31.035156 56.429688 31.429688 57.121094 C 31.703125 63.050781 34.046875 68.46875 37.800781 72.589844 C 38 73.378906 38.621094 74 39.410156 74.199219 C 43.644531 78.058594 49.246094 80.414062 55.371094 80.570312 C 55.441406 80.597656 55.511719 80.621094 55.578125 80.640625 C 55.71875 80.640625 55.859375 80.640625 56 80.640625 C 56.167969 80.640625 56.324219 80.640625 56.488281 80.640625 C 56.558594 80.621094 56.628906 80.597656 56.699219 80.570312 C 62.796875 80.394531 68.371094 78.042969 72.589844 74.199219 C 73.394531 73.980469 74.015625 73.332031 74.199219 72.519531 C 78.042969 68.292969 80.414062 62.738281 80.570312 56.628906 C 80.597656 56.585938 80.621094 56.535156 80.640625 56.488281 C 80.640625 56.464844 80.640625 56.445312 80.640625 56.421875 C 80.65625 56.28125 80.65625 56.140625 80.640625 56 C 80.640625 55.902344 80.640625 55.816406 80.640625 55.71875 C 80.632812 55.578125 80.605469 55.441406 80.570312 55.300781 C 80.394531 49.027344 77.890625 43.320312 73.851562 39.058594 C 73.824219 39.035156 73.804688 39.015625 73.78125 38.988281 C 73.746094 38.953125 73.746094 38.886719 73.710938 38.851562 C 73.527344 38.597656 73.28125 38.378906 73.011719 38.21875 C 68.773438 34.167969 63.097656 31.640625 56.839844 31.429688 C 56.507812 31.296875 56.148438 31.253906 55.789062 31.289062 Z M 53.761719 35.910156 C 53.777344 37.136719 54.773438 38.113281 56 38.113281 C 57.226562 38.113281 58.222656 37.136719 58.238281 35.910156 C 62.160156 36.328125 65.6875 37.921875 68.601562 40.25 C 67.933594 40.792969 67.628906 41.660156 67.820312 42.5 C 68.015625 43.328125 68.671875 43.984375 69.5 44.179688 C 70.339844 44.371094 71.207031 44.066406 71.75 43.398438 C 74.078125 46.3125 75.671875 49.839844 76.089844 53.761719 C 76.046875 53.761719 75.992188 53.761719 75.949219 53.761719 C 75.878906 53.761719 75.808594 53.761719 75.738281 53.761719 C 74.550781 53.917969 73.691406 54.976562 73.789062 56.167969 C 73.886719 57.355469 74.890625 58.273438 76.089844 58.238281 C 75.671875 62.160156 74.078125 65.6875 71.75 68.601562 C 71.285156 68.144531 70.648438 67.917969 70 67.96875 C 69.929688 67.96875 69.859375 67.96875 69.789062 67.96875 C 68.976562 68.117188 68.300781 68.703125 68.058594 69.5 C 67.804688 70.296875 68.015625 71.164062 68.601562 71.75 C 65.6875 74.078125 62.160156 75.671875 58.238281 76.089844 C 58.238281 75.460938 57.976562 74.855469 57.515625 74.425781 C 57.042969 74 56.421875 73.789062 55.789062 73.851562 C 55.695312 73.867188 55.597656 73.894531 55.511719 73.921875 C 54.496094 74.148438 53.769531 75.046875 53.761719 76.089844 C 49.839844 75.671875 46.3125 74.078125 43.398438 71.75 C 44.019531 71.09375 44.1875 70.121094 43.820312 69.300781 C 43.453125 68.46875 42.621094 67.953125 41.71875 67.96875 C 41.648438 67.96875 41.578125 67.96875 41.511719 67.96875 C 41.039062 68.039062 40.589844 68.257812 40.25 68.601562 C 37.921875 65.6875 36.328125 62.160156 35.910156 58.238281 C 37.136719 58.222656 38.113281 57.226562 38.113281 56 C 38.113281 54.773438 37.136719 53.777344 35.910156 53.761719 C 36.328125 49.839844 37.921875 46.3125 40.25 43.398438 C 40.792969 44.066406 41.660156 44.371094 42.5 44.179688 C 43.328125 43.984375 43.984375 43.328125 44.179688 42.5 C 44.371094 41.660156 44.066406 40.792969 43.398438 40.25 C 46.3125 37.921875 49.839844 36.328125 53.761719 35.910156 Z M 56 44.800781 C 49.839844 44.800781 44.800781 49.839844 44.800781 56 C 44.800781 62.160156 49.839844 67.199219 56 67.199219 C 62.160156 67.199219 67.199219 62.160156 67.199219 56 C 67.199219 49.839844 62.160156 44.800781 56 44.800781 Z M 56 49.28125 C 59.734375 49.28125 62.71875 52.265625 62.71875 56 C 62.71875 59.734375 59.734375 62.71875 56 62.71875 C 52.265625 62.71875 49.28125 59.734375 49.28125 56 C 49.28125 52.265625 52.265625 49.28125 56 49.28125 Z M 56 49.28125 "/>
</g>
</svg>
