<?xml version="1.0" encoding="utf-8"?>
<!-- Generator: Adobe Illustrator 24.1.1, SVG Export Plug-In . SVG Version: 6.00 Build 0)  -->
<svg version="1.1" id="Layer_1" xmlns="http://www.w3.org/2000/svg" xmlns:xlink="http://www.w3.org/1999/xlink" x="0px" y="0px"
	 viewBox="0 0 3300 2200" style="enable-background:new 0 0 3300 2200;" xml:space="preserve">
<style type="text/css">
	.st0{fill:#FFFFFF;}
	.st1{fill:none;stroke:#000000;stroke-width:0.5;}
	.st2{font-family:'Arial-BoldMT';}
	.st3{font-size:13px;}
	.st4{font-family:'ArialMT';}
	.st5{fill:none;stroke:#00AEEF;stroke-width:0.5;}
	.st6{fill:#27AAE1;}
	.st7{fill:none;stroke:#27AAE1;stroke-width:0.5;}
</style>
<g id="Notes">
	<rect id="artboard" class="st0" width="3300" height="2200"/>
	<line class="st1" x1="263" y1="292" x2="3036" y2="292"/>
	<text transform="matrix(1 0 0 1 263 322)" class="st2 st3">Weight/Scale Variations</text>
	<text transform="matrix(1 0 0 1 534.0632 322)" class="st4 st3">Ultralight</text>
	<text transform="matrix(1 0 0 1 843.7775 322)" class="st4 st3">Thin</text>
	<text transform="matrix(1 0 0 1 1139.035 322)" class="st4 st3">Light</text>
	<text transform="matrix(1 0 0 1 1427.0773 322)" class="st4 st3">Regular</text>
	<text transform="matrix(1 0 0 1 1723.4419 322)" class="st4 st3">Medium</text>
	<text transform="matrix(1 0 0 1 2016.1719 322)" class="st4 st3">Semibold</text>
	<text transform="matrix(1 0 0 1 2326.9705 322)" class="st4 st3">Bold</text>
	<text transform="matrix(1 0 0 1 2618.2659 322)" class="st4 st3">Heavy</text>
	<text transform="matrix(1 0 0 1 2917.5054 322)" class="st4 st3">Black</text>
	<line class="st1" x1="263" y1="1903" x2="3036" y2="1903"/>
	<g transform="matrix(1 0 0 1 263 1933)">
		<path d="M9.2,0.8c4.3,0,7.9-3.6,7.9-7.9S13.5-15,9.2-15s-7.9,3.6-7.9,7.9C1.4-2.7,5,0.8,9.2,0.8z M9.2-0.7C5.7-0.7,2.9-3.5,2.9-7
			c0-3.6,2.8-6.4,6.4-6.4s6.4,2.8,6.4,6.4C15.6-3.5,12.8-0.7,9.2-0.7z M5.7-7.1c0,0.4,0.3,0.7,0.8,0.7h2.1v2.1
			c0,0.4,0.3,0.7,0.7,0.7S10-3.9,10-4.3v-2.1h2.1c0.4,0,0.7-0.3,0.7-0.7c0-0.4-0.3-0.7-0.7-0.7H10v-2.1c0-0.4-0.3-0.8-0.7-0.8
			s-0.7,0.3-0.7,0.8v2.1H6.4C6-7.8,5.7-7.5,5.7-7.1z"/>
	</g>
	<g transform="matrix(1 0 0 1 281.867 1933)">
		<path d="M11.7,2.9c5.4,0,10-4.5,10-10c0-5.4-4.5-10-10-10c-5.4,0-10,4.5-10,10C1.7-1.6,6.3,2.9,11.7,2.9z M11.7,1.3
			C7.1,1.3,3.4-2.4,3.4-7s3.7-8.3,8.3-8.3S20-11.7,20-7.1C20-2.4,16.3,1.3,11.7,1.3z M7.2-7.1c0,0.5,0.3,0.8,0.8,0.8h2.9v2.9
			c0,0.5,0.3,0.8,0.8,0.8s0.8-0.3,0.8-0.8v-2.9h2.9c0.5,0,0.8-0.3,0.8-0.8s-0.3-0.8-0.8-0.8h-2.9v-2.9c0-0.5-0.3-0.8-0.8-0.8
			s-0.8,0.3-0.8,0.8v2.9H8C7.5-7.9,7.2-7.5,7.2-7.1z"/>
	</g>
	<g transform="matrix(1 0 0 1 305.646 1933)">
		<path d="M15,5.7c7,0,12.7-5.8,12.7-12.7c0-7-5.8-12.7-12.7-12.7C8-19.8,2.3-14,2.3-7.1C2.3-0.1,8,5.7,15,5.7z M15,3.8
			C8.9,3.8,4.1-1,4.1-7S8.9-17.9,15-17.9c6,0,10.9,4.9,10.9,10.9S21,3.8,15,3.8z M9.2-7.1c0,0.5,0.4,0.9,0.9,0.9H14v4
			c0,0.5,0.4,0.9,0.9,0.9s0.9-0.4,0.9-0.9v-4h4c0.5,0,0.9-0.4,0.9-0.9S20.3-8,19.8-8h-4v-3.9c0-0.5-0.4-0.9-0.9-0.9S14-12.4,14-11.9
			V-8h-3.9C9.6-8,9.2-7.6,9.2-7.1z"/>
	</g>
	<text transform="matrix(1 0 0 1 263 1953)" class="st2 st3">Design Variations</text>
	<text transform="matrix(1 0 0 1 263 1971)" class="st4 st3">Symbols are supported in up to nine weights and three scales.</text>
	<text transform="matrix(1 0 0 1 263 1989)" class="st4 st3">For optimal layout with text and other symbols, vertically align</text>
	<text transform="matrix(1 0 0 1 263 2007)" class="st4 st3">symbols with the adjacent text.</text>
	<line class="st5" x1="776" y1="1919" x2="776" y2="1933"/>
	<g transform="matrix(1 0 0 1 776 1933)">
		<path d="M3.3,0.2c0.5,0,0.8-0.2,1-0.7L5.5-4h5.8l1.3,3.4C12.7,0,13,0.2,13.5,0.2s0.9-0.3,0.9-0.8c0-0.2,0-0.3-0.1-0.5L9.7-13.4
			C9.4-14,9-14.3,8.4-14.3s-1,0.3-1.2,0.9L2.6-1.2C2.5-1,2.5-0.8,2.5-0.6C2.5-0.1,2.8,0.2,3.3,0.2z M6-5.5l2.4-6.6l0,0l2.4,6.6
			C10.8-5.5,6-5.5,6-5.5z"/>
	</g>
	<line class="st5" x1="793.2" y1="1919" x2="793.2" y2="1933"/>
	<text transform="matrix(1 0 0 1 776 1953)" class="st2 st3">Margins</text>
	<text transform="matrix(1 0 0 1 776 1971)" class="st4 st3">Leading and trailing margins on the left and right side of each symbol</text>
	<text transform="matrix(1 0 0 1 776 1989)" class="st4 st3">can be adjusted by modifying the x-location of the margin guidelines.</text>
	<text transform="matrix(1 0 0 1 776 2007)" class="st4 st3">Modifications are automatically applied proportionally to all</text>
	<text transform="matrix(1 0 0 1 776 2025)" class="st4 st3">scales and weights.</text>
	<g transform="matrix(1 0 0 1 1289 1933)">
		<path d="M2.8,1.9l1.7,1.7c0.9,0.9,1.8,0.8,2.8-0.2L18-8.4l-1-1L6.4,2.3C6,2.7,5.7,2.8,5.2,2.3L4.1,1.1C3.6,0.7,3.7,0.3,4.1,0
			l11.5-10.8l-1-1L3-0.9C2.1,0,2,1,2.8,1.9z M9.3-16.3c-0.4,0.4-0.4,1-0.2,1.4s0.7,0.6,1.3,0.4c1.5-0.3,3-0.4,4.4,0.5l-0.6,1.5
			c-0.3,0.8-0.2,1.4,0.4,2l2.3,2.3c0.5,0.5,0.9,0.5,1.5,0.4l1-0.2l0.7,0.7v0.6c0,0.5,0.1,0.9,0.6,1.4l0.8,0.7c0.5,0.5,1.1,0.5,1.6,0
			L26-7.5C26.5-8,26.4-8.6,26-9l-1-0.9c-0.5-0.5-0.9-0.6-1.3-0.6h-0.6l-0.6-0.6l0.2-1.1c0.1-0.6,0-1-0.6-1.6L19.9-16
			C16.6-19.3,12.1-19.2,9.3-16.3z M10.8-16c2.4-1.8,5.7-1.5,7.9,0.8l2.4,2.4c0.2,0.2,0.3,0.4,0.2,0.8L21-10.5L22.5-9l1-0.1
			c0.3,0,0.3,0,0.5,0.2l0.6,0.6l-2.4,2.4l-0.6-0.6c-0.2-0.2-0.2-0.3-0.2-0.5l0.1-1L20-9.5l-1.5,0.3c-0.3,0.1-0.5,0-0.7-0.2l-2-2
			c-0.3-0.2-0.3-0.4-0.1-0.8l0.9-2.1C15-15.8,13-16.4,11-15.8C10.7-15.7,10.6-15.9,10.8-16z"/>
	</g>
	<text transform="matrix(1 0 0 1 1289 1953)" class="st2 st3">Exporting</text>
	<text transform="matrix(1 0 0 1 1289 1971)" class="st4 st3">Symbols should be outlined when exporting to ensure the</text>
	<text transform="matrix(1 0 0 1 1289 1989)" class="st4 st3">design is preserved when submitting to Xcode.</text>
	<text id="template-version" transform="matrix(1 0 0 1 2952.4204 1933)" class="st4 st3">Template v.4.0</text>
	<text transform="matrix(1 0 0 1 2865.4575 1951)" class="st4 st3">Requires Xcode 14 or greater</text>
	<text id="descriptive-name" transform="matrix(1 0 0 1 2885.6938 1969)" class="st4 st3">Generated from nextcloud</text>
	<text transform="matrix(1 0 0 1 2912.4175 1987)" class="st4 st3">Typeset at 100 points</text>
	<text transform="matrix(1 0 0 1 263 726)" class="st4 st3">Small</text>
	<text transform="matrix(1 0 0 1 263 1156)" class="st4 st3">Medium</text>
	<text transform="matrix(1 0 0 1 263 1586)" class="st4 st3">Large</text>
</g>
<g id="Guides">
	<g id="H-reference" transform="matrix(1 0 0 1 339 696)">
		<path class="st6" d="M1,0h2.6l25.7-67.1H30v-3.3h-1.9L1,0z M11.7-24.5H47l-0.8-2.2H12.4L11.7-24.5z M55.1,0h2.6L30.6-70.5h-1.2
			v3.3L55.1,0z"/>
	</g>
	<line id="Baseline-S" class="st7" x1="263" y1="696" x2="3036" y2="696"/>
	<line id="Capline-S" class="st7" x1="263" y1="625.5" x2="3036" y2="625.5"/>
	<g id="H-reference_1_" transform="matrix(1 0 0 1 339 1126)">
		<path class="st6" d="M1,0h2.6l25.7-67.1H30v-3.3h-1.9L1,0z M11.7-24.5H47l-0.8-2.2H12.4L11.7-24.5z M55.1,0h2.6L30.6-70.5h-1.2
			v3.3L55.1,0z"/>
	</g>
	<line id="Baseline-M" class="st7" x1="263" y1="1126" x2="3036" y2="1126"/>
	<line id="Capline-M" class="st7" x1="263" y1="1055.5" x2="3036" y2="1055.5"/>
	<g id="H-reference_2_" transform="matrix(1 0 0 1 339 1556)">
		<path class="st6" d="M1,0h2.6l25.7-67.1H30v-3.3h-1.9L1,0z M11.7-24.5H47l-0.8-2.2H12.4L11.7-24.5z M55.1,0h2.6L30.6-70.5h-1.2
			v3.3L55.1,0z"/>
	</g>
	<line id="Baseline-L" class="st7" x1="263" y1="1556" x2="3036" y2="1556"/>
	<line id="Capline-L" class="st7" x1="263" y1="1485.5" x2="3036" y2="1485.5"/>
	<line id="left-margin-Regular-M" class="st5" x1="1391.3" y1="1030.8" x2="1391.3" y2="1150.1"/>
	<line id="right-margin-Regular-M" class="st5" x1="1508.4" y1="1030.8" x2="1508.4" y2="1150.1"/>
</g>
<g id="Symbols">
	<g id="Black-L" transform="matrix(1 0 0 1 2854.19 1556)">
		<path d="M26.7-8.9C12.1-8.9,0.2-20.7,0.2-35.3c0-14.6,11.9-26.4,26.4-26.4c14.6,0,26.4,11.9,26.4,26.4
			C53.1-20.7,41.2-8.9,26.7-8.9z M26.7-46.2c-6,0-10.9,4.9-10.9,10.9c0,6,4.9,10.9,10.9,10.9c6,0,10.9-4.9,10.9-10.9
			C37.5-41.3,32.7-46.2,26.7-46.2z M131.7-8.9c-14.6,0-26.4-11.9-26.4-26.4c0-14.6,11.9-26.4,26.4-26.4s26.4,11.9,26.4,26.4
			C158.1-20.7,146.3-8.9,131.7-8.9z M131.7-46.2c-6,0-10.9,4.9-10.9,10.9c0,6,4.9,10.9,10.9,10.9c6,0,10.9-4.9,10.9-10.9
			C142.6-41.3,137.7-46.2,131.7-46.2z M79.1,6C56.3,6,37.8-12.5,37.8-35.3s18.5-41.3,41.3-41.3s41.3,18.5,41.3,41.3S101.9,6,79.1,6z
			 M79.1-61c-14.2,0-25.7,11.5-25.7,25.7c0,14.2,11.5,25.7,25.7,25.7s25.7-11.5,25.7-25.7C104.8-49.5,93.3-61,79.1-61z"/>
	</g>
	<g id="Heavy-L" transform="matrix(1 0 0 1 2558.42 1556)">
		<path d="M26.6-9.9c-14,0-25.4-11.4-25.4-25.4c0-14,11.4-25.4,25.4-25.4s25.4,11.4,25.4,25.4C51.9-21.3,40.5-9.9,26.6-9.9z
			 M26.6-46.7c-6.3,0-11.4,5.1-11.4,11.4s5.1,11.4,11.4,11.4S38-29,38-35.3S32.9-46.7,26.6-46.7z M130-9.9
			c-14,0-25.4-11.4-25.4-25.4c0-14,11.4-25.4,25.4-25.4s25.4,11.4,25.4,25.4C155.3-21.3,143.9-9.9,130-9.9z M130-46.7
			c-6.3,0-11.4,5.1-11.4,11.4s5.1,11.4,11.4,11.4s11.4-5.1,11.4-11.4S136.3-46.7,130-46.7z M78.3,4.7c-22.1,0-40-17.9-40-40
			c0-22.1,17.9-40,40-40s40,17.9,40,40C118.3-13.2,100.3,4.7,78.3,4.7z M78.3-61.4c-14.4,0-26.1,11.7-26.1,26.1
			c0,14.4,11.7,26.1,26.1,26.1s26.1-11.7,26.1-26.1C104.3-49.7,92.6-61.4,78.3-61.4z"/>
	</g>
	<g id="Bold-L" transform="matrix(1 0 0 1 2262.89 1556)">
		<path d="M26.1-11C12.7-11,1.8-21.9,1.8-35.3s10.9-24.3,24.3-24.3s24.3,10.9,24.3,24.3S39.5-11,26.1-11z M26.1-47.2
			c-6.6,0-11.9,5.4-11.9,11.9c0,6.6,5.4,11.9,11.9,11.9s11.9-5.4,11.9-11.9C38.1-41.9,32.7-47.2,26.1-47.2z M128.1-11
			c-13.4,0-24.3-10.9-24.3-24.3s10.9-24.3,24.3-24.3c13.4,0,24.3,10.9,24.3,24.3S141.5-11,128.1-11z M128.1-47.2
			c-6.6,0-11.9,5.4-11.9,11.9c0,6.6,5.4,11.9,11.9,11.9c6.6,0,11.9-5.4,11.9-11.9C140-41.9,134.7-47.2,128.1-47.2z M77.2,3.4
			C55.8,3.4,38.5-14,38.5-35.3C38.5-56.6,55.8-74,77.2-74c21.3,0,38.7,17.4,38.7,38.7C115.9-14,98.5,3.4,77.2,3.4z M77.2-61.6
			c-14.5,0-26.3,11.8-26.3,26.3C50.8-20.8,62.6-9,77.2-9s26.3-11.8,26.3-26.3C103.5-49.8,91.7-61.6,77.2-61.6z"/>
	</g>
	<g id="Semibold-L" transform="matrix(1 0 0 1 1966.99 1556)">
		<path d="M26-12.1c-12.8,0-23.2-10.4-23.2-23.2c0-12.8,10.4-23.2,23.2-23.2s23.2,10.4,23.2,23.2C49.2-22.5,38.8-12.1,26-12.1z
			 M26-47.7c-6.9,0-12.4,5.6-12.4,12.4c0,6.9,5.6,12.4,12.4,12.4s12.4-5.6,12.4-12.4C38.4-42.2,32.9-47.7,26-47.7z M126.4-12.1
			c-12.8,0-23.2-10.4-23.2-23.2c0-12.8,10.4-23.2,23.2-23.2s23.2,10.4,23.2,23.2C149.6-22.5,139.2-12.1,126.4-12.1z M126.4-47.7
			c-6.9,0-12.4,5.6-12.4,12.4c0,6.9,5.6,12.4,12.4,12.4c6.9,0,12.4-5.6,12.4-12.4C138.8-42.2,133.2-47.7,126.4-47.7z M76.1,2.1
			c-20.6,0-37.4-16.8-37.4-37.4s16.8-37.4,37.4-37.4s37.4,16.8,37.4,37.4S96.7,2.1,76.1,2.1z M76.1-61.9
			c-14.7,0-26.6,11.9-26.6,26.6S61.4-8.7,76.1-8.7s26.6-11.9,26.6-26.6S90.8-61.9,76.1-61.9z"/>
	</g>
	<g id="Medium-L" transform="matrix(1 0 0 1 1670.9 1556)">
		<path d="M26.3-13.1c-12.2,0-22.2-9.9-22.2-22.2c0-12.2,9.9-22.2,22.2-22.2c12.2,0,22.2,9.9,22.2,22.2
			C48.5-23.1,38.5-13.1,26.3-13.1z M26.3-48.2c-7.1,0-12.9,5.8-12.9,12.9s5.8,12.9,12.9,12.9s12.9-5.8,12.9-12.9
			S33.4-48.2,26.3-48.2z M125-13.1c-12.2,0-22.2-9.9-22.2-22.2c0-12.2,9.9-22.2,22.2-22.2s22.2,9.9,22.2,22.2
			C147.2-23.1,137.2-13.1,125-13.1z M125-48.2c-7.1,0-12.9,5.8-12.9,12.9s5.8,12.9,12.9,12.9c7.1,0,12.9-5.8,12.9-12.9
			S132.1-48.2,125-48.2z M75.7,0.8c-19.9,0-36.1-16.2-36.1-36.1c0-19.9,16.2-36.1,36.1-36.1s36.1,16.2,36.1,36.1
			C111.8-15.4,95.6,0.8,75.7,0.8z M75.7-62.1c-14.8,0-26.8,12-26.8,26.8c0,14.8,12,26.8,26.8,26.8c14.8,0,26.8-12,26.8-26.8
			C102.5-50.1,90.5-62.1,75.7-62.1z"/>
	</g>
	<g id="Regular-L" transform="matrix(1 0 0 1 1374.99 1556)">
		<path d="M26.4-14.2c-11.7,0-21.1-9.5-21.1-21.1s9.5-21.1,21.1-21.1S47.5-47,47.5-35.3S38-14.2,26.4-14.2z M26.4-48.6
			c-7.3,0-13.3,6-13.3,13.3C13.1-28,19-22,26.4-22c7.3,0,13.3-6,13.3-13.3C39.7-42.6,33.7-48.6,26.4-48.6z M123.3-14.2
			c-11.7,0-21.1-9.5-21.1-21.1s9.5-21.1,21.1-21.1s21.1,9.5,21.1,21.1S134.9-14.2,123.3-14.2z M123.3-48.6c-7.3,0-13.3,6-13.3,13.3
			c0,7.3,6,13.3,13.3,13.3s13.3-6,13.3-13.3C136.6-42.6,130.6-48.6,123.3-48.6z M74.8-0.5c-19.2,0-34.8-15.6-34.8-34.8
			c0-19.2,15.6-34.8,34.8-34.8c19.2,0,34.8,15.6,34.8,34.8C109.6-16.1,94-0.5,74.8-0.5z M74.8-62.3c-14.9,0-27,12.1-27,27
			c0,14.9,12.1,27,27,27s27-12.1,27-27C101.8-50.2,89.7-62.3,74.8-62.3z"/>
	</g>
	<g id="Light-L" transform="matrix(1 0 0 1 1079.2 1556)">
		<path d="M26.4-15.2c-11.1,0-20.1-9-20.1-20.1c0-11.1,9-20.1,20.1-20.1s20.1,9,20.1,20.1C46.5-24.2,37.5-15.2,26.4-15.2z M26.4-49
			c-7.6,0-13.7,6.1-13.7,13.7s6.1,13.7,13.7,13.7s13.7-6.1,13.7-13.7S34-49,26.4-49z M121.5-15.2c-11.1,0-20.1-9-20.1-20.1
			c0-11.1,9-20.1,20.1-20.1c11.1,0,20.1,9,20.1,20.1C141.6-24.2,132.6-15.2,121.5-15.2z M121.5-49c-7.6,0-13.7,6.1-13.7,13.7
			s6.1,13.7,13.7,13.7c7.6,0,13.7-6.1,13.7-13.7S129.1-49,121.5-49z M73.9-1.8c-18.5,0-33.5-15-33.5-33.5s15-33.5,33.5-33.5
			s33.5,15,33.5,33.5S92.4-1.8,73.9-1.8z M73.9-62.4c-15,0-27.1,12.2-27.1,27.1S59-8.2,73.9-8.2c15,0,27.1-12.2,27.1-27.1
			S88.9-62.4,73.9-62.4z"/>
	</g>
	<g id="Thin-L" transform="matrix(1 0 0 1 783.716 1556)">
		<path d="M26.1-16.2C15.6-16.2,7-24.8,7-35.3s8.6-19.1,19.1-19.1s19.1,8.6,19.1,19.1S36.6-16.2,26.1-16.2z M26.1-49.4
			C18.3-49.4,12-43,12-35.3s6.3,14.1,14.1,14.1s14.1-6.3,14.1-14.1S33.8-49.4,26.1-49.4z M119.3-16.2c-10.5,0-19.1-8.6-19.1-19.1
			s8.6-19.1,19.1-19.1s19.1,8.6,19.1,19.1S129.8-16.2,119.3-16.2z M119.3-49.4c-7.7,0-14.1,6.3-14.1,14.1s6.3,14.1,14.1,14.1
			s14.1-6.3,14.1-14.1S127.1-49.4,119.3-49.4z M72.8-3C55-3,40.5-17.5,40.5-35.3c0-17.8,14.5-32.3,32.3-32.3S105-53.1,105-35.3
			C105-17.5,90.6-3,72.8-3z M72.8-62.5c-15,0-27.2,12.2-27.2,27.2S57.8-8.1,72.8-8.1S100-20.3,100-35.3S87.8-62.5,72.8-62.5z"/>
	</g>
	<g id="Ultralight-L" transform="matrix(1 0 0 1 487.631 1556)">
		<path d="M25.4-17.2c-10,0-18.1-8.1-18.1-18.1c0-10,8.1-18.1,18.1-18.1c10,0,18.1,8.1,18.1,18.1C43.5-25.3,35.4-17.2,25.4-17.2z
			 M25.4-49.7c-7.9,0-14.4,6.4-14.4,14.4c0,7.9,6.4,14.4,14.4,14.4c7.9,0,14.4-6.4,14.4-14.4C39.8-43.2,33.3-49.7,25.4-49.7z
			 M116.7-17.2c-10,0-18.1-8.1-18.1-18.1c0-10,8.1-18.1,18.1-18.1c10,0,18.1,8.1,18.1,18.1C134.7-25.3,126.6-17.2,116.7-17.2z
			 M116.7-49.7c-7.9,0-14.4,6.4-14.4,14.4c0,7.9,6.4,14.4,14.4,14.4c7.9,0,14.4-6.4,14.4-14.4C131.1-43.2,124.6-49.7,116.7-49.7z
			 M71.1-4.3c-17.1,0-31-13.9-31-31c0-17.1,13.9-31,31-31c17.1,0,31,13.9,31,31C102.1-18.2,88.2-4.3,71.1-4.3z M71.1-62.6
			c-15,0-27.3,12.2-27.3,27.3C43.8-20.3,56.1-8,71.1-8c15,0,27.3-12.2,27.3-27.3C98.4-50.3,86.1-62.6,71.1-62.6z"/>
	</g>
	<g id="Black-M" transform="matrix(1 0 0 1 2871.36 1126)">
		<path d="M21.3-14.8C10-14.8,0.8-24,0.8-35.3c0-11.3,9.2-20.5,20.5-20.5c11.3,0,20.5,9.2,20.5,20.5C41.8-24,32.6-14.8,21.3-14.8z
			 M21.3-43.7c-4.7,0-8.4,3.8-8.4,8.4c0,4.7,3.8,8.4,8.4,8.4c4.7,0,8.4-3.8,8.4-8.4C29.7-40,25.9-43.7,21.3-43.7z M102.7-14.8
			c-11.3,0-20.5-9.2-20.5-20.5c0-11.3,9.2-20.5,20.5-20.5s20.5,9.2,20.5,20.5C123.2-24,114-14.8,102.7-14.8z M102.7-43.7
			c-4.7,0-8.4,3.8-8.4,8.4c0,4.7,3.8,8.4,8.4,8.4c4.7,0,8.4-3.8,8.4-8.4C111.2-40,107.4-43.7,102.7-43.7z M61.9-3.3
			c-17.6,0-32-14.4-32-32s14.4-32,32-32s32,14.4,32,32S79.6-3.3,61.9-3.3z M61.9-55.2c-11,0-19.9,8.9-19.9,19.9
			c0,11,8.9,19.9,19.9,19.9s19.9-8.9,19.9-19.9C81.9-46.3,72.9-55.2,61.9-55.2z"/>
	</g>
	<g id="Heavy-M" transform="matrix(1 0 0 1 2575.48 1126)">
		<path d="M21.1-15.6c-10.8,0-19.7-8.8-19.7-19.7C1.5-46.1,10.3-55,21.1-55s19.7,8.8,19.7,19.7C40.8-24.5,32-15.6,21.1-15.6z
			 M21.1-44.2c-4.9,0-8.9,4-8.9,8.9s4,8.9,8.9,8.9s8.9-4,8.9-8.9S26-44.2,21.1-44.2z M101.3-15.6c-10.8,0-19.7-8.8-19.7-19.7
			c0-10.8,8.8-19.7,19.7-19.7s19.7,8.8,19.7,19.7C120.9-24.5,112.1-15.6,101.3-15.6z M101.3-44.2c-4.9,0-8.9,4-8.9,8.9
			s4,8.9,8.9,8.9s8.9-4,8.9-8.9S106.2-44.2,101.3-44.2z M61.2-4.3c-17.1,0-31-13.9-31-31c0-17.1,13.9-31,31-31s31,13.9,31,31
			C92.2-18.2,78.3-4.3,61.2-4.3z M61.2-55.5C50.1-55.5,41-46.4,41-35.3c0,11.1,9.1,20.2,20.2,20.2s20.2-9.1,20.2-20.2
			C81.4-46.4,72.3-55.5,61.2-55.5z"/>
	</g>
	<g id="Bold-M" transform="matrix(1 0 0 1 2279.69 1126)">
		<path d="M20.8-16.5c-10.4,0-18.8-8.4-18.8-18.8s8.4-18.8,18.8-18.8s18.8,8.4,18.8,18.8S31.2-16.5,20.8-16.5z M20.8-44.6
			c-5.1,0-9.3,4.2-9.3,9.3c0,5.1,4.2,9.3,9.3,9.3s9.3-4.2,9.3-9.3C30-40.4,25.9-44.6,20.8-44.6z M99.8-16.5
			C89.4-16.5,81-24.9,81-35.3s8.4-18.8,18.8-18.8s18.8,8.4,18.8,18.8S110.2-16.5,99.8-16.5z M99.8-44.6c-5.1,0-9.3,4.2-9.3,9.3
			c0,5.1,4.2,9.3,9.3,9.3c5.1,0,9.3-4.2,9.3-9.3C109.1-40.4,104.9-44.6,99.8-44.6z M60.4-5.3c-16.5,0-30-13.5-30-30
			c0-16.5,13.5-30,30-30c16.5,0,30,13.5,30,30C90.4-18.8,76.9-5.3,60.4-5.3z M60.4-55.7c-11.3,0-20.4,9.2-20.4,20.4
			c0,11.3,9.2,20.4,20.4,20.4S80.8-24,80.8-35.3C80.8-46.6,71.6-55.7,60.4-55.7z"/>
	</g>
	<g id="Semibold-M" transform="matrix(1 0 0 1 1983.62 1126)">
		<path d="M20.7-17.3c-9.9,0-18-8.1-18-18c0-9.9,8.1-18,18-18s18,8.1,18,18C38.7-25.4,30.6-17.3,20.7-17.3z M20.7-44.9
			c-5.3,0-9.6,4.3-9.6,9.6c0,5.3,4.3,9.6,9.6,9.6s9.6-4.3,9.6-9.6C30.3-40.6,26-44.9,20.7-44.9z M98.4-17.3c-9.9,0-18-8.1-18-18
			c0-9.9,8.1-18,18-18s18,8.1,18,18C116.5-25.4,108.4-17.3,98.4-17.3z M98.4-44.9c-5.3,0-9.6,4.3-9.6,9.6c0,5.3,4.3,9.6,9.6,9.6
			s9.6-4.3,9.6-9.6C108.1-40.6,103.8-44.9,98.4-44.9z M59.5-6.3c-16,0-29-13-29-29s13-29,29-29s29,13,29,29S75.5-6.3,59.5-6.3z
			 M59.5-55.9c-11.4,0-20.6,9.3-20.6,20.6s9.3,20.6,20.6,20.6s20.6-9.3,20.6-20.6S70.9-55.9,59.5-55.9z"/>
	</g>
	<g id="Medium-M" transform="matrix(1 0 0 1 1687.4 1126)">
		<path d="M20.9-18.1c-9.5,0-17.2-7.7-17.2-17.2c0-9.5,7.7-17.2,17.2-17.2c9.5,0,17.2,7.7,17.2,17.2C38.1-25.8,30.4-18.1,20.9-18.1z
			 M20.9-45.3c-5.5,0-10,4.5-10,10s4.5,10,10,10s10-4.5,10-10S26.4-45.3,20.9-45.3z M97.4-18.1c-9.5,0-17.2-7.7-17.2-17.2
			c0-9.5,7.7-17.2,17.2-17.2s17.2,7.7,17.2,17.2C114.6-25.8,106.9-18.1,97.4-18.1z M97.4-45.3c-5.5,0-10,4.5-10,10s4.5,10,10,10
			c5.5,0,10-4.5,10-10S102.9-45.3,97.4-45.3z M59.2-7.3c-15.4,0-28-12.6-28-28c0-15.4,12.6-28,28-28s28,12.6,28,28
			C87.2-19.9,74.6-7.3,59.2-7.3z M59.2-56.1c-11.5,0-20.8,9.3-20.8,20.8c0,11.5,9.3,20.8,20.8,20.8c11.5,0,20.8-9.3,20.8-20.8
			C80-46.8,70.7-56.1,59.2-56.1z"/>
	</g>
	<g id="Regular-M" transform="matrix(1 0 0 1 1391.32 1126)">
		<path d="M20.9-18.9c-9,0-16.4-7.3-16.4-16.4s7.3-16.4,16.4-16.4s16.4,7.3,16.4,16.4S30-18.9,20.9-18.9z M20.9-45.6
			c-5.7,0-10.3,4.6-10.3,10.3c0,5.7,4.6,10.3,10.3,10.3c5.7,0,10.3-4.6,10.3-10.3C31.2-41,26.6-45.6,20.9-45.6z M96.1-18.9
			c-9,0-16.4-7.3-16.4-16.4S87-51.7,96.1-51.7s16.4,7.3,16.4,16.4S105.1-18.9,96.1-18.9z M96.1-45.6c-5.7,0-10.3,4.6-10.3,10.3
			c0,5.7,4.6,10.3,10.3,10.3c5.7,0,10.3-4.6,10.3-10.3C106.4-41,101.8-45.6,96.1-45.6z M58.4-8.3c-14.9,0-27-12.1-27-27
			c0-14.9,12.1-27,27-27c14.9,0,27,12.1,27,27C85.4-20.4,73.3-8.3,58.4-8.3z M58.4-56.2c-11.5,0-20.9,9.4-20.9,20.9
			c0,11.5,9.4,20.9,20.9,20.9s20.9-9.4,20.9-20.9C79.4-46.8,70-56.2,58.4-56.2z"/>
	</g>
	<g id="Light-M" transform="matrix(1 0 0 1 1095.44 1126)">
		<path d="M20.9-19.7c-8.6,0-15.6-7-15.6-15.6c0-8.6,7-15.6,15.6-15.6s15.6,7,15.6,15.6C36.5-26.7,29.5-19.7,20.9-19.7z M20.9-45.9
			c-5.9,0-10.6,4.8-10.6,10.6S15-24.7,20.9-24.7s10.6-4.8,10.6-10.6S26.7-45.9,20.9-45.9z M94.6-19.7c-8.6,0-15.6-7-15.6-15.6
			c0-8.6,7-15.6,15.6-15.6c8.6,0,15.6,7,15.6,15.6C110.2-26.7,103.2-19.7,94.6-19.7z M94.6-45.9c-5.9,0-10.6,4.8-10.6,10.6
			s4.8,10.6,10.6,10.6s10.6-4.8,10.6-10.6S100.5-45.9,94.6-45.9z M57.7-9.3c-14.3,0-26-11.7-26-26s11.7-26,26-26s26,11.7,26,26
			S72-9.3,57.7-9.3z M57.7-56.3c-11.6,0-21,9.4-21,21s9.4,21,21,21c11.6,0,21-9.4,21-21S69.3-56.3,57.7-56.3z"/>
	</g>
	<g id="Thin-M" transform="matrix(1 0 0 1 799.828 1126)">
		<path d="M20.5-20.5c-8.2,0-14.8-6.6-14.8-14.8s6.6-14.8,14.8-14.8s14.8,6.6,14.8,14.8S28.6-20.5,20.5-20.5z M20.5-46.2
			c-6,0-10.9,4.9-10.9,10.9s4.9,10.9,10.9,10.9s10.9-4.9,10.9-10.9S26.5-46.2,20.5-46.2z M92.7-20.5c-8.2,0-14.8-6.6-14.8-14.8
			s6.6-14.8,14.8-14.8s14.8,6.6,14.8,14.8S100.9-20.5,92.7-20.5z M92.7-46.2c-6,0-10.9,4.9-10.9,10.9s4.9,10.9,10.9,10.9
			s10.9-4.9,10.9-10.9S98.7-46.2,92.7-46.2z M56.6-10.3c-13.8,0-25-11.2-25-25c0-13.8,11.2-25,25-25s25,11.2,25,25
			C81.6-21.5,70.4-10.3,56.6-10.3z M56.6-56.4c-11.6,0-21.1,9.5-21.1,21.1S45-14.2,56.6-14.2s21.1-9.5,21.1-21.1
			S68.3-56.4,56.6-56.4z"/>
	</g>
	<g id="Ultralight-M" transform="matrix(1 0 0 1 503.679 1126)">
		<path d="M19.6-21.3c-7.7,0-14-6.3-14-14c0-7.7,6.3-14,14-14c7.7,0,14,6.3,14,14C33.6-27.6,27.3-21.3,19.6-21.3z M19.6-46.4
			c-6.1,0-11.1,5-11.1,11.1c0,6.1,5,11.1,11.1,11.1c6.1,0,11.1-5,11.1-11.1C30.8-41.4,25.8-46.4,19.6-46.4z M90.4-21.3
			c-7.7,0-14-6.3-14-14c0-7.7,6.3-14,14-14c7.7,0,14,6.3,14,14C104.4-27.6,98.1-21.3,90.4-21.3z M90.4-46.4c-6.1,0-11.1,5-11.1,11.1
			c0,6.1,5,11.1,11.1,11.1c6.1,0,11.1-5,11.1-11.1C101.5-41.4,96.5-46.4,90.4-46.4z M55-11.3c-13.2,0-24-10.8-24-24
			c0-13.2,10.8-24,24-24c13.2,0,24,10.8,24,24C79-22.1,68.3-11.3,55-11.3z M55-56.4c-11.7,0-21.1,9.5-21.1,21.1
			c0,11.7,9.5,21.1,21.1,21.1c11.7,0,21.1-9.5,21.1-21.1C76.2-47,66.7-56.4,55-56.4z"/>
	</g>
	<g id="Black-S" transform="matrix(1 0 0 1 2884.57 696)">
		<path d="M16.9-19.2c-8.8,0-16-7.2-16-16c0-8.8,7.2-16,16-16c8.8,0,16,7.2,16,16C33-26.4,25.8-19.2,16.9-19.2z M16.9-41.8
			c-3.6,0-6.6,3-6.6,6.6c0,3.6,3,6.6,6.6,6.6c3.6,0,6.6-3,6.6-6.6C23.5-38.8,20.6-41.8,16.9-41.8z M80.7-19.2c-8.8,0-16-7.2-16-16
			c0-8.8,7.2-16,16-16s16,7.2,16,16C96.7-26.4,89.5-19.2,80.7-19.2z M80.7-41.8c-3.6,0-6.6,3-6.6,6.6c0,3.6,3,6.6,6.6,6.6
			s6.6-3,6.6-6.6C87.3-38.8,84.3-41.8,80.7-41.8z M48.7-10.1c-13.8,0-25.1-11.2-25.1-25.1s11.2-25.1,25.1-25.1S73.8-49,73.8-35.2
			S62.6-10.1,48.7-10.1z M48.7-50.8c-8.6,0-15.6,7-15.6,15.6c0,8.6,7,15.6,15.6,15.6s15.6-7,15.6-15.6
			C64.4-43.8,57.4-50.8,48.7-50.8z"/>
	</g>
	<g id="Heavy-S" transform="matrix(1 0 0 1 2588.47 696)">
		<path d="M16.8-19.8c-8.5,0-15.4-6.9-15.4-15.4c0-8.5,6.9-15.4,15.4-15.4s15.4,6.9,15.4,15.4C32.2-26.7,25.3-19.8,16.8-19.8z
			 M16.8-42.1c-3.8,0-6.9,3.1-6.9,6.9c0,3.8,3.1,6.9,6.9,6.9s6.9-3.1,6.9-6.9C23.8-39,20.7-42.1,16.8-42.1z M79.6-19.8
			c-8.5,0-15.4-6.9-15.4-15.4c0-8.5,6.9-15.4,15.4-15.4S95-43.7,95-35.2C95-26.7,88.1-19.8,79.6-19.8z M79.6-42.1
			c-3.8,0-6.9,3.1-6.9,6.9c0,3.8,3.1,6.9,6.9,6.9c3.8,0,6.9-3.1,6.9-6.9C86.5-39,83.4-42.1,79.6-42.1z M48.2-10.9
			c-13.4,0-24.3-10.9-24.3-24.3c0-13.4,10.9-24.3,24.3-24.3s24.3,10.9,24.3,24.3C72.5-21.8,61.6-10.9,48.2-10.9z M48.2-51
			c-8.7,0-15.8,7.1-15.8,15.8c0,8.7,7.1,15.8,15.8,15.8S64-26.5,64-35.2C64-43.9,56.9-51,48.2-51z"/>
	</g>
	<g id="Bold-S" transform="matrix(1 0 0 1 2292.43 696)">
		<path d="M16.6-20.5c-8.1,0-14.7-6.6-14.7-14.7s6.6-14.7,14.7-14.7s14.7,6.6,14.7,14.7S24.7-20.5,16.6-20.5z M16.6-42.4
			c-4,0-7.2,3.3-7.2,7.2c0,4,3.3,7.2,7.2,7.2s7.2-3.3,7.2-7.2C23.9-39.2,20.6-42.4,16.6-42.4z M78.5-20.5c-8.1,0-14.7-6.6-14.7-14.7
			s6.6-14.7,14.7-14.7s14.7,6.6,14.7,14.7S86.6-20.5,78.5-20.5z M78.5-42.4c-4,0-7.2,3.3-7.2,7.2c0,4,3.3,7.2,7.2,7.2
			c4,0,7.2-3.3,7.2-7.2C85.8-39.2,82.5-42.4,78.5-42.4z M47.6-11.7c-13,0-23.5-10.5-23.5-23.5c0-13,10.5-23.5,23.5-23.5
			c13,0,23.5,10.5,23.5,23.5C71.1-22.2,60.6-11.7,47.6-11.7z M47.6-51.2c-8.8,0-16,7.2-16,16c0,8.8,7.2,16,16,16s16-7.2,16-16
			C63.6-44,56.4-51.2,47.6-51.2z"/>
	</g>
	<g id="Semibold-S" transform="matrix(1 0 0 1 1996.19 696)">
		<path d="M16.5-21.1c-7.8,0-14.1-6.3-14.1-14.1c0-7.8,6.3-14.1,14.1-14.1S30.6-43,30.6-35.2C30.6-27.4,24.3-21.1,16.5-21.1z
			 M16.5-42.7c-4.2,0-7.5,3.4-7.5,7.5c0,4.2,3.4,7.5,7.5,7.5s7.5-3.4,7.5-7.5C24.1-39.4,20.7-42.7,16.5-42.7z M77.4-21.1
			c-7.8,0-14.1-6.3-14.1-14.1c0-7.8,6.3-14.1,14.1-14.1S91.5-43,91.5-35.2C91.5-27.4,85.2-21.1,77.4-21.1z M77.4-42.7
			c-4.2,0-7.5,3.4-7.5,7.5c0,4.2,3.4,7.5,7.5,7.5S85-31,85-35.2C85-39.4,81.6-42.7,77.4-42.7z M46.9-12.5
			c-12.5,0-22.7-10.2-22.7-22.7s10.2-22.7,22.7-22.7s22.7,10.2,22.7,22.7S59.5-12.5,46.9-12.5z M46.9-51.3
			c-8.9,0-16.1,7.2-16.1,16.1S38-19.1,46.9-19.1s16.1-7.2,16.1-16.1S55.8-51.3,46.9-51.3z"/>
	</g>
	<g id="Medium-S" transform="matrix(1 0 0 1 1699.83 696)">
		<path d="M16.8-21.7c-7.4,0-13.5-6-13.5-13.5c0-7.4,6-13.5,13.5-13.5c7.4,0,13.5,6,13.5,13.5C30.2-27.8,24.2-21.7,16.8-21.7z
			 M16.8-43C12.5-43,9-39.5,9-35.2s3.5,7.8,7.8,7.8s7.8-3.5,7.8-7.8S21.1-43,16.8-43z M76.7-21.7c-7.4,0-13.5-6-13.5-13.5
			c0-7.4,6-13.5,13.5-13.5c7.4,0,13.5,6,13.5,13.5C90.1-27.8,84.1-21.7,76.7-21.7z M76.7-43c-4.3,0-7.8,3.5-7.8,7.8s3.5,7.8,7.8,7.8
			s7.8-3.5,7.8-7.8S81-43,76.7-43z M46.8-13.3c-12.1,0-21.9-9.8-21.9-21.9c0-12.1,9.8-21.9,21.9-21.9s21.9,9.8,21.9,21.9
			C68.7-23.1,58.8-13.3,46.8-13.3z M46.8-51.5c-9,0-16.3,7.3-16.3,16.3c0,9,7.3,16.3,16.3,16.3c9,0,16.3-7.3,16.3-16.3
			C63-44.2,55.7-51.5,46.8-51.5z"/>
	</g>
	<g id="Regular-S" transform="matrix(1 0 0 1 1403.58 696)">
		<path d="M16.8-22.4C9.8-22.4,4-28.1,4-35.2S9.8-48,16.8-48s12.8,5.8,12.8,12.8S23.9-22.4,16.8-22.4z M16.8-43.3
			c-4.5,0-8.1,3.6-8.1,8.1c0,4.5,3.6,8.1,8.1,8.1c4.5,0,8.1-3.6,8.1-8.1C24.9-39.7,21.3-43.3,16.8-43.3z M75.7-22.4
			c-7.1,0-12.8-5.8-12.8-12.8S68.6-48,75.7-48c7.1,0,12.8,5.8,12.8,12.8S82.7-22.4,75.7-22.4z M75.7-43.3c-4.5,0-8.1,3.6-8.1,8.1
			c0,4.5,3.6,8.1,8.1,8.1s8.1-3.6,8.1-8.1C83.7-39.7,80.1-43.3,75.7-43.3z M46.2-14.1c-11.7,0-21.1-9.5-21.1-21.1
			c0-11.7,9.5-21.1,21.1-21.1c11.7,0,21.1,9.5,21.1,21.1C67.3-23.5,57.9-14.1,46.2-14.1z M46.2-51.6c-9,0-16.4,7.4-16.4,16.4
			c0,9,7.4,16.4,16.4,16.4s16.4-7.4,16.4-16.4C62.6-44.2,55.2-51.6,46.2-51.6z"/>
	</g>
	<g id="Light-S" transform="matrix(1 0 0 1 1107.6 696)">
		<path d="M16.7-23C10-23,4.5-28.5,4.5-35.2c0-6.7,5.5-12.2,12.2-12.2s12.2,5.5,12.2,12.2C28.9-28.5,23.5-23,16.7-23z M16.7-43.5
			c-4.6,0-8.3,3.7-8.3,8.3s3.7,8.3,8.3,8.3s8.3-3.7,8.3-8.3S21.3-43.5,16.7-43.5z M74.5-23c-6.7,0-12.2-5.5-12.2-12.2
			c0-6.7,5.5-12.2,12.2-12.2c6.7,0,12.2,5.5,12.2,12.2C86.7-28.5,81.2-23,74.5-23z M74.5-43.5c-4.6,0-8.3,3.7-8.3,8.3
			s3.7,8.3,8.3,8.3c4.6,0,8.3-3.7,8.3-8.3S79-43.5,74.5-43.5z M45.6-14.8c-11.2,0-20.4-9.1-20.4-20.4s9.1-20.4,20.4-20.4
			s20.4,9.1,20.4,20.4S56.8-14.8,45.6-14.8z M45.6-51.7c-9.1,0-16.5,7.4-16.5,16.5s7.4,16.5,16.5,16.5c9.1,0,16.5-7.4,16.5-16.5
			S54.6-51.7,45.6-51.7z"/>
	</g>
	<g id="Thin-S" transform="matrix(1 0 0 1 811.863 696)">
		<path d="M16.3-23.6c-6.4,0-11.6-5.2-11.6-11.6s5.2-11.6,11.6-11.6s11.6,5.2,11.6,11.6S22.7-23.6,16.3-23.6z M16.3-43.7
			c-4.7,0-8.5,3.8-8.5,8.5s3.8,8.5,8.5,8.5s8.5-3.8,8.5-8.5S21-43.7,16.3-43.7z M72.9-23.6c-6.4,0-11.6-5.2-11.6-11.6
			s5.2-11.6,11.6-11.6c6.4,0,11.6,5.2,11.6,11.6S79.2-23.6,72.9-23.6z M72.9-43.7c-4.7,0-8.5,3.8-8.5,8.5s3.8,8.5,8.5,8.5
			c4.7,0,8.5-3.8,8.5-8.5S77.6-43.7,72.9-43.7z M44.6-15.6C33.8-15.6,25-24.4,25-35.2c0-10.8,8.8-19.6,19.6-19.6S64.2-46,64.2-35.2
			C64.2-24.4,55.4-15.6,44.6-15.6z M44.6-51.7c-9.1,0-16.5,7.4-16.5,16.5s7.4,16.5,16.5,16.5s16.5-7.4,16.5-16.5
			S53.7-51.7,44.6-51.7z"/>
	</g>
	<g id="Ultralight-S" transform="matrix(1 0 0 1 515.649 696)">
		<path d="M15.3-24.2c-6,0-11-4.9-11-11c0-6,4.9-11,11-11c6,0,11,4.9,11,11C26.3-29.2,21.4-24.2,15.3-24.2z M15.3-43.9
			c-4.8,0-8.7,3.9-8.7,8.7c0,4.8,3.9,8.7,8.7,8.7c4.8,0,8.7-3.9,8.7-8.7C24.1-40,20.1-43.9,15.3-43.9z M70.7-24.2c-6,0-11-4.9-11-11
			c0-6,4.9-11,11-11c6,0,11,4.9,11,11C81.7-29.2,76.8-24.2,70.7-24.2z M70.7-43.9c-4.8,0-8.7,3.9-8.7,8.7c0,4.8,3.9,8.7,8.7,8.7
			c4.8,0,8.7-3.9,8.7-8.7C79.5-40,75.5-43.9,70.7-43.9z M43.1-16.4c-10.4,0-18.8-8.4-18.8-18.8c0-10.4,8.4-18.8,18.8-18.8
			c10.4,0,18.8,8.4,18.8,18.8C61.9-24.8,53.4-16.4,43.1-16.4z M43.1-51.8c-9.1,0-16.6,7.4-16.6,16.6c0,9.1,7.4,16.6,16.6,16.6
			c9.1,0,16.6-7.4,16.6-16.6C59.6-44.3,52.2-51.8,43.1-51.8z"/>
	</g>
</g>
</svg>
