<?xml version="1.0" encoding="utf-8"?>
<!-- Generator: Adobe Illustrator 27.5.0, SVG Export Plug-In . SVG Version: 6.00 Build 0)  -->
<svg version="1.1" id="Layer_1" xmlns="http://www.w3.org/2000/svg" xmlns:xlink="http://www.w3.org/1999/xlink" x="0px" y="0px"
	 viewBox="0 0 3300 2200" style="enable-background:new 0 0 3300 2200;" xml:space="preserve">
<style type="text/css">
	.st0{fill:#FFFFFF;}
	.st1{fill:none;stroke:#000000;stroke-width:0.5;}
	.st2{font-family:'Helvetica-Bold';}
	.st3{font-size:13px;}
	.st4{font-family:'Helvetica';}
	.st5{fill:none;stroke:#00AEEF;stroke-width:0.5;}
	.st6{fill:#27AAE1;}
	.st7{fill:none;stroke:#27AAE1;stroke-width:0.5;}
	.st8{enable-background:new    ;}
</style>
<g id="Notes">
	<rect id="artboard" class="st0" width="3300" height="2200"/>
	<line class="st1" x1="263" y1="292" x2="3036" y2="292"/>
	<text transform="matrix(1 0 0 1 263 322)" class="st2 st3">Weight/Scale Variations</text>
	<text transform="matrix(1 0 0 1 534.0633 322)" class="st4 st3">Ultralight</text>
	<text transform="matrix(1 0 0 1 843.7775 322)" class="st4 st3">Thin</text>
	<text transform="matrix(1 0 0 1 1139.035 322)" class="st4 st3">Light</text>
	<text transform="matrix(1 0 0 1 1427.0773 322)" class="st4 st3">Regular</text>
	<text transform="matrix(1 0 0 1 1723.4419 322)" class="st4 st3">Medium</text>
	<text transform="matrix(1 0 0 1 2016.1719 322)" class="st4 st3">Semibold</text>
	<text transform="matrix(1 0 0 1 2326.9705 322)" class="st4 st3">Bold</text>
	<text transform="matrix(1 0 0 1 2618.2659 322)" class="st4 st3">Heavy</text>
	<text transform="matrix(1 0 0 1 2917.5054 322)" class="st4 st3">Black</text>
	<line class="st1" x1="263" y1="1903" x2="3036" y2="1903"/>
	<g transform="matrix(1 0 0 1 263 1933)">
		<path d="M9.2,0.8c4.3,0,7.9-3.6,7.9-7.9S13.5-15,9.2-15s-7.9,3.6-7.9,7.9C1.4-2.7,5,0.8,9.2,0.8z M9.2-0.7c-3.5,0-6.4-2.8-6.4-6.4
			s2.8-6.4,6.4-6.4s6.4,2.8,6.4,6.4S12.8-0.7,9.2-0.7z M5.7-7.1c0,0.4,0.3,0.7,0.8,0.7h2.1v2.1c0,0.4,0.3,0.7,0.7,0.7S10-3.9,10-4.3
			v-2.1h2.1c0.4,0,0.7-0.3,0.7-0.7c0-0.4-0.3-0.7-0.7-0.7H10v-2.1c0-0.4-0.3-0.8-0.7-0.8s-0.7,0.3-0.7,0.8v2.1H6.4
			C6-7.8,5.7-7.5,5.7-7.1z"/>
	</g>
	<g transform="matrix(1 0 0 1 281.867 1933)">
		<path d="M11.7,2.9c5.4,0,10-4.5,10-10c0-5.4-4.5-10-10-10c-5.4,0-10,4.5-10,10C1.7-1.6,6.3,2.9,11.7,2.9z M11.7,1.2
			c-4.6,0-8.3-3.7-8.3-8.3s3.7-8.3,8.3-8.3S20-11.7,20-7.1C20-2.4,16.3,1.2,11.7,1.2z M7.2-7.1c0,0.5,0.3,0.8,0.8,0.8h2.9v2.9
			c0,0.5,0.3,0.8,0.8,0.8s0.8-0.3,0.8-0.8v-2.9h2.9c0.5,0,0.8-0.3,0.8-0.8s-0.3-0.8-0.8-0.8h-2.9v-2.9c0-0.5-0.3-0.8-0.8-0.8
			s-0.8,0.3-0.8,0.8v2.9H8C7.5-7.9,7.2-7.5,7.2-7.1z"/>
	</g>
	<g transform="matrix(1 0 0 1 305.646 1933)">
		<path d="M15,5.7c7,0,12.7-5.8,12.7-12.7c0-7-5.8-12.7-12.7-12.7C8-19.8,2.3-14,2.3-7.1C2.3-0.1,8,5.7,15,5.7z M15,3.8
			C8.9,3.8,4.1-1,4.1-7.1C4.1-13.1,8.9-18,15-18c6,0,10.9,4.9,10.9,10.9C25.9-1,21,3.8,15,3.8z M9.2-7.1c0,0.5,0.4,0.9,0.9,0.9H14v4
			c0,0.5,0.4,0.9,0.9,0.9s0.9-0.4,0.9-0.9v-4h4c0.5,0,0.9-0.4,0.9-0.9S20.3-8,19.8-8h-4v-3.9c0-0.5-0.4-0.9-0.9-0.9S14-12.4,14-11.9
			V-8h-3.9C9.6-8,9.2-7.6,9.2-7.1z"/>
	</g>
	<text transform="matrix(1 0 0 1 263 1953)" class="st2 st3">Design Variations</text>
	<text transform="matrix(1 0 0 1 263 1971)" class="st4 st3">Symbols are supported in up to nine weights and three scales.</text>
	<text transform="matrix(1 0 0 1 263 1989)" class="st4 st3">For optimal layout with text and other symbols, vertically align</text>
	<text transform="matrix(1 0 0 1 263 2007)" class="st4 st3">symbols with the adjacent text.</text>
	<line class="st5" x1="776" y1="1919" x2="776" y2="1933"/>
	<g transform="matrix(1 0 0 1 776 1933)">
		<path d="M3.3,0.2c0.5,0,0.8-0.2,1-0.7L5.5-4h5.8l1.3,3.4C12.7,0,13,0.2,13.5,0.2s0.8-0.3,0.8-0.8c0-0.2,0-0.3-0.1-0.5L9.7-13.4
			C9.4-14,9-14.3,8.4-14.3s-1,0.3-1.2,0.9L2.6-1.2C2.5-1,2.5-0.8,2.5-0.6C2.5-0.1,2.8,0.2,3.3,0.2z M6-5.5l2.4-6.6l0,0l2.4,6.6
			C10.8-5.5,6-5.5,6-5.5z"/>
	</g>
	<line class="st5" x1="793.2" y1="1919" x2="793.2" y2="1933"/>
	<text transform="matrix(1 0 0 1 776 1953)" class="st2 st3">Margins</text>
	<text transform="matrix(1 0 0 1 776 1971)" class="st4 st3">Leading and trailing margins on the left and right side of each symbol</text>
	<text transform="matrix(1 0 0 1 776 1989)" class="st4 st3">can be adjusted by modifying the x-location of the margin guidelines.</text>
	<text transform="matrix(1 0 0 1 776 2007)" class="st4 st3">Modifications are automatically applied proportionally to all</text>
	<text transform="matrix(1 0 0 1 776 2025)" class="st4 st3">scales and weights.</text>
	<g transform="matrix(1 0 0 1 1289 1933)">
		<path d="M2.8,1.9l1.7,1.7c0.9,0.9,1.8,0.8,2.8-0.2L18-8.4l-1-1L6.4,2.3C6,2.7,5.7,2.8,5.2,2.3L4.1,1.1C3.6,0.7,3.7,0.3,4.1,0
			l11.5-10.8l-1-1L3-0.9C2.1,0,2,1,2.8,1.9z M9.3-16.3c-0.4,0.4-0.4,1-0.2,1.4s0.7,0.6,1.3,0.4c1.5-0.3,3-0.4,4.4,0.5l-0.6,1.5
			c-0.3,0.8-0.2,1.4,0.4,2l2.3,2.3c0.5,0.5,0.9,0.5,1.5,0.4l1-0.2l0.7,0.7v0.6c0,0.5,0.1,0.9,0.6,1.4l0.8,0.7c0.5,0.5,1.1,0.5,1.6,0
			L26-7.5C26.5-8,26.4-8.6,26-9l-1-0.9c-0.5-0.5-0.8-0.6-1.3-0.6h-0.6l-0.6-0.6l0.2-1.1c0.1-0.6,0-1-0.6-1.6L19.9-16
			C16.6-19.3,12.1-19.2,9.3-16.3z M10.8-16c2.4-1.8,5.7-1.5,7.9,0.8l2.4,2.4c0.2,0.2,0.3,0.4,0.2,0.8L21-10.5L22.5-9l1-0.1
			c0.3,0,0.3,0,0.5,0.2l0.6,0.6l-2.4,2.4l-0.6-0.6c-0.2-0.2-0.2-0.3-0.2-0.5l0.1-1L20-9.5l-1.5,0.3c-0.3,0.1-0.5,0-0.7-0.2l-2-2
			c-0.3-0.2-0.3-0.4-0.1-0.8l0.9-2.1C15-15.8,13-16.4,11-15.8C10.7-15.7,10.6-15.8,10.8-16z"/>
	</g>
	<text transform="matrix(1 0 0 1 1289 1953)" class="st2 st3">Exporting</text>
	<text transform="matrix(1 0 0 1 1289 1971)" class="st4 st3">Symbols should be outlined when exporting to ensure the</text>
	<text transform="matrix(1 0 0 1 1289 1989)" class="st4 st3">design is preserved when submitting to Xcode.</text>
	<text id="template-version" transform="matrix(1 0 0 1 2952.4141 1933)" class="st4 st3">Template v.4.0</text>
	<text transform="matrix(1 0 0 1 2865.4575 1951)" class="st4 st3">Requires Xcode 14 or greater</text>
	<text id="descriptive-name" transform="matrix(1 0 0 1 2862.563 1969)" class="st4 st3">Generated from 123.rectangle</text>
	<text transform="matrix(1 0 0 1 2912.4111 1987)" class="st4 st3">Typeset at 100 points</text>
	<text transform="matrix(1 0 0 1 263 726)" class="st4 st3">Small</text>
	<text transform="matrix(1 0 0 1 263 1156)" class="st4 st3">Medium</text>
	<text transform="matrix(1 0 0 1 263 1586)" class="st4 st3">Large</text>
</g>
<g id="Guides">
	<g id="H-reference" transform="matrix(1 0 0 1 339 696)">
		<path class="st6" d="M1,0h2.6l25.7-67.1H30v-3.3h-1.9L1,0z M11.7-24.5H47l-0.8-2.2H12.4L11.7-24.5z M55.1,0h2.6L30.6-70.5h-1.2
			v3.3L55.1,0z"/>
	</g>
	<line id="Baseline-S" class="st7" x1="263" y1="696" x2="3036" y2="696"/>
	<line id="Capline-S" class="st7" x1="263" y1="625.5" x2="3036" y2="625.5"/>
	<g id="H-reference_00000108307125067820278330000004345616077272248732_" transform="matrix(1 0 0 1 339 1126)">
		<path class="st6" d="M1,0h2.6l25.7-67.1H30v-3.3h-1.9L1,0z M11.7-24.5H47l-0.8-2.2H12.4L11.7-24.5z M55.1,0h2.6L30.6-70.5h-1.2
			v3.3L55.1,0z"/>
	</g>
	<line id="Baseline-M" class="st7" x1="263" y1="1126" x2="3036" y2="1126"/>
	<line id="Capline-M" class="st7" x1="263" y1="1055.5" x2="3036" y2="1055.5"/>
	<g id="H-reference_00000000925512435020738000000010193413245517805713_" transform="matrix(1 0 0 1 339 1556)">
		<path class="st6" d="M1,0h2.6l25.7-67.1H30v-3.3h-1.9L1,0z M11.7-24.5H47l-0.8-2.2H12.4L11.7-24.5z M55.1,0h2.6L30.6-70.5h-1.2
			v3.3L55.1,0z"/>
	</g>
	<line id="Baseline-L" class="st7" x1="263" y1="1556" x2="3036" y2="1556"/>
	<line id="Capline-L" class="st7" x1="263" y1="1485.5" x2="3036" y2="1485.5"/>
	<line id="left-margin-Regular-M" class="st5" x1="1379.8" y1="1030.8" x2="1379.8" y2="1150.1"/>
	<line id="right-margin-Regular-M" class="st5" x1="1519.8" y1="1030.8" x2="1519.8" y2="1150.1"/>
</g>
<g id="Symbols">
	<g id="Semibold-L" transform="matrix(1 0 0 1 1952.64 1556)">
		<path d="M36.7,23.6h108c13.5,0,20.6-7.1,20.6-20.4v-76.7c0-13.3-7.1-20.4-20.6-20.4h-108c-13.4,0-20.6,7.1-20.6,20.4V3.1
			C16.1,16.5,23.2,23.6,36.7,23.6z M37.6,11.2c-6,0-9.2-3.1-9.2-9.3v-74.3c0-6.2,3.2-9.3,9.2-9.3h106c5.9,0,9.2,3,9.2,9.3V1.9
			c0,6.2-3.3,9.3-9.2,9.3H37.6z"/>
		<g class="st8">
			<path d="M63.9-15.5v-34.3h-0.2l-7,4.9C55.7-44.3,55.1-44,54-44c-2,0-3.5-1.5-3.5-3.6c0-1.5,0.6-2.7,2.2-3.8l9.5-6.6
				c2.3-1.6,3.9-1.9,6-1.9c3.6,0,5.7,2.2,5.7,5.6v38.7c0,3-2,5-4.9,5S63.9-12.5,63.9-15.5z"/>
			<path d="M85.3-39.9c0-3,2.4-5.3,5.3-5.3c3,0,5.3,2.4,5.3,5.3c0,3-2.4,5.3-5.3,5.3C87.7-34.5,85.3-36.9,85.3-39.9z M85.3-16.1
				c0-3,2.4-5.3,5.3-5.3c3,0,5.3,2.4,5.3,5.3c0,3-2.4,5.3-5.3,5.3C87.7-10.8,85.3-13.2,85.3-16.1z"/>
			<path d="M115.4-15.5v-34.3h-0.2l-7,4.9c-0.9,0.7-1.6,0.9-2.7,0.9c-2,0-3.5-1.5-3.5-3.6c0-1.5,0.6-2.7,2.2-3.8l9.5-6.6
				c2.3-1.6,3.9-1.9,6-1.9c3.6,0,5.7,2.2,5.7,5.6v38.7c0,3-2,5-4.9,5S115.4-12.5,115.4-15.5z"/>
		</g>
	</g>
	<g id="Regular-L" transform="matrix(1 0 0 1 1359.81 1556)">
		<path d="M35.1,22.2H145c12.6,0,19-6.4,19-18.9v-77.1c0-12.4-6.4-18.9-19-18.9H35.1c-12.6,0-19,6.4-19,18.9V3.3
			C16.1,15.8,22.5,22.2,35.1,22.2z M35.3,13.5c-6.8,0-10.5-3.6-10.5-10.6v-76.3c0-7,3.7-10.6,10.5-10.6h109.6
			c6.7,0,10.5,3.6,10.5,10.6V2.9c0,7-3.8,10.6-10.5,10.6H35.3z"/>
		<g class="st8">
			<path d="M64.4-13.3v-39.4h-0.2l-8.8,6.1c-0.8,0.6-1.5,0.8-2.4,0.8c-1.7,0-3-1.2-3-3c0-1.3,0.5-2.2,2-3.2l10.5-7.5
				c2.1-1.5,3.3-1.8,5-1.8c2.8,0,4.4,1.7,4.4,4.4v43.7c0,2.4-1.6,4-3.8,4C66-9.2,64.4-10.9,64.4-13.3z"/>
			<path d="M85.4-39.8c0-2.6,2-4.6,4.6-4.6s4.6,2,4.6,4.6c0,2.6-2,4.6-4.6,4.6S85.4-37.2,85.4-39.8z M85.4-14.1c0-2.6,2-4.6,4.6-4.6
				s4.6,2,4.6,4.6s-2,4.6-4.6,4.6S85.4-11.6,85.4-14.1z"/>
			<path d="M116.2-13.3v-39.4h-0.2l-8.8,6.1c-0.8,0.6-1.5,0.8-2.4,0.8c-1.7,0-3-1.2-3-3c0-1.3,0.5-2.2,2-3.2l10.5-7.5
				c2.1-1.5,3.3-1.8,5-1.8c2.8,0,4.4,1.7,4.4,4.4v43.7c0,2.4-1.6,4-3.8,4C117.8-9.2,116.2-10.9,116.2-13.3z"/>
		</g>
	</g>
	<g id="Semibold-M" transform="matrix(1 0 0 1 1972.81 1126)">
		<path d="M29,10.8h82.9c10.8,0,16.5-5.7,16.5-16.4v-59.2c0-10.7-5.7-16.4-16.5-16.4H29c-10.8,0-16.5,5.7-16.5,16.4v59.2
			C12.5,5.1,18.2,10.8,29,10.8z M29.9-0.1c-4.3,0-6.6-2.2-6.6-6.6v-57c0-4.5,2.3-6.6,6.6-6.6H111c4.2,0,6.6,2.1,6.6,6.6v57
			c0,4.5-2.3,6.6-6.6,6.6C111-0.1,29.9-0.1,29.9-0.1z"/>
		<g class="st8">
			<path d="M50.4-20.3V-46h-0.1L45-42.3c-0.7,0.5-1.2,0.7-2,0.7c-1.5,0-2.6-1.1-2.6-2.7c0-1.1,0.4-2,1.6-2.8l7.1-4.9
				c1.7-1.2,2.9-1.4,4.5-1.4c2.7,0,4.3,1.6,4.3,4.2v29c0,2.3-1.5,3.8-3.7,3.8C51.9-16.5,50.4-18,50.4-20.3z"/>
			<path d="M66.5-38.5c0-2.2,1.8-4,4-4c2.2,0,4,1.8,4,4c0,2.2-1.8,4-4,4C68.2-34.5,66.5-36.3,66.5-38.5z M66.5-20.7c0-2.2,1.8-4,4-4
				c2.2,0,4,1.8,4,4c0,2.2-1.8,4-4,4C68.2-16.7,66.5-18.5,66.5-20.7z"/>
			<path d="M89-20.3V-46h-0.1l-5.3,3.7c-0.7,0.5-1.2,0.7-2,0.7c-1.5,0-2.6-1.1-2.6-2.7c0-1.1,0.4-2,1.6-2.8l7.1-4.9
				c1.7-1.2,2.9-1.4,4.5-1.4c2.7,0,4.3,1.6,4.3,4.2v29c0,2.3-1.5,3.8-3.7,3.8C90.6-16.5,89-18,89-20.3z"/>
		</g>
	</g>
	<g id="Regular-M" transform="matrix(1 0 0 1 1379.84 1126)">
		<path d="M27.8,9.7h84.5c10.2,0,15.3-5.1,15.3-15.2V-65c0-10.1-5.1-15.2-15.3-15.2H27.8c-10.2,0-15.3,5.1-15.3,15.2v59.6
			C12.5,4.7,17.6,9.7,27.8,9.7z M27.9,1.8c-4.9,0-7.6-2.6-7.6-7.6v-58.8c0-5.1,2.7-7.6,7.6-7.6h84.2c4.8,0,7.6,2.6,7.6,7.6v58.8
			c0,5-2.8,7.6-7.6,7.6C112.1,1.8,27.9,1.8,27.9,1.8z"/>
		<g class="st8">
			<path d="M50.5-18.5v-30.1h-0.1l-6.7,4.7c-0.6,0.4-1.1,0.6-1.8,0.6c-1.3,0-2.3-0.9-2.3-2.3c0-1,0.4-1.7,1.5-2.5l8.1-5.7
				c1.6-1.2,2.5-1.4,3.8-1.4c2.1,0,3.4,1.3,3.4,3.4v33.4c0,1.8-1.2,3.1-2.9,3.1C51.7-15.4,50.5-16.6,50.5-18.5z"/>
			<path d="M66.5-38.7c0-2,1.6-3.5,3.5-3.5s3.5,1.6,3.5,3.5c0,2-1.6,3.5-3.5,3.5S66.5-36.7,66.5-38.7z M66.5-19.1
				c0-2,1.6-3.5,3.5-3.5s3.5,1.6,3.5,3.5S72-15.6,70-15.6S66.5-17.2,66.5-19.1z"/>
			<path d="M90-18.5v-30.1h-0.1l-6.7,4.7c-0.6,0.4-1.1,0.6-1.8,0.6c-1.3,0-2.3-0.9-2.3-2.3c0-1,0.4-1.7,1.5-2.5l8.1-5.7
				c1.6-1.2,2.5-1.4,3.8-1.4c2.1,0,3.4,1.3,3.4,3.4v33.4c0,1.8-1.2,3.1-2.9,3.1C91.2-15.4,90-16.6,90-18.5z"/>
		</g>
	</g>
	<g id="Semibold-S" transform="matrix(1 0 0 1 1987.89 696)">
		<path d="M23.1,1.2h64.5C96.4,1.2,101-3.4,101-12v-46.3c0-8.6-4.6-13.2-13.3-13.2H23.1c-8.7,0-13.3,4.6-13.3,13.2V-12
			C9.8-3.4,14.4,1.2,23.1,1.2z M23.9-8.1c-3.1,0-4.8-1.6-4.8-4.9v-44.4c0-3.3,1.7-4.9,4.8-4.9h63c3.1,0,4.8,1.5,4.8,4.9V-13
			c0,3.3-1.7,4.9-4.8,4.9H23.9z"/>
		<g class="st8">
			<path d="M39.6-23.7v-20.2h-0.1L35.4-41c-0.5,0.4-1,0.5-1.6,0.5c-1.2,0-2.1-0.9-2.1-2.1c0-0.9,0.4-1.6,1.3-2.2l5.6-3.9
				c1.4-0.9,2.3-1.1,3.5-1.1c2.1,0,3.3,1.3,3.3,3.3v22.8c0,1.8-1.2,2.9-2.9,2.9S39.6-21.9,39.6-23.7z"/>
			<path d="M52.2-38.1c0-1.8,1.4-3.1,3.1-3.1c1.7,0,3.1,1.4,3.1,3.1c0,1.7-1.4,3.1-3.1,3.1C53.6-34.9,52.2-36.3,52.2-38.1z
				 M52.2-24.1c0-1.8,1.4-3.1,3.1-3.1c1.7,0,3.1,1.4,3.1,3.1c0,1.7-1.4,3.1-3.1,3.1C53.6-20.9,52.2-22.4,52.2-24.1z"/>
			<path d="M70-23.7v-20.2h-0.1L65.7-41c-0.5,0.4-1,0.5-1.6,0.5c-1.2,0-2.1-0.9-2.1-2.1c0-0.9,0.4-1.6,1.3-2.2l5.6-3.9
				c1.4-0.9,2.3-1.1,3.5-1.1c2.1,0,3.3,1.3,3.3,3.3v22.8c0,1.8-1.2,2.9-2.9,2.9S70-21.9,70-23.7z"/>
		</g>
	</g>
	<g id="Regular-S" transform="matrix(1 0 0 1 1394.79 696)">
		<path d="M22.2,0.4h65.7c8.3,0,12.5-4.1,12.5-12.3v-46.6c0-8.2-4.1-12.3-12.5-12.3H22.2c-8.3,0-12.5,4.1-12.5,12.3v46.6
			C9.8-3.7,13.9,0.4,22.2,0.4z M22.3-6.7c-3.5,0-5.5-1.9-5.5-5.6v-45.9c0-3.7,2-5.6,5.5-5.6h65.5c3.5,0,5.5,1.9,5.5,5.6v45.9
			c0,3.7-2,5.6-5.5,5.6C87.8-6.7,22.3-6.7,22.3-6.7z"/>
		<g class="st8">
			<path d="M39.4-22.6v-22.2h-0.1l-4.8,3.3c-0.5,0.4-0.9,0.5-1.5,0.5c-1.1,0-1.9-0.8-1.9-2c0-0.8,0.3-1.4,1.2-2.1l6-4.2
				c1.3-0.9,2.1-1.1,3.2-1.1c1.9,0,3,1.1,3,3v24.8c0,1.6-1.1,2.7-2.6,2.7S39.4-21,39.4-22.6z"/>
			<path d="M52.1-37.8c0-1.6,1.3-3,3-3c1.6,0,2.9,1.3,2.9,3s-1.3,3-2.9,3C53.4-34.9,52.1-36.2,52.1-37.8z M52.1-23c0-1.6,1.3-3,3-3
				c1.6,0,2.9,1.3,2.9,3c0,1.7-1.3,3-2.9,3C53.4-20.1,52.1-21.4,52.1-23z"/>
			<path d="M70.3-22.6v-22.2h-0.1l-4.8,3.3c-0.5,0.4-0.9,0.5-1.5,0.5c-1.1,0-1.9-0.8-1.9-2c0-0.8,0.3-1.4,1.2-2.1l6-4.2
				c1.3-0.9,2.1-1.1,3.2-1.1c1.9,0,3,1.1,3,3v24.8c0,1.6-1.1,2.7-2.6,2.7S70.3-21,70.3-22.6z"/>
		</g>
	</g>
</g>
</svg>
