<?xml version="1.0" encoding="utf-8"?>
<!-- Generator: Adobe Illustrator 27.5.0, SVG Export Plug-In . SVG Version: 6.00 Build 0)  -->
<svg version="1.1" id="Layer_1" xmlns="http://www.w3.org/2000/svg" xmlns:xlink="http://www.w3.org/1999/xlink" x="0px" y="0px"
	 viewBox="0 0 3300 2200" style="enable-background:new 0 0 3300 2200;" xml:space="preserve">
<style type="text/css">
	.st0{fill:#FFFFFF;}
	.st1{fill:none;stroke:#000000;stroke-width:0.5;}
	.st2{font-family:'Helvetica-Bold';}
	.st3{font-size:13px;}
	.st4{font-family:'Helvetica';}
	.st5{fill:none;stroke:#00AEEF;stroke-width:0.5;}
	.st6{fill:#27AAE1;}
	.st7{fill:none;stroke:#27AAE1;stroke-width:0.5;}
</style>
<g id="Notes">
	<rect id="artboard" class="st0" width="3300" height="2200"/>
	<line class="st1" x1="263" y1="292" x2="3036" y2="292"/>
	<text transform="matrix(1 0 0 1 263 322)" class="st2 st3">Weight/Scale Variations</text>
	<text transform="matrix(1 0 0 1 534.0633 322)" class="st4 st3">Ultralight</text>
	<text transform="matrix(1 0 0 1 843.7775 322)" class="st4 st3">Thin</text>
	<text transform="matrix(1 0 0 1 1139.035 322)" class="st4 st3">Light</text>
	<text transform="matrix(1 0 0 1 1427.0773 322)" class="st4 st3">Regular</text>
	<text transform="matrix(1 0 0 1 1723.4419 322)" class="st4 st3">Medium</text>
	<text transform="matrix(1 0 0 1 2016.1719 322)" class="st4 st3">Semibold</text>
	<text transform="matrix(1 0 0 1 2326.9705 322)" class="st4 st3">Bold</text>
	<text transform="matrix(1 0 0 1 2618.2659 322)" class="st4 st3">Heavy</text>
	<text transform="matrix(1 0 0 1 2917.5054 322)" class="st4 st3">Black</text>
	<line class="st1" x1="263" y1="1903" x2="3036" y2="1903"/>
	<g transform="matrix(1 0 0 1 263 1933)">
		<path d="M9.2,0.8c4.3,0,7.9-3.6,7.9-7.9c0-4.3-3.6-7.9-7.9-7.9c-4.3,0-7.9,3.6-7.9,7.9C1.4-2.7,5,0.8,9.2,0.8z M9.2-0.7
			c-3.5,0-6.4-2.8-6.4-6.4c0-3.6,2.8-6.4,6.4-6.4c3.6,0,6.4,2.8,6.4,6.4C15.6-3.5,12.8-0.7,9.2-0.7z M5.7-7.1c0,0.4,0.3,0.7,0.8,0.7
			h2.1v2.1c0,0.4,0.3,0.7,0.7,0.7c0.4,0,0.7-0.3,0.7-0.7v-2.1h2.1c0.4,0,0.7-0.3,0.7-0.7c0-0.4-0.3-0.7-0.7-0.7H10v-2.1
			c0-0.4-0.3-0.8-0.7-0.8c-0.4,0-0.7,0.3-0.7,0.8v2.1H6.4C6-7.8,5.7-7.5,5.7-7.1z"/>
	</g>
	<g transform="matrix(1 0 0 1 281.867 1933)">
		<path d="M11.7,2.9c5.4,0,10-4.5,10-10c0-5.4-4.5-10-10-10c-5.4,0-10,4.5-10,10C1.7-1.6,6.3,2.9,11.7,2.9z M11.7,1.2
			c-4.6,0-8.3-3.7-8.3-8.3c0-4.6,3.7-8.3,8.3-8.3c4.6,0,8.3,3.7,8.3,8.3C20-2.4,16.3,1.2,11.7,1.2z M7.2-7.1c0,0.5,0.3,0.8,0.8,0.8
			h2.9v2.9c0,0.5,0.3,0.8,0.8,0.8c0.5,0,0.8-0.3,0.8-0.8v-2.9h2.9c0.5,0,0.8-0.3,0.8-0.8c0-0.5-0.3-0.8-0.8-0.8h-2.9v-2.9
			c0-0.5-0.3-0.8-0.8-0.8c-0.5,0-0.8,0.3-0.8,0.8v2.9H8C7.5-7.9,7.2-7.5,7.2-7.1z"/>
	</g>
	<g transform="matrix(1 0 0 1 305.646 1933)">
		<path d="M15,5.7c7,0,12.7-5.8,12.7-12.7c0-7-5.8-12.7-12.7-12.7C8-19.8,2.3-14,2.3-7.1C2.3-0.1,8,5.7,15,5.7z M15,3.8
			C8.9,3.8,4.1-1,4.1-7.1c0-6,4.8-10.9,10.9-10.9c6,0,10.9,4.9,10.9,10.9C25.9-1,21,3.8,15,3.8z M9.2-7.1c0,0.5,0.4,0.9,0.9,0.9h3.9
			v4c0,0.5,0.4,0.9,0.9,0.9c0.5,0,0.9-0.4,0.9-0.9v-4h4c0.5,0,0.9-0.4,0.9-0.9c0-0.5-0.4-0.9-0.9-0.9h-4v-3.9c0-0.5-0.4-0.9-0.9-0.9
			c-0.5,0-0.9,0.4-0.9,0.9V-8h-3.9C9.6-8,9.2-7.6,9.2-7.1z"/>
	</g>
	<text transform="matrix(1 0 0 1 263 1953)" class="st2 st3">Design Variations</text>
	<text transform="matrix(1 0 0 1 263 1971)" class="st4 st3">Symbols are supported in up to nine weights and three scales.</text>
	<text transform="matrix(1 0 0 1 263 1989)" class="st4 st3">For optimal layout with text and other symbols, vertically align</text>
	<text transform="matrix(1 0 0 1 263 2007)" class="st4 st3">symbols with the adjacent text.</text>
	<line class="st5" x1="776" y1="1919" x2="776" y2="1933"/>
	<g transform="matrix(1 0 0 1 776 1933)">
		<path d="M3.3,0.2c0.5,0,0.8-0.2,1-0.7L5.5-4h5.8l1.3,3.4C12.7,0,13,0.2,13.5,0.2c0.5,0,0.8-0.3,0.8-0.8c0-0.2,0-0.3-0.1-0.5
			L9.7-13.4C9.4-14,9-14.3,8.4-14.3c-0.6,0-1,0.3-1.2,0.9L2.6-1.2C2.5-1,2.5-0.8,2.5-0.6C2.5-0.1,2.8,0.2,3.3,0.2z M6-5.5l2.4-6.6h0
			l2.4,6.6H6z"/>
	</g>
	<line class="st5" x1="793.2" y1="1919" x2="793.2" y2="1933"/>
	<text transform="matrix(1 0 0 1 776 1953)" class="st2 st3">Margins</text>
	<text transform="matrix(1 0 0 1 776 1971)" class="st4 st3">Leading and trailing margins on the left and right side of each symbol</text>
	<text transform="matrix(1 0 0 1 776 1989)" class="st4 st3">can be adjusted by modifying the x-location of the margin guidelines.</text>
	<text transform="matrix(1 0 0 1 776 2007)" class="st4 st3">Modifications are automatically applied proportionally to all</text>
	<text transform="matrix(1 0 0 1 776 2025)" class="st4 st3">scales and weights.</text>
	<g transform="matrix(1 0 0 1 1289 1933)">
		<path d="M2.8,1.9l1.7,1.7c0.9,0.9,1.8,0.8,2.8-0.2L18-8.4l-1-1L6.4,2.3c-0.4,0.4-0.7,0.5-1.2,0L4.1,1.1C3.6,0.7,3.7,0.3,4.1,0
			l11.5-10.8l-1-1L3-0.9C2.1,0,2,1,2.8,1.9z M9.3-16.3c-0.4,0.4-0.4,1-0.2,1.4c0.2,0.4,0.7,0.6,1.3,0.4c1.5-0.3,3-0.4,4.4,0.5
			l-0.6,1.5c-0.3,0.8-0.2,1.4,0.4,2l2.3,2.3c0.5,0.5,0.9,0.5,1.5,0.4L19.4-8l0.7,0.7l0,0.6c0,0.5,0.1,0.9,0.6,1.4l0.8,0.7
			c0.5,0.5,1.1,0.5,1.6,0l2.9-2.9c0.5-0.5,0.4-1.1,0-1.5L25-9.9c-0.5-0.5-0.8-0.6-1.3-0.6l-0.6,0l-0.6-0.6l0.2-1.1
			c0.1-0.6,0-1-0.6-1.6L19.9-16C16.6-19.3,12.1-19.2,9.3-16.3z M10.8-16c2.4-1.8,5.7-1.5,7.9,0.8l2.4,2.4c0.2,0.2,0.3,0.4,0.2,0.8
			L21-10.5l1.5,1.5l1-0.1c0.3,0,0.3,0,0.5,0.2l0.6,0.6l-2.4,2.4l-0.6-0.6c-0.2-0.2-0.2-0.3-0.2-0.5l0.1-1L20-9.5l-1.5,0.3
			c-0.3,0.1-0.5,0-0.7-0.2l-2-2c-0.3-0.2-0.3-0.4-0.1-0.8l0.9-2.1c-1.6-1.5-3.6-2.1-5.6-1.5C10.7-15.7,10.6-15.8,10.8-16z"/>
	</g>
	<text transform="matrix(1 0 0 1 1289 1953)" class="st2 st3">Exporting</text>
	<text transform="matrix(1 0 0 1 1289 1971)" class="st4 st3">Symbols should be outlined when exporting to ensure the</text>
	<text transform="matrix(1 0 0 1 1289 1989)" class="st4 st3">design is preserved when submitting to Xcode.</text>
	<text id="template-version" transform="matrix(1 0 0 1 2952.4141 1933)" class="st4 st3">Template v.4.0</text>
	<text transform="matrix(1 0 0 1 2865.4575 1951)" class="st4 st3">Requires Xcode 14 or greater</text>
	<text id="descriptive-name" transform="matrix(1 0 0 1 2856.7993 1969)" class="st4 st3">Generated from doc.text.image</text>
	<text transform="matrix(1 0 0 1 2912.4111 1987)" class="st4 st3">Typeset at 100 points</text>
	<text transform="matrix(1 0 0 1 263 726)" class="st4 st3">Small</text>
	<text transform="matrix(1 0 0 1 263 1156)" class="st4 st3">Medium</text>
	<text transform="matrix(1 0 0 1 263 1586)" class="st4 st3">Large</text>
</g>
<g id="Guides">
	<g id="H-reference" transform="matrix(1 0 0 1 339 696)">
		<path class="st6" d="M1,0h2.6l25.7-67.1H30v-3.3h-1.9L1,0z M11.7-24.5H47l-0.8-2.2H12.4L11.7-24.5z M55.1,0h2.6L30.6-70.5h-1.2
			v3.3L55.1,0z"/>
	</g>
	<line id="Baseline-S" class="st7" x1="263" y1="696" x2="3036" y2="696"/>
	<line id="Capline-S" class="st7" x1="263" y1="625.5" x2="3036" y2="625.5"/>
	<g id="H-reference_00000040556367796557670010000012367664312419077279_" transform="matrix(1 0 0 1 339 1126)">
		<path class="st6" d="M1,0h2.6l25.7-67.1H30v-3.3h-1.9L1,0z M11.7-24.5H47l-0.8-2.2H12.4L11.7-24.5z M55.1,0h2.6L30.6-70.5h-1.2
			v3.3L55.1,0z"/>
	</g>
	<line id="Baseline-M" class="st7" x1="263" y1="1126" x2="3036" y2="1126"/>
	<line id="Capline-M" class="st7" x1="263" y1="1055.5" x2="3036" y2="1055.5"/>
	<g id="H-reference_00000103978016701711179230000015312741419626076289_" transform="matrix(1 0 0 1 339 1556)">
		<path class="st6" d="M1,0h2.6l25.7-67.1H30v-3.3h-1.9L1,0z M11.7-24.5H47l-0.8-2.2H12.4L11.7-24.5z M55.1,0h2.6L30.6-70.5h-1.2
			v3.3L55.1,0z"/>
	</g>
	<line id="Baseline-L" class="st7" x1="263" y1="1556" x2="3036" y2="1556"/>
	<line id="Capline-L" class="st7" x1="263" y1="1485.5" x2="3036" y2="1485.5"/>
	<line id="left-margin-Regular-M" class="st5" x1="1396.3" y1="1030.8" x2="1396.3" y2="1150.1"/>
	<line id="right-margin-Regular-M" class="st5" x1="1503.4" y1="1030.8" x2="1503.4" y2="1150.1"/>
</g>
<g id="Symbols">
	<g id="Semibold-L" transform="matrix(1 0 0 1 1973.08 1556)">
		<path d="M16.1,12.5c0,13.5,7,20.6,20.4,20.6h67.4c13.4,0,20.4-7.1,20.4-20.6v-95.5c0-13.4-7.1-20.6-20.4-20.6H36.5
			c-13.3,0-20.4,7.1-20.4,20.6V12.5z M28.4,11.5V-82c0-6,3.1-9.2,9.3-9.2h64.9c6.2,0,9.3,3.2,9.3,9.2v93.5c0,6-3.1,9.2-9.3,9.2H37.7
			C31.5,20.7,28.4,17.5,28.4,11.5z"/>
		<path d="M70.2-72.1c-10.8,0-19.4,8.7-19.4,19.3c0,8,4.7,15,12,18v28.7c0,0.9,0.4,1.6,1,2.3l5.1,5c0.7,0.7,1.8,0.8,2.7-0.1l9.3-9.3
			c0.9-0.9,0.8-2.1,0-2.9l-5.3-5.4l7.5-7.4c0.8-0.8,0.8-2-0.1-3l-7.2-7.3c8.8-3.8,13.8-10.5,13.8-18.6
			C89.6-63.4,80.9-72.1,70.2-72.1z M70.1-63.8c3.2,0,5.8,2.7,5.8,5.9c0,3.2-2.6,5.9-5.8,5.9s-5.8-2.6-5.8-5.9
			C64.3-61.1,66.9-63.8,70.1-63.8z"/>
	</g>
	<g id="Regular-L" transform="matrix(1 0 0 1 1381.33 1556)">
		<path d="M16.1,13.1c0,12.6,6.3,19,18.8,19h67.2c12.5,0,18.9-6.4,18.9-19v-96.6c0-12.6-6.3-19-18.9-19H34.9
			c-12.5,0-18.8,6.4-18.8,19V13.1z M24.7,12.9v-96.2c0-6.8,3.6-10.5,10.6-10.5h66.3c7,0,10.6,3.7,10.6,10.5v96.2
			c0,6.8-3.6,10.5-10.6,10.5H35.4C28.3,23.4,24.7,19.7,24.7,12.9z"/>
		<path d="M68.5-72.2c-10.6,0-19,8.5-19,19c0,8.1,4.8,15,12.2,17.9v29.8c0,0.7,0.3,1.3,0.9,1.8l5,5c0.6,0.6,1.3,0.6,1.9,0L79-8.2
			c0.6-0.6,0.6-1.3,0-1.9l-6-6.1l8.3-8.1c0.5-0.6,0.5-1.3-0.1-2L73-34.5c9.4-3.7,14.6-10.5,14.6-18.8C87.5-63.7,79-72.2,68.5-72.2z
			 M68.4-64.5c3.2,0,5.8,2.7,5.8,5.9c0,3.3-2.6,5.9-5.8,5.9s-5.9-2.6-5.9-5.9C62.6-61.8,65.2-64.5,68.4-64.5z"/>
	</g>
	<g id="Semibold-M" transform="matrix(1 0 0 1 1988.33 1126)">
		<path d="M12.5,1.4c0,10.8,5.7,16.5,16.4,16.5H81c10.7,0,16.4-5.7,16.4-16.5v-73.3c0-10.8-5.7-16.5-16.4-16.5H28.9
			c-10.7,0-16.4,5.8-16.4,16.5V1.4z M23.3,0.5V-71c0-4.3,2.2-6.6,6.7-6.6h49.9c4.5,0,6.6,2.3,6.6,6.6V0.5c0,4.3-2.2,6.6-6.6,6.6H30
			C25.5,7.1,23.3,4.8,23.3,0.5z"/>
		<path d="M55-63.9c-8.4,0-15.2,6.8-15.2,15.1c0,6.2,3.6,11.7,9.2,14v22c0,0.8,0.3,1.4,0.9,1.9l4,3.9c0.6,0.6,1.6,0.7,2.3-0.1
			l7.2-7.2c0.8-0.8,0.7-1.8,0-2.6l-3.9-4l5.6-5.6c0.7-0.7,0.7-1.8-0.1-2.6l-5.4-5.4c6.7-3,10.5-8.1,10.5-14.4
			C70.2-57.1,63.4-63.9,55-63.9z M55-57.4c2.5,0,4.5,2.1,4.5,4.6c0,2.5-2,4.6-4.5,4.6c-2.4,0-4.5-2-4.5-4.6
			C50.4-55.4,52.5-57.4,55-57.4z"/>
	</g>
	<g id="Regular-M" transform="matrix(1 0 0 1 1396.32 1126)">
		<path d="M12.5,1.8c0,10.2,5,15.3,15.1,15.3h51.9c10.1,0,15.2-5.1,15.2-15.3v-74c0-10.2-5.1-15.3-15.2-15.3H27.6
			c-10.1,0-15.1,5.1-15.1,15.3V1.8z M20.3,1.7v-73.8c0-4.9,2.6-7.6,7.7-7.6h51c5,0,7.7,2.7,7.7,7.6V1.7c0,4.9-2.6,7.6-7.7,7.6H28
			C22.9,9.2,20.3,6.5,20.3,1.7z"/>
		<path d="M53.5-64c-8.3,0-14.9,6.7-14.9,14.9c0,6.3,3.7,11.7,9.5,13.9v23c0,0.6,0.3,1,0.7,1.5l3.9,3.9c0.4,0.5,1.1,0.5,1.6,0
			l7.4-7.4c0.5-0.5,0.5-1.1,0-1.6l-4.6-4.6l6.4-6.2c0.4-0.5,0.4-1.1-0.1-1.7l-6.3-6.3c7.2-2.9,11.3-8.1,11.3-14.6
			C68.3-57.3,61.7-64,53.5-64z M53.4-58.3c2.5,0,4.6,2.1,4.6,4.6c0,2.6-2,4.6-4.6,4.6c-2.5,0-4.6-2-4.6-4.6
			C48.8-56.2,50.9-58.3,53.4-58.3z"/>
	</g>
	<g id="Semibold-S" transform="matrix(1 0 0 1 1999.89 696)">
		<path d="M9.8-6.7C9.8,2,14.3,6.6,23,6.6h40.8C72.4,6.6,77,2,77-6.7v-57c0-8.7-4.6-13.3-13.2-13.3H23c-8.6,0-13.2,4.6-13.2,13.3
			V-6.7z M19.1-7.5V-63c0-3.1,1.6-4.8,4.9-4.8h38.8c3.3,0,4.9,1.7,4.9,4.8v55.5c0,3.1-1.6,4.8-4.9,4.8H23.9
			C20.6-2.7,19.1-4.4,19.1-7.5z"/>
		<path d="M43.4-57.8c-6.7,0-12,5.4-12,11.9c0,4.9,2.8,9.1,7.2,11v17.1c0,0.6,0.3,1.1,0.7,1.6l3.3,3.2c0.5,0.5,1.3,0.6,1.9,0
			l5.6-5.6c0.6-0.6,0.6-1.5,0-2.1l-3-3.1l4.3-4.3c0.6-0.6,0.6-1.5-0.1-2.2l-4.1-4.1c5.2-2.4,8.1-6.4,8.1-11.3
			C55.4-52.4,50-57.8,43.4-57.8z M43.4-52.8c2,0,3.6,1.6,3.6,3.6c0,2-1.6,3.6-3.6,3.6c-1.9,0-3.6-1.6-3.6-3.6
			C39.8-51.2,41.4-52.8,43.4-52.8z"/>
	</g>
	<g id="Regular-S" transform="matrix(1 0 0 1 1407.56 696)">
		<path d="M9.5-6.5C9.5,1.9,13.6,6,21.8,6h40.5c8.2,0,12.3-4.1,12.3-12.5v-57.4c0-8.3-4.1-12.5-12.3-12.5H21.8
			c-8.2,0-12.3,4.2-12.3,12.5V-6.5z M16.6-6.6v-57.2c0-3.5,1.9-5.5,5.6-5.5h39.7c3.7,0,5.6,2,5.6,5.5v57.2c0,3.5-1.9,5.5-5.6,5.5
			H22.2C18.5-1.1,16.6-3.1,16.6-6.6z"/>
		<path d="M42.1-57.9c-6.5,0-11.8,5.3-11.8,11.8c0,4.9,2.9,9.2,7.4,11v18c0,0.5,0.2,0.8,0.6,1.2l3.1,3.1c0.3,0.4,0.9,0.4,1.4,0
			l5.8-5.8c0.4-0.4,0.4-1,0-1.4l-3.5-3.6l4.9-4.8c0.4-0.4,0.4-0.9-0.1-1.4l-4.8-4.8c5.6-2.3,8.8-6.4,8.8-11.5
			C53.9-52.6,48.6-57.9,42.1-57.9z M42-53.6c2,0,3.6,1.7,3.6,3.6c0,2.1-1.6,3.7-3.6,3.7s-3.6-1.6-3.6-3.7C38.4-52,40-53.6,42-53.6z"
			/>
	</g>
</g>
</svg>
