<?xml version="1.0" encoding="UTF-8"?>
<svg xmlns="http://www.w3.org/2000/svg" xmlns:xlink="http://www.w3.org/1999/xlink" width="112.5pt" height="112.5pt" viewBox="0 0 112.5 112.5" version="1.1">
<g id="surface11450">
<path style="fill:none;stroke-width:2;stroke-linecap:butt;stroke-linejoin:round;stroke:rgb(100%,100%,100%);stroke-opacity:1;stroke-miterlimit:10;" d="M 20.999581 0.999233 C 9.952218 0.999233 0.999233 5.027553 0.999233 9.999302 C 0.999233 14.972796 9.952218 18.999372 20.999581 18.999372 C 32.048689 18.999372 40.99993 14.972796 40.99993 9.999302 C 40.99993 5.027553 32.048689 0.999233 20.999581 0.999233 Z M 20.999581 0.999233 " transform="matrix(2.24,0,0,2.24,-0.000000000000007105,-0.000000000000007105)"/>
<path style="fill:none;stroke-width:2;stroke-linecap:round;stroke-linejoin:round;stroke:rgb(100%,100%,100%);stroke-opacity:1;stroke-miterlimit:10;" d="M 40.99993 20.000349 C 40.99993 17.925153 40.99993 12.074498 40.99993 9.999302 " transform="matrix(2.24,0,0,2.24,-0.000000000000007105,-0.000000000000007105)"/>
<path style="fill:none;stroke-width:2;stroke-linecap:round;stroke-linejoin:round;stroke:rgb(100%,100%,100%);stroke-opacity:1;stroke-miterlimit:10;" d="M 0.999233 9.999302 C 0.999233 12.074498 0.999233 36.92627 0.999233 38.999721 C 0.999233 43.973214 9.952218 47.999791 20.999581 47.999791 C 23.896136 47.999791 26.647949 47.722517 29.132952 47.225516 " transform="matrix(2.24,0,0,2.24,-0.000000000000007105,-0.000000000000007105)"/>
<path style="fill:none;stroke-width:2;stroke-linecap:round;stroke-linejoin:round;stroke:rgb(100%,100%,100%);stroke-opacity:1;stroke-miterlimit:10;" d="M 0.999233 29.999651 C 0.999233 34.973145 9.952218 38.999721 20.999581 38.999721 C 22.045898 38.999721 23.073033 38.964844 24.075753 38.893345 " transform="matrix(2.24,0,0,2.24,-0.000000000000007105,-0.000000000000007105)"/>
<path style="fill:none;stroke-width:2;stroke-linecap:round;stroke-linejoin:round;stroke:rgb(100%,100%,100%);stroke-opacity:1;stroke-miterlimit:10;" d="M 0.999233 20.000349 C 0.999233 24.973842 9.952218 29.000419 20.999581 29.000419 " transform="matrix(2.24,0,0,2.24,-0.000000000000007105,-0.000000000000007105)"/>
<path style="fill:none;stroke-width:2;stroke-linecap:round;stroke-linejoin:miter;stroke:rgb(100%,100%,100%);stroke-opacity:1;stroke-miterlimit:10;" d="M 37.5 49.000767 C 37.5 49.000767 25.999233 43.488421 25.999233 27.218192 C 33.154297 25.671387 35.25565 22.999791 37.5 22.999791 C 39.74435 22.999791 41.845703 25.671387 49.000767 27.218192 C 49.000767 42.949568 37.5 49.000767 37.5 49.000767 Z M 37.5 49.000767 " transform="matrix(2.24,0,0,2.24,-0.000000000000007105,-0.000000000000007105)"/>
</g>
</svg>
