<?xml version="1.0" encoding="utf-8"?>
<!-- Generator: Adobe Illustrator 27.5.0, SVG Export Plug-In . SVG Version: 6.00 Build 0)  -->
<svg version="1.1" id="Layer_1" xmlns="http://www.w3.org/2000/svg" xmlns:xlink="http://www.w3.org/1999/xlink" x="0px" y="0px"
	 viewBox="0 0 3300 2200" style="enable-background:new 0 0 3300 2200;" xml:space="preserve">
<style type="text/css">
	.st0{fill:#FFFFFF;}
	.st1{fill:none;stroke:#000000;stroke-width:0.5;}
	.st2{font-family:'Helvetica-Bold';}
	.st3{font-size:13px;}
	.st4{font-family:'Helvetica';}
	.st5{fill:none;stroke:#00AEEF;stroke-width:0.5;}
	.st6{fill:#27AAE1;}
	.st7{fill:none;stroke:#27AAE1;stroke-width:0.5;}
</style>
<g id="Notes">
	<rect id="artboard" class="st0" width="3300" height="2200"/>
	<line class="st1" x1="263" y1="292" x2="3036" y2="292"/>
	<text transform="matrix(1 0 0 1 263 322)" class="st2 st3">Weight/Scale Variations</text>
	<text transform="matrix(1 0 0 1 534.0633 322)" class="st4 st3">Ultralight</text>
	<text transform="matrix(1 0 0 1 843.7775 322)" class="st4 st3">Thin</text>
	<text transform="matrix(1 0 0 1 1139.035 322)" class="st4 st3">Light</text>
	<text transform="matrix(1 0 0 1 1427.0773 322)" class="st4 st3">Regular</text>
	<text transform="matrix(1 0 0 1 1723.4419 322)" class="st4 st3">Medium</text>
	<text transform="matrix(1 0 0 1 2016.1719 322)" class="st4 st3">Semibold</text>
	<text transform="matrix(1 0 0 1 2326.9705 322)" class="st4 st3">Bold</text>
	<text transform="matrix(1 0 0 1 2618.2659 322)" class="st4 st3">Heavy</text>
	<text transform="matrix(1 0 0 1 2917.5054 322)" class="st4 st3">Black</text>
	<line class="st1" x1="263" y1="1903" x2="3036" y2="1903"/>
	<g transform="matrix(1 0 0 1 263 1933)">
		<path d="M9.2,0.8c4.3,0,7.9-3.6,7.9-7.9c0-4.3-3.6-7.9-7.9-7.9c-4.3,0-7.9,3.6-7.9,7.9C1.4-2.7,5,0.8,9.2,0.8z M9.2-0.7
			c-3.5,0-6.4-2.8-6.4-6.4c0-3.6,2.8-6.4,6.4-6.4c3.6,0,6.4,2.8,6.4,6.4C15.6-3.5,12.8-0.7,9.2-0.7z M5.7-7.1c0,0.4,0.3,0.7,0.8,0.7
			h2.1v2.1c0,0.4,0.3,0.7,0.7,0.7c0.4,0,0.7-0.3,0.7-0.7v-2.1h2.1c0.4,0,0.7-0.3,0.7-0.7c0-0.4-0.3-0.7-0.7-0.7H10v-2.1
			c0-0.4-0.3-0.8-0.7-0.8c-0.4,0-0.7,0.3-0.7,0.8v2.1H6.4C6-7.8,5.7-7.5,5.7-7.1z"/>
	</g>
	<g transform="matrix(1 0 0 1 281.867 1933)">
		<path d="M11.7,2.9c5.4,0,10-4.5,10-10c0-5.4-4.5-10-10-10c-5.4,0-10,4.5-10,10C1.7-1.6,6.3,2.9,11.7,2.9z M11.7,1.2
			c-4.6,0-8.3-3.7-8.3-8.3c0-4.6,3.7-8.3,8.3-8.3c4.6,0,8.3,3.7,8.3,8.3C20-2.4,16.3,1.2,11.7,1.2z M7.2-7.1c0,0.5,0.3,0.8,0.8,0.8
			h2.9v2.9c0,0.5,0.3,0.8,0.8,0.8c0.5,0,0.8-0.3,0.8-0.8v-2.9h2.9c0.5,0,0.8-0.3,0.8-0.8c0-0.5-0.3-0.8-0.8-0.8h-2.9v-2.9
			c0-0.5-0.3-0.8-0.8-0.8c-0.5,0-0.8,0.3-0.8,0.8v2.9H8C7.5-7.9,7.2-7.5,7.2-7.1z"/>
	</g>
	<g transform="matrix(1 0 0 1 305.646 1933)">
		<path d="M15,5.7c7,0,12.7-5.8,12.7-12.7c0-7-5.8-12.7-12.7-12.7C8-19.8,2.3-14,2.3-7.1C2.3-0.1,8,5.7,15,5.7z M15,3.8
			C8.9,3.8,4.1-1,4.1-7.1c0-6,4.8-10.9,10.9-10.9c6,0,10.9,4.9,10.9,10.9C25.9-1,21,3.8,15,3.8z M9.2-7.1c0,0.5,0.4,0.9,0.9,0.9h3.9
			v4c0,0.5,0.4,0.9,0.9,0.9c0.5,0,0.9-0.4,0.9-0.9v-4h4c0.5,0,0.9-0.4,0.9-0.9c0-0.5-0.4-0.9-0.9-0.9h-4v-3.9c0-0.5-0.4-0.9-0.9-0.9
			c-0.5,0-0.9,0.4-0.9,0.9V-8h-3.9C9.6-8,9.2-7.6,9.2-7.1z"/>
	</g>
	<text transform="matrix(1 0 0 1 263 1953)" class="st2 st3">Design Variations</text>
	<text transform="matrix(1 0 0 1 263 1971)" class="st4 st3">Symbols are supported in up to nine weights and three scales.</text>
	<text transform="matrix(1 0 0 1 263 1989)" class="st4 st3">For optimal layout with text and other symbols, vertically align</text>
	<text transform="matrix(1 0 0 1 263 2007)" class="st4 st3">symbols with the adjacent text.</text>
	<line class="st5" x1="776" y1="1919" x2="776" y2="1933"/>
	<g transform="matrix(1 0 0 1 776 1933)">
		<path d="M3.3,0.2c0.5,0,0.8-0.2,1-0.7L5.5-4h5.8l1.3,3.4C12.7,0,13,0.2,13.5,0.2c0.5,0,0.8-0.3,0.8-0.8c0-0.2,0-0.3-0.1-0.5
			L9.7-13.4C9.4-14,9-14.3,8.4-14.3c-0.6,0-1,0.3-1.2,0.9L2.6-1.2C2.5-1,2.5-0.8,2.5-0.6C2.5-0.1,2.8,0.2,3.3,0.2z M6-5.5l2.4-6.6h0
			l2.4,6.6H6z"/>
	</g>
	<line class="st5" x1="793.2" y1="1919" x2="793.2" y2="1933"/>
	<text transform="matrix(1 0 0 1 776 1953)" class="st2 st3">Margins</text>
	<text transform="matrix(1 0 0 1 776 1971)" class="st4 st3">Leading and trailing margins on the left and right side of each symbol</text>
	<text transform="matrix(1 0 0 1 776 1989)" class="st4 st3">can be adjusted by modifying the x-location of the margin guidelines.</text>
	<text transform="matrix(1 0 0 1 776 2007)" class="st4 st3">Modifications are automatically applied proportionally to all</text>
	<text transform="matrix(1 0 0 1 776 2025)" class="st4 st3">scales and weights.</text>
	<g transform="matrix(1 0 0 1 1289 1933)">
		<path d="M2.8,1.9l1.7,1.7c0.9,0.9,1.8,0.8,2.8-0.2L18-8.4l-1-1L6.4,2.3c-0.4,0.4-0.7,0.5-1.2,0L4.1,1.1C3.6,0.7,3.7,0.3,4.1,0
			l11.5-10.8l-1-1L3-0.9C2.1,0,2,1,2.8,1.9z M9.3-16.3c-0.4,0.4-0.4,1-0.2,1.4c0.2,0.4,0.7,0.6,1.3,0.4c1.5-0.3,3-0.4,4.4,0.5
			l-0.6,1.5c-0.3,0.8-0.2,1.4,0.4,2l2.3,2.3c0.5,0.5,0.9,0.5,1.5,0.4L19.4-8l0.7,0.7l0,0.6c0,0.5,0.1,0.9,0.6,1.4l0.8,0.7
			c0.5,0.5,1.1,0.5,1.6,0l2.9-2.9c0.5-0.5,0.4-1.1,0-1.5L25-9.9c-0.5-0.5-0.8-0.6-1.3-0.6l-0.6,0l-0.6-0.6l0.2-1.1
			c0.1-0.6,0-1-0.6-1.6L19.9-16C16.6-19.3,12.1-19.2,9.3-16.3z M10.8-16c2.4-1.8,5.7-1.5,7.9,0.8l2.4,2.4c0.2,0.2,0.3,0.4,0.2,0.8
			L21-10.5l1.5,1.5l1-0.1c0.3,0,0.3,0,0.5,0.2l0.6,0.6l-2.4,2.4l-0.6-0.6c-0.2-0.2-0.2-0.3-0.2-0.5l0.1-1L20-9.5l-1.5,0.3
			c-0.3,0.1-0.5,0-0.7-0.2l-2-2c-0.3-0.2-0.3-0.4-0.1-0.8l0.9-2.1c-1.6-1.5-3.6-2.1-5.6-1.5C10.7-15.7,10.6-15.8,10.8-16z"/>
	</g>
	<text transform="matrix(1 0 0 1 1289 1953)" class="st2 st3">Exporting</text>
	<text transform="matrix(1 0 0 1 1289 1971)" class="st4 st3">Symbols should be outlined when exporting to ensure the</text>
	<text transform="matrix(1 0 0 1 1289 1989)" class="st4 st3">design is preserved when submitting to Xcode.</text>
	<text id="template-version" transform="matrix(1 0 0 1 2952.4141 1933)" class="st4 st3">Template v.4.0</text>
	<text transform="matrix(1 0 0 1 2865.4575 1951)" class="st4 st3">Requires Xcode 14 or greater</text>
	<text id="descriptive-name" transform="matrix(1 0 0 1 2862.0933 1969)" class="st4 st3">Generated from key.horizontal</text>
	<text transform="matrix(1 0 0 1 2912.4111 1987)" class="st4 st3">Typeset at 100 points</text>
	<text transform="matrix(1 0 0 1 263 726)" class="st4 st3">Small</text>
	<text transform="matrix(1 0 0 1 263 1156)" class="st4 st3">Medium</text>
	<text transform="matrix(1 0 0 1 263 1586)" class="st4 st3">Large</text>
</g>
<g id="Guides">
	<g id="H-reference" transform="matrix(1 0 0 1 339 696)">
		<path class="st6" d="M1.4,0H4l25.7-67.1h0.7v-3.3h-1.9L1.4,0z M12.1-24.5h35.3l-0.8-2.2H12.8L12.1-24.5z M55.5,0h2.6L31-70.5h-1.2
			v3.3L55.5,0z"/>
	</g>
	<line id="Baseline-S" class="st7" x1="263.4" y1="696" x2="3036.4" y2="696"/>
	<line id="Capline-S" class="st7" x1="263.4" y1="625.5" x2="3036.4" y2="625.5"/>
	<g id="H-reference_00000183956663051254646950000000973219612249839787_" transform="matrix(1 0 0 1 339 1126)">
		<path class="st6" d="M1.4,0H4l25.7-67.1h0.7v-3.3h-1.9L1.4,0z M12.1-24.5h35.3l-0.8-2.2H12.8L12.1-24.5z M55.5,0h2.6L31-70.5h-1.2
			v3.3L55.5,0z"/>
	</g>
	<line id="Baseline-M" class="st7" x1="263.4" y1="1126" x2="3036.4" y2="1126"/>
	<line id="Capline-M" class="st7" x1="263.4" y1="1055.5" x2="3036.4" y2="1055.5"/>
	<g id="H-reference_00000023986850760891769270000012345830948873424319_" transform="matrix(1 0 0 1 339 1556)">
		<path class="st6" d="M1.4,0H4l25.7-67.1h0.7v-3.3h-1.9L1.4,0z M12.1-24.5h35.3l-0.8-2.2H12.8L12.1-24.5z M55.5,0h2.6L31-70.5h-1.2
			v3.3L55.5,0z"/>
	</g>
	<line id="Baseline-L" class="st7" x1="263.4" y1="1556" x2="3036.4" y2="1556"/>
	<line id="Capline-L" class="st7" x1="263.4" y1="1485.5" x2="3036.4" y2="1485.5"/>
	<line id="left-margin-Regular-M" class="st5" x1="1392" y1="1030.8" x2="1392" y2="1150.1"/>
	<line id="right-margin-Regular-M" class="st5" x1="1515.1" y1="1030.8" x2="1515.1" y2="1150.1"/>
</g>
<g id="Symbols">
	<g id="Semibold-L" transform="matrix(1 0 0 1 1948.38 1556)">
		<path d="M37.3,15.9c0.2,3.6,2.7,6.5,6.4,6.5l27.5,0c3.7,0,6.4-2.9,6.4-6.5l0-13.4l19.8,0c3.6,0,6.4-2.9,6.4-6.5l0-18.3
			c18.1,6.3,35,3.1,46.8-8.7c16.6-16.6,16.5-43.3-0.1-59.9c-16.7-16.7-43.3-16.7-59.9-0.1C78.8-79.1,74.9-61.6,81-46L39.1-4.1
			c-1.5,1.5-2.8,3.8-2.6,6.3L37.3,15.9z M48.1,11.5l0-10l45.8-45.8c-7.8-12.3-6.2-28.5,4.4-39.1c12.3-12.3,32.2-12.3,44.6,0.1
			c12.4,12.4,12.4,32.2,0.1,44.6c-10.5,10.5-26.9,12.2-41,3.4l-9.1,9.1l0,17.8L74.4-8.6l-7.6,7.6l0.1,12.3L48.1,11.5z M122-62.4
			c4,4,10.3,3.9,14.3,0c3.9-3.9,3.9-10.3,0-14.2c-4-4-10.3-3.9-14.2,0C118.1-72.7,118-66.3,122-62.4z"/>
	</g>
	<g id="Regular-L" transform="matrix(1 0 0 1 1356.2 1556)">
		<path d="M37.3,15.9c0.2,2.9,2.1,5.3,5.2,5.2H70c3,0,5.2-2.3,5.2-5.3l0-14.6l21,0c2.9,0.1,5.1-2.3,5.2-5.3l0-20
			c18.3,6.9,35.3,4,47.2-7.8c16.1-16.1,16-42-0.1-58.1c-16.2-16.2-42-16.2-58.1-0.1C78.6-78.4,74.9-61,81.2-45.7L38.9-3.3
			c-1.3,1.3-2.4,3.2-2.2,5.4L37.3,15.9z M45.9,12.5l0-10.6l45.8-45.8c-8-13-6.1-29.4,4.7-40.2c12.7-12.7,33.2-12.6,46,0.1
			c12.7,12.7,12.8,33.2,0.1,45.9c-10.7,10.7-27.2,12.6-42.1,3.8l-7.8,7.8l0,19L72.8-7.6l-6.3,6.3l0.1,13.7L45.9,12.5z M121.1-62.7
			c3.9,3.9,10.3,3.9,14.2,0c3.9-3.9,3.9-10.2,0-14.2c-4-4-10.2-3.9-14.1,0C117.2-72.9,117.1-66.6,121.1-62.7z"/>
	</g>
	<g id="Semibold-M" transform="matrix(1 0 0 1 1969.15 1126)">
		<path d="M28.9,4.4c0.2,3.2,2.4,5.7,5.6,5.6l21.3,0c3.2,0,5.6-2.5,5.6-5.7l0-9.8l14.7,0c3.1,0,5.6-2.5,5.6-5.7l0-13.3
			c13.9,4.5,26.9,1.9,36.1-7.2c13.1-13.1,13.1-34.2,0-47.3C104.6-92,83.6-92,70.4-78.9c-9.3,9.3-12.4,22.9-7.8,35.2L30.3-11.4
			c-1.3,1.3-2.4,3.2-2.2,5.3L28.9,4.4z M38.2,0.6l0-7.4l35.5-35.5c-6.1-9.3-4.9-21.9,3.3-30c9.4-9.4,24.6-9.3,34,0.1
			c9.4,9.4,9.4,24.6,0,34c-8.1,8.1-20.7,9.3-31.1,2.6l-7.8,7.8l0,13l-13.7-0.1l-6.6,6.6L52,0.5L38.2,0.6z M94.9-56.1
			c3.1,3.1,8.1,3.1,11.2,0c3.1-3.1,3.1-8.1,0-11.1c-3.1-3.1-8-3.1-11.1,0C91.9-64.1,91.8-59.2,94.9-56.1z"/>
	</g>
	<g id="Regular-M" transform="matrix(1 0 0 1 1376.56 1126)">
		<path d="M28.9,4.4c0.2,2.7,2,4.8,4.7,4.8h21.3c2.7,0,4.8-2.1,4.8-4.8l0-10.6l15.6,0c2.6,0,4.7-2.1,4.7-4.8l0-14.4
			c14,4.9,27.1,2.5,36.3-6.6c12.8-12.8,12.7-33.3-0.1-46.1C103.5-91.1,83-91.1,70.2-78.3c-9.2,9.2-12.1,22.8-7.4,34.8L30.2-10.9
			C29-9.7,28-8.1,28.2-6.2L28.9,4.4z M36.7,1.3l0-7.6l35.6-35.6c-6.3-9.9-4.9-22.6,3.4-30.9c9.7-9.7,25.3-9.6,35,0.1
			c9.7,9.7,9.7,25.3,0,35c-8.2,8.2-21,9.7-31.7,3.1l-7,7l0,13.5l-14.6-0.1l-5.7,5.7l0,9.7L36.7,1.3z M94.3-56.3
			c3.1,3.1,8.1,3.1,11.2,0c3.1-3.1,3.1-8.1,0-11.2c-3.1-3.1-8.1-3.1-11.2,0C91.2-64.4,91.2-59.4,94.3-56.3z"/>
	</g>
	<g id="Semibold-S" transform="matrix(1 0 0 1 1984.76 696)">
		<path d="M22.6-4.2c0.2,2.7,2,4.9,4.8,4.8l16.7,0c2.7,0,4.8-2.2,4.8-4.9l0-7.2l11.1,0c2.7,0,4.8-2.1,4.8-4.9l0-9.8
			c10.9,3.3,21,1.2,28.1-5.9c10.4-10.4,10.4-27.2,0-37.7c-10.5-10.5-27.2-10.5-37.7,0C48-62.4,45.5-51.7,49-42L23.8-16.8
			c-1.1,1.1-2,2.7-1.8,4.4L22.6-4.2z M30.6-7.4l0-5.5l27.9-27.9c-4.8-7.2-3.9-17,2.5-23.3c7.3-7.3,19-7.2,26.3,0.1s7.3,19,0,26.3
			c-6.3,6.3-16.2,7.2-23.9,2L56.8-29l0,9.5l-10.2-0.1l-5.6,5.6l0,6.5L30.6-7.4z M74.7-51.4c2.5,2.5,6.4,2.4,8.9,0
			c2.4-2.4,2.4-6.4,0-8.8c-2.5-2.5-6.4-2.4-8.8,0C72.3-57.8,72.2-53.9,74.7-51.4z"/>
	</g>
	<g id="Regular-S" transform="matrix(1 0 0 1 1391.86 696)">
		<path d="M22.6-4.2c0.2,2.4,1.8,4.4,4.2,4.3l16.7,0c2.5,0,4.3-1.9,4.3-4.4l0-7.7l11.6,0c2.4,0,4.2-1.9,4.3-4.4l0-10.5
			c10.9,3.6,21.1,1.6,28.3-5.6c10.2-10.2,10.2-26.7,0-36.9c-10.3-10.3-26.7-10.3-36.9,0c-7.3,7.3-9.7,18-6.1,27.6L23.7-16.4
			c-1,1-1.9,2.4-1.7,4L22.6-4.2z M29.6-6.9l0-5.5l28-28c-5-7.7-4-17.6,2.5-24c7.5-7.5,19.5-7.4,27,0.1s7.5,19.5,0,27
			C80.8-31,70.8-30,63-34.9l-6.2,6.2v9.7L46-19.1L40.8-14l0,7L29.6-6.9z M74.3-51.6c2.5,2.5,6.5,2.5,9,0c2.5-2.5,2.5-6.5,0-8.9
			c-2.5-2.5-6.5-2.5-8.9,0C71.8-58,71.8-54.1,74.3-51.6z"/>
	</g>
</g>
</svg>
