<?xml version="1.0" encoding="utf-8"?>
<!-- Generator: Adobe Illustrator 27.5.0, SVG Export Plug-In . SVG Version: 6.00 Build 0)  -->
<svg version="1.1" id="Layer_1" xmlns="http://www.w3.org/2000/svg" xmlns:xlink="http://www.w3.org/1999/xlink" x="0px" y="0px"
	 viewBox="0 0 3300 2200" style="enable-background:new 0 0 3300 2200;" xml:space="preserve">
<style type="text/css">
	.st0{fill:#FFFFFF;}
	.st1{fill:none;stroke:#000000;stroke-width:0.5;}
	.st2{font-family:'Helvetica-Bold';}
	.st3{font-size:13px;}
	.st4{font-family:'Helvetica';}
	.st5{fill:none;stroke:#00AEEF;stroke-width:0.5;}
	.st6{fill:#27AAE1;}
	.st7{fill:none;stroke:#27AAE1;stroke-width:0.5;}
</style>
<g id="Notes">
	<rect id="artboard" x="233.3" y="224.1" class="st0" width="3300" height="2200"/>
	<line class="st1" x1="263" y1="292" x2="3036" y2="292"/>
	<text transform="matrix(1 0 0 1 263 322)" class="st2 st3">Weight/Scale Variations</text>
	<text transform="matrix(1 0 0 1 534.0633 322)" class="st4 st3">Ultralight</text>
	<text transform="matrix(1 0 0 1 843.7775 322)" class="st4 st3">Thin</text>
	<text transform="matrix(1 0 0 1 1139.035 322)" class="st4 st3">Light</text>
	<text transform="matrix(1 0 0 1 1427.0773 322)" class="st4 st3">Regular</text>
	<text transform="matrix(1 0 0 1 1723.4419 322)" class="st4 st3">Medium</text>
	<text transform="matrix(1 0 0 1 2016.1719 322)" class="st4 st3">Semibold</text>
	<text transform="matrix(1 0 0 1 2326.9705 322)" class="st4 st3">Bold</text>
	<text transform="matrix(1 0 0 1 2618.2659 322)" class="st4 st3">Heavy</text>
	<text transform="matrix(1 0 0 1 2917.5054 322)" class="st4 st3">Black</text>
	<line class="st1" x1="263" y1="1903" x2="3036" y2="1903"/>
	<g transform="matrix(1 0 0 1 263 1933)">
		<path d="M9.2,0.8c4.3,0,7.9-3.6,7.9-7.9S13.5-15,9.2-15s-7.9,3.6-7.9,7.9C1.4-2.7,5,0.8,9.2,0.8z M9.2-0.7c-3.5,0-6.4-2.8-6.4-6.4
			s2.8-6.4,6.4-6.4s6.4,2.8,6.4,6.4S12.8-0.7,9.2-0.7z M5.7-7.1c0,0.4,0.3,0.7,0.8,0.7h2.1v2.1c0,0.4,0.3,0.7,0.7,0.7S10-3.9,10-4.3
			v-2.1h2.1c0.4,0,0.7-0.3,0.7-0.7c0-0.4-0.3-0.7-0.7-0.7H10v-2.1c0-0.4-0.3-0.8-0.7-0.8s-0.7,0.3-0.7,0.8v2.1H6.4
			C6-7.8,5.7-7.5,5.7-7.1z"/>
	</g>
	<g transform="matrix(1 0 0 1 281.867 1933)">
		<path d="M11.7,2.9c5.4,0,10-4.5,10-10c0-5.4-4.5-10-10-10c-5.4,0-10,4.5-10,10C1.7-1.6,6.3,2.9,11.7,2.9z M11.7,1.2
			c-4.6,0-8.3-3.7-8.3-8.3s3.7-8.3,8.3-8.3S20-11.7,20-7.1C20-2.4,16.3,1.2,11.7,1.2z M7.2-7.1c0,0.5,0.3,0.8,0.8,0.8h2.9v2.9
			c0,0.5,0.3,0.8,0.8,0.8s0.8-0.3,0.8-0.8v-2.9h2.9c0.5,0,0.8-0.3,0.8-0.8s-0.3-0.8-0.8-0.8h-2.9v-2.9c0-0.5-0.3-0.8-0.8-0.8
			s-0.8,0.3-0.8,0.8v2.9H8C7.5-7.9,7.2-7.5,7.2-7.1z"/>
	</g>
	<g transform="matrix(1 0 0 1 305.646 1933)">
		<path d="M15,5.7c7,0,12.7-5.8,12.7-12.7c0-7-5.8-12.7-12.7-12.7C8-19.8,2.3-14,2.3-7.1C2.3-0.1,8,5.7,15,5.7z M15,3.8
			C8.9,3.8,4.1-1,4.1-7.1C4.1-13.1,8.9-18,15-18c6,0,10.9,4.9,10.9,10.9C25.9-1,21,3.8,15,3.8z M9.2-7.1c0,0.5,0.4,0.9,0.9,0.9H14v4
			c0,0.5,0.4,0.9,0.9,0.9s0.9-0.4,0.9-0.9v-4h4c0.5,0,0.9-0.4,0.9-0.9S20.3-8,19.8-8h-4v-3.9c0-0.5-0.4-0.9-0.9-0.9S14-12.4,14-11.9
			V-8h-3.9C9.6-8,9.2-7.6,9.2-7.1z"/>
	</g>
	<text transform="matrix(1 0 0 1 263 1953)" class="st2 st3">Design Variations</text>
	<text transform="matrix(1 0 0 1 263 1971)" class="st4 st3">Symbols are supported in up to nine weights and three scales.</text>
	<text transform="matrix(1 0 0 1 263 1989)" class="st4 st3">For optimal layout with text and other symbols, vertically align</text>
	<text transform="matrix(1 0 0 1 263 2007)" class="st4 st3">symbols with the adjacent text.</text>
	<line class="st5" x1="776" y1="1919" x2="776" y2="1933"/>
	<g transform="matrix(1 0 0 1 776 1933)">
		<path d="M3.3,0.2c0.5,0,0.8-0.2,1-0.7L5.5-4h5.8l1.3,3.4C12.7,0,13,0.2,13.5,0.2s0.8-0.3,0.8-0.8c0-0.2,0-0.3-0.1-0.5L9.7-13.4
			C9.4-14,9-14.3,8.4-14.3s-1,0.3-1.2,0.9L2.6-1.2C2.5-1,2.5-0.8,2.5-0.6C2.5-0.1,2.8,0.2,3.3,0.2z M6-5.5l2.4-6.6l0,0l2.4,6.6
			C10.8-5.5,6-5.5,6-5.5z"/>
	</g>
	<line class="st5" x1="793.2" y1="1919" x2="793.2" y2="1933"/>
	<text transform="matrix(1 0 0 1 776 1953)" class="st2 st3">Margins</text>
	<text transform="matrix(1 0 0 1 776 1971)" class="st4 st3">Leading and trailing margins on the left and right side of each symbol</text>
	<text transform="matrix(1 0 0 1 776 1989)" class="st4 st3">can be adjusted by modifying the x-location of the margin guidelines.</text>
	<text transform="matrix(1 0 0 1 776 2007)" class="st4 st3">Modifications are automatically applied proportionally to all</text>
	<text transform="matrix(1 0 0 1 776 2025)" class="st4 st3">scales and weights.</text>
	<g transform="matrix(1 0 0 1 1289 1933)">
		<path d="M2.8,1.9l1.7,1.7c0.9,0.9,1.8,0.8,2.8-0.2L18-8.4l-1-1L6.4,2.3C6,2.7,5.7,2.8,5.2,2.3L4.1,1.1C3.6,0.7,3.7,0.3,4.1,0
			l11.5-10.8l-1-1L3-0.9C2.1,0,2,1,2.8,1.9z M9.3-16.3c-0.4,0.4-0.4,1-0.2,1.4s0.7,0.6,1.3,0.4c1.5-0.3,3-0.4,4.4,0.5l-0.6,1.5
			c-0.3,0.8-0.2,1.4,0.4,2l2.3,2.3c0.5,0.5,0.9,0.5,1.5,0.4l1-0.2l0.7,0.7v0.6c0,0.5,0.1,0.9,0.6,1.4l0.8,0.7c0.5,0.5,1.1,0.5,1.6,0
			L26-7.5C26.5-8,26.4-8.6,26-9l-1-0.9c-0.5-0.5-0.8-0.6-1.3-0.6h-0.6l-0.6-0.6l0.2-1.1c0.1-0.6,0-1-0.6-1.6L19.9-16
			C16.6-19.3,12.1-19.2,9.3-16.3z M10.8-16c2.4-1.8,5.7-1.5,7.9,0.8l2.4,2.4c0.2,0.2,0.3,0.4,0.2,0.8L21-10.5L22.5-9l1-0.1
			c0.3,0,0.3,0,0.5,0.2l0.6,0.6l-2.4,2.4l-0.6-0.6c-0.2-0.2-0.2-0.3-0.2-0.5l0.1-1L20-9.5l-1.5,0.3c-0.3,0.1-0.5,0-0.7-0.2l-2-2
			c-0.3-0.2-0.3-0.4-0.1-0.8l0.9-2.1C15-15.8,13-16.4,11-15.8C10.7-15.7,10.6-15.8,10.8-16z"/>
	</g>
	<text transform="matrix(1 0 0 1 1289 1953)" class="st2 st3">Exporting</text>
	<text transform="matrix(1 0 0 1 1289 1971)" class="st4 st3">Symbols should be outlined when exporting to ensure the</text>
	<text transform="matrix(1 0 0 1 1289 1989)" class="st4 st3">design is preserved when submitting to Xcode.</text>
	<text id="template-version" transform="matrix(1 0 0 1 2952.4141 1933)" class="st4 st3">Template v.4.0</text>
	<text transform="matrix(1 0 0 1 2865.4575 1951)" class="st4 st3">Requires Xcode 14 or greater</text>
	<text id="descriptive-name" transform="matrix(1 0 0 1 2819.2148 1969)" class="st4 st3">Generated from arrow.up.right.square</text>
	<text transform="matrix(1 0 0 1 2912.4111 1987)" class="st4 st3">Typeset at 100 points</text>
	<text transform="matrix(1 0 0 1 263 726)" class="st4 st3">Small</text>
	<text transform="matrix(1 0 0 1 263 1156)" class="st4 st3">Medium</text>
	<text transform="matrix(1 0 0 1 263 1586)" class="st4 st3">Large</text>
</g>
<g id="Guides">
	<g id="H-reference" transform="matrix(1 0 0 1 339 696)">
		<path class="st6" d="M1,0h2.6l25.7-67.1H30v-3.3h-1.9L1,0z M11.7-24.5H47l-0.8-2.2H12.4L11.7-24.5z M55.1,0h2.6L30.6-70.5h-1.2
			v3.3L55.1,0z"/>
	</g>
	<line id="Baseline-S" class="st7" x1="263" y1="696" x2="3036" y2="696"/>
	<line id="Capline-S" class="st7" x1="263" y1="625.5" x2="3036" y2="625.5"/>
	<g id="H-reference_00000049929493900763361690000010319613041624498622_" transform="matrix(1 0 0 1 339 1126)">
		<path class="st6" d="M1,0h2.6l25.7-67.1H30v-3.3h-1.9L1,0z M11.7-24.5H47l-0.8-2.2H12.4L11.7-24.5z M55.1,0h2.6L30.6-70.5h-1.2
			v3.3L55.1,0z"/>
	</g>
	<line id="Baseline-M" class="st7" x1="263" y1="1126" x2="3036" y2="1126"/>
	<line id="Capline-M" class="st7" x1="263" y1="1055.5" x2="3036" y2="1055.5"/>
	<g id="H-reference_00000014606499970780714530000002781183863181874599_" transform="matrix(1 0 0 1 339 1556)">
		<path class="st6" d="M1,0h2.6l25.7-67.1H30v-3.3h-1.9L1,0z M11.7-24.5H47l-0.8-2.2H12.4L11.7-24.5z M55.1,0h2.6L30.6-70.5h-1.2
			v3.3L55.1,0z"/>
	</g>
	<line id="Baseline-L" class="st7" x1="263" y1="1556" x2="3036" y2="1556"/>
	<line id="Capline-L" class="st7" x1="263" y1="1485.5" x2="3036" y2="1485.5"/>
	<line id="left-margin-Regular-M" class="st5" x1="1392.4" y1="1030.8" x2="1392.4" y2="1150.1"/>
	<line id="right-margin-Regular-M" class="st5" x1="1507.2" y1="1030.8" x2="1507.2" y2="1150.1"/>
</g>
<g id="Symbols">
	<g id="Semibold-L" transform="matrix(1 0 0 1 1968.43 1556)">
		<path d="M121.3-46.7V9.1c0,6.2-3.3,9.3-9.2,9.3H37.6c-6,0-9.2-3-9.2-9.3v-74.3c0-6.2,3.2-9.3,9.2-9.3h55.5v-12.4H36.7
			c-13.4,0-20.6,7.1-20.6,20.4v76.8c0,13.3,7.1,20.4,20.6,20.4H113c13.5,0,20.6-7.1,20.6-20.4v-56.9L121.3-46.7L121.3-46.7z"/>
		<path d="M138.6-55.3c3.1,0,5-2.3,5-5.5v-29.8c0-4.2-2.4-6.2-6.3-6.2h-29.9c-3.3,0-5.5,1.9-5.5,5c0,3,2.2,5,5.5,5h11.7l8.3-0.9
			l-8.6,7.9L95.6-56.7c-1.1,1.1-1.8,2.5-1.8,4c0,3.3,2.3,5.4,5.5,5.4c1.7,0,3.1-0.6,4.2-1.7l23.1-23.1l7.8-8.6l-0.8,9v10.8
			C133.6-57.5,135.6-55.3,138.6-55.3z"/>
	</g>
	<g id="Regular-L" transform="matrix(1 0 0 1 1376.38 1556)">
		<path d="M118.3-47.2V9.4c0,7-3.8,10.6-10.5,10.6H31.4c-6.8,0-10.5-3.6-10.5-10.6v-76.3c0-7,3.7-10.6,10.5-10.6h56.7v-8.7H31.2
			c-12.6,0-19,6.4-19,18.9V9.8c0,12.5,6.4,18.9,19,18.9h76.7c12.6,0,19-6.4,19-18.9v-57L118.3-47.2z"/>
		<path d="M131-54.6c2.4,0,4-1.8,4-4.3v-30.8c0-3.2-1.8-4.4-4.5-4.4h-31c-2.5,0-4.2,1.6-4.2,3.9c0,2.4,1.7,4,4.3,4h13.8l9.2-0.8
			l-9,8.5L71.9-36.8c-0.8,0.8-1.4,1.8-1.4,3c0,2.4,1.6,4,4,4c1.3,0,2.4-0.5,3.1-1.2l41.8-41.8l8.3-8.9L127-71.5v12.8
			C127-56.2,128.6-54.6,131-54.6z"/>
	</g>
	<g id="Semibold-M" transform="matrix(1 0 0 1 1984.77 1126)">
		<path d="M71.9-81.2c-19.7,0-23.3,0-42.9,0c-10.8,0-16.5,5.7-16.5,16.4v59.2c0,10.7,5.8,16.4,16.5,16.4h59
			c10.8,0,16.5-5.7,16.5-16.4c0-19.7,0-23.8,0-43.5H93.7v42.4c0,4.5-2.3,6.6-6.6,6.6H29.9c-4.3,0-6.6-2.1-6.6-6.6v-57
			c0-4.5,2.3-6.6,6.6-6.6c19,0,22.9,0,42,0V-81.2z M108.8-57.1c2.7,0,4.4-2,4.4-4.8v-22.5c0-3.7-2.1-5.5-5.6-5.5H85
			c-2.9,0-4.8,1.7-4.8,4.3c0,2.6,1.9,4.3,4.8,4.3h7.8l6.3-0.8l-6.9,6.3L55.7-39.3c-0.9,0.9-1.6,2.2-1.6,3.5c0,2.8,2.1,4.7,4.8,4.7
			c1.4,0,2.6-0.5,3.7-1.5L99-69l6.2-6.9l-0.7,6.6v7.3C104.5-59,106.2-57.1,108.8-57.1z"/>
	</g>
	<g id="Regular-M" transform="matrix(1 0 0 1 1392.45 1126)">
		<path d="M72.5-80.1c0,0-29.8,0-44.7,0c-0.7-0.1-6.9-0.9-11.6,3.9c-2.5,2.5-3.8,6.3-3.8,11.3v59.6c0,10.1,5.1,15.2,15.3,15.2H87
			c5.2,0,9-1.3,11.6-3.9c3.5-3.5,3.7-8.4,3.8-11.3c0.5-19.3,0-44.7,0-44.7h-7.9c0,0,0.1,39.1,0,44.3c0,1.2-0.1,3.9-2,5.7
			c-1.9,1.9-4.6,1.9-5.6,1.9c-18.7,0.5-28.1,0.7-59,0c-1,0-3.8-0.1-5.6-1.9c-1.9-1.9-1.9-4.6-2-5.7c-0.4-19.6,0.9-39.2,0-58.8
			c0-0.4-0.1-1.7,0.5-3.3c0.1-0.2,0.6-1.4,1.5-2.4c1.6-1.6,4-1.9,5.6-1.9c9.5-0.2,44.6,0,44.6,0V-80.1z M106-56.4
			c2.2,0,3.6-1.6,3.6-3.9v-23c0-2.9-1.6-4-4.1-4H82.3c-2.3,0-3.8,1.4-3.8,3.5s1.5,3.6,3.9,3.6h8.9l7.2-0.8L91-73.9l-36,36
			c-0.7,0.7-1.2,1.6-1.2,2.7c0,2.2,1.4,3.6,3.6,3.6c1.2,0,2.1-0.4,2.8-1.1l36-36l7-7.5l-0.7,7.6v8.4C102.4-57.9,103.8-56.4,106-56.4
			z"/>
	</g>
	<g id="Semibold-S" transform="matrix(1 0 0 1 1997.11 696)">
		<path d="M82.5-46.1c-3.1,0-6.2,0-9.3,0c0,11,0,22.1,0,33.1c0,3.3-1.7,4.9-4.8,4.9H23.9c-3.1,0-4.8-1.5-4.8-4.9v-44.4
			c0-3.3,1.7-4.9,4.8-4.9c11.2,0,21.9,0,33.1,0v-9.3c0,0-19.1-0.1-33.8,0c-2.6,0-6.9,0.3-10,3.4c-3,3-3.2,7.2-3.3,9.8
			c0,23.5,0,30.6,0,46.3c0,2.6,0.4,6.8,3.3,9.8c3,3.1,7.3,3.4,10,3.4c15.7,0,23.1,0,46.1,0c2.8,0,7-0.4,10-3.4
			c3.1-3.1,3.4-7.6,3.3-9.8C82.5-23.4,82.5-34.7,82.5-46.1z M68-71.6h5.1l4.9-0.7l-5.7,5.2L44.5-38.3c-0.8,0.8-1.3,1.9-1.3,3
			c0,2.4,1.8,4,4.1,4c1.2,0,2.2-0.4,3.1-1.3l27.8-28.7l5.1-5.7l-0.6,5v4.9c0,2.5,1.4,4.1,3.7,4.1c2.3,0,3.7-1.7,3.7-4.1v-17.1
			c0-3.2-1.8-4.7-4.8-4.7H68c-2.5,0-4.1,1.4-4.1,3.7C63.9-73.1,65.5-71.6,68-71.6z"/>
	</g>
	<g id="Regular-S" transform="matrix(1 0 0 1 1404.51 696)">
		<path d="M58-70.8c-11.9,0-23.9,0-35.8,0c-0.5-0.1-5.6-0.7-9.4,3.1c-2,2.1-3,5.1-3,9.2v46.6C9.8-3.7,14,0.4,22.3,0.4h46.2
			c4.2,0,7.4-1,9.4-3.1c2.8-2.9,3-6.8,3-9.2c0.4-16.2,0-35.7,0-35.7h-7c0,0,0.1,31.4,0,35.3c0,0.9-0.1,2.8-1.4,4.2
			c-1.4,1.4-3.4,1.4-4.1,1.4c-23,0.5-30.7,0.3-46,0c-0.7,0-2.7,0-4.1-1.4s-1.4-3.4-1.4-4.2c-0.5-24.7-0.4-31.8,0-45.9
			c0-0.7,0-2.8,1.4-4.2c1.3-1.3,3.2-1.4,4.1-1.4c3.9-0.1,17.4-0.2,35.7,0C58-66.1,58-68.4,58-70.8z M84-52.6c2,0,3.2-1.5,3.2-3.5
			v-17.4c0-2.6-1.4-3.6-3.7-3.6H66.1c-2.1,0-3.4,1.3-3.4,3.2s1.4,3.2,3.5,3.2h5.6l5.7-0.7l-6.4,6L44.4-38.9
			c-0.6,0.6-1.1,1.5-1.1,2.3c0,2,1.3,3.2,3.2,3.2c1,0,1.9-0.4,2.4-1L75.5-61l5.9-6.3l-0.7,5.8v5.5C80.9-54,82.1-52.6,84-52.6z"/>
	</g>
</g>
</svg>
