<?xml version="1.0" encoding="utf-8"?>
<!-- Generator: Adobe Illustrator 27.5.0, SVG Export Plug-In . SVG Version: 6.00 Build 0)  -->
<svg version="1.1" id="Layer_1" xmlns="http://www.w3.org/2000/svg" xmlns:xlink="http://www.w3.org/1999/xlink" x="0px" y="0px"
	 viewBox="0 0 3300 2200" style="enable-background:new 0 0 3300 2200;" xml:space="preserve">
<style type="text/css">
	.st0{fill:#FFFFFF;}
	.st1{fill:none;stroke:#000000;stroke-width:0.5;}
	.st2{font-family:'Helvetica-Bold';}
	.st3{font-size:13px;}
	.st4{font-family:'Helvetica';}
	.st5{fill:none;stroke:#00AEEF;stroke-width:0.5;}
	.st6{fill:#27AAE1;}
	.st7{fill:none;stroke:#27AAE1;stroke-width:0.5;}
</style>
<g id="Notes">
	<rect id="artboard" class="st0" width="3300" height="2200"/>
	<line class="st1" x1="263" y1="292" x2="3036" y2="292"/>
	<text transform="matrix(1 0 0 1 263 322)" class="st2 st3">Weight/Scale Variations</text>
	<text transform="matrix(1 0 0 1 534.0633 322)" class="st4 st3">Ultralight</text>
	<text transform="matrix(1 0 0 1 843.7775 322)" class="st4 st3">Thin</text>
	<text transform="matrix(1 0 0 1 1139.035 322)" class="st4 st3">Light</text>
	<text transform="matrix(1 0 0 1 1427.0773 322)" class="st4 st3">Regular</text>
	<text transform="matrix(1 0 0 1 1723.4419 322)" class="st4 st3">Medium</text>
	<text transform="matrix(1 0 0 1 2016.1719 322)" class="st4 st3">Semibold</text>
	<text transform="matrix(1 0 0 1 2326.9705 322)" class="st4 st3">Bold</text>
	<text transform="matrix(1 0 0 1 2618.2659 322)" class="st4 st3">Heavy</text>
	<text transform="matrix(1 0 0 1 2917.5054 322)" class="st4 st3">Black</text>
	<line class="st1" x1="263" y1="1903" x2="3036" y2="1903"/>
	<g transform="matrix(1 0 0 1 263 1933)">
		<path d="M9.25,0.83c4.31,0,7.89-3.57,7.89-7.88s-3.59-7.88-7.9-7.88c-4.3,0-7.87,3.57-7.87,7.88C1.37-2.74,4.95,0.83,9.25,0.83z
			 M9.25-0.65c-3.54,0-6.38-2.84-6.38-6.4c0-3.55,2.82-6.4,6.37-6.4s6.41,2.84,6.41,6.4C15.64-3.5,12.8-0.65,9.25-0.65z M5.65-7.05
			c0,0.43,0.3,0.72,0.75,0.72h2.1v2.12c0,0.44,0.29,0.74,0.72,0.74c0.45,0,0.74-0.3,0.74-0.74v-2.12h2.12
			c0.44,0,0.74-0.29,0.74-0.72c0-0.44-0.3-0.74-0.74-0.74H9.97V-9.9c0-0.45-0.29-0.75-0.74-0.75c-0.43,0-0.72,0.3-0.72,0.75v2.11
			h-2.1C5.96-7.79,5.65-7.49,5.65-7.05z"/>
	</g>
	<g transform="matrix(1 0 0 1 281.867 1933)">
		<path d="M11.71,2.91c5.45,0,9.96-4.52,9.96-9.96c0-5.45-4.52-9.96-9.97-9.96c-5.44,0-9.95,4.51-9.95,9.96
			C1.75-1.61,6.27,2.91,11.71,2.91z M11.71,1.25c-4.61,0-8.29-3.69-8.29-8.3s3.67-8.3,8.28-8.3s8.31,3.69,8.31,8.3
			S16.32,1.25,11.71,1.25z M7.18-7.05c0,0.48,0.33,0.8,0.83,0.8h2.87v2.88c0,0.49,0.33,0.83,0.81,0.83c0.49,0,0.83-0.33,0.83-0.83
			v-2.88h2.88c0.49,0,0.83-0.32,0.83-0.8c0-0.49-0.34-0.83-0.83-0.83h-2.88v-2.87c0-0.5-0.34-0.84-0.83-0.84
			c-0.48,0-0.81,0.34-0.81,0.84v2.87H8.01C7.51-7.88,7.18-7.54,7.18-7.05z"/>
	</g>
	<g transform="matrix(1 0 0 1 305.646 1933)">
		<path d="M14.97,5.66c6.96,0,12.72-5.76,12.72-12.71c0-6.96-5.77-12.72-12.73-12.72c-6.95,0-12.71,5.76-12.71,12.72
			C2.26-0.1,8.02,5.66,14.97,5.66z M14.97,3.85c-6.04,0-10.89-4.86-10.89-10.9s4.84-10.9,10.88-10.9s10.91,4.85,10.91,10.9
			C25.87-1.02,21.02,3.85,14.97,3.85z M9.2-7.05c0,0.52,0.37,0.88,0.92,0.88h3.95v3.96c0,0.54,0.37,0.92,0.89,0.92
			c0.54,0,0.91-0.37,0.91-0.92v-3.96h3.96c0.54,0,0.92-0.36,0.92-0.88c0-0.55-0.37-0.92-0.92-0.92h-3.96v-3.95
			c0-0.55-0.37-0.93-0.91-0.93c-0.52,0-0.89,0.38-0.89,0.93v3.95h-3.95C9.57-7.97,9.2-7.6,9.2-7.05z"/>
	</g>
	<text transform="matrix(1 0 0 1 263 1953)" class="st2 st3">Design Variations</text>
	<text transform="matrix(1 0 0 1 263 1971)" class="st4 st3">Symbols are supported in up to nine weights and three scales.</text>
	<text transform="matrix(1 0 0 1 263 1989)" class="st4 st3">For optimal layout with text and other symbols, vertically align</text>
	<text transform="matrix(1 0 0 1 263 2007)" class="st4 st3">symbols with the adjacent text.</text>
	<line class="st5" x1="776" y1="1919" x2="776" y2="1933"/>
	<g transform="matrix(1 0 0 1 776 1933)">
		<path d="M3.31,0.16c0.52,0,0.77-0.2,0.96-0.74l1.26-3.45h5.76l1.26,3.45c0.19,0.55,0.44,0.74,0.95,0.74c0.52,0,0.85-0.31,0.85-0.8
			c0-0.17-0.03-0.32-0.11-0.53l-4.58-12.2c-0.22-0.6-0.62-0.9-1.25-0.9c-0.61,0-1.02,0.29-1.23,0.89L2.6-1.16
			C2.52-0.96,2.49-0.8,2.49-0.63C2.49-0.15,2.8,0.16,3.31,0.16z M6.01-5.52l2.37-6.57h0.05l2.37,6.57H6.01z"/>
	</g>
	<line class="st5" x1="793.2" y1="1919" x2="793.2" y2="1933"/>
	<text transform="matrix(1 0 0 1 776 1953)" class="st2 st3">Margins</text>
	<text transform="matrix(1 0 0 1 776 1971)" class="st4 st3">Leading and trailing margins on the left and right side of each symbol</text>
	<text transform="matrix(1 0 0 1 776 1989)" class="st4 st3">can be adjusted by modifying the x-location of the margin guidelines.</text>
	<text transform="matrix(1 0 0 1 776 2007)" class="st4 st3">Modifications are automatically applied proportionally to all</text>
	<text transform="matrix(1 0 0 1 776 2025)" class="st4 st3">scales and weights.</text>
	<g transform="matrix(1 0 0 1 1289 1933)">
		<path d="M2.84,1.87l1.7,1.71c0.86,0.86,1.85,0.8,2.77-0.22l10.7-11.79L17.04-9.4L6.43,2.28c-0.35,0.4-0.68,0.5-1.15,0.03L4.1,1.14
			c-0.47-0.46-0.36-0.8,0.04-1.16l11.47-10.8l-0.98-0.97L3.05-0.9C2.06,0.02,1.98,1,2.84,1.87z M9.26-16.33
			c-0.42,0.41-0.45,0.99-0.21,1.38c0.23,0.36,0.69,0.6,1.34,0.43c1.46-0.34,2.99-0.4,4.41,0.54l-0.59,1.46
			c-0.34,0.83-0.17,1.42,0.37,1.96l2.29,2.31c0.49,0.49,0.9,0.51,1.46,0.41l1.06-0.2l0.66,0.67l-0.04,0.56
			c-0.04,0.5,0.09,0.88,0.58,1.36l0.76,0.74c0.48,0.48,1.09,0.51,1.56,0.04l2.91-2.92c0.47-0.47,0.45-1.06-0.03-1.54l-0.77-0.76
			c-0.48-0.48-0.85-0.63-1.33-0.6l-0.58,0.05l-0.64-0.63l0.24-1.12c0.13-0.57-0.03-1.01-0.62-1.59l-2.2-2.19
			C16.58-19.3,12.15-19.22,9.26-16.33z M10.75-15.96c2.43-1.78,5.72-1.47,7.95,0.75l2.43,2.41c0.23,0.23,0.27,0.42,0.21,0.76
			l-0.32,1.48l1.5,1.48l0.99-0.06c0.25-0.01,0.33,0.01,0.53,0.21l0.58,0.58L22.17-5.9l-0.58-0.58c-0.2-0.2-0.22-0.27-0.21-0.54
			L21.45-8l-1.49-1.48l-1.52,0.25c-0.32,0.07-0.47,0.04-0.71-0.2l-2-2c-0.25-0.23-0.28-0.4-0.13-0.77l0.88-2.09
			c-1.56-1.46-3.59-2.08-5.62-1.48C10.68-15.72,10.62-15.85,10.75-15.96z"/>
	</g>
	<text transform="matrix(1 0 0 1 1289 1953)" class="st2 st3">Exporting</text>
	<text transform="matrix(1 0 0 1 1289 1971)" class="st4 st3">Symbols should be outlined when exporting to ensure the</text>
	<text transform="matrix(1 0 0 1 1289 1989)" class="st4 st3">design is preserved when submitting to Xcode.</text>
	<text id="template-version" transform="matrix(1 0 0 1 2952.4141 1933)" class="st4 st3">Template v.4.0</text>
	<text transform="matrix(1 0 0 1 2865.4575 1951)" class="st4 st3">Requires Xcode 14 or greater</text>
	<text id="descriptive-name" transform="matrix(1 0 0 1 2904.4956 1969)" class="st4 st3">Generated from eraser</text>
	<text transform="matrix(1 0 0 1 2912.4111 1987)" class="st4 st3">Typeset at 100 points</text>
	<text transform="matrix(1 0 0 1 263 726)" class="st4 st3">Small</text>
	<text transform="matrix(1 0 0 1 263 1156)" class="st4 st3">Medium</text>
	<text transform="matrix(1 0 0 1 263 1586)" class="st4 st3">Large</text>
</g>
<g id="Guides">
	<g id="H-reference" transform="matrix(1 0 0 1 339 696)">
		<path class="st6" d="M0.99,0h2.64l25.69-67.13h0.7v-3.33h-1.91L0.99,0z M11.69-24.48h35.29l-0.75-2.25H12.44L11.69-24.48z
			 M55.12,0h2.64L30.64-70.46h-1.21v3.33L55.12,0z"/>
	</g>
	<line id="Baseline-S" class="st7" x1="263" y1="696" x2="3036" y2="696"/>
	<line id="Capline-S" class="st7" x1="263" y1="625.54" x2="3036" y2="625.54"/>
	<g id="H-reference_00000088839008139621163850000013036955709579748767_" transform="matrix(1 0 0 1 339 1126)">
		<path class="st6" d="M0.99,0h2.64l25.69-67.13h0.7v-3.33h-1.91L0.99,0z M11.69-24.48h35.29l-0.75-2.25H12.44L11.69-24.48z
			 M55.12,0h2.64L30.64-70.46h-1.21v3.33L55.12,0z"/>
	</g>
	<line id="Baseline-M" class="st7" x1="263" y1="1126" x2="3036" y2="1126"/>
	<line id="Capline-M" class="st7" x1="263" y1="1055.54" x2="3036" y2="1055.54"/>
	<g id="H-reference_00000086652385291698302330000006992589481257049001_" transform="matrix(1 0 0 1 339 1556)">
		<path class="st6" d="M0.99,0h2.64l25.69-67.13h0.7v-3.33h-1.91L0.99,0z M11.69-24.48h35.29l-0.75-2.25H12.44L11.69-24.48z
			 M55.12,0h2.64L30.64-70.46h-1.21v3.33L55.12,0z"/>
	</g>
	<line id="Baseline-L" class="st7" x1="263" y1="1556" x2="3036" y2="1556"/>
	<line id="Capline-L" class="st7" x1="263" y1="1485.54" x2="3036" y2="1485.54"/>
	<line id="left-margin-Regular-M" class="st5" x1="1389.95" y1="1030.79" x2="1389.95" y2="1150.12"/>
	<line id="right-margin-Regular-M" class="st5" x1="1509.74" y1="1030.79" x2="1509.74" y2="1150.12"/>
</g>
<g id="Symbols">
	<g id="Black-L" transform="matrix(1 0 0 1 2847.41 1556)">
		<g>
			<g>
				<path d="M54.7,35.53C54.7,35.53,54.7,35.53,54.7,35.53c-10.65,0-20.67-4.15-28.2-11.69C18.97,16.32,14.81,6.31,14.81-4.34
					c0-10.65,4.15-20.66,11.68-28.2l50.13-50.14c2.72-2.75,6.39-4.24,10.31-4.19c3.79,0.08,7.28,1.57,9.91,4.19l36.18,36.19
					c2.7,2.7,4.18,6.28,4.18,10.1c0,3.82-1.49,7.41-4.19,10.1L82.88,23.85C75.35,31.38,65.34,35.53,54.7,35.53z M86.73-68.46
					L38.66-20.38c-4.29,4.29-6.65,9.98-6.65,16.04c0,6.05,2.36,11.74,6.64,16.02c4.29,4.29,9.98,6.65,16.04,6.65c0,0,0,0,0,0
					c6.05,0,11.74-2.36,16.02-6.64l48.08-48.08L86.73-68.46z M88.82-70.55l-0.02,0.02C88.81-70.53,88.81-70.54,88.82-70.55z"/>
			</g>
			<g>
				<path d="M129.18-38.52l-12.09-12.23l19.24-19.02l-16.2-16.2l-19.02,19.24L88.87-78.83l25.1-25.39c1.61-1.63,3.8-2.55,6.09-2.55
					c0.01,0,0.02,0,0.02,0c2.28,0,4.47,0.91,6.08,2.52l28.43,28.43c1.62,1.62,2.53,3.82,2.52,6.11c-0.01,2.29-0.93,4.48-2.55,6.09
					L129.18-38.52z"/>
			</g>
			<g>
				<path d="M111.55-78.27l5.69-5.69l5.69,5.69l-5.69,5.69L111.55-78.27z"/>
			</g>
			<g>
				<path d="M122.93-66.89l5.69-5.69l5.69,5.69l-5.69,5.69L122.93-66.89z"/>
			</g>
			<g>
				<path d="M56.11,5.64c-6.29,0-11.41-5.12-11.41-11.41c0-6.29,5.12-11.41,11.41-11.41c6.29,0,11.41,5.12,11.41,11.41
					C67.52,0.52,62.4,5.64,56.11,5.64z M56.11-8.58c-1.55,0-2.81,1.26-2.81,2.81c0,1.55,1.26,2.81,2.81,2.81
					c1.55,0,2.81-1.26,2.81-2.81C58.92-7.32,57.66-8.58,56.11-8.58z"/>
			</g>
		</g>
	</g>
	<g id="Heavy-L" transform="matrix(1 0 0 1 2552.85 1556)">
		<g>
			<g>
				<path d="M53.06,33.21c-9.76,0-19.52-3.71-26.95-11.13c-7.2-7.2-11.17-16.77-11.17-26.95c0-10.18,3.97-19.75,11.17-26.95
					l49.31-49.32c2.43-2.45,5.81-3.84,9.34-3.79c3.4,0.05,6.58,1.4,8.98,3.79l35.59,35.59c5.04,5.06,5.04,13.27,0,18.3L80.01,22.08
					C72.58,29.5,62.82,33.21,53.06,33.21z M84.58-69.51L36.51-21.42C32.08-17,29.65-11.12,29.65-4.87c0,6.25,2.44,12.13,6.86,16.55
					c9.13,9.12,23.98,9.12,33.11,0l48.08-48.08L84.58-69.51z M85.84-70.76L85.84-70.76C85.83-70.76,85.83-70.76,85.84-70.76z"/>
			</g>
			<g>
				<path d="M125.54-39.27L115.2-49.73l19.71-19.49l-17.51-17.51L97.92-67.01L87.46-77.35l24.69-24.97
					c1.38-1.39,3.25-2.18,5.21-2.18c1.92-0.01,3.83,0.77,5.22,2.15l27.96,27.96c1.38,1.38,2.16,3.26,2.15,5.22
					c0,1.96-0.79,3.83-2.18,5.21L125.54-39.27z"/>
			</g>
			<g>
				<path d="M108.99-77.58l5.59-5.59l5.59,5.59l-5.59,5.59L108.99-77.58z"/>
			</g>
			<g>
				<path d="M120.18-66.4l5.59-5.59l5.59,5.59l-5.59,5.59L120.18-66.4z"/>
			</g>
			<g>
				<path d="M54.46,4.39c-5.88,0-10.67-4.78-10.67-10.66c0-5.88,4.78-10.67,10.67-10.67c5.88,0,10.66,4.78,10.66,10.67
					C65.12-0.39,60.34,4.39,54.46,4.39z M54.46-9.58c-1.83,0-3.32,1.49-3.32,3.32c0,1.83,1.49,3.31,3.32,3.31
					c1.83,0,3.31-1.49,3.31-3.31C57.77-8.1,56.29-9.58,54.46-9.58z"/>
			</g>
		</g>
	</g>
	<g id="Bold-L" transform="matrix(1 0 0 1 2258.73 1556)">
		<g>
			<g>
				<path d="M51.11,30.71C51.11,30.71,51.11,30.71,51.11,30.71c-9.71,0-18.82-3.78-25.68-10.65C18.57,13.22,14.8,4.1,14.8-5.6
					c0-9.7,3.78-18.82,10.64-25.68l48.19-48.2c2.22-2.22,5.16-3.43,8.29-3.43c0.06,0,0.11,0,0.17,0c3.08,0.04,5.96,1.26,8.13,3.43
					l34.78,34.79c4.57,4.57,4.57,12,0,16.57l-48.2,48.2C69.92,26.94,60.81,30.71,51.11,30.71z M81.91-70.09L34.27-22.44
					c-4.5,4.5-6.97,10.48-6.97,16.84c0,6.36,2.48,12.34,6.97,16.83c4.5,4.5,10.48,6.98,16.84,6.98c0,0,0,0,0,0
					c6.36,0,12.33-2.48,16.83-6.97l47.65-47.65L81.91-70.09z"/>
			</g>
			<g>
				<path d="M121.28-39.88l-8.79-8.89l19.94-19.71L114-86.93L94.29-66.99l-8.89-8.79l24.13-24.41c1.17-1.18,2.76-1.85,4.43-1.86
					c0.01,0,0.01,0,0.02,0c1.66,0,3.25,0.66,4.42,1.83l27.33,27.33c1.18,1.18,1.84,2.77,1.83,4.44c0,1.66-0.67,3.26-1.86,4.43
					L121.28-39.88z"/>
			</g>
			<g>
				<path d="M105.77-76.66l5.47-5.47l5.47,5.47l-5.47,5.47L105.77-76.66z"/>
			</g>
			<g>
				<path d="M116.7-65.73l5.47-5.47l5.47,5.47l-5.47,5.47L116.7-65.73z"/>
			</g>
			<g>
				<path d="M52.47,3c-5.49,0-9.96-4.47-9.96-9.96s4.47-9.96,9.96-9.96c0.01,0,0.02,0,0.03,0c2.64,0,5.12,1.03,7,2.9
					c1.89,1.88,2.93,4.39,2.93,7.05C62.43-1.47,57.96,3,52.47,3z M52.49-10.67C52.48-10.67,52.48-10.67,52.49-10.67
					c-2.06,0-3.72,1.66-3.72,3.71s1.66,3.71,3.71,3.71s3.71-1.66,3.71-3.71c0-0.99-0.39-1.93-1.09-2.63
					C54.39-10.28,53.47-10.67,52.49-10.67z"/>
			</g>
		</g>
	</g>
	<g id="Semibold-L" transform="matrix(1 0 0 1 1963.8 1556)">
		<g>
			<g>
				<path d="M49.64,29.08c-9.36,0-18.15-3.65-24.77-10.27C18.26,12.2,14.61,3.4,14.61-5.96c0-9.36,3.65-18.16,10.27-24.78
					l47.59-47.6c2.04-2.04,4.85-3.18,7.76-3.15c2.81,0.04,5.46,1.16,7.45,3.15l34.34,34.35c4.19,4.19,4.19,11.01,0,15.2l-47.6,47.6
					C67.8,25.43,59,29.08,49.64,29.08z M80.11-70.77l-47.66,47.6c-4.6,4.6-7.13,10.71-7.13,17.21c0,6.5,2.53,12.61,7.13,17.2
					c4.6,4.6,10.71,7.13,17.2,7.13c6.5,0,12.61-2.53,17.2-7.13l0,0l47.6-47.6L80.11-70.77z"/>
			</g>
			<g>
				<path d="M118.37-40.41l-7.52-7.61l20.27-20.05l-19.38-19.38L91.7-67.17l-7.61-7.52l23.83-24.1c1-1.01,2.37-1.58,3.79-1.59
					c0,0,0.01,0,0.01,0c1.42,0,2.78,0.56,3.78,1.57l26.99,26.99c1.01,1.01,1.57,2.37,1.57,3.8c0,1.42-0.58,2.79-1.59,3.79
					L118.37-40.41z"/>
			</g>
			<g>
				<path d="M103.62-76.13l5.4-5.4l5.4,5.4l-5.4,5.4L103.62-76.13z"/>
			</g>
			<g>
				<path d="M114.42-65.33l5.4-5.4l5.4,5.4l-5.4,5.4L114.42-65.33z"/>
			</g>
			<g>
				<path d="M50.99,2.12c-5.2,0-9.42-4.23-9.42-9.42s4.23-9.42,9.42-9.42s9.42,4.23,9.42,9.42S56.19,2.12,50.99,2.12z M50.99-11.38
					c-2.25,0-4.08,1.83-4.08,4.08s1.83,4.08,4.08,4.08s4.08-1.83,4.08-4.08S53.24-11.38,50.99-11.38z"/>
			</g>
		</g>
	</g>
	<g id="Medium-L" transform="matrix(1 0 0 1 1668.45 1556)">
		<g>
			<g>
				<path d="M48.76,27.77C48.76,27.77,48.76,27.77,48.76,27.77c-9.11,0-17.66-3.55-24.1-9.99c-6.43-6.43-9.98-14.98-9.98-24.08
					s3.54-17.66,9.98-24.09l47-47.01c1.91-1.91,4.43-2.95,7.13-2.95c0.05,0,0.1,0,0.15,0c2.65,0.04,5.13,1.09,6.99,2.95l33.92,33.93
					c3.93,3.93,3.93,10.33,0,14.26L72.85,17.79C66.42,24.22,57.86,27.77,48.76,27.77z M78.8-70.86c-0.24,0-0.37,0.13-0.41,0.17
					l-47,47.01c-4.64,4.64-7.2,10.81-7.2,17.38c0,6.56,2.55,12.73,7.19,17.37c4.64,4.65,10.81,7.21,17.37,7.21c0,0,0,0,0,0
					c6.56,0,12.73-2.55,17.37-7.19l47.01-47.01c0.11-0.11,0.17-0.25,0.17-0.41c0-0.16-0.06-0.3-0.17-0.41L79.22-70.69
					C79.18-70.73,79.06-70.86,78.8-70.86C78.8-70.86,78.8-70.86,78.8-70.86z"/>
			</g>
			<g>
				<path d="M116.26-40.7l-6.68-6.76l20.4-20.17l-19.9-19.9l-20.17,20.4l-6.76-6.68l23.53-23.8c0.89-0.9,2.1-1.41,3.36-1.41
					c0,0,0.01,0,0.01,0c1.26,0,2.47,0.5,3.36,1.39l26.66,26.66c0.89,0.89,1.4,2.11,1.39,3.37s-0.51,2.48-1.41,3.36L116.26-40.7z"/>
			</g>
			<g>
				<path d="M102.07-75.61l5.33-5.33l5.33,5.33l-5.33,5.33L102.07-75.61z"/>
			</g>
			<g>
				<path d="M112.73-64.95l5.33-5.33l5.33,5.33l-5.33,5.33L112.73-64.95z"/>
			</g>
			<g>
				<path d="M50.1,1.39c-4.98,0-9.04-4.05-9.04-9.03c0-4.98,4.05-9.04,9.04-9.04s9.04,4.05,9.04,9.04
					C59.14-2.66,55.08,1.39,50.1,1.39z M50.1-11.92c-2.36,0-4.29,1.92-4.29,4.29c0,2.36,1.92,4.28,4.29,4.28s4.29-1.92,4.29-4.28
					C54.39-10,52.46-11.92,50.1-11.92z"/>
			</g>
		</g>
	</g>
	<g id="Regular-L" transform="matrix(1 0 0 1 1373.5 1556)">
		<g>
			<g>
				<path d="M47.44,25.99c-8.39,0-16.78-3.19-23.17-9.58c-6.19-6.19-9.6-14.42-9.6-23.17c0-8.75,3.41-16.98,9.6-23.18l46.29-46.3
					c1.72-1.74,4.11-2.74,6.61-2.68c2.39,0.04,4.65,0.99,6.34,2.68l33.41,33.41c3.57,3.57,3.57,9.37,0,12.94l-46.3,46.3
					C64.23,22.8,55.84,25.99,47.44,25.99z M77.03-71.12c-0.22,0-0.61,0.05-0.94,0.38l-46.3,46.31c-4.72,4.72-7.32,10.99-7.32,17.66
					s2.6,12.94,7.32,17.65c9.74,9.74,25.58,9.73,35.32,0l46.3-46.3c0.52-0.52,0.52-1.38,0-1.91L77.99-70.72
					c-0.34-0.34-0.73-0.39-0.94-0.4C77.05-71.12,77.04-71.12,77.03-71.12z"/>
			</g>
			<g>
				<path d="M113.37-41.2l-5.48-5.55l20.65-20.42l-20.7-20.7L87.42-67.21l-5.55-5.48l23.17-23.45c0.73-0.74,1.72-1.16,2.76-1.16
					c0,0,0.01,0,0.01,0c1.03,0,2.03,0.41,2.76,1.14l26.25,26.25c0.73,0.73,1.15,1.73,1.14,2.77s-0.42,2.03-1.16,2.76L113.37-41.2z"
					/>
			</g>
			<g>
				<path d="M99.95-75.02l5.25-5.25l5.25,5.25l-5.25,5.25L99.95-75.02z"/>
			</g>
			<g>
				<path d="M110.45-64.52l5.25-5.25l5.25,5.25l-5.25,5.25L110.45-64.52z"/>
			</g>
			<g>
				<path d="M48.76,0.43c-4.69,0-8.51-3.82-8.51-8.51s3.82-8.51,8.51-8.51s8.51,3.82,8.51,8.51S53.45,0.43,48.76,0.43z M48.76-12.69
					c-2.54,0-4.61,2.07-4.61,4.61s2.07,4.61,4.61,4.61c2.54,0,4.61-2.07,4.61-4.61S51.3-12.69,48.76-12.69z"/>
			</g>
		</g>
	</g>
	<g id="Light-L" transform="matrix(1 0 0 1 1078.11 1556)">
		<g>
			<g>
				<path d="M46.35,24.78c-8.46,0-16.41-3.3-22.4-9.28c-5.98-5.98-9.28-13.93-9.28-22.39s3.29-16.42,9.28-22.4l45.97-45.97
					c1.59-1.59,3.67-2.42,5.94-2.41c2.15,0.03,4.16,0.89,5.69,2.41l33.18,33.17c1.55,1.54,2.41,3.6,2.41,5.79
					c0,2.2-0.85,4.26-2.41,5.82L68.75,15.5C62.77,21.48,54.81,24.78,46.35,24.78z M75.74-71.67c-0.59,0-1.15,0.23-1.57,0.65
					L28.2-25.05c-4.85,4.85-7.52,11.3-7.52,18.16c0,6.86,2.67,13.3,7.52,18.15c4.85,4.85,11.3,7.52,18.15,7.52
					c6.86,0,13.3-2.67,18.15-7.52h0l45.98-45.98c0.42-0.42,0.65-0.98,0.65-1.57c0-0.59-0.23-1.14-0.65-1.55L77.31-71.02
					c-0.41-0.41-0.96-0.64-1.53-0.65C75.76-71.67,75.75-71.67,75.74-71.67z"/>
			</g>
			<g>
				<path d="M111.21-41.71l-4.22-4.27l21.13-20.89l-21.8-21.8L85.43-67.53l-4.27-4.22l23.01-23.28c0.56-0.57,1.33-0.89,2.12-0.89
					c0,0,0.01,0,0.01,0c0.8,0,1.56,0.32,2.12,0.88l26.07,26.07c0.56,0.56,0.88,1.33,0.88,2.13s-0.32,1.56-0.89,2.12L111.21-41.71z"
					/>
			</g>
			<g>
				<path d="M98.49-74.67l5.21-5.21l5.21,5.21l-5.21,5.21L98.49-74.67z"/>
			</g>
			<g>
				<path d="M108.92-64.24l5.21-5.21l5.21,5.21l-5.21,5.21L108.92-64.24z"/>
			</g>
			<g>
				<path d="M47.66-0.18c-4.42,0-8.02-3.6-8.02-8.02c0-4.42,3.6-8.02,8.02-8.02s8.02,3.6,8.02,8.02
					C55.68-3.78,52.08-0.18,47.66-0.18z M47.66-13.22c-2.77,0-5.02,2.25-5.02,5.02c0,2.77,2.25,5.02,5.02,5.02s5.02-2.25,5.02-5.02
					C52.68-10.97,50.43-13.22,47.66-13.22z"/>
			</g>
		</g>
	</g>
	<g id="Thin-L" transform="matrix(1 0 0 1 783.141 1556)">
		<g>
			<g>
				<path d="M44.85,23.17C44.85,23.17,44.85,23.17,44.85,23.17c-8.08,0-15.68-3.15-21.4-8.87C17.74,8.59,14.6,1,14.6-7.08
					s3.15-15.67,8.86-21.39l45.59-45.6c1.33-1.35,3.12-2.12,5.04-2.05c1.84,0.04,3.56,0.77,4.84,2.05l32.91,32.92
					c2.72,2.72,2.72,7.14,0,9.86l-45.6,45.6C60.52,20.03,52.93,23.17,44.85,23.17z M73.97-72.51c-0.89,0-1.74,0.35-2.37,0.99
					L26-25.92c-5.03,5.03-7.81,11.72-7.81,18.84c0,7.12,2.77,13.8,7.8,18.83c5.04,5.04,11.73,7.81,18.85,7.81c0,0,0,0,0,0
					c7.11,0,13.8-2.77,18.83-7.8l45.6-45.6c1.31-1.31,1.31-3.45,0-4.77L76.38-71.52c-0.62-0.62-1.46-0.97-2.36-0.99
					C74-72.51,73.98-72.51,73.97-72.51z"/>
			</g>
			<g>
				<path d="M108.36-42.44L105.82-45l21.8-21.56l-23.3-23.3l-21.56,21.8l-2.56-2.53l22.83-23.09c0.34-0.34,0.8-0.53,1.27-0.53
					c0,0,0,0,0,0c0.48,0,0.94,0.19,1.27,0.53l25.86,25.86c0.34,0.34,0.53,0.8,0.53,1.28c0,0.48-0.19,0.94-0.53,1.28L108.36-42.44z"
					/>
			</g>
			<g>
				<path d="M96.56-74.31l5.17-5.17l5.17,5.17l-5.17,5.17L96.56-74.31z"/>
			</g>
			<g>
				<path d="M106.91-63.96l5.17-5.17l5.17,5.17l-5.17,5.17L106.91-63.96z"/>
			</g>
			<g>
				<path d="M46.14-1.01c-4.06,0-7.36-3.3-7.36-7.36s3.3-7.36,7.36-7.36c4.06,0,7.36,3.3,7.36,7.36S50.2-1.01,46.14-1.01z
					 M46.14-13.93c-3.07,0-5.56,2.49-5.56,5.56s2.49,5.56,5.56,5.56S51.7-5.3,51.7-8.37S49.21-13.93,46.14-13.93z"/>
			</g>
		</g>
	</g>
	<g id="Ultralight-L" transform="matrix(1 0 0 1 487.321 1556)">
		<g>
			<g>
				<path d="M44.07,22.33c-7.88,0-15.29-3.07-20.87-8.65c-5.58-5.57-8.65-12.98-8.65-20.86s3.07-15.3,8.65-20.87l45.39-45.4
					c1.23-1.23,2.84-1.89,4.59-1.86c1.66,0.03,3.23,0.69,4.4,1.86l32.76,32.76c2.47,2.47,2.47,6.5,0,8.98l-45.4,45.4
					C59.36,19.26,51.95,22.33,44.07,22.33z M73.08-72.91c-1.05,0-2.04,0.41-2.79,1.16L24.9-26.35c-5.12,5.12-7.94,11.93-7.94,19.18
					c0,7.24,2.82,14.05,7.94,19.17c5.12,5.12,11.93,7.94,19.17,7.94s14.05-2.82,19.17-7.94l45.4-45.4c1.54-1.54,1.54-4.04,0-5.58
					L75.88-71.75c-0.73-0.73-1.7-1.14-2.74-1.16C73.12-72.91,73.1-72.91,73.08-72.91z"/>
			</g>
			<g>
				<path d="M106.87-42.81l-1.69-1.71l22.13-21.87l-24.03-24.03L81.4-68.3l-1.71-1.69l22.73-22.98c0.22-0.23,0.53-0.36,0.85-0.36
					c0,0,0,0,0,0c0.32,0,0.62,0.13,0.85,0.35l25.74,25.74c0.23,0.23,0.35,0.53,0.35,0.85c0,0.32-0.13,0.62-0.36,0.85L106.87-42.81z"
					/>
			</g>
			<g>
				<path d="M95.55-74.1l5.15-5.15l5.15,5.15l-5.15,5.15L95.55-74.1z"/>
			</g>
			<g>
				<path d="M105.85-63.81l5.15-5.15l5.15,5.15L111-58.66L105.85-63.81z"/>
			</g>
			<g>
				<path d="M45.35-1.42c-3.88,0-7.04-3.16-7.04-7.04s3.16-7.04,7.04-7.04s7.04,3.16,7.04,7.04S49.23-1.42,45.35-1.42z M45.35-14.3
					c-3.22,0-5.84,2.62-5.84,5.84s2.62,5.84,5.84,5.84s5.84-2.62,5.84-5.84S48.57-14.3,45.35-14.3z"/>
			</g>
		</g>
	</g>
	<g id="Black-M" transform="matrix(1 0 0 1 2865.11 1126)">
		<g>
			<g>
				<path d="M44.02,21.46c-8.77,0-17.02-3.42-23.22-9.62c-6.2-6.2-9.62-14.44-9.62-23.22c0-8.77,3.42-17.02,9.62-23.23l38.85-38.87
					c2.48-2.48,5.9-3.88,9.42-3.81c3.41,0.06,6.6,1.41,8.99,3.81l28.05,28.05c2.46,2.45,3.81,5.72,3.81,9.2
					c0,3.47-1.35,6.74-3.81,9.2L67.24,11.84C61.04,18.05,52.79,21.46,44.02,21.46z M68.86-58.35L32.96-22.44
					c-2.96,2.96-4.58,6.89-4.58,11.06c0,4.18,1.63,8.1,4.58,11.05c2.96,2.96,6.89,4.59,11.06,4.59s8.1-1.63,11.06-4.58l35.9-35.9
					L68.86-58.35z"/>
			</g>
			<g>
				<path d="M103.12-36.49L91.02-48.73l13.53-13.38l-9.81-9.81L81.38-58.38L69.14-70.48l19.45-19.68c1.61-1.63,3.8-2.55,6.09-2.55
					c0.01,0,0.02,0,0.03,0c2.28,0,4.47,0.91,6.08,2.52l22.04,22.04c1.62,1.62,2.53,3.82,2.52,6.11c-0.01,2.29-0.92,4.48-2.55,6.09
					L103.12-36.49z"/>
			</g>
			<g>
				<path d="M88.1-68.68l4.41-4.41l4.41,4.41l-4.41,4.41L88.1-68.68z"/>
			</g>
			<g>
				<path d="M96.92-59.86l4.41-4.41l4.41,4.41l-4.41,4.41L96.92-59.86z"/>
			</g>
			<g>
				<path d="M45.12-2.67c-5.41,0-9.81-4.4-9.81-9.81s4.4-9.81,9.81-9.81s9.81,4.4,9.81,9.81S50.53-2.67,45.12-2.67z M45.12-13.69
					c-0.67,0-1.21,0.54-1.21,1.21c0,0.67,0.54,1.21,1.21,1.21c0.67,0,1.21-0.54,1.21-1.21C46.33-13.15,45.79-13.69,45.12-13.69z"/>
			</g>
		</g>
	</g>
	<g id="Heavy-M" transform="matrix(1 0 0 1 2570.38 1126)">
		<g>
			<g>
				<path d="M42.45,19.41c-8.33,0-16.17-3.25-22.06-9.15C8.23-1.9,8.23-21.68,20.39-33.85l38.22-38.23
					c2.23-2.23,5.31-3.49,8.46-3.42c3.06,0.06,5.93,1.27,8.08,3.42l27.59,27.59c2.21,2.21,3.42,5.14,3.42,8.26s-1.22,6.06-3.42,8.26
					L64.51,10.27C58.61,16.16,50.78,19.41,42.45,19.41z M66.88-59.56l-36.09,36.1c-6.43,6.43-6.43,16.9,0,23.33
					c3.12,3.12,7.26,4.84,11.66,4.84c4.4,0,8.55-1.72,11.67-4.84l36.1-36.1L66.88-59.56z"/>
			</g>
			<g>
				<path d="M99.8-37.28L89.46-47.74l14.1-13.94L92.34-72.91L78.4-58.8L67.94-69.14L87.08-88.5c1.38-1.39,3.25-2.18,5.21-2.18
					c0.01,0,0.01,0,0.02,0c1.95,0,3.82,0.77,5.2,2.15l21.68,21.68c1.38,1.38,2.16,3.26,2.15,5.22c0,1.96-0.79,3.83-2.18,5.21
					L99.8-37.28z"/>
			</g>
			<g>
				<path d="M85.8-68.15l4.34-4.34l4.34,4.34l-4.34,4.34L85.8-68.15z"/>
			</g>
			<g>
				<path d="M94.48-59.48l4.34-4.34l4.34,4.34l-4.34,4.34L94.48-59.48z"/>
			</g>
			<g>
				<path d="M43.53-3.78c-5.01,0-9.09-4.08-9.09-9.09s4.08-9.09,9.09-9.09s9.09,4.08,9.09,9.09S48.54-3.78,43.53-3.78z M43.53-14.62
					c-0.96,0-1.75,0.78-1.75,1.75s0.78,1.75,1.75,1.75s1.75-0.78,1.75-1.75S44.49-14.62,43.53-14.62z"/>
			</g>
		</g>
	</g>
	<g id="Bold-M" transform="matrix(1 0 0 1 2275.88 1126)">
		<g>
			<g>
				<path d="M40.71,17.2c-7.89,0-15.31-3.07-20.89-8.66c-5.58-5.58-8.66-13-8.66-20.9c0-7.9,3.07-15.32,8.66-20.9l37.35-37.37
					c2-2,4.77-3.12,7.59-3.07c2.75,0.05,5.32,1.14,7.25,3.07l26.97,26.96c1.97,1.96,3.07,4.6,3.08,7.4c0,2.81-1.09,5.45-3.08,7.43
					L61.61,8.54C56.03,14.12,48.61,17.2,40.71,17.2C40.71,17.2,40.71,17.2,40.71,17.2z M64.59-60.36L28.66-24.41
					c-3.22,3.22-5,7.5-5,12.06c0,4.56,1.77,8.84,4.99,12.06s7.5,4.99,12.05,4.99c0,0,0,0,0,0c4.55,0,8.83-1.78,12.05-5l35.95-35.95
					L64.59-60.36z M90.15-34.82C90.15-34.81,90.15-34.81,90.15-34.82L90.15-34.82z"/>
			</g>
			<g>
				<path d="M96.1-37.93l-8.79-8.89l14.45-14.28l-12.3-12.3L75.19-58.96l-8.89-8.79L85-86.66c1.17-1.18,2.76-1.85,4.43-1.86
					c0.01,0,0.01,0,0.02,0c1.66,0,3.25,0.66,4.42,1.83l21.19,21.19c1.18,1.18,1.83,2.77,1.83,4.44c0,1.66-0.67,3.26-1.86,4.43
					L96.1-37.93z"/>
			</g>
			<g>
				<path d="M83.09-67.44l4.24-4.24l4.24,4.24l-4.24,4.24L83.09-67.44z"/>
			</g>
			<g>
				<path d="M91.56-58.97l4.24-4.24l4.24,4.24l-4.24,4.24L91.56-58.97z"/>
			</g>
			<g>
				<path d="M41.77-5c-4.65,0-8.42-3.78-8.42-8.42s3.78-8.42,8.42-8.42s8.43,3.78,8.43,8.42S46.42-5,41.77-5z M41.77-15.59
					c-1.2,0-2.17,0.98-2.17,2.17s0.98,2.17,2.17,2.17c1.2,0,2.18-0.98,2.18-2.17S42.97-15.59,41.77-15.59z"/>
			</g>
		</g>
	</g>
	<g id="Semibold-M" transform="matrix(1 0 0 1 1980.7 1126)">
		<g>
			<g>
				<path d="M39.42,15.73c-7.57,0-14.7-2.95-20.05-8.31c-5.36-5.35-8.31-12.47-8.31-20.05c0-7.58,2.95-14.7,8.31-20.06l36.89-36.9
					c1.82-1.84,4.25-2.84,6.9-2.8c2.49,0.05,4.83,1.04,6.59,2.8l26.63,26.62c3.71,3.74,3.71,9.78,0,13.49l-36.9,36.9
					C54.11,12.78,46.99,15.73,39.42,15.73z M63-61.19L26.93-25.12c-3.34,3.34-5.17,7.77-5.17,12.49c0,4.72,1.84,9.15,5.17,12.48
					c3.34,3.34,7.77,5.18,12.49,5.18s9.15-1.84,12.49-5.18l36.08-36.08L63-61.19z M63.85-62.04L63.85-62.04
					C63.84-62.03,63.84-62.04,63.85-62.04z"/>
			</g>
			<g>
				<path d="M93.54-38.48l-7.52-7.61l14.85-14.69L87.56-74.08L72.87-59.23l-7.61-7.52l18.47-18.68c1-1.01,2.37-1.58,3.79-1.59
					c0,0,0.01,0,0.01,0c1.42,0,2.78,0.56,3.78,1.57l20.92,20.92c1.01,1.01,1.57,2.37,1.57,3.8c0,1.42-0.58,2.79-1.59,3.79
					L93.54-38.48z"/>
			</g>
			<g>
				<path d="M81.26-67.03l4.18-4.18l4.18,4.18l-4.18,4.18L81.26-67.03z"/>
			</g>
			<g>
				<path d="M89.63-58.66l4.18-4.18L98-58.66l-4.18,4.18L89.63-58.66z"/>
			</g>
			<g>
				<path d="M40.46-5.78c-4.36,0-7.91-3.55-7.91-7.9c0-4.36,3.55-7.91,7.91-7.91c4.36,0,7.9,3.55,7.9,7.91
					C48.36-9.32,44.82-5.78,40.46-5.78z M40.46-16.24c-1.41,0-2.56,1.15-2.56,2.56c0,1.41,1.15,2.55,2.56,2.55
					c1.41,0,2.55-1.15,2.55-2.55C43.01-15.09,41.87-16.24,40.46-16.24z"/>
			</g>
		</g>
	</g>
	<g id="Medium-M" transform="matrix(1 0 0 1 1685.15 1126)">
		<g>
			<g>
				<path d="M38.66,14.59C38.65,14.59,38.65,14.59,38.66,14.59c-7.34,0-14.24-2.86-19.44-8.06c-5.19-5.18-8.05-12.08-8.05-19.42
					c0-7.34,2.86-14.24,8.05-19.43l36.42-36.43c1.71-1.69,3.92-2.6,6.27-2.6c0.06,0,0.11,0,0.17,0c2.33,0.04,4.51,0.97,6.14,2.6
					l26.3,26.3c1.68,1.68,2.6,3.91,2.6,6.28c0,2.37-0.92,4.6-2.6,6.28L58.08,6.54C52.89,11.73,45.99,14.59,38.66,14.59z
					 M61.93-61.61l-35.99,36c-3.4,3.4-5.27,7.91-5.27,12.72c0,4.8,1.87,9.31,5.27,12.71c3.4,3.4,7.92,5.28,12.71,5.28c0,0,0,0,0,0
					c4.8,0,9.31-1.87,12.71-5.27l36-36L61.93-61.61z"/>
			</g>
			<g>
				<path d="M91.73-38.8l-6.68-6.76l15.05-14.88L86.2-74.35L71.31-59.29l-6.76-6.68L82.8-84.43c0.89-0.9,2.1-1.41,3.37-1.41
					c0,0,0.01,0,0.01,0c1.26,0,2.47,0.5,3.36,1.39l20.66,20.67c0.89,0.89,1.39,2.11,1.39,3.37s-0.51,2.48-1.41,3.36L91.73-38.8z"/>
			</g>
			<g>
				<path d="M79.98-66.62l4.13-4.13l4.13,4.13l-4.13,4.13L79.98-66.62z"/>
			</g>
			<g>
				<path d="M88.24-58.36l4.13-4.13l4.13,4.13l-4.13,4.13L88.24-58.36z"/>
			</g>
			<g>
				<path d="M39.68-6.38c-4.16,0-7.54-3.38-7.54-7.54s3.38-7.54,7.54-7.54c4.16,0.01,7.54,3.4,7.54,7.54
					C47.22-9.77,43.84-6.38,39.68-6.38z M39.67-16.72c-1.53,0-2.79,1.25-2.79,2.79s1.25,2.79,2.79,2.79s2.79-1.25,2.79-2.79
					C42.47-15.47,41.22-16.72,39.67-16.72z"/>
			</g>
		</g>
	</g>
	<g id="Regular-M" transform="matrix(1 0 0 1 1389.95 1126)">
		<g>
			<g>
				<path d="M37.49,13.03c-7.02,0-13.62-2.74-18.58-7.71c-4.96-4.96-7.7-11.55-7.7-18.58s2.73-13.62,7.7-18.59l35.88-35.9
					c1.54-1.54,3.61-2.36,5.77-2.33c2.05,0.02,4.02,0.85,5.5,2.33l25.9,25.9c3.11,3.11,3.11,8.17,0,11.28L56.07,5.33
					C51.11,10.3,44.51,13.03,37.49,13.03z M60.43-62.27c-0.07,0-0.1,0.01-0.13,0.05l-35.88,35.9c-3.49,3.49-5.41,8.13-5.41,13.07
					c0,4.94,1.92,9.58,5.41,13.06c3.49,3.5,8.13,5.42,13.07,5.42c4.94,0,9.58-1.92,13.07-5.42l35.89-35.89
					c0.07-0.07,0.07-0.18,0-0.24l-25.9-25.9C60.51-62.26,60.47-62.27,60.43-62.27z"/>
			</g>
			<g>
				<path d="M89.21-39.32l-5.49-5.55l15.38-15.21l-14.8-14.8L69.09-59.5l-5.55-5.48l17.97-18.17c0.73-0.74,1.72-1.15,2.76-1.16
					c0,0,0.01,0,0.01,0c1.03,0,2.03,0.41,2.76,1.14l20.35,20.35c0.73,0.73,1.15,1.73,1.14,2.77s-0.42,2.03-1.16,2.76L89.21-39.32z"
					/>
			</g>
			<g>
				<path d="M78.18-66.17l4.07-4.07l4.07,4.07l-4.07,4.07L78.18-66.17z"/>
			</g>
			<g>
				<path d="M86.32-58.03l4.07-4.07l4.07,4.07l-4.07,4.07L86.32-58.03z"/>
			</g>
			<g>
				<path d="M38.5-7.23c-3.88,0-7.04-3.16-7.04-7.04s3.16-7.04,7.04-7.04s7.04,3.16,7.04,7.04S42.38-7.23,38.5-7.23z M38.5-17.41
					c-1.73,0-3.14,1.41-3.14,3.14s1.41,3.14,3.14,3.14s3.14-1.41,3.14-3.14S40.23-17.41,38.5-17.41z"/>
			</g>
		</g>
	</g>
	<g id="Light-M" transform="matrix(1 0 0 1 1094.42 1126)">
		<g>
			<g>
				<path d="M36.5,11.89C36.5,11.89,36.5,11.89,36.5,11.89c-6.74,0-13.08-2.63-17.84-7.4c-4.76-4.76-7.39-11.09-7.39-17.83
					s2.62-13.08,7.39-17.84l35.63-35.64c1.34-1.34,3.19-2.1,5.1-2.06c1.82,0.02,3.56,0.75,4.87,2.06l25.72,25.73
					c1.33,1.32,2.06,3.08,2.06,4.96c0,1.88-0.73,3.66-2.06,4.99L54.33,4.5C49.57,9.26,43.23,11.89,36.5,11.89z M59.28-62.88
					c-0.19,0-0.49,0.04-0.75,0.3L22.9-26.94c-3.63,3.63-5.63,8.46-5.63,13.6c0,5.14,2,9.96,5.63,13.59
					c3.63,3.64,8.46,5.64,13.6,5.64c0,0,0,0,0,0c5.13,0,9.96-2,13.59-5.63l35.64-35.64c0.27-0.27,0.31-0.58,0.31-0.74
					c0-0.16-0.04-0.46-0.3-0.72L60.01-62.58c-0.26-0.26-0.55-0.3-0.71-0.3C59.29-62.88,59.29-62.88,59.28-62.88z"/>
			</g>
			<g>
				<path d="M87.24-39.85l-4.22-4.27l15.9-15.72L82.98-75.77l-15.72,15.9L63-64.09l17.84-18.05c0.56-0.57,1.33-0.89,2.13-0.89
					c0.76,0.03,1.57,0.31,2.13,0.88l20.2,20.21c0.56,0.56,0.88,1.33,0.88,2.13s-0.32,1.56-0.89,2.12L87.24-39.85z"/>
			</g>
			<g>
				<path d="M76.91-65.88l4.04-4.04l4.04,4.04l-4.04,4.04L76.91-65.88z"/>
			</g>
			<g>
				<path d="M84.99-57.8l4.04-4.04l4.04,4.04l-4.04,4.04L84.99-57.8z"/>
			</g>
			<g>
				<path d="M37.51-7.8c-3.61,0-6.55-2.94-6.55-6.55c0-3.61,2.94-6.55,6.55-6.55c3.61,0,6.55,2.94,6.55,6.55
					C44.06-10.74,41.12-7.8,37.51-7.8z M37.51-17.9c-1.96,0-3.55,1.59-3.55,3.55c0,1.96,1.59,3.55,3.55,3.55s3.55-1.59,3.55-3.55
					C41.06-16.31,39.47-17.9,37.51-17.9z"/>
			</g>
		</g>
	</g>
	<g id="Thin-M" transform="matrix(1 0 0 1 799.27 1126)">
		<g>
			<g>
				<path d="M35.11,10.38c-6.37,0-12.36-2.48-16.86-6.99c-9.3-9.3-9.3-24.43,0-33.73l35.34-35.35c1.14-1.13,2.64-1.72,4.21-1.7
					c1.51,0.02,2.94,0.62,4.02,1.7l25.51,25.51c1.1,1.1,1.7,2.56,1.7,4.11s-0.61,3.01-1.71,4.11L51.97,3.39
					C47.47,7.9,41.48,10.38,35.11,10.38z M57.7-63.78c-0.6,0-1.15,0.23-1.57,0.65L20.79-27.79c-7.89,7.9-7.89,20.74,0,28.64
					c3.82,3.82,8.91,5.93,14.32,5.93S45.6,4.67,49.43,0.85L84.78-34.5c0.42-0.42,0.65-0.97,0.65-1.56s-0.23-1.14-0.65-1.56
					L59.27-63.14c-0.41-0.41-0.95-0.64-1.53-0.64C57.73-63.78,57.71-63.78,57.7-63.78z"/>
			</g>
			<g>
				<path d="M84.63-40.6l-2.53-2.56l16.61-16.43L81.22-77.07L64.79-60.45l-2.56-2.53l17.7-17.9c0.34-0.34,0.8-0.53,1.27-0.53
					c0,0,0,0,0.01,0c0.48,0,0.94,0.19,1.27,0.53l20.05,20.04c0.34,0.34,0.53,0.8,0.53,1.28c0,0.48-0.19,0.94-0.53,1.27L84.63-40.6z"
					/>
			</g>
			<g>
				<path d="M75.2-65.59l4.01-4.01l4.01,4.01l-4.01,4.01L75.2-65.59z"/>
			</g>
			<g>
				<path d="M83.22-57.57l4.01-4.01l4.01,4.01l-4.01,4.01L83.22-57.57z"/>
			</g>
			<g>
				<path d="M36.12-8.56c-3.26,0-5.91-2.65-5.91-5.91s2.65-5.91,5.91-5.91s5.91,2.65,5.91,5.91S39.38-8.56,36.12-8.56z M36.12-18.58
					c-2.27,0-4.11,1.84-4.11,4.11s1.84,4.11,4.11,4.11c2.27,0,4.11-1.84,4.11-4.11S38.39-18.58,36.12-18.58z"/>
			</g>
		</g>
	</g>
	<g id="Ultralight-M" transform="matrix(1 0 0 1 503.359 1126)">
		<g>
			<g>
				<path d="M34.39,9.6c-5.93,0-11.85-2.26-16.36-6.77c-9.03-9.03-9.03-23.71,0-32.74L53.21-65.1c0.98-0.99,2.38-1.54,3.75-1.52
					c1.37,0.03,2.64,0.57,3.6,1.52l25.39,25.4c0.98,0.98,1.52,2.28,1.52,3.67c0,1.38-0.54,2.69-1.52,3.67L50.76,2.83
					C46.25,7.34,40.32,9.6,34.39,9.6z M56.86-64.22c-0.74,0-1.43,0.29-1.95,0.81l-35.19,35.2c-8.09,8.09-8.09,21.25,0,29.34
					c8.09,8.09,21.25,8.09,29.33,0l35.19-35.19c1.09-1.09,1.09-2.86,0-3.94L58.86-63.4c-0.51-0.51-1.2-0.8-1.95-0.82
					C56.9-64.22,56.88-64.22,56.86-64.22z"/>
			</g>
			<g>
				<path d="M83.27-40.97l-1.69-1.71l16.96-16.77L80.29-77.69L63.52-60.73l-1.71-1.69l17.62-17.82c0.22-0.23,0.53-0.36,0.85-0.36
					c0,0,0,0,0,0c0.32,0,0.62,0.13,0.85,0.35l19.96,19.95c0.23,0.23,0.35,0.53,0.35,0.85c0,0.32-0.13,0.62-0.36,0.85L83.27-40.97z"
					/>
			</g>
			<g>
				<path d="M74.3-65.42l3.99-3.99l3.99,3.99l-3.99,3.99L74.3-65.42z"/>
			</g>
			<g>
				<path d="M82.28-57.44l3.99-3.99l3.99,3.99l-3.99,3.99L82.28-57.44z"/>
			</g>
			<g>
				<path d="M35.39-8.95c-3.08,0-5.59-2.51-5.59-5.59s2.51-5.59,5.59-5.59c3.08,0,5.59,2.51,5.59,5.59S38.47-8.95,35.39-8.95z
					 M35.39-18.93c-2.42,0-4.39,1.97-4.39,4.39s1.97,4.39,4.39,4.39c2.42,0,4.39-1.97,4.39-4.39S37.81-18.93,35.39-18.93z"/>
			</g>
		</g>
	</g>
	<g id="Black-S" transform="matrix(1 0 0 1 2879.35 696)">
		<g>
			<g>
				<path d="M34.87,11.29c-7.41,0-14.38-2.89-19.63-8.14c-5.24-5.23-8.12-12.2-8.12-19.61c0-7.41,2.89-14.38,8.13-19.62l30.7-30.71
					c2.37-2.33,5.45-3.6,8.69-3.54c3.17,0.04,6.15,1.29,8.4,3.53L85.2-44.64c2.28,2.28,3.54,5.31,3.54,8.54s-1.26,6.26-3.54,8.54
					L54.49,3.15C49.25,8.4,42.28,11.29,34.87,11.29z M54.5-51.02L27.41-23.93c-1.99,1.99-3.09,4.64-3.09,7.46
					c0,2.82,1.1,5.46,3.09,7.45c2,2,4.65,3.1,7.46,3.1c2.81,0,5.46-1.1,7.45-3.09l0,0L69.42-36.1L54.5-51.02z"/>
			</g>
			<g>
				<path d="M82.83-35.02L70.73-47.26l9.4-9.29l-5.18-5.18l-9.29,9.39L53.44-64.43l15.37-15.54c1.61-1.63,3.8-2.55,6.09-2.55
					c0.01,0,0.02,0,0.02,0c2.28,0,4.47,0.91,6.08,2.52l17.41,17.41c1.62,1.62,2.53,3.82,2.52,6.11c-0.01,2.29-0.93,4.48-2.55,6.09
					L82.83-35.02z"/>
			</g>
			<g>
				<path d="M69.7-61.74l3.48-3.48l3.48,3.48l-3.48,3.48L69.7-61.74z"/>
			</g>
			<g>
				<path d="M76.66-54.77l3.48-3.48l3.48,3.48l-3.48,3.48L76.66-54.77z"/>
			</g>
			<g>
				<path d="M35.75-8.69c-4.77,0-8.65-3.88-8.65-8.65s3.88-8.65,8.65-8.65s8.65,3.88,8.65,8.65S40.52-8.69,35.75-8.69z M35.75-17.39
					l0.05,0.05C35.8-17.36,35.77-17.39,35.75-17.39z"/>
			</g>
		</g>
	</g>
	<g id="Heavy-S" transform="matrix(1 0 0 1 2584.18 696)">
		<g>
			<g>
				<path d="M33.65,9.38c-6.71,0-13.41-2.55-18.53-7.66C10.18-3.22,7.45-9.8,7.45-16.8c0-7,2.72-13.57,7.67-18.52l30.2-30.2
					c2.08-2.05,4.77-3.15,7.63-3.15c0.04,0,0.08,0,0.13,0c2.83,0.03,5.48,1.15,7.48,3.15l21.8,21.8c2.02,2.01,3.15,4.71,3.16,7.59
					c0.01,2.89-1.12,5.6-3.16,7.64l-30.2,30.2C47.07,6.82,40.36,9.38,33.65,9.38z M52.95-52.35L25.52-24.92
					c-2.17,2.17-3.37,5.06-3.37,8.13c0,3.07,1.19,5.95,3.36,8.12C30-4.2,37.29-4.19,41.77-8.67l0,0L69.2-36.1L52.95-52.35z
					 M71.97-33.32c0.01,0.01,0.01,0.01,0.02,0.02L71.97-33.32z"/>
			</g>
			<g>
				<path d="M80.05-35.84L69.71-46.3l10.03-9.92l-6.67-6.67l-9.91,10.03L52.7-63.19l15.11-15.29c1.38-1.39,3.25-2.18,5.21-2.18
					c0.01,0,0.01,0,0.02,0c1.95,0,3.82,0.77,5.2,2.15l17.13,17.12c1.38,1.38,2.16,3.26,2.15,5.22c0,1.96-0.79,3.83-2.18,5.21
					L80.05-35.84z"/>
			</g>
			<g>
				<path d="M67.91-61.32l3.43-3.43l3.43,3.43l-3.43,3.43L67.91-61.32z"/>
			</g>
			<g>
				<path d="M74.76-54.47l3.43-3.43l3.43,3.43l-3.43,3.43L74.76-54.47z"/>
			</g>
			<g>
				<path d="M34.51-9.7c-4.39,0-7.95-3.57-7.95-7.95c0-4.39,3.57-7.96,7.95-7.96c4.39,0,7.96,3.57,7.96,7.96
					C42.46-13.26,38.9-9.7,34.51-9.7z M34.51-18.26c-0.33,0-0.6,0.28-0.6,0.61c0,0.33,0.28,0.6,0.6,0.6c0.33,0,0.61-0.28,0.61-0.6
					C35.11-17.98,34.84-18.26,34.51-18.26z"/>
			</g>
		</g>
	</g>
	<g id="Bold-S" transform="matrix(1 0 0 1 2289.2 696)">
		<g>
			<g>
				<path d="M32.29,7.41C32.29,7.41,32.29,7.41,32.29,7.41c-6.59,0-12.79-2.57-17.44-7.23c-4.65-4.65-7.22-10.84-7.22-17.43
					c0-6.59,2.57-12.78,7.22-17.44L44.36-64.2c1.82-1.82,4.23-2.81,6.8-2.81c0.04,0,0.08,0,0.12,0c2.52,0.03,4.88,1.03,6.67,2.81
					l21.3,21.3c1.8,1.79,2.81,4.2,2.81,6.76c0.01,2.57-0.99,4.99-2.81,6.81L49.72,0.19C45.06,4.85,38.87,7.41,32.29,7.41z
					 M51.15-53.31L23.69-25.85c-2.3,2.3-3.56,5.35-3.56,8.6c0,3.25,1.26,6.3,3.56,8.59c2.3,2.31,5.36,3.57,8.6,3.57c0,0,0,0,0,0
					c3.24,0,6.29-1.26,8.59-3.56l27.46-27.47L51.15-53.31z M70.4-34.06c0.01,0.01,0.01,0.01,0.02,0.02L70.4-34.06z"/>
			</g>
			<g>
				<path d="M76.97-36.53l-8.79-8.89l10.48-10.36l-7.85-7.85L60.45-53.15l-8.89-8.79l14.77-14.94c1.17-1.18,2.76-1.85,4.42-1.86
					c0.01,0,0.01,0,0.02,0c1.66,0,3.25,0.66,4.42,1.83l16.75,16.73c1.18,1.18,1.84,2.77,1.83,4.44c0,1.66-0.67,3.26-1.86,4.43
					L76.97-36.53z"/>
			</g>
			<g>
				<path d="M65.76-60.77l3.35-3.35l3.35,3.35l-3.35,3.35L65.76-60.77z"/>
			</g>
			<g>
				<path d="M72.46-54.07l3.35-3.35l3.35,3.35l-3.35,3.35L72.46-54.07z"/>
			</g>
			<g>
				<path d="M33.13-10.79c-4.03,0-7.3-3.28-7.3-7.3c0-4.03,3.28-7.31,7.3-7.31s7.3,3.28,7.3,7.31
					C40.43-14.06,37.16-10.79,33.13-10.79z M33.13-19.15c-0.57,0-1.05,0.48-1.05,1.06s0.48,1.05,1.05,1.05
					c0.58,0,1.05-0.47,1.05-1.05C34.18-18.66,33.7-19.15,33.13-19.15z"/>
			</g>
		</g>
	</g>
	<g id="Semibold-S" transform="matrix(1 0 0 1 1993.68 696)">
		<g>
			<g>
				<path d="M31.27,6.05c-6.03,0-12.05-2.29-16.63-6.88c-9.17-9.17-9.17-24.1,0-33.28l29.14-29.15c1.64-1.64,3.81-2.54,6.13-2.54
					c0.04,0,0.07,0,0.11,0c2.27,0.03,4.4,0.93,6.01,2.54l21.04,21.04c3.37,3.37,3.37,8.86,0,12.24L47.91-0.82
					C43.32,3.76,37.3,6.05,31.27,6.05z M49.9-54.24L22.2-26.54c-5,5-5,13.14,0,18.15c5,5,13.14,5,18.15,0l27.7-27.7L49.9-54.24z"/>
			</g>
			<g>
				<path d="M74.81-37.09l-7.52-7.61L78.22-55.5l-8.92-8.92L58.49-53.49l-7.61-7.52l14.59-14.76c1-1.01,2.37-1.58,3.79-1.59
					c0,0,0.01,0,0.02,0c1.42,0,2.78,0.56,3.78,1.57l16.53,16.53c1.01,1.01,1.57,2.37,1.57,3.8c0,1.42-0.58,2.79-1.59,3.79
					L74.81-37.09z"/>
			</g>
			<g>
				<path d="M64.33-60.44l3.31-3.31l3.31,3.31l-3.31,3.31L64.33-60.44z"/>
			</g>
			<g>
				<path d="M70.94-53.83l3.31-3.31l3.31,3.31l-3.31,3.31L70.94-53.83z"/>
			</g>
			<g>
				<path d="M32.1-11.49c-3.75,0-6.8-3.05-6.8-6.8s3.05-6.8,6.8-6.8s6.8,3.05,6.8,6.8S35.85-11.49,32.1-11.49z M32.1-19.75
					c-0.8,0-1.46,0.65-1.46,1.46s0.65,1.46,1.46,1.46s1.46-0.65,1.46-1.46S32.9-19.75,32.1-19.75z"/>
			</g>
		</g>
	</g>
	<g id="Medium-S" transform="matrix(1 0 0 1 1697.87 696)">
		<g>
			<g>
				<path d="M30.7,5.04c-6.06,0-11.77-2.36-16.05-6.65c-8.85-8.85-8.85-23.26,0-32.11l28.79-28.8c1.52-1.52,3.64-2.38,5.77-2.35
					c2.14,0.05,4.1,0.89,5.56,2.35l20.77,20.78c1.52,1.51,2.35,3.53,2.35,5.67c0,2.14-0.83,4.15-2.35,5.67L46.76-1.61
					C42.47,2.68,36.77,5.04,30.7,5.04z M49.11-54.75L21.37-27c-5.15,5.15-5.15,13.52,0,18.67c2.49,2.49,5.81,3.87,9.34,3.87
					c3.53,0,6.84-1.37,9.34-3.87l27.74-27.74L49.11-54.75z"/>
			</g>
			<g>
				<path d="M73.34-37.42l-6.68-6.76l11.18-11.05l-9.57-9.57L57.22-53.62l-6.76-6.68l14.41-14.58c0.89-0.9,2.1-1.41,3.36-1.41
					c0,0,0.01,0,0.01,0c1.26,0,2.47,0.5,3.36,1.39l16.33,16.33c0.89,0.89,1.4,2.11,1.39,3.37c0,1.26-0.51,2.48-1.41,3.36
					L73.34-37.42z"/>
			</g>
			<g>
				<path d="M63.35-60.11l3.26-3.26l3.26,3.26l-3.26,3.26L63.35-60.11z"/>
			</g>
			<g>
				<path d="M69.88-53.58l3.26-3.26l3.26,3.26l-3.26,3.26L69.88-53.58z"/>
			</g>
			<g>
				<path d="M31.52-12.02c-3.56,0-6.46-2.9-6.46-6.46s2.9-6.46,6.46-6.46s6.46,2.9,6.46,6.46S35.08-12.02,31.52-12.02z M31.52-20.19
					c-0.94,0-1.71,0.77-1.71,1.71s0.76,1.71,1.71,1.71s1.71-0.77,1.71-1.71S32.46-20.19,31.52-20.19z"/>
			</g>
		</g>
	</g>
	<g id="Regular-S" transform="matrix(1 0 0 1 1402.33 696)">
		<g>
			<g>
				<path d="M29.81,3.62c-5.53,0-11.06-2.1-15.26-6.31c-4.08-4.07-6.32-9.49-6.32-15.26c0-5.77,2.25-11.19,6.32-15.27l28.35-28.35
					c1.37-1.36,3.16-2.09,5.12-2.08c1.87,0.02,3.62,0.76,4.94,2.08l20.46,20.46c2.77,2.78,2.77,7.29,0,10.07L45.07-2.69
					C40.86,1.52,35.33,3.62,29.81,3.62z M47.92-55.57L20.06-27.7c-2.61,2.61-4.04,6.07-4.04,9.75c0,3.68,1.43,7.14,4.04,9.74
					c5.38,5.38,14.12,5.38,19.5,0l27.87-27.87L47.92-55.57z"/>
			</g>
			<g>
				<path d="M71.24-37.97l-5.48-5.55l11.57-11.43L66.8-65.48L55.36-53.91l-5.55-5.48l14.19-14.36c0.73-0.74,1.72-1.16,2.76-1.16
					c0,0,0.01,0,0.01,0c1.03,0,2.03,0.41,2.76,1.14l16.08,16.08c0.73,0.73,1.15,1.73,1.14,2.77c0,1.04-0.42,2.03-1.16,2.76
					L71.24-37.97z"/>
			</g>
			<g>
				<path d="M61.96-59.75l3.22-3.22l3.22,3.22l-3.22,3.22L61.96-59.75z"/>
			</g>
			<g>
				<path d="M68.39-53.32l3.22-3.22l3.22,3.22l-3.22,3.22L68.39-53.32z"/>
			</g>
			<g>
				<path d="M30.61-12.79c-3.29,0-5.97-2.68-5.97-5.97c0-3.29,2.68-5.97,5.97-5.97s5.97,2.68,5.97,5.97
					C36.58-15.47,33.9-12.79,30.61-12.79z M30.61-20.83c-1.14,0-2.07,0.93-2.07,2.07c0,1.14,0.93,2.07,2.07,2.07
					s2.07-0.93,2.07-2.07C32.68-19.9,31.75-20.83,30.61-20.83z"/>
			</g>
		</g>
	</g>
	<g id="Light-S" transform="matrix(1 0 0 1 1106.67 696)">
		<g>
			<g>
				<path d="M28.91,2.56c-5.49,0-10.65-2.14-14.53-6.03C10.49-7.35,8.35-12.51,8.35-18c0-5.49,2.14-10.66,6.02-14.54L42.53-60.7
					c1.19-1.19,2.79-1.83,4.47-1.82c1.65,0.04,3.17,0.69,4.3,1.82l20.32,20.32c1.17,1.15,1.81,2.71,1.82,4.36
					c0,1.66-0.64,3.22-1.82,4.39L43.45-3.47C39.57,0.42,34.4,2.56,28.91,2.56z M46.88-56.52c-0.04,0-0.08,0.03-0.11,0.06L18.62-28.3
					c-2.75,2.75-4.27,6.41-4.27,10.3c0,3.89,1.51,7.54,4.26,10.29c2.75,2.75,6.4,4.27,10.29,4.27c3.89,0,7.55-1.52,10.3-4.27
					l28.16-28.16c0.01-0.01,0.06-0.06,0.06-0.14c0-0.07-0.04-0.11-0.05-0.12L47.05-56.46C47-56.51,46.93-56.52,46.88-56.52
					C46.88-56.52,46.88-56.52,46.88-56.52z"/>
			</g>
			<g>
				<path d="M69.45-38.5l-4.22-4.27l12.11-11.97l-11.7-11.7L53.67-54.32l-4.27-4.22L63.5-72.8c0.56-0.57,1.33-0.89,2.12-0.89
					c0,0,0.01,0,0.01,0c0.8,0,1.56,0.32,2.12,0.88l15.97,15.97c0.56,0.56,0.88,1.33,0.88,2.13s-0.32,1.56-0.89,2.12L69.45-38.5z"/>
			</g>
			<g>
				<path d="M60.84-59.51l3.19-3.19l3.19,3.19l-3.19,3.19L60.84-59.51z"/>
			</g>
			<g>
				<path d="M67.23-53.13l3.19-3.19l3.19,3.19l-3.19,3.19L67.23-53.13z"/>
			</g>
			<g>
				<path d="M29.71-13.32c-3.03,0-5.49-2.46-5.49-5.49c0-3.03,2.46-5.49,5.49-5.49c3.03,0,5.49,2.46,5.49,5.49
					C35.2-15.78,32.74-13.32,29.71-13.32z M29.71-21.3c-1.37,0-2.49,1.12-2.49,2.49s1.12,2.49,2.49,2.49s2.49-1.12,2.49-2.49
					S31.08-21.3,29.71-21.3z"/>
			</g>
		</g>
	</g>
	<g id="Thin-S" transform="matrix(1 0 0 1 811.338 696)">
		<g>
			<g>
				<path d="M27.68,1.12C27.68,1.12,27.68,1.12,27.68,1.12c-5.14,0-9.97-2-13.59-5.64c-3.63-3.63-5.63-8.45-5.63-13.59
					s2-9.96,5.63-13.59l27.92-27.92c0.95-0.95,2.25-1.49,3.58-1.46c1.3,0.02,2.53,0.53,3.45,1.46l20.15,20.15
					c0.94,0.94,1.46,2.19,1.46,3.51s-0.52,2.57-1.46,3.51L41.26-4.51C37.63-0.88,32.81,1.12,27.68,1.12z M45.53-57.47
					c-0.37,0-0.72,0.14-0.98,0.4L16.63-29.15c-2.95,2.95-4.57,6.87-4.57,11.04s1.62,8.09,4.57,11.04c2.95,2.95,6.87,4.58,11.04,4.58
					c0,0,0,0,0,0c4.17,0,8.09-1.62,11.04-4.57l27.93-27.93c0.26-0.26,0.4-0.6,0.4-0.97c0-0.36-0.14-0.71-0.4-0.97L46.5-57.07
					c-0.33-0.33-0.7-0.4-0.95-0.4C45.54-57.47,45.54-57.47,45.53-57.47z"/>
			</g>
			<g>
				<path d="M67.06-39.26l-2.53-2.56l12.85-12.71L64.11-67.81L51.4-54.95l-2.56-2.53l13.98-14.14c0.34-0.34,0.8-0.53,1.27-0.53
					c0,0,0,0,0,0c0.48,0,0.94,0.19,1.27,0.53L81.2-55.79c0.34,0.34,0.53,0.8,0.53,1.28s-0.19,0.94-0.53,1.27L67.06-39.26z"/>
			</g>
			<g>
				<path d="M59.34-59.27l3.17-3.17l3.17,3.17l-3.17,3.17L59.34-59.27z"/>
			</g>
			<g>
				<path d="M65.68-52.94l3.17-3.17l3.17,3.17l-3.17,3.17L65.68-52.94z"/>
			</g>
			<g>
				<path d="M28.46-14.03c-2.68,0-4.86-2.18-4.86-4.86s2.18-4.86,4.86-4.86s4.86,2.18,4.86,4.86S31.14-14.03,28.46-14.03z
					 M28.46-21.95c-1.69,0-3.06,1.37-3.06,3.06s1.37,3.06,3.06,3.06s3.06-1.37,3.06-3.06S30.15-21.95,28.46-21.95z"/>
			</g>
		</g>
	</g>
	<g id="Ultralight-S" transform="matrix(1 0 0 1 515.335 696)">
		<g>
			<g>
				<path d="M27.02,0.37c-4.75,0-9.5-1.81-13.11-5.42c-7.23-7.23-7.23-18.99,0-26.22l27.8-27.8c0.85-0.84,1.95-1.31,3.14-1.27
					c1.14,0.01,2.22,0.47,3.02,1.27L67.94-39c1.7,1.7,1.7,4.46,0,6.16l-27.8,27.8C36.52-1.43,31.77,0.37,27.02,0.37z M44.8-57.93
					c-0.53,0-1.02,0.2-1.4,0.58L15.61-29.56c-6.29,6.29-6.29,16.53,0,22.82c6.29,6.29,16.54,6.28,22.83,0l27.8-27.8
					c0.37-0.37,0.57-0.86,0.57-1.38s-0.2-1.01-0.57-1.38L46.18-57.36c-0.36-0.36-0.84-0.56-1.36-0.57
					C44.82-57.93,44.81-57.93,44.8-57.93z"/>
			</g>
			<g>
				<path d="M65.81-39.64l-1.69-1.71l13.22-13.07L63.29-68.47L50.22-55.26l-1.71-1.69l13.91-14.07c0.22-0.23,0.53-0.36,0.85-0.36
					c0,0,0,0,0,0c0.32,0,0.62,0.13,0.85,0.35L79.9-55.26c0.23,0.23,0.35,0.53,0.35,0.85c0,0.32-0.13,0.63-0.36,0.85L65.81-39.64z"/>
			</g>
			<g>
				<path d="M58.56-59.14l3.15-3.15l3.15,3.15l-3.15,3.15L58.56-59.14z"/>
			</g>
			<g>
				<path d="M64.86-52.83l3.15-3.15l3.15,3.15l-3.15,3.15L64.86-52.83z"/>
			</g>
			<g>
				<path d="M27.82-14.4c-2.5,0-4.54-2.04-4.54-4.54s2.04-4.54,4.54-4.54s4.54,2.04,4.54,4.54S30.32-14.4,27.82-14.4z M27.82-22.28
					c-1.84,0-3.34,1.5-3.34,3.34s1.5,3.34,3.34,3.34s3.34-1.5,3.34-3.34S29.66-22.28,27.82-22.28z"/>
			</g>
		</g>
	</g>
</g>
</svg>
