<?xml version="1.0" encoding="UTF-8"?>
<svg xmlns="http://www.w3.org/2000/svg" xmlns:xlink="http://www.w3.org/1999/xlink" width="112.5pt" height="112.5pt" viewBox="0 0 112.5 112.5" version="1.1">
<g id="surface17093">
<path style="fill:none;stroke-width:2;stroke-linecap:round;stroke-linejoin:round;stroke:rgb(100%,100%,100%);stroke-opacity:1;stroke-miterlimit:10;" d="M 38.396345 8.060128 C 46.740723 13.823591 47.895159 26.396833 47.895159 26.396833 " transform="matrix(2.24,0,0,2.24,-0.000000000000007105,-0.000000000000007105)"/>
<path style="fill:none;stroke-width:2;stroke-linecap:round;stroke-linejoin:round;stroke:rgb(100%,100%,100%);stroke-opacity:1;stroke-miterlimit:10;" d="M 16.564941 4.495675 C 18.687221 3.57666 21.14781 2.999442 24.000767 2.999442 C 28.151158 2.999442 31.617955 3.958566 34.500558 5.458287 " transform="matrix(2.24,0,0,2.24,-0.000000000000007105,-0.000000000000007105)"/>
<path style="fill:none;stroke-width:2;stroke-linecap:round;stroke-linejoin:round;stroke:rgb(100%,100%,100%);stroke-opacity:1;stroke-miterlimit:10;" d="M 4.007394 16.805594 C 5.388532 15.729632 7.94329 10.065569 13.286482 6.333705 " transform="matrix(2.24,0,0,2.24,-0.000000000000007105,-0.000000000000007105)"/>
<path style="fill:none;stroke-width:2;stroke-linecap:round;stroke-linejoin:round;stroke:rgb(100%,100%,100%);stroke-opacity:1;stroke-miterlimit:10;" d="M 21.175711 37.791225 C 19.362095 40.539551 16.699219 43.193708 12.794713 44.899205 " transform="matrix(2.24,0,0,2.24,-0.000000000000007105,-0.000000000000007105)"/>
<path style="fill:none;stroke-width:2;stroke-linecap:round;stroke-linejoin:round;stroke:rgb(100%,100%,100%);stroke-opacity:1;stroke-miterlimit:10;" d="M 25 27.000209 C 25 27.000209 24.766323 30.470494 22.968401 34.50579 " transform="matrix(2.24,0,0,2.24,-0.000000000000007105,-0.000000000000007105)"/>
<path style="fill:none;stroke-width:2;stroke-linecap:round;stroke-linejoin:round;stroke:rgb(100%,100%,100%);stroke-opacity:1;stroke-miterlimit:10;" d="M 23.447963 22.38072 C 20.79555 23.819406 20.28111 28.984724 18.744768 31.944057 C 16.664342 35.949707 12.616839 40.000698 6.99986 40.000698 " transform="matrix(2.24,0,0,2.24,-0.000000000000007105,-0.000000000000007105)"/>
<path style="fill:none;stroke-width:2;stroke-linecap:round;stroke-linejoin:round;stroke:rgb(100%,100%,100%);stroke-opacity:1;stroke-miterlimit:10;" d="M 19.526018 47.548131 C 26.707241 42.421177 29.000419 31.586565 29.000419 28.130232 C 29.000419 25.695801 28.430176 23.549107 26.984515 22.567313 " transform="matrix(2.24,0,0,2.24,-0.000000000000007105,-0.000000000000007105)"/>
<path style="fill:none;stroke-width:2;stroke-linecap:round;stroke-linejoin:round;stroke:rgb(100%,100%,100%);stroke-opacity:1;stroke-miterlimit:10;" d="M 14.322335 28.018624 C 12.341309 31.706892 9.821429 34.999302 3.970773 34.999302 " transform="matrix(2.24,0,0,2.24,-0.000000000000007105,-0.000000000000007105)"/>
<path style="fill:none;stroke-width:2;stroke-linecap:round;stroke-linejoin:round;stroke:rgb(100%,100%,100%);stroke-opacity:1;stroke-miterlimit:10;" d="M 33.299037 24.483817 C 32.167271 21.001325 29.589844 18.00014 25 18.00014 C 20.195661 18.00014 18.040248 20.901925 16.226632 24.307687 " transform="matrix(2.24,0,0,2.24,-0.000000000000007105,-0.000000000000007105)"/>
<path style="fill:none;stroke-width:2;stroke-linecap:round;stroke-linejoin:round;stroke:rgb(100%,100%,100%);stroke-opacity:1;stroke-miterlimit:10;" d="M 27.762277 47.652762 C 27.762277 47.652762 34.00007 39.758301 34.00007 29.000419 " transform="matrix(2.24,0,0,2.24,-0.000000000000007105,-0.000000000000007105)"/>
<path style="fill:none;stroke-width:2;stroke-linecap:round;stroke-linejoin:round;stroke:rgb(100%,100%,100%);stroke-opacity:1;stroke-miterlimit:10;" d="M 14.615304 18.587821 C 10.78404 23.770578 8.947754 30.601283 2.399554 29.999651 " transform="matrix(2.24,0,0,2.24,-0.000000000000007105,-0.000000000000007105)"/>
<path style="fill:none;stroke-width:2;stroke-linecap:round;stroke-linejoin:round;stroke:rgb(100%,100%,100%);stroke-opacity:1;stroke-miterlimit:10;" d="M 27.706473 13.234166 C 26.843262 13.080706 25.939941 13.000488 25 13.000488 C 21.732003 13.000488 19.33245 14.020647 17.429897 15.563965 " transform="matrix(2.24,0,0,2.24,-0.000000000000007105,-0.000000000000007105)"/>
<path style="fill:none;stroke-width:2;stroke-linecap:round;stroke-linejoin:round;stroke:rgb(100%,100%,100%);stroke-opacity:1;stroke-miterlimit:10;" d="M 38.382394 35.154506 C 38.746861 33.152553 38.999721 31.030273 38.999721 29.000419 C 38.999721 22.167969 36.155483 16.887556 31.396484 14.4601 " transform="matrix(2.24,0,0,2.24,-0.000000000000007105,-0.000000000000007105)"/>
<path style="fill:none;stroke-width:2;stroke-linecap:round;stroke-linejoin:round;stroke:rgb(100%,100%,100%);stroke-opacity:1;stroke-miterlimit:10;" d="M 35.832868 44.49986 C 35.832868 44.49986 36.636789 42.384556 37.433733 39.36942 " transform="matrix(2.24,0,0,2.24,-0.000000000000007105,-0.000000000000007105)"/>
<path style="fill:none;stroke-width:2;stroke-linecap:round;stroke-linejoin:round;stroke:rgb(100%,100%,100%);stroke-opacity:1;stroke-miterlimit:10;" d="M 6.560407 21.404157 C 5.336217 23.074777 4.024833 24.405343 2.291434 25 " transform="matrix(2.24,0,0,2.24,-0.000000000000007105,-0.000000000000007105)"/>
<path style="fill:none;stroke-width:2;stroke-linecap:round;stroke-linejoin:round;stroke:rgb(100%,100%,100%);stroke-opacity:1;stroke-miterlimit:10;" d="M 20.931571 8.377511 C 14.388602 9.676688 11.32115 14.10784 8.74721 18.113491 " transform="matrix(2.24,0,0,2.24,-0.000000000000007105,-0.000000000000007105)"/>
<path style="fill:none;stroke-width:2;stroke-linecap:round;stroke-linejoin:round;stroke:rgb(100%,100%,100%);stroke-opacity:1;stroke-miterlimit:10;" d="M 42.166574 38.24986 C 44.072614 32.378278 46.06236 9.230259 25 8.000837 " transform="matrix(2.24,0,0,2.24,-0.000000000000007105,-0.000000000000007105)"/>
</g>
</svg>
