<?xml version="1.0" encoding="UTF-8"?>
<!--Generator: Apple Native CoreSVG 175-->
<!DOCTYPE svg
PUBLIC "-//W3C//DTD SVG 1.1//EN"
       "http://www.w3.org/Graphics/SVG/1.1/DTD/svg11.dtd">
<svg version="1.1" xmlns="http://www.w3.org/2000/svg" xmlns:xlink="http://www.w3.org/1999/xlink" width="3300" height="2200">
 <!--glyph: "uni100E13.medium", point size: 100.0, font version: "17.1d1e1", template writer version: "65.1"-->
 <g id="Notes">
  <rect height="2200" id="artboard" style="fill:white;opacity:1" width="3300" x="0" y="0"/>
  <line style="fill:none;stroke:black;opacity:1;stroke-width:0.5;" x1="263" x2="3036" y1="292" y2="292"/>
  <text style="stroke:none;fill:black;font-family:sans-serif;font-size:13;font-weight:bold;" transform="matrix(1 0 0 1 263 322)">Weight/Scale Variations</text>
  <text style="stroke:none;fill:black;font-family:sans-serif;font-size:13;text-anchor:middle;" transform="matrix(1 0 0 1 559.711 322)">Ultralight</text>
  <text style="stroke:none;fill:black;font-family:sans-serif;font-size:13;text-anchor:middle;" transform="matrix(1 0 0 1 856.422 322)">Thin</text>
  <text style="stroke:none;fill:black;font-family:sans-serif;font-size:13;text-anchor:middle;" transform="matrix(1 0 0 1 1153.13 322)">Light</text>
  <text style="stroke:none;fill:black;font-family:sans-serif;font-size:13;text-anchor:middle;" transform="matrix(1 0 0 1 1449.84 322)">Regular</text>
  <text style="stroke:none;fill:black;font-family:sans-serif;font-size:13;text-anchor:middle;" transform="matrix(1 0 0 1 1746.56 322)">Medium</text>
  <text style="stroke:none;fill:black;font-family:sans-serif;font-size:13;text-anchor:middle;" transform="matrix(1 0 0 1 2043.27 322)">Semibold</text>
  <text style="stroke:none;fill:black;font-family:sans-serif;font-size:13;text-anchor:middle;" transform="matrix(1 0 0 1 2339.98 322)">Bold</text>
  <text style="stroke:none;fill:black;font-family:sans-serif;font-size:13;text-anchor:middle;" transform="matrix(1 0 0 1 2636.69 322)">Heavy</text>
  <text style="stroke:none;fill:black;font-family:sans-serif;font-size:13;text-anchor:middle;" transform="matrix(1 0 0 1 2933.4 322)">Black</text>
  <line style="fill:none;stroke:black;opacity:1;stroke-width:0.5;" x1="263" x2="3036" y1="1903" y2="1903"/>
  <g transform="matrix(1 0 0 1 263 1933)">
   <path d="M9.24805 0.830078Q10.8691 0.830078 12.2949 0.214844Q13.7207-0.400391 14.8096-1.49414Q15.8984-2.58789 16.5186-4.01367Q17.1387-5.43945 17.1387-7.05078Q17.1387-8.66211 16.5186-10.0879Q15.8984-11.5137 14.8047-12.6074Q13.7109-13.7012 12.2852-14.3164Q10.8594-14.9316 9.23828-14.9316Q7.62695-14.9316 6.20117-14.3164Q4.77539-13.7012 3.69141-12.6074Q2.60742-11.5137 1.9873-10.0879Q1.36719-8.66211 1.36719-7.05078Q1.36719-5.43945 1.9873-4.01367Q2.60742-2.58789 3.69629-1.49414Q4.78516-0.400391 6.21094 0.214844Q7.63672 0.830078 9.24805 0.830078ZM9.24805-0.654297Q7.91992-0.654297 6.7627-1.14746Q5.60547-1.64062 4.73145-2.51953Q3.85742-3.39844 3.36426-4.56055Q2.87109-5.72266 2.87109-7.05078Q2.87109-8.37891 3.35938-9.54102Q3.84766-10.7031 4.72168-11.582Q5.5957-12.4609 6.75293-12.9541Q7.91016-13.4473 9.23828-13.4473Q10.5762-13.4473 11.7334-12.9541Q12.8906-12.4609 13.7695-11.582Q14.6484-10.7031 15.1465-9.54102Q15.6445-8.37891 15.6445-7.05078Q15.6445-5.72266 15.1514-4.56055Q14.6582-3.39844 13.7842-2.51953Q12.9102-1.64062 11.748-1.14746Q10.5859-0.654297 9.24805-0.654297ZM5.6543-7.05078Q5.6543-6.72852 5.85938-6.52832Q6.06445-6.32812 6.40625-6.32812L8.51562-6.32812L8.51562-4.20898Q8.51562-3.88672 8.71094-3.67676Q8.90625-3.4668 9.23828-3.4668Q9.56055-3.4668 9.77051-3.67676Q9.98047-3.88672 9.98047-4.20898L9.98047-6.32812L12.0898-6.32812Q12.4219-6.32812 12.627-6.52832Q12.832-6.72852 12.832-7.05078Q12.832-7.38281 12.627-7.58789Q12.4219-7.79297 12.0898-7.79297L9.98047-7.79297L9.98047-9.90234Q9.98047-10.2344 9.77051-10.4443Q9.56055-10.6543 9.23828-10.6543Q8.90625-10.6543 8.71094-10.4443Q8.51562-10.2344 8.51562-9.90234L8.51562-7.79297L6.40625-7.79297Q6.06445-7.79297 5.85938-7.58789Q5.6543-7.38281 5.6543-7.05078Z"/>
  </g>
  <g transform="matrix(1 0 0 1 281.867 1933)">
   <path d="M11.709 2.91016Q13.75 2.91016 15.5518 2.12891Q17.3535 1.34766 18.7305-0.0292969Q20.1074-1.40625 20.8887-3.20801Q21.6699-5.00977 21.6699-7.05078Q21.6699-9.0918 20.8887-10.8936Q20.1074-12.6953 18.7305-14.0723Q17.3535-15.4492 15.5469-16.2305Q13.7402-17.0117 11.6992-17.0117Q9.6582-17.0117 7.85645-16.2305Q6.05469-15.4492 4.68262-14.0723Q3.31055-12.6953 2.5293-10.8936Q1.74805-9.0918 1.74805-7.05078Q1.74805-5.00977 2.5293-3.20801Q3.31055-1.40625 4.6875-0.0292969Q6.06445 1.34766 7.86621 2.12891Q9.66797 2.91016 11.709 2.91016ZM11.709 1.25Q9.98047 1.25 8.47656 0.605469Q6.97266-0.0390625 5.83496-1.17676Q4.69727-2.31445 4.05762-3.81836Q3.41797-5.32227 3.41797-7.05078Q3.41797-8.7793 4.05762-10.2832Q4.69727-11.7871 5.83008-12.9297Q6.96289-14.0723 8.4668-14.7119Q9.9707-15.3516 11.6992-15.3516Q13.4277-15.3516 14.9316-14.7119Q16.4355-14.0723 17.5781-12.9297Q18.7207-11.7871 19.3652-10.2832Q20.0098-8.7793 20.0098-7.05078Q20.0098-5.32227 19.3701-3.81836Q18.7305-2.31445 17.5928-1.17676Q16.4551-0.0390625 14.9463 0.605469Q13.4375 1.25 11.709 1.25ZM7.17773-7.05078Q7.17773-6.69922 7.41211-6.47461Q7.64648-6.25 8.01758-6.25L10.8887-6.25L10.8887-3.36914Q10.8887-2.99805 11.1133-2.76855Q11.3379-2.53906 11.6895-2.53906Q12.0605-2.53906 12.29-2.76855Q12.5195-2.99805 12.5195-3.36914L12.5195-6.25L15.4004-6.25Q15.7715-6.25 16.001-6.47461Q16.2305-6.69922 16.2305-7.05078Q16.2305-7.42188 16.001-7.65137Q15.7715-7.88086 15.4004-7.88086L12.5195-7.88086L12.5195-10.752Q12.5195-11.1328 12.29-11.3623Q12.0605-11.5918 11.6895-11.5918Q11.3379-11.5918 11.1133-11.3574Q10.8887-11.123 10.8887-10.752L10.8887-7.88086L8.01758-7.88086Q7.63672-7.88086 7.40723-7.65137Q7.17773-7.42188 7.17773-7.05078Z"/>
  </g>
  <g transform="matrix(1 0 0 1 305.646 1933)">
   <path d="M14.9707 5.66406Q17.0605 5.66406 18.96 5.01465Q20.8594 4.36523 22.4512 3.19336Q24.043 2.02148 25.2197 0.429688Q26.3965-1.16211 27.0459-3.06641Q27.6953-4.9707 27.6953-7.05078Q27.6953-9.14062 27.0459-11.04Q26.3965-12.9395 25.2197-14.5312Q24.043-16.123 22.4512-17.2998Q20.8594-18.4766 18.9551-19.126Q17.0508-19.7754 14.9609-19.7754Q12.8711-19.7754 10.9717-19.126Q9.07227-18.4766 7.48535-17.2998Q5.89844-16.123 4.72168-14.5312Q3.54492-12.9395 2.90039-11.04Q2.25586-9.14062 2.25586-7.05078Q2.25586-4.9707 2.90527-3.06641Q3.55469-1.16211 4.72656 0.429688Q5.89844 2.02148 7.49023 3.19336Q9.08203 4.36523 10.9814 5.01465Q12.8809 5.66406 14.9707 5.66406ZM14.9707 3.84766Q13.1641 3.84766 11.5283 3.2959Q9.89258 2.74414 8.53516 1.74805Q7.17773 0.751953 6.17676-0.610352Q5.17578-1.97266 4.62891-3.6084Q4.08203-5.24414 4.08203-7.05078Q4.08203-8.86719 4.62891-10.5029Q5.17578-12.1387 6.17188-13.501Q7.16797-14.8633 8.52539-15.8594Q9.88281-16.8555 11.5186-17.4023Q13.1543-17.9492 14.9609-17.9492Q16.7773-17.9492 18.4131-17.4023Q20.0488-16.8555 21.4111-15.8594Q22.7734-14.8633 23.7695-13.501Q24.7656-12.1387 25.3174-10.5029Q25.8691-8.86719 25.8691-7.05078Q25.8789-5.24414 25.332-3.6084Q24.7852-1.97266 23.7842-0.610352Q22.7832 0.751953 21.4209 1.74805Q20.0586 2.74414 18.4229 3.2959Q16.7871 3.84766 14.9707 3.84766ZM9.19922-7.05078Q9.19922-6.66992 9.45801-6.4209Q9.7168-6.17188 10.1172-6.17188L14.0625-6.17188L14.0625-2.2168Q14.0625-1.81641 14.3115-1.55762Q14.5605-1.29883 14.9512-1.29883Q15.3516-1.29883 15.6104-1.55273Q15.8691-1.80664 15.8691-2.2168L15.8691-6.17188L19.8242-6.17188Q20.2246-6.17188 20.4785-6.4209Q20.7324-6.66992 20.7324-7.05078Q20.7324-7.46094 20.4785-7.71484Q20.2246-7.96875 19.8242-7.96875L15.8691-7.96875L15.8691-11.9141Q15.8691-12.3242 15.6104-12.583Q15.3516-12.8418 14.9512-12.8418Q14.5605-12.8418 14.3115-12.583Q14.0625-12.3242 14.0625-11.9141L14.0625-7.96875L10.1172-7.96875Q9.70703-7.96875 9.45312-7.71484Q9.19922-7.46094 9.19922-7.05078Z"/>
  </g>
  <text style="stroke:none;fill:black;font-family:sans-serif;font-size:13;font-weight:bold;" transform="matrix(1 0 0 1 263 1953)">Design Variations</text>
  <text style="stroke:none;fill:black;font-family:sans-serif;font-size:13;" transform="matrix(1 0 0 1 263 1971)">Symbols are supported in up to nine weights and three scales.</text>
  <text style="stroke:none;fill:black;font-family:sans-serif;font-size:13;" transform="matrix(1 0 0 1 263 1989)">For optimal layout with text and other symbols, vertically align</text>
  <text style="stroke:none;fill:black;font-family:sans-serif;font-size:13;" transform="matrix(1 0 0 1 263 2007)">symbols with the adjacent text.</text>
  <line style="fill:none;stroke:#00AEEF;stroke-width:0.5;opacity:1.0;" x1="776" x2="776" y1="1919" y2="1933"/>
  <g transform="matrix(1 0 0 1 776 1933)">
   <path d="M3.31055 0.15625Q3.70117 0.15625 3.91602-0.00976562Q4.13086-0.175781 4.26758-0.585938L5.52734-4.0332L11.2891-4.0332L12.5488-0.585938Q12.6855-0.175781 12.9004-0.00976562Q13.1152 0.15625 13.4961 0.15625Q13.8867 0.15625 14.1162-0.0585938Q14.3457-0.273438 14.3457-0.644531Q14.3457-0.869141 14.2383-1.17188L9.6582-13.3691Q9.48242-13.8184 9.17969-14.043Q8.87695-14.2676 8.4082-14.2676Q7.5-14.2676 7.17773-13.3789L2.59766-1.16211Q2.49023-0.859375 2.49023-0.634766Q2.49023-0.263672 2.70996-0.0537109Q2.92969 0.15625 3.31055 0.15625ZM6.00586-5.51758L8.37891-12.0898L8.42773-12.0898L10.8008-5.51758Z"/>
  </g>
  <line style="fill:none;stroke:#00AEEF;stroke-width:0.5;opacity:1.0;" x1="793.197" x2="793.197" y1="1919" y2="1933"/>
  <text style="stroke:none;fill:black;font-family:sans-serif;font-size:13;font-weight:bold;" transform="matrix(1 0 0 1 776 1953)">Margins</text>
  <text style="stroke:none;fill:black;font-family:sans-serif;font-size:13;" transform="matrix(1 0 0 1 776 1971)">Leading and trailing margins on the left and right side of each symbol</text>
  <text style="stroke:none;fill:black;font-family:sans-serif;font-size:13;" transform="matrix(1 0 0 1 776 1989)">can be adjusted by modifying the x-location of the margin guidelines.</text>
  <text style="stroke:none;fill:black;font-family:sans-serif;font-size:13;" transform="matrix(1 0 0 1 776 2007)">Modifications are automatically applied proportionally to all</text>
  <text style="stroke:none;fill:black;font-family:sans-serif;font-size:13;" transform="matrix(1 0 0 1 776 2025)">scales and weights.</text>
  <g transform="matrix(1 0 0 1 1289 1933)">
   <path d="M2.8418 1.86523L4.54102 3.57422Q5.18555 4.22852 5.90332 4.17969Q6.62109 4.13086 7.31445 3.35938L18.0078-8.42773L17.041-9.4043L6.42578 2.27539Q6.16211 2.57812 5.89355 2.61719Q5.625 2.65625 5.27344 2.30469L4.10156 1.14258Q3.75 0.791016 3.79395 0.522461Q3.83789 0.253906 4.14062-0.0195312L15.6152-10.8203L14.6387-11.7871L3.04688-0.898438Q2.30469-0.214844 2.25098 0.498047Q2.19727 1.21094 2.8418 1.86523ZM9.25781-16.3281Q8.94531-16.0254 8.90625-15.6348Q8.86719-15.2441 9.04297-14.9512Q9.21875-14.6777 9.55566-14.541Q9.89258-14.4043 10.3809-14.5215Q11.4746-14.7754 12.5977-14.7314Q13.7207-14.6875 14.7949-13.9844L14.209-12.5293Q13.9551-11.9043 14.0674-11.4404Q14.1797-10.9766 14.5801-10.5664L16.875-8.25195Q17.2363-7.88086 17.5781-7.82227Q17.9199-7.76367 18.3398-7.8418L19.4043-8.03711L20.0684-7.36328L20.0293-6.80664Q20-6.43555 20.1221-6.12305Q20.2441-5.81055 20.6055-5.44922L21.3672-4.70703Q21.7285-4.3457 22.1533-4.33105Q22.5781-4.31641 22.9297-4.66797L25.8398-7.58789Q26.1914-7.93945 26.1816-8.35449Q26.1719-8.76953 25.8105-9.13086L25.0391-9.89258Q24.6875-10.2539 24.3799-10.3857Q24.0723-10.5176 23.7109-10.4883L23.1348-10.4395L22.4902-11.0742L22.7344-12.1973Q22.832-12.6172 22.6953-12.9834Q22.5586-13.3496 22.1191-13.7891L19.9219-15.9766Q18.6719-17.2168 17.2607-17.8369Q15.8496-18.457 14.4189-18.4814Q12.9883-18.5059 11.665-17.959Q10.3418-17.4121 9.25781-16.3281ZM10.752-15.957Q11.6602-16.6211 12.7002-16.9043Q13.7402-17.1875 14.8047-17.085Q15.8691-16.9824 16.8701-16.5137Q17.8711-16.0449 18.7012-15.2051L21.1328-12.793Q21.3086-12.6172 21.3525-12.4512Q21.3965-12.2852 21.3379-12.0312L21.0156-10.5469L22.5195-9.0625L23.5059-9.12109Q23.6914-9.13086 23.7891-9.09668Q23.8867-9.0625 24.0332-8.91602L24.6094-8.33984L22.168-5.89844L21.5918-6.47461Q21.4453-6.62109 21.4062-6.71875Q21.3672-6.81641 21.377-7.01172L21.4453-7.98828L19.9512-9.47266L18.4277-9.21875Q18.1836-9.16992 18.042-9.2041Q17.9004-9.23828 17.7148-9.41406L15.7129-11.416Q15.5176-11.5918 15.4932-11.7529Q15.4688-11.9141 15.5859-12.1875L16.4648-14.2773Q15.293-15.3711 13.8281-15.791Q12.3633-16.2109 10.8398-15.7617Q10.7227-15.7324 10.6885-15.8057Q10.6543-15.8789 10.752-15.957Z"/>
  </g>
  <text style="stroke:none;fill:black;font-family:sans-serif;font-size:13;font-weight:bold;" transform="matrix(1 0 0 1 1289 1953)">Exporting</text>
  <text style="stroke:none;fill:black;font-family:sans-serif;font-size:13;" transform="matrix(1 0 0 1 1289 1971)">Symbols should be outlined when exporting to ensure the</text>
  <text style="stroke:none;fill:black;font-family:sans-serif;font-size:13;" transform="matrix(1 0 0 1 1289 1989)">design is preserved when submitting to Xcode.</text>
  <text id="template-version" style="stroke:none;fill:black;font-family:sans-serif;font-size:13;text-anchor:end;" transform="matrix(1 0 0 1 3036 1933)">Template v.2.0</text>
  <text style="stroke:none;fill:black;font-family:sans-serif;font-size:13;text-anchor:end;" transform="matrix(1 0 0 1 3036 1951)">Requires Xcode 12 or greater</text>
  <text id="descriptive-name" style="stroke:none;fill:black;font-family:sans-serif;font-size:13;text-anchor:end;" transform="matrix(1 0 0 1 3036 1969)">Generated from asterisk</text>
  <text style="stroke:none;fill:black;font-family:sans-serif;font-size:13;text-anchor:end;" transform="matrix(1 0 0 1 3036 1987)">Typeset at 100 points</text>
  <text style="stroke:none;fill:black;font-family:sans-serif;font-size:13;" transform="matrix(1 0 0 1 263 726)">Small</text>
  <text style="stroke:none;fill:black;font-family:sans-serif;font-size:13;" transform="matrix(1 0 0 1 263 1156)">Medium</text>
  <text style="stroke:none;fill:black;font-family:sans-serif;font-size:13;" transform="matrix(1 0 0 1 263 1586)">Large</text>
 </g>
 <g id="Guides">
  <g id="H-reference" style="fill:#27AAE1;stroke:none;" transform="matrix(1 0 0 1 339 696)">
   <path d="M0.993347 0L3.6377 0L29.3282-67.1326L30.0301-67.1326L30.0301-70.459L28.1227-70.459ZM11.6882-24.4797L46.9818-24.4797L46.2311-26.7288L12.4382-26.7288ZM55.1193 0L57.7637 0L30.6381-70.459L29.4327-70.459L29.4327-67.1326Z"/>
  </g>
  <line id="Baseline-S" style="fill:none;stroke:#27AAE1;opacity:1;stroke-width:0.5;" x1="263" x2="3036" y1="696" y2="696"/>
  <line id="Capline-S" style="fill:none;stroke:#27AAE1;opacity:1;stroke-width:0.5;" x1="263" x2="3036" y1="625.541" y2="625.541"/>
  <g id="H-reference" style="fill:#27AAE1;stroke:none;" transform="matrix(1 0 0 1 339 1126)">
   <path d="M0.993347 0L3.6377 0L29.3282-67.1326L30.0301-67.1326L30.0301-70.459L28.1227-70.459ZM11.6882-24.4797L46.9818-24.4797L46.2311-26.7288L12.4382-26.7288ZM55.1193 0L57.7637 0L30.6381-70.459L29.4327-70.459L29.4327-67.1326Z"/>
  </g>
  <line id="Baseline-M" style="fill:none;stroke:#27AAE1;opacity:1;stroke-width:0.5;" x1="263" x2="3036" y1="1126" y2="1126"/>
  <line id="Capline-M" style="fill:none;stroke:#27AAE1;opacity:1;stroke-width:0.5;" x1="263" x2="3036" y1="1055.54" y2="1055.54"/>
  <g id="H-reference" style="fill:#27AAE1;stroke:none;" transform="matrix(1 0 0 1 339 1556)">
   <path d="M0.993347 0L3.6377 0L29.3282-67.1326L30.0301-67.1326L30.0301-70.459L28.1227-70.459ZM11.6882-24.4797L46.9818-24.4797L46.2311-26.7288L12.4382-26.7288ZM55.1193 0L57.7637 0L30.6381-70.459L29.4327-70.459L29.4327-67.1326Z"/>
  </g>
  <line id="Baseline-L" style="fill:none;stroke:#27AAE1;opacity:1;stroke-width:0.5;" x1="263" x2="3036" y1="1556" y2="1556"/>
  <line id="Capline-L" style="fill:none;stroke:#27AAE1;opacity:1;stroke-width:0.5;" x1="263" x2="3036" y1="1485.54" y2="1485.54"/>
  <line id="left-margin" style="fill:none;stroke:#00AEEF;stroke-width:0.5;opacity:1.0;" x1="1393.9" x2="1393.9" y1="1030.79" y2="1150.12"/>
  <line id="right-margin" style="fill:none;stroke:#00AEEF;stroke-width:0.5;opacity:1.0;" x1="1505.79" x2="1505.79" y1="1030.79" y2="1150.12"/>
 </g>
 <g id="Symbols">
  <g id="Black-L" transform="matrix(1 0 0 1 2857.25 1556)">
   <path d="M76.1627 32.1162Q82.5784 32.1162 86.0549 28.7169Q89.5315 25.3176 89.4147 19.0742Q89.4147 18.36 89.3458 17.3531Q89.277 16.3463 89.1602 15.1272L86.2029-18.3387L111.564-0.263648Q117.205 4.0511 123.453 4.0511Q128.989 4.0511 132.603 0.328515Q136.217-3.39407 136.217-9.08693Q136.217-13.537 133.917-16.8889Q131.618-20.2408 127.263-22.0792L97.3615-35.2489L127.263-48.4185Q131.619-50.257 133.918-53.6095Q136.217-56.9619 136.217-61.4084Q136.217-67.1013 132.603-70.8251Q128.99-74.5489 123.453-74.5489Q117.205-74.5489 111.564-70.2341L86.2029-52.1591L89.1602-85.625Q89.277-86.8441 89.3458-87.8509Q89.4147-88.8578 89.4147-89.572Q89.5315-95.8153 86.0549-99.2147Q82.5784-102.614 76.1627-102.614Q69.7273-102.614 66.2904-99.2147Q62.8534-95.8153 62.9119-89.572Q62.9119-88.8578 62.9807-87.8509Q63.0495-86.8441 63.1663-85.625L66.1236-52.1591L40.7362-70.2341Q35.1167-74.5489 28.8675-74.5489Q23.3331-74.5489 19.7086-70.8263Q16.084-67.1037 16.084-61.4108Q16.084-56.9619 18.394-53.6095Q20.7041-50.257 25.0403-48.4185L54.9626-35.2489L25.0403-22.0792Q20.7041-20.2408 18.394-16.8883Q16.084-13.5359 16.084-9.08693Q16.084-3.39407 19.7086 0.328515Q23.3331 4.0511 28.8675 4.0511Q35.1167 4.0511 40.7362-0.263648L66.1236-18.3387L63.1663 15.1272Q63.0495 16.3463 62.9807 17.3531Q62.9119 18.36 62.9119 19.0742Q62.8534 25.3176 66.2904 28.7169Q69.7273 32.1162 76.1627 32.1162Z"/>
  </g>
  <g id="Heavy-L" transform="matrix(1 0 0 1 2561.45 1556)">
   <path d="M75.264 31.5952Q80.8316 31.5952 83.8705 28.6082Q86.9094 25.6211 86.8202 20.1471Q86.8202 19.4682 86.7604 18.5634Q86.7007 17.6587 86.6115 16.6083L84.1664-20.204L113.098-0.662882Q117.908 2.92843 123.228 2.92843Q128.08 2.92843 131.239-0.327012Q134.397-3.58245 134.397-8.57879Q134.397-12.4542 132.433-15.3266Q130.469-18.199 126.624-19.8747L93.8092-35.2396L126.624-50.6044Q130.475-52.2801 132.436-55.1552Q134.397-58.0304 134.397-61.889Q134.397-66.8854 131.242-70.1464Q128.086-73.4075 123.228-73.4075Q117.908-73.4075 113.098-69.8162L84.1664-50.275L86.6115-87.0873Q86.7007-88.1377 86.7604-89.0425Q86.8202-89.9473 86.8202-90.6262Q86.9094-96.1001 83.8705-99.0872Q80.8316-102.074 75.264-102.074Q69.672-102.074 66.6704-99.0872Q63.6689-96.1001 63.7135-90.6262Q63.7135-89.9473 63.7732-89.0425Q63.833-88.1377 63.9222-87.0873L66.3672-50.275L37.3771-69.8162Q32.6036-73.4075 27.2776-73.4075Q22.4309-73.4075 19.2574-70.152Q16.084-66.8966 16.084-61.9002Q16.084-58.0304 18.0629-55.1552Q20.0418-52.2801 23.8683-50.6044L56.7134-35.2396L23.8683-19.8747Q20.0418-18.199 18.0629-15.3238Q16.084-12.4487 16.084-8.57879Q16.084-3.58245 19.2574-0.327012Q22.4309 2.92843 27.2776 2.92843Q32.6036 2.92843 37.3771-0.662882L66.3672-20.204L63.9222 16.6083Q63.833 17.6587 63.7732 18.5634Q63.7135 19.4682 63.7135 20.1471Q63.6689 25.6211 66.6704 28.6082Q69.672 31.5952 75.264 31.5952Z"/>
  </g>
  <g id="Bold-L" transform="matrix(1 0 0 1 2265.72 1556)">
   <path d="M74.299 31.0392Q78.8213 31.0392 81.3185 28.5668Q83.8157 26.0945 83.7573 21.5882Q83.7573 20.9703 83.7091 20.1997Q83.6608 19.4292 83.6024 18.5863L81.7653-22.5689L115.227-1.11753Q119.044 1.62704 123.249 1.62704Q127.249 1.62704 129.843-1.04826Q132.436-3.72357 132.436-7.84442Q132.436-11.0127 130.876-13.3045Q129.316-15.5964 126.123-17.0498L89.5703-35.2318L126.123-53.4136Q129.329-54.8671 130.883-57.1654Q132.436-59.4638 132.436-62.5925Q132.436-66.7134 129.849-69.4019Q127.262-72.0905 123.249-72.0905Q119.044-72.0905 115.227-69.3459L81.7653-47.8945L83.6024-89.0497Q83.6608-89.8926 83.7091-90.6632Q83.7573-91.4337 83.7573-92.0517Q83.8157-96.5579 81.3185-99.0303Q78.8213-101.503 74.299-101.503Q69.7519-101.503 67.2882-99.0303Q64.8246-96.5579 64.8538-92.0517Q64.8538-91.4337 64.902-90.6632Q64.9503-89.8926 65.0087-89.0497L66.8458-47.8945L33.2796-69.3459Q29.5139-72.0905 25.2956-72.0905Q21.3091-72.0905 18.6965-69.4152Q16.084-66.7399 16.084-62.619Q16.084-59.4638 17.663-57.1654Q19.2421-54.8671 22.4235-53.4136L59.0145-35.2318L22.4235-17.0498Q19.2421-15.5964 17.663-13.298Q16.084-10.9996 16.084-7.84442Q16.084-3.72357 18.6965-1.04826Q21.3091 1.62704 25.2956 1.62704Q29.5139 1.62704 33.2796-1.11753L66.8458-22.5689L65.0087 18.5863Q64.9503 19.4292 64.902 20.1997Q64.8538 20.9703 64.8538 21.5882Q64.8246 26.0945 67.2882 28.5668Q69.7519 31.0392 74.299 31.0392Z"/>
  </g>
  <g id="Semibold-L" transform="matrix(1 0 0 1 1969.68 1556)">
   <path d="M73.6337 30.6559Q77.4354 30.6559 79.5592 28.5383Q81.6829 26.4208 81.6458 22.5818Q81.6458 22.0058 81.6054 21.3278Q81.5651 20.6498 81.528 19.9498L80.1099-24.1993L116.695-1.43096Q119.828 0.729878 123.264 0.729878Q126.676 0.729878 128.88-1.54549Q131.085-3.82085 131.085-7.33815Q131.085-10.0189 129.803-11.9105Q128.521-13.8021 125.778-15.1024L86.6481-35.2265L125.778-55.3502Q128.54-56.6505 129.812-58.5513Q131.085-60.452 131.085-63.0776Q131.085-66.5949 128.889-68.8887Q126.694-71.1825 123.264-71.1825Q119.828-71.1825 116.695-69.0217L80.1099-46.2533L81.528-90.4025Q81.5651-91.1024 81.6054-91.7804Q81.6458-92.4584 81.6458-93.0344Q81.6829-96.8735 79.5592-98.991Q77.4354-101.109 73.6337-101.109Q69.8071-101.109 67.7142-98.991Q65.6213-96.8735 65.6399-93.0344Q65.6399-92.4584 65.6802-91.7804Q65.7205-91.1024 65.7577-90.4025L67.1757-46.2533L30.4548-69.0217Q27.3839-71.1825 23.9292-71.1825Q20.5358-71.1825 18.3099-68.9072Q16.084-66.6318 16.084-63.1145Q16.084-60.452 17.3874-58.5513Q18.6908-56.6505 21.4275-55.3502L60.6009-35.2265L21.4275-15.1024Q18.6908-13.8021 17.3874-11.9014Q16.084-10.0006 16.084-7.33815Q16.084-3.82085 18.3099-1.54549Q20.5358 0.729878 23.9292 0.729878Q27.3839 0.729878 30.4548-1.43096L67.1757-24.1993L65.7577 19.9498Q65.7205 20.6498 65.6802 21.3278Q65.6399 22.0058 65.6399 22.5818Q65.6213 26.4208 67.7142 28.5383Q69.8071 30.6559 73.6337 30.6559Z"/>
  </g>
  <g id="Medium-L" transform="matrix(1 0 0 1 1673.48 1556)">
   <path d="M73.1292 30.3652Q76.3845 30.3652 78.2252 28.5167Q80.0658 26.6683 80.0447 23.3351Q80.0447 22.7909 80.0104 22.1831Q79.9761 21.5753 79.955 20.9838L78.8548-25.4356L117.808-1.66862Q120.422 0.0496094 123.275 0.0496094Q126.241 0.0496094 128.151-1.9225Q130.06-3.89461 130.06-6.95428Q130.06-9.26543 128.989-10.8536Q127.918-12.4417 125.516-13.6258L84.4324-35.2224L125.516-56.8187Q127.941-58.0028 129-59.6021Q130.06-61.2013 130.06-63.4453Q130.06-66.505 128.162-68.4995Q126.264-70.4941 123.275-70.4941Q120.422-70.4941 117.808-68.7759L78.8548-45.0089L79.955-91.4283Q79.9761-92.0198 80.0104-92.6276Q80.0447-93.2354 80.0447-93.7796Q80.0658-97.1128 78.2252-98.9612Q76.3845-100.81 73.1292-100.81Q69.8489-100.81 68.0371-98.9612Q66.2254-97.1128 66.2359-93.7796Q66.2359-93.2354 66.2703-92.6276Q66.3046-92.0198 66.3256-91.4283L67.4259-45.0089L28.3129-68.7759Q25.7689-70.4941 22.8931-70.4941Q19.9494-70.4941 18.0167-68.522Q16.084-66.5499 16.084-63.4902Q16.084-61.2013 17.1784-59.6021Q18.2728-58.0028 20.6723-56.8187L61.8038-35.2224L20.6723-13.6258Q18.2728-12.4417 17.1784-10.8424Q16.084-9.24316 16.084-6.95428Q16.084-3.89461 18.0167-1.9225Q19.9494 0.0496094 22.8931 0.0496094Q25.7689 0.0496094 28.3129-1.66862L67.4259-25.4356L66.3256 20.9838Q66.3046 21.5753 66.2703 22.1831Q66.2359 22.7909 66.2359 23.3351Q66.2254 26.6683 68.0371 28.5167Q69.8489 30.3652 73.1292 30.3652Z"/>
  </g>
  <g id="Regular-L" transform="matrix(1 0 0 1 1377.44 1556)">
   <path d="M72.4712 29.9861Q75.0139 29.9861 76.4851 28.4885Q77.9564 26.991 77.9564 24.3177Q77.9564 23.8151 77.9299 23.2988Q77.9034 22.7824 77.9034 22.3324L77.2176-27.048L119.26-1.97861Q121.197-0.837697 123.29-0.837697Q125.675-0.837697 127.199-2.41426Q128.723-3.99083 128.723-6.45357Q128.723-8.28258 127.927-9.47489Q127.132-10.6672 125.175-11.6998L81.5423-35.2172L125.175-58.734Q127.16-59.7667 127.941-60.9727Q128.723-62.1787 128.723-63.925Q128.723-66.3877 127.212-67.9919Q125.702-69.5962 123.29-69.5962Q121.197-69.5962 119.26-68.4552L77.2176-43.3858L77.9034-92.7662Q77.9034-93.2163 77.9299-93.7326Q77.9564-94.2489 77.9564-94.7515Q77.9564-97.4249 76.4851-98.9224Q75.0139-100.42 72.4712-100.42Q69.9034-100.42 68.4584-98.9224Q67.0134-97.4249 67.0134-94.7515Q67.0134-94.2489 67.0399-93.7326Q67.0664-93.2163 67.0664-92.7662L67.7522-43.3858L25.5192-68.4552Q23.6623-69.5962 21.5418-69.5962Q19.1846-69.5962 17.6343-68.0196Q16.084-66.443 16.084-63.9803Q16.084-62.1787 16.9057-60.9727Q17.7275-59.7667 19.6872-58.734L63.3727-35.2172L19.6872-11.6998Q17.7275-10.6672 16.9057-9.46118Q16.084-8.25517 16.084-6.45357Q16.084-3.99083 17.6343-2.41426Q19.1846-0.837697 21.5418-0.837697Q23.6623-0.837697 25.5192-1.97861L67.7522-27.048L67.0664 22.3324Q67.0664 22.7824 67.0399 23.2988Q67.0134 23.8151 67.0134 24.3177Q67.0134 26.991 68.4584 28.4885Q69.9034 29.9861 72.4712 29.9861Z"/>
  </g>
  <g id="Light-L" transform="matrix(1 0 0 1 1080.46 1556)">
   <path d="M72.7575 30.1769Q74.6131 30.1769 75.7122 29.0611Q76.8113 27.9453 76.8113 26.0354Q76.8113 25.6854 76.7943 25.3123Q76.7773 24.9392 76.7773 24.6225L76.3396-29.0329L122.199-2.03601Q123.697-1.1622 125.237-1.1622Q126.992-1.1622 128.124-2.32833Q129.257-3.49445 129.257-5.27035Q129.257-6.64115 128.662-7.51857Q128.067-8.39599 126.702-9.14226L79.653-35.2364L126.702-61.3298Q128.114-62.076 128.686-62.9766Q129.257-63.8772 129.257-65.1082Q129.257-66.8841 128.148-68.097Q127.038-69.3098 125.237-69.3098Q123.697-69.3098 122.199-68.436L76.3396-41.4391L76.7773-95.0945Q76.7773-95.4112 76.7943-95.7843Q76.8113-96.1575 76.8113-96.5074Q76.8113-98.4173 75.7122-99.5331Q74.6131-100.649 72.7575-100.649Q70.915-100.649 69.8326-99.5331Q68.7501-98.4173 68.7501-96.5074Q68.7501-96.1575 68.7671-95.7843Q68.7842-95.4112 68.7842-95.0945L69.2218-41.4391L23.0953-68.436Q21.6774-69.3098 20.0914-69.3098Q18.3829-69.3098 17.2335-68.1437Q16.084-66.9776 16.084-65.2017Q16.084-63.8772 16.6959-62.9766Q17.3078-62.076 18.7329-61.3298L65.8158-35.2364L18.7329-9.14226Q17.3078-8.39599 16.6959-7.4954Q16.084-6.59481 16.084-5.27035Q16.084-3.49445 17.2335-2.32833Q18.3829-1.1622 20.0914-1.1622Q21.6774-1.1622 23.0953-2.03601L69.2218-29.0329L68.7842 24.6225Q68.7842 24.9392 68.7671 25.3123Q68.7501 25.6854 68.7501 26.0354Q68.7501 27.9453 69.8326 29.0611Q70.915 30.1769 72.7575 30.1769Z"/>
  </g>
  <g id="Thin-L" transform="matrix(1 0 0 1 783.398 1556)">
   <path d="M73.1363 30.4292Q74.083 30.4292 74.6899 29.8183Q75.2969 29.2074 75.2969 28.3073Q75.2969 28.1592 75.2924 27.9754Q75.2878 27.7916 75.2878 27.6514L75.1785-31.658L126.086-2.11192Q127.004-1.59138 127.811-1.59138Q128.733-1.59138 129.349-2.21467Q129.964-2.83796 129.964-3.70545Q129.964-4.47021 129.634-4.93118Q129.303-5.39214 128.721-5.75969L77.1542-35.2618L128.721-64.7628Q129.376-65.1303 129.67-65.627Q129.964-66.1236 129.964-66.6731Q129.964-67.5406 129.384-68.2359Q128.805-68.9311 127.811-68.9311Q127.004-68.9311 126.086-68.4106L75.1785-38.8645L75.2878-98.1739Q75.2878-98.3141 75.2924-98.4979Q75.2969-98.6817 75.2969-98.8298Q75.2969-99.7299 74.6899-100.341Q74.083-100.952 73.1363-100.952Q72.2531-100.952 71.65-100.341Q71.047-99.7299 71.047-98.8298Q71.047-98.6817 71.0515-98.4979Q71.056-98.3141 71.056-98.1739L71.1654-38.8645L19.8896-68.4106Q19.0523-68.9311 18.1733-68.9311Q17.3227-68.9311 16.7033-68.3078Q16.084-67.6845 16.084-66.817Q16.084-66.1236 16.4183-65.627Q16.7526-65.1303 17.4708-64.7628L69.0469-35.2618L17.4708-5.75969Q16.7526-5.39214 16.4183-4.8955Q16.084-4.39886 16.084-3.70545Q16.084-2.83796 16.7033-2.21467Q17.3227-1.59138 18.1733-1.59138Q19.0523-1.59138 19.8896-2.11192L71.1654-31.658L71.056 27.6514Q71.056 27.7916 71.0515 27.9754Q71.047 28.1592 71.047 28.3073Q71.047 29.2074 71.65 29.8183Q72.2531 30.4292 73.1363 30.4292Z"/>
  </g>
  <g id="Ultralight-L" transform="matrix(1 0 0 1 486.506 1556)">
   <path d="M73.3302 30.5584Q73.8114 30.5584 74.1663 30.2061Q74.5212 29.8538 74.5212 29.4709Q74.5212 29.4262 74.5231 29.3394Q74.525 29.2526 74.525 29.2028L74.5837-33.0026L128.077-2.1508Q128.697-1.81121 129.13-1.81121Q129.625-1.81121 129.976-2.15646Q130.326-2.5017 130.326-2.90391Q130.326-3.35827 130.132-3.60593Q129.937-3.85358 129.756-4.02716L75.8744-35.2749L129.756-66.5212Q130.022-66.6947 130.174-66.9845Q130.326-67.2742 130.326-67.4747Q130.326-67.8769 130.018-68.307Q129.71-68.7371 129.13-68.7371Q128.697-68.7371 128.077-68.3975L74.5837-37.5457L74.525-99.7511Q74.525-99.801 74.5231-99.8878Q74.5212-99.9745 74.5212-100.019Q74.5212-100.402 74.1663-100.754Q73.8114-101.107 73.3302-101.107Q72.9384-101.107 72.5809-100.754Q72.2234-100.402 72.2234-100.019Q72.2234-99.9745 72.2215-99.8878Q72.2197-99.801 72.2197-99.7511L72.1609-37.5457L18.2477-68.3975Q17.7077-68.7371 17.1908-68.7371Q16.7797-68.7371 16.4318-68.3919Q16.084-68.0466 16.084-67.6444Q16.084-67.2742 16.2761-66.9845Q16.4683-66.6947 16.8244-66.5212L70.7019-35.2749L16.8244-4.02716Q16.4683-3.85358 16.2761-3.56384Q16.084-3.2741 16.084-2.90391Q16.084-2.5017 16.4318-2.15646Q16.7797-1.81121 17.1908-1.81121Q17.7077-1.81121 18.2477-2.1508L72.1609-33.0026L72.2197 29.2028Q72.2197 29.2526 72.2215 29.3394Q72.2234 29.4262 72.2234 29.4709Q72.2234 29.8538 72.5809 30.2061Q72.9384 30.5584 73.3302 30.5584Z"/>
  </g>
  <g id="Black-M" transform="matrix(1 0 0 1 2873.58 1126)">
   <path d="M59.8175 17.4197Q65.4239 17.4197 68.443 14.4835Q71.4621 11.5473 71.3479 6.15249Q71.3479 5.58948 71.2881 4.74113Q71.2282 3.89279 71.114 2.82141L68.4162-20.8093L85.5121-7.80465Q90.5385-3.87627 96.1013-3.87627Q100.892-3.87627 104.031-7.10619Q107.169-10.3361 107.169-15.2522Q107.169-19.1317 105.126-22.0979Q103.083-25.0642 99.3522-26.5896L78.2271-35.2552L99.3522-43.9207Q103.083-45.4461 105.126-48.4122Q107.169-51.3784 107.169-55.2587Q107.169-60.1748 104.03-63.4044Q100.892-66.634 96.1013-66.634Q90.5385-66.634 85.5121-62.7057L68.4162-49.701L71.114-73.3317Q71.2282-74.4031 71.2881-75.2514Q71.3479-76.0998 71.3479-76.6628Q71.4621-82.0576 68.443-84.9938Q65.4239-87.93 59.8175-87.93Q54.2053-87.93 51.2175-84.9938Q48.2297-82.0576 48.2868-76.6628Q48.2868-76.0998 48.3466-75.2514Q48.4065-74.4031 48.5207-73.3317L51.2185-49.701L34.1185-62.7057Q29.0973-66.634 23.5349-66.634Q18.744-66.634 15.6025-63.4041Q12.4609-60.1742 12.4609-55.2582Q12.4609-51.3784 14.5068-48.4122Q16.5526-45.4461 20.2776-43.9207L41.4082-35.2552L20.2776-26.5896Q16.5526-25.0642 14.5068-22.0981Q12.4609-19.1319 12.4609-15.2522Q12.4609-10.3361 15.6025-7.10619Q18.744-3.87627 23.5349-3.87627Q29.0973-3.87627 34.1185-7.80465L51.2185-20.8093L48.5207 2.82141Q48.4065 3.89279 48.3466 4.74113Q48.2868 5.58948 48.2868 6.15249Q48.2297 11.5473 51.2175 14.4835Q54.2053 17.4197 59.8175 17.4197Z"/>
  </g>
  <g id="Heavy-M" transform="matrix(1 0 0 1 2577.79 1126)">
   <path d="M58.9126 16.8928Q63.7532 16.8928 66.3789 14.3244Q69.0045 11.756 68.9173 7.04287Q68.9173 6.50032 68.8654 5.73852Q68.8136 4.97673 68.7264 4.05797L66.5065-22.4497L86.7413-8.18963Q90.9947-4.94383 95.7018-4.94383Q99.8825-4.94383 102.612-7.75494Q105.341-10.5661 105.341-14.8646Q105.341-18.2246 103.608-20.7511Q101.874-23.2777 98.5865-24.6704L74.9287-35.2443L98.5865-45.8181Q101.877-47.2108 103.609-49.7385Q105.341-52.2662 105.341-55.6194Q105.341-59.9179 102.613-62.7313Q99.8848-65.5446 95.7018-65.5446Q90.9947-65.5446 86.7413-62.2988L66.5065-48.0388L68.7264-74.5464Q68.8136-75.4652 68.8654-76.227Q68.9173-76.9888 68.9173-77.5313Q69.0045-82.2444 66.3789-84.8128Q63.7532-87.3812 58.9126-87.3812Q54.0579-87.3812 51.4622-84.8128Q48.8666-82.2444 48.9102-77.5313Q48.9102-76.9888 48.9621-76.227Q49.0139-75.4652 49.1012-74.5464L51.3211-48.0388L31.0584-62.2988Q26.8237-65.5446 22.1144-65.5446Q17.9359-65.5446 15.1984-62.7335Q12.4609-59.9224 12.4609-55.6239Q12.4609-52.2662 14.2024-49.7385Q15.9439-47.2108 19.22-45.8181L42.8943-35.2443L19.22-24.6704Q15.9439-23.2777 14.2024-20.75Q12.4609-18.2223 12.4609-14.8646Q12.4609-10.5661 15.1984-7.75494Q17.9359-4.94383 22.1144-4.94383Q26.8237-4.94383 31.0584-8.18963L51.3211-22.4497L49.1012 4.05797Q49.0139 4.97673 48.9621 5.73852Q48.9102 6.50032 48.9102 7.04287Q48.8666 11.756 51.4622 14.3244Q54.0579 16.8928 58.9126 16.8928Z"/>
  </g>
  <g id="Bold-M" transform="matrix(1 0 0 1 2282.1 1126)">
   <path d="M57.9004 16.3033Q61.8844 16.3033 64.0699 14.1464Q66.2554 11.9894 66.1983 8.0389Q66.1983 7.51922 66.1554 6.85425Q66.1125 6.18928 66.0554 5.44124L64.3701-24.2846L88.1163-8.62029Q91.5051-6.13804 95.255-6.13804Q98.7534-6.13804 101.025-8.48066Q103.296-10.8233 103.296-14.431Q103.296-17.2098 101.909-19.2445Q100.522-21.2792 97.7301-22.5235L71.239-35.2321L97.7301-47.9405Q100.528-49.1848 101.912-51.2221Q103.296-53.2593 103.296-56.0228Q103.296-59.6305 101.027-61.9782Q98.7585-64.326 95.255-64.326Q91.5051-64.326 88.1163-61.8438L64.3701-46.1794L66.0554-75.9053Q66.1125-76.6533 66.1554-77.3183Q66.1983-77.9833 66.1983-78.5029Q66.2554-82.4535 64.0699-84.6104Q61.8844-86.7674 57.9004-86.7674Q53.8929-86.7674 51.736-84.6104Q49.5791-82.4535 49.6076-78.5029Q49.6076-77.9833 49.6505-77.3183Q49.6934-76.6533 49.7505-75.9053L51.4358-46.1794L27.6353-61.8438Q24.2803-64.326 20.5253-64.326Q17.0319-64.326 14.7464-61.9834Q12.4609-59.6408 12.4609-56.033Q12.4609-53.2593 13.862-51.2221Q15.263-49.1848 18.037-47.9405L44.5567-35.2321L18.037-22.5235Q15.263-21.2792 13.862-19.242Q12.4609-17.2047 12.4609-14.431Q12.4609-10.8233 14.7464-8.48066Q17.0319-6.13804 20.5253-6.13804Q24.2803-6.13804 27.6353-8.62029L51.4358-24.2846L49.7505 5.44124Q49.6934 6.18928 49.6505 6.85425Q49.6076 7.51922 49.6076 8.0389Q49.5791 11.9894 51.736 14.1464Q53.8929 16.3033 57.9004 16.3033Z"/>
  </g>
  <g id="Semibold-M" transform="matrix(1 0 0 1 1986.09 1126)">
   <path d="M57.2026 15.897Q60.596 15.897 62.478 14.0237Q64.3601 12.1504 64.3238 8.72556Q64.3238 8.22164 64.2871 7.62342Q64.2504 7.02521 64.2141 6.39487L62.8973-25.5496L89.0643-8.91718Q91.8569-6.96132 94.9469-6.96132Q97.975-6.96132 99.9304-8.98097Q101.886-11.0006 101.886-14.1321Q101.886-16.5103 100.738-18.2059Q99.5902-19.9015 97.1397-21.0435L68.6953-35.2237L97.1397-49.4037Q99.5973-50.5457 100.742-52.2448Q101.886-53.944 101.886-56.3009Q101.886-59.4324 99.934-61.4591Q97.9821-63.4859 94.9469-63.4859Q91.8569-63.4859 89.0643-61.53L62.8973-44.8976L64.2141-76.8421Q64.2504-77.4724 64.2871-78.0706Q64.3238-78.6688 64.3238-79.1728Q64.3601-82.5976 62.478-84.4709Q60.596-86.3442 57.2026-86.3442Q53.7792-86.3442 51.9247-84.4709Q50.0703-82.5976 50.0884-79.1728Q50.0884-78.6688 50.1251-78.0706Q50.1618-77.4724 50.1981-76.8421L51.5149-44.8976L25.2754-61.53Q22.5269-63.4859 19.4298-63.4859Q16.4088-63.4859 14.4349-61.4662Q12.4609-59.4466 12.4609-56.3151Q12.4609-53.944 13.6273-52.2448Q14.7936-50.5457 17.2213-49.4037L45.7028-35.2237L17.2213-21.0435Q14.7936-19.9015 13.6273-18.2024Q12.4609-16.5032 12.4609-14.1321Q12.4609-11.0006 14.4349-8.98097Q16.4088-6.96132 19.4298-6.96132Q22.5269-6.96132 25.2754-8.91718L51.5149-25.5496L50.1981 6.39487Q50.1618 7.02521 50.1251 7.62342Q50.0884 8.22164 50.0884 8.72556Q50.0703 12.1504 51.9247 14.0237Q53.7792 15.897 57.2026 15.897Z"/>
  </g>
  <g id="Medium-M" transform="matrix(1 0 0 1 1689.92 1126)">
   <path d="M56.6735 15.5889Q59.6191 15.5889 61.271 13.9306Q62.923 12.2724 62.9025 9.24621Q62.9025 8.75425 62.8705 8.20665Q62.8384 7.65904 62.8179 7.11794L61.7806-26.5088L89.783-9.1423Q92.1237-7.58557 94.7133-7.58557Q97.3848-7.58557 99.1008-9.36032Q100.817-11.1351 100.817-13.9055Q100.817-15.9798 99.8501-17.4184Q98.8834-18.8569 96.692-19.9213L66.7666-35.2173L96.692-50.5132Q98.892-51.5776 99.8544-53.0203Q100.817-54.4631 100.817-56.5118Q100.817-59.2822 99.105-61.0655Q97.3933-62.8489 94.7133-62.8489Q92.1237-62.8489 89.783-61.2921L61.7806-43.9256L62.8179-77.5524Q62.8384-78.0935 62.8705-78.6411Q62.9025-79.1887 62.9025-79.6806Q62.923-82.7068 61.271-84.3651Q59.6191-86.0233 56.6735-86.0233Q53.693-86.0233 52.0679-84.3651Q50.4427-82.7068 50.453-79.6806Q50.453-79.1887 50.485-78.6411Q50.517-78.0935 50.5376-77.5524L51.5748-43.9256L23.486-61.2921Q21.1974-62.8489 18.5992-62.8489Q15.9362-62.8489 14.1986-61.0741Q12.4609-59.2994 12.4609-56.529Q12.4609-54.4631 13.4493-53.0203Q14.4377-51.5776 16.6029-50.5132L46.5718-35.2173L16.6029-19.9213Q14.4377-18.8569 13.4493-17.4141Q12.4609-15.9713 12.4609-13.9055Q12.4609-11.1351 14.1986-9.36032Q15.9362-7.58557 18.5992-7.58557Q21.1974-7.58557 23.486-9.1423L51.5748-26.5088L50.5376 7.11794Q50.517 7.65904 50.485 8.20665Q50.453 8.75425 50.453 9.24621Q50.4427 12.2724 52.0679 13.9306Q53.693 15.5889 56.6735 15.5889Z"/>
  </g>
  <g id="Regular-M" transform="matrix(1 0 0 1 1393.9 1126)">
   <path d="M55.9833 15.187Q58.3448 15.187 59.6967 13.8093Q61.0486 12.4316 61.0486 9.92532Q61.0486 9.44896 61.0227 8.96737Q60.9968 8.48578 60.9968 8.06108L60.324-27.7599L90.7206-9.43593Q92.4716-8.39981 94.4086-8.39981Q96.615-8.39981 98.0186-9.85513Q99.4223-11.3104 99.4223-13.6098Q99.4223-15.288 98.6919-16.3911Q97.9615-17.4943 96.108-18.4575L64.2508-35.209L96.108-51.9603Q97.9721-52.9235 98.6972-54.0319Q99.4223-55.1403 99.4223-56.7868Q99.4223-59.0862 98.0238-60.5521Q96.6254-62.018 94.4086-62.018Q92.4716-62.018 90.7206-60.9818L60.324-42.6579L60.9968-78.4789Q60.9968-78.9036 61.0227-79.3851Q61.0486-79.8667 61.0486-80.3431Q61.0486-82.8493 59.6967-84.2271Q58.3448-85.6048 55.9833-85.6048Q53.5806-85.6048 52.2545-84.2271Q50.9285-82.8493 50.9285-80.3431Q50.9285-79.8667 50.9544-79.3851Q50.9803-78.9036 50.9803-78.4789L51.6531-42.6579L21.152-60.9818Q19.4632-62.018 17.5158-62.018Q15.3199-62.018 13.8904-60.5626Q12.4609-59.1073 12.4609-56.8079Q12.4609-55.1403 13.2172-54.0319Q13.9734-52.9235 15.7963-51.9603L47.7053-35.209L15.7963-18.4575Q13.9734-17.4943 13.2172-16.3859Q12.4609-15.2775 12.4609-13.6098Q12.4609-11.3104 13.8904-9.85513Q15.3199-8.39981 17.5158-8.39981Q19.4632-8.39981 21.152-9.43593L51.6531-27.7599L50.9803 8.06108Q50.9803 8.48578 50.9544 8.96737Q50.9285 9.44896 50.9285 9.92532Q50.9285 12.4316 52.2545 13.8093Q53.5806 15.187 55.9833 15.187Z"/>
  </g>
  <g id="Light-M" transform="matrix(1 0 0 1 1096.95 1126)">
   <path d="M56.24 15.3581Q57.9855 15.3581 59.0037 14.3226Q60.022 13.2871 60.022 11.4654Q60.022 11.1259 60.0046 10.7726Q59.9871 10.4194 59.9871 10.1143L59.5369-29.5394L93.3556-9.48739Q94.7131-8.69074 96.1539-8.69074Q97.7957-8.69074 98.8486-9.77808Q99.9015-10.8654 99.9015-12.549Q99.9015-13.8163 99.3506-14.6372Q98.7998-15.458 97.477-16.1645L62.557-35.2262L97.477-54.2875Q98.8276-54.9939 99.3646-55.8285Q99.9015-56.6631 99.9015-57.8477Q99.9015-59.5313 98.8623-60.6463Q97.8231-61.7612 96.1539-61.7612Q94.7131-61.7612 93.3556-60.9646L59.5369-40.9126L59.9871-80.5663Q59.9871-80.8714 60.0046-81.2246Q60.022-81.5778 60.022-81.9174Q60.022-83.7391 59.0037-84.7746Q57.9855-85.8101 56.24-85.8101Q54.4876-85.8101 53.4865-84.7746Q52.4855-83.7391 52.4855-81.9174Q52.4855-81.5778 52.5029-81.2246Q52.5204-80.8714 52.5204-80.5663L52.9706-40.9126L18.9789-60.9646Q17.6837-61.7612 16.2155-61.7612Q14.6012-61.7612 13.5311-60.6739Q12.4609-59.5866 12.4609-57.903Q12.4609-56.6631 13.029-55.8285Q13.5971-54.9939 14.9407-54.2875L49.8957-35.2262L14.9407-16.1645Q13.5971-15.458 13.029-14.6235Q12.4609-13.7889 12.4609-12.549Q12.4609-10.8654 13.5311-9.77808Q14.6012-8.69074 16.2155-8.69074Q17.6837-8.69074 18.9789-9.48739L52.9706-29.5394L52.5204 10.1143Q52.5204 10.4194 52.5029 10.7726Q52.4855 11.1259 52.4855 11.4654Q52.4855 13.2871 53.4865 14.3226Q54.4876 15.3581 56.24 15.3581Z"/>
  </g>
  <g id="Thin-M" transform="matrix(1 0 0 1 799.924 1126)">
   <path d="M56.5796 15.5843Q57.5102 15.5843 58.0872 15.0015Q58.6642 14.4187 58.6642 13.5022Q58.6642 13.3437 58.658 13.1602Q58.6518 12.9768 58.6518 12.8298L58.4958-31.893L96.8408-9.55545Q97.6777-9.07553 98.4623-9.07553Q99.3572-9.07553 99.9463-9.67618Q100.535-10.2768 100.535-11.146Q100.535-11.87 100.222-12.3175Q99.9085-12.7649 99.2876-13.1319L60.3167-35.249L99.2876-57.3654Q99.9592-57.7323 100.247-58.2047Q100.535-58.6771 100.535-59.2507Q100.535-60.1198 99.9712-60.7708Q99.4071-61.4217 98.4623-61.4217Q97.6777-61.4217 96.8408-60.9418L58.4958-38.6042L58.6518-83.3271Q58.6518-83.474 58.658-83.6575Q58.6642-83.8409 58.6642-83.9995Q58.6642-84.9159 58.0872-85.4987Q57.5102-86.0815 56.5796-86.0815Q55.6872-86.0815 55.116-85.4987Q54.5447-84.9159 54.5447-83.9995Q54.5447-83.8409 54.551-83.6575Q54.5572-83.474 54.5572-83.3271L54.7131-38.6042L16.1048-60.9418Q15.3301-61.4217 14.4958-61.4217Q13.6506-61.4217 13.0558-60.821Q12.4609-60.2204 12.4609-59.3512Q12.4609-58.6771 12.7802-58.2047Q13.0994-57.7323 13.8092-57.3654L52.7926-35.249L13.8092-13.1319Q13.0994-12.7649 12.7802-12.2925Q12.4609-11.8201 12.4609-11.146Q12.4609-10.2768 13.0558-9.67618Q13.6506-9.07553 14.4958-9.07553Q15.3301-9.07553 16.1048-9.55545L54.7131-31.893L54.5572 12.8298Q54.5572 12.9768 54.551 13.1602Q54.5447 13.3437 54.5447 13.5022Q54.5447 14.4187 55.116 15.0015Q55.6872 15.5843 56.5796 15.5843Z"/>
  </g>
  <g id="Ultralight-M" transform="matrix(1 0 0 1 503.051 1126)">
   <path d="M56.7535 15.7002Q57.2668 15.7002 57.6178 15.3492Q57.9688 14.9982 57.9688 14.5455Q57.9688 14.4796 57.9683 14.3831Q57.9678 14.2866 57.9678 14.2207L57.9626-33.0985L98.6258-9.59031Q99.1962-9.27261 99.6446-9.27261Q100.157-9.27261 100.509-9.62399Q100.86-9.97537 100.86-10.4274Q100.86-10.8731 100.668-11.1293Q100.476-11.3855 100.215-11.5786L59.1693-35.2607L100.215-58.9419Q100.539-59.1349 100.699-59.4218Q100.86-59.7087 100.86-59.9693Q100.86-60.4213 100.539-60.8346Q100.218-61.2478 99.6446-61.2478Q99.1962-61.2478 98.6258-60.9301L57.9626-37.4219L57.9678-84.7411Q57.9678-84.807 57.9683-84.9035Q57.9688-85.0001 57.9688-85.0659Q57.9688-85.5186 57.6178-85.8696Q57.2668-86.2206 56.7535-86.2206Q56.3016-86.2206 55.9506-85.8696Q55.5995-85.5186 55.5995-85.0659Q55.5995-85.0001 55.6-84.9035Q55.6005-84.807 55.6005-84.7411L55.6057-37.4219L14.6327-60.9301Q14.1247-61.2478 13.6149-61.2478Q13.1638-61.2478 12.8124-60.8964Q12.4609-60.545 12.4609-60.093Q12.4609-59.7087 12.6527-59.4218Q12.8445-59.1349 13.2296-58.9419L54.2763-35.2607L13.2296-11.5786Q12.8445-11.3855 12.6527-11.0986Q12.4609-10.8117 12.4609-10.4274Q12.4609-9.97537 12.8124-9.62399Q13.1638-9.27261 13.6149-9.27261Q14.1247-9.27261 14.6327-9.59031L55.6057-33.0985L55.6005 14.2207Q55.6005 14.2866 55.6 14.3831Q55.5995 14.4796 55.5995 14.5455Q55.5995 14.9982 55.9506 15.3492Q56.3016 15.7002 56.7535 15.7002Z"/>
  </g>
  <g id="Black-S" transform="matrix(1 0 0 1 2886.23 696)">
   <path d="M47.168 6.20117Q51.7578 6.20117 54.2236 3.80859Q56.6895 1.41602 56.5918-2.97852Q56.5918-3.41797 56.543-4.10156Q56.4941-4.78516 56.3965-5.66406L54.1504-23.5352L66.7969-13.623Q70.9473-10.3516 75.5371-10.3516Q79.4434-10.3516 82.0068-12.9883Q84.5703-15.625 84.5703-19.6289Q84.5703-22.8027 82.8857-25.2441Q81.2012-27.6855 78.1738-28.9062L62.207-35.2539L78.1738-41.6016Q81.2012-42.8223 82.8857-45.2637Q84.5703-47.7051 84.5703-50.8789Q84.5703-54.8828 82.0068-57.5195Q79.4434-60.1562 75.5371-60.1562Q70.9473-60.1562 66.7969-56.8848L54.1504-46.9727L56.3965-64.8438Q56.4941-65.7227 56.543-66.4062Q56.5918-67.0898 56.5918-67.5293Q56.6895-71.9238 54.2236-74.3164Q51.7578-76.709 47.168-76.709Q42.5781-76.709 40.1367-74.3164Q37.6953-71.9238 37.7441-67.5293Q37.7441-67.0898 37.793-66.4062Q37.8418-65.7227 37.9395-64.8438L40.1855-46.9727L27.5391-56.8848Q23.3887-60.1562 18.7988-60.1562Q14.8926-60.1562 12.3291-57.5195Q9.76562-54.8828 9.76562-50.8789Q9.76562-47.7051 11.4502-45.2637Q13.1348-42.8223 16.1621-41.6016L32.1289-35.2539L16.1621-28.9062Q13.1348-27.6855 11.4502-25.2441Q9.76562-22.8027 9.76562-19.6289Q9.76562-15.625 12.3291-12.9883Q14.8926-10.3516 18.7988-10.3516Q23.3887-10.3516 27.5391-13.623L40.1855-23.5352L37.9395-5.66406Q37.8418-4.78516 37.793-4.10156Q37.7441-3.41797 37.7441-2.97852Q37.6953 1.41602 40.1367 3.80859Q42.5781 6.20117 47.168 6.20117Z"/>
  </g>
  <g id="Heavy-S" transform="matrix(1 0 0 1 2590.33 696)">
   <path d="M46.3613 5.72867Q50.3749 5.72867 52.5468 3.60692Q54.7188 1.48516 54.6442-2.41382Q54.6442-2.85327 54.6011-3.47924Q54.558-4.10521 54.4834-4.86887L52.6176-24.7107L67.5114-13.9457Q71.051-11.2274 74.9724-11.2274Q78.4292-11.2274 80.6873-13.553Q82.9454-15.8785 82.9454-19.433Q82.9454-22.215 81.5028-24.3164Q80.0602-26.4179 77.3441-27.5579L59.6025-35.2424L77.3441-42.9269Q80.0602-44.0669 81.5028-46.1683Q82.9454-48.2698 82.9454-51.0518Q82.9454-54.6062 80.6873-56.9318Q78.4292-59.2573 74.9724-59.2573Q71.051-59.2573 67.5114-56.539L52.6176-45.7741L54.4834-65.6159Q54.558-66.3796 54.6011-67.0055Q54.6442-67.6315 54.6442-68.0709Q54.7188-71.9699 52.5468-74.0917Q50.3749-76.2134 46.3613-76.2134Q42.3361-76.2134 40.1886-74.0917Q38.041-71.9699 38.0784-68.0709Q38.0784-67.6315 38.1214-67.0055Q38.1645-66.3796 38.2391-65.6159L40.1049-45.7741L25.1996-56.539Q21.6715-59.2573 17.7501-59.2573Q14.2933-59.2573 12.0295-56.9318Q9.76562-54.6062 9.76562-51.0518Q9.76562-48.2698 11.2139-46.1683Q12.6623-44.0669 15.3669-42.9269L33.12-35.2424L15.3669-27.5579Q12.6623-26.4179 11.2139-24.3164Q9.76562-22.215 9.76562-19.433Q9.76562-15.8785 12.0295-13.553Q14.2933-11.2274 17.7501-11.2274Q21.6715-11.2274 25.1996-13.9457L40.1049-24.7107L38.2391-4.86887Q38.1645-4.10521 38.1214-3.47924Q38.0784-2.85327 38.0784-2.41382Q38.041 1.48516 40.1886 3.60692Q42.3361 5.72867 46.3613 5.72867Z"/>
  </g>
  <g id="Bold-S" transform="matrix(1 0 0 1 2294.53 696)">
   <path d="M45.459 5.2002Q48.8281 5.2002 50.6714 3.38135Q52.5146 1.5625 52.4658-1.78223Q52.4658-2.22168 52.4292-2.7832Q52.3926-3.34473 52.3438-3.97949L50.9033-26.0254L68.3105-14.3066Q71.167-12.207 74.3408-12.207Q77.2949-12.207 79.2114-14.1846Q81.1279-16.1621 81.1279-19.2139Q81.1279-21.5576 79.9561-23.2788Q78.7842-25 76.416-26.0498L56.6895-35.2295L76.416-44.4092Q78.7842-45.459 79.9561-47.1802Q81.1279-48.9014 81.1279-51.2451Q81.1279-54.2969 79.2114-56.2744Q77.2949-58.252 74.3408-58.252Q71.167-58.252 68.3105-56.1523L50.9033-44.4336L52.3438-66.4795Q52.3926-67.1143 52.4292-67.6758Q52.4658-68.2373 52.4658-68.6768Q52.5146-72.0215 50.6714-73.8403Q48.8281-75.6592 45.459-75.6592Q42.0654-75.6592 40.2466-73.8403Q38.4277-72.0215 38.4521-68.6768Q38.4521-68.2373 38.4888-67.6758Q38.5254-67.1143 38.5742-66.4795L40.0146-44.4336L22.583-56.1523Q19.751-58.252 16.5771-58.252Q13.623-58.252 11.6943-56.2744Q9.76562-54.2969 9.76562-51.2451Q9.76562-48.9014 10.9497-47.1802Q12.1338-45.459 14.4775-44.4092L34.2285-35.2295L14.4775-26.0498Q12.1338-25 10.9497-23.2788Q9.76562-21.5576 9.76562-19.2139Q9.76562-16.1621 11.6943-14.1846Q13.623-12.207 16.5771-12.207Q19.751-12.207 22.583-14.3066L40.0146-26.0254L38.5742-3.97949Q38.5254-3.34473 38.4888-2.7832Q38.4521-2.22168 38.4521-1.78223Q38.4277 1.5625 40.2466 3.38135Q42.0654 5.2002 45.459 5.2002Z"/>
  </g>
  <g id="Semibold-S" transform="matrix(1 0 0 1 1998.45 696)">
   <path d="M44.8369 4.83584Q47.7617 4.83584 49.3784 3.22583Q50.995 1.61582 50.964-1.34678Q50.964-1.78623 50.9318-2.30332Q50.8996-2.82041 50.8686-3.36631L49.7214-26.9318L68.8615-14.5555Q71.247-12.8824 73.9054-12.8824Q76.5129-12.8824 78.1939-14.62Q79.8749-16.3576 79.8749-19.0628Q79.8749-21.1044 78.8896-22.5634Q77.9044-24.0225 75.7762-25.0101L54.6811-35.2206L75.7762-45.4312Q77.9044-46.4188 78.8896-47.8778Q79.8749-49.3368 79.8749-51.3784Q79.8749-54.0836 78.1939-55.8212Q76.5129-57.5588 73.9054-57.5588Q71.247-57.5588 68.8615-55.8857L49.7214-43.5094L50.8686-67.0749Q50.8996-67.6208 50.9318-68.1379Q50.964-68.655 50.964-69.0944Q50.995-72.057 49.3784-73.667Q47.7617-75.2771 44.8369-75.2771Q41.8788-75.2771 40.2866-73.667Q38.6943-72.057 38.7099-69.0944Q38.7099-68.655 38.742-68.1379Q38.7742-67.6208 38.8053-67.0749L39.9524-43.5094L20.779-55.8857Q18.4269-57.5588 15.7685-57.5588Q13.1609-57.5588 11.4633-55.8212Q9.76562-54.0836 9.76562-51.3784Q9.76562-49.3368 10.7675-47.8778Q11.7694-46.4188 13.8644-45.4312L34.9928-35.2206L13.8644-25.0101Q11.7694-24.0225 10.7675-22.5634Q9.76562-21.1044 9.76562-19.0628Q9.76562-16.3576 11.4633-14.62Q13.1609-12.8824 15.7685-12.8824Q18.4269-12.8824 20.779-14.5555L39.9524-26.9318L38.8053-3.36631Q38.7742-2.82041 38.742-2.30332Q38.7099-1.78623 38.7099-1.34678Q38.6943 1.61582 40.2866 3.22583Q41.8788 4.83584 44.8369 4.83584Z"/>
  </g>
  <g id="Medium-S" transform="matrix(1 0 0 1 1702.21 696)">
   <path d="M44.3652 4.55957Q46.9531 4.55957 48.3979 3.10791Q49.8428 1.65625 49.8252-1.0166Q49.8252-1.45605 49.7964-1.93945Q49.7676-2.42285 49.75-2.90137L48.8252-27.6191L69.2793-14.7441Q71.3076-13.3945 73.5752-13.3945Q75.9199-13.3945 77.4224-14.9502Q78.9248-16.5059 78.9248-18.9482Q78.9248-20.7607 78.0811-22.021Q77.2373-23.2812 75.291-24.2217L53.1582-35.2139L75.291-46.2061Q77.2373-47.1465 78.0811-48.4067Q78.9248-49.667 78.9248-51.4795Q78.9248-53.9219 77.4224-55.4775Q75.9199-57.0332 73.5752-57.0332Q71.3076-57.0332 69.2793-55.6836L48.8252-42.8086L49.75-67.5264Q49.7676-68.0049 49.7964-68.4883Q49.8252-68.9717 49.8252-69.4111Q49.8428-72.084 48.3979-73.5356Q46.9531-74.9873 44.3652-74.9873Q41.7373-74.9873 40.3169-73.5356Q38.8965-72.084 38.9053-69.4111Q38.9053-68.9717 38.9341-68.4883Q38.9629-68.0049 38.9805-67.5264L39.9053-42.8086L19.4111-55.6836Q17.4229-57.0332 15.1553-57.0332Q12.8105-57.0332 11.2881-55.4775Q9.76562-53.9219 9.76562-51.4795Q9.76562-49.667 10.6294-48.4067Q11.4932-47.1465 13.3994-46.2061L35.5723-35.2139L13.3994-24.2217Q11.4932-23.2812 10.6294-22.021Q9.76562-20.7607 9.76562-18.9482Q9.76562-16.5059 11.2881-14.9502Q12.8105-13.3945 15.1553-13.3945Q17.4229-13.3945 19.4111-14.7441L39.9053-27.6191L38.9805-2.90137Q38.9629-2.42285 38.9341-1.93945Q38.9053-1.45605 38.9053-1.0166Q38.8965 1.65625 40.3169 3.10791Q41.7373 4.55957 44.3652 4.55957Z"/>
  </g>
  <g id="Regular-S" transform="matrix(1 0 0 1 1406.12 696)">
   <path d="M43.75 4.19922Q45.8984 4.19922 47.1191 2.9541Q48.3398 1.70898 48.3398-0.585938Q48.3398-1.02539 48.3154-1.46484Q48.291-1.9043 48.291-2.29492L47.6562-28.5156L69.8242-14.9902Q71.3867-14.0625 73.1445-14.0625Q75.1465-14.0625 76.416-15.3809Q77.6855-16.6992 77.6855-18.7988Q77.6855-20.3125 77.0264-21.3135Q76.3672-22.3145 74.6582-23.1934L51.1719-35.2051L74.6582-47.2168Q76.3672-48.0957 77.0264-49.0967Q77.6855-50.0977 77.6855-51.6113Q77.6855-53.7109 76.416-55.0293Q75.1465-56.3477 73.1445-56.3477Q71.3867-56.3477 69.8242-55.4199L47.6562-41.8945L48.291-68.1152Q48.291-68.5059 48.3154-68.9453Q48.3398-69.3848 48.3398-69.8242Q48.3398-72.1191 47.1191-73.3643Q45.8984-74.6094 43.75-74.6094Q41.5527-74.6094 40.3564-73.3643Q39.1602-72.1191 39.1602-69.8242Q39.1602-69.3848 39.1846-68.9453Q39.209-68.5059 39.209-68.1152L39.8438-41.8945L17.627-55.4199Q16.1133-56.3477 14.3555-56.3477Q12.3535-56.3477 11.0596-55.0293Q9.76562-53.7109 9.76562-51.6113Q9.76562-50.0977 10.4492-49.0967Q11.1328-48.0957 12.793-47.2168L36.3281-35.2051L12.793-23.1934Q11.1328-22.3145 10.4492-21.3135Q9.76562-20.3125 9.76562-18.7988Q9.76562-16.6992 11.0596-15.3809Q12.3535-14.0625 14.3555-14.0625Q16.1133-14.0625 17.627-14.9902L39.8438-28.5156L39.209-2.29492Q39.209-1.9043 39.1846-1.46484Q39.1602-1.02539 39.1602-0.585938Q39.1602 1.70898 40.3564 2.9541Q41.5527 4.19922 43.75 4.19922Z"/>
  </g>
  <g id="Light-S" transform="matrix(1 0 0 1 1109.2 696)">
   <path d="M43.9771 4.35054Q45.5805 4.35054 46.5061 3.40818Q47.4317 2.46582 47.4317 0.776418Q47.4317 0.458018 47.4148 0.132116Q47.3979-0.193787 47.3979-0.478617L46.9599-30.0898L72.1553-15.0358Q73.3696-14.3199 74.6885-14.3199Q76.1909-14.3199 77.1502-15.3127Q78.1095-16.3055 78.1095-17.8604Q78.1095-19.0107 77.6091-19.7619Q77.1088-20.5132 75.8692-21.165L49.6735-35.2203L75.8692-49.2755Q77.124-49.9273 77.6168-50.686Q78.1095-51.4448 78.1095-52.5497Q78.1095-54.1046 77.1577-55.1126Q76.206-56.1206 74.6885-56.1206Q73.3696-56.1206 72.1553-55.4047L46.9599-40.3506L47.3979-69.9618Q47.3979-70.2466 47.4148-70.5725Q47.4317-70.8984 47.4317-71.2168Q47.4317-72.9062 46.5061-73.8486Q45.5805-74.791 43.9771-74.791Q42.3551-74.791 41.4463-73.8486Q40.5375-72.9062 40.5375-71.2168Q40.5375-70.8984 40.5544-70.5725Q40.5713-70.2466 40.5713-69.9618L41.0093-40.3506L15.7046-55.4047Q14.5391-56.1206 13.2052-56.1206Q11.7177-56.1206 10.7417-55.1277Q9.76562-54.1349 9.76562-52.58Q9.76562-51.4448 10.2828-50.686Q10.7999-49.9273 12.0361-49.2755L38.2657-35.2203L12.0361-21.165Q10.7999-20.5132 10.2828-19.7544Q9.76562-18.9957 9.76562-17.8604Q9.76562-16.3055 10.7417-15.3127Q11.7177-14.3199 13.2052-14.3199Q14.5391-14.3199 15.7046-15.0358L41.0093-30.0898L40.5713-0.478617Q40.5713-0.193787 40.5544 0.132116Q40.5375 0.458018 40.5375 0.776418Q40.5375 2.46582 41.4463 3.40818Q42.3551 4.35054 43.9771 4.35054Z"/>
  </g>
  <g id="Thin-S" transform="matrix(1 0 0 1 812.204 696)">
   <path d="M44.2775 4.55066Q45.1601 4.55066 45.6953 4.00873Q46.2306 3.4668 46.2306 2.57824Q46.2306 2.41995 46.2236 2.24422Q46.2166 2.0685 46.2166 1.92359L46.039-32.1718L75.2382-15.096Q75.9921-14.6603 76.7304-14.6603Q77.5723-14.6603 78.1213-15.2226Q78.6702-15.7849 78.6702-16.6193Q78.6702-17.2889 78.3799-17.7098Q78.0896-18.1308 77.4709-18.4822L47.6917-35.2405L77.4709-51.9982Q78.125-52.3497 78.3976-52.788Q78.6702-53.2264 78.6702-53.7909Q78.6702-54.6253 78.1387-55.2227Q77.6072-55.8202 76.7304-55.8202Q75.9921-55.8202 75.2382-55.3845L46.039-38.3086L46.2166-72.404Q46.2166-72.5489 46.2236-72.7247Q46.2306-72.9004 46.2306-73.0587Q46.2306-73.9472 45.6953-74.4892Q45.1601-75.0311 44.2775-75.0311Q43.4163-75.0311 42.8877-74.4892Q42.3592-73.9472 42.3592-73.0587Q42.3592-72.9004 42.3662-72.7247Q42.3732-72.5489 42.3732-72.404L42.5508-38.3086L13.1621-55.3845Q12.4571-55.8202 11.6839-55.8202Q10.8769-55.8202 10.3212-55.2579Q9.76562-54.6956 9.76562-53.8612Q9.76562-53.2264 10.0626-52.788Q10.3596-52.3497 11.0352-51.9982L40.8284-35.2405L11.0352-18.4822Q10.3596-18.1308 10.0626-17.6924Q9.76562-17.254 9.76562-16.6193Q9.76562-15.7849 10.3212-15.2226Q10.8769-14.6603 11.6839-14.6603Q12.4571-14.6603 13.1621-15.096L42.5508-32.1718L42.3732 1.92359Q42.3732 2.0685 42.3662 2.24422Q42.3592 2.41995 42.3592 2.57824Q42.3592 3.4668 42.8877 4.00873Q43.4163 4.55066 44.2775 4.55066Z"/>
  </g>
  <g id="Ultralight-S" transform="matrix(1 0 0 1 515.35 696)">
   <path d="M44.4313 4.65317Q44.9448 4.65317 45.2801 4.31633Q45.6154 3.97949 45.6154 3.50113Q45.6154 3.42484 45.6135 3.32603Q45.6116 3.22723 45.6116 3.15399L45.5673-33.2382L76.8173-15.1268Q77.3354-14.8346 77.7763-14.8346Q78.2799-14.8346 78.6186-15.1764Q78.9574-15.5182 78.9574-15.9836Q78.9574-16.407 78.7746-16.6588Q78.5919-16.9106 78.2913-17.1082L46.6766-35.2509L78.2913-53.3928Q78.6377-53.5904 78.7975-53.8647Q78.9574-54.1389 78.9574-54.4266Q78.9574-54.892 78.6411-55.2792Q78.3249-55.6664 77.7763-55.6664Q77.3354-55.6664 76.8173-55.3741L45.5673-37.2627L45.6116-73.6549Q45.6116-73.7282 45.6135-73.827Q45.6154-73.9258 45.6154-74.0021Q45.6154-74.4804 45.2801-74.8173Q44.9448-75.1541 44.4313-75.1541Q43.9598-75.1541 43.626-74.8173Q43.2922-74.4804 43.2922-74.0021Q43.2922-73.9258 43.2941-73.827Q43.2961-73.7282 43.2961-73.6549L43.3403-37.2627L11.8599-55.3741Q11.3907-55.6664 10.9047-55.6664Q10.4462-55.6664 10.1059-55.3246Q9.76562-54.9828 9.76562-54.5174Q9.76562-54.1389 9.94987-53.8647Q10.1341-53.5904 10.5225-53.3928L42.141-35.2509L10.5225-17.1082Q10.1341-16.9106 9.94987-16.6363Q9.76562-16.362 9.76562-15.9836Q9.76562-15.5182 10.1059-15.1764Q10.4462-14.8346 10.9047-14.8346Q11.3907-14.8346 11.8599-15.1268L43.3403-33.2382L43.2961 3.15399Q43.2961 3.22723 43.2941 3.32603Q43.2922 3.42484 43.2922 3.50113Q43.2922 3.97949 43.626 4.31633Q43.9598 4.65317 44.4313 4.65317Z"/>
  </g>
 </g>
</svg>
