<?xml version="1.0" encoding="utf-8"?>
<!-- Generator: Adobe Illustrator 24.1.1, SVG Export Plug-In . SVG Version: 6.00 Build 0)  -->
<svg version="1.1" id="Layer_1" xmlns="http://www.w3.org/2000/svg" xmlns:xlink="http://www.w3.org/1999/xlink" x="0px" y="0px"
	 viewBox="0 0 3300 2200" style="enable-background:new 0 0 3300 2200;" xml:space="preserve">
<style type="text/css">
	.st0{fill:#FFFFFF;}
	.st1{fill:none;stroke:#000000;stroke-width:0.5;}
	.st2{font-family:'Arial-BoldMT';}
	.st3{font-size:13px;}
	.st4{font-family:'ArialMT';}
	.st5{fill:none;stroke:#00AEEF;stroke-width:0.5;}
	.st6{fill:#27AAE1;}
	.st7{fill:none;stroke:#27AAE1;stroke-width:0.5;}
</style>
<g id="Notes">
	<rect id="artboard" class="st0" width="3300" height="2200"/>
	<line class="st1" x1="263" y1="292" x2="3036" y2="292"/>
	<text transform="matrix(1 0 0 1 263 322)" class="st2 st3">Weight/Scale Variations</text>
	<text transform="matrix(1 0 0 1 534.0632 322)" class="st4 st3">Ultralight</text>
	<text transform="matrix(1 0 0 1 843.7775 322)" class="st4 st3">Thin</text>
	<text transform="matrix(1 0 0 1 1139.035 322)" class="st4 st3">Light</text>
	<text transform="matrix(1 0 0 1 1427.0773 322)" class="st4 st3">Regular</text>
	<text transform="matrix(1 0 0 1 1723.4419 322)" class="st4 st3">Medium</text>
	<text transform="matrix(1 0 0 1 2016.1719 322)" class="st4 st3">Semibold</text>
	<text transform="matrix(1 0 0 1 2326.9705 322)" class="st4 st3">Bold</text>
	<text transform="matrix(1 0 0 1 2618.2659 322)" class="st4 st3">Heavy</text>
	<text transform="matrix(1 0 0 1 2917.5054 322)" class="st4 st3">Black</text>
	<line class="st1" x1="263" y1="1903" x2="3036" y2="1903"/>
	<g transform="matrix(1 0 0 1 263 1933)">
		<path d="M9.2,0.8c4.3,0,7.9-3.6,7.9-7.9S13.5-15,9.2-15s-7.9,3.6-7.9,7.9C1.4-2.7,5,0.8,9.2,0.8z M9.2-0.7C5.7-0.7,2.9-3.5,2.9-7
			c0-3.6,2.8-6.4,6.4-6.4s6.4,2.8,6.4,6.4C15.6-3.5,12.8-0.7,9.2-0.7z M5.7-7.1c0,0.4,0.3,0.7,0.8,0.7h2.1v2.1
			c0,0.4,0.3,0.7,0.7,0.7S10-3.9,10-4.3v-2.1h2.1c0.4,0,0.7-0.3,0.7-0.7c0-0.4-0.3-0.7-0.7-0.7H10v-2.1c0-0.4-0.3-0.8-0.7-0.8
			s-0.7,0.3-0.7,0.8v2.1H6.4C6-7.8,5.7-7.5,5.7-7.1z"/>
	</g>
	<g transform="matrix(1 0 0 1 281.867 1933)">
		<path d="M11.7,2.9c5.4,0,10-4.5,10-10c0-5.4-4.5-10-10-10c-5.4,0-10,4.5-10,10C1.7-1.6,6.3,2.9,11.7,2.9z M11.7,1.3
			C7.1,1.3,3.4-2.4,3.4-7s3.7-8.3,8.3-8.3S20-11.7,20-7.1C20-2.4,16.3,1.3,11.7,1.3z M7.2-7.1c0,0.5,0.3,0.8,0.8,0.8h2.9v2.9
			c0,0.5,0.3,0.8,0.8,0.8s0.8-0.3,0.8-0.8v-2.9h2.9c0.5,0,0.8-0.3,0.8-0.8s-0.3-0.8-0.8-0.8h-2.9v-2.9c0-0.5-0.3-0.8-0.8-0.8
			s-0.8,0.3-0.8,0.8v2.9H8C7.5-7.9,7.2-7.5,7.2-7.1z"/>
	</g>
	<g transform="matrix(1 0 0 1 305.646 1933)">
		<path d="M15,5.7c7,0,12.7-5.8,12.7-12.7c0-7-5.8-12.7-12.7-12.7C8-19.8,2.3-14,2.3-7.1C2.3-0.1,8,5.7,15,5.7z M15,3.8
			C8.9,3.8,4.1-1,4.1-7S8.9-17.9,15-17.9c6,0,10.9,4.9,10.9,10.9S21,3.8,15,3.8z M9.2-7.1c0,0.5,0.4,0.9,0.9,0.9H14v4
			c0,0.5,0.4,0.9,0.9,0.9s0.9-0.4,0.9-0.9v-4h4c0.5,0,0.9-0.4,0.9-0.9S20.3-8,19.8-8h-4v-3.9c0-0.5-0.4-0.9-0.9-0.9S14-12.4,14-11.9
			V-8h-3.9C9.6-8,9.2-7.6,9.2-7.1z"/>
	</g>
	<text transform="matrix(1 0 0 1 263 1953)" class="st2 st3">Design Variations</text>
	<text transform="matrix(1 0 0 1 263 1971)" class="st4 st3">Symbols are supported in up to nine weights and three scales.</text>
	<text transform="matrix(1 0 0 1 263 1989)" class="st4 st3">For optimal layout with text and other symbols, vertically align</text>
	<text transform="matrix(1 0 0 1 263 2007)" class="st4 st3">symbols with the adjacent text.</text>
	<line class="st5" x1="776" y1="1919" x2="776" y2="1933"/>
	<g transform="matrix(1 0 0 1 776 1933)">
		<path d="M3.3,0.2c0.5,0,0.8-0.2,1-0.7L5.5-4h5.8l1.3,3.4C12.7,0,13,0.2,13.5,0.2s0.9-0.3,0.9-0.8c0-0.2,0-0.3-0.1-0.5L9.7-13.4
			C9.4-14,9-14.3,8.4-14.3s-1,0.3-1.2,0.9L2.6-1.2C2.5-1,2.5-0.8,2.5-0.6C2.5-0.1,2.8,0.2,3.3,0.2z M6-5.5l2.4-6.6l0,0l2.4,6.6
			C10.8-5.5,6-5.5,6-5.5z"/>
	</g>
	<line class="st5" x1="793.2" y1="1919" x2="793.2" y2="1933"/>
	<text transform="matrix(1 0 0 1 776 1953)" class="st2 st3">Margins</text>
	<text transform="matrix(1 0 0 1 776 1971)" class="st4 st3">Leading and trailing margins on the left and right side of each symbol</text>
	<text transform="matrix(1 0 0 1 776 1989)" class="st4 st3">can be adjusted by modifying the x-location of the margin guidelines.</text>
	<text transform="matrix(1 0 0 1 776 2007)" class="st4 st3">Modifications are automatically applied proportionally to all</text>
	<text transform="matrix(1 0 0 1 776 2025)" class="st4 st3">scales and weights.</text>
	<g transform="matrix(1 0 0 1 1289 1933)">
		<path d="M2.8,1.9l1.7,1.7c0.9,0.9,1.8,0.8,2.8-0.2L18-8.4l-1-1L6.4,2.3C6,2.7,5.7,2.8,5.2,2.3L4.1,1.1C3.6,0.7,3.7,0.3,4.1,0
			l11.5-10.8l-1-1L3-0.9C2.1,0,2,1,2.8,1.9z M9.3-16.3c-0.4,0.4-0.4,1-0.2,1.4s0.7,0.6,1.3,0.4c1.5-0.3,3-0.4,4.4,0.5l-0.6,1.5
			c-0.3,0.8-0.2,1.4,0.4,2l2.3,2.3c0.5,0.5,0.9,0.5,1.5,0.4l1-0.2l0.7,0.7v0.6c0,0.5,0.1,0.9,0.6,1.4l0.8,0.7c0.5,0.5,1.1,0.5,1.6,0
			L26-7.5C26.5-8,26.4-8.6,26-9l-1-0.9c-0.5-0.5-0.9-0.6-1.3-0.6h-0.6l-0.6-0.6l0.2-1.1c0.1-0.6,0-1-0.6-1.6L19.9-16
			C16.6-19.3,12.1-19.2,9.3-16.3z M10.8-16c2.4-1.8,5.7-1.5,7.9,0.8l2.4,2.4c0.2,0.2,0.3,0.4,0.2,0.8L21-10.5L22.5-9l1-0.1
			c0.3,0,0.3,0,0.5,0.2l0.6,0.6l-2.4,2.4l-0.6-0.6c-0.2-0.2-0.2-0.3-0.2-0.5l0.1-1L20-9.5l-1.5,0.3c-0.3,0.1-0.5,0-0.7-0.2l-2-2
			c-0.3-0.2-0.3-0.4-0.1-0.8l0.9-2.1C15-15.8,13-16.4,11-15.8C10.7-15.7,10.6-15.9,10.8-16z"/>
	</g>
	<text transform="matrix(1 0 0 1 1289 1953)" class="st2 st3">Exporting</text>
	<text transform="matrix(1 0 0 1 1289 1971)" class="st4 st3">Symbols should be outlined when exporting to ensure the</text>
	<text transform="matrix(1 0 0 1 1289 1989)" class="st4 st3">design is preserved when submitting to Xcode.</text>
	<text id="template-version" transform="matrix(1 0 0 1 2952.4204 1933)" class="st4 st3">Template v.4.0</text>
	<text transform="matrix(1 0 0 1 2865.4575 1951)" class="st4 st3">Requires Xcode 14 or greater</text>
	<text id="descriptive-name" transform="matrix(1 0 0 1 2887.147 1969)" class="st4 st3">Generated from harddrive</text>
	<text transform="matrix(1 0 0 1 2912.4175 1987)" class="st4 st3">Typeset at 100 points</text>
	<text transform="matrix(1 0 0 1 263 726)" class="st4 st3">Small</text>
	<text transform="matrix(1 0 0 1 263 1156)" class="st4 st3">Medium</text>
	<text transform="matrix(1 0 0 1 263 1586)" class="st4 st3">Large</text>
</g>
<g id="Guides">
	<g id="H-reference" transform="matrix(1 0 0 1 339 696)">
		<path class="st6" d="M1,0h2.6l25.7-67.1H30v-3.3h-1.9L1,0z M11.7-24.5H47l-0.8-2.2H12.4L11.7-24.5z M55.1,0h2.6L30.6-70.5h-1.2
			v3.3L55.1,0z"/>
	</g>
	<line id="Baseline-S" class="st7" x1="263" y1="696" x2="3036" y2="696"/>
	<line id="Capline-S" class="st7" x1="263" y1="625.5" x2="3036" y2="625.5"/>
	<g id="H-reference_1_" transform="matrix(1 0 0 1 339 1126)">
		<path class="st6" d="M1,0h2.6l25.7-67.1H30v-3.3h-1.9L1,0z M11.7-24.5H47l-0.8-2.2H12.4L11.7-24.5z M55.1,0h2.6L30.6-70.5h-1.2
			v3.3L55.1,0z"/>
	</g>
	<line id="Baseline-M" class="st7" x1="263" y1="1126" x2="3036" y2="1126"/>
	<line id="Capline-M" class="st7" x1="263" y1="1055.5" x2="3036" y2="1055.5"/>
	<g id="H-reference_2_" transform="matrix(1 0 0 1 339 1556)">
		<path class="st6" d="M1,0h2.6l25.7-67.1H30v-3.3h-1.9L1,0z M11.7-24.5H47l-0.8-2.2H12.4L11.7-24.5z M55.1,0h2.6L30.6-70.5h-1.2
			v3.3L55.1,0z"/>
	</g>
	<line id="Baseline-L" class="st7" x1="263" y1="1556" x2="3036" y2="1556"/>
	<line id="Capline-L" class="st7" x1="263" y1="1485.5" x2="3036" y2="1485.5"/>
	<line id="left-margin-Regular-M" class="st5" x1="1391.3" y1="1030.8" x2="1391.3" y2="1150.1"/>
	<line id="right-margin-Regular-M" class="st5" x1="1508.4" y1="1030.8" x2="1508.4" y2="1150.1"/>
</g>
<g id="Symbols">
	<g id="Black-L" transform="matrix(1 0 0 1 2854.19 1556)">
		<path d="M127.9-74.4c0-17.4-25.4-30.6-59-30.6S10-91.8,10-74.4c0,17.4,25.4,30.6,59,30.6S127.9-57,127.9-74.4z M113.1-74.4
			c0,6.3-17.6,15.8-44.2,15.8s-44.2-9.5-44.2-15.8c0-6.3,17.6-15.8,44.2-15.8S113.1-80.7,113.1-74.4z M127.8-55.4v-19
			c0-4.1-3.3-7.4-7.4-7.4s-7.4,3.3-7.4,7.4v19c0,4.1,3.3,7.4,7.4,7.4S127.8-51.3,127.8-55.4z M81.6,30.2c4-0.4,7-4,6.6-8.1
			c-0.4-4-4-7-8.1-6.6c-4.2,0.4-7.7,0.6-11.2,0.6c-26.6,0-44.2-9.5-44.2-15.8v-74.8c0-4.1-3.3-7.4-7.4-7.4S10-78.5,10-74.4V0.4
			c0,17.4,25.4,30.6,59,30.6C72.9,30.9,76.9,30.7,81.6,30.2z M72.7,6.6c2.1-1.3,3.6-3.6,3.6-6.3c0-2.5-1.3-4.8-3.3-6.1
			c-1.2-0.8-2.6-1.3-4.1-1.3c-26.6,0-44.2-9.5-44.2-15.8c0-4.1-3.3-7.4-7.4-7.4S10-27,10-22.9c0,17.4,25.4,30.6,59,30.6
			C70.3,7.6,71.6,7.2,72.7,6.6z M71.6-25.4c0-4.1-3-7.5-7.1-7.6c-24.3-0.9-39.8-9.9-39.8-15.7c0-4.1-3.3-7.4-7.4-7.4
			S10-52.7,10-48.7c0,16.5,22.7,29.3,54,30.4C64.1-18.3,71.6-19.7,71.6-25.4z M111.6,34.4l-3.4-1.6C106.8,32.1,74.4,16,74.4-30V-36
			l5.8-1.3c9.7-2.1,15.2-5,19.7-7.3c3.9-2,7.3-3.8,11.5-3.8c4.2,0,7.6,1.8,11.6,3.8c4.5,2.3,10,5.1,19.6,7.2l5.8,1.3v5.9
			c0,44.4-32.2,61.9-33.5,62.7L111.6,34.4z M89.4-24.3c1.8,24.9,15.4,37.2,21.9,41.8c6.5-4.8,20.3-17.6,22.2-41.8
			c-8-2.3-13.4-5.1-17.2-7c-1.8-0.9-4.1-2.1-4.8-2.1c-0.7,0-3,1.2-4.7,2.1C102.9-29.5,97.5-26.7,89.4-24.3z"/>
	</g>
	<g id="Heavy-L" transform="matrix(1 0 0 1 2558.42 1556)">
		<path d="M125.9-74c0-16.9-24.9-29.6-57.8-29.6S10.3-90.9,10.3-74c0,16.9,24.9,29.6,57.8,29.6S125.9-57.1,125.9-74z M112.6-74
			c0,6.7-17.3,16.3-44.5,16.3S23.6-67.4,23.6-74c0-6.7,17.3-16.3,44.5-16.3S112.6-80.7,112.6-74z M125.8-54V-74c0-3.7-3-6.6-6.6-6.6
			c-3.7,0-6.6,3-6.6,6.6V-54c0,3.7,3,6.6,6.6,6.6C122.8-47.3,125.8-50.3,125.8-54z M83.3,28.7c3.6-0.5,6.1-3.9,5.6-7.5
			c-0.5-3.6-3.9-6.1-7.5-5.6c-3.9,0.6-8.3,0.9-13.3,0.9c-27.2,0-44.5-9.7-44.5-16.3V-74c0-3.7-3-6.6-6.6-6.6s-6.6,3-6.6,6.6V0.1
			c0,16.9,24.9,29.6,57.8,29.6C73.7,29.7,78.7,29.4,83.3,28.7z M77.7,0c0-3.7-3-6.6-6.6-6.6h-2.9c-27.2,0-44.5-9.7-44.5-16.3
			c0-3.7-3-6.6-6.6-6.6s-6.6,3-6.6,6.6c0,16.9,24.9,29.6,57.8,29.6H71C74.7,6.6,77.7,3.7,77.7,0z M71-25.3c0-3.7-2.7-6.7-6.4-6.9
			c-25.4-0.9-41-10.1-41-16.3c0-3.7-3-6.6-6.6-6.6s-6.6,3-6.6,6.6c0,16.1,22.6,28.5,53.9,29.6C64.2-18.9,71-19.6,71-25.3z
			 M110.4,33.1l-3-1.4C106,31,74.2,15.2,74.2-30.1v-5.4l5.2-1.1c9.7-2.1,15.5-5.1,19.7-7.3c3.8-2,7.1-3.7,11.1-3.7
			c4,0,7.3,1.7,11.2,3.7c4.4,2.3,10,5.1,19.6,7.2l5.2,1.1v5.3c0,43.6-31.6,60.8-32.9,61.6L110.4,33.1z M87.7-24.9
			c1.7,25.8,16,38.4,22.4,42.7c6.4-4.6,20.9-17.7,22.7-42.7c-8.2-2.3-13.6-5.1-17.4-7.1c-2.1-1.1-4.3-2.2-5.1-2.2
			c-0.8,0-2.9,1.1-5,2.2C101.4-30,96-27.2,87.7-24.9z"/>
	</g>
	<g id="Bold-L" transform="matrix(1 0 0 1 2262.89 1556)">
		<path d="M123.7-73.7c0-16.4-24.4-28.7-56.6-28.7S10.4-90,10.4-73.7c0,16.4,24.4,28.7,56.6,28.7S123.7-57.3,123.7-73.7z
			 M111.8-73.7c0,6.9-17.4,16.9-44.8,16.9c-27.8,0-44.8-9.8-44.8-16.9c0-6.9,17.4-16.9,44.8-16.9S111.8-80.5,111.8-73.7z
			 M123.5-53.6v-20c0-3.3-2.7-5.9-5.9-5.9s-5.9,2.7-5.9,5.9v20c0,3.3,2.7,5.9,5.9,5.9S123.5-50.4,123.5-53.6z M82.2,27.6
			c3.2-0.5,5.5-3.5,5-6.7c-0.5-3.2-3.5-5.5-6.7-5c-4.1,0.6-8.5,0.9-13.5,0.9c-27.8,0-44.8-9.8-44.8-16.9v-73.5
			c0-3.3-2.7-5.9-5.9-5.9s-5.9,2.7-5.9,5.9v73.5c0,16.4,24.4,28.7,56.6,28.7C72.6,28.6,77.6,28.2,82.2,27.6z M74-0.3
			c0-3.3-2.7-5.9-5.9-5.9H67c-27.8,0-44.8-9.8-44.8-16.9c0-3.3-2.7-5.9-5.9-5.9s-5.9,2.7-5.9,5.9C10.4-6.7,34.7,5.6,67,5.6h1.1
			C71.4,5.6,74,3,74-0.3z M69.9-25.4c0-3.3-2.5-6-5.8-6.1c-26-0.6-41.9-10.3-41.9-16.9c0-3.3-2.7-5.9-5.9-5.9s-5.9,2.7-5.9,5.9
			c0,15.9,22.5,27.9,53.5,28.7C63.9-19.6,69.9-20.6,69.9-25.4z M108.9,31.8l-2.7-1.3c-1.3-0.6-32.5-16.1-32.5-60.5v-4.8l4.7-1
			c9.7-2.1,15.5-5.1,19.7-7.3c3.7-1.9,6.9-3.6,10.7-3.6c3.8,0,7.1,1.7,10.8,3.6c4.2,2.2,10,5.1,19.6,7.2l4.7,1v4.8
			c0,42.9-31,59.7-32.3,60.4L108.9,31.8z M85.7-25.4c1.6,26.8,16.6,39.5,22.9,43.6c6.3-4.4,21.5-17.7,23.2-43.7
			c-8.4-2.3-13.9-5.1-17.7-7.1c-2.3-1.2-4.4-2.3-5.4-2.3c-1,0-2.9,1-5.3,2.2C99.7-30.6,94.2-27.7,85.7-25.4z"/>
	</g>
	<g id="Semibold-L" transform="matrix(1 0 0 1 1966.99 1556)">
		<path d="M121.7-73.3c0-15.9-23.9-27.8-55.5-27.8s-55.5,12-55.5,27.8s23.9,27.8,55.5,27.8S121.7-57.4,121.7-73.3z M111.2-73.3
			c0,8.2-19.3,17.4-45,17.4s-45-9.2-45-17.4s19.3-17.4,45-17.4S111.2-81.5,111.2-73.3z M121.6-51.7v-21.5c0-2.9-2.3-5.2-5.2-5.2
			c-2.9,0-5.2,2.3-5.2,5.2v21.5c0,2.9,2.3,5.2,5.2,5.2C119.2-46.5,121.6-48.9,121.6-51.7z M83.3,26.1c2.9-0.4,4.8-3.1,4.4-6
			c-0.4-2.9-3.1-4.8-6-4.4c-4.8,0.7-10,1.1-15.5,1.1c-25.8,0-45-9.2-45-17.4v-72.9c0-2.9-2.3-5.2-5.2-5.2s-5.2,2.3-5.2,5.2v72.9
			c0,15.9,23.9,27.8,55.5,27.8C72.2,27.4,78,27,83.3,26.1z M74.9-0.6c0-2.9-2.3-5.2-5.2-5.2h-3.5c-25.8,0-45-9.2-45-17.4
			c0-2.9-2.3-5.2-5.2-5.2s-5.2,2.3-5.2,5.2c0,15.9,23.9,27.8,55.5,27.8h3.5C72.6,4.7,74.9,2.3,74.9-0.6z M71.4-25.6
			c0-2.9-2.3-5.2-5.2-5.2c-25.8,0-45-9.2-45-17.4c0-2.9-2.3-5.2-5.2-5.2s-5.2,2.3-5.2,5.2c0,15.9,23.9,27.8,55.5,27.8
			C69.1-20.4,71.4-22.7,71.4-25.6z M107.7,30.5l-2.4-1.1c-1.3-0.6-31.8-15.8-31.8-59.4v-4.2l4.1-0.9c9.7-2.1,15.5-5.1,19.7-7.2
			c3.6-1.8,6.7-3.4,10.3-3.4c3.7,0,6.8,1.6,10.4,3.5c4.2,2.2,10,5.1,19.6,7.2l4.1,0.9v4.2c0,42.1-30.3,58.6-31.6,59.3L107.7,30.5z
			 M84.1-26c1.4,27.7,17.3,40.6,23.4,44.5c6.2-4.2,22.1-17.7,23.6-44.5c-8.5-2.3-14.1-5.1-17.9-7.1c-2.5-1.3-4.5-2.3-5.6-2.3
			c-1.1,0-3.1,1-5.5,2.3C98.2-31.1,92.7-28.3,84.1-26z"/>
	</g>
	<g id="Medium-L" transform="matrix(1 0 0 1 1670.9 1556)">
		<path d="M120.1-72.9c0-15.3-23.4-26.9-54.3-26.9S11.4-88.2,11.4-72.9S34.8-46,65.8-46S120.1-57.6,120.1-72.9z M111-72.9
			C111-64.4,92.4-55,65.8-55s-45.3-9.4-45.3-17.9c0-8.4,19.4-17.9,45.3-17.9S111-81.3,111-72.9z M120-51.5v-21.3
			c0-2.5-2-4.5-4.5-4.5c-2.5,0-4.5,2-4.5,4.5v21.3c0,2.5,2,4.5,4.5,4.5C117.9-47,120-49,120-51.5z M82.1,25c2.5-0.4,4.2-2.7,3.8-5.2
			c-0.4-2.5-2.7-4.2-5.2-3.8c-4.7,0.7-9.7,1.1-14.9,1.1c-26.7,0-45.3-9.4-45.3-17.9v-72.2c0-2.5-2-4.5-4.5-4.5s-4.5,2-4.5,4.5v72.2
			c0,15.3,23.4,26.9,54.3,26.9C71.5,26.2,77,25.8,82.1,25z M71.3,3.5c2.5-0.2,4.4-2.4,4.2-4.9c-0.2-2.5-2.4-4.4-4.9-4.2
			c-1.5,0.1-3.2,0.1-4.8,0.1c-26.7,0-45.3-9.4-45.3-17.9c0-2.5-2-4.5-4.5-4.5s-4.5,2-4.5,4.5c0,15.3,23.4,26.9,54.3,26.9
			C67.5,3.7,69.4,3.7,71.3,3.5z M70.3-25.7c0-2.5-2-4.5-4.5-4.5c-26.7,0-45.3-9.4-45.3-17.9c0-2.5-2-4.5-4.5-4.5s-4.5,2-4.5,4.5
			c0,15.3,23.4,26.9,54.3,26.9C68.3-21.1,70.3-23.2,70.3-25.7z M106.9,29.2l-2.1-1c-1.3-0.6-31.2-15.4-31.2-58.3v-3.6l3.6-0.8
			c9.7-2.1,15.4-5.1,19.6-7.2c3.6-1.9,6.5-3.3,9.9-3.3c3.5,0,6.3,1.5,10,3.4c4.2,2.2,9.9,5.1,19.6,7.2l3.6,0.8v3.6
			c0,41.3-29.7,57.5-31,58.2L106.9,29.2z M82.8-26.5c1.3,28.7,17.9,41.7,23.9,45.4c6-4,22.7-17.6,24.1-45.4
			c-8.7-2.3-14.3-5.2-18.1-7.1c-2.6-1.3-4.6-2.4-5.9-2.4c-1.3,0-3.1,1-5.8,2.3C97.1-31.7,91.5-28.8,82.8-26.5z"/>
	</g>
	<g id="Regular-L" transform="matrix(1 0 0 1 1374.99 1556)">
		<path d="M118.2-72.5c0-14.8-22.9-26-53.2-26s-53.2,11.2-53.2,26c0,14.8,22.9,26,53.2,26S118.2-57.7,118.2-72.5z M110.5-72.5
			c0,8.7-18.7,18.3-45.5,18.3s-45.5-9.7-45.5-18.3S38.2-90.8,65-90.8S110.5-81.2,110.5-72.5z M118.1-47.9v-24.6
			c0-2.1-1.7-3.8-3.8-3.8s-3.8,1.7-3.8,3.8v24.6c0,2.1,1.7,3.8,3.8,3.8S118.1-45.8,118.1-47.9z M82.2,23.7c2.1-0.3,3.6-2.3,3.2-4.4
			c-0.3-2.1-2.3-3.6-4.4-3.2c-5.7,0.8-11,1.2-16.1,1.2C38.2,17.3,19.5,7.7,19.5-1v-71.5c0-2.1-1.7-3.8-3.8-3.8s-3.8,1.7-3.8,3.8V-1
			c0,14.8,22.9,26,53.2,26C70.5,25,76.2,24.6,82.2,23.7z M70.6,2.6c2.1-0.2,3.7-2,3.6-4.1c-0.2-2.1-2-3.7-4.1-3.6
			C68.3-5,66.8-5,65-5c-26.8,0-45.5-9.7-45.5-18.3c0-2.1-1.7-3.8-3.8-3.8s-3.8,1.7-3.8,3.8c0,14.8,22.9,26,53.2,26
			C66.9,2.7,68.6,2.7,70.6,2.6z M68.9-25.7c0-2.1-1.7-3.8-3.8-3.8c-26.8,0-45.5-9.7-45.5-18.3c0-2.1-1.7-3.8-3.8-3.8
			s-3.8,1.7-3.8,3.8c0,14.8,22.9,26,53.2,26C67.2-21.9,68.9-23.6,68.9-25.7z M105.7,27.9l-1.7-0.8c-1.2-0.6-30.5-15.1-30.5-57.2
			v-3.1l3-0.7c9.7-2.1,15.4-5.1,19.6-7.2c3.5-1.8,6.3-3.2,9.5-3.2c3.3,0,6.1,1.4,9.6,3.3c4.2,2.2,9.9,5.1,19.5,7.2l3,0.7v3.1
			c0,40.5-29.1,56.4-30.4,57.1L105.7,27.9z M81.2-27.1c1.1,29.7,18.6,42.7,24.3,46.2c5.7-3.7,23.3-17.5,24.5-46.2
			c-8.7-2.2-14.2-5-18.3-7.2c-2.7-1.4-4.7-2.4-6.1-2.4c-1.4,0-3.3,1-6,2.4C95.8-32.2,90.1-29.3,81.2-27.1z"/>
	</g>
	<g id="Light-L" transform="matrix(1 0 0 1 1079.2 1556)">
		<path d="M116.2-72.1c0-14.3-22.4-25.1-52-25.1c-29.2,0-52,11-52,25.1c0,14.3,22.4,25.1,52,25.1C93.4-47,116.2-58,116.2-72.1z
			 M109.9-72.1c0,8.9-18.8,18.8-45.7,18.8c-27.3,0-45.7-9.7-45.7-18.8c0-8.9,18.8-18.8,45.7-18.8C91.5-90.9,109.9-81.2,109.9-72.1z
			 M116.2-47.7v-24.4c0-1.8-1.4-3.2-3.2-3.2s-3.2,1.4-3.2,3.2v24.4c0,1.8,1.4,3.2,3.2,3.2S116.2-46,116.2-47.7z M84.8,21.9
			c1.7-0.4,2.8-2,2.4-3.8c-0.4-1.7-2.1-2.8-3.8-2.4c-5.7,1.2-12.2,1.8-19.1,1.8C37,17.5,18.7,7.8,18.7-1.3v-70.8
			c0-1.8-1.4-3.2-3.2-3.2s-3.2,1.4-3.2,3.2v70.8c0,14.3,22.4,25.1,52,25.1C71.8,23.8,78.6,23.2,84.8,21.9z M72,1.5
			c1.7-0.1,3.1-1.6,3-3.3c-0.1-1.7-1.6-3.1-3.3-3c-2.6,0.1-5,0.2-7.3,0.2c-27.3,0-45.7-9.7-45.7-18.8c0-1.8-1.4-3.2-3.2-3.2
			s-3.2,1.4-3.2,3.2c0,14.3,22.4,25.1,52,25.1C66.9,1.8,69.3,1.6,72,1.5z M67.5-25.8c0-1.8-1.4-3.2-3.2-3.2
			C37-29,18.7-38.7,18.7-47.7c0-1.8-1.4-3.2-3.2-3.2s-3.2,1.4-3.2,3.2c0,14.3,22.4,25.1,52,25.1C66.1-22.6,67.5-24,67.5-25.8z
			 M104.6,26.6l-1.4-0.7c-1.2-0.6-29.8-14.8-29.8-56v-2.6l2.5-0.5c9.7-2.1,15.4-5.1,19.6-7.2c3.4-1.8,6.1-3.1,9.1-3.1
			c3.1,0,5.8,1.4,9.2,3.2c4.2,2.1,9.9,5.1,19.5,7.2l2.5,0.5v2.6c0,39.8-28.5,55.3-29.7,56L104.6,26.6z M79.7-27.6
			c1,30.7,19.4,43.8,24.8,47c5.4-3.4,23.9-17.4,24.9-47c-8.9-2.2-14.4-5-18.5-7.2c-2.8-1.4-4.8-2.5-6.3-2.5c-1.5,0-3.5,1-6.2,2.4
			C94.2-32.7,88.7-29.8,79.7-27.6z"/>
	</g>
	<g id="Thin-L" transform="matrix(1 0 0 1 783.716 1556)">
		<path d="M114-71.7c0-13.6-22.3-24.2-50.9-24.2S12.2-85.3,12.2-71.7c0,13.6,22.3,24.2,50.9,24.2S114-58.1,114-71.7z M108.9-71.7
			c0,9.3-18.4,19.2-45.8,19.2s-45.8-9.9-45.8-19.2c0-9.3,18.4-19.2,45.8-19.2S108.9-81,108.9-71.7z M114-47.6v-24.1
			c0-1.4-1.1-2.5-2.5-2.5s-2.5,1.1-2.5,2.5v24.1c0,1.4,1.1,2.5,2.5,2.5S114-46.2,114-47.6z M83.3,20.7c1.4-0.3,2.2-1.6,1.9-3
			c-0.3-1.4-1.6-2.2-3-1.9c-5.7,1.2-12.1,1.8-19.1,1.8c-27.4,0-45.8-9.9-45.8-19.2v-70.1c0-1.4-1.1-2.5-2.5-2.5s-2.5,1.1-2.5,2.5
			v70.1c0,13.6,22.3,24.2,50.9,24.2C70.5,22.6,77.3,22,83.3,20.7z M70.8,0.5c1.4-0.1,2.5-1.3,2.4-2.6c-0.1-1.4-1.3-2.5-2.6-2.4
			c-2.6,0.1-4.9,0.2-7.3,0.2c-27.4,0-45.8-9.9-45.8-19.2c0-1.4-1.1-2.5-2.5-2.5s-2.5,1.1-2.5,2.5c0,13.6,22.3,24.2,50.9,24.2
			C65.7,0.8,68.1,0.7,70.8,0.5z M65.7-25.8c0-1.4-1.1-2.5-2.5-2.5c-27.4,0-45.8-9.9-45.8-19.2c0-1.4-1.1-2.5-2.5-2.5
			s-2.5,1.1-2.5,2.5c0,13.6,22.3,24.2,50.9,24.2C64.6-23.3,65.7-24.5,65.7-25.8z M103,25.3l-1.1-0.5c-1.2-0.6-29.2-14.5-29.2-54.9
			v-2l2-0.4c9.7-2.1,15.4-5,19.5-7.2c3.3-1.7,5.9-3,8.8-3c2.9,0,5.5,1.3,8.8,3.1c4.2,2.1,9.9,5.1,19.5,7.2l2,0.4l0,2
			c0.1,39-27.9,54.2-29.1,54.9L103,25.3z M77.7-28.1c0.8,31.7,20.2,44.9,25.2,47.8c5-3.1,24.6-17.1,25.3-47.8
			c-9-2.2-14.6-5-18.7-7.2c-2.8-1.5-4.9-2.5-6.5-2.5c-1.7,0-3.7,1-6.5,2.5C92.3-33.2,86.8-30.3,77.7-28.1z"/>
	</g>
	<g id="Ultralight-L" transform="matrix(1 0 0 1 487.631 1556)">
		<path d="M111.3-71.3c0-13.1-21.8-23.4-49.7-23.4S11.8-84.4,11.8-71.3c0,14,21.8,23.4,49.7,23.4S111.3-58.2,111.3-71.3z
			 M107.5-71.3c0,10.6-21.1,19.6-46,19.6s-46-9-46-19.6s21.1-19.6,46-19.6S107.5-81.9,107.5-71.3z M111.3-47.4v-23.9
			c0-1-0.8-1.9-1.9-1.9s-1.9,0.8-1.9,1.9v23.9c0,1,0.8,1.9,1.9,1.9S111.3-46.4,111.3-47.4z M81.3,19.5c1-0.2,1.7-1.2,1.4-2.2
			c-0.2-1-1.2-1.6-2.2-1.4c-5.7,1.2-12.1,1.8-19,1.8c-24.9,0-46-9-46-19.6v-69.4c0-1-0.8-1.9-1.9-1.9s-1.9,2.3-1.9,3.3v67.9
			c0,13.1,21.8,23.4,49.7,23.4C68.7,21.5,75.4,20.8,81.3,19.5z M69-0.4c1-0.1,1.8-0.9,1.8-2c-0.1-1-0.9-1.8-2-1.8
			c-2.6,0.1-4.9,0.2-7.2,0.2c-24.9,0-46-9-46-19.6c0-1-0.8-1.9-1.9-1.9s-1.9,0.8-1.9,1.9c0,13.1,21.8,23.4,49.7,23.4
			C64-0.2,66.3-0.3,69-0.4z M63.4-25.9c0-1-0.8-1.9-1.9-1.9c-24.9,0-46-9-46-19.6c0-1-0.8-1.9-1.9-1.9s-1.9,0.8-1.9,1.9
			C11.8-34.3,33.7-24,61.5-24C62.6-24,63.4-24.9,63.4-25.9z M101,24l-0.8-0.4c-0.3-0.1-28.5-14.1-28.5-53.8v-1.5l1.5-0.3
			c9.7-2.1,15.3-5,19.5-7.2c3.3-1.7,5.7-2.9,8.4-2.9c2.7,0,5.1,1.2,8.5,3c4.2,2.1,9.8,5.1,19.4,7.2l1.5,0.3v1.5
			c0,38.2-28.2,53.6-28.5,53.7L101,24z M75.3-28.6c0.6,32.7,21,45.9,25.5,48.5c4.4-2.7,25-17.2,25.6-48.5c-9.1-2.2-14.7-5-18.8-7.1
			c-2.9-1.5-4.9-2.5-6.8-2.5c-1.8,0-3.9,1.1-6.7,2.5C90.2-33.7,84.6-30.8,75.3-28.6z"/>
	</g>
	<g id="Black-M" transform="matrix(1 0 0 1 2871.36 1126)">
		<path d="M99.8-65.6c0-13.5-19.7-23.7-45.7-23.7S8.3-79.1,8.3-65.6c0,13.5,19.7,23.7,45.7,23.7S99.8-52.1,99.8-65.6z M88.3-65.6
			c0,4.9-13.7,12.3-34.3,12.3s-34.3-7.4-34.3-12.3s13.7-12.3,34.3-12.3S88.3-70.5,88.3-65.6z M99.7-50.9v-14.8
			c0-3.2-2.6-5.7-5.7-5.7s-5.7,2.6-5.7,5.7v14.8c0,3.2,2.6,5.7,5.7,5.7S99.7-47.7,99.7-50.9z M63.9,15.5c3.1-0.3,5.4-3.1,5.1-6.3
			c-0.3-3.1-3.1-5.4-6.3-5.1c-3.2,0.3-6,0.5-8.7,0.5c-20.6,0-34.3-7.4-34.3-12.3v-58c0-3.2-2.6-5.7-5.7-5.7s-5.7,2.6-5.7,5.7v58
			C8.3,5.9,28,16,54.1,16C57.1,16,60.3,15.9,63.9,15.5z M57-2.9c1.7-1,2.8-2.8,2.8-4.9c0-2-1-3.7-2.5-4.7c-0.9-0.6-2-1-3.2-1
			c-20.6,0-34.3-7.4-34.3-12.3c0-3.2-2.6-5.7-5.7-5.7s-5.7,2.6-5.7,5.7C8.3-12.2,28-2,54.1-2C55.1-2,56.1-2.3,57-2.9z M56.1-27.6
			c0-3.2-2.4-5.8-5.5-5.9c-18.8-0.7-30.9-7.7-30.9-12.2c0-3.2-2.6-5.7-5.7-5.7s-5.7,2.6-5.7,5.7C8.3-32.9,26-23,50.2-22.1
			C50.3-22.1,56.1-23.2,56.1-27.6z M87.1,18.7l-2.6-1.2c-1.1-0.5-26.2-13-26.2-48.7v-4.6l4.5-1c7.5-1.6,11.8-3.9,15.3-5.6
			c3-1.6,5.6-2.9,8.9-2.9c3.3,0,5.9,1.4,9,2.9c3.5,1.8,7.7,4,15.2,5.6l4.5,1v4.6c0,34.4-24.9,48-26,48.6L87.1,18.7z M69.9-26.8
			c1.4,19.3,12,28.9,17,32.4c5-3.7,15.7-13.7,17.2-32.4c-6.2-1.8-10.4-3.9-13.3-5.4c-1.4-0.7-3.2-1.7-3.8-1.7c-0.5,0-2.3,1-3.7,1.6
			C80.4-30.8,76.2-28.6,69.9-26.8z"/>
	</g>
	<g id="Heavy-M" transform="matrix(1 0 0 1 2575.48 1126)">
		<path d="M98.1-65.3c0-13.1-19.3-23-44.8-23s-44.8,9.9-44.8,23c0,13.1,19.3,23,44.8,23S98.1-52.2,98.1-65.3z M87.8-65.3
			c0,5.2-13.4,12.7-34.5,12.7s-34.5-7.5-34.5-12.7c0-5.2,13.4-12.7,34.5-12.7S87.8-70.5,87.8-65.3z M98-49.8v-15.6
			c0-2.8-2.3-5.2-5.2-5.2s-5.2,2.3-5.2,5.2v15.6c0,2.8,2.3,5.2,5.2,5.2S98-46.9,98-49.8z M65.1,14.4c2.8-0.4,4.8-3,4.3-5.8
			c-0.4-2.8-3-4.8-5.8-4.3c-3.1,0.4-6.4,0.7-10.3,0.7c-21.1,0-34.5-7.5-34.5-12.7v-57.5c0-2.8-2.3-5.2-5.2-5.2s-5.2,2.3-5.2,5.2
			v57.5c0,13.1,19.3,23,44.8,23C57.7,15.1,61.5,14.9,65.1,14.4z M60.7-7.9c0-2.8-2.3-5.2-5.2-5.2h-2.3c-21.1,0-34.5-7.5-34.5-12.7
			c0-2.8-2.3-5.2-5.2-5.2s-5.2,2.3-5.2,5.2c0,13.1,19.3,23,44.8,23h2.3C58.4-2.8,60.7-5.1,60.7-7.9z M55.6-27.5c0-2.8-2.1-5.2-5-5.3
			c-19.7-0.7-31.8-7.8-31.8-12.7c0-2.8-2.3-5.2-5.2-5.2s-5.2,2.3-5.2,5.2c0,12.5,17.6,22.1,41.7,23C50.3-22.6,55.6-23.1,55.6-27.5z
			 M86.1,17.7l-2.3-1.1c-1-0.5-25.7-12.7-25.7-47.8v-4.2l4.1-0.9c7.5-1.6,12-3.9,15.3-5.6c2.9-1.5,5.5-2.8,8.6-2.8
			c3.1,0,5.7,1.3,8.7,2.8c3.4,1.8,7.7,4,15.2,5.6l4,0.9v4.1c0,33.8-24.5,47.2-25.5,47.7L86.1,17.7z M68.5-27.2
			c1.3,20,12.4,29.7,17.4,33.1c5-3.6,16.2-13.7,17.6-33.1c-6.4-1.8-10.6-4-13.5-5.5c-1.6-0.8-3.3-1.7-4-1.7c-0.6,0-2.3,0.9-3.9,1.7
			C79.1-31.2,74.9-29,68.5-27.2z"/>
	</g>
	<g id="Bold-M" transform="matrix(1 0 0 1 2279.69 1126)">
		<path d="M96.4-65c0-12.7-18.9-22.3-43.9-22.3S8.6-77.7,8.6-65c0,12.7,18.9,22.3,43.9,22.3S96.4-52.3,96.4-65z M87.2-65
			c0,5.3-13.5,13.1-34.7,13.1C31-52,17.8-59.6,17.8-65c0-5.3,13.5-13.1,34.7-13.1S87.2-70.4,87.2-65z M96.3-49.5V-65
			c0-2.5-2.1-4.6-4.6-4.6c-2.5,0-4.6,2.1-4.6,4.6v15.5c0,2.5,2.1,4.6,4.6,4.6C94.2-44.9,96.3-47,96.3-49.5z M64.3,13.4
			c2.5-0.4,4.3-2.7,3.9-5.2C67.8,5.7,65.5,4,63,4.3C59.8,4.8,56.4,5,52.5,5C31,5,17.8-2.6,17.8-8.1v-57c0-2.5-2.1-4.6-4.6-4.6
			S8.6-67.6,8.6-65v57c0,12.7,18.9,22.3,43.9,22.3C56.8,14.2,60.7,14,64.3,13.4z M57.9-8.2c0-2.5-2.1-4.6-4.6-4.6h-0.8
			c-21.5,0-34.7-7.6-34.7-13.1c0-2.5-2.1-4.6-4.6-4.6s-4.6,2.1-4.6,4.6c0,12.7,18.9,22.3,43.9,22.3h0.8C55.8-3.6,57.9-5.6,57.9-8.2z
			 M54.7-27.6c0-2.5-1.9-4.6-4.5-4.7c-20.1-0.5-32.5-8-32.5-13.1c0-2.5-2.1-4.6-4.6-4.6S8.6-48,8.6-45.4C8.6-33.1,26-23.8,50-23.2
			C50.1-23.2,54.7-23.9,54.7-27.6z M85,16.7l-2.1-1c-1-0.5-25.2-12.5-25.2-46.9v-3.7l3.6-0.8c7.5-1.6,12-3.9,15.2-5.6
			c2.9-1.5,5.3-2.8,8.3-2.8c3,0,5.5,1.3,8.4,2.8c3.3,1.7,7.7,4,15.2,5.6l3.6,0.8v3.7C112,2,88,15.1,87,15.6L85,16.7z M67-27.7
			C68.2-6.9,79.9,2.9,84.8,6.2c4.9-3.4,16.7-13.7,17.9-33.8c-6.5-1.8-10.7-4-13.7-5.5c-1.7-0.9-3.4-1.7-4.2-1.7
			c-0.7,0-2.3,0.8-4.1,1.7C77.8-31.6,73.5-29.4,67-27.7z"/>
	</g>
	<g id="Semibold-M" transform="matrix(1 0 0 1 1983.62 1126)">
		<path d="M94.8-64.7c0-12.3-18.5-21.6-43-21.6s-43,9.3-43,21.6s18.5,21.6,43,21.6S94.8-52.5,94.8-64.7z M86.7-64.7
			c0,6.4-14.9,13.5-34.9,13.5s-34.9-7.1-34.9-13.5s14.9-13.5,34.9-13.5S86.7-71.1,86.7-64.7z M94.7-48v-16.7c0-2.2-1.8-4-4-4
			c-2.2,0-4,1.8-4,4V-48c0,2.2,1.8,4,4,4C92.9-44,94.7-45.8,94.7-48z M65.1,12.3c2.2-0.3,3.7-2.4,3.4-4.6C68.1,5.5,66,4,63.8,4.3
			c-3.7,0.6-7.8,0.9-12,0.9c-20,0-34.9-7.1-34.9-13.5v-56.5c0-2.2-1.8-4-4-4s-4,1.8-4,4v56.5c0,12.3,18.5,21.6,43,21.6
			C56.5,13.3,60.9,13,65.1,12.3z M58.6-8.4c0-2.2-1.8-4-4-4h-2.7c-20,0-34.9-7.1-34.9-13.5c0-2.2-1.8-4-4-4s-4,1.8-4,4
			c0,12.3,18.5,21.6,43,21.6h2.7C56.8-4.3,58.6-6.1,58.6-8.4z M55.9-27.8c0-2.2-1.8-4-4-4c-20,0-34.9-7.1-34.9-13.5c0-2.2-1.8-4-4-4
			s-4,1.8-4,4c0,12.3,18.5,21.6,43,21.6C54-23.8,55.9-25.6,55.9-27.8z M84,15.7l-1.8-0.9c-1-0.5-24.7-12.2-24.7-46.1v-3.3l3.2-0.7
			c7.5-1.6,12-3.9,15.2-5.6c2.8-1.4,5.2-2.7,8-2.7c2.8,0,5.3,1.2,8.1,2.7c3.3,1.7,7.7,4,15.2,5.6l3.2,0.7v3.3
			c0,32.6-23.5,45.5-24.5,46L84,15.7z M65.7-28.1C66.8-6.6,79.1,3.4,83.8,6.5c4.8-3.3,17.2-13.7,18.3-34.5c-6.6-1.8-10.9-4-13.9-5.5
			c-1.9-1-3.5-1.8-4.3-1.8c-0.9,0-2.4,0.8-4.3,1.8C76.6-32.1,72.3-29.9,65.7-28.1z"/>
	</g>
	<g id="Medium-M" transform="matrix(1 0 0 1 1687.4 1126)">
		<path d="M93.6-64.4c0-11.9-18.1-20.9-42.1-20.9s-42.1,9-42.1,20.9s18.1,20.9,42.1,20.9S93.6-52.5,93.6-64.4z M86.6-64.4
			c0,6.5-14.4,13.8-35.1,13.8s-35.1-7.3-35.1-13.8c0-6.5,15-13.8,35.1-13.8S86.6-71,86.6-64.4z M93.5-47.9v-16.5
			c0-1.9-1.6-3.5-3.5-3.5s-3.5,1.6-3.5,3.5v16.5c0,1.9,1.6,3.5,3.5,3.5S93.5-46,93.5-47.9z M64.2,11.4c1.9-0.3,3.2-2.1,2.9-4
			c-0.3-1.9-2.1-3.2-4-2.9c-3.6,0.6-7.5,0.9-11.6,0.9c-20.7,0-35.1-7.3-35.1-13.8v-56c0-1.9-1.6-3.5-3.5-3.5s-3.5,1.6-3.5,3.5v56
			c0,11.9,18.1,20.9,42.1,20.9C55.9,12.4,60.2,12.1,64.2,11.4z M55.8-5.2C57.7-5.3,59.1-7,59-9c-0.1-1.9-1.8-3.4-3.8-3.2
			c-1.2,0.1-2.5,0.1-3.7,0.1c-20.7,0-35.1-7.3-35.1-13.8c0-1.9-1.6-3.5-3.5-3.5s-3.5,1.6-3.5,3.5C9.4-14,27.5-5.1,51.5-5.1
			C52.8-5.1,54.3-5.1,55.8-5.2z M55-27.8c0-1.9-1.6-3.5-3.5-3.5c-20.7,0-35.1-7.3-35.1-13.8c0-1.9-1.6-3.5-3.5-3.5s-3.5,1.6-3.5,3.5
			c0,11.9,18.1,20.9,42.1,20.9C53.4-24.3,55-25.9,55-27.8z M83.3,14.7l-1.6-0.8c-1-0.5-24.2-12-24.2-45.2v-2.8l2.8-0.6
			c7.5-1.6,12-3.9,15.2-5.6c2.8-1.4,5-2.6,7.7-2.6c2.7,0,4.9,1.2,7.8,2.6c3.3,1.7,7.7,4,15.2,5.6l2.8,0.6v2.8c0,32-23,44.6-24,45.1
			L83.3,14.7z M64.7-28.5c1,22.2,13.9,32.3,18.5,35.2c4.6-3.1,17.6-13.7,18.7-35.2c-6.7-1.8-11.1-4-14-5.5c-2-1-3.6-1.8-4.5-1.8
			c-1,0-2.4,0.8-4.5,1.8C75.8-32.5,71.5-30.3,64.7-28.5z"/>
	</g>
	<g id="Regular-M" transform="matrix(1 0 0 1 1391.32 1126)">
		<path d="M92.1-64.1c0-11.5-17.7-20.2-41.2-20.2S9.7-75.6,9.7-64.1C9.7-52.6,27.4-44,50.9-44S92.1-52.6,92.1-64.1z M86.2-64.1
			c0,6.7-14.5,14.2-35.3,14.2s-35.3-7.5-35.3-14.2c0-6.7,14.5-14.2,35.3-14.2S86.2-70.9,86.2-64.1z M92-45.1v-19.1c0-1.6-1.3-3-3-3
			s-3,1.3-3,3v19.1c0,1.6,1.3,3,3,3S92-43.4,92-45.1z M64.2,10.4c1.6-0.2,2.8-1.8,2.5-3.4c-0.2-1.6-1.8-2.8-3.4-2.5
			c-4.4,0.6-8.5,1-12.5,1C30.1,5.5,15.6-2,15.6-8.7v-55.4c0-1.6-1.3-3-3-3s-3,1.3-3,3v55.4c0,11.5,17.7,20.2,41.2,20.2
			C55.2,11.5,59.5,11.1,64.2,10.4z M55.2-5.9c1.6-0.1,2.9-1.5,2.8-3.2c-0.1-1.6-1.5-2.9-3.2-2.8c-1.3,0.1-2.5,0.1-3.9,0.1
			c-20.8,0-35.3-7.5-35.3-14.2c0-1.6-1.3-3-3-3s-3,1.3-3,3c0,11.5,17.7,20.2,41.2,20.2C52.3-5.8,53.7-5.8,55.2-5.9z M53.9-27.9
			c0-1.6-1.3-3-3-3c-20.8,0-35.3-7.5-35.3-14.2c0-1.6-1.3-3-3-3s-3,1.3-3,3c0,11.5,17.7,20.2,41.2,20.2
			C52.5-24.9,53.9-26.2,53.9-27.9z M82.5,13.7l-1.4-0.6c-1-0.5-23.6-11.7-23.6-44.3v-2.4l2.3-0.5c7.5-1.6,12-3.9,15.2-5.6
			c2.7-1.4,4.9-2.5,7.4-2.5c2.5,0,4.7,1.1,7.4,2.5c3.2,1.7,7.7,4,15.1,5.6l2.3,0.5v2.4c0,31.4-22.6,43.7-23.5,44.3L82.5,13.7z
			 M63.5-28.9c0.9,23,14.4,33.1,18.9,35.8c4.4-2.9,18.1-13.6,19-35.8c-6.8-1.7-11-3.9-14.2-5.5c-2.1-1.1-3.6-1.9-4.7-1.9
			c-1.1,0-2.6,0.8-4.7,1.8C74.7-32.9,70.4-30.7,63.5-28.9z"/>
	</g>
	<g id="Light-M" transform="matrix(1 0 0 1 1095.44 1126)">
		<path d="M90.5-63.8c0-11.1-17.3-19.5-40.3-19.5c-22.6,0-40.3,8.6-40.3,19.5c0,11.1,17.3,19.5,40.3,19.5
			C72.8-44.3,90.5-52.9,90.5-63.8z M85.6-63.8c0,6.9-14.5,14.6-35.4,14.6c-21.2,0-35.4-7.5-35.4-14.6c0-6.9,14.5-14.6,35.4-14.6
			C71.4-78.4,85.6-70.9,85.6-63.8z M90.5-44.9v-18.9c0-1.4-1.1-2.5-2.5-2.5s-2.5,1.1-2.5,2.5v18.9c0,1.4,1.1,2.5,2.5,2.5
			S90.5-43.6,90.5-44.9z M66.1,9c1.3-0.3,2.2-1.6,1.9-2.9c-0.3-1.3-1.6-2.2-2.9-1.9c-4.4,0.9-9.4,1.4-14.8,1.4
			c-21.2,0-35.4-7.5-35.4-14.6v-54.9c0-1.4-1.1-2.5-2.5-2.5s-2.5,1.1-2.5,2.5v54.9c0,11.1,17.3,19.5,40.3,19.5
			C56,10.5,61.4,10,66.1,9z M56.2-6.8c1.4-0.1,2.4-1.2,2.3-2.6c-0.1-1.4-1.2-2.4-2.6-2.3c-2,0.1-3.8,0.2-5.7,0.2
			c-21.2,0-35.4-7.5-35.4-14.6c0-1.4-1.1-2.5-2.5-2.5s-2.5,1.1-2.5,2.5C9.9-15,27.3-6.6,50.3-6.6C52.2-6.6,54.1-6.7,56.2-6.8z
			 M52.7-27.9c0-1.4-1.1-2.5-2.5-2.5c-21.2,0-35.4-7.5-35.4-14.6c0-1.4-1.1-2.5-2.5-2.5s-2.5,1.1-2.5,2.5
			c0,11.1,17.3,19.5,40.3,19.5C51.6-25.5,52.7-26.6,52.7-27.9z M81.5,12.7l-1.1-0.5c-0.9-0.5-23.1-11.5-23.1-43.4v-2l1.9-0.4
			c7.5-1.6,11.9-3.9,15.2-5.6c2.6-1.4,4.7-2.4,7.1-2.4c2.4,0,4.5,1.1,7.2,2.4c3.2,1.7,7.7,3.9,15.1,5.6l1.9,0.4v2
			c0,30.8-22.1,42.9-23,43.4L81.5,12.7z M62.2-29.3c0.7,23.8,15,34,19.2,36.4c4.2-2.7,18.5-13.5,19.3-36.4
			c-6.9-1.7-11.2-3.9-14.3-5.5c-2.1-1.1-3.7-1.9-4.9-1.9c-1.2,0-2.7,0.8-4.8,1.9C73.4-33.2,69.2-31,62.2-29.3z"/>
	</g>
	<g id="Thin-M" transform="matrix(1 0 0 1 799.828 1126)">
		<path d="M88.6-63.5c0-10.5-17.3-18.8-39.4-18.8S9.7-74,9.7-63.5C9.7-53,27-44.7,49.2-44.7S88.6-53,88.6-63.5z M84.7-63.5
			c0,7.2-14.3,14.9-35.5,14.9s-35.5-7.7-35.5-14.9c0-7.2,14.3-14.9,35.5-14.9S84.7-70.7,84.7-63.5z M88.6-44.8v-18.7
			c0-1.1-0.9-1.9-1.9-1.9s-1.9,0.9-1.9,1.9v18.7c0,1.1,0.9,1.9,1.9,1.9S88.6-43.7,88.6-44.8z M64.8,8.1c1.1-0.2,1.7-1.3,1.5-2.3
			c-0.2-1.1-1.3-1.7-2.3-1.5c-4.4,0.9-9.4,1.4-14.8,1.4C28,5.7,13.7-2,13.7-9.2v-54.3c0-1.1-0.9-1.9-1.9-1.9s-1.9,0.9-1.9,1.9v54.3
			C9.8,1.4,27.1,9.6,49.2,9.6C54.9,9.6,60.2,9.1,64.8,8.1z M55.1-7.5c1.1-0.1,1.9-1,1.8-2c-0.1-1.1-1-1.9-2-1.8
			c-2,0.1-3.8,0.2-5.6,0.2c-21.3,0-35.5-7.7-35.5-14.9c0-1.1-0.9-1.9-1.9-1.9s-1.9,0.9-1.9,1.9c0,10.5,17.3,18.8,39.4,18.8
			C51.2-7.3,53-7.4,55.1-7.5z M51.2-28c0-1.1-0.9-1.9-1.9-1.9c-21.3,0-35.5-7.7-35.5-14.9c0-1.1-0.9-1.9-1.9-1.9s-1.9,0.9-1.9,1.9
			C9.8-34.3,27.1-26,49.2-26C50.3-26,51.2-26.9,51.2-28z M80.1,11.7l-0.9-0.4c-0.9-0.4-22.6-11.2-22.6-42.6v-1.6l1.5-0.3
			c7.5-1.6,11.9-3.9,15.1-5.6c2.5-1.3,4.6-2.4,6.8-2.4c2.3,0,4.3,1,6.9,2.4c3.2,1.7,7.7,3.9,15.1,5.6l1.5,0.3l0,1.6
			c0.1,30.2-21.6,42-22.6,42.5L80.1,11.7z M60.5-29.7C61.1-5.2,76.1,5.1,80,7.3c3.9-2.4,19-13.3,19.6-37c-7-1.7-11.3-3.9-14.5-5.5
			c-2.2-1.1-3.8-1.9-5.1-1.9c-1.3,0-2.9,0.8-5,1.9C71.8-33.7,67.5-31.4,60.5-29.7z"/>
	</g>
	<g id="Ultralight-M" transform="matrix(1 0 0 1 503.679 1126)">
		<path d="M86.2-63.2c0-10.2-16.9-18.1-38.5-18.1s-38.5,8-38.5,18.1c0,10.8,16.9,18.1,38.5,18.1S86.2-53,86.2-63.2z M83.3-63.2
			C83.3-54.9,67-48,47.6-48S12-54.9,12-63.2s16.3-15.2,35.7-15.2S83.3-71.4,83.3-63.2z M86.2-44.7v-18.5c0-0.8-0.6-1.4-1.4-1.4
			c-0.8,0-1.4,0.6-1.4,1.4v18.5c0,0.8,0.6,1.4,1.4,1.4C85.5-43.2,86.2-43.9,86.2-44.7z M63,7.2c0.8-0.2,1.3-0.9,1.1-1.7
			c-0.2-0.8-0.9-1.3-1.7-1.1C58,5.3,53,5.8,47.6,5.8C28.3,5.8,12-1.2,12-9.4v-53.8c0-0.8-0.6-1.4-1.4-1.4c-0.8,0-1.4,1.8-1.4,2.6
			v52.7C9.1,0.7,26,8.7,47.6,8.7C53.2,8.7,58.4,8.2,63,7.2z M53.4-8.3c0.8,0,1.4-0.7,1.4-1.5c0-0.8-0.7-1.4-1.5-1.4
			c-2,0.1-3.8,0.2-5.6,0.2C28.3-11,12-17.9,12-26.2c0-0.8-0.6-1.4-1.4-1.4c-0.8,0-1.4,0.6-1.4,1.4C9.1-16,26-8.1,47.6-8.1
			C49.5-8.1,51.4-8.2,53.4-8.3z M49.1-28c0-0.8-0.6-1.4-1.4-1.4c-19.3,0-35.7-7-35.7-15.2c0-0.8-0.6-1.4-1.4-1.4
			c-0.8,0-1.4,0.6-1.4,1.4c0,10.2,16.9,18.1,38.5,18.1C48.4-26.6,49.1-27.2,49.1-28z M78.2,10.7l-0.7-0.3
			c-0.2-0.1-22.1-11-22.1-41.7v-1.2l1.1-0.2c7.5-1.6,11.9-3.9,15.1-5.6c2.6-1.3,4.4-2.3,6.5-2.3c2.1,0,4,1,6.6,2.3
			c3.2,1.7,7.6,3.9,15,5.5l1.1,0.2v1.2c0,29.6-21.8,41.5-22.1,41.7L78.2,10.7z M58.3-30.1C58.8-4.8,74.6,5.5,78.1,7.4
			C81.5,5.3,97.5-5.9,98-30.1c-7.1-1.7-11.4-3.9-14.6-5.5c-2.2-1.1-3.8-2-5.2-2c-1.4,0-3,0.8-5.2,2C69.8-34.1,65.5-31.8,58.3-30.1z"
			/>
	</g>
	<g id="Black-S" transform="matrix(1 0 0 1 2884.57 696)">
		<path d="M78.4-58.9c0-10.6-15.4-18.5-35.8-18.5s-35.8,8-35.8,18.5c0,10.6,15.4,18.5,35.8,18.5S78.4-48.4,78.4-58.9z M69.4-58.9
			c0,3.8-10.7,9.6-26.8,9.6s-26.8-5.8-26.8-9.6s10.7-9.6,26.8-9.6S69.4-62.8,69.4-58.9z M78.3-47.4v-11.6c0-2.5-2-4.5-4.5-4.5
			s-4.5,2-4.5,4.5v11.6c0,2.5,2,4.5,4.5,4.5S78.3-44.9,78.3-47.4z M50.3,4.6c2.5-0.3,4.2-2.5,4-4.9c-0.3-2.5-2.5-4.2-4.9-4
			c-2.5,0.3-4.7,0.4-6.8,0.4c-16.1,0-26.8-5.8-26.8-9.6v-45.4c0-2.5-2-4.5-4.5-4.5s-4.5,2-4.5,4.5v45.4C6.8-3,22.2,5,42.6,5
			C45,5,47.4,4.9,50.3,4.6z M44.9-9.8c1.3-0.8,2.2-2.2,2.2-3.8c0-1.5-0.8-2.9-2-3.7c-0.7-0.5-1.6-0.8-2.5-0.8
			c-16.1,0-26.8-5.8-26.8-9.6c0-2.5-2-4.5-4.5-4.5s-4.5,2-4.5,4.5c0,10.6,15.4,18.5,35.8,18.5C43.4-9.2,44.2-9.4,44.9-9.8z
			 M44.2-29.2c0-2.5-1.8-4.5-4.3-4.6c-14.7-0.5-24.2-6-24.2-9.5c0-2.5-2-4.5-4.5-4.5s-4.5,2-4.5,4.5c0,10,13.8,17.8,32.8,18.5
			C39.6-24.9,44.2-25.7,44.2-29.2z M68.5,7.1l-2-1C65.6,5.7,45.9-4.1,45.9-32v-3.6l3.5-0.8c5.9-1.3,9.2-3,11.9-4.4
			c2.4-1.2,4.4-2.3,7-2.3c2.6,0,4.6,1.1,7,2.3c2.7,1.4,6.1,3.1,11.9,4.4l3.5,0.8v3.6c0,26.9-19.5,37.6-20.4,38L68.5,7.1z M55-28.6
			c1.1,15.1,9.4,22.6,13.3,25.4c3.9-2.9,12.3-10.7,13.5-25.4c-4.9-1.4-8.1-3.1-10.4-4.3c-1.1-0.5-2.5-1.3-2.9-1.3
			c-0.4,0-1.8,0.7-2.9,1.3C63.2-31.7,59.9-30,55-28.6z"/>
	</g>
	<g id="Heavy-S" transform="matrix(1 0 0 1 2588.47 696)">
		<path d="M77.1-58.7c0-10.3-15.1-18-35.1-18S7-69,7-58.7c0,10.3,15.1,18,35.1,18S77.1-48.5,77.1-58.7z M69.1-58.7
			c0,4-10.5,9.9-27,9.9s-27-5.9-27-9.9s10.5-9.9,27-9.9S69.1-62.8,69.1-58.7z M77-46.5v-12.2c0-2.2-1.8-4-4-4c-2.2,0-4,1.8-4,4v12.2
			c0,2.2,1.8,4,4,4C75.2-42.5,77-44.3,77-46.5z M51.3,3.7c2.2-0.3,3.7-2.4,3.4-4.6c-0.3-2.2-2.4-3.7-4.6-3.4c-2.4,0.4-5,0.5-8,0.5
			c-16.5,0-27-5.9-27-9.9v-45c0-2.2-1.8-4-4-4s-4,1.8-4,4v45C7-3.4,22,4.3,42,4.3C45.5,4.3,48.5,4.1,51.3,3.7z M47.8-13.8
			c0-2.2-1.8-4-4-4H42c-16.5,0-27-5.9-27-9.9c0-2.2-1.8-4-4-4s-4,1.8-4,4C7-17.5,22-9.8,42-9.8h1.8C46-9.8,47.8-11.6,47.8-13.8z
			 M43.8-29.1c0-2.2-1.7-4.1-3.9-4.2C24.5-33.8,15-39.4,15-43.2c0-2.2-1.8-4-4-4s-4,1.8-4,4c0,9.8,13.7,17.3,32.7,18
			C39.7-25.2,43.8-25.7,43.8-29.1z M67.7,6.3l-1.8-0.9C65,5,45.8-4.5,45.8-32v-3.3l3.2-0.7c5.9-1.3,9.4-3.1,11.9-4.4
			c2.3-1.2,4.3-2.2,6.7-2.2c2.5,0,4.5,1,6.8,2.2c2.7,1.4,6.1,3.1,11.9,4.4l3.2,0.7v3.2c0,26.5-19.2,36.9-20,37.4L67.7,6.3z
			 M53.9-28.9C55-13.2,63.7-5.6,67.5-3c3.9-2.8,12.7-10.7,13.8-25.9c-5-1.4-8.3-3.1-10.6-4.3c-1.3-0.7-2.6-1.3-3.1-1.3
			c-0.5,0-1.8,0.7-3,1.3C62.3-32,59-30.3,53.9-28.9z"/>
	</g>
	<g id="Bold-S" transform="matrix(1 0 0 1 2292.43 696)">
		<path d="M75.8-58.5c0-9.9-14.8-17.4-34.4-17.4S7.1-68.4,7.1-58.5c0,9.9,14.8,17.4,34.4,17.4S75.8-48.5,75.8-58.5z M68.6-58.5
			c0,4.2-10.6,10.2-27.2,10.2c-16.8,0-27.2-6-27.2-10.2c0-4.2,10.6-10.2,27.2-10.2S68.6-62.7,68.6-58.5z M75.7-46.3v-12.2
			c0-2-1.6-3.6-3.6-3.6s-3.6,1.6-3.6,3.6v12.2c0,2,1.6,3.6,3.6,3.6S75.7-44.3,75.7-46.3z M50.7,3c2-0.3,3.3-2.1,3.1-4.1
			c-0.3-2-2.1-3.3-4.1-3.1c-2.5,0.4-5.2,0.5-8.2,0.5c-16.8,0-27.2-6-27.2-10.2v-44.6c0-2-1.6-3.6-3.6-3.6s-3.6,1.6-3.6,3.6v44.6
			c0,9.9,14.8,17.4,34.4,17.4C44.8,3.6,47.9,3.4,50.7,3z M45.7-13.9c0-2-1.6-3.6-3.6-3.6h-0.6c-16.8,0-27.2-6-27.2-10.2
			c0-2-1.6-3.6-3.6-3.6s-3.6,1.6-3.6,3.6c0,9.9,14.8,17.4,34.4,17.4h0.6C44.1-10.3,45.7-12,45.7-13.9z M43.2-29.2
			c0-2-1.5-3.6-3.5-3.7c-15.8-0.4-25.4-6.2-25.4-10.2c0-2-1.6-3.6-3.6-3.6s-3.6,1.6-3.6,3.6c0,9.6,13.6,17,32.5,17.4
			C39.5-25.7,43.2-26.3,43.2-29.2z M66.9,5.5l-1.6-0.8C64.4,4.3,45.5-5,45.5-32v-2.9l2.8-0.6c5.9-1.3,9.4-3.1,11.9-4.4
			c2.2-1.2,4.2-2.2,6.5-2.2c2.3,0,4.3,1,6.5,2.2c2.6,1.3,6.1,3.1,11.9,4.4l2.8,0.6v2.9c0,26-18.8,36.3-19.6,36.7L66.9,5.5z
			 M52.8-29.2c1,16.3,10.1,24,13.9,26.5c3.8-2.7,13.1-10.7,14.1-26.5c-5.1-1.4-8.4-3.1-10.7-4.3c-1.4-0.7-2.7-1.4-3.3-1.4
			c-0.6,0-1.8,0.6-3.2,1.4C61.3-32.3,57.9-30.6,52.8-29.2z"/>
	</g>
	<g id="Semibold-S" transform="matrix(1 0 0 1 1996.19 696)">
		<path d="M74.6-58.3c0-9.6-14.5-16.9-33.7-16.9S7.2-67.9,7.2-58.3s14.5,16.9,33.7,16.9S74.6-48.6,74.6-58.3z M68.3-58.3
			c0,5-11.7,10.5-27.3,10.5s-27.3-5.6-27.3-10.5s11.7-10.5,27.3-10.5S68.3-63.2,68.3-58.3z M74.5-45.2v-13.1c0-1.8-1.4-3.2-3.2-3.2
			c-1.8,0-3.2,1.4-3.2,3.2v13.1c0,1.8,1.4,3.2,3.2,3.2C73.1-42,74.5-43.4,74.5-45.2z M51.3,2.1C53,1.8,54.2,0.2,54-1.5
			c-0.3-1.7-1.9-2.9-3.6-2.7c-2.9,0.4-6.1,0.7-9.4,0.7C25.3-3.5,13.6-9.1,13.6-14v-44.2c0-1.8-1.4-3.2-3.2-3.2S7.2-60,7.2-58.3V-14
			c0,9.6,14.5,16.9,33.7,16.9C44.6,2.8,48.1,2.6,51.3,2.1z M46.2-14.1c0-1.8-1.4-3.2-3.2-3.2h-2.1c-15.6,0-27.3-5.6-27.3-10.5
			c0-1.8-1.4-3.2-3.2-3.2s-3.2,1.4-3.2,3.2c0,9.6,14.5,16.9,33.7,16.9h2.1C44.8-10.9,46.2-12.4,46.2-14.1z M44.1-29.3
			c0-1.8-1.4-3.2-3.2-3.2c-15.6,0-27.3-5.6-27.3-10.5c0-1.8-1.4-3.2-3.2-3.2S7.2-44.8,7.2-43c0,9.6,14.5,16.9,33.7,16.9
			C42.7-26.2,44.1-27.6,44.1-29.3z M66.1,4.7L64.7,4C63.9,3.7,45.4-5.5,45.4-32v-2.6l2.5-0.5c5.9-1.3,9.4-3.1,11.9-4.4
			c2.2-1.1,4-2.1,6.3-2.1c2.2,0,4.1,1,6.3,2.1c2.6,1.3,6,3.1,11.9,4.4l2.5,0.5v2.6c0,25.5-18.4,35.6-19.2,36L66.1,4.7z M51.8-29.5
			C52.6-12.7,62.2-4.9,66-2.5c3.7-2.6,13.4-10.7,14.3-27c-5.2-1.4-8.5-3.1-10.9-4.3c-1.5-0.8-2.7-1.4-3.4-1.4
			c-0.7,0-1.9,0.6-3.3,1.4C60.4-32.7,57-30.9,51.8-29.5z"/>
	</g>
	<g id="Medium-S" transform="matrix(1 0 0 1 1699.83 696)">
		<path d="M73.7-58c0-9.3-14.2-16.3-33-16.3s-33,7-33,16.3s14.2,16.3,33,16.3S73.7-48.7,73.7-58z M68.2-58
			c0,5.1-11.3,10.8-27.5,10.8S13.2-52.9,13.2-58c0-5.1,11.8-10.8,27.5-10.8S68.2-63.1,68.2-58z M73.6-45.1v-13
			c0-1.5-1.2-2.7-2.7-2.7s-2.7,1.2-2.7,2.7v13c0,1.5,1.2,2.7,2.7,2.7S73.6-43.5,73.6-45.1z M50.6,1.4c1.5-0.2,2.5-1.6,2.3-3.1
			c-0.2-1.5-1.6-2.5-3.1-2.3c-2.8,0.4-5.9,0.7-9.1,0.7c-16.2,0-27.5-5.7-27.5-10.8V-58c0-1.5-1.2-2.7-2.7-2.7S7.7-59.5,7.7-58v43.8
			c0,9.3,14.2,16.3,33,16.3C44.2,2.1,47.5,1.9,50.6,1.4z M44.1-11.6c1.5-0.1,2.6-1.4,2.5-3c-0.1-1.5-1.4-2.7-3-2.5
			C42.7-17,41.7-17,40.7-17c-16.2,0-27.5-5.7-27.5-10.8c0-1.5-1.2-2.7-2.7-2.7s-2.7,1.2-2.7,2.7c0,9.3,14.2,16.3,33,16.3
			C41.8-11.5,42.9-11.5,44.1-11.6z M43.5-29.4c0-1.5-1.2-2.7-2.7-2.7c-16.2,0-27.5-5.7-27.5-10.8c0-1.5-1.2-2.7-2.7-2.7
			s-2.7,1.2-2.7,2.7c0,9.3,14.2,16.3,33,16.3C42.2-26.6,43.5-27.8,43.5-29.4z M65.7,3.9l-1.2-0.6C63.6,3,45.5-6,45.5-32v-2.2
			l2.2-0.5c5.9-1.3,9.4-3.1,11.9-4.4c2.2-1.1,3.9-2,6-2c2.1,0,3.9,0.9,6.1,2c2.5,1.3,6,3.1,11.9,4.4l2.2,0.5v2.2
			c0,25.1-18,34.9-18.8,35.3L65.7,3.9z M51-29.9C51.8-12.5,61.9-4.6,65.6-2.3C69.2-4.7,79.3-13,80.2-29.9c-5.3-1.4-8.7-3.1-11-4.3
			c-1.6-0.8-2.8-1.4-3.6-1.4c-0.8,0-1.9,0.6-3.5,1.4C59.8-33,56.4-31.3,51-29.9z"/>
	</g>
	<g id="Regular-S" transform="matrix(1 0 0 1 1403.58 696)">
		<path d="M72.6-57.8c0-9-13.9-15.8-32.3-15.8S8-66.8,8-57.8C8-48.8,21.9-42,40.3-42S72.6-48.8,72.6-57.8z M67.9-57.8
			c0,5.3-11.3,11.1-27.6,11.1s-27.6-5.9-27.6-11.1S24-68.9,40.3-68.9S67.9-63,67.9-57.8z M72.5-42.8v-14.9c0-1.3-1-2.3-2.3-2.3
			c-1.3,0-2.3,1-2.3,2.3v14.9c0,1.3,1,2.3,2.3,2.3C71.4-40.5,72.5-41.6,72.5-42.8z M50.7,0.6c1.3-0.2,2.2-1.4,2-2.6
			c-0.2-1.3-1.4-2.2-2.6-2c-3.5,0.5-6.7,0.8-9.8,0.8C24-3.3,12.7-9.1,12.7-14.4v-43.4c0-1.3-1-2.3-2.3-2.3S8-59.1,8-57.8v43.4
			c0,9,13.9,15.8,32.3,15.8C43.6,1.4,47.1,1.1,50.7,0.6z M43.6-12.2c1.3-0.1,2.3-1.2,2.2-2.5c-0.1-1.3-1.2-2.3-2.5-2.2
			c-1,0.1-1.9,0.1-3,0.1c-16.3,0-27.6-5.9-27.6-11.1c0-1.3-1-2.3-2.3-2.3S8-29.2,8-27.9c0,9,13.9,15.8,32.3,15.8
			C41.4-12.1,42.5-12.1,43.6-12.2z M42.6-29.4c0-1.3-1-2.3-2.3-2.3c-16.3,0-27.6-5.9-27.6-11.1c0-1.3-1-2.3-2.3-2.3S8-44.1,8-42.8
			c0,9,13.9,15.8,32.3,15.8C41.6-27.1,42.6-28.1,42.6-29.4z M65,3.2l-1.1-0.5C63.2,2.3,45.4-6.5,45.4-32v-1.9l1.8-0.4
			c5.9-1.3,9.4-3.1,11.9-4.4c2.1-1.1,3.8-2,5.8-2c2,0,3.7,0.9,5.8,2c2.5,1.3,6,3.1,11.9,4.4l1.8,0.4v1.9C84.5-7.4,66.8,2.2,66,2.6
			L65,3.2z M50.1-30.2c0.7,18,11.3,25.9,14.8,28.1c3.5-2.3,14.2-10.6,14.9-28.1c-5.3-1.4-8.6-3.1-11.1-4.3C67-35.4,65.8-36,64.9-36
			c-0.8,0-2,0.6-3.6,1.4C59-33.3,55.5-31.6,50.1-30.2z"/>
	</g>
	<g id="Light-S" transform="matrix(1 0 0 1 1107.6 696)">
		<path d="M71.2-57.5c0-8.7-13.6-15.2-31.6-15.2C22-72.8,8.1-66.1,8.1-57.5c0,8.7,13.6,15.2,31.6,15.2C57.4-42.3,71.2-49,71.2-57.5z
			 M67.4-57.5c0,5.4-11.4,11.4-27.7,11.4c-16.6,0-27.7-5.9-27.7-11.4c0-5.4,11.4-11.4,27.7-11.4C56.2-68.9,67.4-63,67.4-57.5z
			 M71.2-42.7v-14.8c0-1.1-0.9-1.9-1.9-1.9c-1.1,0-1.9,0.9-1.9,1.9v14.8c0,1.1,0.9,1.9,1.9,1.9C70.4-40.8,71.2-41.7,71.2-42.7z
			 M52.2-0.5c1-0.2,1.7-1.2,1.5-2.3c-0.2-1-1.2-1.7-2.3-1.5C47.9-3.5,44-3.2,39.7-3.2C23.2-3.2,12-9.1,12-14.6v-43
			c0-1.1-0.9-1.9-1.9-1.9s-1.9,0.9-1.9,1.9v43c0,8.7,13.6,15.2,31.6,15.2C44.2,0.7,48.4,0.3,52.2-0.5z M44.4-12.9
			c1.1-0.1,1.9-1,1.8-2c-0.1-1.1-1-1.9-2-1.8c-1.6,0.1-3,0.2-4.4,0.2C23.2-16.6,12-22.5,12-28c0-1.1-0.9-1.9-1.9-1.9S8.2-29,8.2-28
			c0,8.7,13.6,15.2,31.6,15.2C41.3-12.7,42.7-12.8,44.4-12.9z M41.7-29.4c0-1.1-0.9-1.9-1.9-1.9C23.2-31.3,12-37.2,12-42.7
			c0-1.1-0.9-1.9-1.9-1.9s-1.9,0.9-1.9,1.9c0,8.7,13.6,15.2,31.6,15.2C40.8-27.5,41.7-28.4,41.7-29.4z M64.2,2.4L63.3,2
			c-0.7-0.4-18.1-9-18.1-34v-1.6l1.5-0.3c5.9-1.3,9.3-3.1,11.9-4.4c2.1-1.1,3.7-1.9,5.6-1.9c1.9,0,3.5,0.8,5.6,1.9
			c2.5,1.3,6,3.1,11.8,4.4l1.5,0.3v1.5c0,24.1-17.3,33.6-18,34L64.2,2.4z M49.1-30.5C49.7-11.9,60.8-3.9,64.1-2
			c3.3-2.1,14.5-10.5,15.1-28.5c-5.4-1.3-8.7-3.1-11.2-4.3c-1.7-0.9-2.9-1.5-3.8-1.5c-0.9,0-2.1,0.6-3.8,1.5
			C57.9-33.6,54.5-31.9,49.1-30.5z"/>
	</g>
	<g id="Thin-S" transform="matrix(1 0 0 1 811.863 696)">
		<path d="M69.6-57.3C69.6-65.5,56-72,38.7-72S7.9-65.5,7.9-57.3c0,8.3,13.6,14.7,30.9,14.7S69.6-49,69.6-57.3z M66.6-57.3
			c0,5.6-11.2,11.7-27.8,11.7s-27.8-6-27.8-11.7c0-5.6,11.2-11.7,27.8-11.7S66.6-62.9,66.6-57.3z M69.6-42.6v-14.6
			c0-0.8-0.7-1.5-1.5-1.5c-0.8,0-1.5,0.7-1.5,1.5v14.6c0,0.8,0.7,1.5,1.5,1.5C68.9-41.1,69.6-41.8,69.6-42.6z M51-1.2
			c0.8-0.2,1.3-1,1.2-1.8c-0.2-0.8-1-1.4-1.8-1.2C46.9-3.5,43-3.1,38.8-3.1C22.2-3.1,11-9.1,11-14.7v-42.5c0-0.8-0.7-1.5-1.5-1.5
			s-1.5,0.7-1.5,1.5v42.5C7.9-6.5,21.5,0,38.8,0C43.2,0,47.3-0.4,51-1.2z M43.4-13.4c0.8,0,1.5-0.8,1.4-1.6c0-0.8-0.8-1.5-1.6-1.4
			c-1.6,0.1-3,0.2-4.4,0.2C22.2-16.3,11-22.4,11-28c0-0.8-0.7-1.5-1.5-1.5S7.9-28.9,7.9-28c0,8.3,13.6,14.7,30.9,14.7
			C40.3-13.3,41.8-13.4,43.4-13.4z M40.3-29.5c0-0.8-0.7-1.5-1.5-1.5C22.2-31,11-37,11-42.6c0-0.8-0.7-1.5-1.5-1.5s-1.5,0.7-1.5,1.5
			c0,8.3,13.6,14.7,30.9,14.7C39.7-27.9,40.3-28.6,40.3-29.5z M62.9,1.6l-0.7-0.3c-0.7-0.3-17.7-8.8-17.7-33.3v-1.2l1.2-0.3
			c5.9-1.3,9.3-3.1,11.9-4.4c2-1,3.6-1.8,5.3-1.8c1.8,0,3.4,0.8,5.4,1.9c2.5,1.3,6,3.1,11.8,4.4l1.2,0.3l0,1.2
			C81.4-8.4,64.3,0.9,63.6,1.2L62.9,1.6z M47.6-30.8c0.5,19.2,12.2,27.2,15.3,29c3-1.9,14.9-10.4,15.3-29c-5.5-1.3-8.8-3.1-11.3-4.3
			c-1.7-0.9-2.9-1.5-4-1.5c-1,0-2.2,0.6-3.9,1.5C56.5-33.9,53.1-32.2,47.6-30.8z"/>
	</g>
	<g id="Ultralight-S" transform="matrix(1 0 0 1 515.649 696)">
		<path d="M67.4-57c0-8-13.3-14.2-30.2-14.2S7.1-65,7.1-57c0,8.5,13.3,14.2,30.2,14.2S67.4-49.1,67.4-57z M65.2-57
			c0,6.5-12.8,11.9-27.9,11.9S9.3-50.6,9.3-57S22.1-69,37.3-69S65.2-63.5,65.2-57z M67.4-42.5V-57c0-0.6-0.5-1.1-1.1-1.1
			s-1.1,0.5-1.1,1.1v14.5c0,0.6,0.5,1.1,1.1,1.1S67.4-41.9,67.4-42.5z M49.3-1.9c0.6-0.1,1-0.7,0.9-1.3c-0.1-0.6-0.7-1-1.3-0.9
			C45.3-3.4,41.5-3,37.3-3C22.1-3,9.3-8.5,9.3-14.9V-57c0-0.6-0.5-1.1-1.1-1.1s-1.1,1.4-1.1,2v41.2c0,8,13.3,14.2,30.2,14.2
			C41.6-0.8,45.7-1.1,49.3-1.9z M41.8-14c0.6,0,1.1-0.6,1.1-1.2c0-0.6-0.6-1.1-1.2-1.1c-1.6,0.1-3,0.1-4.4,0.1
			c-15.1,0-27.9-5.5-27.9-11.9c0-0.6-0.5-1.1-1.1-1.1s-1.1,0.5-1.1,1.1c0,8,13.3,14.2,30.2,14.2C38.7-13.9,40.2-13.9,41.8-14z
			 M38.4-29.5c0-0.6-0.5-1.1-1.1-1.1c-15.1,0-27.9-5.5-27.9-11.9c0-0.6-0.5-1.1-1.1-1.1s-1.1,0.5-1.1,1.1c0,8,13.3,14.2,30.2,14.2
			C37.9-28.4,38.4-28.9,38.4-29.5z M61.2,0.8l-0.5-0.2C60.5,0.5,43.4-8,43.4-32.1V-33l0.9-0.2c5.9-1.3,9.3-3.1,11.8-4.4
			c2-1,3.4-1.8,5.1-1.8c1.7,0,3.1,0.8,5.1,1.8c2.5,1.3,6,3.1,11.8,4.3L79-33v0.9C79-8.9,61.9,0.5,61.7,0.6L61.2,0.8z M45.6-31.2
			C46-11.3,58.4-3.3,61.1-1.7c2.7-1.7,15.2-10.5,15.6-29.4c-5.5-1.3-8.9-3.1-11.4-4.3c-1.7-0.9-3-1.5-4.1-1.5
			c-1.1,0-2.3,0.6-4.1,1.5C54.6-34.2,51.3-32.5,45.6-31.2z"/>
	</g>
</g>
</svg>
