<?xml version="1.0" encoding="utf-8"?>
<!-- Generator: Adobe Illustrator 24.1.1, SVG Export Plug-In . SVG Version: 6.00 Build 0)  -->
<svg version="1.1" id="Layer_1" xmlns="http://www.w3.org/2000/svg" xmlns:xlink="http://www.w3.org/1999/xlink" x="0px" y="0px"
	 viewBox="0 0 3300 2200" style="enable-background:new 0 0 3300 2200;" xml:space="preserve">
<style type="text/css">
	.st0{fill:#FFFFFF;}
	.st1{fill:none;stroke:#000000;stroke-width:0.5;}
	.st2{font-family:'Arial-BoldMT';}
	.st3{font-size:13px;}
	.st4{font-family:'ArialMT';}
	.st5{fill:none;stroke:#00AEEF;stroke-width:0.5;}
	.st6{fill:#27AAE1;}
	.st7{fill:none;stroke:#27AAE1;stroke-width:0.5;}
</style>
<g id="Notes">
	<rect id="artboard" class="st0" width="3300" height="2200"/>
	<line class="st1" x1="263" y1="292" x2="3036" y2="292"/>
	<text transform="matrix(1 0 0 1 263 322)" class="st2 st3">Weight/Scale Variations</text>
	<text transform="matrix(1 0 0 1 534.0632 322)" class="st4 st3">Ultralight</text>
	<text transform="matrix(1 0 0 1 843.7775 322)" class="st4 st3">Thin</text>
	<text transform="matrix(1 0 0 1 1139.035 322)" class="st4 st3">Light</text>
	<text transform="matrix(1 0 0 1 1427.0773 322)" class="st4 st3">Regular</text>
	<text transform="matrix(1 0 0 1 1723.4419 322)" class="st4 st3">Medium</text>
	<text transform="matrix(1 0 0 1 2016.1719 322)" class="st4 st3">Semibold</text>
	<text transform="matrix(1 0 0 1 2326.9705 322)" class="st4 st3">Bold</text>
	<text transform="matrix(1 0 0 1 2618.2659 322)" class="st4 st3">Heavy</text>
	<text transform="matrix(1 0 0 1 2917.5054 322)" class="st4 st3">Black</text>
	<line class="st1" x1="263" y1="1903" x2="3036" y2="1903"/>
	<g transform="matrix(1 0 0 1 263 1933)">
		<path d="M9.2,0.8c4.3,0,7.9-3.6,7.9-7.9S13.5-15,9.2-15s-7.9,3.6-7.9,7.9C1.4-2.7,5,0.8,9.2,0.8z M9.2-0.7C5.7-0.7,2.9-3.5,2.9-7
			c0-3.6,2.8-6.4,6.4-6.4s6.4,2.8,6.4,6.4C15.6-3.5,12.8-0.7,9.2-0.7z M5.7-7.1c0,0.4,0.3,0.7,0.8,0.7h2.1v2.1
			c0,0.4,0.3,0.7,0.7,0.7S10-3.9,10-4.3v-2.1h2.1c0.4,0,0.7-0.3,0.7-0.7c0-0.4-0.3-0.7-0.7-0.7H10v-2.1c0-0.4-0.3-0.8-0.7-0.8
			s-0.7,0.3-0.7,0.8v2.1H6.4C6-7.8,5.7-7.5,5.7-7.1z"/>
	</g>
	<g transform="matrix(1 0 0 1 281.867 1933)">
		<path d="M11.7,2.9c5.4,0,10-4.5,10-10c0-5.4-4.5-10-10-10c-5.4,0-10,4.5-10,10C1.7-1.6,6.3,2.9,11.7,2.9z M11.7,1.3
			C7.1,1.3,3.4-2.4,3.4-7s3.7-8.3,8.3-8.3S20-11.7,20-7.1C20-2.4,16.3,1.3,11.7,1.3z M7.2-7.1c0,0.5,0.3,0.8,0.8,0.8h2.9v2.9
			c0,0.5,0.3,0.8,0.8,0.8s0.8-0.3,0.8-0.8v-2.9h2.9c0.5,0,0.8-0.3,0.8-0.8s-0.3-0.8-0.8-0.8h-2.9v-2.9c0-0.5-0.3-0.8-0.8-0.8
			s-0.8,0.3-0.8,0.8v2.9H8C7.5-7.9,7.2-7.5,7.2-7.1z"/>
	</g>
	<g transform="matrix(1 0 0 1 305.646 1933)">
		<path d="M15,5.7c7,0,12.7-5.8,12.7-12.7c0-7-5.8-12.7-12.7-12.7C8-19.8,2.3-14,2.3-7.1C2.3-0.1,8,5.7,15,5.7z M15,3.8
			C8.9,3.8,4.1-1,4.1-7S8.9-17.9,15-17.9c6,0,10.9,4.9,10.9,10.9S21,3.8,15,3.8z M9.2-7.1c0,0.5,0.4,0.9,0.9,0.9H14v4
			c0,0.5,0.4,0.9,0.9,0.9s0.9-0.4,0.9-0.9v-4h4c0.5,0,0.9-0.4,0.9-0.9S20.3-8,19.8-8h-4v-3.9c0-0.5-0.4-0.9-0.9-0.9S14-12.4,14-11.9
			V-8h-3.9C9.6-8,9.2-7.6,9.2-7.1z"/>
	</g>
	<text transform="matrix(1 0 0 1 263 1953)" class="st2 st3">Design Variations</text>
	<text transform="matrix(1 0 0 1 263 1971)" class="st4 st3">Symbols are supported in up to nine weights and three scales.</text>
	<text transform="matrix(1 0 0 1 263 1989)" class="st4 st3">For optimal layout with text and other symbols, vertically align</text>
	<text transform="matrix(1 0 0 1 263 2007)" class="st4 st3">symbols with the adjacent text.</text>
	<line class="st5" x1="776" y1="1919" x2="776" y2="1933"/>
	<g transform="matrix(1 0 0 1 776 1933)">
		<path d="M3.3,0.2c0.5,0,0.8-0.2,1-0.7L5.5-4h5.8l1.3,3.4C12.7,0,13,0.2,13.5,0.2s0.9-0.3,0.9-0.8c0-0.2,0-0.3-0.1-0.5L9.7-13.4
			C9.4-14,9-14.3,8.4-14.3s-1,0.3-1.2,0.9L2.6-1.2C2.5-1,2.5-0.8,2.5-0.6C2.5-0.1,2.8,0.2,3.3,0.2z M6-5.5l2.4-6.6l0,0l2.4,6.6
			C10.8-5.5,6-5.5,6-5.5z"/>
	</g>
	<line class="st5" x1="793.2" y1="1919" x2="793.2" y2="1933"/>
	<text transform="matrix(1 0 0 1 776 1953)" class="st2 st3">Margins</text>
	<text transform="matrix(1 0 0 1 776 1971)" class="st4 st3">Leading and trailing margins on the left and right side of each symbol</text>
	<text transform="matrix(1 0 0 1 776 1989)" class="st4 st3">can be adjusted by modifying the x-location of the margin guidelines.</text>
	<text transform="matrix(1 0 0 1 776 2007)" class="st4 st3">Modifications are automatically applied proportionally to all</text>
	<text transform="matrix(1 0 0 1 776 2025)" class="st4 st3">scales and weights.</text>
	<g transform="matrix(1 0 0 1 1289 1933)">
		<path d="M2.8,1.9l1.7,1.7c0.9,0.9,1.8,0.8,2.8-0.2L18-8.4l-1-1L6.4,2.3C6,2.7,5.7,2.8,5.2,2.3L4.1,1.1C3.6,0.7,3.7,0.3,4.1,0
			l11.5-10.8l-1-1L3-0.9C2.1,0,2,1,2.8,1.9z M9.3-16.3c-0.4,0.4-0.4,1-0.2,1.4s0.7,0.6,1.3,0.4c1.5-0.3,3-0.4,4.4,0.5l-0.6,1.5
			c-0.3,0.8-0.2,1.4,0.4,2l2.3,2.3c0.5,0.5,0.9,0.5,1.5,0.4l1-0.2l0.7,0.7v0.6c0,0.5,0.1,0.9,0.6,1.4l0.8,0.7c0.5,0.5,1.1,0.5,1.6,0
			L26-7.5C26.5-8,26.4-8.6,26-9l-1-0.9c-0.5-0.5-0.9-0.6-1.3-0.6h-0.6l-0.6-0.6l0.2-1.1c0.1-0.6,0-1-0.6-1.6L19.9-16
			C16.6-19.3,12.1-19.2,9.3-16.3z M10.8-16c2.4-1.8,5.7-1.5,7.9,0.8l2.4,2.4c0.2,0.2,0.3,0.4,0.2,0.8L21-10.5L22.5-9l1-0.1
			c0.3,0,0.3,0,0.5,0.2l0.6,0.6l-2.4,2.4l-0.6-0.6c-0.2-0.2-0.2-0.3-0.2-0.5l0.1-1L20-9.5l-1.5,0.3c-0.3,0.1-0.5,0-0.7-0.2l-2-2
			c-0.3-0.2-0.3-0.4-0.1-0.8l0.9-2.1C15-15.8,13-16.4,11-15.8C10.7-15.7,10.6-15.9,10.8-16z"/>
	</g>
	<text transform="matrix(1 0 0 1 1289 1953)" class="st2 st3">Exporting</text>
	<text transform="matrix(1 0 0 1 1289 1971)" class="st4 st3">Symbols should be outlined when exporting to ensure the</text>
	<text transform="matrix(1 0 0 1 1289 1989)" class="st4 st3">design is preserved when submitting to Xcode.</text>
	<text id="template-version" transform="matrix(1 0 0 1 2952.4204 1933)" class="st4 st3">Template v.4.0</text>
	<text transform="matrix(1 0 0 1 2865.4575 1951)" class="st4 st3">Requires Xcode 14 or greater</text>
	<text id="descriptive-name" transform="matrix(1 0 0 1 2905.9302 1969)" class="st4 st3">Generated from fp.usb</text>
	<text transform="matrix(1 0 0 1 2912.4175 1987)" class="st4 st3">Typeset at 100 points</text>
	<text transform="matrix(1 0 0 1 263 726)" class="st4 st3">Small</text>
	<text transform="matrix(1 0 0 1 263 1156)" class="st4 st3">Medium</text>
	<text transform="matrix(1 0 0 1 263 1586)" class="st4 st3">Large</text>
</g>
<g id="Guides">
	<g id="H-reference" transform="matrix(1 0 0 1 339 696)">
		<path class="st6" d="M1,0h2.6l25.7-67.1H30v-3.3h-1.9L1,0z M11.7-24.5H47l-0.8-2.2H12.4L11.7-24.5z M55.1,0h2.6L30.6-70.5h-1.2
			v3.3L55.1,0z"/>
	</g>
	<line id="Baseline-S" class="st7" x1="263" y1="696" x2="3036" y2="696"/>
	<line id="Capline-S" class="st7" x1="263" y1="625.5" x2="3036" y2="625.5"/>
	<g id="H-reference_1_" transform="matrix(1 0 0 1 339 1126)">
		<path class="st6" d="M1,0h2.6l25.7-67.1H30v-3.3h-1.9L1,0z M11.7-24.5H47l-0.8-2.2H12.4L11.7-24.5z M55.1,0h2.6L30.6-70.5h-1.2
			v3.3L55.1,0z"/>
	</g>
	<line id="Baseline-M" class="st7" x1="263" y1="1126" x2="3036" y2="1126"/>
	<line id="Capline-M" class="st7" x1="263" y1="1055.5" x2="3036" y2="1055.5"/>
	<g id="H-reference_2_" transform="matrix(1 0 0 1 339 1556)">
		<path class="st6" d="M1,0h2.6l25.7-67.1H30v-3.3h-1.9L1,0z M11.7-24.5H47l-0.8-2.2H12.4L11.7-24.5z M55.1,0h2.6L30.6-70.5h-1.2
			v3.3L55.1,0z"/>
	</g>
	<line id="Baseline-L" class="st7" x1="263" y1="1556" x2="3036" y2="1556"/>
	<line id="Capline-L" class="st7" x1="263" y1="1485.5" x2="3036" y2="1485.5"/>
	<line id="left-margin-Regular-M" class="st5" x1="1391.3" y1="1030.8" x2="1391.3" y2="1150.1"/>
	<line id="right-margin-Regular-M" class="st5" x1="1508.4" y1="1030.8" x2="1508.4" y2="1150.1"/>
</g>
<g id="Symbols">
	<g id="Black-L" transform="matrix(1 0 0 1 2854.19 1556)">
		<path d="M86.3-86.3H72v99h14.3V-86.3z M86.4-7.7l28.4-17.1c4.2-2.6,6.7-7.3,6.7-12.2v-10.1h-14.3l0,10.2l-6.4,3.8L72.1-15.8V13
			h14.3V-7.7z M86.3-1.5L56.7-22.1L51.1-26v-7H36.8v7c0,4.7,2.1,8.9,5.9,11.6L72,5.9v6.8h14.3V-1.5z M61.7-43.6
			c0-9.8-7.9-17.7-17.7-17.7s-17.7,7.9-17.7,17.7S34.2-25.9,44-25.9S61.7-33.8,61.7-43.6z M47.4-43.6c0,1.9-1.5,3.4-3.4,3.4
			s-3.4-1.5-3.4-3.4c0-1.9,1.5-3.4,3.4-3.4C45.8-47,47.4-45.4,47.4-43.6z M132-75.5H96.7v35.4H132V-75.5z M111-61.2h6.8v6.8H111
			V-61.2z M104.6-79.5l-25.3-46.1L52.6-79L104.6-79.5z M80.6-93.6l-3.1,0l1.6-2.8L80.6-93.6z M103.9,30.3
			c0-13.6-11.1-24.7-24.7-24.7S54.5,16.7,54.5,30.3S65.6,55,79.2,55S103.9,43.9,103.9,30.3z M89.6,30.3c0,5.7-4.7,10.4-10.4,10.4
			c-5.6,0-10.4-4.8-10.4-10.4c0-5.7,4.7-10.4,10.4-10.4C84.9,19.9,89.6,24.6,89.6,30.3z"/>
	</g>
	<g id="Heavy-L" transform="matrix(1 0 0 1 2558.42 1556)">
		<path d="M84.7-86.4h-13v98.7h13V-86.4z M84.8-8.5l28.6-17.2c4-2.5,6.4-6.9,6.4-11.6v-10.1h-13v10.1c0,0.2-0.1,0.5-0.2,0.5
			L71.8-15.8v28.3h13V-8.5z M84.7-1.7L49.8-26c-0.1-0.1-0.1-0.2-0.1-0.4v-7h-13v7c0,4.4,2,8.5,5.6,11L71.7,5.1v7.1h13V-1.7z
			 M60.2-43.9c0-9.4-7.6-17-17-17s-17,7.6-17,17c0,9.4,5.6,17,17,17C52.6-26.9,60.2-34.5,60.2-43.9z M47.2-43.9c0,2.3-1.8,4-4,4
			c-2.3,0-4-1.8-4-4c0-2.3,1.8-4,4-4C45.4-47.9,47.2-46.1,47.2-43.9z M130.3-75h-34v34h34V-75z M109.3-62.1h8v8h-8V-62.1z
			 M102.6-80.3l-24.1-44L52.9-79.8L102.6-80.3z M80.8-93.1L75.4-93l2.7-4.8L80.8-93.1z M78.3,53.7c-13.2,0-24-10.8-24-24
			s10.8-24,24-24s24,10.8,24,24S91.5,53.7,78.3,53.7z M78.3,18.7c-6.1,0-11,4.9-11,11c0,6,5,11,11,11c6.1,0,11-4.9,11-11
			C89.3,23.8,84.3,18.7,78.3,18.7z"/>
	</g>
	<g id="Bold-L" transform="matrix(1 0 0 1 2262.89 1556)">
		<path d="M82.8-86.6H71.2v98.3h11.6V-86.6z M83-9.3l28.8-17.3c3.8-2.3,6.1-6.6,6.1-11v-10.1h-11.6v10.1c0,0.4-0.3,0.9-0.5,1.1
			L71.4-15.8V12H83V-9.3z M82.8-1.8l-34.5-24c-0.1-0.1-0.4-0.3-0.4-1v-7H36.3v7c0,4.2,1.9,8,5.3,10.5L71.2,4.3v7.4h11.6V-1.8z
			 M58.4-44.2c0-9-7.3-16.3-16.3-16.3c-9,0-16.3,7.3-16.3,16.3c0,9,7.3,16.3,16.3,16.3C51.1-27.9,58.4-35.2,58.4-44.2z M46.8-44.2
			c0,2.6-2,4.7-4.7,4.7s-4.7-2-4.7-4.7s2-4.7,4.7-4.7S46.8-46.8,46.8-44.2z M128.3-74.6H95.8V-42h32.6V-74.6z M107.4-62.9h9.3v9.3
			h-9.3V-62.9z M100.2-81.1l-23-41.9L53-80.7L100.2-81.1z M80.7-92.6l-7.5,0.1l3.9-6.8L80.7-92.6z M100.4,29.2
			c0-12.8-10.4-23.3-23.3-23.3S53.9,16.3,53.9,29.2s10.4,23.3,23.3,23.3S100.4,42,100.4,29.2z M88.8,29.2c0,6.4-5.2,11.6-11.6,11.6
			s-11.6-5.2-11.6-11.6s5.2-11.6,11.6-11.6C83.5,17.5,88.8,22.9,88.8,29.2z"/>
	</g>
	<g id="Semibold-L" transform="matrix(1 0 0 1 1966.99 1556)">
		<path d="M81.3-86.7H71v98h10.3V-86.7z M81.4-10.1l29-17.5c3.6-2.2,5.8-6.2,5.8-10.4v-10h-10.3v10c0,0.7-0.4,1.3-0.9,1.6L71.1-15.9
			v27.4h10.3V-10.1z M81.3-1.9L47.2-25.7c-0.6-0.4-0.7-1-0.7-1.5v-7H36.2v7c0,4,1.8,7.6,5,9.9L71,3.5v7.7h10.3V-1.9z M56.9-44.5
			c0-8.6-7-15.6-15.6-15.6s-15.6,7-15.6,15.6s8.4,17,15.6,15.6C49.9-28.9,56.9-35.9,56.9-44.5z M46.6-44.5c0,3-2.3,5.3-5.3,5.3
			c-3,0-5.3-2.3-5.3-5.3c0-3,2.3-5.3,5.3-5.3C44.3-49.8,46.6-47.5,46.6-44.5z M126.6-74.1H95.4V-43h31.2V-74.1z M105.7-63.8h10.6
			v10.6h-10.6V-63.8z M98.2-81.9l-21.8-39.8L53.3-81.5L98.2-81.9z M80.9-92.1L71.2-92l5-8.7L80.9-92.1z M98.8,28.6
			c0-12.4-10.1-22.5-22.5-22.5S53.7,16.2,53.7,28.6s10.1,22.5,22.5,22.5S98.8,41,98.8,28.6z M88.5,28.6c0,6.7-5.5,12.2-12.2,12.2
			S64,35.3,64,28.6s5.5-12.2,12.2-12.2C82.9,16.4,88.5,22,88.5,28.6z"/>
	</g>
	<g id="Medium-L" transform="matrix(1 0 0 1 1670.9 1556)">
		<path d="M80.2-86.9h-9v97.6h9V-86.9z M80.2-10.9l29.2-17.6c3.4-2.1,5.4-5.9,5.4-9.8v-10h-9v10c0,0.9-0.5,1.8-1.2,2.2L71.2-15.9V11
			h9V-10.9z M80.2-2L46.5-25.5c-0.8-0.6-0.9-1.4-0.9-2v-6.9h-9v6.9c0,3.8,1.7,7.2,4.7,9.3L71.2,2.7v8h9V-2z M55.8-44.8
			c0-8.2-6.7-14.9-14.9-14.9S26.1-53,26.1-44.8c0,8.2,6.7,14.9,14.9,14.9S55.8-36.6,55.8-44.8z M46.9-44.8c0,3.3-2.6,5.9-5.9,5.9
			s-5.9-2.6-5.9-5.9c0-3.3,2.6-5.9,5.9-5.9S46.9-48.1,46.9-44.8z M125.2-73.7H95.5v29.8h29.8V-73.7z M104.4-64.7h11.8v11.8h-11.8
			V-64.7z M96.5-82.7l-20.7-37.7L53.9-82.3L96.5-82.7z M81.4-91.6l-11.9,0.1l6.1-10.6L81.4-91.6z M97.5,28c0-12-9.8-21.8-21.8-21.8
			S53.9,16,53.9,28s9.8,21.8,21.8,21.8S97.5,40.1,97.5,28z M88.5,28c0,7.1-5.8,12.8-12.8,12.8S62.9,35.1,62.9,28s5.8-12.8,12.8-12.8
			C82.7,15.2,88.5,21.1,88.5,28z"/>
	</g>
	<g id="Regular-L" transform="matrix(1 0 0 1 1374.99 1556)">
		<path d="M78.7-87h-7.7v97.2h7.7V-87z M78.7-11.6l29.4-17.7c3.2-2,5.1-5.5,5.1-9.3v-10h-7.7v10c0,1.1-0.6,2.2-1.5,2.7L71.1-16v26.4
			h7.7V-11.6z M78.7-2.1L45.4-25.4c-0.8-0.6-1.2-1.4-1.2-2.5v-6.9h-7.7v6.9c0,3.6,1.6,6.7,4.5,8.8l30.1,21v8.3h7.7V-2.1z M54.4-45.1
			c0-7.8-6.4-14.2-14.2-14.2c-7.8,0-14.2,6.4-14.2,14.2c0,7.8,6.4,14.2,14.2,14.2C48.1-30.9,54.4-37.3,54.4-45.1z M46.8-45.1
			c0,3.7-2.9,6.5-6.5,6.5c-3.7,0-6.5-2.9-6.5-6.5c0-3.7,2.9-6.5,6.5-6.5C43.9-51.6,46.8-48.8,46.8-45.1z M123.6-73.2H95.2v28.4h28.4
			V-73.2z M102.9-65.6h13v13h-13V-65.6z M94.5-83.5L75-119.1l-20.7,36L94.5-83.5z M81.6-91.1l-14,0.1l7.2-12.5L81.6-91.1z M96,27.5
			c0-11.6-9.5-21.1-21.1-21.1s-21.1,9.5-21.1,21.1s9.5,21.1,21.1,21.1S96,39.1,96,27.5z M88.3,27.5c0,7.4-6,13.4-13.4,13.4
			c-7.4,0-13.4-6-13.4-13.4S67.5,14,74.9,14C82.3,14,88.3,20.1,88.3,27.5z"/>
	</g>
	<g id="Light-L" transform="matrix(1 0 0 1 1079.2 1556)">
		<path d="M77.1-87.2h-6.4V9.7h6.4V-87.2z M77.2-12.4l29.6-17.8c3-1.9,4.8-5.2,4.8-8.7v-9.9h-6.4v9.9c0,1.3-0.7,2.6-1.8,3.3L70.9-16
			v26h6.4V-12.4z M77.1-2.3l-32.9-23c-0.9-0.7-1.5-1.7-1.5-3v-6.9h-6.4v6.9c0,3.3,1.5,6.3,4.2,8.2L70.7,1.1v8.6h6.4V-2.3z M53-45.4
			c0-7.4-6.1-13.5-13.5-13.5s-13.5,6.1-13.5,13.5s6.1,13.5,13.5,13.5S53-38,53-45.4z M46.7-45.4c0,4-3.1,7.1-7.1,7.1
			s-7.1-3.1-7.1-7.1s3.1-7.1,7.1-7.1C43.5-52.5,46.7-49.3,46.7-45.4z M121.9-72.8h-27v27h27V-72.8z M101.3-66.4h14.3v14.3h-14.3
			V-66.4z M92.5-84.3l-18.4-33.6L54.7-83.9L92.5-84.3z M81.8-90.6l-16.1,0.2l8.3-14.4L81.8-90.6z M94.4,26.9
			c0-11.2-9.1-20.4-20.4-20.4s-20.4,9.1-20.4,20.4s9.1,20.4,20.4,20.4S94.4,38.1,94.4,26.9z M88.1,26.9c0,7.7-6.3,14-14,14
			s-14-6.3-14-14s6.3-14,14-14S88.1,19.2,88.1,26.9z"/>
	</g>
	<g id="Thin-L" transform="matrix(1 0 0 1 783.716 1556)">
		<path d="M75.2-87.3h-5.1V9.2h5.1V-87.3z M75.4-13.2l29.7-17.9c2.8-1.7,4.5-4.8,4.5-8.1v-9.9h-5.1v9.9c0,1.5-0.8,3-2.1,3.8
			L70.3-16.1V9.5h5.1V-13.2z M75.2-2.4L42.7-25.1c-1.1-0.8-1.7-2-1.7-3.5v-6.8h-5.1v6.8c0,3.1,1.4,5.9,3.9,7.7L70.2,0.3v8.9h5.1
			V-2.4z M51.2-45.7c0-7.1-5.7-12.8-12.8-12.8s-12.8,5.7-12.8,12.8c0,7.1,5.7,12.8,12.8,12.8S51.2-38.6,51.2-45.7z M46.1-45.7
			c0,4.3-3.4,7.7-7.7,7.7s-7.7-3.4-7.7-7.7s3.4-7.7,7.7-7.7S46.1-50,46.1-45.7z M119.9-72.3H94.3v25.6h25.6V-72.3z M99.3-67.3h15.5
			v15.5H99.3V-67.3z M90.2-85.1l-17.3-31.5L54.6-84.7L90.2-85.1z M81.6-90l-18.2,0.2l9.4-16.3L81.6-90z M92.4,26.3
			c0-10.8-8.8-19.7-19.7-19.7s-19.7,8.8-19.7,19.7S61.9,46,72.7,46S92.4,37.2,92.4,26.3z M87.3,26.3c0,8-6.5,14.6-14.6,14.6
			s-14.6-6.5-14.6-14.6s6.5-14.6,14.6-14.6S87.3,18.3,87.3,26.3z"/>
	</g>
	<g id="Ultralight-L" transform="matrix(1 0 0 1 487.631 1556)">
		<path d="M73-87.4h-3.8V8.7H73V-87.4z M73-14l29.9-18c2.6-1.6,4.2-4.5,4.2-7.5v-9.8h-3.8v9.8c0,1.7-0.9,3.4-2.4,4.3L69.2-16.1V8.9
			H73V-14z M73-2.5L40.9-24.9c-1.3-0.9-2-2.4-2-4v-6.8h-3.8v6.8c0,2.9,1.3,5.5,3.6,7.1L69.2-0.6v9.2H73V-2.5z M49-46
			c0-6.7-5.4-12.1-12.1-12.1S24.8-52.7,24.8-46s5.4,12.1,12.1,12.1S49-39.3,49-46z M45.2-46c0,4.7-3.7,8.3-8.3,8.3
			c-4.7,0-8.3-3.7-8.3-8.3c0-4.7,3.7-8.3,8.3-8.3C41.6-54.3,45.2-50.7,45.2-46z M117.3-71.9H93.1v24.2h24.2V-71.9z M96.9-68.1h16.7
			v16.7H96.9V-68.1z M87.3-85.8l-16.2-29.5L54.1-85.5L87.3-85.8z M80.9-89.5l-20.3,0.2l10.4-18.2L80.9-89.5z M90.1,25.7
			c0-10.4-8.5-18.9-18.9-18.9s-18.9,8.5-18.9,18.9s8.5,18.9,18.9,18.9S90.1,36.2,90.1,25.7z M86.3,25.7c0,8.4-6.8,15.2-15.2,15.2
			S56,34.1,56,25.7s6.8-15.2,15.2-15.2S86.3,17.4,86.3,25.7z"/>
	</g>
	<g id="Black-M" transform="matrix(1 0 0 1 2871.36 1126)">
		<path d="M67.5-74.8H56.4V1.9h11.1V-74.8z M67.6-13.9l22-13.3c3.2-2,5.2-5.6,5.2-9.4v-7.9H83.7l0,7.9l-4.9,3L56.5-20.2V2.1h11.1
			V-13.9z M67.5-9.1l-22.9-16l-4.3-3v-5.4H29.2v5.4c0,3.6,1.7,6.9,4.6,9L56.4-3.3v5.3h11.1V-9.1z M48.4-41.7
			c0-7.6-6.2-13.7-13.7-13.7S21-49.3,21-41.7S27.2-28,34.7-28S48.4-34.2,48.4-41.7z M37.3-41.7c0,1.5-1.2,2.6-2.6,2.6
			s-2.6-1.2-2.6-2.6c0-1.5,1.2-2.6,2.6-2.6C36.1-44.4,37.3-43.2,37.3-41.7z M103-66.4H75.6V-39H103V-66.4z M86.7-55.3h5.2v5.2h-5.2
			V-55.3z M81.7-69.5l-19.6-35.8L41.4-69.2L81.7-69.5z M63.1-80.5l-2.4,0l1.3-2.2L63.1-80.5z M81.2,15.5C81.2,5,72.6-3.6,62.1-3.6
			S42.9,5,42.9,15.5s8.6,19.2,19.2,19.2S81.2,26.1,81.2,15.5z M70.1,15.5c0,4.4-3.6,8.1-8.1,8.1c-4.4,0-8.1-3.7-8.1-8.1
			c0-4.4,3.6-8.1,8.1-8.1C66.4,7.5,70.1,11.2,70.1,15.5z"/>
	</g>
	<g id="Heavy-M" transform="matrix(1 0 0 1 2575.48 1126)">
		<path d="M66.2-74.9h-10V1.5h10V-74.9z M66.3-14.5l22.2-13.4c3.1-1.9,5-5.4,5-9v-7.8h-10v7.8c0,0.2-0.1,0.4-0.2,0.4l-27,16.2V1.7
			h10V-14.5z M66.2-9.2l-27-18.9c-0.1-0.1-0.1-0.2-0.1-0.3v-5.4H29v5.4c0,3.4,1.6,6.6,4.4,8.5L56.1-4v5.5h10V-9.2z M47.2-42
			c0-7.3-5.9-13.2-13.2-13.2S20.9-49.2,20.9-42c0,7.3,4.3,13.2,13.2,13.2C41.3-28.8,47.2-34.7,47.2-42z M37.1-42
			c0,1.7-1.4,3.1-3.1,3.1s-3.1-1.4-3.1-3.1s1.4-3.1,3.1-3.1C35.7-45.1,37.1-43.7,37.1-42z M101.5-66.1H75.2v26.3h26.3V-66.1z
			 M85.3-56h6.2v6.2h-6.2V-56z M80-70.2l-18.7-34.1L41.6-69.8L80-70.2z M63.2-80.1L59-80l2.1-3.7L63.2-80.1z M61.3,33.7
			c-10.3,0-18.6-8.3-18.6-18.6S51-3.5,61.3-3.5s18.6,8.3,18.6,18.6S71.5,33.7,61.3,33.7z M61.3,6.6c-4.7,0-8.5,3.8-8.5,8.5
			c0,4.6,3.9,8.5,8.5,8.5c4.7,0,8.5-3.8,8.5-8.5C69.8,10.5,65.9,6.6,61.3,6.6z"/>
	</g>
	<g id="Bold-M" transform="matrix(1 0 0 1 2279.69 1126)">
		<path d="M64.8-75.1h-9V1.2h9V-75.1z M64.9-15.1l22.3-13.4c2.9-1.8,4.7-5.1,4.7-8.5v-7.8h-9v7.8c0,0.3-0.2,0.7-0.4,0.8l-26.6,16
			V1.4h9V-15.1z M64.8-9.3L38-27.9c-0.1-0.1-0.3-0.2-0.3-0.7v-5.4h-9v5.4c0,3.3,1.5,6.2,4.1,8.1l22.9,16v5.8h9V-9.3z M45.8-42.2
			c0-7-5.7-12.6-12.6-12.6c-7,0-12.6,5.7-12.6,12.6c0,7,5.7,12.6,12.6,12.6C40.2-29.6,45.8-35.3,45.8-42.2z M36.8-42.2
			c0,2-1.6,3.6-3.6,3.6c-2,0-3.6-1.6-3.6-3.6s1.6-3.6,3.6-3.6C35.2-45.8,36.8-44.2,36.8-42.2z M100-65.7H74.8v25.2H100V-65.7z
			 M83.8-56.7H91v7.2h-7.2V-56.7z M78.2-70.8l-17.8-32.5L41.6-70.5L78.2-70.8z M63.1-79.7l-5.8,0.1l3-5.2L63.1-79.7z M78.4,14.7
			c0-9.9-8.1-18-18-18s-18,8.1-18,18s8.1,18,18,18S78.4,24.6,78.4,14.7z M69.4,14.7c0,5-4,9-9,9s-9-4-9-9s4-9,9-9
			C65.2,5.7,69.4,9.8,69.4,14.7z"/>
	</g>
	<g id="Semibold-M" transform="matrix(1 0 0 1 1983.62 1126)">
		<path d="M63.5-75.2h-8V0.8h8V-75.2z M63.6-15.7l22.5-13.5c2.8-1.7,4.5-4.8,4.5-8.1v-7.8h-8v7.8c0,0.5-0.3,1-0.7,1.3L55.6-20.3V1h8
			V-15.7z M63.5-9.4L37.1-27.8c-0.4-0.3-0.5-0.8-0.5-1.1v-5.4h-8v5.4c0,3.1,1.4,5.9,3.9,7.7l23,16.1v6h8V-9.4z M44.6-42.4
			c0-6.7-5.4-12.1-12.1-12.1s-12.1,5.4-12.1,12.1S27-29.3,32.6-30.4C39.2-30.4,44.6-35.8,44.6-42.4z M36.6-42.4
			c0,2.3-1.8,4.1-4.1,4.1c-2.3,0-4.1-1.8-4.1-4.1c0-2.3,1.8-4.1,4.1-4.1C34.9-46.5,36.6-44.7,36.6-42.4z M98.6-65.4H74.5v24.2h24.2
			V-65.4z M82.5-57.4h8.2v8.2h-8.2V-57.4z M76.6-71.4l-16.9-30.9L41.8-71.1L76.6-71.4z M63.2-79.3l-7.5,0.1l3.9-6.7L63.2-79.3z
			 M77.1,14.2c0-9.6-7.8-17.5-17.5-17.5S42.1,4.6,42.1,14.2S50,31.7,59.6,31.7S77.1,23.9,77.1,14.2z M69.1,14.2
			c0,5.2-4.3,9.5-9.5,9.5s-9.5-4.3-9.5-9.5s4.3-9.5,9.5-9.5C64.7,4.8,69.1,9.1,69.1,14.2z"/>
	</g>
	<g id="Medium-M" transform="matrix(1 0 0 1 1687.4 1126)">
		<path d="M62.7-75.3h-7V0.4h7V-75.3z M62.7-16.4L85.3-30c2.6-1.6,4.2-4.5,4.2-7.6v-7.8h-7v7.8c0,0.7-0.4,1.4-0.9,1.7L55.7-20.3V0.6
			h7V-16.4z M62.7-9.5L36.6-27.7c-0.6-0.4-0.7-1.1-0.7-1.5v-5.4h-7v5.4c0,2.9,1.3,5.6,3.7,7.2L55.7-5.9v6.2h7V-9.5z M43.8-42.7
			c0-6.4-5.2-11.5-11.5-11.5S20.7-49,20.7-42.7c0,6.4,5.2,11.5,11.5,11.5S43.8-36.3,43.8-42.7z M36.8-42.7c0,2.6-2,4.6-4.6,4.6
			s-4.6-2-4.6-4.6c0-2.6,2-4.6,4.6-4.6S36.8-45.2,36.8-42.7z M97.6-65.1H74.5V-42h23.1V-65.1z M81.5-58.1h9.1v9.1h-9.1V-58.1z
			 M75.3-72.1l-16-29.2L42.3-71.8L75.3-72.1z M63.6-78.9l-9.2,0.1l4.7-8.2L63.6-78.9z M76.1,13.8c0-9.3-7.6-16.9-16.9-16.9
			S42.3,4.5,42.3,13.8s7.6,16.9,16.9,16.9S76.1,23.1,76.1,13.8z M69.1,13.8c0,5.5-4.5,9.9-9.9,9.9s-9.9-4.5-9.9-9.9s4.5-9.9,9.9-9.9
			C64.6,3.9,69.1,8.4,69.1,13.8z"/>
	</g>
	<g id="Regular-M" transform="matrix(1 0 0 1 1391.32 1126)">
		<path d="M61.5-75.4h-5.9V0h5.9V-75.4z M61.5-17l22.8-13.7c2.4-1.5,4-4.3,4-7.2v-7.7h-5.9v7.7c0,0.8-0.5,1.7-1.1,2.1L55.6-20.3V0.2
			h5.9V-17z M61.5-9.6l-25.8-18c-0.6-0.4-0.9-1.1-0.9-1.9v-5.3h-5.9v5.3c0,2.8,1.2,5.2,3.5,6.8L55.6-6.5V0h5.9V-9.6z M42.7-42.9
			c0-6.1-4.9-11-11-11c-6.1,0-11,4.9-11,11c0,6.1,4.9,11,11,11C37.8-31.9,42.7-36.8,42.7-42.9z M36.8-42.9c0,2.8-2.2,5.1-5.1,5.1
			c-2.8,0-5.1-2.2-5.1-5.1c0-2.8,2.2-5.1,5.1-5.1C34.5-48,36.8-45.7,36.8-42.9z M96.3-64.7h-22v22h22V-64.7z M80.2-58.8h10.1v10.1
			H80.2V-58.8z M73.7-72.7l-15.1-27.6l-16,27.9L73.7-72.7z M63.8-78.5l-10.9,0.1l5.6-9.7L63.8-78.5z M74.9,13.4
			c0-9-7.3-16.3-16.3-16.3S42.2,4.3,42.2,13.4s7.3,16.3,16.3,16.3S74.9,22.4,74.9,13.4z M69,13.4c0,5.7-4.7,10.4-10.4,10.4
			s-10.4-4.7-10.4-10.4S52.8,3,58.5,3S69,7.6,69,13.4z"/>
	</g>
	<g id="Light-M" transform="matrix(1 0 0 1 1095.44 1126)">
		<path d="M60.2-75.5h-4.9v75.1h4.9V-75.5z M60.3-17.6l22.9-13.8c2.3-1.4,3.7-4,3.7-6.7v-7.7H82v7.7c0,1-0.6,2-1.4,2.5L55.3-20.4
			v20.1h4.9V-17.6z M60.2-9.7L34.7-27.5c-0.7-0.5-1.1-1.4-1.1-2.3v-5.3h-4.9v5.3c0,2.6,1.2,4.9,3.2,6.4L55.2-7.1v6.7h4.9V-9.7z
			 M41.5-43.1c0-5.8-4.7-10.5-10.5-10.5s-10.5,4.7-10.5,10.5s4.7,10.5,10.5,10.5S41.5-37.4,41.5-43.1z M36.6-43.1
			c0,3.1-2.4,5.5-5.5,5.5c-3.1,0-5.5-2.4-5.5-5.5s2.4-5.5,5.5-5.5C34.1-48.7,36.6-46.2,36.6-43.1z M94.9-64.4H74v20.9h20.9V-64.4z
			 M78.9-59.4H90v11.1H78.9V-59.4z M72.1-73.3l-14.3-26L42.8-73L72.1-73.3z M63.8-78.1L51.3-78l6.4-11.2L63.8-78.1z M73.6,12.9
			c0-8.7-7.1-15.8-15.8-15.8S42,4.2,42,12.9s7.1,15.8,15.8,15.8S73.6,21.6,73.6,12.9z M68.7,12.9c0,6-4.9,10.9-10.9,10.9
			s-10.9-4.9-10.9-10.9S51.8,2.1,57.8,2.1S68.7,6.9,68.7,12.9z"/>
	</g>
	<g id="Thin-M" transform="matrix(1 0 0 1 799.828 1126)">
		<path d="M58.6-75.6h-3.9v74.8h3.9V-75.6z M58.7-18.2l23.1-13.9c2.1-1.3,3.5-3.8,3.5-6.3V-46h-3.9v7.7c0,1.2-0.6,2.3-1.6,2.9
			l-24.9,15v19.8h3.9V-18.2z M58.6-9.8L33.4-27.4C32.5-28,32-29,32-30.1v-5.3h-3.9v5.3c0,2.4,1.1,4.6,3,5.9L54.6-7.7v6.9h3.9V-9.8z
			 M39.9-43.4c0-5.5-4.5-9.9-9.9-9.9S20-48.8,20-43.4c0,5.5,4.5,9.9,9.9,9.9S39.9-37.9,39.9-43.4z M36-43.4c0,3.4-2.6,6-6,6
			s-6-2.6-6-6s2.6-6,6-6S36-46.7,36-43.4z M93.2-64H73.3v19.9h19.9V-64z M77.2-60.1h12v12h-12V-60.1z M70.1-73.9L56.7-98.3
			L42.6-73.6L70.1-73.9z M63.5-77.7l-14.1,0.1l7.3-12.7L63.5-77.7z M71.8,12.5c0-8.4-6.8-15.2-15.2-15.2S41.4,4.1,41.4,12.5
			s6.8,15.2,15.2,15.2S71.8,20.9,71.8,12.5z M67.9,12.5c0,6.2-5.1,11.3-11.3,11.3s-11.3-5.1-11.3-11.3S50.4,1.2,56.6,1.2
			S67.9,6.2,67.9,12.5z"/>
	</g>
	<g id="Ultralight-M" transform="matrix(1 0 0 1 503.679 1126)">
		<path d="M56.5-75.7h-2.9v74.5h2.9V-75.7z M56.5-18.8l23.2-14c2-1.2,3.2-3.5,3.2-5.8v-7.6H80v7.6c0,1.4-0.7,2.6-1.8,3.3L53.6-20.4
			V-1h2.9V-18.8z M56.5-9.9L31.6-27.3c-1-0.7-1.5-1.8-1.5-3.1v-5.3h-2.9v5.3c0,2.2,1,4.2,2.8,5.5L53.6-8.4v7.2h2.9V-9.9z M37.9-43.6
			c0-5.2-4.2-9.4-9.4-9.4s-9.4,4.2-9.4,9.4s4.2,9.4,9.4,9.4S37.9-38.4,37.9-43.6z M35-43.6c0,3.6-2.8,6.5-6.5,6.5
			c-3.6,0-6.5-2.8-6.5-6.5c0-3.6,2.8-6.5,6.5-6.5C32.1-50,35-47.2,35-43.6z M90.9-63.7H72.1v18.8h18.8V-63.7z M75-60.7h12.9v12.9H75
			V-60.7z M67.6-74.4L55.1-97.3L41.8-74.2L67.6-74.4z M62.7-77.3l-15.7,0.1L55-91.3L62.7-77.3z M69.7,12c0-8.1-6.6-14.7-14.7-14.7
			S40.4,3.9,40.4,12S47,26.7,55,26.7S69.7,20.1,69.7,12z M66.8,12c0,6.5-5.3,11.7-11.7,11.7S43.3,18.5,43.3,12S48.6,0.3,55,0.3
			S66.8,5.5,66.8,12z"/>
	</g>
	<g id="Black-S" transform="matrix(1 0 0 1 2884.57 696)">
		<path d="M53.1-66.1h-8.7V-6h8.7V-66.1z M53.2-18.4l17.2-10.4c2.5-1.6,4.1-4.4,4.1-7.4v-6.2h-8.7l0,6.2l-3.9,2.3L44.5-23.3v17.5
			h8.7V-18.4z M53.1-14.7L35.2-27.2l-3.4-2.4v-4.3h-8.7v4.3c0,2.8,1.3,5.4,3.6,7l17.7,12.4V-6h8.7V-14.7z M38.2-40.2
			c0-5.9-4.8-10.7-10.7-10.7s-10.7,4.8-10.7,10.7s4.8,10.7,10.7,10.7S38.2-34.3,38.2-40.2z M29.5-40.2c0,1.2-0.9,2.1-2.1,2.1
			c-1.2,0-2.1-0.9-2.1-2.1c0-1.2,0.9-2.1,2.1-2.1C28.5-42.3,29.5-41.3,29.5-40.2z M80.9-59.6H59.4v21.5h21.5V-59.6z M68.1-50.9h4.1
			v4.1h-4.1V-50.9z M64.3-62L48.9-90L32.7-61.7L64.3-62z M49.7-70.6l-1.9,0l1-1.7L49.7-70.6z M63.8,4.6c0-8.3-6.7-15-15-15
			s-15,6.7-15,15s6.7,15,15,15S63.8,12.9,63.8,4.6z M55.1,4.6c0,3.5-2.8,6.3-6.3,6.3c-3.4,0-6.3-2.9-6.3-6.3c0-3.5,2.8-6.3,6.3-6.3
			C52.3-1.7,55.1,1.2,55.1,4.6z"/>
	</g>
	<g id="Heavy-S" transform="matrix(1 0 0 1 2588.47 696)">
		<path d="M52.1-66.2h-7.9v59.9h7.9V-66.2z M52.2-18.9l17.4-10.5c2.4-1.5,3.9-4.2,3.9-7v-6.1h-7.9v6.1c0,0.1-0.1,0.3-0.1,0.3
			L44.3-23.4v17.2h7.9V-18.9z M52.1-14.8L30.9-29.5c-0.1,0-0.1-0.1-0.1-0.3v-4.2H23v4.2c0,2.7,1.2,5.1,3.4,6.7l17.8,12.4v4.3h7.9
			V-14.8z M37.2-40.4c0-5.7-4.6-10.3-10.3-10.3s-10.3,4.6-10.3,10.3c0,5.7,3.4,10.3,10.3,10.3C32.6-30.1,37.2-34.7,37.2-40.4z
			 M29.4-40.4c0,1.4-1.1,2.4-2.4,2.4c-1.4,0-2.4-1.1-2.4-2.4c0-1.4,1.1-2.4,2.4-2.4C28.2-42.9,29.4-41.7,29.4-40.4z M79.8-59.3H59.2
			v20.6h20.6V-59.3z M67.1-51.4h4.9v4.9h-4.9V-51.4z M63-62.5L48.3-89.2l-15.5,27L63-62.5z M49.7-70.3l-3.2,0l1.7-2.9L49.7-70.3z
			 M48.2,18.8c-8,0-14.6-6.5-14.6-14.6s6.5-14.6,14.6-14.6S62.8-3.8,62.8,4.3S56.3,18.8,48.2,18.8z M48.2-2.4c-3.7,0-6.7,3-6.7,6.7
			c0,3.6,3.1,6.7,6.7,6.7c3.7,0,6.7-3,6.7-6.7C54.9,0.6,51.9-2.4,48.2-2.4z"/>
	</g>
	<g id="Bold-S" transform="matrix(1 0 0 1 2292.43 696)">
		<path d="M51-66.3H44v59.7H51V-66.3z M51.1-19.4l17.5-10.5c2.3-1.4,3.7-4,3.7-6.7v-6.1h-7.1v6.1c0,0.3-0.2,0.6-0.3,0.7L44.1-23.4
			v16.9h7.1V-19.4z M51-14.8L30.1-29.4c-0.1,0-0.2-0.2-0.2-0.6v-4.2h-7.1v4.2c0,2.6,1.2,4.9,3.2,6.3L44-11.2v4.5H51V-14.8z
			 M36.2-40.6c0-5.4-4.4-9.9-9.9-9.9c-5.4,0-9.9,4.4-9.9,9.9c0,5.4,4.4,9.9,9.9,9.9C31.8-30.7,36.2-35.2,36.2-40.6z M29.2-40.6
			c0,1.6-1.2,2.8-2.8,2.8c-1.6,0-2.8-1.2-2.8-2.8c0-1.6,1.2-2.8,2.8-2.8C27.9-43.4,29.2-42.2,29.2-40.6z M78.7-59H58.9v19.8h19.8
			V-59z M65.9-52h5.6v5.6h-5.6V-52z M61.6-63L47.7-88.4L32.9-62.7L61.6-63z M49.7-70l-4.6,0l2.4-4.1L49.7-70z M61.7,3.9
			c0-7.8-6.3-14.1-14.1-14.1S33.5-3.9,33.5,3.9S39.8,18,47.6,18S61.7,11.7,61.7,3.9z M54.7,3.9c0,3.9-3.2,7.1-7.1,7.1
			s-7.1-3.2-7.1-7.1s3.2-7.1,7.1-7.1C51.4-3.1,54.7,0.1,54.7,3.9z"/>
	</g>
	<g id="Semibold-S" transform="matrix(1 0 0 1 1996.19 696)">
		<path d="M50.1-66.4h-6.3V-7h6.3V-66.4z M50.1-19.9l17.6-10.6c2.2-1.3,3.5-3.8,3.5-6.3v-6.1H65v6.1c0,0.4-0.2,0.8-0.5,1L43.9-23.4
			v16.6h6.3V-19.9z M50.1-14.9L29.4-29.4C29-29.6,29-30,29-30.2v-4.2h-6.3v4.2c0,2.4,1.1,4.6,3.1,6l18,12.6V-7h6.3V-14.9z
			 M35.3-40.8c0-5.2-4.2-9.5-9.5-9.5s-9.5,4.2-9.5,9.5s5.1,10.3,9.5,9.5C31.1-31.3,35.3-35.6,35.3-40.8z M29-40.8
			c0,1.8-1.4,3.2-3.2,3.2c-1.8,0-3.2-1.4-3.2-3.2c0-1.8,1.4-3.2,3.2-3.2C27.6-44,29-42.6,29-40.8z M77.6-58.8H58.7v18.9h18.9V-58.8z
			 M64.9-52.5h6.4v6.4h-6.4V-52.5z M60.3-63.5L47.1-87.7l-14,24.4L60.3-63.5z M49.8-69.7l-5.9,0.1l3-5.3L49.8-69.7z M60.7,3.6
			c0-7.5-6.1-13.7-13.7-13.7S33.3-4,33.3,3.6S39.5,17.3,47,17.3S60.7,11.1,60.7,3.6z M54.4,3.6c0,4.1-3.3,7.4-7.4,7.4
			s-7.4-3.3-7.4-7.4s3.3-7.4,7.4-7.4C51-3.8,54.4-0.4,54.4,3.6z"/>
	</g>
	<g id="Medium-S" transform="matrix(1 0 0 1 1699.83 696)">
		<path d="M49.5-66.5H44v59.2h5.4V-66.5z M49.5-20.4L67.2-31c2-1.3,3.3-3.6,3.3-6v-6.1h-5.4v6.1c0,0.5-0.3,1.1-0.7,1.3L44-23.4v16.3
			h5.4V-20.4z M49.5-15L29-29.3c-0.5-0.3-0.6-0.8-0.6-1.2v-4.2H23v4.2c0,2.3,1,4.3,2.9,5.7L44-12.2v4.9h5.4V-15z M34.7-41
			c0-5-4.1-9-9-9s-9,4.1-9,9c0,5,4.1,9,9,9S34.7-36,34.7-41z M29.2-41c0,2-1.6,3.6-3.6,3.6S22.1-39,22.1-41c0-2,1.6-3.6,3.6-3.6
			S29.2-43,29.2-41z M76.8-58.5H58.7v18.1h18.1V-58.5z M64.2-53h7.2v7.2h-7.2V-53z M59.4-64L46.8-86.9L33.5-63.7L59.4-64z
			 M50.2-69.4L43-69.3l3.7-6.5L50.2-69.4z M60,3.2C60-4.1,54.1-10,46.8-10S33.5-4.1,33.5,3.2s5.9,13.2,13.2,13.2S60,10.5,60,3.2z
			 M54.5,3.2c0,4.3-3.5,7.8-7.8,7.8S39,7.5,39,3.2s3.5-7.8,7.8-7.8C51-4.5,54.5-1,54.5,3.2z"/>
	</g>
	<g id="Regular-S" transform="matrix(1 0 0 1 1403.58 696)">
		<path d="M48.6-66.6H44v59h4.7V-66.6z M48.6-20.8l17.8-10.7c1.9-1.2,3.1-3.4,3.1-5.6v-6h-4.7v6c0,0.7-0.4,1.3-0.9,1.7L44-23.5v16.1
			h4.7V-20.8z M48.6-15.1L28.4-29.2c-0.5-0.3-0.7-0.9-0.7-1.5v-4.2H23v4.2c0,2.2,1,4.1,2.7,5.3L44-12.6v5.1h4.7V-15.1z M33.9-41.2
			c0-4.7-3.9-8.6-8.6-8.6c-4.7,0-8.6,3.9-8.6,8.6c0,4.7,3.9,8.6,8.6,8.6C30-32.5,33.9-36.4,33.9-41.2z M29.2-41.2c0,2.2-1.7,4-4,4
			c-2.2,0-4-1.7-4-4c0-2.2,1.7-4,4-4C27.5-45.1,29.2-43.4,29.2-41.2z M75.8-58.2H58.6V-41h17.2V-58.2z M63.3-53.6h7.9v7.9h-7.9
			V-53.6z M58.2-64.5L46.3-86.1L33.8-64.2L58.2-64.5z M50.4-69L41.9-69l4.4-7.6L50.4-69z M59.1,2.9c0-7.1-5.7-12.8-12.8-12.8
			S33.5-4.2,33.5,2.9s5.7,12.8,12.8,12.8S59.1,10,59.1,2.9z M54.4,2.9c0,4.5-3.7,8.1-8.1,8.1s-8.1-3.7-8.1-8.1s3.7-8.1,8.1-8.1
			S54.4-1.6,54.4,2.9z"/>
	</g>
	<g id="Light-S" transform="matrix(1 0 0 1 1107.6 696)">
		<path d="M47.5-66.7h-3.9v58.8h3.9V-66.7z M47.6-21.3l17.9-10.8c1.8-1.1,2.9-3.1,2.9-5.3v-6h-3.9v6c0,0.8-0.4,1.6-1.1,2L43.7-23.5
			v15.8h3.9V-21.3z M47.5-15.1l-20-13.9c-0.6-0.4-0.9-1.1-0.9-1.8v-4.2h-3.9v4.2c0,2,0.9,3.8,2.5,5l18.3,12.8v5.3h3.9V-15.1z
			 M32.9-41.3c0-4.5-3.7-8.2-8.2-8.2s-8.2,3.7-8.2,8.2s3.7,8.2,8.2,8.2S32.9-36.8,32.9-41.3z M29-41.3c0,2.4-1.9,4.3-4.3,4.3
			s-4.3-1.9-4.3-4.3s1.9-4.3,4.3-4.3C27.1-45.7,29-43.7,29-41.3z M74.7-58H58.3v16.4h16.4V-58z M62.2-54.1h8.7v8.7h-8.7V-54.1z
			 M56.8-64.9L45.7-85.3L33.9-64.7L56.8-64.9z M50.3-68.7l-9.8,0.1l5-8.8L50.3-68.7z M58,2.5c0-6.8-5.5-12.4-12.4-12.4
			S33.3-4.3,33.3,2.5s5.5,12.4,12.4,12.4S58,9.4,58,2.5z M54.1,2.5c0,4.7-3.8,8.5-8.5,8.5s-8.5-3.8-8.5-8.5S40.9-6,45.6-6
			S54.1-2.1,54.1,2.5z"/>
	</g>
	<g id="Thin-S" transform="matrix(1 0 0 1 811.863 696)">
		<path d="M46.1-66.8H43v58.6h3.1V-66.8z M46.2-21.8l18.1-10.9c1.7-1,2.7-2.9,2.7-4.9v-6h-3.1v6c0,0.9-0.5,1.8-1.3,2.3L43.1-23.5V-8
			h3.1V-21.8z M46.1-15.2L26.4-29c-0.7-0.5-1-1.2-1-2.1v-4.2h-3.1v4.2c0,1.9,0.9,3.6,2.4,4.6L43-13.6v5.4h3.1V-15.2z M31.5-41.5
			c0-4.3-3.5-7.8-7.8-7.8s-7.8,3.5-7.8,7.8c0,4.3,3.5,7.8,7.8,7.8S31.5-37.2,31.5-41.5z M28.4-41.5c0,2.6-2.1,4.7-4.7,4.7
			S19-38.9,19-41.5c0-2.6,2.1-4.7,4.7-4.7S28.4-44.1,28.4-41.5z M73.2-57.7H57.6v15.5h15.5V-57.7z M60.7-54.6h9.4v9.4h-9.4V-54.6z
			 M55.2-65.4L44.7-84.5L33.6-65.2L55.2-65.4z M50-68.4l-11.1,0.1l5.7-9.9L50-68.4z M56.5,2.2c0-6.6-5.4-11.9-11.9-11.9
			S32.6-4.4,32.6,2.2S38,14.1,44.6,14.1S56.5,8.8,56.5,2.2z M53.4,2.2c0,4.9-4,8.9-8.9,8.9s-8.9-4-8.9-8.9s4-8.9,8.9-8.9
			S53.4-2.7,53.4,2.2z"/>
	</g>
	<g id="Ultralight-S" transform="matrix(1 0 0 1 515.649 696)">
		<path d="M44.2-66.8h-2.3v58.3h2.3V-66.8z M44.2-22.3l18.2-10.9c1.6-1,2.5-2.7,2.5-4.6v-6h-2.3v6c0,1.1-0.6,2.1-1.4,2.6L41.9-23.6
			v15.2h2.3V-22.3z M44.2-15.3L24.7-28.9c-0.8-0.5-1.2-1.4-1.2-2.4v-4.1h-2.3v4.1c0,1.8,0.8,3.3,2.2,4.3l18.5,12.9v5.6h2.3V-15.3z
			 M29.7-41.7c0-4.1-3.3-7.4-7.4-7.4s-7.4,3.3-7.4,7.4s3.3,7.4,7.4,7.4S29.7-37.6,29.7-41.7z M27.4-41.7c0,2.8-2.2,5.1-5.1,5.1
			c-2.8,0-5.1-2.2-5.1-5.1c0-2.8,2.2-5.1,5.1-5.1C25.1-46.7,27.4-44.5,27.4-41.7z M71.1-57.4H56.4v14.7h14.7V-57.4z M58.7-55.1h10.1
			V-45H58.7V-55.1z M52.9-65.9l-9.8-17.9L32.7-65.7L52.9-65.9z M49-68.1L36.7-68L43-79L49-68.1z M54.6,1.8c0-6.3-5.2-11.5-11.5-11.5
			S31.6-4.5,31.6,1.8s5.2,11.5,11.5,11.5S54.6,8.2,54.6,1.8z M52.3,1.8c0,5.1-4.1,9.2-9.2,9.2s-9.2-4.1-9.2-9.2s4.1-9.2,9.2-9.2
			S52.3-3.2,52.3,1.8z"/>
	</g>
</g>
</svg>
