<?xml version="1.0" encoding="UTF-8"?>
<svg width="1024px" height="1024px" viewBox="0 0 1024 1024" version="1.1" xmlns="http://www.w3.org/2000/svg" xmlns:xlink="http://www.w3.org/1999/xlink">
    <title>keepassium-logo</title>
    <g id="keepassium-logo" stroke="none" fill="none" fill-rule="nonzero">
        <path d="M541.614074,441.922561 C536.611244,451.366436 531.055807,472.482971 527.721811,505.822935 C557.173336,484.15563 574.954039,465.813142 579.958705,457.478151 C586.624862,445.811 592.736577,441.364447 602.182288,441.364447 C615.521945,441.364447 625.522099,451.922714 625.522099,464.704258 C625.522099,479.1528 616.076388,486.929677 599.406405,488.044069 C582.178309,489.152953 559.951055,495.264668 529.945087,508.604325 C558.840335,521.942147 581.065753,528.055697 598.293849,529.162746 C615.521945,529.72086 625.522099,537.497737 625.522099,552.502557 C625.522099,565.2841 615.521945,575.842367 602.182288,575.842367 C592.736577,575.842367 586.07042,570.839537 579.958705,560.837548 C573.843318,550.837394 558.284057,534.167412 527.721811,511.93465 C532.166527,546.390842 537.167522,567.507376 542.170352,576.951252 C546.615069,585.286243 549.392787,591.956071 549.392787,596.958902 C549.392787,609.740446 539.390798,619.742435 526.052977,619.742435 C513.273269,619.742435 503.27128,609.740446 503.27128,596.958902 C503.27128,591.956071 506.607112,584.735472 510.495551,576.400481 C514.383989,568.059983 520.49754,549.170396 524.387814,511.93465 C497.159565,531.944136 481.602139,546.948956 473.819754,558.614271 C466.597319,569.172539 461.038211,575.842367 449.925501,575.842367 C437.143958,575.842367 426.58569,565.2841 426.58569,552.502557 C426.58569,537.497737 435.478795,530.277138 452.70322,529.162746 C473.819754,527.497583 493.825569,521.385869 522.71898,508.604325 C493.825569,495.264668 473.265312,489.711067 452.70322,488.044069 C433.809961,486.378906 426.58569,476.371409 426.58569,464.704258 C426.58569,451.922714 437.143958,441.364447 449.925501,441.364447 C459.373048,441.364447 466.597319,446.919884 472.709034,457.478151 C478.266307,466.927534 495.490731,484.15563 524.387814,505.822935 C519.941262,470.815973 514.942103,449.14316 509.939273,440.255563 C505.494556,431.364294 503.27128,424.694465 503.27128,420.247912 C503.27128,407.466369 513.273269,397.466216 526.052977,397.466216 C539.390798,397.466216 549.392787,407.466369 549.392787,420.247912 C549.392787,425.250743 546.615069,432.473178 541.614074,441.922561" id="path1" fill="#FFFFFF"></path>
        <path d="M322.297328,591.979938 C298.614204,571.78319 276.364918,554.035534 255.523769,534.767752 C218.759849,500.777879 184.272446,464.392155 160.785764,419.728352 C150.289917,399.772107 142.120157,377.81473 137.332127,355.798604 C128.312345,314.32009 147.616845,279.509569 186.530605,262.09054 C213.173202,250.16269 241.737987,246.131051 270.471675,248.323117 C298.915291,250.491316 327.199184,255.288526 355.407804,259.845232 C374.429576,262.918531 373.265614,263.190244 381.016789,244.537489 C394.4666,212.17606 407.976997,179.68979 424.226557,148.703451 C432.366943,133.177235 445.157666,119.242746 458.34678,107.369973 C495.57151,73.8629423 540.251836,74.0887582 577.739101,107.548056 C588.653533,117.289347 598.073541,122.521665 613.930219,120.986852 C639.728302,118.488191 662.333752,137.296997 670.613666,162.988598 C678.581477,187.709006 669.045806,215.322795 647.473968,230.000824 C625.612058,244.873459 597.284104,243.801293 576.529242,227.313065 C556.165427,211.133268 548.70616,183.301007 557.839768,158.685245 C560.793733,150.72845 567.45989,139.900305 564.577526,134.976418 C559.695864,126.628576 549.181659,120.779395 539.956256,115.932616 C519.491466,105.179743 498.556686,108.877248 483.125937,124.008745 C465.881318,140.915559 449.472034,160.060335 437.885662,181.088747 C402.19758,245.86301 387.7931,317.343819 379.414047,389.970231 C367.812988,490.51152 369.546079,590.836172 387.816967,690.641264 C389.010302,697.160549 393.155767,704.764851 382.716833,709.270152 C368.85578,715.253354 363.001091,713.487217 360.788831,698.188653 C355.411476,660.974938 349.108828,623.737356 346.72032,586.281301 C340.92438,495.36197 344.01053,404.736384 363.035973,315.192143 C368.244425,290.67552 368.185676,290.721417 342.719892,285.635971 C302.43655,277.589217 262.094459,271.767574 221.067577,280.337561 C172.144484,290.556186 153.649616,320.912811 168.107337,368.530578 C177.285007,398.753182 193.433593,425.71339 214.186619,448.849416 C242.521917,480.43793 272.107463,511.216812 303.831834,539.318951 C319.683005,553.363594 328.919423,566.202051 322.297328,591.979938" id="path2" fill="#FFFFFF"></path>
        <path d="M768.830704,546.851653 C743.319022,566.773016 718.323228,587.71514 691.893596,606.663475 C608.286659,666.605647 517.907083,713.672643 420.385852,746.819838 C402.482145,752.904014 402.401365,753.252835 407.604309,770.411167 C418.581162,806.602286 432.724944,841.464212 455.308363,872.099894 C496.381143,927.825 540.446441,927.430281 581.218133,871.121358 C615.578858,823.663315 630.807658,768.465112 643.98392,712.554579 C646.234735,703.00973 648.008216,693.329023 649.498967,683.635465 C654.226413,652.885958 654.081376,655.830743 684.533468,640.991154 C680.760691,664.288739 678.087619,685.531951 673.786103,706.442865 C661.715053,765.147639 645.795955,822.732513 613.085705,873.790759 C602.62474,890.121099 589.784448,905.711571 575.26247,918.496787 C540.21879,949.354612 497.58733,949.042509 461.306252,919.534071 C435.297041,898.380818 418.12035,870.486137 404.582416,840.454466 C395.527751,820.3642 388.167624,799.482661 380.647773,778.738815 C374.018334,760.451404 374.479145,760.849794 354.7377,764.369217 C331.416249,768.527533 307.984643,772.289294 284.463078,775.052325 C255.696343,778.430383 227.12605,775.671024 199.528785,766.941314 C150.121014,751.310452 127.728528,713.459679 138.213359,662.566664 C141.170996,648.211753 140.521087,637.194511 131.517828,624.209182 C116.911399,603.136709 122.070281,571.955765 139.417711,553.773 C157.475634,534.841188 188.487675,529.994409 211.886235,542.449162 C234.640393,554.55693 246.375473,580.070448 241.5801,607.006789 C237.117024,632.059495 215.335893,651.727504 188.917276,654.554792 C166.581703,656.945135 163.815,659.935818 163.332158,682.188775 C162.764865,708.315484 174.47975,726.762618 200.281504,737.263973 C232.327158,750.306214 265.891102,749.700367 299.477077,745.505333 C390.098992,734.187002 473.289179,700.73872 553.556611,659.039898 C618.400638,625.354784 678.915611,585.040232 734.943641,538.07421 C752.201111,523.607309 752.160721,523.55774 768.830704,546.851653" id="path3" fill="#FFFFFF"></path>
        <path d="M784.417504,491.770948 C817.917191,457.483659 847.007045,421.617495 864.892393,377.699068 C866.430878,373.920784 867.633394,369.984612 868.73677,366.050276 C881.226405,321.496628 864.532557,292.509585 819.619072,281.292229 C782.194228,271.943821 744.477475,275.028135 707.625432,282.959227 C671.786807,290.670012 636.214387,300.633447 601.62601,312.744887 C582.013078,319.614829 565.970974,321.349756 548.838345,304.250173 C553.031543,301.885532 556.521591,299.370347 560.399015,297.815339 C621.352767,273.388675 683.742195,254.649632 749.595968,248.973026 C779.317371,246.411944 808.548588,248.082614 836.924276,257.194191 C887.580459,273.462111 909.798534,314.454111 897.358468,366.79198 C889.631161,399.292937 873.251251,427.507065 853.612617,453.868769 C841.422233,470.237664 828.269838,486.011726 814.329841,500.910064 C806.373045,509.412122 806.896277,514.295619 814.254569,523.133647 C834.09148,546.963643 854.26069,570.881763 870.754425,597.001128 C882.763055,616.017391 891.815883,637.895825 897.485146,659.719181 C910.347469,709.237106 887.325269,749.773803 839.17509,765.953599 C825.655515,770.497454 815.506653,775.136777 808.70464,789.989217 C797.626812,814.190065 769.372294,824.887861 744.552747,818.682515 C716.672753,811.711598 698.844317,790.330694 698.043864,762.902332 C697.248919,735.582287 712.997279,712.132322 737.517574,704.124122 C764.332746,695.368709 790.799096,704.045178 806.817333,726.841562 C819.622744,745.064716 819.661298,745.075732 838.833613,736.039426 C863.341057,724.487937 873.805693,706.628291 872.180921,678.953917 C870.59103,651.859689 858.431857,628.639212 844.433111,606.411957 C812.653663,555.950379 770.389384,514.894122 724.627712,477.518848 C637.112142,406.047217 539.910358,351.166625 434.094526,311.584598 C410.771238,302.862231 410.697802,303.058673 422.935919,278.426388 C557.608445,324.432234 677.377126,395.903864 784.417504,491.770948" id="path4" fill="#FFFFFF"></path>
    </g>
</svg>