<?xml version="1.0" encoding="utf-8"?>
<!-- Generator: Adobe Illustrator 24.1.1, SVG Export Plug-In . SVG Version: 6.00 Build 0)  -->
<svg version="1.1" id="Layer_1" xmlns="http://www.w3.org/2000/svg" xmlns:xlink="http://www.w3.org/1999/xlink" x="0px" y="0px"
	 viewBox="0 0 3300 2200" style="enable-background:new 0 0 3300 2200;" xml:space="preserve">
<style type="text/css">
	.st0{fill:#FFFFFF;}
	.st1{fill:none;stroke:#000000;stroke-width:0.5;}
	.st2{font-family:'Arial-BoldMT';}
	.st3{font-size:13px;}
	.st4{font-family:'ArialMT';}
	.st5{fill:none;stroke:#00AEEF;stroke-width:0.5;}
	.st6{fill:#27AAE1;}
	.st7{fill:none;stroke:#27AAE1;stroke-width:0.5;}
</style>
<g id="Notes">
	<rect id="artboard" class="st0" width="3300" height="2200"/>
	<line class="st1" x1="263" y1="292" x2="3036" y2="292"/>
	<text transform="matrix(1 0 0 1 263 322)" class="st2 st3">Weight/Scale Variations</text>
	<text transform="matrix(1 0 0 1 534.0632 322)" class="st4 st3">Ultralight</text>
	<text transform="matrix(1 0 0 1 843.7775 322)" class="st4 st3">Thin</text>
	<text transform="matrix(1 0 0 1 1139.035 322)" class="st4 st3">Light</text>
	<text transform="matrix(1 0 0 1 1427.0773 322)" class="st4 st3">Regular</text>
	<text transform="matrix(1 0 0 1 1723.4419 322)" class="st4 st3">Medium</text>
	<text transform="matrix(1 0 0 1 2016.1719 322)" class="st4 st3">Semibold</text>
	<text transform="matrix(1 0 0 1 2326.9705 322)" class="st4 st3">Bold</text>
	<text transform="matrix(1 0 0 1 2618.2659 322)" class="st4 st3">Heavy</text>
	<text transform="matrix(1 0 0 1 2917.5054 322)" class="st4 st3">Black</text>
	<line class="st1" x1="263" y1="1903" x2="3036" y2="1903"/>
	<g transform="matrix(1 0 0 1 263 1933)">
		<path d="M9.2,0.8c4.3,0,7.9-3.6,7.9-7.9s-3.6-7.9-7.9-7.9c-4.3,0-7.9,3.6-7.9,7.9C1.4-2.7,5,0.8,9.2,0.8z M9.2-0.7
			C5.7-0.7,2.9-3.5,2.9-7c0-3.6,2.8-6.4,6.4-6.4c3.6,0,6.4,2.8,6.4,6.4C15.6-3.5,12.8-0.7,9.2-0.7z M5.7-7.1c0,0.4,0.3,0.7,0.8,0.7
			h2.1v2.1c0,0.4,0.3,0.7,0.7,0.7c0.4,0,0.7-0.3,0.7-0.7v-2.1h2.1c0.4,0,0.7-0.3,0.7-0.7c0-0.4-0.3-0.7-0.7-0.7H10v-2.1
			c0-0.4-0.3-0.8-0.7-0.8c-0.4,0-0.7,0.3-0.7,0.8v2.1H6.4C6-7.8,5.7-7.5,5.7-7.1z"/>
	</g>
	<g transform="matrix(1 0 0 1 281.867 1933)">
		<path d="M11.7,2.9c5.4,0,10-4.5,10-10c0-5.4-4.5-10-10-10c-5.4,0-10,4.5-10,10C1.7-1.6,6.3,2.9,11.7,2.9z M11.7,1.3
			c-4.6,0-8.3-3.7-8.3-8.3c0-4.6,3.7-8.3,8.3-8.3S20-11.7,20-7.1C20-2.4,16.3,1.3,11.7,1.3z M7.2-7.1c0,0.5,0.3,0.8,0.8,0.8h2.9v2.9
			c0,0.5,0.3,0.8,0.8,0.8c0.5,0,0.8-0.3,0.8-0.8v-2.9h2.9c0.5,0,0.8-0.3,0.8-0.8c0-0.5-0.3-0.8-0.8-0.8h-2.9v-2.9
			c0-0.5-0.3-0.8-0.8-0.8c-0.5,0-0.8,0.3-0.8,0.8v2.9H8C7.5-7.9,7.2-7.5,7.2-7.1z"/>
	</g>
	<g transform="matrix(1 0 0 1 305.646 1933)">
		<path d="M15,5.7c7,0,12.7-5.8,12.7-12.7c0-7-5.8-12.7-12.7-12.7C8-19.8,2.3-14,2.3-7.1C2.3-0.1,8,5.7,15,5.7z M15,3.8
			C8.9,3.8,4.1-1,4.1-7c0-6,4.8-10.9,10.9-10.9c6,0,10.9,4.9,10.9,10.9C25.9-1,21,3.8,15,3.8z M9.2-7.1c0,0.5,0.4,0.9,0.9,0.9h3.9v4
			c0,0.5,0.4,0.9,0.9,0.9c0.5,0,0.9-0.4,0.9-0.9v-4h4c0.5,0,0.9-0.4,0.9-0.9c0-0.5-0.4-0.9-0.9-0.9h-4v-3.9c0-0.5-0.4-0.9-0.9-0.9
			c-0.5,0-0.9,0.4-0.9,0.9V-8h-3.9C9.6-8,9.2-7.6,9.2-7.1z"/>
	</g>
	<text transform="matrix(1 0 0 1 263 1953)" class="st2 st3">Design Variations</text>
	<text transform="matrix(1 0 0 1 263 1971)" class="st4 st3">Symbols are supported in up to nine weights and three scales.</text>
	<text transform="matrix(1 0 0 1 263 1989)" class="st4 st3">For optimal layout with text and other symbols, vertically align</text>
	<text transform="matrix(1 0 0 1 263 2007)" class="st4 st3">symbols with the adjacent text.</text>
	<line class="st5" x1="776" y1="1919" x2="776" y2="1933"/>
	<g transform="matrix(1 0 0 1 776 1933)">
		<path d="M3.3,0.2c0.5,0,0.8-0.2,1-0.7L5.5-4h5.8l1.3,3.4C12.7,0,13,0.2,13.5,0.2c0.5,0,0.9-0.3,0.9-0.8c0-0.2,0-0.3-0.1-0.5
			L9.7-13.4C9.4-14,9-14.3,8.4-14.3c-0.6,0-1,0.3-1.2,0.9L2.6-1.2C2.5-1,2.5-0.8,2.5-0.6C2.5-0.1,2.8,0.2,3.3,0.2z M6-5.5l2.4-6.6h0
			l2.4,6.6H6z"/>
	</g>
	<line class="st5" x1="793.2" y1="1919" x2="793.2" y2="1933"/>
	<text transform="matrix(1 0 0 1 776 1953)" class="st2 st3">Margins</text>
	<text transform="matrix(1 0 0 1 776 1971)" class="st4 st3">Leading and trailing margins on the left and right side of each symbol</text>
	<text transform="matrix(1 0 0 1 776 1989)" class="st4 st3">can be adjusted by modifying the x-location of the margin guidelines.</text>
	<text transform="matrix(1 0 0 1 776 2007)" class="st4 st3">Modifications are automatically applied proportionally to all</text>
	<text transform="matrix(1 0 0 1 776 2025)" class="st4 st3">scales and weights.</text>
	<g transform="matrix(1 0 0 1 1289 1933)">
		<path d="M2.8,1.9l1.7,1.7c0.9,0.9,1.8,0.8,2.8-0.2L18-8.4l-1-1L6.4,2.3c-0.4,0.4-0.7,0.5-1.2,0L4.1,1.1C3.6,0.7,3.7,0.3,4.1,0
			l11.5-10.8l-1-1L3-0.9C2.1,0,2,1,2.8,1.9z M9.3-16.3c-0.4,0.4-0.4,1-0.2,1.4c0.2,0.4,0.7,0.6,1.3,0.4c1.5-0.3,3-0.4,4.4,0.5
			l-0.6,1.5c-0.3,0.8-0.2,1.4,0.4,2l2.3,2.3c0.5,0.5,0.9,0.5,1.5,0.4L19.4-8l0.7,0.7l0,0.6c0,0.5,0.1,0.9,0.6,1.4l0.8,0.7
			c0.5,0.5,1.1,0.5,1.6,0l2.9-2.9c0.5-0.5,0.4-1.1,0-1.5L25-9.9c-0.5-0.5-0.9-0.6-1.3-0.6l-0.6,0l-0.6-0.6l0.2-1.1
			c0.1-0.6,0-1-0.6-1.6L19.9-16C16.6-19.3,12.1-19.2,9.3-16.3z M10.8-16c2.4-1.8,5.7-1.5,7.9,0.8l2.4,2.4c0.2,0.2,0.3,0.4,0.2,0.8
			L21-10.5l1.5,1.5l1-0.1c0.3,0,0.3,0,0.5,0.2l0.6,0.6l-2.4,2.4l-0.6-0.6c-0.2-0.2-0.2-0.3-0.2-0.5l0.1-1L20-9.5l-1.5,0.3
			c-0.3,0.1-0.5,0-0.7-0.2l-2-2c-0.3-0.2-0.3-0.4-0.1-0.8l0.9-2.1c-1.6-1.5-3.6-2.1-5.6-1.5C10.7-15.7,10.6-15.9,10.8-16z"/>
	</g>
	<text transform="matrix(1 0 0 1 1289 1953)" class="st2 st3">Exporting</text>
	<text transform="matrix(1 0 0 1 1289 1971)" class="st4 st3">Symbols should be outlined when exporting to ensure the</text>
	<text transform="matrix(1 0 0 1 1289 1989)" class="st4 st3">design is preserved when submitting to Xcode.</text>
	<text id="template-version" transform="matrix(1 0 0 1 2952.4204 1933)" class="st4 st3">Template v.4.0</text>
	<text transform="matrix(1 0 0 1 2865.4575 1951)" class="st4 st3">Requires Xcode 14 or greater</text>
	<text id="descriptive-name" transform="matrix(1 0 0 1 2866.0181 1969)" class="st4 st3">Generated from fp.boxcryptor</text>
	<text transform="matrix(1 0 0 1 2912.4175 1987)" class="st4 st3">Typeset at 100 points</text>
	<text transform="matrix(1 0 0 1 263 726)" class="st4 st3">Small</text>
	<text transform="matrix(1 0 0 1 263 1156)" class="st4 st3">Medium</text>
	<text transform="matrix(1 0 0 1 263 1586)" class="st4 st3">Large</text>
</g>
<g id="Guides">
	<g id="H-reference" transform="matrix(1 0 0 1 339 696)">
		<path class="st6" d="M1,0h2.6l25.7-67.1H30v-3.3h-1.9L1,0z M11.7-24.5H47l-0.8-2.2H12.4L11.7-24.5z M55.1,0h2.6L30.6-70.5h-1.2
			v3.3L55.1,0z"/>
	</g>
	<line id="Baseline-S" class="st7" x1="263" y1="696" x2="3036" y2="696"/>
	<line id="Capline-S" class="st7" x1="263" y1="625.5" x2="3036" y2="625.5"/>
	<g id="H-reference_1_" transform="matrix(1 0 0 1 339 1126)">
		<path class="st6" d="M1,0h2.6l25.7-67.1H30v-3.3h-1.9L1,0z M11.7-24.5H47l-0.8-2.2H12.4L11.7-24.5z M55.1,0h2.6L30.6-70.5h-1.2
			v3.3L55.1,0z"/>
	</g>
	<line id="Baseline-M" class="st7" x1="263" y1="1126" x2="3036" y2="1126"/>
	<line id="Capline-M" class="st7" x1="263" y1="1055.5" x2="3036" y2="1055.5"/>
	<g id="H-reference_2_" transform="matrix(1 0 0 1 339 1556)">
		<path class="st6" d="M1,0h2.6l25.7-67.1H30v-3.3h-1.9L1,0z M11.7-24.5H47l-0.8-2.2H12.4L11.7-24.5z M55.1,0h2.6L30.6-70.5h-1.2
			v3.3L55.1,0z"/>
	</g>
	<line id="Baseline-L" class="st7" x1="263" y1="1556" x2="3036" y2="1556"/>
	<line id="Capline-L" class="st7" x1="263" y1="1485.5" x2="3036" y2="1485.5"/>
	<line id="left-margin-Regular-M" class="st5" x1="1391.3" y1="1030.8" x2="1391.3" y2="1150.1"/>
	<line id="right-margin-Regular-M" class="st5" x1="1508.4" y1="1030.8" x2="1508.4" y2="1150.1"/>
</g>
<g id="Symbols">
	<g id="Black-L" transform="matrix(1 0 0 1 2854.19 1556)">
		<path d="M113.8-24.1c7.5-7.1,11.6-16.9,11.6-27.6c0.3-10-6.4-22.6-11.9-27.8c-5.1-4.8-16.6-10.2-26-10.2
			c-10.4,0-20.2,4.1-27.6,11.5c0,0-0.1,0.1-0.1,0.1C52.7-70.6,49-61.4,49-51.5c0,9.8,3.6,19.1,10.2,26c7.4,7.8,17.6,12.2,28,12.2
			C97-13.2,106.4-17.1,113.8-24.1z M87.5-76.3c6.1,0,12.1,2.3,16.8,6.6c5,4.8,7.7,12.9,7.7,17.7c0,4.9-2.7,13.6-7.5,18.2
			c-4.8,4.6-11,7.1-17.4,7.1c-6.8,0-13.4-2.9-18.3-8c-4.2-4.5-6.6-10.4-6.6-16.8c0-8.1,3.8-13.9,7.1-17.3
			C74.3-73.6,80.7-76.3,87.5-76.3z M100.5-37.1c2.8-2.6,6.2-8.9,6.2-14.1c0-5.3-2.3-10.5-6.3-14.3c-3.5-3.2-8-4.9-12.9-4.9
			c-5.1,0-10,2.1-13.7,5.8c-3.5,3.5-5.5,8.2-5.5,13.2c0,4.9,1.8,9.4,5,12.9c3.7,4,8.9,6.3,14.2,6.3C92.1-32.2,97.9-34.8,100.5-37.1z
			 M91.2-55.7c1.3,1.2,2,2.8,2,4.4c0,1.5-0.6,3.1-1.6,4c-0.9,0.8-2.4,1.6-4.2,1.6c-1.6,0-3.2-0.7-4.4-2c-0.9-1-1.4-2.3-1.4-3.8
			c0-1.4,0.5-2.8,1.5-3.8c0.7-0.7,2.2-1.9,4.3-1.9C88.9-57,90.3-56.5,91.2-55.7z M35-53.4c0-12.7,5.1-25.2,14-34.3
			c2.6-2.6,2.5-6.9-0.1-9.5c-2.6-2.6-6.9-2.5-9.5,0.1C28-85.4,21.6-69.5,21.6-53.4c0,3.7,3,6.7,6.7,6.7S35-49.7,35-53.4z M137.5,4.1
			c2.6-2.6,2.7-6.8,0.1-9.5c-2.6-2.6-6.8-2.7-9.5-0.1c-10.8,10.6-25.7,16.6-40.7,16.6c-3.7,0-6.7,3-6.7,6.7s3,6.7,6.7,6.7
			C106,24.5,124.2,17.1,137.5,4.1z M146.2-51.5c0-3.7-3-6.7-6.7-6.7h-37c-3.7,0-6.7,3-6.7,6.7c0,3.7,3,6.7,6.7,6.7h37
			C143.2-44.8,146.2-47.8,146.2-51.5z M128.6-9.1c11.4-11,17.6-26,17.6-42.1c0-16.2-6.7-31.8-18.3-42.8c-2.7-2.5-6.9-2.4-9.4,0.2
			L92.7-67.1c-2.6,2.7-2.5,6.9,0.1,9.5c2.7,2.6,6.9,2.5,9.5-0.1l20.9-21.5c6.2,7.9,9.6,17.8,9.6,28.1c0,12.5-4.8,24-13.6,32.5
			c-8.4,8.2-20,12.9-31.8,12.9c-3.7,0-6.7,3-6.7,6.7s3,6.7,6.7,6.7C102.7,7.6,117.6,1.5,128.6-9.1z M93.4-4.7c0-3.7-3-6.7-6.7-6.7
			c-9.4,0-18.1-2.9-25.1-8.3L79-37.1c2.6-2.6,2.6-6.9,0-9.5c-2.6-2.6-6.9-2.6-9.5,0L47.2-24.2c-2.5,2.5-2.6,6.7-0.2,9.3
			C57.2-4,71.3,2,86.7,2C90.4,2,93.4-1,93.4-4.7z M93.7-67.2v-24.3c7.9,1.2,14.9,4.8,21.5,10.9c2.7,2.5,6.9,2.4,9.5-0.4
			c2.5-2.7,2.4-7-0.4-9.5c-10.9-10.1-23.1-14.9-37.3-14.9c-3.7,0-6.7,3-6.7,6.7v31.5c0,3.7,3,6.7,6.7,6.7S93.7-63.5,93.7-67.2z
			 M151.8,4.5L137.3-9.9l-34.7-35.2c-2.6-2.6-6.8-2.7-9.5-0.1c-1,0.9,1.6,9.8,1.6,9.8l33.1,34.9l9.6,9.6c-12,10.4-27,16.7-43.3,18
			v-61.8c0,0-5.3-8.5-6.7-8.5c-3.7,0-6.7,3-6.7,6.7v70.6c0,3.7,3,6.7,6.7,6.7c24.8,0,47.7-9.6,64.4-26.9
			C154.4,11.3,154.3,7.1,151.8,4.5z M80.5-66.7l-42.7-42.7c-1.3-1.3-3-2-4.7-2c0,0,0,0,0,0c-1.8,0-3.5,0.7-4.8,2
			C13.3-94,4.7-72.9,4.7-51.5c0,3.7,3,6.7,6.7,6.7h61c3.7,0,6.7-3,6.7-6.7c0-1.6-8.6-6.1-8.6-6.1l-52.2-0.6
			c1.3-13.4,6.6-26.3,14.9-36.8l37.2,37c0,0,9.1,1.5,9.9,0.7C83.1-59.9,83.1-64.1,80.5-66.7z"/>
	</g>
	<g id="Heavy-L" transform="matrix(1 0 0 1 2558.42 1556)">
		<path d="M112.9-24.5c7.4-6.9,11.4-16.5,11.4-26.9c0.3-9.8-6.4-22.2-11.8-27.3c-5-4.7-16.1-9.9-25.4-9.9c-10.2,0-19.8,4-27.1,11.2
			c0,0-0.1,0.1-0.1,0.1c-7,7.3-10.6,16.2-10.6,26c0,9.6,3.6,18.6,10.1,25.4C66.6-18.3,76.6-14,86.8-14
			C96.5-14,105.7-17.7,112.9-24.5z M87.1-76.4c6.3,0,12.4,2.4,17.3,6.7c5.1,4.9,7.8,13,7.9,17.9c0,5-2.7,13.8-7.6,18.4
			c-4.9,4.7-11.3,7.2-17.8,7.2c-6.9,0-13.7-3-18.7-8.1c-4.3-4.5-6.7-10.6-6.7-17c0-6.5,2.5-12.6,7.2-17.5
			C73.6-73.7,80.2-76.4,87.1-76.4z M100.4-37.2c2.8-2.6,6-8.6,6-13.9c0-5.3-2.3-10.5-6.4-14.2c-3.5-3.2-8-4.9-12.9-4.9
			c-5.1,0-10,2-13.8,5.8c-3.5,3.5-5.5,8.2-5.5,13.2c0,4.8,1.8,9.5,5,12.9c3.7,4,8.9,6.3,14.3,6.3C91.8-32.1,97.8-34.8,100.4-37.2z
			 M91.8-56.4c1.6,1.4,2.4,3.4,2.4,5.3c0,1.8-0.8,3.7-2,4.9c-1.1,0.9-2.8,2-5.1,2c-2,0-3.9-0.9-5.4-2.4c-1.1-1.2-1.7-2.8-1.7-4.6
			c0-1.7,0.7-3.4,1.9-4.6c1.5-1.4,3.3-2.2,5.2-2.2C88.9-58.1,90.6-57.4,91.8-56.4z M34.1-53.2c0-12.7,5.1-25.2,14.1-34.3
			c2.4-2.4,2.3-6.2-0.1-8.6c-2.4-2.4-6.2-2.3-8.6,0.1c-11.2,11.4-17.6,27-17.6,42.8c0,3.4,2.7,6.1,6.1,6.1S34.1-49.9,34.1-53.2z
			 M136.7,3.3c2.4-2.3,2.5-6.2,0.1-8.6c-2.3-2.4-6.2-2.5-8.6-0.1c-10.9,10.6-25.9,16.6-41.1,16.6c-3.4,0-6.1,2.7-6.1,6.1
			s2.7,6.1,6.1,6.1C105.4,23.4,123.5,16.1,136.7,3.3z M145.2-51.3c0-3.4-2.7-6.1-6.1-6.1h-37c-3.4,0-6.1,2.7-6.1,6.1
			s2.7,6.1,6.1,6.1h37C142.4-45.2,145.2-47.9,145.2-51.3z M127.7-9.7C139-20.5,145.2-35.2,145.2-51c0-15.9-6.6-31.2-18.1-42
			c-2.4-2.3-6.2-2.2-8.5,0.2L92.8-66.4c-2.4,2.4-2.3,6.3,0.1,8.6c2.4,2.3,6.3,2.3,8.6-0.1l21.4-21.8c6.5,8,10.2,18.2,10.2,28.7
			c0,12.5-4.9,24-13.7,32.6C110.7-10.3,99-5.6,87.1-5.6c-3.4,0-6.1,2.7-6.1,6.1s2.7,6.1,6.1,6.1C102.1,6.6,116.9,0.7,127.7-9.7z
			 M92.4-5c0-3.4-2.7-6.1-6.1-6.1c-9.7,0-18.7-3.1-25.9-8.7l17.8-17.7c2.4-2.4,2.4-6.2,0-8.6c-2.4-2.4-6.2-2.4-8.6,0L47.3-23.9
			c-2.3,2.3-2.4,6.1-0.2,8.5C57.2-4.8,71.1,1.1,86.3,1.1C89.7,1.1,92.4-1.6,92.4-5z M92.8-66.9v-24.7c8.4,1.1,15.6,4.7,22.5,11
			c2.5,2.3,6.3,2.1,8.6-0.4c2.3-2.5,2.1-6.3-0.4-8.6c-10.7-9.9-22.8-14.6-36.8-14.6c-3.4,0-6.1,2.7-6.1,6.1v31.2
			c0,3.4,2.7,6.1,6.1,6.1C90-60.8,92.8-63.5,92.8-66.9z M78.5-66.1l-42.6-42.3c-1.1-1.1-2.7-1.8-4.3-1.8c0,0,0,0,0,0
			c-1.6,0-3.2,0.7-4.3,1.8C12.4-93.2,3.9-72.4,3.9-51.3c0,3.4,2.7,6.1,6.1,6.1h61c3.4,0,6.1-2.7,6.1-6.1c0-1.7-7.6-6.1-7.6-6.1
			l-53.1,0c1.3-13.8,6.7-27.1,15.5-37.8c0,0,38,37.7,38,37.7c0,0,7.7,1,8.7,0.1C80.9-59.8,80.9-63.7,78.5-66.1z M150.9,4.5
			L136.5-9.8l-34.7-34.9c-2.4-2.4-6.2-2.4-8.6,0c-1.1,1.1,0.7,9.3,0.7,9.3l34,34.2l10,9.9C125.6,19.5,110,25.9,93.2,27.2v-63.2
			c0,0-4.4-6.4-6.1-6.4c-3.4,0-6.1,2.7-6.1,6.1v69.9c0,3.4,2.7,6.1,6.1,6.1c24.6,0,47.3-9.4,63.8-26.5
			C153.3,10.7,153.2,6.9,150.9,4.5z"/>
	</g>
	<g id="Bold-L" transform="matrix(1 0 0 1 2262.89 1556)">
		<path d="M110.4-25.1c7.2-6.8,11.1-16.1,11.1-26.3c0.3-9.5-6.2-21.5-11.4-26.5c-4.9-4.6-15.8-9.7-24.9-9.7
			c-9.9,0-19.3,3.9-26.4,10.9c0,0-0.1,0.1-0.1,0.1c-6.8,7.1-10.4,15.9-10.4,25.3c0,9.3,3.5,18.1,9.8,24.8C65.2-19,75-14.8,84.9-14.8
			C94.3-14.8,103.4-18.4,110.4-25.1z M85.2-76.6c6.3,0,12.5,2.4,17.4,6.8c5.2,4.9,7.9,13.4,7.9,18.4c0,5-2.7,13.7-7.7,18.4
			c-5,4.7-11.4,7.3-17.9,7.3c-7,0-13.9-3-18.9-8.2c-4.4-4.6-6.8-10.7-6.8-17.2c0-6.6,2.5-12.7,7.3-17.7
			C71.6-73.9,78.2-76.6,85.2-76.6z M99-36.1c3-2.7,6.5-9.2,6.5-14.8c0-5.6-2.4-11.1-6.7-15c-3.6-3.3-8.5-5.2-13.6-5.2
			c-5.4,0-10.6,2.2-14.5,6.1c-3.7,3.7-5.8,8.6-5.8,13.9c0,5,1.9,10,5.2,13.6c4,4.2,9.4,6.6,15,6.6C90.2-30.9,96.3-33.6,99-36.1z
			 M91.4-57.9c2,1.9,3.2,4.4,3.2,7c0,2.4-1,4.9-2.7,6.5c-1.4,1.2-3.7,2.5-6.6,2.5c-2.6,0-5.2-1.2-7.1-3.2c-1.5-1.6-2.3-3.8-2.3-6.1
			c0-2.3,0.9-4.5,2.5-6.1c1.9-1.9,4.3-2.9,6.8-2.9C87.6-60.2,89.8-59.3,91.4-57.9z M32.3-53c0-12.7,5.1-25.2,14.1-34.3
			c2.1-2.2,2.1-5.6-0.1-7.7c-2.2-2.1-5.6-2.1-7.7,0.1c-11,11.2-17.2,26.5-17.2,42c0,3,2.4,5.5,5.5,5.5S32.3-50,32.3-53z M133.8,2.5
			c2.2-2.1,2.2-5.6,0.1-7.7c-2.1-2.2-5.6-2.2-7.7-0.1c-10.9,10.6-25.8,16.6-41,16.6c-3,0-5.5,2.4-5.5,5.5s2.4,5.5,5.5,5.5
			C103.2,22.2,120.9,15.1,133.8,2.5z M142.1-51.1c0-3-2.4-5.5-5.5-5.5H100c-3,0-5.5,2.4-5.5,5.5c0,3,2.4,5.5,5.5,5.5h36.6
			C139.6-45.7,142.1-48.1,142.1-51.1z M125-10.3c11-10.6,17.1-25,17.1-40.5c0-15.6-6.5-30.6-17.7-41.1c-2.2-2-5.6-2-7.7,0.2
			L91.2-65.7c-2.1,2.2-2.1,5.6,0.1,7.7c2.2,2.1,5.6,2.1,7.7-0.1l21.6-22.1c6.8,8.1,10.6,18.5,10.6,29.3c0,12.5-4.9,24.1-13.7,32.6
			C108.9-10,97.1-5.3,85.2-5.3c-3,0-5.5,2.4-5.5,5.5s2.4,5.5,5.5,5.5C99.9,5.6,114.4-0.2,125-10.3z M89.9-5.3c0-3-2.4-5.5-5.5-5.5
			c-10,0-19.2-3.2-26.4-9.2l18.1-18c2.1-2.1,2.2-5.6,0-7.7c-2.1-2.1-5.6-2.2-7.7,0L46.3-23.7c-2.1,2.1-2.2,5.5-0.1,7.6
			C56-5.6,69.6,0.2,84.4,0.2C87.5,0.2,89.9-2.2,89.9-5.3z M90.3-66.5v-25.1c8.6,1,16.1,4.7,23.2,11.1c2.2,2,5.7,1.9,7.7-0.3
			c2-2.2,1.9-5.7-0.3-7.7c-10.5-9.7-22.3-14.4-36-14.4c-3,0-5.5,2.4-5.5,5.5v30.9c0,3,2.4,5.5,5.5,5.5S90.3-63.5,90.3-66.5z
			 M148,12.2c2.1-2.1,2.1-5.6-0.1-7.7L133.6-9.6L99.4-44.2c-2.1-2.1-5.6-2.2-7.7,0c-2.1,2.1-2.2,5.6,0,7.7l34.3,34.6l10.3,10.2
			C123.7,19.5,107.9,26,90.7,27.1v-63.5c0-3-2.4-5.5-5.5-5.5s-5.5,2.4-5.5,5.5v69.2c0,3,2.4,5.5,5.5,5.5
			C109.4,38.3,131.7,29,148,12.2z M77.6-57.6c2.1-2.1,2.1-5.6,0-7.7l-42.1-41.8c-1-1-2.4-1.6-3.9-1.6c-1.5,0-2.8,0.6-3.9,1.6
			c-14.6,14.8-23,35.2-23,56c0,3,2.4,5.5,5.5,5.5h60.3c3,0,5-2.3,5-5.3c0-2.2-4.8-5.6-5-5.6H15.8c1.2-14.2,6.8-27.9,15.9-38.8
			l38.1,37.8c0.5,0.4,2.9,1.5,2.9,1.5C74.5-55.8,76.3-56.3,77.6-57.6z"/>
	</g>
	<g id="Semibold-L" transform="matrix(1 0 0 1 1966.99 1556)">
		<path d="M108.8-25.6c7-6.6,10.8-15.7,10.8-25.6c0.3-9.3-6-21-11.1-25.8c-4.7-4.5-15.4-9.5-24.2-9.5c-9.7,0-18.8,3.8-25.7,10.7
			c0,0-0.1,0.1-0.1,0.1C51.9-68.8,48.4-60.2,48.4-51c0,9.1,3.4,17.7,9.5,24.1c6.9,7.2,16.4,11.3,26.1,11.3
			C93.2-15.5,102-19.1,108.8-25.6z M84.3-76.7c6.4,0,12.6,2.4,17.6,6.9c5.3,5,8,13.4,8,18.4c0,5.1-2.8,14.1-7.8,18.8
			c-5,4.8-11.5,7.4-18.1,7.4c-7.1,0-14-3-19.1-8.3c-4.4-4.6-6.8-10.8-6.8-17.4c0-6.7,2.5-12.9,7.4-17.9C70.6-74,77.3-76.7,84.3-76.7
			z M97.6-36.6c2.8-2.6,6.2-8.9,6.2-14.2c0-5.4-2.3-10.6-6.5-14.5c-3.4-3.2-8.2-5-13-5c-5.2,0-10.2,2.1-14,5.9
			c-3.6,3.5-5.5,8.3-5.5,13.4c0,4.8,1.8,9.6,5,13c3.8,4.1,9.1,6.4,14.5,6.4C89.1-31.5,95-34.1,97.6-36.6z M90.8-58.1
			c2.1,2,3.3,4.6,3.3,7.3c0,2.6-1.1,5.2-2.9,6.9c-1.5,1.2-3.8,2.7-6.9,2.7c-2.7,0-5.4-1.2-7.4-3.3c-1.5-1.7-2.4-4-2.4-6.4
			c0-2.5,0.9-4.8,2.7-6.5c2-2,4.5-3.1,7.1-3.1C86.8-60.5,89.1-59.6,90.8-58.1z M31.4-52.9c0-12.7,5.1-25.3,14.1-34.4
			c1.9-1.9,1.8-5-0.1-6.9c-1.9-1.9-5-1.8-6.9,0.1c-10.7,10.9-16.9,26-16.9,41.2c0,2.7,2.2,4.9,4.9,4.9S31.4-50.2,31.4-52.9z
			 M132,1.8c1.9-1.9,2-4.9,0.1-6.9c-1.9-1.9-4.9-2-6.9-0.1C114.4,5.3,99.5,11.4,84.3,11.4c-2.7,0-4.9,2.2-4.9,4.9s2.2,4.9,4.9,4.9
			C102,21.1,119.3,14.1,132,1.8z M140-51c0-2.7-2.2-4.9-4.9-4.9H99c-2.7,0-4.9,2.2-4.9,4.9c0,2.7,2.2,4.9,4.9,4.9h36.2
			C137.8-46.1,140-48.3,140-51z M123.3-11C134-21.4,140-35.5,140-50.7c0-15.3-6.3-30-17.3-40.3c-1.9-1.8-5-1.7-6.8,0.2L90.6-65
			c-1.9,1.9-1.8,5,0.1,6.9c1.9,1.9,5,1.8,6.9-0.1l21.7-22.3c7,8.2,11,18.8,11,29.8c0,12.5-4.9,24.2-13.8,32.7C108-9.8,96.2-5,84.3-5
			c-2.7,0-4.9,2.2-4.9,4.9s2.2,4.9,4.9,4.9C98.7,4.7,112.9-1,123.3-11z M88.4-5.6c0-2.7-2.2-4.9-4.9-4.9c-10.2,0-19.6-3.4-27-9.6
			l18.3-18.2c1.9-1.9,1.9-5,0-6.9c-1.9-1.9-5-1.9-6.9,0L46.2-23.4c-1.9,1.9-1.9,4.8-0.1,6.8C55.7-6.4,69-0.7,83.5-0.7
			C86.2-0.7,88.4-2.9,88.4-5.6z M88.8-66.2v-25.5c8.9,0.9,16.6,4.6,23.8,11.2c2,1.8,5,1.7,6.9-0.3c1.8-2,1.7-5-0.3-6.9
			c-10.3-9.5-21.8-14.1-35.2-14.1c-2.7,0-4.9,2.2-4.9,4.9v30.6c0,2.7,2.2,4.9,4.9,4.9C86.6-61.4,88.8-63.6,88.8-66.2z M74.5-51
			c0-2.7-2.2-4.9-4.9-4.9H15.1c1.1-14.6,6.8-28.7,16.3-39.8l38.1,37.9c1.9,1.9,5,1.9,6.9,0c1.9-1.9,1.9-5,0-6.9l-41.7-41.4
			c-0.9-0.9-2.1-1.4-3.4-1.4c0,0,0,0,0,0c-1.3,0-2.5,0.5-3.4,1.5C13.5-91.5,5.2-71.4,5.2-51c0,2.7,2.2,4.9,4.9,4.9h59.6
			C72.4-46.1,74.5-48.3,74.5-51z M146,11.3c1.8-1.9,1.8-4.9-0.1-6.8l-14.1-14L97.9-43.7c-1.9-1.9-5-1.9-6.9,0c-1.9,1.9-1.9,5,0,6.9
			l33.9,34.2l10.6,10.6c-12.6,11.5-28.8,18.1-46.4,19.2v-63.5c0-2.7-2.2-4.9-4.9-4.9c-2.7,0-4.9,2.2-4.9,4.9v68.5
			c0,2.7,2.2,4.9,4.9,4.9C108.1,37,130,27.9,146,11.3z"/>
	</g>
	<g id="Medium-L" transform="matrix(1 0 0 1 1670.9 1556)">
		<path d="M107.5-26.1c6.8-6.4,10.5-15.3,10.5-25c0.3-9-3.8-18.4-10.8-25.1c0,0-0.1-0.1-0.1-0.1c-6.6-5.9-14.9-9.1-23.5-9.1
			c-9.4,0-18.3,3.7-25.1,10.5c-6.4,6.7-9.8,15.1-9.8,24.1c0,8.9,3.3,17.2,9.3,23.5c6.7,7,16,11,25.4,11
			C92.2-16.3,100.8-19.8,107.5-26.1z M101.4-69.9c5.3,5.1,8.1,13.6,8.1,18.7c0,5.1-2.8,14.2-7.9,19c-5.1,4.8-11.6,7.5-18.3,7.5
			c-7.1,0-14.1-3.1-19.3-8.4c-4.5-4.7-6.9-11-6.9-17.6c0-6.8,2.6-13.1,7.4-18.1c5.1-5.1,11.9-7.9,19-7.9
			C90.1-76.9,96.4-74.4,101.4-69.9z M96.5-37.1c2.7-2.5,5.8-8.4,5.8-13.5c0-5.2-2.3-10.2-6.2-13.9c-3.3-3-7.9-4.8-12.5-4.8
			c-5,0-9.8,2-13.4,5.7c-3.4,3.4-5.3,8-5.3,12.8c0,4.7,1.8,9.2,4.8,12.5c3.7,3.9,8.7,6.2,13.9,6.2C88.2-32.1,94-34.7,96.5-37.1z
			 M90.4-58.3c2.2,2.1,3.5,4.8,3.5,7.7c0,2.7-1.2,5.5-3,7.2c-1.5,1.3-4,2.8-7.2,2.8c-2.8,0-5.7-1.3-7.7-3.4
			c-1.6-1.7-2.5-4.2-2.5-6.7c0-2.6,1-5,2.8-6.8c2.1-2.1,4.7-3.2,7.4-3.2C86.2-60.8,88.6-59.9,90.4-58.3z M30.7-52.7
			c0-12.7,5.1-25.3,14.1-34.4c1.6-1.7,1.6-4.4-0.1-6c-1.7-1.6-4.4-1.6-6,0.1C28.3-82.3,22.2-67.6,22.2-52.7c0,2.3,1.9,4.2,4.2,4.2
			S30.7-50.4,30.7-52.7z M130.4,1c1.7-1.6,1.7-4.3,0.1-6c-1.6-1.7-4.3-1.7-6-0.1C113.6,5.4,98.7,11.5,83.6,11.5
			c-2.3,0-4.2,1.9-4.2,4.2s1.9,4.2,4.2,4.2C100.9,20,118,13.1,130.4,1z M138.1-50.8c0-2.3-1.9-4.2-4.2-4.2H98.1
			c-2.3,0-4.2,1.9-4.2,4.2c0,2.3,1.9,4.2,4.2,4.2h35.7C136.2-46.6,138.1-48.5,138.1-50.8z M121.7-11.6c10.6-10.2,16.4-24,16.4-38.9
			c0-15-6.2-29.4-17-39.5c-1.7-1.6-4.3-1.5-5.9,0.1L90.2-64.3c-1.6,1.7-1.6,4.4,0.1,6c1.7,1.6,4.4,1.6,6-0.1l21.9-22.5
			c7.3,8.3,11.4,19.1,11.4,30.3c0,12.6-4.9,24.2-13.8,32.8c-8.6,8.3-20.3,13-32.2,13c-2.3,0-4.2,1.9-4.2,4.2s1.9,4.2,4.2,4.2
			C97.7,3.7,111.6-1.9,121.7-11.6z M87.1-5.9c0-2.3-1.9-4.2-4.2-4.2c-10.4,0-20-3.5-27.5-10l18.5-18.5c1.7-1.7,1.7-4.3,0-6
			c-1.7-1.7-4.3-1.7-6,0L46.3-23.1c-1.6,1.6-1.7,4.2-0.1,5.9c9.4,10,22.4,15.6,36.7,15.6C85.2-1.6,87.1-3.5,87.1-5.9z M87.4-65.9
			v-25.8c9.2,0.8,17.1,4.5,24.5,11.3c1.7,1.6,4.4,1.5,6-0.2c1.6-1.7,1.5-4.4-0.2-6c-10.1-9.3-21.3-13.8-34.5-13.8
			c-2.3,0-4.2,1.9-4.2,4.2v30.3c0,2.3,1.9,4.2,4.2,4.2C85.5-61.7,87.4-63.6,87.4-65.9z M73.4-50.8c0-2.3-1.9-4.2-4.2-4.2H14.6
			c0.9-15,6.9-29.4,16.7-40.8L69.3-58c1.7,1.7,4.3,1.6,6,0c1.7-1.7,1.6-4.3,0-6l-41.2-41c-0.8-0.8-1.9-1.2-3-1.2c0,0,0,0,0,0
			c-1.1,0-2.2,0.5-3,1.3C14-90.6,6-70.9,6-50.8c0,2.3,1.9,4.2,4.2,4.2h58.9C71.5-46.6,73.4-48.5,73.4-50.8z M144.1,10.5
			c1.6-1.7,1.6-4.3-0.1-6L130.2-9.3L96.7-43.2c-1.6-1.7-4.3-1.7-6,0c-1.7,1.6-1.7,4.3,0,6l33.5,33.9l10.9,10.9
			c-12.8,11.8-29.3,18.6-47.2,19.6v-63.4c0-2.3-1.9-4.2-4.2-4.2c-2.3,0-4.2,1.9-4.2,4.2v67.8c0,2.3,1.9,4.2,4.2,4.2
			C106.9,35.7,128.4,26.7,144.1,10.5z"/>
	</g>
	<g id="Regular-L" transform="matrix(1 0 0 1 1374.99 1556)">
		<path d="M105.9-26.6c6.6-6.3,10.2-14.9,10.2-24.3c0.3-8.8-3.7-17.9-10.5-24.4c0,0-0.1,0-0.1-0.1c-6.4-5.7-14.5-8.9-22.8-8.9
			c-9.2,0-17.8,3.6-24.4,10.2c-6.3,6.6-9.6,14.7-9.6,23.4c0,8.6,3.2,16.8,9,22.9c6.5,6.8,15.5,10.8,24.7,10.8
			C91.1-17.1,99.4-20.4,105.9-26.6z M100.7-70c5.4,5.1,8.2,13.8,8.2,18.9c0,5.2-2.8,14.3-8,19.2c-5.1,4.9-11.7,7.5-18.5,7.5
			c-7.2,0-14.3-3.1-19.4-8.5c-4.5-4.8-7-11.1-7-17.9c0-6.9,2.6-13.2,7.5-18.3c5.2-5.2,12-8,19.2-8C89.2-77,95.6-74.5,100.7-70z
			 M95.1-37.5c2.6-2.4,5.6-8.1,5.6-12.9c0-5-2.2-9.8-5.9-13.3c-3.2-2.9-7.5-4.6-12-4.6c-4.8,0-9.4,1.9-12.9,5.4
			c-3.3,3.3-5.1,7.6-5.1,12.3c0,4.5,1.7,8.8,4.6,12c3.5,3.8,8.4,5.9,13.3,5.9C87.1-32.7,92.7-35.2,95.1-37.5z M89.8-58.4
			c2.3,2.1,3.6,5.1,3.6,8c0,2.9-1.2,5.7-3.2,7.6c-1.6,1.3-4.1,2.9-7.5,2.9c-3,0-5.9-1.3-8-3.6C73-45.4,72-48,72-50.6
			c0-2.7,1-5.2,2.9-7.1c2.1-2.1,4.9-3.3,7.7-3.3C85.4-61.1,88-60.1,89.8-58.4z M29.9-52.5C29.9-65.3,35-77.8,44-87
			c1.4-1.4,1.4-3.7-0.1-5.1c-1.4-1.4-3.7-1.4-5.1,0.1C28.5-81.6,22.6-67.2,22.6-52.5c0,2,1.6,3.6,3.6,3.6S29.9-50.5,29.9-52.5z
			 M128.6,0.2c1.4-1.4,1.5-3.7,0.1-5.1c-1.4-1.4-3.7-1.5-5.1-0.1C112.7,5.5,97.8,11.6,82.7,11.6c-2,0-3.6,1.6-3.6,3.6
			s1.6,3.6,3.6,3.6C99.7,18.8,116.4,12.1,128.6,0.2z M136-50.7c0-2-1.6-3.6-3.6-3.6H97c-2,0-3.6,1.6-3.6,3.6S95-47,97-47h35.3
			C134.4-47,136-48.7,136-50.7z M120-12.3c10.3-10,16-23.5,16-38.1c0-14.7-6-28.8-16.6-38.7c-1.4-1.4-3.7-1.3-5.1,0.1L89.7-63.6
			c-1.4,1.4-1.4,3.7,0.1,5.1c1.4,1.4,3.7,1.4,5.1-0.1l22.1-22.7c7.5,8.3,11.8,19.4,11.8,30.8c0,12.6-4.9,24.3-13.8,32.9
			c-8.6,8.3-20.3,13-32.2,13c-2,0-3.6,1.6-3.6,3.6s1.6,3.6,3.6,3.6C96.5,2.8,110.1-2.7,120-12.3z M85.6-6.2c0-2-1.6-3.6-3.6-3.6
			c-10.7,0-20.5-3.7-28-10.5L72.7-39c1.4-1.4,1.4-3.7,0-5.1c-1.4-1.4-3.7-1.4-5.1,0L46.2-22.8c-1.4,1.4-1.4,3.6-0.1,5.1
			C55.3-7.9,68-2.5,82-2.5C84-2.5,85.6-4.1,85.6-6.2z M85.9-65.6v-26.2c9.5,0.7,17.6,4.4,25.1,11.4c1.5,1.4,3.8,1.3,5.1-0.2
			c1.4-1.5,1.3-3.8-0.2-5.1c-9.8-9.1-20.9-13.5-33.7-13.5c-2,0-3.6,1.6-3.6,3.6v30c0,2,1.6,3.6,3.6,3.6S85.9-63.6,85.9-65.6z
			 M72-50.7c0-2-1.6-3.6-3.6-3.6H17.3h-3.4c0.8-15.3,6.9-30.2,17.1-41.8L69-58.1c1.4,1.4,3.7,1.4,5.1,0s1.4-3.7,0-5.1l-40.7-40.6
			c-0.7-0.7-1.6-1.1-2.6-1.1c-1,0-1.9,0.4-2.6,1.1C14.4-89.8,6.5-70.4,6.5-50.7c0,2,1.6,3.6,3.6,3.6h58.2C70.4-47,72-48.7,72-50.7z
			 M142.2,9.6c1.4-1.4,1.4-3.7,0-5.1L128.3-9.2L95.2-42.7c-1.4-1.4-3.7-1.4-5.1,0c-1.4,1.4-1.4,3.7,0,5.1l33.1,33.5l11.2,11.2
			c-12.9,12.1-29.8,19.1-48,20v-63.4c0-2-1.6-3.6-3.6-3.6s-3.6,1.6-3.6,3.6v67.1c0,2,1.6,3.6,3.6,3.6
			C105.6,34.4,126.7,25.6,142.2,9.6z"/>
	</g>
	<g id="Light-L" transform="matrix(1 0 0 1 1079.2 1556)">
		<path d="M104.3-27.1c6.4-6.1,9.9-14.5,9.9-23.6c0.3-8.6-3.5-17.5-10.2-23.8c0,0,0,0-0.1-0.1c-6.2-5.6-14.1-8.7-22.2-8.7
			c-8.9,0-17.3,3.5-23.7,9.9c-6.1,6.4-9.3,14.3-9.3,22.8c0,8.4,3.1,16.3,8.7,22.2c6.3,6.7,15.1,10.5,24,10.5
			C89.8-17.8,97.9-21.1,104.3-27.1z M99.8-70.1c5.4,5.2,8.5,12.3,8.3,19.3c0,7.5-2.9,14.4-8.1,19.3c-5.2,4.9-11.8,7.6-18.7,7.6
			c-7.3,0-14.4-3.1-19.6-8.6c-4.6-4.8-7.1-11.2-7.1-18.1c0-6.9,2.6-13.4,7.6-18.6c5.2-5.2,12.1-8.1,19.4-8.1
			C88.3-77.2,94.7-74.6,99.8-70.1z M93.6-37.9c3.3-3.1,5.3-7.7,5.3-12.4c0-4.7-2.1-9.4-5.7-12.8c-3-2.8-7.2-4.4-11.5-4.4
			c-4.6,0-9,1.9-12.3,5.2c-3.1,3.1-4.9,7.3-4.9,11.7c0,4.3,1.6,8.5,4.4,11.5c3.4,3.6,8,5.7,12.8,5.7C85.9-33.3,90.1-34.9,93.6-37.9z
			 M89.1-58.6c2.4,2.2,3.8,5.3,3.8,8.3c0,3-1.3,6-3.3,7.9c-1.6,1.4-4.3,3-7.8,3c-3.1,0-6.1-1.4-8.4-3.7c-1.8-1.9-2.8-4.6-2.8-7.4
			c0-2.8,1.1-5.5,3.1-7.5c2.2-2.2,5.1-3.4,8.1-3.4C84.5-61.4,87.2-60.4,89.1-58.6z M28.9-52.3c0-12.8,5.1-25.4,14.1-34.5
			c1.2-1.2,1.1-3.1,0-4.3c-1.2-1.2-3.1-1.1-4.3,0C28.6-80.8,22.8-66.7,22.8-52.3c0,1.7,1.4,3,3,3C27.5-49.3,28.9-50.7,28.9-52.3z
			 M126.7-0.6c1.2-1.2,1.2-3.1,0.1-4.3c-1.2-1.2-3.1-1.2-4.3-0.1C111.6,5.6,96.8,11.7,81.7,11.7c-1.7,0-3,1.4-3,3s1.4,3,3,3
			C98.3,17.7,114.7,11.1,126.7-0.6z M133.8-50.5c0-1.7-1.4-3-3-3h-35c-1.7,0-3,1.4-3,3c0,1.7,1.4,3,3,3h35
			C132.5-47.5,133.8-48.8,133.8-50.5z M118.2-12.9c10.1-9.8,15.7-23,15.7-37.3c0-14.4-5.9-28.2-16.2-37.9c-1.2-1.1-3.1-1.1-4.2,0.1
			L89-62.9c-1.2,1.2-1.1,3.1,0.1,4.3s3.1,1.1,4.3-0.1l22.2-22.9c7.8,8.4,12.2,19.7,12.2,31.4c0,12.6-4.9,24.3-13.8,32.9
			c-8.6,8.3-20.3,13-32.3,13c-1.7,0-3,1.4-3,3s1.4,3,3,3C95.2,1.8,108.5-3.6,118.2-12.9z M84-6.5c0-1.7-1.4-3-3-3
			c-10.9,0-20.9-3.9-28.5-10.9l19-18.9c1.2-1.2,1.2-3.1,0-4.3c-1.2-1.2-3.1-1.2-4.3,0L46-22.5c-1.2,1.2-1.2,3-0.1,4.2
			c9,9.6,21.4,14.9,35,14.9C82.6-3.4,84-4.8,84-6.5z M84.3-65.3v-26.5c9.8,0.6,18,4.3,25.8,11.5c1.2,1.1,3.1,1.1,4.3-0.2
			c1.1-1.2,1.1-3.1-0.2-4.3C104.6-93.7,93.9-98,81.3-98c-1.7,0-3,1.4-3,3v29.7c0,1.7,1.4,3,3,3S84.3-63.6,84.3-65.3z M70.6-50.5
			c0-1.7-1.4-3-3-3H17.6H13c0.7-15.7,7-31,17.4-42.7l38.1,38c1.2,1.2,3.1,1.2,4.3,0c1.2-1.2,1.2-3.1,0-4.3l-40.3-40.2
			c-0.6-0.6-1.3-0.9-2.2-0.9c-0.8,0-1.6,0.3-2.1,0.9C14.7-88.9,6.9-69.9,6.9-50.5c0,1.7,1.4,3,3,3h57.6
			C69.2-47.5,70.6-48.8,70.6-50.5z M140.1,8.8c1.1-1.2,1.1-3.1,0-4.2L126.4-9.1L93.7-42.2c-1.2-1.2-3.1-1.2-4.3,0
			c-1.2,1.2-1.2,3.1,0,4.3l32.8,33.2l11.5,11.5C120.5,19.2,103.4,26.3,84.7,27v-63.3c0-1.7-1.4-3-3-3s-3,1.4-3,3v66.4
			c0,1.7,1.4,3,3,3C104.2,33.1,124.9,24.5,140.1,8.8z"/>
	</g>
	<g id="Thin-L" transform="matrix(1 0 0 1 783.716 1556)">
		<path d="M102.3-27.6c6.2-5.9,9.7-14.1,9.7-23c0.3-8.3-3.4-16.9-9.9-23.1c0,0,0,0-0.1,0c-6-5.4-13.7-8.4-21.6-8.4
			c-8.6,0-16.8,3.4-23.1,9.6c-5.9,6.2-9,13.9-9,22.1c0,8.2,3,15.8,8.5,21.6c6.2,6.5,14.7,10.2,23.3,10.2
			C88.3-18.6,96.2-21.8,102.3-27.6z M98.7-70.1c5.5,5.2,8.6,12.5,8.4,19.5c0,7.6-2.9,14.5-8.1,19.5c-5.2,5-11.9,7.7-18.8,7.7
			c-7.3,0-14.6-3.2-19.8-8.7c-4.6-4.9-7.2-11.4-7.2-18.3c0-7,2.7-13.5,7.7-18.8c5.3-5.3,12.2-8.2,19.6-8.2
			C87.1-77.3,93.6-74.8,98.7-70.1z M91.7-38.3c3.2-2.9,5.1-7.4,5.1-11.8c0-4.5-2-9-5.4-12.2c-2.9-2.7-6.9-4.2-11-4.2
			c-4.4,0-8.6,1.8-11.8,5c-3,3-4.6,7-4.6,11.2c0,4.1,1.5,8.1,4.2,11c3.2,3.4,7.7,5.4,12.2,5.4C84.4-33.9,88.4-35.4,91.7-38.3z
			 M88.1-58.8c2.5,2.3,3.9,5.5,3.9,8.7c0,3.1-1.3,6.3-3.4,8.2c-1.7,1.4-4.5,3.1-8.1,3.1c-3.2,0-6.4-1.4-8.7-3.9
			c-1.8-2-2.9-4.8-2.9-7.7c0-3,1.1-5.7,3.2-7.8c2.3-2.3,5.3-3.6,8.4-3.6C83.3-61.7,86.1-60.6,88.1-58.8z M27.6-52.2
			c0-12.8,5.1-25.4,14.1-34.6c0.9-1,0.9-2.5,0-3.4c-1-0.9-2.5-0.9-3.4,0c-9.8,10.1-15.5,23.9-15.5,38c0,1.3,1.1,2.4,2.4,2.4
			C26.5-49.7,27.6-50.8,27.6-52.2z M124.4-1.3c1-0.9,1-2.5,0-3.4c-0.9-1-2.5-1-3.4,0C110.3,5.7,95.4,11.8,80.4,11.8
			c-1.3,0-2.4,1.1-2.4,2.4s1.1,2.4,2.4,2.4C96.7,16.6,112.7,10.1,124.4-1.3z M131.4-50.4c0-1.3-1.1-2.4-2.4-2.4H94.4
			c-1.3,0-2.4,1.1-2.4,2.4c0,1.3,1.1,2.4,2.4,2.4H129C130.3-47.9,131.4-49,131.4-50.4z M116.1-13.6c9.9-9.6,15.3-22.5,15.3-36.5
			c0-14.1-5.8-27.6-15.9-37.1c-1-0.9-2.5-0.9-3.4,0.1L88-62.3c-0.9,1-0.9,2.5,0,3.4c1,0.9,2.5,0.9,3.4,0l22.4-23.1
			c8.1,8.5,12.7,19.9,12.7,31.9c0,12.6-4.9,24.4-13.8,33C104.1-8.8,92.3-4,80.4-4C79.1-4,78-2.9,78-1.6s1.1,2.4,2.4,2.4
			C93.6,0.8,106.6-4.4,116.1-13.6z M82.1-6.8c0-1.3-1.1-2.4-2.4-2.4c-11.1,0-21.3-4-29-11.4l19.2-19.2c0.9-0.9,0.9-2.5,0-3.4
			c-0.9-0.9-2.5-0.9-3.4,0L45.5-22.3c-0.9,0.9-0.9,2.4-0.1,3.4C54.2-9.5,66.4-4.3,79.7-4.3C81-4.3,82.1-5.4,82.1-6.8z M82.4-65
			v-26.9c10.1,0.5,18.5,4.2,26.5,11.6c1,0.9,2.5,0.8,3.4-0.1c0.9-1,0.8-2.5-0.1-3.4c-9.5-8.8-19.7-12.9-32.2-12.9
			c-1.3,0-2.4,1.1-2.4,2.4V-65c0,1.3,1.1,2.4,2.4,2.4C81.3-62.6,82.4-63.7,82.4-65z M68.8-50.4c0-1.3-1.1-2.4-2.4-2.4H17.6h-5.7
			c0.6-16.1,7-31.8,17.8-43.7l38,38c0.9,0.9,2.5,0.9,3.4,0c0.9-0.9,0.9-2.5,0-3.4l-39.8-39.8c-0.5-0.5-1.1-0.7-1.7-0.7
			c-0.6,0-1.3,0.3-1.7,0.7C14.7-88.1,7-69.4,7-50.4c0,1.3,1.1,2.4,2.4,2.4h56.9C67.7-47.9,68.8-49,68.8-50.4z M137.7,7.9
			c0.9-0.9,0.9-2.5,0-3.4L124.2-8.9L91.8-41.8c-0.9-1-2.5-1-3.4,0c-1,0.9-1,2.5,0,3.4l32.4,32.8l11.8,11.8
			c-13.2,12.9-30.7,20.1-49.7,20.7v-63.3c0-1.3-1.1-2.4-2.4-2.4S78-37.7,78-36.3v65.7c0,1.3,1.1,2.4,2.4,2.4
			C102.5,31.8,122.8,23.3,137.7,7.9z"/>
	</g>
	<g id="Ultralight-L" transform="matrix(1 0 0 1 487.631 1556)">
		<path d="M99.9-28.1c6-5.7,9.4-13.7,9.4-22.3c0.3-8.1-3.3-16.4-9.6-22.4c0,0,0,0,0,0c-5.9-5.3-13.3-8.2-21-8.2
			c-8.4,0-16.3,3.3-22.4,9.4c-5.7,6-8.8,13.5-8.8,21.5c0,7.9,2.9,15.4,8.2,21c6,6.3,14.2,9.9,22.7,9.9C86.3-19.3,94-22.4,99.9-28.1z
			 M97.2-70.2c5.6,5.3,8.7,12.6,8.5,19.7c0,7.7-2.9,14.7-8.2,19.7c-5.3,5-12,7.8-19,7.8c-7.4,0-14.7-3.2-20-8.8
			c-4.7-4.9-7.2-11.5-7.2-18.5c0-7.1,2.7-13.7,7.7-19c5.3-5.3,12.4-8.3,19.8-8.3C85.4-77.4,92-74.9,97.2-70.2z M89.5-38.7
			c3-2.8,4.8-7,4.8-11.3c0-4.3-1.9-8.6-5.2-11.7c-2.7-2.5-6.6-4-10.5-4c-4.2,0-8.2,1.7-11.2,4.8C64.6-58,63-54.2,63-50.2
			c0,3.9,1.5,7.7,4,10.5c3.1,3.3,7.3,5.2,11.7,5.2C82.5-34.5,86.4-36,89.5-38.7z M86.7-59c2.6,2.4,4,5.7,4,9c0,3.3-1.4,6.5-3.6,8.6
			c-1.7,1.5-4.6,3.3-8.4,3.3c-3.3,0-6.6-1.5-9-4c-1.9-2.1-3-5-3-8c0-3.1,1.2-6,3.3-8.1c2.4-2.4,5.5-3.7,8.7-3.7
			C81.7-62,84.6-60.9,86.7-59z M25.9-52c0-12.8,5.1-25.4,14.1-34.6c0.7-0.7,0.7-1.9,0-2.6c-0.7-0.7-1.9-0.7-2.6,0
			C27.8-79.3,22.3-65.7,22.3-52c0,1,0.8,1.8,1.8,1.8C25.1-50.2,25.9-51,25.9-52z M121.8-2.1c0.7-0.7,0.7-1.8,0-2.6
			c-0.7-0.7-1.8-0.7-2.6,0C108.5,5.8,93.7,11.8,78.7,11.8c-1,0-1.8,0.8-1.8,1.8s0.8,1.8,1.8,1.8C94.6,15.5,110.4,9.1,121.8-2.1z
			 M128.5-50.2c0-1-0.8-1.8-1.8-1.8H92.5c-1,0-1.8,0.8-1.8,1.8c0,1,0.8,1.8,1.8,1.8h34.2C127.7-48.4,128.5-49.2,128.5-50.2z
			 M113.6-14.2c9.6-9.4,15-22,15-35.7c0-13.7-5.7-27-15.5-36.2c-0.7-0.7-1.9-0.7-2.5,0.1L86.6-61.6c-0.7,0.7-0.7,1.9,0,2.6
			c0.7,0.7,1.9,0.7,2.6,0l22.6-23.2c8.3,8.5,13.1,20.2,13.1,32.4c0,12.7-4.9,24.4-13.9,33.1C102.4-8.5,90.7-3.8,78.7-3.8
			c-1,0-1.8,0.8-1.8,1.8s0.8,1.8,1.8,1.8C91.6-0.1,104.3-5.3,113.6-14.2z M79.8-7.1c0-1-0.8-1.8-1.8-1.8c-11.4,0-21.8-4.2-29.5-11.8
			l19.4-19.4c0.7-0.7,0.7-1.9,0-2.6c-0.7-0.7-1.9-0.7-2.6,0L44.6-22c-0.7,0.7-0.7,1.8,0,2.5C53.1-10.3,65-5.2,78-5.2
			C79-5.2,79.8-6.1,79.8-7.1z M80.1-64.7v-27.2c10.4,0.4,19,4.1,27.2,11.6c0.7,0.7,1.9,0.6,2.6-0.1c0.7-0.7,0.6-1.9-0.1-2.6
			c-9.3-8.6-19.3-12.6-31.4-12.6c-1,0-1.8,0.8-1.8,1.8v29c0,1,0.8,1.8,1.8,1.8C79.3-62.9,80.1-63.7,80.1-64.7z M66.7-50.2
			c0-1-0.8-1.8-1.8-1.8H10.4c0.4-16.5,7-32.6,18.2-44.6l38.1,38c0.7,0.7,1.9,0.7,2.6,0c0.7-0.7,0.7-1.9,0-2.6l-39.4-39.3
			c-0.3-0.3-0.8-0.5-1.3-0.5c0,0,0,0,0,0c-0.5,0-0.9,0.2-1.3,0.5C14.2-87.2,6.7-68.9,6.7-50.2c0,1,0.8,1.8,1.8,1.8h56.3
			C65.8-48.4,66.7-49.2,66.7-50.2z M134.9,7c0.7-0.7,0.7-1.8,0-2.5L121.6-8.8l-32-32.5c-0.7-0.7-1.9-0.7-2.6,0
			c-0.7,0.7-0.7,1.8,0,2.6l32,32.5l12.1,12.1C117.7,19,99.9,26.4,80.5,26.9v-63.2c0-1-0.8-1.8-1.8-1.8s-1.8,0.8-1.8,1.8v65
			c0,1,0.8,1.8,1.8,1.8C100.4,30.5,120.3,22.2,134.9,7z"/>
	</g>
	<g id="Black-M" transform="matrix(1 0 0 1 2871.36 1126)">
		<path d="M88.8-26.6c5.8-5.5,9-13.1,9-21.4c0.2-7.8-5-17.5-9.2-21.6c-3.9-3.7-12.8-7.9-20.2-7.9c-8,0-15.6,3.2-21.4,8.9
			c0,0-0.1,0.1-0.1,0.1c-5.5,5.8-8.4,12.9-8.4,20.6c0,7.6,2.8,14.8,7.9,20.2c5.7,6,13.6,9.5,21.7,9.5C75.8-18.2,83.1-21.2,88.8-26.6
			z M68.4-67.1c4.7,0,9.4,1.8,13.1,5.1c3.9,3.7,5.9,10,6,13.7c0,3.8-2.1,10.6-5.8,14.1c-3.7,3.6-8.5,5.5-13.5,5.5
			c-5.2,0-10.4-2.3-14.2-6.2c-3.3-3.5-5.1-8.1-5.1-13c0-6.3,3-10.8,5.5-13.4C58.2-65,63.2-67.1,68.4-67.1z M78.5-36.7
			c2.2-2,4.8-6.9,4.8-10.9c0-4.1-1.8-8.1-4.9-11.1c-2.7-2.5-6.2-3.8-10-3.8c-4,0-7.8,1.6-10.7,4.5c-2.7,2.7-4.2,6.4-4.2,10.3
			c0,3.8,1.4,7.3,3.9,10c2.9,3.1,6.9,4.9,11,4.9C72.1-32.9,76.6-34.9,78.5-36.7z M71.4-51.1c1,0.9,1.6,2.2,1.6,3.4
			c0,1.2-0.5,2.4-1.2,3.1c-0.7,0.6-1.8,1.3-3.3,1.3c-1.3,0-2.5-0.6-3.4-1.6c-0.7-0.7-1.1-1.8-1.1-2.9c0-1.1,0.4-2.2,1.2-2.9
			c0.5-0.5,1.7-1.5,3.3-1.5C69.6-52.1,70.6-51.8,71.4-51.1z M27.7-49.3c0-9.8,3.9-19.5,10.8-26.6c2-2.1,2-5.3-0.1-7.3
			c-2.1-2-5.3-2-7.3,0.1c-8.8,9-13.8,21.3-13.8,33.8c0,2.9,2.3,5.2,5.2,5.2S27.7-46.4,27.7-49.3z M107.3-4.8c2.1-2,2.1-5.3,0.1-7.3
			c-2-2.1-5.3-2.1-7.3-0.1C91.6-4,80.1,0.7,68.4,0.7c-2.9,0-5.2,2.3-5.2,5.2s2.3,5.2,5.2,5.2C82.8,11.1,96.9,5.3,107.3-4.8z
			 M114-47.8c0-2.9-2.3-5.2-5.2-5.2H80.1c-2.9,0-5.2,2.3-5.2,5.2s2.3,5.2,5.2,5.2h28.7C111.6-42.6,114-44.9,114-47.8z M100.3-14.9
			c8.8-8.6,13.7-20.2,13.7-32.6c0-12.6-5.2-24.6-14.2-33.1c-2.1-1.9-5.3-1.9-7.3,0.2l-20,20.6c-2,2.1-1.9,5.3,0.1,7.3
			c2.1,2,5.3,1.9,7.3-0.1l16.2-16.7c4.8,6.1,7.5,13.8,7.5,21.8c0,9.7-3.7,18.6-10.5,25.2c-6.5,6.3-15.5,10-24.6,10
			c-2.9,0-5.2,2.3-5.2,5.2S65.6-2,68.4-2C80.2-2,91.8-6.7,100.3-14.9z M73-11.5c0-2.9-2.3-5.2-5.2-5.2c-7.3,0-14-2.3-19.4-6.4
			l13.5-13.5c2-2,2-5.3,0-7.3c-2-2-5.3-2-7.3,0L37.2-26.7c-2,2-2,5.2-0.1,7.2C45-11,55.9-6.3,67.8-6.3C70.7-6.3,73-8.7,73-11.5z
			 M73.3-60v-18.8c6.2,1,11.6,3.7,16.7,8.4c2.1,1.9,5.4,1.8,7.3-0.3c1.9-2.1,1.8-5.4-0.3-7.3c-8.4-7.8-17.9-11.6-28.9-11.6
			c-2.9,0-5.2,2.3-5.2,5.2V-60c0,2.9,2.3,5.2,5.2,5.2C71-54.8,73.3-57.1,73.3-60z M118.3-4.4l-11.2-11.2L80.2-42.9
			c-2-2-5.3-2.1-7.3-0.1c-0.7,0.7,1.2,7.6,1.2,7.6L99.7-8.3l7.4,7.4c-9.3,8.1-20.9,12.9-33.6,14v-47.9c0,0-4.1-6.6-5.2-6.6
			c-2.9,0-5.2,2.3-5.2,5.2v54.7c0,2.9,2.3,5.2,5.2,5.2c19.2,0,37-7.4,49.9-20.9C120.3,0.8,120.3-2.4,118.3-4.4z M63-59.7L30-92.7
			c-1-1-2.3-1.5-3.7-1.5c0,0,0,0,0,0c-1.4,0-2.7,0.6-3.7,1.6C11-80.8,4.3-64.5,4.3-47.8c0,2.9,2.3,5.2,5.2,5.2h47.3
			c2.9,0,5.2-2.3,5.2-5.2c0-1.2-6.6-4.7-6.6-4.7L14.9-53c1-10.4,5.1-20.4,11.6-28.5l28.8,28.7c0,0,7.1,1.2,7.7,0.5
			C65.1-54.3,65.1-57.6,63-59.7z"/>
	</g>
	<g id="Heavy-M" transform="matrix(1 0 0 1 2575.48 1126)">
		<path d="M88.1-26.9c5.7-5.4,8.8-12.8,8.9-20.9c0.2-7.6-5-17.2-9.2-21.1c-3.8-3.6-12.5-7.6-19.7-7.6c-7.9,0-15.4,3.1-21,8.7
			c0,0-0.1,0.1-0.1,0.1c-5.4,5.6-8.2,12.6-8.2,20.1c0,7.4,2.8,14.4,7.8,19.7c5.6,5.9,13.4,9.2,21.3,9.2
			C75.3-18.8,82.5-21.7,88.1-26.9z M68.1-67.2c4.8,0,9.6,1.8,13.4,5.2c4,3.8,6.1,10.1,6.1,13.9c0,3.9-2.1,10.7-5.9,14.3
			c-3.8,3.6-8.7,5.6-13.8,5.6c-5.4,0-10.7-2.3-14.5-6.3c-3.3-3.5-5.2-8.2-5.2-13.2c0-5,1.9-9.7,5.6-13.6
			C57.6-65.1,62.7-67.2,68.1-67.2z M78.3-36.8c2.1-2,4.7-6.7,4.7-10.8c0-4.1-1.8-8.1-4.9-11c-2.7-2.5-6.2-3.8-10-3.8
			c-4,0-7.8,1.6-10.7,4.5c-2.7,2.7-4.3,6.4-4.3,10.2c0,3.7,1.4,7.3,3.9,10c2.9,3.1,6.9,4.9,11.1,4.9C71.7-32.8,76.3-34.9,78.3-36.8z
			 M71.7-51.6c1.2,1.1,1.9,2.6,1.9,4.1c0,1.4-0.6,2.8-1.5,3.8c-0.9,0.7-2.2,1.5-3.9,1.5c-1.5,0-3.1-0.7-4.2-1.9
			c-0.8-0.9-1.3-2.2-1.3-3.5s0.5-2.6,1.5-3.5c1.1-1.1,2.6-1.7,4-1.7C69.4-52.9,70.8-52.4,71.7-51.6z M27-49.2
			c0-9.8,4-19.5,10.9-26.6c1.8-1.9,1.8-4.8-0.1-6.7c-1.9-1.8-4.8-1.8-6.7,0.1c-8.7,8.8-13.6,20.9-13.6,33.2c0,2.6,2.1,4.7,4.7,4.7
			S27-46.6,27-49.2z M106.5-5.3c1.9-1.8,1.9-4.8,0.1-6.7c-1.8-1.9-4.8-1.9-6.7-0.1C91.5-3.9,79.8,0.8,68.1,0.8
			c-2.6,0-4.7,2.1-4.7,4.7s2.1,4.7,4.7,4.7C82.3,10.2,96.3,4.5,106.5-5.3z M113.1-47.7c0-2.6-2.1-4.7-4.7-4.7H79.7
			c-2.6,0-4.7,2.1-4.7,4.7c0,2.6,2.1,4.7,4.7,4.7h28.7C111-43,113.1-45.1,113.1-47.7z M99.5-15.4c8.7-8.4,13.5-19.8,13.5-32
			c0-12.3-5.1-24.2-14-32.5c-1.9-1.8-4.8-1.7-6.6,0.1l-20,20.4c-1.8,1.9-1.8,4.8,0.1,6.7c1.9,1.8,4.8,1.8,6.7-0.1l16.6-16.9
			c5.1,6.2,7.9,14.1,7.9,22.3c0,9.7-3.8,18.6-10.6,25.2c-6.6,6.4-15.7,10-24.9,10c-2.6,0-4.7,2.1-4.7,4.7s2.1,4.7,4.7,4.7
			C79.7-2.8,91.2-7.4,99.5-15.4z M72.2-11.8c0-2.6-2.1-4.7-4.7-4.7c-7.5,0-14.5-2.4-20.1-6.8L61.2-37c1.8-1.8,1.9-4.8,0-6.7
			c-1.8-1.9-4.8-1.9-6.7,0L37.2-26.5c-1.8,1.8-1.9,4.7-0.1,6.6c7.8,8.3,18.6,12.9,30.3,12.9C70.1-7.1,72.2-9.2,72.2-11.8z
			 M72.4-59.7v-19.2c6.5,0.9,12.1,3.7,17.4,8.6c1.9,1.8,4.9,1.6,6.7-0.3c1.8-1.9,1.6-4.9-0.3-6.7C88-84.9,78.6-88.7,67.7-88.7
			c-2.6,0-4.7,2.1-4.7,4.7v24.2c0,2.6,2.1,4.7,4.7,4.7C70.3-55,72.4-57.1,72.4-59.7z M61.4-59.1l-33-32.8c-0.9-0.9-2.1-1.4-3.3-1.4
			c0,0,0,0,0,0c-1.3,0-2.5,0.5-3.3,1.4C10.1-80.2,3.5-64.1,3.5-47.7c0,2.6,2.1,4.7,4.7,4.7h47.3c2.6,0,4.7-2.1,4.7-4.7
			c0-1.3-5.9-4.8-5.9-4.8l-41.2,0c1-10.7,5.2-21,12-29.3c0,0,29.4,29.2,29.4,29.2c0,0,6,0.8,6.8,0.1C63.3-54.3,63.2-57.3,61.4-59.1z
			 M117.5-4.4l-11.2-11.1l-26.9-27c-1.8-1.8-4.8-1.9-6.7,0c-0.9,0.9,0.5,7.2,0.5,7.2L99.7-8.8l7.7,7.7c-9.5,8.4-21.6,13.3-34.6,14.3
			v-49c0,0-3.4-5-4.7-5c-2.6,0-4.7,2.1-4.7,4.7V18c0,2.6,2.1,4.7,4.7,4.7c19.1,0,36.6-7.3,49.5-20.5C119.4,0.4,119.3-2.6,117.5-4.4z
			"/>
	</g>
	<g id="Bold-M" transform="matrix(1 0 0 1 2279.69 1126)">
		<path d="M86.1-27.3c5.5-5.2,8.6-12.5,8.6-20.4c0.2-7.4-4.8-16.7-8.9-20.5c-3.8-3.6-12.3-7.5-19.3-7.5c-7.7,0-15,3-20.5,8.5
			c0,0-0.1,0.1-0.1,0.1c-5.3,5.5-8,12.3-8,19.6c0,7.2,2.7,14.1,7.6,19.2c5.5,5.7,13.1,9,20.8,9C73.6-19.4,80.7-22.2,86.1-27.3z
			 M66.6-67.3c4.9,0,9.7,1.9,13.5,5.3c4,3.8,6.1,10.4,6.2,14.2c0,3.9-2.1,10.6-6,14.3c-3.9,3.6-8.8,5.7-13.9,5.7
			c-5.4,0-10.8-2.3-14.6-6.4c-3.4-3.5-5.2-8.3-5.2-13.3c0-5.1,2-9.9,5.6-13.7C56-65.2,61.2-67.3,66.6-67.3z M77.3-35.9
			c2.3-2.1,5-7.2,5-11.4c0-4.3-1.9-8.6-5.2-11.6c-2.8-2.5-6.6-4-10.5-4c-4.2,0-8.2,1.7-11.3,4.7c-2.9,2.9-4.5,6.7-4.5,10.8
			c0,3.9,1.5,7.7,4.1,10.5c3.1,3.3,7.3,5.1,11.7,5.1C70.4-31.9,75.2-34,77.3-35.9z M71.4-52.8c1.6,1.5,2.5,3.4,2.5,5.4
			c0,1.9-0.8,3.8-2.1,5c-1.1,0.9-2.9,2-5.1,2c-2,0-4-0.9-5.5-2.4c-1.1-1.2-1.8-2.9-1.8-4.7c0-1.8,0.7-3.5,2-4.7
			c1.5-1.5,3.3-2.3,5.3-2.3C68.4-54.6,70.2-53.9,71.4-52.8z M25.5-49c0-9.8,4-19.5,10.9-26.6c1.6-1.7,1.6-4.4-0.1-6
			c-1.7-1.6-4.4-1.6-6,0.1C21.9-73,17.1-61.1,17.1-49c0,2.3,1.9,4.2,4.2,4.2S25.5-46.7,25.5-49z M104.3-5.9c1.7-1.6,1.7-4.3,0.1-6
			c-1.6-1.7-4.3-1.7-6-0.1c-8.4,8.2-20,12.9-31.8,12.9c-2.3,0-4.2,1.9-4.2,4.2s1.9,4.2,4.2,4.2C80.5,9.3,94.3,3.8,104.3-5.9z
			 M110.7-47.6c0-2.3-1.9-4.2-4.2-4.2H78.1c-2.3,0-4.2,1.9-4.2,4.2s1.9,4.2,4.2,4.2h28.4C108.8-43.3,110.7-45.2,110.7-47.6z
			 M97.4-15.9c8.5-8.2,13.2-19.4,13.2-31.4c0-12.1-5-23.7-13.7-31.9c-1.7-1.6-4.3-1.5-5.9,0.1L71.2-58.9c-1.6,1.7-1.6,4.4,0.1,6
			c1.7,1.6,4.4,1.6,6-0.1L94-70c5.2,6.3,8.2,14.3,8.2,22.7c0,9.7-3.8,18.7-10.7,25.3c-6.6,6.4-15.7,10-24.9,10
			c-2.3,0-4.2,1.9-4.2,4.2s1.9,4.2,4.2,4.2C78-3.5,89.2-8.1,97.4-15.9z M70.2-12c0-2.3-1.9-4.2-4.2-4.2c-7.7,0-14.9-2.5-20.5-7.1
			l14-13.9c1.7-1.7,1.7-4.3,0-6c-1.7-1.7-4.3-1.7-6,0l-17.1,17c-1.6,1.6-1.7,4.2-0.1,5.9C43.9-12.2,54.4-7.8,66-7.8
			C68.3-7.8,70.2-9.7,70.2-12z M70.5-59.5V-79c6.7,0.8,12.5,3.6,18,8.6c1.7,1.6,4.4,1.5,6-0.3c1.6-1.7,1.5-4.4-0.3-6
			C86-84.1,76.9-87.7,66.3-87.7c-2.3,0-4.2,1.9-4.2,4.2v24c0,2.3,1.9,4.2,4.2,4.2C68.6-55.3,70.5-57.2,70.5-59.5z M115.2,1.5
			c1.6-1.7,1.6-4.3-0.1-6l-11-11L77.6-42.2c-1.6-1.7-4.3-1.7-6,0c-1.7,1.6-1.7,4.3,0,6L98.1-9.4l8,7.9c-9.7,8.6-21.9,13.7-35.3,14.6
			v-49.2c0-2.3-1.9-4.2-4.2-4.2s-4.2,1.9-4.2,4.2v53.6c0,2.3,1.9,4.2,4.2,4.2C85.3,21.7,102.6,14.6,115.2,1.5z M60.7-52.6
			c1.7-1.7,1.6-4.3,0-6L28-91c-0.8-0.8-1.8-1.2-3-1.2c-1.1,0-2.2,0.5-3,1.3C10.6-79.5,4.1-63.7,4.1-47.6c0,2.3,1.9,4.2,4.2,4.2h46.7
			c2.3,0,3.9-1.8,3.9-4.1c0-1.7-3.7-4.3-3.9-4.3H12.8c0.9-11,5.3-21.6,12.3-30.1l29.5,29.3c0.3,0.3,2.3,1.2,2.3,1.2
			C58.2-51.2,59.6-51.6,60.7-52.6z"/>
	</g>
	<g id="Semibold-M" transform="matrix(1 0 0 1 1983.62 1126)">
		<path d="M84.9-27.7c5.4-5.1,8.4-12.2,8.4-19.9c0.2-7.2-4.7-16.2-8.6-20c-3.7-3.5-12-7.3-18.8-7.3c-7.5,0-14.6,2.9-19.9,8.3
			c0,0,0,0-0.1,0.1c-5.1,5.4-7.8,12-7.8,19.1c0,7.1,2.6,13.7,7.4,18.7c5.3,5.6,12.7,8.8,20.2,8.8C72.7-20,79.6-22.7,84.9-27.7z
			 M65.9-67.4c5,0,9.8,1.9,13.6,5.3c4.1,3.9,6.2,10.4,6.2,14.3c0,3.9-2.1,10.9-6,14.6c-3.9,3.7-8.9,5.7-14,5.7
			c-5.5,0-10.9-2.4-14.8-6.4c-3.4-3.6-5.3-8.4-5.3-13.5c0-5.2,2-10,5.7-13.9C55.2-65.3,60.4-67.4,65.9-67.4z M76.2-36.3
			c2.2-2,4.8-6.9,4.8-11c0-4.2-1.8-8.2-5-11.2c-2.7-2.4-6.4-3.9-10.1-3.9c-4,0-7.9,1.6-10.8,4.6c-2.8,2.8-4.3,6.4-4.3,10.3
			c0,3.8,1.4,7.4,3.9,10.1c3,3.1,7,5,11.2,5C69.6-32.4,74.2-34.4,76.2-36.3z M70.9-52.9c1.6,1.5,2.6,3.6,2.6,5.7c0,2-0.8,4-2.2,5.3
			c-1.1,1-3,2.1-5.4,2.1c-2.1,0-4.2-0.9-5.7-2.6c-1.2-1.3-1.9-3.1-1.9-5c0-1.9,0.7-3.7,2.1-5c1.5-1.5,3.5-2.4,5.5-2.4
			C67.8-54.8,69.6-54.1,70.9-52.9z M24.9-48.9c0-9.9,4-19.6,10.9-26.7c1.5-1.5,1.4-3.9-0.1-5.3c-1.5-1.5-3.9-1.4-5.3,0.1
			c-8.3,8.5-13.1,20.1-13.1,31.9c0,2.1,1.7,3.8,3.8,3.8S24.9-46.8,24.9-48.9z M102.9-6.5c1.5-1.4,1.5-3.8,0.1-5.3s-3.8-1.5-5.3-0.1
			c-8.4,8.2-20,12.9-31.7,12.9c-2.1,0-3.8,1.7-3.8,3.8s1.7,3.8,3.8,3.8C79.6,8.4,93,3,102.9-6.5z M109-47.4c0-2.1-1.7-3.8-3.8-3.8
			h-28c-2.1,0-3.8,1.7-3.8,3.8s1.7,3.8,3.8,3.8h28C107.3-43.7,109-45.4,109-47.4z M96.1-16.4c8.4-8.1,13-19,13-30.8
			c0-11.9-4.9-23.2-13.4-31.3c-1.5-1.4-3.8-1.4-5.3,0.1l-19.6,20c-1.5,1.5-1.4,3.9,0.1,5.3c1.5,1.5,3.9,1.4,5.3-0.1L93-70.3
			c5.4,6.3,8.5,14.6,8.5,23.1c0,9.7-3.8,18.7-10.7,25.4c-6.6,6.4-15.7,10-25,10c-2.1,0-3.8,1.7-3.8,3.8s1.7,3.8,3.8,3.8
			C77-4.3,88-8.7,96.1-16.4z M69-12.2c0-2.1-1.7-3.8-3.8-3.8c-7.9,0-15.2-2.6-20.9-7.4l14.2-14.1c1.5-1.5,1.5-3.9,0-5.3
			c-1.5-1.5-3.9-1.5-5.3,0L36.3-26c-1.4,1.4-1.5,3.8-0.1,5.2c7.4,8,17.8,12.3,29.1,12.3C67.4-8.5,69-10.1,69-12.2z M69.3-59.3V-79
			c6.9,0.7,12.9,3.6,18.5,8.7c1.5,1.4,3.9,1.3,5.3-0.2c1.4-1.5,1.3-3.9-0.2-5.3c-8-7.3-16.9-10.9-27.3-10.9c-2.1,0-3.8,1.7-3.8,3.8
			v23.7c0,2.1,1.7,3.8,3.8,3.8C67.6-55.5,69.3-57.2,69.3-59.3z M58.3-47.4c0-2.1-1.7-3.8-3.8-3.8H12.2c0.8-11.3,5.3-22.2,12.6-30.8
			l29.5,29.4c1.5,1.5,3.9,1.5,5.3,0c1.5-1.5,1.5-3.9,0-5.3L27.4-90.2c-0.7-0.7-1.7-1.1-2.7-1.1c0,0,0,0,0,0c-1,0-2,0.4-2.7,1.1
			C10.9-78.8,4.6-63.3,4.6-47.4c0,2.1,1.7,3.8,3.8,3.8h46.2C56.6-43.7,58.3-45.4,58.3-47.4z M113.7,0.9c1.4-1.5,1.4-3.8,0-5.3
			l-10.9-10.9L76.4-41.8c-1.5-1.5-3.8-1.5-5.3,0c-1.5,1.5-1.5,3.8,0,5.3L97.4-10l8.2,8.2c-9.8,8.9-22.3,14.1-35.9,14.9v-49.2
			c0-2.1-1.7-3.8-3.8-3.8c-2.1,0-3.8,1.7-3.8,3.8V17c0,2.1,1.7,3.8,3.8,3.8C84.3,20.7,101.3,13.7,113.7,0.9z"/>
	</g>
	<g id="Medium-M" transform="matrix(1 0 0 1 1687.4 1126)">
		<path d="M83.8-28.1c5.3-5,8.2-11.9,8.2-19.4c0.2-7-2.9-14.3-8.4-19.5c0,0,0,0-0.1-0.1c-5.1-4.6-11.6-7.1-18.2-7.1
			c-7.3,0-14.2,2.9-19.5,8.1c-5,5.2-7.6,11.7-7.6,18.6c0,6.9,2.5,13.3,7.2,18.2c5.2,5.4,12.4,8.6,19.7,8.6
			C72-20.5,78.6-23.2,83.8-28.1z M79.1-62.1c4.1,3.9,6.3,10.5,6.3,14.5c0,4-2.2,11-6.1,14.7c-3.9,3.7-9,5.8-14.2,5.8
			c-5.5,0-11-2.4-14.9-6.5c-3.5-3.6-5.4-8.5-5.4-13.7c0-5.3,2-10.1,5.7-14c4-4,9.2-6.2,14.8-6.2C70.3-67.5,75.2-65.6,79.1-62.1z
			 M75.3-36.7c2.1-1.9,4.5-6.5,4.5-10.5c0-4-1.7-7.9-4.8-10.8c-2.6-2.4-6.1-3.7-9.7-3.7c-3.9,0-7.6,1.6-10.4,4.4
			c-2.7,2.6-4.1,6.2-4.1,9.9c0,3.6,1.4,7.1,3.7,9.7c2.8,3,6.8,4.8,10.8,4.8C68.9-32.8,73.4-34.8,75.3-36.7z M70.6-53.1
			c1.7,1.6,2.7,3.8,2.7,5.9c0,2.1-0.9,4.2-2.3,5.6c-1.2,1-3.1,2.1-5.6,2.1c-2.2,0-4.4-1-6-2.7c-1.2-1.3-2-3.2-2-5.2
			c0-2,0.8-3.9,2.2-5.3c1.6-1.6,3.6-2.5,5.8-2.5C67.3-55,69.2-54.3,70.6-53.1z M24.3-48.8c0-9.9,4-19.6,10.9-26.7
			c1.3-1.3,1.2-3.4,0-4.7c-1.3-1.3-3.4-1.2-4.7,0c-8.1,8.3-12.8,19.7-12.8,31.3c0,1.8,1.5,3.3,3.3,3.3C22.9-45.5,24.3-47,24.3-48.8z
			 M101.6-7.2c1.3-1.3,1.3-3.3,0.1-4.7c-1.3-1.3-3.3-1.3-4.7-0.1C88.6-3.7,77,1,65.3,1C63.5,1,62,2.5,62,4.3s1.5,3.3,3.3,3.3
			C78.7,7.6,91.9,2.2,101.6-7.2z M107.6-47.3c0-1.8-1.5-3.3-3.3-3.3H76.5c-1.8,0-3.3,1.5-3.3,3.3c0,1.8,1.5,3.3,3.3,3.3h27.7
			C106.1-44,107.6-45.5,107.6-47.3z M94.9-16.9c8.2-7.9,12.7-18.6,12.7-30.2c0-11.6-4.8-22.8-13.2-30.6c-1.3-1.2-3.4-1.2-4.6,0.1
			L70.4-57.8c-1.3,1.3-1.2,3.4,0.1,4.7c1.3,1.3,3.4,1.2,4.7-0.1l17-17.4c5.6,6.4,8.8,14.8,8.8,23.5c0,9.7-3.8,18.8-10.7,25.4
			c-6.6,6.4-15.7,10.1-25,10.1c-1.8,0-3.3,1.5-3.3,3.3S63.5-5,65.3-5C76.3-5,87-9.4,94.9-16.9z M68-12.5c0-1.8-1.5-3.3-3.3-3.3
			c-8.1,0-15.5-2.7-21.3-7.8l14.4-14.3c1.3-1.3,1.3-3.4,0-4.7c-1.3-1.3-3.4-1.3-4.7,0L36.4-25.8c-1.3,1.3-1.3,3.3-0.1,4.6
			c7.3,7.8,17.4,12.1,28.4,12.1C66.5-9.2,68-10.6,68-12.5z M68.3-59v-20c7.1,0.7,13.2,3.5,19,8.8c1.3,1.2,3.4,1.1,4.7-0.2
			c1.2-1.3,1.1-3.4-0.2-4.6C83.9-82.3,75.2-85.8,65-85.8c-1.8,0-3.3,1.5-3.3,3.3V-59c0,1.8,1.5,3.3,3.3,3.3
			C66.8-55.7,68.3-57.2,68.3-59z M57.4-47.3c0-1.8-1.5-3.3-3.3-3.3H11.8c0.7-11.6,5.3-22.8,12.9-31.6l29.5,29.4
			c1.3,1.3,3.4,1.3,4.7,0c1.3-1.3,1.3-3.4,0-4.7L27-89.3c-0.6-0.6-1.5-1-2.3-1c0,0,0,0,0,0c-0.9,0-1.7,0.4-2.3,1
			C11.4-78.2,5.1-62.9,5.1-47.3c0,1.8,1.5,3.3,3.3,3.3h45.7C55.9-44,57.4-45.5,57.4-47.3z M112.3,0.2c1.2-1.3,1.2-3.3,0-4.6
			l-10.8-10.8l-26-26.2c-1.3-1.3-3.4-1.3-4.7,0c-1.3,1.3-1.3,3.4,0,4.7l26,26.3l8.5,8.4C95.3,7,82.5,12.3,68.6,13.1v-49.2
			c0-1.8-1.5-3.3-3.3-3.3c-1.8,0-3.3,1.5-3.3,3.3v52.6c0,1.8,1.5,3.3,3.3,3.3C83.4,19.7,100.1,12.8,112.3,0.2z"/>
	</g>
	<g id="Regular-M" transform="matrix(1 0 0 1 1391.32 1126)">
		<path d="M82.6-28.5c5.1-4.8,7.9-11.5,7.9-18.8c0.2-6.8-2.8-13.9-8.1-18.9c0,0,0,0-0.1-0.1c-5-4.5-11.3-6.9-17.7-6.9
			c-7.1,0-13.8,2.8-18.9,7.9c-4.8,5.1-7.4,11.4-7.4,18.2c0,6.7,2.5,13,7,17.7c5.1,5.3,12,8.3,19.1,8.3
			C71.1-21.1,77.6-23.8,82.6-28.5z M78.5-62.2c4.2,4,6.4,10.7,6.4,14.7c0,4-2.2,11.1-6.2,14.9c-4,3.8-9.1,5.8-14.3,5.8
			c-5.6,0-11.1-2.4-15.1-6.6c-3.5-3.7-5.4-8.6-5.4-13.8c0-5.3,2-10.2,5.8-14.2c4-4,9.3-6.2,14.9-6.2C69.7-67.6,74.6-65.7,78.5-62.2z
			 M74.2-37c2-1.9,4.3-6.2,4.3-10c0-3.8-1.7-7.6-4.6-10.3c-2.5-2.3-5.8-3.5-9.3-3.5c-3.7,0-7.3,1.5-10,4.2c-2.5,2.5-3.9,5.9-3.9,9.5
			c0,3.5,1.3,6.8,3.6,9.3c2.7,2.9,6.5,4.6,10.3,4.6C68-33.3,72.3-35.2,74.2-37z M70.1-53.2c1.8,1.7,2.8,3.9,2.8,6.2
			c0,2.2-0.9,4.4-2.5,5.9c-1.2,1-3.2,2.2-5.8,2.2c-2.3,0-4.6-1-6.2-2.8c-1.3-1.4-2.1-3.4-2.1-5.5c0-2.1,0.8-4.1,2.3-5.5
			c1.7-1.7,3.8-2.6,6-2.6C66.7-55.3,68.7-54.5,70.1-53.2z M23.7-48.6c0-9.9,4-19.6,10.9-26.7c1.1-1.1,1.1-2.9,0-4
			c-1.1-1.1-2.9-1.1-4,0C22.6-71.2,18-60,18-48.6c0,1.6,1.3,2.8,2.8,2.8C22.4-45.8,23.7-47.1,23.7-48.6z M100.2-7.8
			c1.1-1.1,1.1-2.9,0.1-4c-1.1-1.1-2.9-1.1-4-0.1C87.8-3.6,76.3,1.1,64.6,1.1c-1.6,0-2.8,1.3-2.8,2.8s1.3,2.8,2.8,2.8
			C77.8,6.7,90.7,1.4,100.2-7.8z M105.9-47.2c0-1.6-1.3-2.8-2.8-2.8H75.7c-1.6,0-2.8,1.3-2.8,2.8s1.3,2.8,2.8,2.8h27.4
			C104.7-44.4,105.9-45.6,105.9-47.2z M93.5-17.5c8-7.7,12.4-18.2,12.4-29.5c0-11.4-4.7-22.3-12.9-30c-1.1-1.1-2.9-1-3.9,0.1
			L70-57.3c-1.1,1.1-1.1,2.9,0.1,4c1.1,1.1,2.9,1.1,4-0.1l17.1-17.6c5.8,6.5,9.2,15,9.2,23.9c0,9.8-3.8,18.8-10.7,25.5
			c-6.6,6.4-15.7,10.1-25,10.1c-1.6,0-2.8,1.3-2.8,2.8s1.3,2.8,2.8,2.8C75.3-5.8,85.8-10,93.5-17.5z M66.9-12.7
			c0-1.6-1.3-2.8-2.8-2.8c-8.3,0-15.9-2.9-21.7-8.1l14.5-14.5c1.1-1.1,1.1-2.9,0-4c-1.1-1.1-2.9-1.1-4,0L36.3-25.6
			c-1.1,1.1-1.1,2.8-0.1,3.9c7.1,7.6,17,11.8,27.8,11.8C65.6-9.9,66.9-11.1,66.9-12.7z M67.1-58.8v-20.3c7.4,0.6,13.6,3.4,19.5,8.9
			c1.1,1.1,2.9,1,4-0.2c1.1-1.1,1-2.9-0.2-4c-7.6-7-16.2-10.5-26.1-10.5c-1.6,0-2.8,1.3-2.8,2.8v23.2c0,1.6,1.3,2.8,2.8,2.8
			S67.1-57.2,67.1-58.8z M56.3-47.2c0-1.6-1.3-2.8-2.8-2.8H13.9h-2.7c0.6-11.9,5.4-23.4,13.2-32.4L54-53c1.1,1.1,2.9,1.1,4,0
			s1.1-2.9,0-4L26.4-88.4c-0.5-0.5-1.3-0.8-2-0.8c-0.8,0-1.5,0.3-2,0.8C11.7-77.5,5.5-62.5,5.5-47.2c0,1.6,1.3,2.8,2.8,2.8h45.2
			C55.1-44.4,56.3-45.6,56.3-47.2z M110.7-0.5c1.1-1.1,1.1-2.9,0-4L100-15.1L74.3-41c-1.1-1.1-2.9-1.1-4,0c-1.1,1.1-1.1,2.9,0,4
			l25.7,26l8.7,8.7C94.7,7,81.6,12.4,67.4,13v-49.1c0-1.6-1.3-2.8-2.8-2.8c-1.6,0-2.8,1.3-2.8,2.8v52c0,1.6,1.3,2.8,2.8,2.8
			C82.4,18.7,98.7,11.9,110.7-0.5z"/>
	</g>
	<g id="Light-M" transform="matrix(1 0 0 1 1095.44 1126)">
		<path d="M81.2-28.9c5-4.7,7.7-11.3,7.7-18.3c0.2-6.6-2.7-13.5-7.9-18.5c0,0,0,0,0,0C76.1-70,70-72.4,63.7-72.4
			c-6.9,0-13.4,2.7-18.4,7.7c-4.7,4.9-7.2,11.1-7.2,17.7c0,6.5,2.4,12.6,6.8,17.2c4.9,5.2,11.7,8.1,18.6,8.1
			C70-21.7,76.3-24.3,81.2-28.9z M77.8-62.2c4.2,4,6.6,9.6,6.4,15c0,5.8-2.2,11.1-6.2,15c-4,3.8-9.1,5.9-14.5,5.9
			c-5.6,0-11.2-2.4-15.2-6.7c-3.5-3.7-5.5-8.7-5.5-14c0-5.4,2-10.4,5.9-14.4c4.1-4,9.4-6.3,15.1-6.3C68.8-67.7,73.8-65.8,77.8-62.2z
			 M72.9-37.3c2.6-2.4,4.1-6,4.1-9.6c0-3.7-1.6-7.3-4.4-9.9c-2.3-2.2-5.6-3.4-8.9-3.4c-3.6,0-6.9,1.4-9.6,4
			c-2.4,2.4-3.8,5.7-3.8,9.1c0,3.3,1.2,6.6,3.4,8.9c2.6,2.8,6.2,4.4,9.9,4.4C67-33.7,70.2-35,72.9-37.3z M69.4-53.4
			c1.9,1.7,2.9,4.1,2.9,6.5c0,2.3-1,4.6-2.5,6.1c-1.3,1.1-3.3,2.4-6.1,2.4c-2.4,0-4.8-1.1-6.5-2.9c-1.4-1.5-2.2-3.6-2.2-5.7
			c0-2.2,0.8-4.3,2.4-5.8c1.7-1.7,3.9-2.7,6.2-2.7C65.9-55.5,68-54.7,69.4-53.4z M22.8-48.5c0-9.9,4-19.7,10.9-26.8
			c0.9-0.9,0.9-2.4,0-3.3c-0.9-0.9-2.4-0.9-3.3,0c-7.8,8-12.3,18.9-12.3,30c0,1.3,1,2.3,2.3,2.3C21.7-46.1,22.8-47.2,22.8-48.5z
			 M98.6-8.4c0.9-0.9,0.9-2.4,0-3.3c-0.9-0.9-2.4-0.9-3.3,0C86.9-3.6,75.4,1.1,63.7,1.1c-1.3,0-2.3,1-2.3,2.3s1,2.3,2.3,2.3
			C76.6,5.8,89.3,0.6,98.6-8.4z M104.1-47.1c0-1.3-1-2.3-2.3-2.3H74.7c-1.3,0-2.3,1-2.3,2.3c0,1.3,1,2.3,2.3,2.3h27.1
			C103.1-44.7,104.1-45.8,104.1-47.1z M92-18c7.8-7.6,12.1-17.8,12.1-28.9c0-11.1-4.6-21.8-12.6-29.4c-0.9-0.9-2.4-0.8-3.3,0.1
			L69.4-56.7c-0.9,0.9-0.9,2.4,0,3.3c0.9,0.9,2.4,0.9,3.3,0L90-71.2c6,6.5,9.5,15.2,9.5,24.3c0,9.8-3.8,18.9-10.7,25.5
			c-6.6,6.4-15.8,10.1-25,10.1c-1.3,0-2.3,1-2.3,2.3s1,2.3,2.3,2.3C74.2-6.5,84.5-10.7,92-18z M65.5-12.9c0-1.3-1-2.3-2.3-2.3
			c-8.4,0-16.2-3-22.1-8.5l14.7-14.7c0.9-0.9,0.9-2.4,0-3.3c-0.9-0.9-2.4-0.9-3.3,0L36.1-25.4c-0.9,0.9-0.9,2.3-0.1,3.3
			c7,7.4,16.6,11.6,27.1,11.6C64.4-10.6,65.5-11.6,65.5-12.9z M65.7-58.5v-20.6c7.6,0.5,14,3.3,20,8.9c1,0.9,2.4,0.8,3.3-0.1
			c0.9-1,0.8-2.4-0.1-3.3c-7.4-6.9-15.8-10.2-25.5-10.2c-1.3,0-2.3,1-2.3,2.3v23c0,1.3,1,2.3,2.3,2.3C64.7-56.2,65.7-57.2,65.7-58.5
			z M55.1-47.1c0-1.3-1-2.3-2.3-2.3H14h-3.5c0.6-12.2,5.4-24,13.5-33.1l29.5,29.4c0.9,0.9,2.4,0.9,3.3,0c0.9-0.9,0.9-2.4,0-3.3
			L25.6-87.6c-0.4-0.4-1-0.7-1.7-0.7c-0.6,0-1.2,0.3-1.7,0.7C11.8-76.8,5.8-62.1,5.8-47.1c0,1.3,1,2.3,2.3,2.3h44.6
			C54-44.7,55.1-45.8,55.1-47.1z M109-1.1c0.9-0.9,0.9-2.4,0-3.3L98.4-15L73-40.7c-0.9-0.9-2.4-0.9-3.3,0c-0.9,0.9-0.9,2.4,0,3.3
			l25.4,25.7l8.9,8.9C93.8,6.9,80.5,12.5,66.1,13v-49.1c0-1.3-1-2.3-2.3-2.3s-2.3,1-2.3,2.3v51.5c0,1.3,1,2.3,2.3,2.3
			C81.2,17.7,97.2,11,109-1.1z"/>
	</g>
	<g id="Thin-M" transform="matrix(1 0 0 1 799.828 1126)">
		<path d="M79.5-29.3c4.8-4.6,7.5-10.9,7.5-17.8c0.2-6.4-2.7-13.1-7.7-17.9c0,0,0,0,0,0c-4.7-4.2-10.6-6.5-16.7-6.5
			c-6.7,0-13,2.6-17.9,7.5c-4.6,4.8-7,10.7-7,17.2c0,6.3,2.3,12.3,6.6,16.7c4.8,5,11.4,7.9,18.1,7.9C68.7-22.3,74.8-24.8,79.5-29.3z
			 M76.8-62.3c4.3,4.1,6.7,9.7,6.5,15.1c0,5.9-2.2,11.3-6.3,15.1c-4.1,3.8-9.2,6-14.6,6c-5.7,0-11.3-2.5-15.4-6.7
			c-3.6-3.8-5.6-8.8-5.6-14.2c0-5.4,2.1-10.5,5.9-14.5c4.1-4.1,9.5-6.3,15.2-6.3C67.7-67.8,72.8-65.9,76.8-62.3z M71.4-37.6
			c2.5-2.3,3.9-5.7,3.9-9.2c0-3.5-1.5-7-4.2-9.5c-2.2-2.1-5.3-3.2-8.5-3.2c-3.4,0-6.6,1.4-9.1,3.9c-2.3,2.3-3.6,5.4-3.6,8.7
			c0,3.2,1.2,6.3,3.3,8.5c2.5,2.7,6,4.2,9.5,4.2C65.7-34.2,68.8-35.4,71.4-37.6z M68.5-53.5c1.9,1.8,3,4.2,3,6.7
			c0,2.4-1,4.8-2.7,6.4c-1.3,1.1-3.4,2.4-6.3,2.4c-2.5,0-4.9-1.1-6.7-3c-1.4-1.5-2.3-3.7-2.3-6c0-2.3,0.9-4.4,2.5-6
			c1.8-1.8,4.1-2.8,6.5-2.8C64.8-55.7,67-54.9,68.5-53.5z M21.6-48.4c0-9.9,4-19.7,10.9-26.8c0.7-0.7,0.7-1.9,0-2.6
			c-0.7-0.7-1.9-0.7-2.6,0c-7.6,7.8-12,18.5-12,29.4c0,1,0.8,1.9,1.9,1.9S21.6-47.3,21.6-48.4z M96.7-9c0.7-0.7,0.8-1.9,0-2.6
			c-0.7-0.7-1.9-0.8-2.6,0C85.7-3.5,74.2,1.2,62.6,1.2c-1,0-1.9,0.8-1.9,1.9s0.8,1.9,1.9,1.9C75.2,4.9,87.6-0.1,96.7-9z M102.1-47
			c0-1-0.8-1.9-1.9-1.9H73.4c-1,0-1.9,0.8-1.9,1.9c0,1,0.8,1.9,1.9,1.9h26.8C101.2-45.1,102.1-45.9,102.1-47z M90.2-18.5
			c7.6-7.4,11.9-17.5,11.9-28.3c0-10.9-4.5-21.4-12.3-28.7c-0.7-0.7-1.9-0.7-2.6,0.1L68.4-56.2c-0.7,0.7-0.7,1.9,0,2.6
			c0.7,0.7,1.9,0.7,2.6,0l17.4-17.9c6.3,6.6,9.8,15.5,9.8,24.7c0,9.8-3.8,18.9-10.7,25.6C81-14.7,71.8-11,62.6-11
			c-1,0-1.9,0.8-1.9,1.9s0.8,1.9,1.9,1.9C72.8-7.3,82.9-11.4,90.2-18.5z M63.9-13.2c0-1-0.8-1.9-1.9-1.9c-8.6,0-16.5-3.1-22.5-8.8
			l14.9-14.8c0.7-0.7,0.7-1.9,0-2.6c-0.7-0.7-1.9-0.7-2.6,0L35.5-25.2c-0.7,0.7-0.7,1.9,0,2.6c6.8,7.3,16.2,11.3,26.5,11.3
			C63-11.3,63.9-12.1,63.9-13.2z M64.1-58.3v-20.8c7.8,0.4,14.4,3.3,20.5,9c0.8,0.7,1.9,0.7,2.6-0.1c0.7-0.8,0.7-1.9-0.1-2.6
			c-7.4-6.8-15.3-10-25-10c-1,0-1.9,0.8-1.9,1.9v22.8c0,1,0.8,1.9,1.9,1.9S64.1-57.3,64.1-58.3z M53.6-47c0-1-0.8-1.9-1.9-1.9H13.9
			H9.5c0.5-12.5,5.4-24.6,13.8-33.9l29.5,29.5c0.7,0.7,1.9,0.7,2.6,0c0.7-0.7,0.7-1.9,0-2.7L24.6-86.7c-0.4-0.4-0.9-0.6-1.3-0.5
			c-0.5,0-1,0.2-1.3,0.6C11.6-76.2,5.7-61.7,5.7-47c0,1,0.8,1.9,1.9,1.9h44.1C52.7-45.1,53.6-45.9,53.6-47z M107-1.8
			c0.7-0.7,0.7-1.9,0-2.6L96.5-14.9L71.4-40.3c-0.7-0.7-1.9-0.7-2.7,0c-0.7,0.7-0.7,1.9,0,2.7l25.1,25.4l9.1,9.1
			C92.7,6.9,79.2,12.5,64.4,13v-49c0-1-0.8-1.9-1.9-1.9c-1,0-1.9,0.8-1.9,1.9v51c0,1,0.8,1.9,1.9,1.9C79.7,16.7,95.5,10.2,107-1.8z"
			/>
	</g>
	<g id="Ultralight-M" transform="matrix(1 0 0 1 503.679 1126)">
		<path d="M77.4-29.7c4.7-4.5,7.3-10.6,7.3-17.3c0.2-6.2-2.6-12.7-7.5-17.4c0,0,0,0,0,0c-4.6-4.1-10.3-6.4-16.2-6.4
			c-6.5,0-12.7,2.6-17.4,7.3c-4.4,4.7-6.8,10.4-6.8,16.7c0,6.1,2.3,11.9,6.4,16.3c4.6,4.9,11,7.7,17.6,7.7
			C66.9-22.9,72.8-25.3,77.4-29.7z M75.3-62.3c4.3,4.1,6.8,9.8,6.6,15.3c0,6-2.3,11.4-6.4,15.3c-4.1,3.9-9.3,6-14.8,6
			c-5.8,0-11.4-2.5-15.5-6.8c-3.6-3.8-5.6-8.9-5.6-14.3c0-5.5,2.1-10.6,6-14.7c4.1-4.1,9.6-6.4,15.3-6.4C66.1-68,71.2-66,75.3-62.3z
			 M69.3-37.9c2.3-2.2,3.7-5.4,3.7-8.8c0-3.4-1.5-6.6-4-9c-2.1-2-5.1-3.1-8.1-3.1c-3.2,0-6.3,1.3-8.7,3.7c-2.2,2.2-3.4,5.1-3.4,8.3
			c0,3,1.1,6,3.1,8.1c2.4,2.6,5.7,4,9,4C63.9-34.7,66.9-35.8,69.3-37.9z M67.1-53.6c2,1.9,3.1,4.4,3.1,7c0,2.5-1.1,5-2.8,6.7
			c-1.3,1.2-3.6,2.5-6.5,2.5c-2.6,0-5.1-1.1-7-3.1c-1.5-1.6-2.3-3.9-2.3-6.2c0-2.4,0.9-4.6,2.6-6.3C56-55,58.4-56,60.9-56
			C63.3-56,65.5-55.1,67.1-53.6z M20-48.2c0-9.9,4-19.7,10.9-26.8c0.5-0.6,0.5-1.4,0-2c-0.6-0.5-1.4-0.5-2,0
			c-7.5,7.7-11.7,18.1-11.7,28.8c0,0.8,0.6,1.4,1.4,1.4C19.4-46.8,20-47.4,20-48.2z M94.4-9.6c0.6-0.5,0.6-1.4,0-2s-1.4-0.6-2,0
			C84-3.4,72.6,1.3,60.9,1.3c-0.8,0-1.4,0.6-1.4,1.4s0.6,1.4,1.4,1.4C73.3,4.1,85.5-0.9,94.4-9.6z M99.6-46.8c0-0.8-0.6-1.4-1.4-1.4
			H71.7c-0.8,0-1.4,0.6-1.4,1.4c0,0.8,0.6,1.4,1.4,1.4h26.5C98.9-45.4,99.6-46.1,99.6-46.8z M88-19c7.5-7.3,11.6-17.1,11.6-27.7
			c0-10.7-4.4-20.9-12-28.1c-0.6-0.5-1.4-0.5-2,0l-18.5,19c-0.5,0.6-0.5,1.4,0,2c0.6,0.5,1.4,0.5,2,0l17.5-18
			c6.5,6.6,10.2,15.7,10.2,25.1c0,9.8-3.8,18.9-10.7,25.6c-6.7,6.4-15.8,10.1-25.1,10.1c-0.8,0-1.4,0.6-1.4,1.4S60.2-8,60.9-8
			C70.9-8,80.8-12,88-19z M61.8-13.4c0-0.8-0.6-1.4-1.4-1.4c-8.8,0-16.9-3.2-22.9-9.2l15-15c0.5-0.5,0.5-1.4,0-2
			c-0.5-0.5-1.4-0.5-2,0l-16,16c-0.5,0.5-0.6,1.4,0,1.9c6.6,7.1,15.8,11,25.9,11C61.1-12,61.8-12.6,61.8-13.4z M62-58.1v-21.1
			c8,0.3,14.8,3.2,21.1,9c0.6,0.5,1.5,0.5,2-0.1c0.5-0.6,0.5-1.5-0.1-2C77.8-78.9,70-82,60.6-82c-0.8,0-1.4,0.6-1.4,1.4v22.5
			c0,0.8,0.6,1.4,1.4,1.4C61.4-56.7,62-57.3,62-58.1z M51.6-46.8c0-0.8-0.6-1.4-1.4-1.4H8C8.3-61,13.4-73.5,22.1-82.8l29.5,29.5
			c0.5,0.5,1.4,0.5,2,0c0.5-0.5,0.5-1.4,0-2L23-85.8c-0.3-0.3-0.6-0.4-1-0.4c0,0,0,0,0,0c-0.4,0-0.7,0.2-1,0.4
			C10.9-75.5,5.1-61.3,5.1-46.8c0,0.8,0.6,1.4,1.4,1.4h43.7C51-45.4,51.6-46.1,51.6-46.8z M104.5-2.5c0.5-0.6,0.5-1.4,0-2L94.2-14.8
			L69.4-39.9c-0.5-0.6-1.4-0.6-2,0c-0.6,0.5-0.6,1.4,0,2l24.8,25.2l9.4,9.3c-10.4,10.2-24.2,16-39.2,16.3v-49c0-0.8-0.6-1.4-1.4-1.4
			c-0.8,0-1.4,0.6-1.4,1.4v50.4c0,0.8,0.6,1.4,1.4,1.4C77.7,15.7,93.2,9.3,104.5-2.5z"/>
	</g>
	<g id="Black-S" transform="matrix(1 0 0 1 2884.57 696)">
		<path d="M69.8-28.4c4.5-4.3,7-10.3,7.1-16.7c0.2-6.1-3.9-13.7-7.2-16.9c-3.1-2.9-10.1-6.2-15.8-6.2c-6.3,0-12.2,2.5-16.7,7
			c0,0,0,0-0.1,0.1c-4.3,4.5-6.6,10.1-6.6,16.1c0,6,2.2,11.6,6.2,15.8c4.5,4.7,10.7,7.4,17,7.4C59.6-21.9,65.3-24.2,69.8-28.4z
			 M53.8-60.2c3.7,0,7.3,1.4,10.2,4c3.1,2.9,4.7,7.8,4.7,10.7c0,3-1.6,8.3-4.5,11.1c-2.9,2.8-6.7,4.3-10.5,4.3
			c-4.1,0-8.1-1.8-11.1-4.9c-2.6-2.7-4-6.3-4-10.2c0-4.9,2.3-8.4,4.3-10.5C45.8-58.5,49.7-60.2,53.8-60.2z M61.7-36.4
			c1.7-1.6,3.7-5.4,3.7-8.6c0-3.2-1.4-6.4-3.8-8.7c-2.1-1.9-4.9-3-7.8-3c-3.1,0-6.1,1.2-8.3,3.5c-2.1,2.1-3.3,5-3.3,8
			c0,2.9,1.1,5.7,3,7.8c2.3,2.4,5.4,3.8,8.6,3.8C56.7-33.4,60.2-35,61.7-36.4z M56.1-47.6c0.8,0.7,1.2,1.7,1.2,2.7
			c0,0.9-0.4,1.9-1,2.4c-0.6,0.5-1.4,1-2.6,1c-1,0-2-0.5-2.7-1.2c-0.5-0.6-0.8-1.4-0.8-2.3c0-0.9,0.3-1.7,0.9-2.3
			c0.4-0.4,1.3-1.1,2.6-1.1C54.7-48.5,55.6-48.2,56.1-47.6z M22-46.3c0-7.7,3.1-15.3,8.5-20.8c1.6-1.6,1.5-4.2-0.1-5.7
			c-1.6-1.6-4.2-1.5-5.7,0.1c-6.9,7-10.8,16.7-10.8,26.5c0,2.2,1.8,4.1,4.1,4.1S22-44,22-46.3z M84.2-11.4c1.6-1.6,1.6-4.1,0.1-5.7
			c-1.6-1.6-4.1-1.6-5.7-0.1C72-10.8,63-7.1,53.8-7.1c-2.2,0-4.1,1.8-4.1,4.1S51.6,1,53.8,1C65.1,1,76.2-3.5,84.2-11.4z M89.5-45.1
			c0-2.2-1.8-4.1-4.1-4.1H62.9c-2.2,0-4.1,1.8-4.1,4.1s1.8,4.1,4.1,4.1h22.5C87.7-41,89.5-42.8,89.5-45.1z M78.8-19.3
			c6.9-6.7,10.7-15.8,10.7-25.6c0-9.8-4-19.3-11.1-26c-1.6-1.5-4.2-1.5-5.7,0.1L57-54.6c-1.6,1.6-1.5,4.2,0.1,5.7
			c1.6,1.6,4.2,1.5,5.7-0.1L75.5-62c3.8,4.8,5.8,10.8,5.8,17.1c0,7.6-2.9,14.6-8.2,19.7c-5.1,5-12.2,7.8-19.3,7.8
			c-2.2,0-4.1,1.8-4.1,4.1s1.8,4.1,4.1,4.1C63.1-9.2,72.2-12.9,78.8-19.3z M57.4-16.7c0-2.2-1.8-4.1-4.1-4.1c-5.7,0-11-1.8-15.2-5
			l10.6-10.6c1.6-1.6,1.6-4.2,0-5.7c-1.6-1.6-4.2-1.6-5.7,0L29.4-28.5c-1.5,1.5-1.6,4-0.1,5.6c6.2,6.6,14.7,10.3,24.1,10.3
			C55.6-12.6,57.4-14.4,57.4-16.7z M57.6-54.6v-14.8c4.8,0.7,9,2.9,13,6.6c1.6,1.5,4.2,1.4,5.7-0.2c1.5-1.6,1.4-4.2-0.2-5.7
			c-6.6-6.1-14-9.1-22.6-9.1c-2.2,0-4.1,1.8-4.1,4.1v19.1c0,2.2,1.8,4.1,4.1,4.1S57.6-52.4,57.6-54.6z M92.9-11.1l-8.8-8.8L63-41.2
			c-1.6-1.6-4.2-1.6-5.7,0c-0.6,0.6,1,5.9,1,5.9l20.1,21.2l5.8,5.8C76.9-2,67.8,1.8,57.9,2.6v-37.5c0,0-3.2-5.1-4.1-5.1
			c-2.2,0-4.1,1.8-4.1,4.1V6.9c0,2.2,1.8,4.1,4.1,4.1c15.1,0,28.9-5.8,39.1-16.3C94.5-7,94.4-9.5,92.9-11.1z M49.6-54.4L23.7-80.3
			c-0.8-0.8-1.8-1.2-2.9-1.2c0,0,0,0,0,0c-1.1,0-2.1,0.4-2.9,1.2C8.8-70.9,3.6-58.1,3.6-45.1c0,2.2,1.8,4.1,4.1,4.1h37.1
			c2.2,0,4.1-1.8,4.1-4.1c0-0.9-5.2-3.7-5.2-3.7l-31.7-0.4c0.8-8.1,4-15.9,9.1-22.3L43.6-49c0,0,5.5,0.9,6,0.4
			C51.2-50.2,51.2-52.8,49.6-54.4z"/>
	</g>
	<g id="Heavy-S" transform="matrix(1 0 0 1 2588.47 696)">
		<path d="M69.3-28.7c4.5-4.2,6.9-10,6.9-16.4c0.2-5.9-3.9-13.5-7.2-16.5c-3-2.8-9.8-6-15.4-6c-6.2,0-12,2.4-16.4,6.8
			c0,0,0,0-0.1,0.1c-4.2,4.4-6.5,9.9-6.5,15.8c0,5.8,2.2,11.3,6.1,15.4c4.4,4.6,10.5,7.2,16.7,7.2C59.3-22.3,64.9-24.6,69.3-28.7z
			 M53.6-60.2c3.8,0,7.5,1.4,10.5,4.1c3.1,3,4.8,7.9,4.8,10.9c0,3-1.6,8.4-4.6,11.2c-3,2.8-6.8,4.4-10.8,4.4
			c-4.2,0-8.3-1.8-11.4-4.9C39.4-37.4,38-41.1,38-45c0-3.9,1.5-7.6,4.4-10.6C45.4-58.6,49.4-60.2,53.6-60.2z M61.6-36.4
			c1.7-1.6,3.6-5.2,3.6-8.4c0-3.2-1.4-6.4-3.9-8.6c-2.1-1.9-4.9-3-7.8-3c-3.1,0-6.1,1.2-8.4,3.5c-2.1,2.1-3.3,5-3.3,8
			c0,2.9,1.1,5.7,3,7.8c2.3,2.4,5.4,3.8,8.7,3.8C56.4-33.3,60.1-35,61.6-36.4z M56.4-48.1c0.9,0.9,1.5,2,1.5,3.2
			c0,1.1-0.5,2.2-1.2,2.9c-0.7,0.6-1.7,1.2-3.1,1.2c-1.2,0-2.4-0.5-3.3-1.5c-0.7-0.7-1-1.7-1-2.8c0-1.1,0.4-2,1.1-2.8
			c0.9-0.9,2-1.4,3.2-1.4C54.7-49.1,55.7-48.7,56.4-48.1z M21.4-46.2c0-7.7,3.1-15.3,8.6-20.8c1.4-1.5,1.4-3.8,0-5.2
			c-1.5-1.4-3.8-1.4-5.2,0C17.9-65.2,14-55.8,14-46.2c0,2,1.7,3.7,3.7,3.7S21.4-44.1,21.4-46.2z M83.7-11.8c1.5-1.4,1.5-3.8,0.1-5.2
			c-1.4-1.5-3.8-1.5-5.2-0.1C71.9-10.7,62.8-7,53.6-7c-2,0-3.7,1.7-3.7,3.7s1.7,3.7,3.7,3.7C64.7,0.3,75.7-4.1,83.7-11.8z M88.8-45
			c0-2-1.7-3.7-3.7-3.7H62.7c-2,0-3.7,1.7-3.7,3.7c0,2,1.7,3.7,3.7,3.7h22.5C87.2-41.3,88.8-43,88.8-45z M78.2-19.7
			c6.8-6.6,10.6-15.5,10.6-25.1c0-9.7-4-18.9-11-25.5c-1.5-1.4-3.8-1.3-5.2,0.1L57-54.2c-1.4,1.5-1.4,3.8,0.1,5.2
			c1.5,1.4,3.8,1.4,5.2-0.1l13-13.3c4,4.9,6.2,11,6.2,17.4c0,7.6-3,14.6-8.3,19.8c-5.2,5-12.3,7.8-19.5,7.8c-2,0-3.7,1.7-3.7,3.7
			s1.7,3.7,3.7,3.7C62.7-9.8,71.7-13.4,78.2-19.7z M56.8-16.9c0-2-1.7-3.7-3.7-3.7c-5.9,0-11.4-1.9-15.7-5.3l10.8-10.7
			c1.4-1.4,1.5-3.8,0-5.2c-1.4-1.4-3.8-1.5-5.2,0L29.4-28.4C28-27,28-24.7,29.3-23.2c6.1,6.5,14.5,10.1,23.8,10.1
			C55.1-13.2,56.8-14.8,56.8-16.9z M57-54.4v-15c5.1,0.7,9.5,2.9,13.7,6.7c1.5,1.4,3.8,1.3,5.2-0.2c1.4-1.5,1.3-3.8-0.2-5.2
			c-6.5-6-13.8-8.9-22.3-8.9c-2,0-3.7,1.7-3.7,3.7v18.9c0,2,1.7,3.7,3.7,3.7S57-52.4,57-54.4z M48.4-53.9L22.5-79.6
			c-0.7-0.7-1.6-1.1-2.6-1.1c0,0,0,0,0,0c-1,0-1.9,0.4-2.6,1.1C8.2-70.4,3.1-57.8,3.1-45c0,2,1.7,3.7,3.7,3.7h37
			c2,0,3.7-1.7,3.7-3.7c0-1.1-4.6-3.7-4.6-3.7l-32.2,0c0.8-8.4,4.1-16.4,9.4-22.9c0,0,23,22.9,23.1,22.9c0,0,4.7,0.6,5.3,0
			C49.8-50.2,49.8-52.5,48.4-53.9z M92.3-11.1l-8.7-8.7l-21-21.2c-1.4-1.4-3.8-1.5-5.2,0c-0.7,0.7,0.4,5.6,0.4,5.6l20.6,20.8l6.1,6
			C76.9-2,67.5,1.9,57.3,2.6v-38.4c0,0-2.7-3.9-3.7-3.9c-2,0-3.7,1.7-3.7,3.7V6.5c0,2,1.7,3.7,3.7,3.7c14.9,0,28.7-5.7,38.8-16.1
			C93.8-7.4,93.7-9.7,92.3-11.1z"/>
	</g>
	<g id="Bold-S" transform="matrix(1 0 0 1 2292.43 696)">
		<path d="M67.8-29.1c4.3-4.1,6.7-9.8,6.8-16c0.2-5.8-3.8-13.1-6.9-16.1C64.6-63.9,58-67,52.5-67c-6,0-11.7,2.4-16,6.6
			c0,0,0,0-0.1,0.1c-4.1,4.3-6.3,9.6-6.3,15.4c0,5.7,2.1,11,5.9,15c4.3,4.5,10.2,7,16.3,7C58-22.8,63.5-25,67.8-29.1z M52.5-60.3
			c3.8,0,7.6,1.5,10.6,4.1c3.2,3,4.8,8.1,4.8,11.2c0,3-1.7,8.3-4.7,11.2c-3,2.9-6.9,4.4-10.9,4.4c-4.2,0-8.4-1.8-11.5-5
			c-2.6-2.8-4.1-6.5-4.1-10.4c0-4,1.5-7.7,4.4-10.8C44.2-58.7,48.2-60.3,52.5-60.3z M60.9-35.8c1.8-1.7,3.9-5.6,3.9-9
			c0-3.4-1.5-6.7-4.1-9.1c-2.2-2-5.2-3.1-8.2-3.1c-3.3,0-6.4,1.3-8.8,3.7c-2.3,2.2-3.5,5.2-3.5,8.4c0,3.1,1.2,6,3.2,8.2
			c2.4,2.6,5.7,4,9.1,4C55.5-32.6,59.2-34.3,60.9-35.8z M56.2-49c1.2,1.1,1.9,2.7,1.9,4.2c0,1.5-0.6,3-1.6,3.9
			c-0.9,0.7-2.2,1.5-4,1.5c-1.6,0-3.1-0.7-4.3-1.9c-0.9-1-1.4-2.3-1.4-3.7c0-1.4,0.5-2.7,1.5-3.7c1.2-1.1,2.6-1.8,4.1-1.8
			C53.9-50.4,55.3-49.9,56.2-49z M20.3-46c0-7.7,3.1-15.3,8.6-20.8c1.3-1.3,1.3-3.4,0-4.7c-1.3-1.3-3.4-1.3-4.7,0
			C17.5-64.8,13.7-55.5,13.7-46c0,1.8,1.5,3.3,3.3,3.3C18.8-42.7,20.3-44.2,20.3-46z M82-12.3c1.3-1.3,1.4-3.4,0.1-4.7
			c-1.3-1.3-3.4-1.4-4.7-0.1C70.8-10.7,61.7-7,52.5-7c-1.8,0-3.3,1.5-3.3,3.3s1.5,3.3,3.3,3.3C63.4-0.3,74.2-4.7,82-12.3z M87-44.9
			c0-1.8-1.5-3.3-3.3-3.3H61.5c-1.8,0-3.3,1.5-3.3,3.3c0,1.8,1.5,3.3,3.3,3.3h22.2C85.5-41.6,87-43.1,87-44.9z M76.6-20.1
			C83.3-26.6,87-35.3,87-44.7c0-9.5-3.9-18.6-10.8-25c-1.3-1.2-3.4-1.2-4.6,0.1L56.1-53.7c-1.3,1.3-1.3,3.4,0.1,4.7
			c1.3,1.3,3.4,1.3,4.7-0.1l13.1-13.4c4.1,4.9,6.4,11.2,6.4,17.8c0,7.6-3,14.6-8.3,19.8c-5.2,5-12.3,7.9-19.5,7.9
			c-1.8,0-3.3,1.5-3.3,3.3s1.5,3.3,3.3,3.3C61.4-10.4,70.2-14,76.6-20.1z M55.3-17c0-1.8-1.5-3.3-3.3-3.3c-6,0-11.6-2-16.1-5.6
			l11-10.9c1.3-1.3,1.3-3.4,0-4.7c-1.3-1.3-3.4-1.3-4.7,0L28.8-28.2c-1.3,1.3-1.3,3.3-0.1,4.6c6,6.4,14.2,9.9,23.3,9.9
			C53.8-13.7,55.3-15.2,55.3-17z M55.5-54.2v-15.2c5.2,0.6,9.8,2.8,14.1,6.8c1.3,1.2,3.4,1.2,4.7-0.2c1.2-1.3,1.2-3.4-0.2-4.7
			c-6.4-5.9-13.5-8.7-21.9-8.7c-1.8,0-3.3,1.5-3.3,3.3v18.8c0,1.8,1.5,3.3,3.3,3.3S55.5-52.4,55.5-54.2z M90.6-6.4
			c1.3-1.3,1.2-3.4,0-4.7l-8.6-8.6l-20.8-21c-1.3-1.3-3.4-1.3-4.7,0c-1.3,1.3-1.3,3.4,0,4.7l20.8,21l6.3,6.2
			C75.9-2,66.2,1.9,55.8,2.6v-38.6c0-1.8-1.5-3.3-3.3-3.3s-3.3,1.5-3.3,3.3v42c0,1.8,1.5,3.3,3.3,3.3C67.2,9.4,80.7,3.8,90.6-6.4z
			 M47.8-48.8c1.3-1.3,1.3-3.4,0-4.7L22.2-78.9c-0.6-0.6-1.4-1-2.4-1c-0.9,0-1.7,0.4-2.3,1c-8.9,9-14,21.4-14,34
			c0,1.8,1.5,3.3,3.3,3.3h36.6c1.8,0,3.1-1.4,3.1-3.2c0-1.3-2.9-3.4-3.1-3.4H10.4c0.7-8.6,4.1-16.9,9.7-23.6l23.1,23
			c0.3,0.3,1.8,0.9,1.8,0.9C45.9-47.7,47-48,47.8-48.8z"/>
	</g>
	<g id="Semibold-S" transform="matrix(1 0 0 1 1996.19 696)">
		<path d="M66.8-29.4c4.2-4,6.6-9.5,6.6-15.6c0.2-5.6-3.7-12.7-6.7-15.7c-2.9-2.7-9.4-5.7-14.7-5.7c-5.9,0-11.4,2.3-15.6,6.5
			c0,0,0,0-0.1,0.1c-4,4.2-6.1,9.4-6.1,15c0,5.5,2.1,10.7,5.8,14.6c4.2,4.4,10,6.9,15.8,6.9C57.3-23.3,62.7-25.4,66.8-29.4z
			 M52-60.4c3.9,0,7.7,1.5,10.7,4.2c3.2,3,4.9,8.1,4.9,11.2c0,3.1-1.7,8.5-4.7,11.4c-3.1,2.9-7,4.5-11,4.5c-4.3,0-8.5-1.8-11.6-5.1
			c-2.7-2.8-4.2-6.6-4.2-10.6c0-4,1.5-7.8,4.5-10.9C43.6-58.7,47.7-60.4,52-60.4z M60-36c1.7-1.6,3.8-5.4,3.8-8.6
			c0-3.3-1.4-6.5-3.9-8.8c-2.1-1.9-5-3-7.9-3c-3.2,0-6.2,1.3-8.5,3.6c-2.2,2.2-3.4,5-3.4,8.1c0,2.9,1.1,5.8,3,7.9
			c2.3,2.5,5.5,3.9,8.8,3.9C54.8-33,58.4-34.6,60-36z M55.9-49.1c1.3,1.2,2,2.8,2,4.4c0,1.6-0.7,3.1-1.7,4.2
			c-0.9,0.7-2.3,1.6-4.2,1.6c-1.6,0-3.3-0.7-4.5-2c-0.9-1-1.5-2.4-1.5-3.9c0-1.5,0.6-2.9,1.6-3.9c1.2-1.2,2.7-1.9,4.3-1.9
			C53.4-50.5,54.9-50,55.9-49.1z M19.8-45.9c0-7.7,3.1-15.3,8.6-20.9c1.1-1.2,1.1-3,0-4.2c-1.2-1.1-3-1.1-4.2,0
			c-6.5,6.6-10.2,15.8-10.2,25c0,1.6,1.3,2.9,2.9,2.9S19.8-44.3,19.8-45.9z M80.9-12.8c1.2-1.1,1.2-3,0.1-4.2
			c-1.1-1.2-3-1.2-4.2-0.1C70.2-10.6,61.1-6.9,52-6.9C50.3-6.9,49-5.6,49-4S50.3-1,52-1C62.7-1,73.2-5.3,80.9-12.8z M85.7-44.8
			c0-1.6-1.3-2.9-2.9-2.9H60.8c-1.6,0-2.9,1.3-2.9,2.9s1.3,2.9,2.9,2.9h21.9C84.4-41.8,85.7-43.2,85.7-44.8z M75.6-20.5
			c6.5-6.3,10.2-14.9,10.2-24.1c0-9.3-3.8-18.2-10.5-24.5c-1.2-1.1-3-1.1-4.1,0.1L55.8-53.3c-1.1,1.2-1.1,3,0.1,4.2
			c1.2,1.1,3,1.1,4.2-0.1l13.2-13.5c4.3,5,6.7,11.4,6.7,18.1c0,7.6-3,14.7-8.3,19.9c-5.2,5-12.3,7.9-19.5,7.9
			c-1.6,0-2.9,1.3-2.9,2.9S50.3-11,52-11C60.7-11,69.3-14.5,75.6-20.5z M54.4-17.2c0-1.6-1.3-2.9-2.9-2.9c-6.2,0-11.9-2-16.4-5.8
			L46.2-37c1.2-1.1,1.2-3,0-4.2c-1.1-1.2-3-1.2-4.2,0L28.8-28c-1.1,1.1-1.2,2.9-0.1,4.1c5.8,6.2,13.9,9.7,22.7,9.7
			C53.1-14.3,54.4-15.6,54.4-17.2z M54.6-54.1v-15.5c5.4,0.6,10.1,2.8,14.5,6.8c1.2,1.1,3.1,1,4.2-0.2c1.1-1.2,1-3.1-0.2-4.2
			c-6.2-5.7-13.2-8.5-21.4-8.5c-1.6,0-2.9,1.3-2.9,2.9v18.6c0,1.6,1.3,2.9,2.9,2.9C53.3-51.1,54.6-52.4,54.6-54.1z M46-44.8
			c0-1.6-1.3-2.9-2.9-2.9H10c0.6-8.8,4.1-17.4,9.9-24.2l23.1,23c1.2,1.1,3,1.1,4.2,0c1.1-1.2,1.1-3,0-4.2L21.8-78.2
			c-0.6-0.5-1.3-0.9-2.1-0.9c0,0,0,0,0,0c-0.8,0-1.5,0.3-2.1,0.9C8.9-69.4,4-57.2,4-44.8c0,1.6,1.3,2.9,2.9,2.9h36.2
			C44.7-41.8,46-43.2,46-44.8z M89.4-7c1.1-1.2,1.1-3,0-4.1l-8.6-8.5L60.2-40.4c-1.1-1.2-3-1.2-4.2,0c-1.2,1.1-1.2,3,0,4.2
			l20.6,20.8L83-9c-7.7,7-17.5,11-28.1,11.6v-38.5c0-1.6-1.3-2.9-2.9-2.9S49-37.6,49-35.9V5.6c0,1.6,1.3,2.9,2.9,2.9
			C66.4,8.6,79.7,3.1,89.4-7z"/>
	</g>
	<g id="Medium-S" transform="matrix(1 0 0 1 1699.83 696)">
		<path d="M66-29.7c4.1-3.9,6.4-9.3,6.4-15.2c0.2-5.5-2.3-11.2-6.6-15.2c0,0,0,0-0.1,0c-4-3.6-9.1-5.6-14.3-5.6
			c-5.7,0-11.1,2.2-15.2,6.4c-3.9,4.1-6,9.1-6,14.6c0,5.4,2,10.4,5.6,14.3c4.1,4.3,9.7,6.7,15.4,6.7C56.8-23.7,62-25.8,66-29.7z
			 M62.3-56.3c3.2,3.1,4.9,8.3,4.9,11.3c0,3.1-1.7,8.6-4.8,11.5c-3.1,2.9-7,4.5-11.1,4.5c-4.3,0-8.6-1.9-11.7-5.1
			c-2.7-2.8-4.2-6.7-4.2-10.7c0-4.1,1.6-7.9,4.5-11c3.1-3.1,7.2-4.8,11.6-4.8C55.5-60.5,59.3-59,62.3-56.3z M59.4-36.4
			c1.6-1.5,3.5-5.1,3.5-8.2c0-3.1-1.4-6.2-3.8-8.4c-2-1.8-4.8-2.9-7.6-2.9c-3,0-5.9,1.2-8.1,3.4c-2.1,2.1-3.2,4.8-3.2,7.8
			c0,2.8,1.1,5.6,2.9,7.6c2.2,2.4,5.3,3.7,8.4,3.7C54.3-33.3,57.9-34.9,59.4-36.4z M55.7-49.2c1.3,1.2,2.1,2.9,2.1,4.6
			c0,1.6-0.7,3.3-1.8,4.4c-0.9,0.8-2.4,1.7-4.4,1.7c-1.7,0-3.4-0.8-4.7-2.1c-1-1.1-1.5-2.5-1.5-4.1c0-1.6,0.6-3,1.7-4.1
			c1.3-1.2,2.9-1.9,4.5-1.9C53.1-50.7,54.6-50.2,55.7-49.2z M19.5-45.8c0-7.7,3.1-15.3,8.6-20.9c1-1,1-2.6,0-3.6c-1-1-2.6-1-3.6,0
			c-6.4,6.5-10,15.4-10,24.5c0,1.4,1.2,2.6,2.6,2.6S19.5-44.4,19.5-45.8z M79.9-13.2c1-1,1-2.6,0.1-3.6c-1-1-2.6-1-3.6-0.1
			C69.8-10.5,60.7-6.9,51.6-6.9c-1.4,0-2.6,1.2-2.6,2.6s1.2,2.6,2.6,2.6C62.1-1.7,72.4-5.9,79.9-13.2z M84.6-44.7
			c0-1.4-1.2-2.6-2.6-2.6H60.3c-1.4,0-2.6,1.2-2.6,2.6s1.2,2.6,2.6,2.6H82C83.5-42.1,84.6-43.3,84.6-44.7z M74.7-20.9
			c6.4-6.2,9.9-14.6,9.9-23.6c0-9.1-3.8-17.8-10.3-24c-1-1-2.6-0.9-3.6,0.1L55.6-52.9c-1,1-1,2.7,0,3.6c1,1,2.6,1,3.6,0l13.3-13.6
			c4.4,5,6.9,11.6,6.9,18.4c0,7.6-3,14.7-8.4,19.9c-5.2,5-12.3,7.9-19.6,7.9c-1.4,0-2.6,1.2-2.6,2.6s1.2,2.6,2.6,2.6
			C60.1-11.6,68.5-15,74.7-20.9z M53.7-17.4c0-1.4-1.2-2.6-2.6-2.6c-6.3,0-12.2-2.1-16.7-6.1l11.2-11.2c1-1,1-2.6,0-3.6
			c-1-1-2.6-1-3.6,0L28.9-27.9c-1,1-1,2.6-0.1,3.6c5.7,6.1,13.6,9.5,22.2,9.5C52.5-14.8,53.7-16,53.7-17.4z M53.9-53.9v-15.7
			c5.6,0.5,10.4,2.7,14.9,6.9c1,1,2.7,0.9,3.6-0.1c1-1,0.9-2.7-0.1-3.6c-6.1-5.6-12.9-8.4-20.9-8.4c-1.4,0-2.6,1.2-2.6,2.6v18.4
			c0,1.4,1.2,2.6,2.6,2.6S53.9-52.4,53.9-53.9z M45.3-44.7c0-1.4-1.2-2.6-2.6-2.6H9.7c0.6-9.1,4.2-17.9,10.1-24.8l23.1,23
			c1,1,2.6,1,3.6,0c1-1,1-2.6,0-3.6l-25-24.9c-0.5-0.5-1.1-0.8-1.8-0.8c0,0,0,0,0,0c-0.7,0-1.3,0.3-1.8,0.8
			C9.3-68.9,4.4-56.9,4.4-44.7c0,1.4,1.2,2.6,2.6,2.6h35.8C44.2-42.1,45.3-43.3,45.3-44.7z M88.3-7.5c1-1,1-2.6,0-3.6l-8.5-8.4
			L59.5-40.1c-1-1-2.6-1-3.6,0c-1,1-1,2.6,0,3.6l20.3,20.6l6.6,6.6C75-2.1,65,2,54.1,2.6v-38.5c0-1.4-1.2-2.6-2.6-2.6
			S49-37.3,49-35.9V5.2c0,1.4,1.2,2.6,2.6,2.6C65.7,7.8,78.8,2.4,88.3-7.5z"/>
	</g>
	<g id="Regular-S" transform="matrix(1 0 0 1 1403.58 696)">
		<path d="M65.1-30c4-3.8,6.2-9,6.2-14.8c0.2-5.3-2.2-10.9-6.4-14.8c0,0,0,0,0,0C61-63.1,56.1-65,51-65c-5.6,0-10.8,2.2-14.8,6.2
			c-3.8,4-5.8,8.9-5.8,14.2c0,5.2,1.9,10.2,5.5,13.9c4,4.1,9.4,6.5,15,6.5C56.1-24.2,61.2-26.3,65.1-30z M61.9-56.3
			c3.3,3.1,5,8.4,5,11.5c0,3.2-1.7,8.7-4.8,11.7c-3.1,2.9-7.1,4.6-11.2,4.6c-4.4,0-8.7-1.9-11.8-5.2c-2.7-2.9-4.2-6.7-4.2-10.8
			c0-4.2,1.6-8,4.5-11.1c3.1-3.1,7.3-4.9,11.7-4.9C55-60.6,58.9-59.1,61.9-56.3z M58.6-36.6c1.6-1.5,3.4-4.9,3.4-7.9
			c0-3-1.3-6-3.6-8.1c-1.9-1.8-4.6-2.8-7.3-2.8c-2.9,0-5.7,1.2-7.8,3.3c-2,2-3.1,4.6-3.1,7.5c0,2.7,1,5.4,2.8,7.3
			c2.1,2.3,5.1,3.6,8.1,3.6C53.7-33.7,57.1-35.2,58.6-36.6z M55.3-49.3c1.4,1.3,2.2,3.1,2.2,4.9c0,1.7-0.7,3.5-1.9,4.6
			c-1,0.8-2.5,1.8-4.6,1.8c-1.8,0-3.6-0.8-4.9-2.2c-1-1.1-1.6-2.7-1.6-4.3c0-1.6,0.6-3.2,1.8-4.3c1.3-1.3,3-2,4.7-2
			C52.7-50.9,54.2-50.3,55.3-49.3z M19-45.7c0-7.7,3.1-15.4,8.6-20.9c0.9-0.9,0.8-2.3,0-3.1c-0.9-0.9-2.3-0.8-3.1,0
			c-6.2,6.4-9.8,15.1-9.8,24c0,1.2,1,2.2,2.2,2.2S19-44.5,19-45.7z M78.9-13.7c0.9-0.8,0.9-2.2,0-3.1c-0.8-0.9-2.2-0.9-3.1,0
			C69.2-10.5,60.2-6.8,51-6.8c-1.2,0-2.2,1-2.2,2.2s1,2.2,2.2,2.2C61.3-2.4,71.5-6.5,78.9-13.7z M83.4-44.6c0-1.2-1-2.2-2.2-2.2
			H59.7c-1.2,0-2.2,1-2.2,2.2s1,2.2,2.2,2.2h21.5C82.4-42.4,83.4-43.4,83.4-44.6z M73.7-21.3c6.3-6.1,9.7-14.3,9.7-23.1
			c0-8.9-3.7-17.5-10.1-23.5c-0.9-0.8-2.3-0.8-3.1,0.1l-15,15.4c-0.8,0.9-0.8,2.3,0,3.1c0.9,0.9,2.3,0.8,3.1,0l13.4-13.8
			c4.6,5.1,7.2,11.8,7.2,18.7c0,7.6-3,14.7-8.4,20c-5.2,5-12.3,7.9-19.6,7.9c-1.2,0-2.2,1-2.2,2.2s1,2.2,2.2,2.2
			C59.4-12.2,67.7-15.5,73.7-21.3z M52.8-17.6c0-1.2-1-2.2-2.2-2.2c-6.5,0-12.4-2.2-17-6.4L45-37.5c0.9-0.9,0.9-2.3,0-3.1
			c-0.9-0.9-2.3-0.9-3.1,0l-13,12.9c-0.8,0.8-0.9,2.2-0.1,3.1c5.6,6,13.3,9.3,21.7,9.3C51.8-15.4,52.8-16.4,52.8-17.6z M53-53.7
			v-15.9c5.8,0.4,10.7,2.7,15.3,6.9c0.9,0.8,2.3,0.8,3.1-0.1c0.8-0.9,0.8-2.3-0.1-3.1c-6-5.5-12.7-8.2-20.5-8.2
			c-1.2,0-2.2,1-2.2,2.2v18.2c0,1.2,1,2.2,2.2,2.2S53-52.5,53-53.7z M44.5-44.6c0-1.2-1-2.2-2.2-2.2h-31H9.3
			c0.5-9.3,4.2-18.3,10.4-25.3l23.1,23c0.9,0.9,2.3,0.9,3.1,0c0.9-0.9,0.9-2.3,0-3.1L21.1-76.9c-0.4-0.4-1-0.6-1.6-0.6
			c-0.6,0-1.2,0.2-1.6,0.7C9.6-68.3,4.8-56.6,4.8-44.6c0,1.2,1,2.2,2.2,2.2h35.4C43.6-42.4,44.5-43.4,44.5-44.6z M87.1-8
			c0.8-0.9,0.8-2.2,0-3.1l-8.4-8.3L58.6-39.8c-0.9-0.9-2.3-0.9-3.1,0c-0.9,0.9-0.9,2.3,0,3.1l20.1,20.3l6.8,6.8
			C74.6-2.2,64.3,2.1,53.2,2.6v-38.5c0-1.2-1-2.2-2.2-2.2s-2.2,1-2.2,2.2V4.8C48.8,6,49.8,7,51,7C64.9,7,77.8,1.7,87.1-8z"/>
	</g>
	<g id="Light-S" transform="matrix(1 0 0 1 1107.6 696)">
		<path d="M63.9-30.3c3.9-3.7,6-8.8,6-14.3c0.2-5.2-2.1-10.6-6.2-14.4c0,0,0,0,0,0c-3.8-3.4-8.6-5.3-13.5-5.3
			c-5.4,0-10.5,2.1-14.4,6c-3.7,3.9-5.6,8.7-5.6,13.8c0,5.1,1.9,9.9,5.3,13.5c3.9,4,9.2,6.4,14.6,6.4C55.2-24.7,60.1-26.7,63.9-30.3
			z M61.3-56.4c3.3,3.1,5.2,7.5,5,11.7c0,4.6-1.7,8.7-4.9,11.7c-3.1,3-7.2,4.6-11.3,4.6c-4.4,0-8.8-1.9-11.9-5.2
			c-2.8-2.9-4.3-6.8-4.3-11c0-4.2,1.6-8.1,4.6-11.3c3.2-3.2,7.4-4.9,11.8-4.9C54.3-60.7,58.2-59.2,61.3-56.4z M57.5-36.8
			c2-1.9,3.2-4.7,3.2-7.5c0-2.9-1.3-5.7-3.5-7.8c-1.8-1.7-4.4-2.7-7-2.7c-2.8,0-5.4,1.1-7.5,3.2c-1.9,1.9-2.9,4.4-2.9,7.1
			c0,2.6,1,5.1,2.7,7c2,2.2,4.9,3.4,7.8,3.4C52.8-34.1,55.3-35,57.5-36.8z M54.7-49.4c1.4,1.3,2.3,3.2,2.3,5.1c0,1.8-0.8,3.6-2,4.8
			c-1,0.8-2.6,1.8-4.8,1.8c-1.9,0-3.7-0.8-5.1-2.3c-1.1-1.2-1.7-2.8-1.7-4.5c0-1.7,0.7-3.3,1.9-4.5c1.4-1.3,3.1-2.1,4.9-2.1
			C51.9-51.1,53.6-50.5,54.7-49.4z M18.2-45.6c0-7.8,3.1-15.4,8.6-21c0.7-0.7,0.7-1.9,0-2.6c-0.7-0.7-1.9-0.7-2.6,0
			c-6.1,6.3-9.6,14.8-9.6,23.5c0,1,0.8,1.8,1.8,1.8S18.2-44.6,18.2-45.6z M77.5-14.2c0.7-0.7,0.7-1.9,0-2.6c-0.7-0.7-1.9-0.7-2.6,0
			C68.4-10.4,59.4-6.8,50.3-6.8c-1,0-1.8,0.8-1.8,1.8s0.8,1.8,1.8,1.8C60.3-3.1,70.3-7.1,77.5-14.2z M81.9-44.5c0-1-0.8-1.8-1.8-1.8
			H58.8c-1,0-1.8,0.8-1.8,1.8s0.8,1.8,1.8,1.8h21.2C81.1-42.7,81.9-43.5,81.9-44.5z M72.4-21.7c6.1-5.9,9.5-14,9.5-22.6
			c0-8.7-3.6-17.1-9.9-23c-0.7-0.7-1.9-0.7-2.6,0.1L54.7-52.1c-0.7,0.7-0.7,1.9,0,2.6c0.7,0.7,1.9,0.7,2.6,0l13.5-13.9
			c4.7,5.1,7.4,11.9,7.4,19c0,7.7-3,14.8-8.4,20c-5.2,5-12.3,7.9-19.6,7.9c-1,0-1.8,0.8-1.8,1.8s0.8,1.8,1.8,1.8
			C58.4-12.8,66.5-16,72.4-21.7z M51.6-17.8c0-1-0.8-1.8-1.8-1.8c-6.6,0-12.7-2.3-17.3-6.6L44-37.7c0.7-0.7,0.7-1.9,0-2.6
			c-0.7-0.7-1.9-0.7-2.6,0L28.6-27.5c-0.7,0.7-0.7,1.8,0,2.6c5.4,5.8,13,9,21.3,9C50.8-15.9,51.6-16.8,51.6-17.8z M51.8-53.5v-16.1
			c5.9,0.4,11,2.6,15.7,7c0.7,0.7,1.9,0.6,2.6-0.1c0.7-0.7,0.6-1.9-0.1-2.6c-5.8-5.4-12.4-8-20-8c-1,0-1.8,0.8-1.8,1.8v18
			c0,1,0.8,1.8,1.8,1.8S51.8-52.5,51.8-53.5z M43.5-44.5c0-1-0.8-1.8-1.8-1.8H11.4H8.6c0.4-9.5,4.2-18.8,10.6-25.9l23.1,23
			c0.7,0.7,1.9,0.7,2.6,0c0.7-0.7,0.7-1.9,0-2.6L20.4-76.2c-0.3-0.3-0.8-0.5-1.3-0.5c-0.5,0-1,0.2-1.3,0.6
			C9.6-67.8,4.9-56.3,4.9-44.5c0,1,0.8,1.8,1.8,1.8h35C42.7-42.7,43.5-43.5,43.5-44.5z M85.7-8.5c0.7-0.7,0.7-1.9,0-2.6l-8.3-8.3
			L57.5-39.5c-0.7-0.7-1.9-0.7-2.6,0c-0.7,0.7-0.7,1.9,0,2.6l19.9,20.1l7,7C73.8-2.2,63.4,2.1,52.1,2.5v-38.4c0-1-0.8-1.8-1.8-1.8
			c-1,0-1.8,0.8-1.8,1.8V4.4c0,1,0.8,1.8,1.8,1.8C63.9,6.2,76.5,1,85.7-8.5z"/>
	</g>
	<g id="Thin-S" transform="matrix(1 0 0 1 811.863 696)">
		<path d="M62.5-30.6c3.8-3.6,5.9-8.6,5.9-13.9c0.2-5-2.1-10.3-6-14c0,0,0,0,0,0c-3.7-3.3-8.3-5.1-13.1-5.1c-5.2,0-10.2,2.1-14,5.9
			c-3.6,3.8-5.5,8.4-5.5,13.4c0,5,1.8,9.6,5.2,13.1c3.7,3.9,8.9,6.2,14.2,6.2C54-25.1,58.8-27.1,62.5-30.6z M60.3-56.4
			c3.3,3.2,5.2,7.6,5.1,11.8c0,4.6-1.8,8.8-4.9,11.9c-3.2,3-7.2,4.7-11.4,4.7c-4.5,0-8.8-1.9-12-5.3c-2.8-3-4.3-6.9-4.3-11.1
			c0-4.3,1.6-8.2,4.6-11.4c3.2-3.2,7.4-5,11.9-5C53.3-60.8,57.2-59.2,60.3-56.4z M56.1-37.1c1.9-1.8,3.1-4.5,3.1-7.2
			c0-2.8-1.2-5.5-3.3-7.4c-1.7-1.6-4.2-2.5-6.7-2.5c-2.7,0-5.2,1.1-7.2,3c-1.8,1.8-2.8,4.2-2.8,6.8c0,2.5,0.9,4.9,2.5,6.7
			c2,2.1,4.7,3.3,7.4,3.3C51.7-34.4,54.1-35.4,56.1-37.1z M53.9-49.5c1.5,1.4,2.4,3.3,2.4,5.3c0,1.9-0.8,3.8-2.1,5
			c-1,0.9-2.7,1.9-4.9,1.9c-1.9,0-3.9-0.9-5.3-2.4c-1.1-1.2-1.8-2.9-1.8-4.7c0-1.8,0.7-3.5,1.9-4.7c1.4-1.4,3.2-2.2,5.1-2.2
			C51-51.3,52.7-50.6,53.9-49.5z M17.2-45.5c0-7.8,3.1-15.4,8.6-21c0.6-0.6,0.6-1.5,0-2.1c-0.6-0.6-1.5-0.6-2.1,0
			c-6,6.1-9.4,14.5-9.4,23c0,0.8,0.7,1.5,1.5,1.5C16.5-44,17.2-44.7,17.2-45.5z M76-14.7c0.6-0.6,0.6-1.5,0-2.1
			c-0.6-0.6-1.5-0.6-2.1,0c-6.6,6.4-15.6,10-24.7,10c-0.8,0-1.5,0.7-1.5,1.5s0.7,1.5,1.5,1.5C59.1-3.8,68.9-7.7,76-14.7z M80.2-44.4
			c0-0.8-0.7-1.5-1.5-1.5h-21c-0.8,0-1.5,0.7-1.5,1.5s0.7,1.5,1.5,1.5h21C79.5-42.9,80.2-43.6,80.2-44.4z M70.9-22.1
			c6-5.8,9.3-13.7,9.3-22.1c0-8.5-3.5-16.7-9.6-22.5c-0.6-0.5-1.5-0.5-2.1,0L53.8-51.6c-0.6,0.6-0.6,1.5,0,2.1
			c0.6,0.6,1.5,0.6,2.1,0l13.6-14c4.9,5.1,7.7,12.1,7.7,19.3c0,7.7-3,14.8-8.4,20c-5.2,5-12.4,7.9-19.6,7.9c-0.8,0-1.5,0.7-1.5,1.5
			c0,0.8,0.7,1.5,1.5,1.5C57.2-13.3,65.1-16.5,70.9-22.1z M50.2-17.9c0-0.8-0.7-1.5-1.5-1.5c-6.8,0-13-2.4-17.6-6.9l11.6-11.6
			c0.6-0.6,0.6-1.5,0-2.1c-0.6-0.6-1.5-0.6-2.1,0L28.1-27.4c-0.6,0.6-0.6,1.5,0,2c5.3,5.7,12.7,8.8,20.8,8.8
			C49.6-16.5,50.2-17.1,50.2-17.9z M50.4-53.3v-16.3c6.1,0.3,11.3,2.6,16.1,7c0.6,0.6,1.5,0.5,2.1-0.1c0.6-0.6,0.5-1.5-0.1-2.1
			c-5.8-5.3-12-7.8-19.5-7.8c-0.8,0-1.5,0.7-1.5,1.5v17.8c0,0.8,0.7,1.5,1.5,1.5C49.8-51.8,50.4-52.5,50.4-53.3z M42.2-44.4
			c0-0.8-0.7-1.5-1.5-1.5H11.1H7.7c0.4-9.8,4.2-19.3,10.8-26.5l23.1,23.1c0.6,0.6,1.5,0.6,2.1,0c0.6-0.6,0.6-1.5,0-2.1L19.5-75.5
			c-0.3-0.3-0.7-0.5-1-0.4c-0.4,0-0.8,0.2-1,0.4C9.3-67.3,4.7-56,4.7-44.4c0,0.8,0.7,1.5,1.5,1.5h34.6
			C41.5-42.9,42.2-43.6,42.2-44.4z M84-9.1c0.6-0.6,0.5-1.5,0-2.1l-8.2-8.2L56.2-39.2c-0.6-0.6-1.5-0.6-2.1,0
			c-0.6,0.6-0.6,1.5,0,2.1l19.7,19.9l7.2,7.1c-8,7.8-18.6,12.2-30.2,12.6v-38.4c0-0.8-0.7-1.5-1.5-1.5c-0.8,0-1.5,0.7-1.5,1.5V4
			c0,0.8,0.7,1.5,1.5,1.5C62.6,5.5,75,0.3,84-9.1z"/>
	</g>
	<g id="Ultralight-S" transform="matrix(1 0 0 1 515.649 696)">
		<path d="M60.6-30.9c3.7-3.5,5.7-8.3,5.7-13.5c0.2-4.9-2-10-5.8-13.6c0,0,0,0,0,0c-3.6-3.2-8.1-5-12.7-5c-5.1,0-9.9,2-13.6,5.7
			c-3.5,3.7-5.3,8.2-5.3,13.1c0,4.8,1.8,9.3,5,12.7c3.6,3.8,8.6,6,13.7,6C52.3-25.6,57-27.5,60.6-30.9z M58.9-56.5
			c3.4,3.2,5.3,7.7,5.2,12c0,4.7-1.8,8.9-5,12c-3.2,3-7.3,4.7-11.5,4.7c-4.5,0-8.9-1.9-12.2-5.3c-2.8-3-4.4-7-4.4-11.2
			c0-4.3,1.6-8.3,4.7-11.5c3.2-3.2,7.5-5,12-5C51.8-60.9,55.8-59.3,58.9-56.5z M54.3-37.3c1.8-1.7,2.9-4.3,2.9-6.9
			c0-2.6-1.1-5.2-3.2-7.1c-1.7-1.5-4-2.4-6.3-2.4c-2.5,0-5,1-6.8,2.9c-1.7,1.7-2.7,4-2.7,6.5c0,2.4,0.9,4.7,2.4,6.3
			c1.9,2,4.4,3.1,7.1,3.1C50-34.8,52.3-35.7,54.3-37.3z M52.5-49.6c1.6,1.5,2.5,3.4,2.5,5.5c0,2-0.8,3.9-2.2,5.2
			c-1.1,0.9-2.8,2-5.1,2c-2,0-4-0.9-5.5-2.4c-1.2-1.3-1.8-3-1.8-4.9c0-1.9,0.7-3.6,2-4.9c1.5-1.5,3.3-2.3,5.3-2.3
			C49.5-51.5,51.3-50.8,52.5-49.6z M15.6-45.4c0-7.8,3.1-15.4,8.6-21c0.4-0.4,0.4-1.1,0-1.6c-0.4-0.4-1.1-0.4-1.6,0
			c-5.8,6-9.2,14.2-9.2,22.5c0,0.6,0.5,1.1,1.1,1.1S15.6-44.8,15.6-45.4z M73.9-15.1c0.4-0.4,0.4-1.1,0-1.6c-0.4-0.4-1.1-0.4-1.6,0
			c-6.6,6.4-15.5,10-24.7,10c-0.6,0-1.1,0.5-1.1,1.1s0.5,1.1,1.1,1.1C57.4-4.5,66.9-8.4,73.9-15.1z M77.9-44.3
			c0-0.6-0.5-1.1-1.1-1.1H56.1c-0.6,0-1.1,0.5-1.1,1.1c0,0.6,0.5,1.1,1.1,1.1h20.7C77.4-43.2,77.9-43.7,77.9-44.3z M68.8-22.5
			c5.9-5.7,9.1-13.4,9.1-21.7c0-8.3-3.4-16.4-9.4-22c-0.4-0.4-1.1-0.4-1.5,0L52.5-51.2c-0.4,0.4-0.4,1.1,0,1.6
			c0.4,0.4,1.1,0.4,1.6,0l13.7-14.1c5.1,5.2,7.9,12.3,7.9,19.6c0,7.7-3,14.8-8.4,20.1c-5.2,5-12.4,7.9-19.6,7.9
			c-0.6,0-1.1,0.5-1.1,1.1c0,0.6,0.5,1.1,1.1,1.1C55.5-13.9,63.2-17,68.8-22.5z M48.3-18.1c0-0.6-0.5-1.1-1.1-1.1
			c-6.9,0-13.2-2.5-17.9-7.2l11.8-11.8c0.4-0.4,0.4-1.1,0-1.6c-0.4-0.4-1.1-0.4-1.6,0L27-27.2c-0.4,0.4-0.4,1.1,0,1.5
			c5.2,5.6,12.4,8.6,20.3,8.6C47.8-17,48.3-17.5,48.3-18.1z M48.5-53.1v-16.5c6.3,0.2,11.6,2.5,16.5,7.1c0.4,0.4,1.1,0.4,1.6-0.1
			c0.4-0.4,0.4-1.1-0.1-1.6c-5.6-5.2-11.7-7.7-19.1-7.7c-0.6,0-1.1,0.5-1.1,1.1v17.6c0,0.6,0.5,1.1,1.1,1.1
			C48-52,48.5-52.5,48.5-53.1z M40.4-44.3c0-0.6-0.5-1.1-1.1-1.1H6.2c0.3-10,4.3-19.8,11-27.1l23.1,23.1c0.4,0.4,1.1,0.4,1.6,0
			c0.4-0.4,0.4-1.1,0-1.6L18-74.9c-0.2-0.2-0.5-0.3-0.8-0.3c0,0,0,0,0,0c-0.3,0-0.6,0.1-0.8,0.3C8.5-66.8,4-55.6,4-44.3
			c0,0.6,0.5,1.1,1.1,1.1h34.2C39.9-43.2,40.4-43.7,40.4-44.3z M81.8-9.6c0.4-0.4,0.4-1.1,0-1.5l-8.1-8.1L54.3-38.9
			c-0.4-0.4-1.1-0.4-1.6,0c-0.4,0.4-0.4,1.1,0,1.6l19.4,19.7l7.3,7.3c-8.1,8-18.9,12.5-30.7,12.8v-38.4c0-0.6-0.5-1.1-1.1-1.1
			c-0.6,0-1.1,0.5-1.1,1.1V3.6c0,0.6,0.5,1.1,1.1,1.1C60.8,4.7,73-0.4,81.8-9.6z"/>
	</g>
</g>
</svg>
