<?xml version="1.0" encoding="UTF-8"?>
<!--Generator: Apple Native CoreSVG 175.5-->
<!DOCTYPE svg
PUBLIC "-//W3C//DTD SVG 1.1//EN"
       "http://www.w3.org/Graphics/SVG/1.1/DTD/svg11.dtd">
<svg version="1.1" xmlns="http://www.w3.org/2000/svg" xmlns:xlink="http://www.w3.org/1999/xlink" width="3300" height="2200">
 <!--glyph: "uni101336.medium", point size: 100.0, font version: "18.0d12e2", template writer version: "101"-->
 <g id="Notes">
  <rect height="2200" id="artboard" style="fill:white;opacity:1" width="3300" x="0" y="0"/>
  <line style="fill:none;stroke:black;opacity:1;stroke-width:0.5;" x1="263" x2="3036" y1="292" y2="292"/>
  <text style="stroke:none;fill:black;font-family:sans-serif;font-size:13;font-weight:bold;" transform="matrix(1 0 0 1 263 322)">Weight/Scale Variations</text>
  <text style="stroke:none;fill:black;font-family:sans-serif;font-size:13;text-anchor:middle;" transform="matrix(1 0 0 1 559.711 322)">Ultralight</text>
  <text style="stroke:none;fill:black;font-family:sans-serif;font-size:13;text-anchor:middle;" transform="matrix(1 0 0 1 856.422 322)">Thin</text>
  <text style="stroke:none;fill:black;font-family:sans-serif;font-size:13;text-anchor:middle;" transform="matrix(1 0 0 1 1153.13 322)">Light</text>
  <text style="stroke:none;fill:black;font-family:sans-serif;font-size:13;text-anchor:middle;" transform="matrix(1 0 0 1 1449.84 322)">Regular</text>
  <text style="stroke:none;fill:black;font-family:sans-serif;font-size:13;text-anchor:middle;" transform="matrix(1 0 0 1 1746.56 322)">Medium</text>
  <text style="stroke:none;fill:black;font-family:sans-serif;font-size:13;text-anchor:middle;" transform="matrix(1 0 0 1 2043.27 322)">Semibold</text>
  <text style="stroke:none;fill:black;font-family:sans-serif;font-size:13;text-anchor:middle;" transform="matrix(1 0 0 1 2339.98 322)">Bold</text>
  <text style="stroke:none;fill:black;font-family:sans-serif;font-size:13;text-anchor:middle;" transform="matrix(1 0 0 1 2636.69 322)">Heavy</text>
  <text style="stroke:none;fill:black;font-family:sans-serif;font-size:13;text-anchor:middle;" transform="matrix(1 0 0 1 2933.4 322)">Black</text>
  <line style="fill:none;stroke:black;opacity:1;stroke-width:0.5;" x1="263" x2="3036" y1="1903" y2="1903"/>
  <g transform="matrix(1 0 0 1 263 1933)">
   <path d="M9.24805 0.830078C13.5547 0.830078 17.1387-2.74414 17.1387-7.05078C17.1387-11.3574 13.5449-14.9316 9.23828-14.9316C4.94141-14.9316 1.36719-11.3574 1.36719-7.05078C1.36719-2.74414 4.95117 0.830078 9.24805 0.830078ZM9.24805-0.654297C5.70312-0.654297 2.87109-3.49609 2.87109-7.05078C2.87109-10.6055 5.69336-13.4473 9.23828-13.4473C12.793-13.4473 15.6445-10.6055 15.6445-7.05078C15.6445-3.49609 12.8027-0.654297 9.24805-0.654297ZM5.6543-7.05078C5.6543-6.62109 5.95703-6.32812 6.40625-6.32812L8.50586-6.32812L8.50586-4.20898C8.50586-3.76953 8.79883-3.4668 9.22852-3.4668C9.67773-3.4668 9.9707-3.76953 9.9707-4.20898L9.9707-6.32812L12.0898-6.32812C12.5293-6.32812 12.832-6.62109 12.832-7.05078C12.832-7.49023 12.5293-7.79297 12.0898-7.79297L9.9707-7.79297L9.9707-9.90234C9.9707-10.3516 9.67773-10.6543 9.22852-10.6543C8.79883-10.6543 8.50586-10.3516 8.50586-9.90234L8.50586-7.79297L6.40625-7.79297C5.95703-7.79297 5.6543-7.49023 5.6543-7.05078Z"/>
  </g>
  <g transform="matrix(1 0 0 1 281.867 1933)">
   <path d="M11.709 2.91016C17.1582 2.91016 21.6699-1.61133 21.6699-7.05078C21.6699-12.5 17.1484-17.0117 11.6992-17.0117C6.25977-17.0117 1.74805-12.5 1.74805-7.05078C1.74805-1.61133 6.26953 2.91016 11.709 2.91016ZM11.709 1.25C7.09961 1.25 3.41797-2.44141 3.41797-7.05078C3.41797-11.6602 7.08984-15.3516 11.6992-15.3516C16.3086-15.3516 20.0098-11.6602 20.0098-7.05078C20.0098-2.44141 16.3184 1.25 11.709 1.25ZM7.17773-7.05078C7.17773-6.57227 7.50977-6.25 8.00781-6.25L10.8789-6.25L10.8789-3.36914C10.8789-2.88086 11.2109-2.53906 11.6895-2.53906C12.1777-2.53906 12.5195-2.87109 12.5195-3.36914L12.5195-6.25L15.4004-6.25C15.8887-6.25 16.2305-6.57227 16.2305-7.05078C16.2305-7.53906 15.8887-7.88086 15.4004-7.88086L12.5195-7.88086L12.5195-10.752C12.5195-11.25 12.1777-11.5918 11.6895-11.5918C11.2109-11.5918 10.8789-11.25 10.8789-10.752L10.8789-7.88086L8.00781-7.88086C7.50977-7.88086 7.17773-7.53906 7.17773-7.05078Z"/>
  </g>
  <g transform="matrix(1 0 0 1 305.646 1933)">
   <path d="M14.9707 5.66406C21.9336 5.66406 27.6953-0.0976562 27.6953-7.05078C27.6953-14.0137 21.9238-19.7754 14.9609-19.7754C8.00781-19.7754 2.25586-14.0137 2.25586-7.05078C2.25586-0.0976562 8.01758 5.66406 14.9707 5.66406ZM14.9707 3.84766C8.93555 3.84766 4.08203-1.01562 4.08203-7.05078C4.08203-13.0957 8.92578-17.9492 14.9609-17.9492C21.0059-17.9492 25.8691-13.0957 25.8691-7.05078C25.8691-1.01562 21.0156 3.84766 14.9707 3.84766ZM9.19922-7.05078C9.19922-6.5332 9.57031-6.17188 10.1172-6.17188L14.0625-6.17188L14.0625-2.2168C14.0625-1.67969 14.4336-1.29883 14.9512-1.29883C15.4883-1.29883 15.8594-1.66992 15.8594-2.2168L15.8594-6.17188L19.8145-6.17188C20.3516-6.17188 20.7324-6.5332 20.7324-7.05078C20.7324-7.59766 20.3613-7.96875 19.8145-7.96875L15.8594-7.96875L15.8594-11.9141C15.8594-12.4609 15.4883-12.8418 14.9512-12.8418C14.4336-12.8418 14.0625-12.4609 14.0625-11.9141L14.0625-7.96875L10.1172-7.96875C9.57031-7.96875 9.19922-7.59766 9.19922-7.05078Z"/>
  </g>
  <text style="stroke:none;fill:black;font-family:sans-serif;font-size:13;font-weight:bold;" transform="matrix(1 0 0 1 263 1953)">Design Variations</text>
  <text style="stroke:none;fill:black;font-family:sans-serif;font-size:13;" transform="matrix(1 0 0 1 263 1971)">Symbols are supported in up to nine weights and three scales.</text>
  <text style="stroke:none;fill:black;font-family:sans-serif;font-size:13;" transform="matrix(1 0 0 1 263 1989)">For optimal layout with text and other symbols, vertically align</text>
  <text style="stroke:none;fill:black;font-family:sans-serif;font-size:13;" transform="matrix(1 0 0 1 263 2007)">symbols with the adjacent text.</text>
  <line style="fill:none;stroke:#00AEEF;stroke-width:0.5;opacity:1.0;" x1="776" x2="776" y1="1919" y2="1933"/>
  <g transform="matrix(1 0 0 1 776 1933)">
   <path d="M3.31055 0.15625C3.82812 0.15625 4.08203-0.0390625 4.26758-0.585938L5.52734-4.0332L11.2891-4.0332L12.5488-0.585938C12.7344-0.0390625 12.9883 0.15625 13.4961 0.15625C14.0137 0.15625 14.3457-0.15625 14.3457-0.644531C14.3457-0.810547 14.3164-0.966797 14.2383-1.17188L9.6582-13.3691C9.43359-13.9648 9.0332-14.2676 8.4082-14.2676C7.80273-14.2676 7.39258-13.9746 7.17773-13.3789L2.59766-1.16211C2.51953-0.957031 2.49023-0.800781 2.49023-0.634766C2.49023-0.146484 2.80273 0.15625 3.31055 0.15625ZM6.00586-5.51758L8.37891-12.0898L8.42773-12.0898L10.8008-5.51758Z"/>
  </g>
  <line style="fill:none;stroke:#00AEEF;stroke-width:0.5;opacity:1.0;" x1="793.197" x2="793.197" y1="1919" y2="1933"/>
  <text style="stroke:none;fill:black;font-family:sans-serif;font-size:13;font-weight:bold;" transform="matrix(1 0 0 1 776 1953)">Margins</text>
  <text style="stroke:none;fill:black;font-family:sans-serif;font-size:13;" transform="matrix(1 0 0 1 776 1971)">Leading and trailing margins on the left and right side of each symbol</text>
  <text style="stroke:none;fill:black;font-family:sans-serif;font-size:13;" transform="matrix(1 0 0 1 776 1989)">can be adjusted by modifying the x-location of the margin guidelines.</text>
  <text style="stroke:none;fill:black;font-family:sans-serif;font-size:13;" transform="matrix(1 0 0 1 776 2007)">Modifications are automatically applied proportionally to all</text>
  <text style="stroke:none;fill:black;font-family:sans-serif;font-size:13;" transform="matrix(1 0 0 1 776 2025)">scales and weights.</text>
  <g transform="matrix(1 0 0 1 1289 1933)">
   <path d="M2.8418 1.86523L4.54102 3.57422C5.40039 4.44336 6.38672 4.38477 7.31445 3.35938L18.0078-8.42773L17.041-9.4043L6.42578 2.27539C6.07422 2.67578 5.74219 2.77344 5.27344 2.30469L4.10156 1.14258C3.63281 0.683594 3.74023 0.341797 4.14062-0.0195312L15.6152-10.8203L14.6387-11.7871L3.04688-0.898438C2.06055 0.0195312 1.98242 0.996094 2.8418 1.86523ZM9.25781-16.3281C8.83789-15.918 8.80859-15.3418 9.04297-14.9512C9.27734-14.5898 9.73633-14.3555 10.3809-14.5215C11.8457-14.8633 13.3691-14.9219 14.7949-13.9844L14.209-12.5293C13.8672-11.6992 14.043-11.1133 14.5801-10.5664L16.875-8.25195C17.3633-7.76367 17.7734-7.74414 18.3398-7.8418L19.4043-8.03711L20.0684-7.36328L20.0293-6.80664C19.9902-6.30859 20.1172-5.92773 20.6055-5.44922L21.3672-4.70703C21.8457-4.22852 22.4609-4.19922 22.9297-4.66797L25.8398-7.58789C26.3086-8.05664 26.2891-8.65234 25.8105-9.13086L25.0391-9.89258C24.5605-10.3711 24.1895-10.5273 23.7109-10.4883L23.1348-10.4395L22.4902-11.0742L22.7344-12.1973C22.8613-12.7637 22.7051-13.2031 22.1191-13.7891L19.9219-15.9766C16.582-19.2969 12.1484-19.2188 9.25781-16.3281ZM10.752-15.957C13.1836-17.7344 16.4746-17.4316 18.7012-15.2051L21.1328-12.793C21.3672-12.5586 21.4062-12.373 21.3379-12.0312L21.0156-10.5469L22.5195-9.0625L23.5059-9.12109C23.7598-9.13086 23.8379-9.11133 24.0332-8.91602L24.6094-8.33984L22.168-5.89844L21.5918-6.47461C21.3965-6.66992 21.3672-6.74805 21.377-7.01172L21.4453-7.98828L19.9512-9.47266L18.4277-9.21875C18.1055-9.15039 17.959-9.17969 17.7148-9.41406L15.7129-11.416C15.459-11.6504 15.4297-11.8164 15.5859-12.1875L16.4648-14.2773C14.9023-15.7324 12.8711-16.3574 10.8398-15.7617C10.6836-15.7227 10.625-15.8496 10.752-15.957Z"/>
  </g>
  <text style="stroke:none;fill:black;font-family:sans-serif;font-size:13;font-weight:bold;" transform="matrix(1 0 0 1 1289 1953)">Exporting</text>
  <text style="stroke:none;fill:black;font-family:sans-serif;font-size:13;" transform="matrix(1 0 0 1 1289 1971)">Symbols should be outlined when exporting to ensure the</text>
  <text style="stroke:none;fill:black;font-family:sans-serif;font-size:13;" transform="matrix(1 0 0 1 1289 1989)">design is preserved when submitting to Xcode.</text>
  <text id="template-version" style="stroke:none;fill:black;font-family:sans-serif;font-size:13;text-anchor:end;" transform="matrix(1 0 0 1 3036 1933)">Template v.4.0</text>
  <text style="stroke:none;fill:black;font-family:sans-serif;font-size:13;text-anchor:end;" transform="matrix(1 0 0 1 3036 1951)">Requires Xcode 14 or greater</text>
  <text id="descriptive-name" style="stroke:none;fill:black;font-family:sans-serif;font-size:13;text-anchor:end;" transform="matrix(1 0 0 1 3036 1969)">Generated from questionmark.bubble</text>
  <text style="stroke:none;fill:black;font-family:sans-serif;font-size:13;text-anchor:end;" transform="matrix(1 0 0 1 3036 1987)">Typeset at 100 points</text>
  <text style="stroke:none;fill:black;font-family:sans-serif;font-size:13;" transform="matrix(1 0 0 1 263 726)">Small</text>
  <text style="stroke:none;fill:black;font-family:sans-serif;font-size:13;" transform="matrix(1 0 0 1 263 1156)">Medium</text>
  <text style="stroke:none;fill:black;font-family:sans-serif;font-size:13;" transform="matrix(1 0 0 1 263 1586)">Large</text>
 </g>
 <g id="Guides">
  <g id="H-reference" style="fill:#27AAE1;stroke:none;" transform="matrix(1 0 0 1 339 696)">
   <path d="M0.993654 0L3.63775 0L29.3281-67.1323L30.0303-67.1323L30.0303-70.459L28.1226-70.459ZM11.6885-24.4799L46.9815-24.4799L46.2315-26.7285L12.4385-26.7285ZM55.1196 0L57.7637 0L30.6382-70.459L29.4326-70.459L29.4326-67.1323Z"/>
  </g>
  <line id="Baseline-S" style="fill:none;stroke:#27AAE1;opacity:1;stroke-width:0.5;" x1="263" x2="3036" y1="696" y2="696"/>
  <line id="Capline-S" style="fill:none;stroke:#27AAE1;opacity:1;stroke-width:0.5;" x1="263" x2="3036" y1="625.541" y2="625.541"/>
  <g id="H-reference" style="fill:#27AAE1;stroke:none;" transform="matrix(1 0 0 1 339 1126)">
   <path d="M0.993654 0L3.63775 0L29.3281-67.1323L30.0303-67.1323L30.0303-70.459L28.1226-70.459ZM11.6885-24.4799L46.9815-24.4799L46.2315-26.7285L12.4385-26.7285ZM55.1196 0L57.7637 0L30.6382-70.459L29.4326-70.459L29.4326-67.1323Z"/>
  </g>
  <line id="Baseline-M" style="fill:none;stroke:#27AAE1;opacity:1;stroke-width:0.5;" x1="263" x2="3036" y1="1126" y2="1126"/>
  <line id="Capline-M" style="fill:none;stroke:#27AAE1;opacity:1;stroke-width:0.5;" x1="263" x2="3036" y1="1055.54" y2="1055.54"/>
  <g id="H-reference" style="fill:#27AAE1;stroke:none;" transform="matrix(1 0 0 1 339 1556)">
   <path d="M0.993654 0L3.63775 0L29.3281-67.1323L30.0303-67.1323L30.0303-70.459L28.1226-70.459ZM11.6885-24.4799L46.9815-24.4799L46.2315-26.7285L12.4385-26.7285ZM55.1196 0L57.7637 0L30.6382-70.459L29.4326-70.459L29.4326-67.1323Z"/>
  </g>
  <line id="Baseline-L" style="fill:none;stroke:#27AAE1;opacity:1;stroke-width:0.5;" x1="263" x2="3036" y1="1556" y2="1556"/>
  <line id="Capline-L" style="fill:none;stroke:#27AAE1;opacity:1;stroke-width:0.5;" x1="263" x2="3036" y1="1485.54" y2="1485.54"/>
  <line id="left-margin-Regular-M" style="fill:none;stroke:#00AEEF;stroke-width:0.5;opacity:1.0;" x1="1383.59" x2="1383.59" y1="1030.79" y2="1150.12"/>
  <line id="right-margin-Regular-M" style="fill:none;stroke:#00AEEF;stroke-width:0.5;opacity:1.0;" x1="1516.1" x2="1516.1" y1="1030.79" y2="1150.12"/>
 </g>
 <g id="Symbols">
  <g id="Black-L" transform="matrix(1 0 0 1 2846.32 1556)">
   <path d="M59.4676 38.4136C64.4875 38.4136 68.6868 36.4078 74.8458 31.0561L95.8359 12.8031L125.865 12.8031C145.557 12.8031 158.07 0.204932 158.07-19.4018L158.07-70.1914C158.07-89.7981 145.557-102.396 125.865-102.396L48.2888-102.396C28.5965-102.396 16.084-89.8005 16.084-70.1914L16.084-19.4018C16.084 0.207325 29.7646 12.8031 46.5366 12.8031L47.5817 12.8031L47.5817 25.393C47.5817 33.5116 52.1211 38.4136 59.4676 38.4136ZM64.219 16.3772L64.219-0.620692C64.219-5.3943 61.7345-7.17794 57.6618-7.17794L49.8098-7.17794C40.6742-7.17794 36.065-11.7004 36.065-20.9227L36.065-68.6705C36.065-77.8732 40.6742-82.3944 49.8098-82.3944L124.344-82.3944C133.475-82.3944 138.089-77.8732 138.089-68.6705L138.089-20.9227C138.089-11.7004 133.475-7.17794 124.344-7.17794L94.1615-7.17794C89.2847-7.17794 87.2338-6.15134 83.6258-2.6221ZM85.3953-34.3058C89.616-34.3058 92.6991-36.3 93.3415-39.03C93.3999-39.238 93.4584-39.5448 93.4584-39.6944C94.1592-41.9951 96.8282-43.8196 99.7603-45.6897C106.014-49.5815 108.816-52.8719 108.816-59.1414C108.816-69.1526 99.4399-75.8918 87.3562-75.8918C77.2155-75.8918 69.6828-71.8855 67.1282-66.0069C66.5557-64.791 66.318-63.6151 66.318-62.3176C66.318-58.7451 69.0367-55.8245 72.9256-55.8245C75.5502-55.8245 77.6879-56.7083 79.2087-58.6784L79.6794-59.3379C81.5541-61.7342 83.357-62.5234 85.5935-62.5234C88.4304-62.5234 90.6263-60.5008 90.6263-58.1368C90.6263-55.2167 88.1936-53.798 83.6684-50.7107C79.5438-47.84 76.7469-45.1073 76.7469-41.0911C76.7469-40.9987 76.7469-40.9243 76.7469-40.8319C76.7469-36.5464 79.848-34.3058 85.3953-34.3058ZM85.4108-14.4068C90.4736-14.4068 94.1974-17.328 94.1974-22.138C94.1974-26.8896 90.4944-29.8692 85.4108-29.8692C80.366-29.8692 76.5451-26.9271 76.5451-22.138C76.5451-17.3488 80.3869-14.4068 85.4108-14.4068Z"/>
  </g>
  <g id="Heavy-L" transform="matrix(1 0 0 1 2550.05 1556)">
   <path d="M58.2021 37.2547C62.7267 37.2547 66.4104 35.361 71.934 30.535L93.1414 12.0206L125.92 12.0206C145.277 12.0206 157.195-0.0299295 157.195-19.2547L157.195-69.616C157.195-88.8407 145.277-100.891 125.92-100.891L47.3593-100.891C28.0025-100.891 16.084-88.852 16.084-69.616L16.084-19.2547C16.084-0.0187036 28.895 12.0206 46.0206 12.0206L47.5902 12.0206L47.5902 25.543C47.5902 32.8249 51.6145 37.2547 58.2021 37.2547ZM62.3981 17.8844L62.3981 0.575984C62.3981-3.83187 60.2147-5.4798 56.3424-5.4798L48.5307-5.4798C38.5565-5.4798 33.5844-10.4903 33.5844-20.4261L33.5844-68.4446C33.5844-78.3558 38.5565-83.3607 48.5307-83.3607L124.749-83.3607C134.7-83.3607 139.695-78.3558 139.695-68.4446L139.695-20.4261C139.695-10.4903 134.7-5.4798 124.749-5.4798L91.7902-5.4798C87.2896-5.4798 85.3187-4.57672 82.0206-1.32437ZM85.0725-33.3524C88.9914-33.3524 91.77-35.3134 92.2609-37.96C92.3055-38.1802 92.3501-38.4998 92.3501-38.6753C92.8856-41.2914 95.3947-43.2119 98.6923-45.333C104.917-49.2738 108.051-52.6608 108.051-59.1743C108.051-69.2355 98.7409-75.7127 87.0124-75.7127C76.735-75.7127 69.3282-71.4235 66.9914-65.5426C66.4779-64.3858 66.2535-63.2545 66.2535-62.0116C66.2535-58.6642 68.8205-56.0811 72.262-56.0811C74.7521-56.0811 76.6846-56.9892 78.0846-58.8506L78.687-59.6777C80.6001-62.4181 82.7968-63.5975 85.5706-63.5975C89.1504-63.5975 91.7334-61.2606 91.7334-58.3071C91.7334-55.0655 89.2671-53.4697 84.4866-50.1861C80.2495-47.2437 77.343-44.3681 77.343-39.8707C77.343-39.7342 77.343-39.5875 77.343-39.4509C77.343-35.4303 80.1115-33.3524 85.0725-33.3524ZM85.0511-13.7685C89.7361-13.7685 93.2938-16.651 93.2938-21.162C93.2938-25.6284 89.7663-28.5555 85.0511-28.5555C80.356-28.5555 76.7336-25.6428 76.7336-21.162C76.7336-16.6812 80.3862-13.7685 85.0511-13.7685Z"/>
  </g>
  <g id="Bold-L" transform="matrix(1 0 0 1 2253.95 1556)">
   <path d="M56.4706 35.7657C60.3582 35.7657 63.4115 34.0401 68.1066 29.9119L89.6052 11.0971L125.982 11.0971C144.759 11.0971 155.963-0.284626 155.963-18.884L155.963-69.0579C155.963-87.6573 144.759-99.0391 125.982-99.0391L46.0651-99.0391C27.2873-99.0391 16.084-87.6838 16.084-69.0579L16.084-18.884C16.084-0.258166 27.8714 11.0971 45.189 11.0971L47.4713 11.0971L47.4713 25.7349C47.4713 31.9497 50.8578 35.7657 56.4706 35.7657ZM59.9678 19.7069L59.9678 2.0217C59.9678-1.88064 58.1533-3.34465 54.6014-3.34465L46.8509-3.34465C35.9735-3.34465 30.5257-8.9547 30.5257-19.6698L30.5257-68.2722C30.5257-78.9625 35.9735-84.5593 46.8509-84.5593L125.196-84.5593C136.02-84.5593 141.521-78.9625 141.521-68.2722L141.521-19.6698C141.521-8.9547 136.02-3.34465 125.196-3.34465L88.6611-3.34465C84.659-3.34465 82.8177-2.58778 79.9039 0.303972ZM84.5909-32.2511C88.0812-32.2511 90.4684-34.1215 90.7897-36.6159C90.8189-36.8738 90.8481-37.2237 90.8481-37.4524C91.1985-40.4454 93.5153-42.4812 97.2514-44.9098C103.468-48.927 106.89-52.4219 106.89-59.1309C106.89-69.1193 97.7609-75.3036 86.4779-75.3036C76.0986-75.3036 68.8752-70.6685 66.8224-64.7503C66.3856-63.6701 66.184-62.6076 66.184-61.4338C66.184-58.4078 68.5143-56.2397 71.4101-56.2397C73.7013-56.2397 75.3802-57.1562 76.5969-58.872L77.301-59.8543C79.1634-63.0548 81.889-64.8151 85.4058-64.8151C89.9076-64.8151 92.9746-62.0863 92.9746-58.4252C92.9746-54.8214 90.4922-52.9954 85.3965-49.4735C80.9987-46.424 78.0285-43.3941 78.0285-38.4092C78.0285-38.1965 78.0285-37.9502 78.0285-37.7375C78.0285-34.1068 80.3822-32.2511 84.5909-32.2511ZM84.5309-13.1186C88.7397-13.1186 92.0527-15.9177 92.0527-20.0301C92.0527-24.1132 88.7777-26.9415 84.5309-26.9415C80.2885-26.9415 76.9419-24.1044 76.9419-20.0301C76.9419-15.9557 80.3265-13.1186 84.5309-13.1186Z"/>
  </g>
  <g id="Semibold-L" transform="matrix(1 0 0 1 1957.67 1556)">
   <path d="M55.2769 34.7392C58.7254 34.7392 61.3441 33.1295 65.468 29.4824L87.1674 10.4604L126.024 10.4604C144.403 10.4604 155.113-0.460212 155.113-18.6285L155.113-68.6732C155.113-86.8415 144.403-97.7622 126.024-97.7622L45.1729-97.7622C26.7942-97.7622 16.084-86.8785 16.084-68.6732L16.084-18.6285C16.084-0.423249 27.1657 10.4604 44.6157 10.4604L47.3894 10.4604L47.3894 25.8672C47.3894 31.3464 50.3362 34.7392 55.2769 34.7392ZM58.2923 20.9633L58.2923 3.01837C58.2923-0.535472 56.7322-1.87269 53.4012-1.87269L45.6928-1.87269C34.1927-1.87269 28.4171-7.89603 28.4171-19.1484L28.4171-68.1533C28.4171-79.3808 34.1927-85.3857 45.6928-85.3857L125.504-85.3857C136.93-85.3857 142.78-79.3808 142.78-68.1533L142.78-19.1484C142.78-7.89603 136.93-1.87269 125.504-1.87269L86.504-1.87269C82.8454-1.87269 81.0936-1.21661 78.4446 1.42654ZM84.2589-31.4919C87.4538-31.4919 89.5711-33.2998 89.7754-35.6893C89.794-35.9732 89.8126-36.3439 89.8126-36.6092C90.0355-39.8622 92.2197-41.9775 96.2581-44.618C102.468-48.6879 106.089-52.2572 106.089-59.1009C106.089-69.0392 97.0853-75.0215 86.1094-75.0215C75.6598-75.0215 68.563-70.1479 66.7058-64.204C66.3219-63.1767 66.1361-62.1617 66.1361-61.0355C66.1361-58.2311 68.3032-56.3491 70.8227-56.3491C72.9769-56.3491 74.481-57.2713 75.5712-58.8867L76.3456-59.9761C78.173-63.4936 81.2632-65.6545 85.2922-65.6545C90.4296-65.6545 93.8302-62.6556 93.8302-58.5066C93.8302-54.6531 91.3367-52.6684 86.0238-48.9822C81.5152-45.859 78.5011-42.7226 78.5011-37.4017C78.5011-37.1364 78.5011-36.8215 78.5011-36.5563C78.5011-33.1944 80.5688-31.4919 84.2589-31.4919ZM84.1723-12.6707C88.0529-12.6707 91.1972-15.4122 91.1972-19.2497C91.1972-23.0686 88.0962-25.8288 84.1723-25.8288C80.2421-25.8288 77.0855-23.0438 77.0855-19.2497C77.0855-15.4556 80.2854-12.6707 84.1723-12.6707Z"/>
  </g>
  <g id="Medium-L" transform="matrix(1 0 0 1 1661.28 1556)">
   <path d="M54.3718 33.9608C57.4873 33.9608 59.7766 32.4391 63.4673 29.1566L85.319 9.97771L126.056 9.97771C144.132 9.97771 154.469-0.593349 154.469-18.4348L154.469-68.3815C154.469-86.2229 144.132-96.794 126.056-96.794L44.4964-96.794C26.4203-96.794 16.084-86.2678 16.084-68.3815L16.084-18.4348C16.084-0.548423 26.6306 9.97771 44.1811 9.97771L47.3272 9.97771L47.3272 25.9675C47.3272 30.8889 49.9406 33.9608 54.3718 33.9608ZM57.0219 21.9159L57.0219 3.77409C57.0219 0.484488 55.6546-0.756592 52.4912-0.756592L44.8147-0.756592C32.8425-0.756592 26.8183-7.09331 26.8183-18.753L26.8183-68.0632C26.8183-79.698 32.8425-86.0122 44.8147-86.0122L125.738-86.0122C137.62-86.0122 143.735-79.698 143.735-68.0632L143.735-18.753C143.735-7.09331 137.62-0.756592 125.738-0.756592L84.8683-0.756592C81.4703-0.756592 79.7863-0.176937 77.3381 2.27773ZM84.0072-30.9163C86.978-30.9163 88.8908-32.6767 89.0064-34.9867C89.0169-35.2903 89.0274-35.6769 89.0274-35.97C89.1536-39.4199 91.2373-41.5956 95.5049-44.3968C101.711-48.5066 105.482-52.1323 105.482-59.0781C105.482-68.9785 96.573-74.8077 85.83-74.8077C75.3271-74.8077 68.3262-69.7533 66.6174-63.7898C66.2737-62.8027 66.0998-61.8235 66.0998-60.7335C66.0998-58.097 68.1432-56.432 70.3773-56.432C72.4277-56.432 73.7992-57.3586 74.7935-58.8978L75.6211-60.0685C77.422-63.8264 80.7887-66.2909 85.2061-66.2909C90.8254-66.2909 94.479-63.0873 94.479-58.5684C94.479-54.5255 91.977-52.4205 86.4995-48.6096C81.9068-45.4305 78.8594-42.2134 78.8594-36.6377C78.8594-36.3326 78.8594-35.9657 78.8594-35.6606C78.8594-32.5026 80.7102-30.9163 84.0072-30.9163ZM83.9004-12.331C87.532-12.331 90.5485-15.029 90.5485-18.658C90.5485-22.2766 87.5795-24.9851 83.9004-24.9851C80.2068-24.9851 77.1943-22.2396 77.1943-18.658C77.1943-15.0764 80.2542-12.331 83.9004-12.331Z"/>
  </g>
  <g id="Regular-L" transform="matrix(1 0 0 1 1364.99 1556)">
   <path d="M53.1913 32.9456C55.8724 32.9456 57.7319 31.5385 60.8577 28.7318L82.908 9.34805L126.098 9.34805C143.78 9.34805 153.629-0.767006 153.629-18.182L153.629-68.001C153.629-85.416 143.78-95.5311 126.098-95.5311L43.6141-95.5311C25.9327-95.5311 16.084-85.4713 16.084-68.001L16.084-18.182C16.084-0.711692 25.9327 9.34805 43.6141 9.34805L47.2461 9.34805L47.2461 26.0983C47.2461 30.2921 49.4247 32.9456 53.1913 32.9456ZM55.3648 23.1585L55.3648 4.75981C55.3648 1.81487 54.2491 0.699192 51.3042 0.699192L43.6694 0.699192C31.0813 0.699192 24.7328-6.04628 24.7328-18.2373L24.7328-67.9457C24.7328-80.1117 31.0813-86.8295 43.6694-86.8295L126.043-86.8295C138.521-86.8295 144.98-80.1117 144.98-67.9457L144.98-18.2373C144.98-6.04628 138.521 0.699192 126.043 0.699192L82.7348 0.699192C79.6767 0.699192 78.0811 1.17916 75.8948 3.38796ZM83.6789-30.1654C86.3575-30.1654 88.0033-31.864 88.0033-34.0703C88.0033-34.3996 88.0033-34.8068 88.0033-35.1361C88.0033-38.8431 89.956-41.0974 94.5224-44.1082C100.722-48.2701 104.69-51.9694 104.69-59.0485C104.69-68.8993 95.9049-74.5287 85.4656-74.5287C74.8931-74.5287 68.0174-69.2385 66.5022-63.2496C66.2107-62.3147 66.0524-61.3824 66.0524-60.3395C66.0524-57.9222 67.9344-56.5402 69.7964-56.5402C71.7112-56.5402 72.9099-57.4725 73.7792-58.9124L74.6762-60.1889C76.4425-64.2605 80.1698-67.1211 85.0937-67.1211C91.3417-67.1211 95.3253-63.6503 95.3253-58.6489C95.3253-54.359 92.8122-52.0971 87.1199-48.1237C82.4177-44.8716 79.3268-41.5493 79.3268-35.6412C79.3268-35.2842 79.3268-34.8494 79.3268-34.4924C79.3268-31.6002 80.8948-30.1654 83.6789-30.1654ZM83.5457-11.8879C86.8527-11.8879 89.7023-14.529 89.7023-17.8862C89.7023-21.2435 86.9055-23.8846 83.5457-23.8846C80.1608-23.8846 77.3363-21.1907 77.3363-17.8862C77.3363-14.5818 80.2136-11.8879 83.5457-11.8879Z"/>
  </g>
  <g id="Light-L" transform="matrix(1 0 0 1 1069.18 1556)">
   <path d="M50.9392 31.5715C53.0287 31.5715 54.5065 30.4697 56.7925 28.4455L79.1864 9.00452L126.098 9.00452C142.329 9.00452 151.815-0.70975 151.815-16.7125L151.815-68.6117C151.815-84.6145 142.329-94.3287 126.098-94.3287L41.801-94.3287C25.5701-94.3287 16.084-84.7079 16.084-68.6117L16.084-16.7125C16.084-0.616266 25.5701 9.00452 41.801 9.00452L46.33 9.00452L46.33 26.2701C46.33 29.5287 48.0697 31.5715 50.9392 31.5715ZM52.5593 24.1319L52.5593 5.52322C52.5593 3.26535 51.6726 2.3787 49.4147 2.3787L41.8945 2.3787C29.5545 2.3787 22.7098-4.74848 22.7098-16.806L22.7098-68.5182C22.7098-80.5888 29.5545-87.6692 41.8945-87.6692L126.005-87.6692C138.158-87.6692 145.19-80.5888 145.19-68.5182L145.19-16.806C145.19-4.74848 138.158 2.3787 126.005 2.3787L79.3376 2.3787C76.833 2.3787 75.5236 2.80141 73.6046 4.64759ZM82.82-29.9173C84.8497-29.9173 86.133-31.2342 86.133-33.0206C86.133-33.5217 86.133-34.0434 86.133-34.5445C86.133-38.4232 87.9902-40.7348 92.7666-43.9365C99.1383-48.251 102.515-51.9503 102.515-58.4759C102.515-67.4107 94.4926-73.0401 84.3968-73.0401C74.187-73.0401 67.6166-67.5399 66.3877-61.3029C66.1725-60.4444 66.0715-59.6457 66.0715-58.66C66.0715-56.7389 67.4764-55.6241 69.014-55.6241C70.5852-55.6241 71.6121-56.4228 72.1379-57.6909L72.7104-58.7384C73.8087-63.3444 78.1659-67.2356 84.1013-67.2356C90.9982-67.2356 95.3443-63.4785 95.3443-58.1336C95.3443-53.8246 92.984-51.3337 87.0817-47.2267C82.1314-43.7838 79.4604-40.4996 79.4604-34.9541C79.4604-34.4063 79.4604-33.8378 79.4604-33.29C79.4604-31.0658 80.723-29.9173 82.82-29.9173ZM82.706-12.346C85.6313-12.346 88.061-14.7008 88.061-17.6C88.061-20.4992 85.6649-22.854 82.706-22.854C79.76-22.854 77.3172-20.4655 77.3172-17.6C77.3172-14.7345 79.7937-12.346 82.706-12.346Z"/>
  </g>
  <g id="Thin-L" transform="matrix(1 0 0 1 773.672 1556)">
   <path d="M47.9607 29.7541C49.2677 29.7541 50.2406 29.0561 51.416 28.0669L74.2642 8.55017L126.098 8.55017C140.411 8.55017 149.417-0.634024 149.417-14.7688L149.417-69.4195C149.417-83.5543 140.411-92.7385 126.098-92.7385L39.403-92.7385C25.0905-92.7385 16.084-83.6983 16.084-69.4195L16.084-14.7688C16.084-0.490057 25.0905 8.55017 39.403 8.55017L45.1184 8.55017L45.1184 26.4973C45.1184 28.5191 46.2775 29.7541 47.9607 29.7541ZM48.8487 25.4192L48.8487 6.53289C48.8487 5.18373 48.265 4.59998 46.9158 4.59998L39.547 4.59998C27.5351 4.59998 20.0342-3.03203 20.0342-14.9128L20.0342-69.2755C20.0342-81.2198 27.5351-88.7799 39.547-88.7799L125.954-88.7799C137.678-88.7799 145.467-81.2198 145.467-69.2755L145.467-14.9128C145.467-3.03203 137.678 4.59998 125.954 4.59998L74.8446 4.59998C73.072 4.59998 72.1412 4.94696 70.5756 6.31355ZM81.6842-29.5891C82.8556-29.5891 83.6593-30.4012 83.6593-31.6323C83.6593-32.3605 83.6593-33.0337 83.6593-33.762C83.6593-37.8679 85.3903-40.2552 90.4443-43.7093C97.0433-48.2257 99.637-51.9251 99.637-57.7187C99.637-65.4418 92.6247-71.0712 82.9833-71.0712C73.253-71.0712 67.0865-65.2934 66.2362-58.7282C66.122-57.9707 66.0967-57.3487 66.0967-56.4387C66.0967-55.1739 66.8706-54.4125 67.979-54.4125C69.0959-54.4125 69.8956-55.0345 69.9671-56.0754L70.1105-56.82C70.3253-62.1328 75.5155-67.3871 82.7887-67.3871C90.5438-67.3871 95.3696-63.2513 95.3696-57.4521C95.3696-53.1179 93.2112-50.324 87.0312-46.0404C81.7528-42.345 79.6371-39.1113 79.6371-34.0454C79.6371-33.2452 79.6371-32.5 79.6371-31.6998C79.6371-30.359 80.4958-29.5891 81.6842-29.5891ZM81.5953-12.9518C84.0158-12.9518 85.8902-14.928 85.8902-17.2213C85.8902-19.5147 84.0242-21.4909 81.5953-21.4909C79.2299-21.4909 77.292-19.5063 77.292-17.2213C77.292-14.9364 79.2384-12.9518 81.5953-12.9518Z"/>
  </g>
  <g id="Ultralight-L" transform="matrix(1 0 0 1 477.575 1556)">
   <path d="M46.4351 28.8232C47.3413 28.8232 48.0556 28.3321 48.6622 27.873L71.7431 8.31745L126.098 8.31745C139.428 8.31745 148.189-0.595238 148.189-13.7733L148.189-69.8332C148.189-83.0113 139.428-91.924 126.098-91.924L38.1748-91.924C24.8448-91.924 16.084-83.1811 16.084-69.8332L16.084-13.7733C16.084-0.425413 24.8448 8.31745 38.1748 8.31745L44.4978 8.31745L44.4978 26.6137C44.4978 28.0019 45.3595 28.8232 46.4351 28.8232ZM46.9482 26.0786L46.9482 7.05004C46.9482 6.16631 46.5196 5.73771 45.6358 5.73771L38.3446 5.73771C26.5008 5.73771 18.6637-2.15288 18.6637-13.9432L18.6637-69.6634C18.6637-81.5431 26.5008-89.3487 38.3446-89.3487L125.929-89.3487C137.433-89.3487 145.609-81.5431 145.609-69.6634L145.609-13.9432C145.609-2.15288 137.433 5.73771 125.929 5.73771L72.5433 5.73771C71.1456 5.73771 70.4088 6.04591 69.0241 7.16685ZM81.1024-29.4211C81.8342-29.4211 82.3922-29.9746 82.3922-30.9212C82.3922-31.7658 82.3922-32.5166 82.3922-33.3612C82.3922-37.5835 84.0586-40.0095 89.2549-43.5929C95.9702-48.2128 98.1631-51.9121 98.1631-57.3308C98.1631-64.4334 91.6679-70.0628 82.2593-70.0628C72.7746-70.0628 66.815-64.1427 66.1586-57.4095C66.0962-56.7036 66.1097-56.1722 66.1097-55.301C66.1097-54.3724 66.5603-53.7919 67.449-53.7919C68.3331-53.7919 69.0165-54.3234 68.8552-55.248L68.7788-55.8374C68.5412-61.5122 74.158-67.4646 82.1164-67.4646C90.3111-67.4646 95.3825-63.135 95.3825-57.103C95.3825-52.7559 93.3275-49.8068 87.0054-45.4327C81.5588-41.6081 79.7276-38.4002 79.7276-33.58C79.7276-32.6504 79.7276-31.8148 79.7276-30.8853C79.7276-29.997 80.3795-29.4211 81.1024-29.4211ZM81.0264-13.262C83.1884-13.262 84.7783-15.0443 84.7783-17.0274C84.7783-19.0105 83.1839-20.7928 81.0264-20.7928C78.9584-20.7928 77.2791-19.015 77.2791-17.0274C77.2791-15.0398 78.9539-13.262 81.0264-13.262Z"/>
  </g>
  <g id="Black-M" transform="matrix(1 0 0 1 2865.68 1126)">
   <path d="M46.8545 22.6346C51.0892 22.6346 54.734 21.0258 59.938 16.5338L76.0596 2.60929L97.4654 2.60929C112.814 2.60929 122.969-7.56735 122.969-22.8944L122.969-62.8933C122.969-78.2203 112.814-88.397 97.4654-88.397L37.9647-88.397C22.6162-88.397 12.4609-78.2198 12.4609-62.8933L12.4609-22.8944C12.4609-7.56792 23.7581 2.60929 36.2518 2.60929L36.7321 2.60929L36.7321 11.6316C36.7321 18.5138 40.6321 22.6346 46.8545 22.6346ZM50.938 3.58898L50.938-9.34163C50.938-13.2612 48.7853-14.7287 45.5509-14.7287L39.4486-14.7287C33.1251-14.7287 29.7989-17.8647 29.7989-24.3784L29.7989-61.4093C29.7989-67.9172 33.1251-71.0535 39.4486-71.0535L95.9814-71.0535C102.306-71.0535 105.631-67.9172 105.631-61.4093L105.631-24.3784C105.631-17.8647 102.306-14.7287 95.9814-14.7287L74.5286-14.7287C70.502-14.7287 68.883-13.8349 65.8576-10.9118ZM66.3204-35.2996C69.7617-35.2996 72.3629-36.8214 72.991-38.9512C73.0481-39.1252 73.1051-39.3675 73.1051-39.4843C73.7903-41.019 75.9826-42.3578 77.9684-43.6168C82.8619-46.6104 84.6677-49.0767 84.6677-53.6492C84.6677-61.2383 77.4497-66.6845 67.8292-66.6845C60.1393-66.6845 54.2367-63.7953 52.1091-59.2093C51.6251-58.2269 51.4373-57.2956 51.4373-56.2512C51.4373-53.3572 53.6095-50.8406 56.9627-50.8406C59.0653-50.8406 60.8745-51.4864 62.1101-53.0829L62.3176-53.4188C63.6465-55.0518 64.7901-55.4677 66.1981-55.4677C67.8455-55.4677 69.2631-54.1321 69.2631-52.7607C69.2631-50.772 67.4279-49.794 64.1131-47.5528C60.9807-45.3645 58.9649-43.3752 58.9649-40.7264C58.9649-40.667 58.9649-40.6533 58.9649-40.5938C58.9649-37.1365 61.6119-35.2996 66.3204-35.2996ZM66.3668-19.708C70.5621-19.708 73.5329-21.9656 73.5329-25.887C73.5329-29.7512 70.5676-32.066 66.3668-32.066C62.2173-32.066 59.138-29.8028 59.138-25.887C59.138-21.9711 62.2228-19.708 66.3668-19.708Z"/>
  </g>
  <g id="Heavy-M" transform="matrix(1 0 0 1 2569.32 1126)">
   <path d="M45.8252 21.6286C49.6302 21.6286 52.8062 20.1011 57.4665 16.0508L73.7688 1.87606L97.5193 1.87606C112.673 1.87606 122.282-7.80223 122.282-22.8862L122.282-62.2744C122.282-77.3583 112.673-87.0366 97.5193-87.0366L37.2232-87.0366C22.069-87.0366 12.4609-77.3629 12.4609-62.2744L12.4609-22.8862C12.4609-7.79768 22.9415 1.87606 35.9145 1.87606L36.8249 1.87606L36.8249 11.7624C36.8249 17.913 40.262 21.6286 45.8252 21.6286ZM49.4168 4.97253L49.4168-8.24222C49.4168-11.8676 47.5374-13.2235 44.4354-13.2235L38.3619-13.2235C31.1958-13.2235 27.5605-16.8015 27.5605-24.0249L27.5605-61.1357C27.5605-68.345 31.1958-71.9206 38.3619-71.9206L96.3806-71.9206C103.538-71.9206 107.182-68.345 107.182-61.1357L107.182-24.0249C107.182-16.8015 103.538-13.2235 96.3806-13.2235L72.5239-13.2235C68.814-13.2235 67.2469-12.4453 64.4997-9.75941ZM66.084-34.3905C69.2903-34.3905 71.6272-35.9151 72.1071-38.0021C72.1507-38.1721 72.1943-38.4163 72.1943-38.5427C72.7178-40.3698 74.7625-41.7971 77.0864-43.2839C81.9355-46.3114 84.1202-48.8721 84.1202-53.7342C84.1202-61.4566 76.8966-66.6467 67.5917-66.6467C59.7348-66.6467 53.927-63.5004 51.9859-58.935C51.5526-58.0033 51.3725-57.1033 51.3725-56.107C51.3725-53.3873 53.4403-51.176 56.3863-51.176C58.389-51.176 60.0134-51.8578 61.1626-53.3639L61.5288-53.8848C62.9568-55.805 64.4273-56.5071 66.2673-56.5071C68.581-56.5071 70.3436-54.8906 70.3436-52.9746C70.3436-50.6735 68.4615-49.5435 64.9164-47.1227C61.6969-44.8819 59.5352-42.7495 59.5352-39.5968C59.5352-39.5118 59.5352-39.4398 59.5352-39.3548C59.5352-36.0948 61.8853-34.3905 66.084-34.3905ZM66.0926-19.0417C69.9538-19.0417 72.8009-21.2879 72.8009-24.9593C72.8009-28.587 69.9702-30.8769 66.0926-30.8769C62.2444-30.8769 59.3241-28.6142 59.3241-24.9593C59.3241-21.3043 62.2608-19.0417 66.0926-19.0417Z"/>
  </g>
  <g id="Bold-M" transform="matrix(1 0 0 1 2272.99 1126)">
   <path d="M44.6737 20.5031C47.9982 20.5031 50.6496 19.0666 54.7017 15.5105L71.2063 1.05583L97.5796 1.05583C112.516 1.05583 121.512-8.06497 121.512-22.877L121.512-61.5821C121.512-76.3941 112.516-85.5149 97.5796-85.5149L36.3937-85.5149C21.457-85.5149 12.4609-76.4044 12.4609-61.5821L12.4609-22.877C12.4609-8.0547 22.0279 1.05583 35.5373 1.05583L36.9288 1.05583L36.9288 11.9087C36.9288 17.2409 39.8479 20.5031 44.6737 20.5031ZM47.7151 6.52023L47.7151-7.01238C47.7151-10.3087 46.1413-11.5399 43.1876-11.5399L37.1463-11.5399C29.0376-11.5399 25.0566-15.6121 25.0566-23.6295L25.0566-60.8296C25.0566-68.8235 29.0376-72.8906 37.1463-72.8906L96.827-72.8906C104.915-72.8906 108.917-68.8235 108.917-60.8296L108.917-23.6295C108.917-15.6121 104.915-11.5399 96.827-11.5399L70.2813-11.5399C66.9257-11.5399 65.4165-10.8908 62.9808-8.47027ZM65.8197-33.3736C68.7628-33.3736 70.8043-34.9012 71.1183-36.9404C71.1469-37.106 71.1754-37.3523 71.1754-37.4893C71.518-39.6437 73.3977-41.17 76.0997-42.9115C80.8992-45.9769 83.5077-48.6431 83.5077-53.8293C83.5077-61.7008 76.278-66.6045 67.326-66.6045C59.2823-66.6045 53.5805-63.1705 51.8482-58.6282C51.4715-57.7532 51.3-56.8883 51.3-55.9458C51.3-53.421 53.2511-51.5512 55.7414-51.5512C57.6323-51.5512 59.0502-52.2733 60.1026-53.6783L60.6463-54.406C62.1853-56.6474 64.0215-57.6698 66.3447-57.6698C69.4037-57.6698 71.5523-55.7391 71.5523-53.2139C71.5523-50.5632 69.6178-49.2633 65.8151-46.6416C62.4981-44.3421 60.1733-42.0496 60.1733-38.3332C60.1733-38.2196 60.1733-38.0824 60.1733-37.9687C60.1733-34.9294 62.1912-33.3736 65.8197-33.3736ZM65.7858-18.2964C69.2733-18.2964 71.9822-20.5298 71.9822-23.9215C71.9822-27.2847 69.3019-29.5467 65.7858-29.5467C62.2748-29.5467 59.5323-27.2846 59.5323-23.9215C59.5323-20.5585 62.3034-18.2964 65.7858-18.2964Z"/>
  </g>
  <g id="Semibold-M" transform="matrix(1 0 0 1 1976.55 1126)">
   <path d="M43.8799 19.7273C46.8731 19.7273 49.1629 18.3535 52.7958 15.138L69.4398 0.49037L97.6211 0.49037C112.408 0.49037 120.982-8.2461 120.982-22.8706L120.982-61.1048C120.982-75.7294 112.408-84.4658 97.6211-84.4658L35.8219-84.4658C21.035-84.4658 12.4609-75.7436 12.4609-61.1048L12.4609-22.8706C12.4609-8.23189 21.3982 0.49037 35.2772 0.49037L37.0004 0.49037L37.0004 12.0096C37.0004 16.7775 39.5624 19.7273 43.8799 19.7273ZM46.5419 7.58721L46.5419-6.16454C46.5419-9.23401 45.1789-10.3792 42.3273-10.3792L36.3082-10.3792C27.5497-10.3792 23.3305-14.7922 23.3305-23.3569L23.3305-60.6185C23.3305-69.1533 27.5497-73.5593 36.3082-73.5593L97.1348-73.5593C105.865-73.5593 110.113-69.1533 110.113-60.6185L110.113-23.3569C110.113-14.7922 105.865-10.3792 97.1348-10.3792L68.7353-10.3792C65.6239-10.3792 64.1547-9.81909 61.9336-7.58155ZM65.6374-32.6725C68.3992-32.6725 70.237-34.2023 70.4367-36.2084C70.4548-36.371 70.473-36.6187 70.473-36.7631C70.6909-39.1431 72.4568-40.7377 75.4195-42.6547C80.1848-45.7463 83.0855-48.4853 83.0855-53.8948C83.0855-61.8691 75.8515-66.5754 67.1428-66.5754C58.9703-66.5754 53.3417-62.943 51.7532-58.4167C51.4156-57.5807 51.25-56.74 51.25-55.8346C51.25-53.4442 53.1206-51.8099 55.2969-51.8099C57.1107-51.8099 58.3862-52.5598 59.3719-53.895L60.0379-54.7653C61.6534-57.2283 63.7417-58.4714 66.398-58.4714C69.971-58.4714 72.3856-56.3241 72.3856-53.3789C72.3856-50.4873 70.4149-49.0701 66.4347-46.3099C63.0505-43.9699 60.6131-41.567 60.6131-37.4621C60.6131-37.3287 60.6131-37.1465 60.6131-37.0132C60.6131-34.126 62.402-32.6725 65.6374-32.6725ZM65.5744-17.7825C68.8042-17.7825 71.4177-20.0072 71.4177-23.2061C71.4177-26.3868 68.8412-28.6297 65.5744-28.6297C62.2957-28.6297 59.6758-26.368 59.6758-23.2061C59.6758-20.0443 62.3328-17.7825 65.5744-17.7825Z"/>
  </g>
  <g id="Medium-M" transform="matrix(1 0 0 1 1680.04 1126)">
   <path d="M43.278 19.139C46.02 19.139 48.0357 17.8128 51.3506 14.8555L68.1003 0.0616135L97.6526 0.0616135C112.326 0.0616135 120.58-8.38344 120.58-22.8658L120.58-60.743C120.58-75.2253 112.326-83.6704 97.6526-83.6704L35.3884-83.6704C20.7151-83.6704 12.4609-75.2425 12.4609-60.743L12.4609-22.8658C12.4609-8.36624 20.9206 0.0616135 35.0801 0.0616135L37.0548 0.0616135L37.0548 12.0861C37.0548 16.4262 39.3459 19.139 43.278 19.139ZM45.6524 8.39623L45.6524-5.52166C45.6524-8.41912 44.4491-9.49906 41.675-9.49906L35.6728-9.49906C26.4216-9.49906 22.0216-14.1705 22.0216-23.1502L22.0216-60.4585C22.0216-69.4035 26.4216-74.0663 35.6728-74.0663L97.3682-74.0663C106.585-74.0663 111.019-69.4035 111.019-60.4585L111.019-23.1502C111.019-14.1705 106.585-9.49906 97.3682-9.49906L67.563-9.49906C64.6369-9.49906 63.198-9.00651 61.1396-6.90768ZM65.4992-32.1409C68.1235-32.1409 69.8068-33.6723 69.9198-35.6535C69.9301-35.8137 69.9404-36.0625 69.9404-36.2125C70.0637-38.7635 71.7434-40.4098 74.9038-42.46C79.6431-45.5715 82.7654-48.3656 82.7654-53.9445C82.7654-61.9968 75.5281-66.5534 67.004-66.5534C58.7338-66.5534 53.1605-62.7706 51.6812-58.2563C51.3732-57.4499 51.2121-56.6276 51.2121-55.7503C51.2121-53.4618 53.0217-52.006 54.9598-52.006C56.7152-52.006 57.8826-52.7769 58.8178-54.0593L59.5766-55.0378C61.2501-57.6686 63.5296-59.0792 66.4384-59.0792C70.4011-59.0792 73.0175-56.7676 73.0175-53.504C73.0175-50.4296 71.0193-48.9236 66.9044-46.0584C63.4693-43.6877 60.9466-41.2011 60.9466-36.8015C60.9466-36.6532 60.9466-36.4369 60.9466-36.2886C60.9466-33.5168 62.5619-32.1409 65.4992-32.1409ZM65.414-17.3929C68.4485-17.3929 70.9897-19.611 70.9897-22.6636C70.9897-25.7061 68.4919-27.9344 65.414-27.9344C62.3116-27.9344 59.7846-25.6729 59.7846-22.6636C59.7846-19.6544 62.355-17.3929 65.414-17.3929Z"/>
  </g>
  <g id="Regular-M" transform="matrix(1 0 0 1 1383.59 1126)">
   <path d="M42.4929 18.3717C44.9072 18.3717 46.5653 17.1075 49.4655 14.4871L66.3531-0.497634L97.6938-0.497634C112.219-0.497634 120.056-8.56259 120.056-22.8595L120.056-60.2709C120.056-74.5679 112.219-82.6328 97.6938-82.6328L34.8228-82.6328C20.2978-82.6328 12.4609-74.589 12.4609-60.2709L12.4609-22.8595C12.4609-8.54148 20.2978-0.497634 34.8228-0.497634L37.1256-0.497634L37.1256 12.1859C37.1256 15.9679 39.0636 18.3717 42.4929 18.3717ZM44.4922 9.45148L44.4922-4.68313C44.4922-7.35623 43.4973-8.3511 40.8242-8.3511L34.8439-8.3511C24.9501-8.3511 20.3144-13.3596 20.3144-22.8806L20.3144-60.2498C20.3144-69.7297 24.9501-74.7276 34.8439-74.7276L97.6726-74.7276C107.524-74.7276 112.202-69.7297 112.202-60.2498L112.202-22.8806C112.202-13.3596 107.524-8.3511 97.6726-8.3511L66.034-8.3511C63.3494-8.3511 61.95-7.94662 60.104-6.02873ZM65.319-31.4475C67.7639-31.4475 69.2457-32.981 69.2457-34.9296C69.2457-35.0868 69.2457-35.337 69.2457-35.4943C69.2457-38.2684 70.8129-39.9822 74.2311-42.2061C78.9366-45.3435 82.3478-48.2095 82.3478-54.0093C82.3478-62.1632 75.1063-66.5246 66.8228-66.5246C58.4252-66.5246 52.9243-62.5456 51.5873-58.0471C51.318-57.2794 51.1627-56.481 51.1627-55.6404C51.1627-53.4848 52.8927-52.2618 54.5201-52.2618C56.1994-52.2618 57.2259-53.0602 58.0951-54.2737L58.975-55.3931C60.724-58.2431 63.2529-59.872 66.4912-59.872C70.962-59.872 73.8416-57.3462 73.8416-53.6672C73.8416-50.3545 71.8077-48.7325 67.5172-45.7304C64.0156-43.3196 61.3817-40.7239 61.3817-35.94C61.3817-35.7722 61.3817-35.5114 61.3817-35.3436C61.3817-32.7222 62.7705-31.4475 65.319-31.4475ZM65.2049-16.8848C67.9845-16.8848 70.4315-19.0941 70.4315-21.9561C70.4315-24.8181 68.0363-27.0274 65.2049-27.0274C62.3323-27.0274 59.9266-24.7663 59.9266-21.9561C59.9266-19.1458 62.3841-16.8848 65.2049-16.8848Z"/>
  </g>
  <g id="Light-M" transform="matrix(1 0 0 1 1087.69 1126)">
   <path d="M40.4738 17.1397C42.3577 17.1397 43.6736 16.1493 45.8209 14.2305L63.0165-0.80563L97.6938-0.80563C110.918-0.80563 118.43-8.51125 118.43-21.542L118.43-60.8185C118.43-73.8492 110.918-81.5549 97.6938-81.5549L33.1973-81.5549C19.9727-81.5549 12.4609-73.9046 12.4609-60.8185L12.4609-21.542C12.4609-8.45593 19.9727-0.80563 33.1973-0.80563L36.3043-0.80563L36.3043 12.3399C36.3043 15.2835 37.8487 17.1397 40.4738 17.1397ZM41.9769 10.3241L41.9769-3.9987C41.9769-6.0558 41.1873-6.84534 39.1302-6.84534L33.2526-6.84534C23.5812-6.84534 18.5006-12.196 18.5006-21.5973L18.5006-60.7632C18.5006-70.1575 23.5812-75.4805 33.2526-75.4805L97.6384-75.4805C107.199-75.4805 112.39-70.1575 112.39-60.7632L112.39-21.5973C112.39-12.196 107.199-6.84534 97.6384-6.84534L62.9883-6.84534C60.7998-6.84534 59.6572-6.49219 58.0507-4.89941ZM64.549-31.2251C66.4122-31.2251 67.5688-32.4164 67.5688-33.9885C67.5688-34.2997 67.5688-34.6526 67.5688-34.9639C67.5688-37.8919 69.0504-39.6571 72.6569-42.0521C77.5164-45.3263 80.3971-48.1924 80.3971-53.496C80.3971-60.8286 73.8401-65.1899 65.8646-65.1899C57.7921-65.1899 52.565-61.0228 51.4846-56.3018C51.2837-55.6025 51.1798-54.9239 51.1798-54.1346C51.1798-52.4239 52.482-51.4405 53.8186-51.4405C55.1898-51.4405 56.0623-52.1191 56.6236-53.1786L57.2125-54.0927C58.3627-57.4217 61.4562-59.9747 65.6014-59.9747C70.654-59.9747 73.8587-57.1922 73.8587-53.2052C73.8587-49.8754 71.9617-48.0481 67.483-44.9262C63.7589-42.3443 61.5014-39.7828 61.5014-35.324C61.5014-34.9851 61.5014-34.6045 61.5014-34.2656C61.5014-32.2431 62.6165-31.2251 64.549-31.2251ZM64.452-17.2954C66.8894-17.2954 68.9599-19.2481 68.9599-21.6994C68.9599-24.1508 66.924-26.1034 64.452-26.1034C61.973-26.1034 59.9094-24.1161 59.9094-21.6994C59.9094-19.2827 62.0076-17.2954 64.452-17.2954Z"/>
  </g>
  <g id="Thin-M" transform="matrix(1 0 0 1 792.052 1126)">
   <path d="M37.8034 15.5103C38.9857 15.5103 39.849 14.882 41.0006 13.891L58.6035-1.21298L97.6938-1.21298C109.198-1.21298 116.28-8.44336 116.28-19.7994L116.28-61.5427C116.28-72.8987 109.198-80.1291 97.6938-80.1291L31.0474-80.1291C19.5427-80.1291 12.4609-72.9993 12.4609-61.5427L12.4609-19.7994C12.4609-8.34278 19.5427-1.21298 31.0474-1.21298L35.218-1.21298L35.218 12.5436C35.218 14.3782 36.2419 15.5103 37.8034 15.5103ZM38.6502 11.4783L38.6502-3.09347C38.6502-4.33587 38.1322-4.85384 36.8898-4.85384L31.148-4.85384C21.7707-4.85384 16.1018-10.6572 16.1018-19.9L16.1018-61.4421C16.1018-70.7232 21.7707-76.4763 31.148-76.4763L97.5932-76.4763C106.769-76.4763 112.639-70.7232 112.639-61.4421L112.639-19.9C112.639-10.6572 106.769-4.85384 97.5932-4.85384L58.96-4.85384C57.4279-4.85384 56.6247-4.56859 55.335-3.40579ZM63.5306-30.9309C64.6243-30.9309 65.351-31.6695 65.351-32.7438C65.351-33.2587 65.351-33.7474 65.351-34.2623C65.351-37.3941 66.7195-39.2272 70.5748-41.8484C75.638-45.3037 77.8172-48.1697 77.8172-52.8171C77.8172-59.0634 72.1655-63.4247 64.5973-63.4247C56.9548-63.4247 52.0898-59.0086 51.3488-53.9935C51.2385-53.3847 51.2024-52.8645 51.2024-52.1431C51.2024-51.0208 51.9389-50.3542 52.8907-50.3542C53.8546-50.3542 54.5235-50.8744 54.6774-51.7302L54.8816-52.3728C55.2397-56.3355 59.08-60.1104 64.4246-60.1104C70.2467-60.1104 73.8813-56.9885 73.8813-52.5942C73.8813-49.2417 72.1653-47.1429 67.4377-43.8625C63.4194-41.0543 61.6599-38.5381 61.6599-34.5093C61.6599-33.9441 61.6599-33.4051 61.6599-32.8399C61.6599-31.6095 62.4128-30.9309 63.5306-30.9309ZM63.4563-17.8386C65.441-17.8386 67.0137-19.4518 67.0137-21.36C67.0137-23.2682 65.4531-24.8814 63.4563-24.8814C61.4978-24.8814 59.8868-23.2562 59.8868-21.36C59.8868-19.4638 61.5098-17.8386 63.4563-17.8386Z"/>
  </g>
  <g id="Ultralight-M" transform="matrix(1 0 0 1 495.891 1126)">
   <path d="M36.4356 14.6757C37.2586 14.6757 37.8901 14.2328 38.5316 13.7172L56.3432-1.42162L97.6938-1.42162C108.318-1.42162 115.179-8.40859 115.179-18.9069L115.179-61.9136C115.179-72.4119 108.318-79.3989 97.6938-79.3989L29.9462-79.3989C19.3224-79.3989 12.4609-72.5357 12.4609-61.9136L12.4609-18.9069C12.4609-8.28482 19.3224-1.42162 29.9462-1.42162L34.6616-1.42162L34.6616 12.6479C34.6616 13.9146 35.4189 14.6757 36.4356 14.6757ZM36.9462 12.0695L36.9462-2.62982C36.9462-3.45493 36.5674-3.83381 35.7422-3.83381L30.07-3.83381C20.8434-3.83381 14.8731-9.86895 14.8731-19.0307L14.8731-61.7898C14.8731-71.013 20.8434-76.9863 30.07-76.9863L97.57-76.9863C106.549-76.9863 112.767-71.013 112.767-61.7898L112.767-19.0307C112.767-9.86895 106.549-3.83381 97.57-3.83381L56.8968-3.83381C55.7008-3.83381 55.0714-3.58333 53.9441-2.64076ZM63.009-30.7802C63.7086-30.7802 64.2151-31.287 64.2151-32.1063C64.2151-32.7255 64.2151-33.2837 64.2151-33.903C64.2151-37.139 65.5256-39.0069 69.5084-41.7441C74.6759-45.2921 76.4958-48.1581 76.4958-52.4694C76.4958-58.1593 71.3077-62.5206 63.9482-62.5206C56.5259-62.5206 51.8463-57.977 51.2793-52.8112C51.2153-52.2488 51.214-51.8097 51.214-51.1231C51.214-50.3022 51.6607-49.7978 52.4155-49.7978C53.1707-49.7978 53.7353-50.2369 53.6805-50.9884L53.6877-51.4918C53.6401-55.7791 57.8629-60.18 63.8219-60.18C70.038-60.18 73.8929-56.8842 73.8929-52.2812C73.8929-48.9172 72.2696-46.6792 67.4145-43.3177C63.2456-40.3936 61.741-37.9006 61.741-34.092C61.741-33.4109 61.741-32.7908 61.741-32.1096C61.741-31.2849 62.3085-30.7802 63.009-30.7802ZM62.9463-18.1168C64.6992-18.1168 66.0169-19.5561 66.0169-21.1861C66.0169-22.8161 64.6996-24.2554 62.9463-24.2554C61.2543-24.2554 59.8752-22.8157 59.8752-21.1861C59.8752-19.5565 61.2548-18.1168 62.9463-18.1168Z"/>
  </g>
  <g id="Black-S" transform="matrix(1 0 0 1 2880.28 696)">
   <path d="M36.9141 10.3516C40.332 10.3516 43.3105 9.08203 47.5098 5.46875L60.1074-5.37109L76.3672-5.37109C88.3789-5.37109 96.4844-13.4766 96.4844-25.4883L96.4844-57.1289C96.4844-69.1406 88.3789-77.2461 76.3672-77.2461L29.8828-77.2461C17.8711-77.2461 9.76562-69.1406 9.76562-57.1289L9.76562-25.4883C9.76562-13.4766 18.8477-5.37109 28.418-5.37109L28.7109-5.37109L28.7109 1.46484C28.7109 7.03125 31.8848 10.3516 36.9141 10.3516ZM40.2344-5.17578L40.2344-15.2344C40.2344-18.3594 38.4766-19.5312 35.9375-19.5312L31.1523-19.5312C26.4648-19.5312 23.9258-21.875 23.9258-26.7578L23.9258-55.8594C23.9258-60.7422 26.4648-63.0859 31.1523-63.0859L75.0977-63.0859C79.7852-63.0859 82.3242-60.7422 82.3242-55.8594L82.3242-26.7578C82.3242-21.875 79.7852-19.5312 75.0977-19.5312L58.8379-19.5312C55.6152-19.5312 54.3457-18.7988 51.9043-16.4551ZM52.002-35.5469C54.7363-35.5469 56.8359-36.7188 57.373-38.3789C57.4219-38.5254 57.4707-38.7207 57.4707-38.8184C58.0566-39.9414 59.8145-40.9668 61.2793-41.8945C65.1367-44.2383 66.4062-46.1426 66.4062-49.6094C66.4062-55.4688 60.791-59.8145 53.1738-59.8145C47.2168-59.8145 42.5781-57.6172 40.8691-54.0039C40.4785-53.2227 40.332-52.4902 40.332-51.6602C40.332-49.3652 42.041-47.3145 44.7754-47.3145C46.4355-47.3145 47.9004-47.8027 48.877-49.0723L48.9746-49.2676C49.9512-50.4883 50.7812-50.7812 51.8066-50.7812C52.9297-50.7812 53.9551-49.8047 53.9551-48.877C53.9551-47.4121 52.5391-46.6797 50-44.9707C47.5586-43.2617 46.0449-41.748 46.0449-39.8438C46.0449-39.7949 46.0449-39.7949 46.0449-39.7461C46.0449-37.0117 48.1934-35.5469 52.002-35.5469ZM52.0508-23.291C55.4199-23.291 57.7637-25.0488 57.7637-28.1738C57.7637-31.25 55.4199-33.0566 52.0508-33.0566C48.7305-33.0566 46.2891-31.2988 46.2891-28.1738C46.2891-25.0488 48.7305-23.291 52.0508-23.291Z"/>
  </g>
  <g id="Heavy-S" transform="matrix(1 0 0 1 2583.75 696)">
   <path d="M36.2917 9.64857C39.4101 9.64857 42.0313 8.41361 45.8618 5.08844L58.5747-5.95884L76.4133-5.95884C88.425-5.95884 96.1041-13.684 96.1041-25.6496L96.1041-56.5296C96.1041-68.4953 88.425-76.2204 76.4133-76.2204L29.4564-76.2204C17.4447-76.2204 9.76562-68.4953 9.76562-56.5296L9.76562-25.6496C9.76562-13.684 18.1908-5.95884 28.3373-5.95884L28.8953-5.95884L28.8953 1.55704C28.8953 6.60484 31.7234 9.64857 36.2917 9.64857ZM39.2548-4.10401L39.2548-14.3816C39.2548-17.3337 37.7044-18.4364 35.1999-18.4364L30.4263-18.4364C24.9897-18.4364 22.2432-21.1144 22.2432-26.6195L22.2432-55.5597C22.2432-61.0533 24.9897-63.7313 30.4263-63.7313L75.4434-63.7313C80.88-63.7313 83.6265-61.0533 83.6265-55.5597L83.6265-26.6195C83.6265-21.1144 80.88-18.4364 75.4434-18.4364L57.5126-18.4364C54.4974-18.4364 53.2394-17.7962 51.0054-15.6138ZM51.8982-34.7978C54.5058-34.7978 56.4211-36.0158 56.8314-37.6874C56.8687-37.8109 56.906-37.9947 56.906-38.0808C57.3536-39.4343 58.9962-40.5289 60.7261-41.6295C64.5259-43.9847 66.1873-45.9697 66.1873-49.7477C66.1873-55.826 60.4799-59.9527 53.0932-59.9527C46.9517-59.9527 42.3592-57.5596 40.7769-53.9924C40.4209-53.2457 40.2744-52.5248 40.2744-51.7293C40.2744-49.5266 41.9488-47.7063 44.372-47.7063C45.9861-47.7063 47.3126-48.2407 48.2546-49.4526L48.5252-49.8323C49.6631-51.2374 50.7006-51.6571 51.9795-51.6571C53.5981-51.6571 54.877-50.4731 54.877-49.119C54.877-47.3891 53.4034-46.5529 50.6915-44.7056C48.204-42.9736 46.5174-41.3332 46.5174-38.9564C46.5174-38.9075 46.5174-38.873 46.5174-38.8241C46.5174-36.182 48.4469-34.7978 51.8982-34.7978ZM51.9125-22.6687C55.0396-22.6687 57.3257-24.4496 57.3257-27.4132C57.3257-30.3396 55.0511-32.1577 51.9125-32.1577C48.7996-32.1577 46.4504-30.3653 46.4504-27.4132C46.4504-24.4611 48.8111-22.6687 51.9125-22.6687Z"/>
  </g>
  <g id="Bold-S" transform="matrix(1 0 0 1 2287.26 696)">
   <path d="M35.5957 8.8623C38.3789 8.8623 40.6006 7.66602 44.0186 4.66309L56.8604-6.61621L76.4648-6.61621C88.4766-6.61621 95.6787-13.916 95.6787-25.8301L95.6787-55.8594C95.6787-67.7734 88.4766-75.0732 76.4648-75.0732L28.9795-75.0732C16.9678-75.0732 9.76562-67.7734 9.76562-55.8594L9.76562-25.8301C9.76562-13.916 17.4561-6.61621 28.2471-6.61621L29.1016-6.61621L29.1016 1.66016C29.1016 6.12793 31.543 8.8623 35.5957 8.8623ZM38.1592-2.90527L38.1592-13.4277C38.1592-16.1865 36.8408-17.2119 34.375-17.2119L29.6143-17.2119C23.3398-17.2119 20.3613-20.2637 20.3613-26.4648L20.3613-55.2246C20.3613-61.4014 23.3398-64.4531 29.6143-64.4531L75.8301-64.4531C82.1045-64.4531 85.083-61.4014 85.083-55.2246L85.083-26.4648C85.083-20.2637 82.1045-17.2119 75.8301-17.2119L56.0303-17.2119C53.2471-17.2119 52.002-16.6748 50-14.6729ZM51.7822-33.96C54.248-33.96 55.957-35.2295 56.2256-36.9141C56.25-37.0117 56.2744-37.1826 56.2744-37.2559C56.5674-38.8672 58.0811-40.0391 60.1074-41.333C63.8428-43.7012 65.9424-45.7764 65.9424-49.9023C65.9424-56.2256 60.1318-60.1074 53.0029-60.1074C46.6553-60.1074 42.1143-57.4951 40.6738-53.9795C40.3564-53.2715 40.21-52.5635 40.21-51.8066C40.21-49.707 41.8457-48.1445 43.9209-48.1445C45.4834-48.1445 46.6553-48.7305 47.5586-49.8779L48.0225-50.4639C49.3408-52.0752 50.6104-52.6367 52.1729-52.6367C54.3457-52.6367 55.9082-51.2207 55.9082-49.3896C55.9082-47.3633 54.3701-46.4111 51.4648-44.4092C48.9258-42.6514 47.0459-40.8691 47.0459-37.9639C47.0459-37.915 47.0459-37.8418 47.0459-37.793C47.0459-35.2539 48.7305-33.96 51.7822-33.96ZM51.7578-21.9727C54.6143-21.9727 56.8359-23.7793 56.8359-26.5625C56.8359-29.3213 54.6387-31.1523 51.7578-31.1523C48.877-31.1523 46.6309-29.3213 46.6309-26.5625C46.6309-23.8037 48.9014-21.9727 51.7578-21.9727Z"/>
  </g>
  <g id="Semibold-S" transform="matrix(1 0 0 1 1990.69 696)">
   <path d="M35.1158 8.32021C37.668 8.32021 39.6142 7.15059 42.7478 4.36982L55.6784-7.06943L76.5004-7.06943C88.5121-7.06943 95.3854-14.076 95.3854-25.9545L95.3854-55.3973C95.3854-67.2758 88.5121-74.2823 76.5004-74.2823L28.6507-74.2823C16.639-74.2823 9.76562-67.2758 9.76562-55.3973L9.76562-25.9545C9.76562-14.076 16.9495-7.06943 28.1849-7.06943L29.2437-7.06943L29.2437 1.73125C29.2437 5.79912 31.4186 8.32021 35.1158 8.32021ZM37.4038-2.07881L37.4038-12.7701C37.4038-15.3956 36.2454-16.3677 33.8062-16.3677L29.0544-16.3677C22.2023-16.3677 19.0639-19.6771 19.0639-26.3582L19.0639-54.9936C19.0639-61.6413 22.2023-64.9508 29.0544-64.9508L76.0967-64.9508C82.9487-64.9508 86.0872-61.6413 86.0872-54.9936L86.0872-26.3582C86.0872-19.6771 82.9487-16.3677 76.0967-16.3677L55.0083-16.3677C52.3851-16.3677 51.1488-15.9017 49.3068-14.0241ZM51.7022-33.3823C54.0703-33.3823 55.6371-34.6874 55.8079-36.3809C55.8234-36.4607 55.839-36.6228 55.839-36.6871C56.0253-38.4762 57.4501-39.7014 59.6809-41.1286C63.3718-43.5057 65.7735-45.6431 65.7735-50.009C65.7735-56.5011 59.8919-60.2141 52.9407-60.2141C46.4509-60.2141 41.9454-57.4507 40.6027-53.9706C40.312-53.2893 40.1655-52.5901 40.1655-51.86C40.1655-49.8314 41.7746-48.4467 43.6099-48.4467C45.1368-48.4467 46.2021-49.0682 47.0787-50.1712L47.6759-50.8993C49.1187-52.6528 50.5481-53.3121 52.3062-53.3121C54.8611-53.3121 56.6191-51.7361 56.6191-49.5763C56.6191-47.3455 55.0366-46.3134 51.998-44.2048C49.4234-42.4292 47.4103-40.5492 47.4103-37.2796C47.4103-37.2308 47.4103-37.1309 47.4103-37.082C47.4103-34.6141 48.926-33.3823 51.7022-33.3823ZM51.6512-21.4928C54.321-21.4928 56.4982-23.3172 56.4982-25.976C56.4982-28.6192 54.3543-30.4592 51.6512-30.4592C48.9303-30.4592 46.7553-28.6015 46.7553-25.976C46.7553-23.3505 48.9636-21.4928 51.6512-21.4928Z"/>
  </g>
  <g id="Medium-S" transform="matrix(1 0 0 1 1694.09 696)">
   <path d="M34.752 7.90918C37.1289 7.90918 38.8662 6.75977 41.7842 4.14746L54.7822-7.41309L76.5273-7.41309C88.5391-7.41309 95.1631-14.1973 95.1631-26.0488L95.1631-55.0469C95.1631-66.8984 88.5391-73.6826 76.5273-73.6826L28.4014-73.6826C16.3896-73.6826 9.76562-66.8984 9.76562-55.0469L9.76562-26.0488C9.76562-14.1973 16.5654-7.41309 28.1377-7.41309L29.3516-7.41309L29.3516 1.78516C29.3516 5.5498 31.3242 7.90918 34.752 7.90918ZM36.8311-1.45215L36.8311-12.2715C36.8311-14.7959 35.7939-15.7275 33.375-15.7275L28.6299-15.7275C21.3398-15.7275 18.0801-19.2324 18.0801-26.2773L18.0801-54.8184C18.0801-61.8232 21.3398-65.3281 28.6299-65.3281L76.2988-65.3281C83.5889-65.3281 86.8486-61.8232 86.8486-54.8184L86.8486-26.2773C86.8486-19.2324 83.5889-15.7275 76.2988-15.7275L54.2334-15.7275C51.7314-15.7275 50.502-15.3154 48.7812-13.5322ZM51.6416-32.9443C53.9355-32.9443 55.3945-34.2764 55.4912-35.9766C55.5-36.043 55.5088-36.1982 55.5088-36.2559C55.6143-38.1797 56.9717-39.4453 59.3574-40.9736C63.0146-43.3574 65.6455-45.542 65.6455-50.0898C65.6455-56.71 59.71-60.2949 52.8936-60.2949C46.2959-60.2949 41.8174-57.417 40.5488-53.9639C40.2783-53.3027 40.1318-52.6104 40.1318-51.9004C40.1318-49.9258 41.7207-48.6758 43.374-48.6758C44.874-48.6758 45.8584-49.3242 46.7148-50.3936L47.4131-51.2295C48.9502-53.0908 50.501-53.8242 52.4072-53.8242C55.252-53.8242 57.1582-52.127 57.1582-49.7178C57.1582-47.332 55.542-46.2393 52.4023-44.0498C49.8008-42.2607 47.6865-40.3066 47.6865-36.7607C47.6865-36.7119 47.6865-36.5918 47.6865-36.543C47.6865-34.1289 49.0742-32.9443 51.6416-32.9443ZM51.5703-21.1289C54.0986-21.1289 56.2422-22.9668 56.2422-25.5312C56.2422-28.0869 54.1387-29.9336 51.5703-29.9336C48.9707-29.9336 46.8496-28.0557 46.8496-25.5312C46.8496-23.0068 49.0107-21.1289 51.5703-21.1289Z"/>
  </g>
  <g id="Regular-S" transform="matrix(1 0 0 1 1397.53 696)">
   <path d="M34.2773 7.37305C36.4258 7.37305 37.8906 6.25 40.5273 3.85742L53.6133-7.86133L76.5625-7.86133C88.5742-7.86133 94.873-14.3555 94.873-26.1719L94.873-54.5898C94.873-66.4062 88.5742-72.9004 76.5625-72.9004L28.0762-72.9004C16.0645-72.9004 9.76562-66.4062 9.76562-54.5898L9.76562-26.1719C9.76562-14.3555 16.0645-7.86133 28.0762-7.86133L29.4922-7.86133L29.4922 1.85547C29.4922 5.22461 31.2012 7.37305 34.2773 7.37305ZM36.084-0.634766L36.084-11.6211C36.084-14.0137 35.2051-14.8926 32.8125-14.8926L28.0762-14.8926C20.2148-14.8926 16.7969-18.6523 16.7969-26.1719L16.7969-54.5898C16.7969-62.0605 20.2148-65.8203 28.0762-65.8203L76.5625-65.8203C84.4238-65.8203 87.8418-62.0605 87.8418-54.5898L87.8418-26.1719C87.8418-18.6523 84.4238-14.8926 76.5625-14.8926L53.2227-14.8926C50.8789-14.8926 49.6582-14.5508 48.0957-12.8906ZM51.5625-32.373C53.7598-32.373 55.0781-33.7402 55.0781-35.4492C55.0781-35.498 55.0781-35.6445 55.0781-35.6934C55.0781-37.793 56.3477-39.1113 58.9355-40.7715C62.5488-43.1641 65.4785-45.4102 65.4785-50.1953C65.4785-56.9824 59.4727-60.4004 52.832-60.4004C46.0938-60.4004 41.6504-57.373 40.4785-53.9551C40.2344-53.3203 40.0879-52.6367 40.0879-51.9531C40.0879-50.0488 41.6504-48.9746 43.0664-48.9746C44.5312-48.9746 45.4102-49.6582 46.2402-50.6836L47.0703-51.6602C48.7305-53.6621 50.4395-54.4922 52.5391-54.4922C55.7617-54.4922 57.8613-52.6367 57.8613-49.9023C57.8613-47.3145 56.2012-46.1426 52.9297-43.8477C50.293-42.041 48.0469-39.9902 48.0469-36.084C48.0469-36.0352 48.0469-35.8887 48.0469-35.8398C48.0469-33.4961 49.2676-32.373 51.5625-32.373ZM51.4648-20.6543C53.8086-20.6543 55.9082-22.5098 55.9082-24.9512C55.9082-27.3926 53.8574-29.248 51.4648-29.248C49.0234-29.248 46.9727-27.3438 46.9727-24.9512C46.9727-22.5586 49.0723-20.6543 51.4648-20.6543Z"/>
  </g>
  <g id="Light-S" transform="matrix(1 0 0 1 1101.53 696)">
   <path d="M32.4912 6.28321C34.1704 6.28321 35.3325 5.40235 37.3032 3.63037L50.6616-8.13379L76.5625-8.13379C87.4238-8.13379 93.4351-14.3101 93.4351-25.0064L93.4351-55.0742C93.4351-65.7705 87.4238-71.9468 76.5625-71.9468L26.6382-71.9468C15.7769-71.9468 9.76562-65.8008 9.76562-55.0742L9.76562-25.0064C9.76562-14.2798 15.7769-8.13379 26.6382-8.13379L28.7656-8.13379L28.7656 1.9917C28.7656 4.61915 30.1265 6.28321 32.4912 6.28321ZM33.8589 0.137201L33.8589-11.0156C33.8589-12.8633 33.1616-13.5606 31.314-13.5606L26.6685-13.5606C19.0039-13.5606 15.1924-17.6231 15.1924-25.0366L15.1924-55.0439C15.1924-62.439 19.0039-66.4863 26.6685-66.4863L76.5322-66.4863C84.1362-66.4863 88.0083-62.439 88.0083-55.0439L88.0083-25.0366C88.0083-17.6231 84.1362-13.5606 76.5322-13.5606L50.5283-13.5606C48.6236-13.5606 47.6299-13.2642 46.2793-11.8916ZM50.8814-32.1763C52.564-32.1763 53.5947-33.2407 53.5947-34.6167C53.5947-34.8018 53.5947-35.0391 53.5947-35.2241C53.5947-37.46 54.7886-38.8237 57.543-40.6353C61.2925-43.1489 63.7529-45.395 63.7529-49.7412C63.7529-55.8018 58.3525-59.2197 51.9844-59.2197C45.5337-59.2197 41.3325-56.0259 40.3877-52.4111C40.2041-51.8369 40.103-51.2593 40.103-50.6211C40.103-49.1104 41.2871-48.2481 42.4458-48.2481C43.6382-48.2481 44.3809-48.8257 44.9385-49.7149L45.5112-50.5098C46.6416-52.9356 48.8501-54.583 51.752-54.583C55.4893-54.583 57.8765-52.5005 57.8765-49.4937C57.8765-46.8906 56.3374-45.5371 52.8994-43.1362C50.0659-41.1782 48.1528-39.1577 48.1528-35.5391C48.1528-35.3389 48.1528-35.0864 48.1528-34.8862C48.1528-33.0723 49.1313-32.1763 50.8814-32.1763ZM50.7988-21.0176C52.8399-21.0176 54.6065-22.646 54.6065-24.7241C54.6065-26.8023 52.8735-28.4307 50.7988-28.4307C48.7056-28.4307 46.9575-26.7686 46.9575-24.7241C46.9575-22.6797 48.7393-21.0176 50.7988-21.0176Z"/>
  </g>
  <g id="Thin-S" transform="matrix(1 0 0 1 805.773 696)">
   <path d="M30.1289 4.84182C31.1875 4.84182 31.9493 4.28127 33.0391 3.33008L46.7579-8.49414L76.5625-8.49414C85.9024-8.49414 91.5332-14.25 91.5332-23.4649L91.5332-55.7148C91.5332-64.9297 85.9024-70.6856 76.5625-70.6856L24.7364-70.6856C15.3965-70.6856 9.76562-65 9.76562-55.7148L9.76562-23.4649C9.76562-14.1797 15.3965-8.49414 24.7364-8.49414L27.8047-8.49414L27.8047 2.17187C27.8047 3.81837 28.7051 4.84182 30.1289 4.84182ZM30.9161 1.15819L30.9161-10.2149C30.9161-11.3418 30.459-11.7989 29.3321-11.7989L24.8067-11.7989C17.4024-11.7989 13.0703-16.2617 13.0703-23.5352L13.0703-55.6445C13.0703-62.9394 17.4024-67.3672 24.8067-67.3672L76.4922-67.3672C83.7559-67.3672 88.2285-62.9394 88.2285-55.6445L88.2285-23.5352C88.2285-16.2617 83.7559-11.7989 76.4922-11.7989L46.9649-11.7989C45.6407-11.7989 44.9473-11.5625 43.877-10.5703ZM49.9805-31.916C50.9824-31.916 51.6328-32.5801 51.6328-33.5156C51.6328-33.8809 51.6328-34.2383 51.6328-34.6035C51.6328-37.0195 52.7266-38.4434 55.7012-40.4551C59.6309-43.1289 61.4707-45.375 61.4707-49.1406C61.4707-54.2403 56.8711-57.6582 50.8633-57.6582C44.793-57.6582 40.9121-54.2442 40.2676-50.3692C40.1641-49.875 40.123-49.4375 40.123-48.8594C40.123-47.8692 40.8066-47.2871 41.625-47.2871C42.457-47.2871 43.0196-47.7246 43.2168-48.4336L43.4492-48.9883C43.8789-51.9746 46.7481-54.7031 50.711-54.7031C55.1289-54.7031 57.8965-52.3203 57.8965-48.9531C57.8965-46.3301 56.5176-44.7363 52.8594-42.1953C49.7656-40.0371 48.293-38.0567 48.293-34.8184C48.293-34.418 48.293-34.0254 48.293-33.625C48.293-32.5117 48.9512-31.916 49.9805-31.916ZM49.918-21.498C51.5586-21.498 52.8848-22.8262 52.8848-24.4238C52.8848-26.0215 51.5723-27.3496 49.918-27.3496C48.2852-27.3496 46.9375-26.0078 46.9375-24.4238C46.9375-22.8398 48.2988-21.498 49.918-21.498Z"/>
  </g>
  <g id="Ultralight-S" transform="matrix(1 0 0 1 509.549 696)">
   <path d="M28.919 4.10354C29.6597 4.10354 30.2164 3.70705 30.8551 3.17627L44.7584-8.6787L76.5625-8.6787C85.1231-8.6787 90.5591-14.2192 90.5591-22.6753L90.5591-56.043C90.5591-64.499 85.1231-70.0396 76.5625-70.0396L23.7622-70.0396C15.2017-70.0396 9.76562-64.5899 9.76562-56.043L9.76562-22.6753C9.76562-14.1284 15.2017-8.6787 23.7622-8.6787L27.3125-8.6787L27.3125 2.26416C27.3125 3.40822 27.9771 4.10354 28.919 4.10354ZM29.4087 1.68113L29.4087-9.8047C29.4087-10.5625 29.0748-10.8965 28.3169-10.8965L23.8531-10.8965C16.5821-10.8965 11.9834-15.5645 11.9834-22.7661L11.9834-55.9521C11.9834-63.1958 16.5821-67.8183 23.8531-67.8183L76.4717-67.8183C83.561-67.8183 88.3413-63.1958 88.3413-55.9521L88.3413-22.7661C88.3413-15.5645 83.561-10.8965 76.4717-10.8965L45.1397-10.8965C44.1128-10.8965 43.5733-10.6909 42.6465-9.89358ZM49.5191-31.7827C50.1724-31.7827 50.628-32.2417 50.628-32.9517C50.628-33.4092 50.628-33.8281 50.628-34.2857C50.628-36.794 51.6704-38.2485 54.7578-40.3628C58.7798-43.1187 60.3018-45.3647 60.3018-48.833C60.3018-53.4405 56.1123-56.8584 50.2891-56.8584C44.4136-56.8584 40.6968-53.3316 40.2061-49.3233C40.1436-48.8702 40.1333-48.5044 40.1333-47.9571C40.1333-47.2334 40.5606-46.7949 41.2046-46.7949C41.8521-46.7949 42.3223-47.1607 42.335-47.7774L42.3931-48.209C42.4639-51.4824 45.6714-54.7646 50.1778-54.7646C54.9443-54.7646 57.9067-52.228 57.9067-48.6763C57.9067-46.043 56.6099-44.3262 52.8389-41.7134C49.6118-39.4527 48.3647-37.4927 48.3647-34.4492C48.3647-33.9463 48.3647-33.482 48.3647-32.979C48.3647-32.2246 48.8589-31.7827 49.5191-31.7827ZM49.4668-21.7441C50.9024-21.7441 52.003-22.9185 52.003-24.27C52.003-25.6216 50.9058-26.7959 49.4668-26.7959C48.0698-26.7959 46.9272-25.6182 46.9272-24.27C46.9272-22.9219 48.0733-21.7441 49.4668-21.7441Z"/>
  </g>
 </g>
</svg>
