<?xml version="1.0" encoding="utf-8"?>
<!-- Generator: Adobe Illustrator 24.1.1, SVG Export Plug-In . SVG Version: 6.00 Build 0)  -->
<svg version="1.1" id="Layer_1" xmlns="http://www.w3.org/2000/svg" xmlns:xlink="http://www.w3.org/1999/xlink" x="0px" y="0px"
	 viewBox="0 0 3300 2200" style="enable-background:new 0 0 3300 2200;" xml:space="preserve">
<style type="text/css">
	.st0{fill:#FFFFFF;}
	.st1{fill:none;stroke:#000000;stroke-width:0.5;}
	.st2{font-family:'Arial-BoldMT';}
	.st3{font-size:13px;}
	.st4{font-family:'ArialMT';}
	.st5{fill:none;stroke:#00AEEF;stroke-width:0.5;}
	.st6{fill:#27AAE1;}
	.st7{fill:none;stroke:#27AAE1;stroke-width:0.5;}
</style>
<g id="Notes">
	<rect id="artboard" class="st0" width="3300" height="2200"/>
	<line class="st1" x1="263" y1="292" x2="3036" y2="292"/>
	<text transform="matrix(1 0 0 1 263 322)" class="st2 st3">Weight/Scale Variations</text>
	<text transform="matrix(1 0 0 1 534.0632 322)" class="st4 st3">Ultralight</text>
	<text transform="matrix(1 0 0 1 843.7775 322)" class="st4 st3">Thin</text>
	<text transform="matrix(1 0 0 1 1139.035 322)" class="st4 st3">Light</text>
	<text transform="matrix(1 0 0 1 1427.0773 322)" class="st4 st3">Regular</text>
	<text transform="matrix(1 0 0 1 1723.4419 322)" class="st4 st3">Medium</text>
	<text transform="matrix(1 0 0 1 2016.1719 322)" class="st4 st3">Semibold</text>
	<text transform="matrix(1 0 0 1 2326.9705 322)" class="st4 st3">Bold</text>
	<text transform="matrix(1 0 0 1 2618.2659 322)" class="st4 st3">Heavy</text>
	<text transform="matrix(1 0 0 1 2917.5054 322)" class="st4 st3">Black</text>
	<line class="st1" x1="263" y1="1903" x2="3036" y2="1903"/>
	<g transform="matrix(1 0 0 1 263 1933)">
		<path d="M9.2,0.8c4.3,0,7.9-3.6,7.9-7.9S13.5-15,9.2-15s-7.9,3.6-7.9,7.9C1.4-2.7,5,0.8,9.2,0.8z M9.2-0.7C5.7-0.7,2.9-3.5,2.9-7
			c0-3.6,2.8-6.4,6.4-6.4s6.4,2.8,6.4,6.4C15.6-3.5,12.8-0.7,9.2-0.7z M5.7-7.1c0,0.4,0.3,0.7,0.8,0.7h2.1v2.1
			c0,0.4,0.3,0.7,0.7,0.7S10-3.9,10-4.3v-2.1h2.1c0.4,0,0.7-0.3,0.7-0.7c0-0.4-0.3-0.7-0.7-0.7H10v-2.1c0-0.4-0.3-0.8-0.7-0.8
			s-0.7,0.3-0.7,0.8v2.1H6.4C6-7.8,5.7-7.5,5.7-7.1z"/>
	</g>
	<g transform="matrix(1 0 0 1 281.867 1933)">
		<path d="M11.7,2.9c5.4,0,10-4.5,10-10c0-5.4-4.5-10-10-10c-5.4,0-10,4.5-10,10C1.7-1.6,6.3,2.9,11.7,2.9z M11.7,1.3
			C7.1,1.3,3.4-2.4,3.4-7s3.7-8.3,8.3-8.3S20-11.7,20-7.1C20-2.4,16.3,1.3,11.7,1.3z M7.2-7.1c0,0.5,0.3,0.8,0.8,0.8h2.9v2.9
			c0,0.5,0.3,0.8,0.8,0.8s0.8-0.3,0.8-0.8v-2.9h2.9c0.5,0,0.8-0.3,0.8-0.8s-0.3-0.8-0.8-0.8h-2.9v-2.9c0-0.5-0.3-0.8-0.8-0.8
			s-0.8,0.3-0.8,0.8v2.9H8C7.5-7.9,7.2-7.5,7.2-7.1z"/>
	</g>
	<g transform="matrix(1 0 0 1 305.646 1933)">
		<path d="M15,5.7c7,0,12.7-5.8,12.7-12.7c0-7-5.8-12.7-12.7-12.7C8-19.8,2.3-14,2.3-7.1C2.3-0.1,8,5.7,15,5.7z M15,3.8
			C8.9,3.8,4.1-1,4.1-7S8.9-17.9,15-17.9c6,0,10.9,4.9,10.9,10.9S21,3.8,15,3.8z M9.2-7.1c0,0.5,0.4,0.9,0.9,0.9H14v4
			c0,0.5,0.4,0.9,0.9,0.9s0.9-0.4,0.9-0.9v-4h4c0.5,0,0.9-0.4,0.9-0.9S20.3-8,19.8-8h-4v-3.9c0-0.5-0.4-0.9-0.9-0.9S14-12.4,14-11.9
			V-8h-3.9C9.6-8,9.2-7.6,9.2-7.1z"/>
	</g>
	<text transform="matrix(1 0 0 1 263 1953)" class="st2 st3">Design Variations</text>
	<text transform="matrix(1 0 0 1 263 1971)" class="st4 st3">Symbols are supported in up to nine weights and three scales.</text>
	<text transform="matrix(1 0 0 1 263 1989)" class="st4 st3">For optimal layout with text and other symbols, vertically align</text>
	<text transform="matrix(1 0 0 1 263 2007)" class="st4 st3">symbols with the adjacent text.</text>
	<line class="st5" x1="776" y1="1919" x2="776" y2="1933"/>
	<g transform="matrix(1 0 0 1 776 1933)">
		<path d="M3.3,0.2c0.5,0,0.8-0.2,1-0.7L5.5-4h5.8l1.3,3.4C12.7,0,13,0.2,13.5,0.2s0.9-0.3,0.9-0.8c0-0.2,0-0.3-0.1-0.5L9.7-13.4
			C9.4-14,9-14.3,8.4-14.3s-1,0.3-1.2,0.9L2.6-1.2C2.5-1,2.5-0.8,2.5-0.6C2.5-0.1,2.8,0.2,3.3,0.2z M6-5.5l2.4-6.6l0,0l2.4,6.6
			C10.8-5.5,6-5.5,6-5.5z"/>
	</g>
	<line class="st5" x1="793.2" y1="1919" x2="793.2" y2="1933"/>
	<text transform="matrix(1 0 0 1 776 1953)" class="st2 st3">Margins</text>
	<text transform="matrix(1 0 0 1 776 1971)" class="st4 st3">Leading and trailing margins on the left and right side of each symbol</text>
	<text transform="matrix(1 0 0 1 776 1989)" class="st4 st3">can be adjusted by modifying the x-location of the margin guidelines.</text>
	<text transform="matrix(1 0 0 1 776 2007)" class="st4 st3">Modifications are automatically applied proportionally to all</text>
	<text transform="matrix(1 0 0 1 776 2025)" class="st4 st3">scales and weights.</text>
	<g transform="matrix(1 0 0 1 1289 1933)">
		<path d="M2.8,1.9l1.7,1.7c0.9,0.9,1.8,0.8,2.8-0.2L18-8.4l-1-1L6.4,2.3C6,2.7,5.7,2.8,5.2,2.3L4.1,1.1C3.6,0.7,3.7,0.3,4.1,0
			l11.5-10.8l-1-1L3-0.9C2.1,0,2,1,2.8,1.9z M9.3-16.3c-0.4,0.4-0.4,1-0.2,1.4s0.7,0.6,1.3,0.4c1.5-0.3,3-0.4,4.4,0.5l-0.6,1.5
			c-0.3,0.8-0.2,1.4,0.4,2l2.3,2.3c0.5,0.5,0.9,0.5,1.5,0.4l1-0.2l0.7,0.7v0.6c0,0.5,0.1,0.9,0.6,1.4l0.8,0.7c0.5,0.5,1.1,0.5,1.6,0
			L26-7.5C26.5-8,26.4-8.6,26-9l-1-0.9c-0.5-0.5-0.9-0.6-1.3-0.6h-0.6l-0.6-0.6l0.2-1.1c0.1-0.6,0-1-0.6-1.6L19.9-16
			C16.6-19.3,12.1-19.2,9.3-16.3z M10.8-16c2.4-1.8,5.7-1.5,7.9,0.8l2.4,2.4c0.2,0.2,0.3,0.4,0.2,0.8L21-10.5L22.5-9l1-0.1
			c0.3,0,0.3,0,0.5,0.2l0.6,0.6l-2.4,2.4l-0.6-0.6c-0.2-0.2-0.2-0.3-0.2-0.5l0.1-1L20-9.5l-1.5,0.3c-0.3,0.1-0.5,0-0.7-0.2l-2-2
			c-0.3-0.2-0.3-0.4-0.1-0.8l0.9-2.1C15-15.8,13-16.4,11-15.8C10.7-15.7,10.6-15.9,10.8-16z"/>
	</g>
	<text transform="matrix(1 0 0 1 1289 1953)" class="st2 st3">Exporting</text>
	<text transform="matrix(1 0 0 1 1289 1971)" class="st4 st3">Symbols should be outlined when exporting to ensure the</text>
	<text transform="matrix(1 0 0 1 1289 1989)" class="st4 st3">design is preserved when submitting to Xcode.</text>
	<text id="template-version" transform="matrix(1 0 0 1 2952.4204 1933)" class="st4 st3">Template v.4.0</text>
	<text transform="matrix(1 0 0 1 2865.4575 1951)" class="st4 st3">Requires Xcode 14 or greater</text>
	<text id="descriptive-name" transform="matrix(1 0 0 1 2888.5825 1969)" class="st4 st3">Generated from fp.pcloud</text>
	<text transform="matrix(1 0 0 1 2912.4175 1987)" class="st4 st3">Typeset at 100 points</text>
	<text transform="matrix(1 0 0 1 263 726)" class="st4 st3">Small</text>
	<text transform="matrix(1 0 0 1 263 1156)" class="st4 st3">Medium</text>
	<text transform="matrix(1 0 0 1 263 1586)" class="st4 st3">Large</text>
</g>
<g id="Guides">
	<g id="H-reference" transform="matrix(1 0 0 1 339 696)">
		<path class="st6" d="M1,0h2.6l25.7-67.1H30v-3.3h-1.9L1,0z M11.7-24.5H47l-0.8-2.2H12.4L11.7-24.5z M55.1,0h2.6L30.6-70.5h-1.2
			v3.3L55.1,0z"/>
	</g>
	<line id="Baseline-S" class="st7" x1="263" y1="696" x2="3036" y2="696"/>
	<line id="Capline-S" class="st7" x1="263" y1="625.5" x2="3036" y2="625.5"/>
	<g id="H-reference_1_" transform="matrix(1 0 0 1 339 1126)">
		<path class="st6" d="M1,0h2.6l25.7-67.1H30v-3.3h-1.9L1,0z M11.7-24.5H47l-0.8-2.2H12.4L11.7-24.5z M55.1,0h2.6L30.6-70.5h-1.2
			v3.3L55.1,0z"/>
	</g>
	<line id="Baseline-M" class="st7" x1="263" y1="1126" x2="3036" y2="1126"/>
	<line id="Capline-M" class="st7" x1="263" y1="1055.5" x2="3036" y2="1055.5"/>
	<g id="H-reference_2_" transform="matrix(1 0 0 1 339 1556)">
		<path class="st6" d="M1,0h2.6l25.7-67.1H30v-3.3h-1.9L1,0z M11.7-24.5H47l-0.8-2.2H12.4L11.7-24.5z M55.1,0h2.6L30.6-70.5h-1.2
			v3.3L55.1,0z"/>
	</g>
	<line id="Baseline-L" class="st7" x1="263" y1="1556" x2="3036" y2="1556"/>
	<line id="Capline-L" class="st7" x1="263" y1="1485.5" x2="3036" y2="1485.5"/>
	<line id="left-margin-Regular-M" class="st5" x1="1391.3" y1="1030.8" x2="1391.3" y2="1150.1"/>
	<line id="right-margin-Regular-M" class="st5" x1="1508.4" y1="1030.8" x2="1508.4" y2="1150.1"/>
</g>
<g id="Symbols">
	<g id="Black-L" transform="matrix(1 0 0 1 2854.19 1556)">
		<path d="M145.9,6.8c5.3-5.3,8.3-12.5,8.3-20.2c0-3.9-3.2-7.1-7.1-7.1c-3.9,0-7.1,3.2-7.1,7.1c0,3.9-1.4,7.5-4.1,10.1
			c-2.6,2.6-6.3,4.1-10.3,4.1h-14.7H44.4c-3.9,0-7.1,3.2-7.1,7.1s3.2,7.1,7.1,7.1h64.9h16.3C133.4,15,140.6,12.1,145.9,6.8z
			 M85.7,7.9c0-3.9-3.2-7.1-7.1-7.1H44.3c-14.3,0-26-11.5-26-25.7c0-1.2,0.2-2.9,0.4-4.6c0.9-4.7,3.2-9,6.8-12.5
			c0.2-0.2,1.4-1.3,1.8-1.7c2.8-2.8,2.8-7.3,0-10c-2.8-2.8-7.2-2.8-10,0c-0.2,0.2-1.4,1.3-1.7,1.6C10-46.6,6.2-39.6,4.8-31.9
			c-0.3,1.8-0.7,4.5-0.7,7c0,22,18,39.9,40.2,39.9h34.3C82.5,15,85.7,11.8,85.7,7.9z M140.6-21c1-1,2.3-2.3,3.4-4.3
			c2.3-3.7,3.5-7.9,3.5-12.6c0-5.7-1.8-11-5.1-15.3c-2.4-3.1-6.9-3.6-10-1.2c-3.1,2.4-3.6,6.9-1.2,10c1.4,1.8,2.1,4.1,2.1,6.6
			c0,2-0.5,3.8-1.4,5.2c-0.1,0.2-0.2,0.4-0.3,0.6c-0.1,0.2-0.6,0.6-0.9,1c-2.8,2.8-2.8,7.2,0,10c1.4,1.4,3.2,2.1,5,2.1
			C137.4-18.9,139.2-19.6,140.6-21z M44.5-37c0-5.7,1.3-11,3.9-15.9c6.2-11.4,18-18.5,30.9-18.5c13.2,0,25.1,7.2,31.1,18.9
			c2.5,5,3.7,10,3.7,15.3c0,3.9,3.2,7.1,7.1,7.1s7.1-3.2,7.1-7.1c0-7.5-1.8-14.8-5.3-21.7c-8.4-16.4-25.1-26.7-43.7-26.7
			c-18.1,0-34.7,9.9-43.4,26c-3.7,7-5.6,14.6-5.6,22.6c0,3.9,3.2,7.1,7.1,7.1S44.5-33,44.5-37z M110.9-36.1
			c0-17.3-14.1-31.3-31.5-31.3S48-53.4,48-36.1C48-18.9,62.1-4.8,79.4-4.8S110.9-18.9,110.9-36.1z M101.2-36.1
			c0,11.9-9.7,21.5-21.7,21.5c-12,0-21.7-9.7-21.7-21.5s9.7-21.5,21.7-21.5C91.4-57.7,101.2-48,101.2-36.1z M75.2-24.2v-25.4
			c0-2.7-2.2-4.9-4.9-4.9s-4.9,2.2-4.9,4.9v25.4c0,2.7,2.2,4.9,4.9,4.9S75.2-21.5,75.2-24.2z M97.5-41.5c0-6.6-5.6-13-12.9-13H70.3
			c-2.7,0-4.9,2.2-4.9,4.9v15.8c0,2.7,2.2,4.9,4.9,4.9h14.3C91.6-28.9,97.5-35.2,97.5-41.5z M75.2-44.7h9.4c1.8,0,3.1,1.2,3.1,3
			c-0.1,1.8-1.4,3.1-3.1,3.1h-9.4V-44.7z"/>
	</g>
	<g id="Heavy-L" transform="matrix(1 0 0 1 2558.42 1556)">
		<path d="M143.5,5.8c5.1-5.1,8-12,8-19.5c0-0.9,0-2.2-0.3-3.5c-0.9-3.5-4.4-5.6-7.8-4.7c-3.4,0.8-5.4,4.2-4.7,7.6
			c0,0.2,0,0.4,0,0.6c0,4-1.5,7.7-4.2,10.3c-2.7,2.7-6.4,4.1-10.5,4.1H44c-3.6,0-6.5,2.9-6.5,6.5s2.9,6.5,6.5,6.5h79.9
			C131.4,13.7,138.3,10.9,143.5,5.8z M84.2,7.3c0-3.6-2.9-6.5-6.4-6.5H44C29.7,0.8,18-10.8,18-25c0-1.2,0.2-2.9,0.4-4.6
			c0.9-4.7,3.2-9.1,6.9-12.6c0.8-0.8,1.3-1.3,1.7-1.6c3-1.9,4-5.9,2.1-8.9c-1.9-3-5.9-4-8.9-2.1c-1.7,1.1-3,2.3-4,3.3
			c-5.5,5.3-9.2,12.1-10.6,19.6c-0.3,1.7-0.6,4.3-0.6,6.8C5.1-3.7,22.6,13.7,44,13.7h33.7C81.3,13.7,84.2,10.8,84.2,7.3z
			 M138.4-21.6c1-1,2.3-2.2,3.3-4.1c2.2-3.6,3.3-7.7,3.3-12.1c0-6.9-3.1-13.5-8.4-18.2c-2.7-2.4-6.7-2.1-9.1,0.6
			c-2.4,2.7-2.1,6.7,0.6,9.1c2.6,2.3,4,5.4,4,8.6c0,2.1-0.5,3.9-1.5,5.4c-0.1,0.2-0.2,0.4-0.3,0.6c-0.1,0.2-0.6,0.7-1,1.1
			c-2.5,2.5-2.5,6.6,0,9.1c1.3,1.3,2.9,1.9,4.6,1.9C135.5-19.7,137.1-20.3,138.4-21.6z M43.6-36.9c0-5.7,1.3-11.1,3.9-16
			c6.2-11.4,18-18.5,30.8-18.5c13.2,0,25.1,7.2,31,18.9c2.5,5,3.7,10,3.7,15.3c0,3.6,2.9,6.5,6.5,6.5s6.4-2.9,6.4-6.5
			c0-7.3-1.7-14.4-5.1-21.1c-8.1-16-24.4-26-42.5-26c-17.6,0-33.7,9.7-42.2,25.3c-3.6,6.8-5.4,14.2-5.4,22c0,3.6,2.9,6.5,6.5,6.5
			S43.6-33.4,43.6-36.9z M78.6-5.7C61.7-5.7,48-19.3,48-36.1s13.7-30.5,30.6-30.5s30.6,13.7,30.6,30.5S95.5-5.7,78.6-5.7z
			 M78.6-57.7c-12,0-21.7,9.7-21.7,21.5s9.7,21.5,21.7,21.5c12,0,21.7-9.7,21.7-21.5S90.6-57.7,78.6-57.7z M69.7-19.9
			c-2.5,0-4.5-2-4.5-4.5v-25c0-2.5,2-4.5,4.5-4.5s4.5,2,4.5,4.5v25C74.1-21.9,72.1-19.9,69.7-19.9z M83.7-29.3h-14
			c-2.5,0-4.5-2-4.5-4.5v-15.6c0-2.5,2-4.5,4.5-4.5h14c6.9,0,12.3,5.7,12.3,12.3C96-35.4,90.2-29.3,83.7-29.3z M74.1-38.3h9.6
			c1.7,0,3.2-1.5,3.4-3.5c-0.1-1.8-1.5-3.2-3.4-3.2h-9.6V-38.3z"/>
	</g>
	<g id="Bold-L" transform="matrix(1 0 0 1 2262.89 1556)">
		<path d="M140.9,4.8c4.9-4.9,7.7-11.6,7.7-18.8c0-0.9,0-2.1-0.2-3.4c-0.5-3.2-3.5-5.3-6.7-4.8c-3.2,0.5-5.3,3.5-4.8,6.7
			c0.1,0.3,0.1,0.9,0.1,1.5c0,4.1-1.5,7.9-4.2,10.6c-2.7,2.7-6.5,4.2-10.7,4.2H43.5c-3.2,0-5.8,2.6-5.8,5.8s2.6,5.8,5.8,5.8H122
			C129.3,12.4,135.9,9.7,140.9,4.8z M82.4,6.6c0-3.2-2.6-5.8-5.8-5.8H43.4c-14.4,0-26.1-11.7-26.1-26c0-1.2,0.2-2.9,0.4-4.6
			c0.9-4.8,3.2-9.2,6.9-12.7c0.9-0.9,1.9-1.7,3.4-2.8c2.6-1.9,3.2-5.5,1.3-8.1c-1.9-2.6-5.5-3.2-8.1-1.3c-2,1.4-3.4,2.6-4.7,3.9
			c-5.4,5.2-8.9,11.7-10.2,19c-0.3,1.7-0.6,4.2-0.6,6.6c0,20.7,16.9,37.6,37.7,37.6h33.2C79.8,12.4,82.4,9.8,82.4,6.6z M135.7-22.2
			c0.9-0.9,2.2-2.2,3.1-3.9c2.1-3.4,3.2-7.4,3.2-11.6c0-7.3-3.3-14.1-9-18.5c-2.5-2-6.2-1.5-8.1,1.1c-2,2.5-1.5,6.2,1.1,8.1
			c2.9,2.2,4.5,5.6,4.5,9.3c0,2.1-0.5,4-1.5,5.7c-0.1,0.2-0.2,0.3-0.3,0.5c-0.1,0.2-0.6,0.8-1.1,1.2c-2.3,2.3-2.3,5.9,0,8.2
			c1.1,1.1,2.6,1.7,4.1,1.7C133.1-20.5,134.6-21,135.7-22.2z M42.6-36.9c0-5.7,1.3-11.1,3.9-16c6.2-11.4,17.9-18.5,30.8-18.5
			c13.2,0,25,7.3,30.9,18.9c2.5,5,3.7,10,3.7,15.3c0,3.2,2.6,5.8,5.8,5.8c3.2,0,5.8-2.6,5.8-5.8c0-7.1-1.7-14-5-20.6
			C110.6-73.3,94.8-83,77.2-83c-17.1,0-32.8,9.4-41,24.7C32.7-51.7,31-44.5,31-36.9c0,3.2,2.6,5.8,5.8,5.8S42.6-33.7,42.6-36.9z
			 M107.1-36.1c0-16.4-13.4-29.7-29.8-29.7S47.6-52.5,47.6-36.1S61-6.4,77.4-6.4S107.1-19.8,107.1-36.1z M99-36.1
			c0,11.9-9.7,21.6-21.7,21.6s-21.7-9.7-21.7-21.6s9.7-21.6,21.7-21.6S99-48,99-36.1z M72.6-24.5v-24.7c0-2.2-1.8-4.1-4.1-4.1
			c-2.2,0-4.1,1.8-4.1,4.1v24.7c0,2.2,1.8,4.1,4.1,4.1C70.8-20.5,72.6-22.3,72.6-24.5z M94.1-41.5c0-6.6-5.2-11.7-11.8-11.7H68.6
			c-2.2,0-4.1,1.8-4.1,4.1v15.4c0,2.2,1.8,4.1,4.1,4.1h13.8C88.8-29.8,93.9-34.9,94.1-41.5z M72.6-45.1h9.8c2.1,0,3.7,1.6,3.7,3.5
			c-0.1,2.1-1.6,3.8-3.7,3.8h-9.8V-45.1z"/>
	</g>
	<g id="Semibold-L" transform="matrix(1 0 0 1 1966.99 1556)">
		<path d="M138.4,3.8c4.8-4.7,7.4-11.2,7.4-18.1c0-1.9-0.3-3.8-0.8-5.9c-0.8-2.7-3.6-4.4-6.3-3.6c-2.7,0.8-4.4,3.6-3.6,6.3
			c0.3,1.2,0.5,2.2,0.5,3.2c0,4.2-1.5,8-4.3,10.8c-2.8,2.8-6.7,4.3-10.9,4.3H43.1C40.3,0.8,38,3.1,38,6s2.3,5.2,5.2,5.2h77.2
			C127.2,11.1,133.7,8.5,138.4,3.8z M80.9,6c0-2.8-2.3-5.2-5.2-5.2H43.1c-14.5,0-26.2-11.7-26.2-26.2c0-1.3,0.2-3,0.4-4.7
			c0.9-4.8,3.3-9.2,6.9-12.8c1.5-1.5,3.1-2.8,4.7-3.7c2.5-1.4,3.4-4.5,2-7c-1.4-2.5-4.5-3.4-7-2c-2.4,1.4-4.8,3.2-6.9,5.3
			c-5.2,5-8.6,11.4-9.9,18.4c-0.3,1.6-0.6,4.1-0.6,6.4C6.6-5.2,23,11.1,43.1,11.1h32.6C78.6,11.1,80.9,8.8,80.9,6z M133.5-22.8
			c0.9-0.9,2.1-2.1,3-3.7c2-3.3,3.1-7.1,3.1-11.2c0-7.9-4.3-15.4-11.2-19.4c-2.5-1.4-5.6-0.6-7.1,1.8c-1.4,2.5-0.6,5.6,1.8,7.1
			c3.8,2.2,6.1,6.2,6.1,10.6c0,2.2-0.5,4.2-1.6,5.9c-0.1,0.1-0.2,0.3-0.3,0.4c-0.2,0.3-0.7,0.8-1.2,1.3c-2,2-2,5.3,0,7.3
			c1,1,2.3,1.5,3.7,1.5C131.2-21.2,132.5-21.8,133.5-22.8z M41.6-36.9c0-5.7,1.3-11.1,3.9-16c6.1-11.4,17.9-18.5,30.7-18.5
			c13.2,0,25,7.3,30.9,18.9c2.5,5,3.7,10,3.7,15.3c0,2.8,2.3,5.2,5.2,5.2c2.8,0,5.2-2.3,5.2-5.2c0-6.9-1.6-13.6-4.8-20
			c-7.7-15.2-23.1-24.6-40.1-24.6c-16.6,0-31.8,9.2-39.8,24c-3.4,6.5-5.1,13.5-5.1,20.8c0,2.8,2.3,5.2,5.2,5.2S41.6-34,41.6-36.9z
			 M105.4-36.1c0-15.9-13-28.9-28.9-28.9c-16,0-28.9,13-28.9,28.9s13,28.9,28.9,28.9C92.5-7.2,105.4-20.2,105.4-36.1z M98.1-36.1
			c0,11.9-9.7,21.6-21.6,21.6c-11.9,0-21.6-9.7-21.6-21.6c0-11.9,9.7-21.6,21.6-21.6C88.4-57.7,98.1-48,98.1-36.1z M71.5-24.7V-49
			c0-2-1.6-3.7-3.7-3.7c-2,0-3.7,1.6-3.7,3.7v24.3c0,2,1.6,3.7,3.7,3.7C69.9-21,71.5-22.7,71.5-24.7z M92.7-41.2
			c0-6.1-4.9-11.4-11.2-11.4H67.9c-2,0-3.7,1.6-3.7,3.7v15.1c0,2,1.6,3.7,3.7,3.7h13.6C87.3-30.2,92.7-36.1,92.7-41.2z M71.5-45.3
			h9.9c2.2,0,3.9,1.6,3.9,3.8c-0.2,2.3-1.9,4-3.9,4h-9.9V-45.3z"/>
	</g>
	<g id="Medium-L" transform="matrix(1 0 0 1 1670.9 1556)">
		<path d="M136.4,2.8c4.6-4.6,7.1-10.8,7.1-17.4c0-3.2-0.7-6.2-2.1-9.2c-1.1-2.3-3.8-3.2-6-2.2c-2.3,1.1-3.2,3.8-2.2,6
			c0.9,1.8,1.3,3.6,1.3,5.4c0,4.3-1.6,8.2-4.4,11c-2.9,2.9-6.8,4.4-11.1,4.4H43.2c-2.5,0-4.5,2-4.5,4.5s2,4.5,4.5,4.5H119
			C125.7,9.9,131.9,7.3,136.4,2.8z M79.7,5.3c0-2.5-2-4.5-4.5-4.5h-32C28.6,0.8,16.8-11,16.8-25.5c0-1.7,0.3-3.7,0.5-4.7
			c0.9-4.9,3.3-9.3,7-12.9c1.8-1.8,4-3.4,6.7-4.8c2.2-1.2,3-3.9,1.8-6.1c-1.2-2.2-3.9-3-6.1-1.8c-3.5,1.9-6.3,4-8.7,6.3
			c-5,4.9-8.3,11-9.6,17.8c-0.3,1.6-0.6,4-0.6,6.2C7.8-6,23.6,9.9,43.2,9.9h32C77.7,9.9,79.7,7.8,79.7,5.3z M131.5-23.4
			c0.9-0.9,2-2,2.8-3.6c2-3.2,2.9-6.8,2.9-10.7c0-8.3-4.9-15.9-12.4-19.5c-2.2-1.1-4.9-0.1-6,2.1c-1.1,2.3-0.1,4.9,2.1,6
			c4.4,2.1,7.2,6.5,7.2,11.3c0,2.3-0.6,4.3-1.7,6.1c-0.1,0.1-0.2,0.3-0.2,0.4c-0.2,0.4-0.7,0.9-1.2,1.4c-1.8,1.8-1.8,4.6,0,6.4
			c0.9,0.9,2,1.3,3.2,1.3C129.4-22,130.6-22.5,131.5-23.4z M41.1-36.9c0-5.7,1.3-11.1,3.9-16c6.1-11.4,17.9-18.5,30.7-18.5
			c13.1,0,25,7.3,30.9,18.9c2.5,5,3.7,10,3.7,15.4c0,2.5,2,4.5,4.5,4.5c2.5,0,4.5-2,4.5-4.5c0-6.7-1.6-13.2-4.7-19.4
			c-7.5-14.7-22.4-23.9-38.9-23.9c-16.1,0-30.9,8.9-38.7,23.3c-3.3,6.3-5,13.1-5,20.3c0,2.5,2,4.5,4.5,4.5S41.1-34.4,41.1-36.9z
			 M104.1-36.1c0-15.5-12.6-28.1-28.1-28.1c-15.5,0-28.1,12.6-28.1,28.1S60.5-8,76-8C91.5-8,104.1-20.6,104.1-36.1z M97.6-36.1
			c0,11.9-9.7,21.6-21.6,21.6c-11.9,0-21.6-9.7-21.6-21.6S64.1-57.6,76-57.6C87.9-57.6,97.6-48,97.6-36.1z M70.6-24.8v-23.9
			c0-1.8-1.5-3.3-3.3-3.3s-3.3,1.5-3.3,3.3v23.9c0,1.8,1.5,3.3,3.3,3.3S70.6-23,70.6-24.8z M91.4-41.3c0-6-4.7-10.7-10.7-10.7H67.3
			c-1.8,0-3.3,1.5-3.3,3.3v14.9c0,1.8,1.5,3.3,3.3,3.3h13.3C86.5-30.6,91.2-35.3,91.4-41.3z M70.6-45.5h10.1c2.4,0,4.2,1.8,4.2,4.1
			c-0.1,2.4-1.9,4.3-4.2,4.3H70.6V-45.5z"/>
	</g>
	<g id="Regular-L" transform="matrix(1 0 0 1 1374.99 1556)">
		<path d="M134.2,1.8C138.6-2.6,141-8.6,141-15c0-3.1-0.7-6.2-2.2-9.1c-0.9-1.9-3.3-2.7-5.2-1.8c-1.9,0.9-2.7,3.3-1.8,5.2
			c0.9,1.9,1.4,3.7,1.4,5.7c0,4.4-1.6,8.4-4.5,11.3c-2.9,2.9-6.9,4.5-11.3,4.5H42.9c-2.1,0-3.9,1.7-3.9,3.9s1.7,3.9,3.9,3.9h74.6
			C123.9,8.6,129.8,6.1,134.2,1.8z M78.3,4.7c0-2.1-1.7-3.9-3.9-3.9H42.9c-14.6,0-26.5-11.9-26.5-26.5c0-1.7,0.3-3.7,0.5-4.7
			c0.9-4.9,3.3-9.4,7-13c2.2-2.2,4.8-4,8.1-5.6c1.9-0.9,2.7-3.2,1.8-5.2c-0.9-1.9-3.2-2.7-5.2-1.8c-4.1,2-7.4,4.3-10.1,7
			c-4.8,4.7-8,10.6-9.2,17.2c-0.3,1.6-0.6,3.9-0.6,6C8.7-6.8,24,8.6,42.9,8.6h31.5C76.5,8.6,78.3,6.8,78.3,4.7z M129.4-24.1
			c0.9-0.9,1.9-1.9,2.7-3.4c1.9-3,2.8-6.5,2.8-10.3c0-8.9-5.6-16.7-14-19.5c-2-0.7-4.2,0.4-4.9,2.4c-0.7,2,0.4,4.2,2.4,4.9
			c5.2,1.7,8.7,6.6,8.7,12.1c0,2.4-0.6,4.5-1.7,6.3c-0.1,0.1-0.1,0.2-0.2,0.3c-0.2,0.5-0.7,1-1.3,1.6c-1.5,1.5-1.5,4,0,5.5
			c0.8,0.8,1.7,1.1,2.7,1.1C127.7-22.9,128.7-23.3,129.4-24.1z M40.3-36.8c0-5.7,1.3-11.1,3.9-16c6.1-11.4,17.9-18.5,30.7-18.5
			c13.1,0,25,7.3,30.9,18.9c2.5,5,3.7,10,3.7,15.4c0,2.1,1.7,3.9,3.9,3.9s3.9-1.7,3.9-3.9c0-6.5-1.5-12.8-4.5-18.8
			C105.4-70.3,91-79.2,74.9-79.2c-15.6,0-30,8.7-37.5,22.6c-3.2,6.1-4.8,12.7-4.8,19.7c0,2.1,1.7,3.9,3.9,3.9S40.3-34.7,40.3-36.8z
			 M102.5-36.1c0-15.1-12.3-27.3-27.3-27.3S47.8-51.1,47.8-36.1C47.8-21,60.1-8.7,75.2-8.7S102.5-21,102.5-36.1z M96.7-36.1
			c0,11.9-9.7,21.5-21.5,21.5s-21.5-9.7-21.5-21.5c0-11.9,9.7-21.5,21.5-21.5S96.7-47.9,96.7-36.1z M69.7-25v-23.5
			c0-1.6-1.3-2.9-2.9-2.9c-1.6,0-2.9,1.3-2.9,2.9V-25c0,1.6,1.3,2.9,2.9,2.9C68.4-22.1,69.7-23.4,69.7-25z M90.1-41
			c0-5.4-4.5-10.4-10.2-10.4H66.8c-1.6,0-2.9,1.3-2.9,2.9v14.7c0,1.6,1.3,2.9,2.9,2.9h13.1C85.3-31,90.1-36.1,90.1-41z M69.7-45.7
			h10.2c2.5,0,4.4,1.9,4.4,4.3c-0.2,2.5-2.1,4.5-4.4,4.5H69.7V-45.7z"/>
	</g>
	<g id="Light-L" transform="matrix(1 0 0 1 1079.2 1556)">
		<path d="M132,0.8c4.2-4.2,6.5-9.9,6.5-16.1c0-3.6-1-7.1-3-10.4c-0.9-1.5-2.9-2-4.4-1.1c-1.5,0.9-2,2.9-1.1,4.4
			c1.4,2.3,2.1,4.6,2.1,7.1c0,4.4-1.6,8.5-4.6,11.5c-3,3-7.1,4.6-11.5,4.6H42.6c-1.8,0-3.2,1.4-3.2,3.2s1.4,3.2,3.2,3.2h73.3
			C122.1,7.3,127.8,5,132,0.8z M76.7,4c0-1.8-1.4-3.2-3.2-3.2h-31c-14.7,0-26.6-11.9-26.6-26.6c0-1.8,0.3-3.7,0.5-4.7
			c0.9-5,3.3-9.5,7.1-13.1c2.2-2.2,4.8-4,8.1-5.6c1.6-0.8,2.3-2.7,1.5-4.3c-0.8-1.6-2.7-2.3-4.3-1.5c-3.9,1.9-7.2,4.1-9.8,6.8
			C14.2-43.7,11.2-38,10-31.7c-0.2,1.2-0.5,3.6-0.5,5.8C9.5-7.6,24.3,7.3,42.5,7.3h31C75.3,7.3,76.7,5.8,76.7,4z M127.2-24.7
			c0.8-0.8,1.8-1.8,2.5-3.2c1.8-2.9,2.7-6.2,2.7-9.8c0-9.3-6.6-17.4-15.6-19.2c-1.7-0.4-3.4,0.8-3.8,2.5c-0.4,1.7,0.8,3.4,2.5,3.8
			c6,1.2,10.4,6.7,10.4,12.9c0,2.4-0.6,4.6-1.8,6.5c-0.1,0.1-0.1,0.2-0.2,0.3c-0.3,0.5-0.8,1.1-1.4,1.7c-1.3,1.3-1.3,3.3,0,4.6
			c0.6,0.6,1.5,0.9,2.3,0.9C125.7-23.7,126.6-24,127.2-24.7z M39.4-36.8c0-5.7,1.3-11.1,3.9-16.1C49.5-64.3,61.2-71.4,74-71.4
			c13.1,0,25,7.3,30.9,19c2.5,5,3.7,10,3.7,15.4c0,1.8,1.4,3.2,3.2,3.2c1.8,0,3.2-1.4,3.2-3.2c0-6.3-1.5-12.4-4.4-18.3
			c-7-13.9-21-22.5-36.6-22.5c-15.2,0-29.1,8.4-36.3,22C34.5-50,33-43.6,33-36.8c0,1.8,1.4,3.2,3.2,3.2S39.4-35,39.4-36.8z
			 M100.8-36.1c0-14.6-11.9-26.6-26.5-26.6c-14.6,0-26.5,11.9-26.5,26.6S59.6-9.5,74.2-9.5C88.9-9.5,100.8-21.4,100.8-36.1z
			 M95.7-36.1c0,11.9-9.6,21.5-21.5,21.5s-21.5-9.6-21.5-21.5c0-11.9,9.6-21.5,21.5-21.5S95.7-47.9,95.7-36.1z M68.6-25.2v-23.2
			c0-1.4-1.1-2.5-2.5-2.5c-1.4,0-2.5,1.1-2.5,2.5v23.2c0,1.4,1.1,2.5,2.5,2.5C67.4-22.7,68.6-23.8,68.6-25.2z M88.7-41.1
			c0-5.5-4.3-9.7-9.7-9.7H66c-1.4,0-2.5,1.1-2.5,2.5v14.4c0,1.4,1.1,2.5,2.5,2.5h12.9C84.1-31.4,88.5-35.7,88.7-41.1z M68.6-45.8
			h10.4c2.7,0,4.7,2,4.7,4.6c-0.1,2.6-2.2,4.8-4.7,4.8H68.6V-45.8z"/>
	</g>
	<g id="Thin-L" transform="matrix(1 0 0 1 783.716 1556)">
		<path d="M129.3-0.3c4-4,6.2-9.5,6.2-15.4c0-3.4-1-6.8-2.9-9.9c-0.7-1.2-2.3-1.6-3.5-0.9c-1.2,0.7-1.6,2.3-0.9,3.5
			c1.4,2.3,2.1,4.8,2.1,7.3c0,4.5-1.7,8.7-4.7,11.7c-3,3-7.2,4.7-11.7,4.7H41.8c-1.4,0-2.6,1.2-2.6,2.6S40.4,6,41.8,6h72.1
			C119.8,6,125.3,3.8,129.3-0.3z M74.9,3.4c0-1.4-1.2-2.6-2.6-2.6H41.8c-14.7,0-26.7-12-26.7-26.8c0-1.8,0.3-3.8,0.5-4.8
			c0.9-5,3.4-9.5,7.1-13.2c2.2-2.2,4.8-4,8.1-5.6c1.3-0.6,1.8-2.2,1.2-3.4c-0.6-1.3-2.2-1.8-3.4-1.2c-3.8,1.8-6.9,4-9.5,6.6
			c-4.5,4.4-7.5,9.9-8.6,16c-0.2,1.2-0.5,3.5-0.5,5.7C9.9-8.4,24.2,6,41.8,6h30.4C73.7,6,74.9,4.8,74.9,3.4z M124.5-25.3
			c0.8-0.8,1.7-1.7,2.4-3c1.7-2.7,2.6-5.9,2.6-9.4c0-8.9-6.3-16.6-14.9-18.3c-1.4-0.3-2.8,0.6-3,2c-0.3,1.4,0.6,2.8,2,3
			c6.2,1.3,10.7,6.8,10.7,13.3c0,2.5-0.6,4.8-1.8,6.7c0,0.1-0.1,0.1-0.1,0.2c-0.3,0.6-0.9,1.2-1.5,1.8c-1,1-1,2.6,0,3.6
			c0.5,0.5,1.2,0.8,1.8,0.8C123.4-24.5,124-24.8,124.5-25.3z M38.2-36.8c0-5.7,1.3-11.1,3.9-16.1C48.3-64.3,60-71.4,72.8-71.4
			c13.1,0,25,7.3,30.9,19c2.5,5,3.7,10,3.7,15.4c0,1.4,1.2,2.6,2.6,2.6c1.4,0,2.6-1.2,2.6-2.6c0-6.1-1.4-12.1-4.3-17.7
			c-6.8-13.5-20.4-21.8-35.5-21.8c-14.7,0-28.2,8.2-35.2,21.3c-3,5.7-4.5,12-4.5,18.5c0,1.4,1.2,2.6,2.6,2.6
			C37-34.2,38.2-35.4,38.2-36.8z M98.8-36c0-14.2-11.6-25.8-25.8-25.8S47.2-50.3,47.2-36S58.8-10.2,73-10.2S98.8-21.8,98.8-36z
			 M94.5-36c0,11.8-9.6,21.5-21.4,21.5S51.6-24.2,51.6-36S61.2-57.5,73-57.5S94.5-47.9,94.5-36z M67-25.3v-22.8c0-1.2-1-2.2-2.2-2.2
			c-1.2,0-2.2,1-2.2,2.2v22.8c0,1.2,1,2.2,2.2,2.2C66-23.2,67-24.1,67-25.3z M86.8-41c0-5.2-4.1-9.3-9.3-9.3H64.8
			c-1.2,0-2.2,1-2.2,2.2v14.2c0,1.2,1,2.2,2.2,2.2h12.7C82.5-31.8,86.6-35.8,86.8-41z M67-45.9h10.5c2.8,0,4.9,2.2,4.9,4.8
			c-0.1,2.8-2.2,5-4.9,5H67V-45.9z"/>
	</g>
	<g id="Ultralight-L" transform="matrix(1 0 0 1 487.631 1556)">
		<path d="M126.2-1.3c3.8-3.8,5.9-9.1,5.9-14.7c0-3.3-0.9-6.4-2.7-9.4c-0.5-0.9-1.7-1.2-2.7-0.7c-0.9,0.5-1.2,1.7-0.7,2.7
			c1.4,2.4,2.2,4.9,2.2,7.4c0,4.6-1.7,8.9-4.8,12c-3.1,3.1-7.3,4.8-11.9,4.8H40.7c-1.1,0-1.9,0.9-1.9,1.9s0.9,1.9,1.9,1.9h70.9
			C117.2,4.7,122.4,2.6,126.2-1.3z M72.6,2.8c0-1.1-0.9-1.9-1.9-1.9H40.7c-14.8,0-26.9-12.1-26.9-26.9c0-1.8,0.3-3.8,0.5-4.8
			c0.9-5,3.4-9.6,7.2-13.3c2.2-2.2,4.9-4,8.1-5.6c1-0.5,1.4-1.6,0.9-2.6c-0.5-1-1.6-1.4-2.6-0.9c-3.7,1.8-6.7,3.9-9.2,6.4
			c-4.3,4.2-7.2,9.5-8.3,15.4c-0.2,1.2-0.5,3.4-0.5,5.5c0,17,13.8,30.8,30.8,30.8h29.9C71.7,4.7,72.6,3.8,72.6,2.8z M121.6-25.9
			c0.8-0.8,1.6-1.6,2.3-2.9c1.6-2.6,2.4-5.6,2.4-8.9c0-8.4-5.9-15.8-14.1-17.4c-1-0.2-2.1,0.5-2.3,1.5c-0.2,1,0.5,2.1,1.5,2.3
			c6.4,1.3,11,7,11,13.6c0,2.6-0.6,4.9-1.9,6.9c0,0.1-0.1,0.1-0.1,0.2c-0.3,0.7-0.9,1.3-1.6,1.9c-0.8,0.8-0.8,2,0,2.7
			c0.4,0.4,0.9,0.6,1.4,0.6C120.7-25.3,121.2-25.5,121.6-25.9z M36.5-36.8c0-5.7,1.3-11.1,3.9-16.1c6.1-11.4,17.9-18.6,30.7-18.6
			c13.1,0,25,7.3,30.9,19c2.5,5,3.7,10,3.7,15.4c0,1.1,0.9,1.9,1.9,1.9s1.9-0.9,1.9-1.9c0-5.9-1.4-11.7-4.1-17.1
			c-6.6-13-19.7-21.1-34.3-21.1c-14.2,0-27.3,7.9-34.1,20.6c-2.9,5.5-4.4,11.6-4.4,17.9c0,1.1,0.9,1.9,1.9,1.9
			C35.7-34.8,36.5-35.7,36.5-36.8z M96.4-36c0-13.8-11.2-25.1-25-25.1s-25,11.3-25,25.1S57.5-11,71.4-11S96.4-22.2,96.4-36z
			 M92.7-36c0,11.8-9.6,21.4-21.4,21.4S50-24.2,50-36s9.6-21.4,21.4-21.4S92.7-47.8,92.7-36z M65.1-25.5v-22.4c0-1-0.8-1.8-1.8-1.8
			s-1.8,0.8-1.8,1.8v22.4c0,1,0.8,1.8,1.8,1.8S65.1-24.5,65.1-25.5z M84.7-40.9c0-4.9-3.9-8.8-8.8-8.8H63.4c-1,0-1.8,0.8-1.8,1.8
			V-34c0,1,0.8,1.8,1.8,1.8h12.5C80.5-32.1,84.4-35.9,84.7-40.9z M65.2-46.1h10.6c2.9,0,5.1,2.3,5.1,5c-0.2,2.9-2.4,5.3-5.1,5.3
			H65.2V-46.1z"/>
	</g>
	<g id="Black-M" transform="matrix(1 0 0 1 2871.36 1126)">
		<path d="M113.8-2.6c4.1-4.1,6.4-9.7,6.4-15.6c0-3-2.5-5.5-5.5-5.5s-5.5,2.5-5.5,5.5c0,3-1.1,5.8-3.2,7.8c-2,2-4.9,3.1-8,3.1H86.6
			H35.1c-3,0-5.5,2.5-5.5,5.5s2.5,5.5,5.5,5.5h50.3h12.7C104.1,3.7,109.6,1.5,113.8-2.6z M67.1-1.8c0-3-2.5-5.5-5.5-5.5H35
			c-11.1,0-20.1-8.9-20.1-19.9c0-0.9,0.1-2.3,0.3-3.5c0.7-3.6,2.5-7,5.3-9.7c0.1-0.1,1.1-1,1.4-1.3c2.2-2.1,2.2-5.6,0-7.8
			s-5.6-2.2-7.8,0c-0.1,0.1-1.1,1-1.4,1.2C8.4-44,5.4-38.7,4.3-32.7c-0.2,1.4-0.5,3.5-0.5,5.4c0,17.1,14,30.9,31.1,30.9h26.6
			C64.6,3.7,67.1,1.2,67.1-1.8z M109.6-24.2c0.8-0.8,1.8-1.8,2.6-3.3c1.8-2.9,2.7-6.2,2.7-9.7c0-4.4-1.4-8.5-4-11.9
			c-1.9-2.4-5.3-2.8-7.7-1c-2.4,1.9-2.8,5.3-1,7.7c1.1,1.4,1.7,3.1,1.7,5.1c0,1.5-0.4,2.9-1.1,4c-0.1,0.2-0.2,0.3-0.3,0.4
			c-0.1,0.1-0.5,0.5-0.7,0.8c-2.2,2.1-2.2,5.6,0,7.8c1.1,1.1,2.5,1.6,3.9,1.6C107.2-22.6,108.6-23.1,109.6-24.2z M35.1-36.6
			c0-4.4,1-8.6,3-12.4c4.8-8.9,14-14.4,23.9-14.4c10.3,0,19.5,5.6,24.1,14.6c1.9,3.9,2.9,7.7,2.9,11.9c0,3,2.5,5.5,5.5,5.5
			s5.5-2.5,5.5-5.5c0-5.8-1.4-11.5-4.1-16.8c-6.5-12.7-19.5-20.7-33.9-20.7c-14,0-26.9,7.7-33.6,20.2c-2.9,5.4-4.3,11.3-4.3,17.5
			c0,3,2.5,5.5,5.5,5.5S35.1-33.6,35.1-36.6z M86.6-35.9c0-13.4-11-24.3-24.4-24.3S37.8-49.3,37.8-35.9c0,13.4,11,24.3,24.4,24.3
			S86.6-22.6,86.6-35.9z M79.1-35.9c0,9.2-7.6,16.7-16.8,16.7c-9.3,0-16.8-7.5-16.8-16.7s7.6-16.7,16.8-16.7
			C71.5-52.6,79.1-45.1,79.1-35.9z M58.9-26.7v-19.7c0-2.1-1.7-3.8-3.8-3.8s-3.8,1.7-3.8,3.8v19.7c0,2.1,1.7,3.8,3.8,3.8
			S58.9-24.6,58.9-26.7z M76.2-40.1c0-5.1-4.4-10-10-10H55.2c-2.1,0-3.8,1.7-3.8,3.8v12.3c0,2.1,1.7,3.8,3.8,3.8h11.1
			C71.7-30.3,76.2-35.2,76.2-40.1z M58.9-42.6h7.3c1.4,0,2.4,1,2.4,2.3c-0.1,1.4-1.1,2.4-2.4,2.4h-7.3V-42.6z"/>
	</g>
	<g id="Heavy-M" transform="matrix(1 0 0 1 2575.48 1126)">
		<path d="M111.7-3.4c4-4,6.2-9.3,6.2-15.1c0-0.7,0-1.7-0.3-2.7c-0.7-2.7-3.4-4.3-6.1-3.6c-2.6,0.7-4.2,3.3-3.7,5.9
			c0,0.2,0,0.3,0,0.5c0,3.1-1.1,6-3.2,8c-2.1,2.1-5,3.2-8.1,3.2H34.7c-2.8,0-5,2.2-5,5s2.2,5,5,5h61.9
			C102.4,2.7,107.8,0.5,111.7-3.4z M65.8-2.3c0-2.8-2.2-5-5-5H34.7c-11.1,0-20.2-9-20.2-20c0-0.9,0.1-2.3,0.3-3.6
			c0.7-3.7,2.5-7,5.3-9.8c0.6-0.6,1-1,1.4-1.2c2.3-1.5,3.1-4.5,1.6-6.9c-1.5-2.3-4.5-3.1-6.9-1.6c-1.3,0.8-2.3,1.8-3.1,2.6
			C8.9-43.7,6-38.4,5-32.6c-0.2,1.4-0.5,3.4-0.5,5.3c0,16.6,13.5,30,30.2,30h26.2C63.6,2.7,65.8,0.5,65.8-2.3z M107.8-24.6
			c0.7-0.7,1.7-1.7,2.5-3.2c1.7-2.8,2.6-5.9,2.6-9.4c0-5.3-2.4-10.5-6.5-14.1c-2.1-1.8-5.2-1.6-7.1,0.4c-1.8,2.1-1.6,5.2,0.4,7.1
			c2,1.7,3.1,4.2,3.1,6.7c0,1.6-0.4,3-1.1,4.2c-0.1,0.1-0.2,0.3-0.2,0.4c-0.1,0.2-0.5,0.5-0.8,0.8c-2,1.9-2,5.1,0,7.1
			c1,1,2.3,1.5,3.5,1.5C105.5-23.2,106.8-23.7,107.8-24.6z M34.3-36.6c0-4.4,1-8.6,3-12.4c4.8-8.9,13.9-14.4,23.9-14.4
			c10.2,0,19.4,5.6,24,14.6c1.9,3.9,2.9,7.7,2.9,11.9c0,2.8,2.2,5,5,5s5-2.2,5-5c0-5.6-1.3-11.1-4-16.4c-6.3-12.4-18.9-20.1-33-20.1
			c-13.6,0-26.2,7.5-32.7,19.6c-2.8,5.3-4.2,11-4.2,17.1c0,2.8,2.2,5,5,5S34.3-33.8,34.3-36.6z M61.5-12.3
			c-13.1,0-23.7-10.6-23.7-23.6s10.6-23.6,23.7-23.6S85.2-49,85.2-35.9S74.6-12.3,61.5-12.3z M61.5-52.6c-9.3,0-16.8,7.5-16.8,16.7
			s7.5,16.7,16.8,16.7c9.3,0,16.8-7.5,16.8-16.7S70.7-52.6,61.5-52.6z M54.5-23.4c-1.9,0-3.5-1.5-3.5-3.5v-19.4
			c0-1.9,1.5-3.5,3.5-3.5s3.5,1.5,3.5,3.5v19.4C58-24.9,56.4-23.4,54.5-23.4z M65.4-30.7H54.5c-1.9,0-3.5-1.5-3.5-3.5v-12.1
			c0-1.9,1.5-3.5,3.5-3.5h10.9c5.4,0,9.5,4.4,9.5,9.5C75-35.4,70.4-30.7,65.4-30.7z M58-37.6h7.4c1.3,0,2.5-1.2,2.6-2.7
			c-0.1-1.4-1.2-2.5-2.6-2.5H58V-37.6z"/>
	</g>
	<g id="Bold-M" transform="matrix(1 0 0 1 2279.69 1126)">
		<path d="M109.7-4.2c3.8-3.8,5.9-9,5.9-14.6c0-0.7,0-1.6-0.2-2.6c-0.4-2.5-2.7-4.1-5.2-3.7c-2.5,0.4-4.1,2.7-3.7,5.2
			c0,0.3,0,0.7,0,1.1c0,3.2-1.2,6.1-3.3,8.2c-2.1,2.1-5.1,3.3-8.3,3.3H34.3c-2.5,0-4.5,2-4.5,4.5s2,4.5,4.5,4.5h60.9
			C100.7,1.7,105.9-0.4,109.7-4.2z M64.4-2.8c0-2.5-2-4.5-4.5-4.5H34.2c-11.2,0-20.3-9-20.3-20.2c0-1,0.1-2.3,0.3-3.6
			c0.7-3.7,2.5-7.1,5.4-9.8c0.7-0.7,1.5-1.3,2.6-2.2c2-1.5,2.5-4.3,1-6.3c-1.5-2-4.3-2.5-6.3-1c-1.5,1.1-2.7,2.1-3.6,3
			c-4.2,4-6.9,9.1-7.9,14.7c-0.2,1.3-0.5,3.3-0.5,5.1C4.9-11.4,18,1.7,34.2,1.7h25.7C62.4,1.7,64.4-0.3,64.4-2.8z M105.8-25.1
			c0.7-0.7,1.7-1.7,2.4-3c1.6-2.7,2.5-5.7,2.5-9c0-5.7-2.6-10.9-7-14.3c-2-1.5-4.8-1.2-6.3,0.8c-1.5,2-1.2,4.8,0.8,6.3
			c2.2,1.7,3.5,4.3,3.5,7.2c0,1.7-0.4,3.1-1.2,4.4c-0.1,0.1-0.2,0.3-0.2,0.4c-0.1,0.2-0.5,0.6-0.8,0.9c-1.8,1.8-1.8,4.6,0,6.4
			c0.9,0.9,2,1.3,3.2,1.3C103.7-23.8,104.9-24.2,105.8-25.1z M33.5-36.6c0-4.4,1-8.6,3-12.4c4.8-8.9,13.9-14.4,23.8-14.4
			c10.2,0,19.4,5.6,24,14.7c1.9,3.9,2.9,7.7,2.9,11.9c0,2.5,2,4.5,4.5,4.5s4.5-2,4.5-4.5c0-5.5-1.3-10.8-3.8-15.9
			c-6.1-12.1-18.4-19.6-32-19.6C47.2-72.3,35-65,28.6-53.2c-2.7,5.2-4.1,10.7-4.1,16.6c0,2.5,2,4.5,4.5,4.5S33.5-34.1,33.5-36.6z
			 M83.6-35.9c0-12.7-10.4-23-23.1-23s-23.1,10.3-23.1,23s10.4,23,23.1,23S83.6-23.2,83.6-35.9z M77.3-35.9
			c0,9.2-7.5,16.7-16.8,16.7s-16.8-7.5-16.8-16.7s7.5-16.7,16.8-16.7S77.3-45.1,77.3-35.9z M56.8-26.9v-19.1c0-1.7-1.4-3.1-3.1-3.1
			s-3.1,1.4-3.1,3.1v19.1c0,1.7,1.4,3.1,3.1,3.1S56.8-25.2,56.8-26.9z M73.5-40.1c0-5.1-4-9.1-9.1-9.1H53.7c-1.7,0-3.1,1.4-3.1,3.1
			v11.9c0,1.7,1.4,3.1,3.1,3.1h10.7C69.3-31,73.4-35,73.5-40.1z M56.8-42.9h7.6c1.6,0,2.8,1.2,2.8,2.7c-0.1,1.7-1.3,2.9-2.8,2.9
			h-7.6V-42.9z"/>
	</g>
	<g id="Semibold-M" transform="matrix(1 0 0 1 1983.62 1126)">
		<path d="M107.8-5c3.7-3.7,5.7-8.7,5.7-14c0-1.5-0.2-2.9-0.7-4.6c-0.6-2.1-2.8-3.4-4.9-2.8c-2.1,0.6-3.4,2.8-2.8,4.9
			c0.3,0.9,0.4,1.7,0.4,2.4c0,3.2-1.2,6.2-3.4,8.4C100-8.5,97-7.3,93.7-7.3H33.9c-2.2,0-4,1.8-4,4s1.8,4,4,4h59.8
			C99.1,0.7,104.1-1.3,107.8-5z M63.2-3.3c0-2.2-1.8-4-4-4H33.9c-11.2,0-20.3-9.1-20.3-20.3c0-1,0.1-2.3,0.3-3.6
			c0.7-3.7,2.5-7.2,5.4-9.9c1.2-1.2,2.4-2.2,3.7-2.8c1.9-1.1,2.6-3.5,1.5-5.4c-1.1-1.9-3.5-2.6-5.4-1.5c-1.9,1.1-3.7,2.5-5.4,4.1
			C9.7-42.9,7-38,6-32.6c-0.2,1.3-0.5,3.2-0.5,5C5.6-12,18.3,0.7,33.9,0.7h25.3C61.4,0.7,63.2-1.1,63.2-3.3z M104-25.6
			c0.7-0.7,1.6-1.6,2.3-2.9c1.6-2.6,2.4-5.5,2.4-8.7c0-6.1-3.3-11.9-8.7-15.1c-1.9-1.1-4.4-0.5-5.5,1.4c-1.1,1.9-0.5,4.4,1.4,5.5
			c3,1.7,4.7,4.8,4.7,8.2c0,1.7-0.4,3.3-1.2,4.5c-0.1,0.1-0.1,0.2-0.2,0.3c-0.1,0.2-0.5,0.6-0.9,1c-1.6,1.6-1.6,4.1,0,5.7
			c0.8,0.8,1.8,1.2,2.8,1.2C102.2-24.4,103.2-24.8,104-25.6z M32.8-36.5c0-4.4,1-8.6,3-12.4c4.8-8.9,13.9-14.4,23.8-14.4
			c10.2,0,19.4,5.6,24,14.7c1.9,3.9,2.9,7.8,2.9,11.9c0,2.2,1.8,4,4,4s4-1.8,4-4c0-5.3-1.3-10.5-3.7-15.5
			c-6-11.8-17.9-19.1-31.1-19.1c-12.9,0-24.7,7.1-30.9,18.6c-2.6,5-4,10.4-4,16.2c0,2.2,1.8,4,4,4S32.8-34.3,32.8-36.5z M82.2-35.9
			c0-12.3-10.1-22.4-22.4-22.4c-12.4,0-22.4,10-22.4,22.4s10.1,22.4,22.4,22.4C72.2-13.5,82.2-23.6,82.2-35.9z M76.6-35.9
			c0,9.2-7.5,16.7-16.8,16.7c-9.2,0-16.8-7.5-16.8-16.7c0-9.2,7.5-16.7,16.8-16.7C69.1-52.6,76.6-45.1,76.6-35.9z M55.9-27.1v-18.8
			c0-1.6-1.3-2.8-2.8-2.8s-2.8,1.3-2.8,2.8v18.8c0,1.6,1.3,2.8,2.8,2.8S55.9-25.5,55.9-27.1z M72.3-39.9c0-4.7-3.8-8.9-8.7-8.9H53.1
			c-1.6,0-2.8,1.3-2.8,2.8v11.7c0,1.6,1.3,2.8,2.8,2.8h10.5C68.2-31.3,72.3-35.9,72.3-39.9z M55.9-43.1h7.7c1.7,0,3,1.3,3,2.9
			c-0.2,1.8-1.5,3.1-3,3.1h-7.7V-43.1z"/>
	</g>
	<g id="Medium-M" transform="matrix(1 0 0 1 1687.4 1126)">
		<path d="M106.3-5.8c3.5-3.5,5.5-8.3,5.5-13.5c0-2.5-0.5-4.8-1.7-7.2c-0.8-1.8-2.9-2.5-4.7-1.7c-1.7,0.8-2.5,2.9-1.7,4.7
			c0.7,1.4,1,2.8,1,4.2c0,3.3-1.2,6.4-3.4,8.6c-2.2,2.2-5.3,3.4-8.6,3.4H34c-1.9,0-3.5,1.6-3.5,3.5S32-0.3,34-0.3h58.8
			C97.9-0.3,102.7-2.2,106.3-5.8z M62.3-3.8c0-1.9-1.6-3.5-3.5-3.5H34c-11.3,0-20.4-9.2-20.4-20.4c0-1.3,0.2-2.9,0.3-3.6
			c0.7-3.8,2.5-7.2,5.4-10c1.4-1.4,3.1-2.6,5.2-3.8c1.7-0.9,2.3-3.1,1.4-4.7c-0.9-1.7-3.1-2.3-4.7-1.4c-2.7,1.5-4.9,3.1-6.7,4.9
			c-3.9,3.8-6.4,8.5-7.4,13.8c-0.2,1.2-0.5,3.1-0.5,4.8C6.5-12.6,18.8-0.3,34-0.3h24.8C60.7-0.3,62.3-1.9,62.3-3.8z M102.4-26
			c0.7-0.7,1.5-1.5,2.2-2.8c1.5-2.5,2.3-5.2,2.3-8.3c0-6.4-3.8-12.3-9.6-15.1c-1.7-0.8-3.8-0.1-4.7,1.7c-0.8,1.7-0.1,3.8,1.7,4.7
			c3.4,1.6,5.6,5.1,5.6,8.8c0,1.8-0.4,3.4-1.3,4.7c-0.1,0.1-0.1,0.2-0.2,0.3c-0.2,0.3-0.5,0.7-1,1.1c-1.4,1.4-1.4,3.6,0,4.9
			c0.7,0.7,1.6,1,2.5,1C100.8-25,101.7-25.4,102.4-26z M32.4-36.5c0-4.4,1-8.6,3-12.4c4.8-8.9,13.9-14.4,23.8-14.4
			c10.2,0,19.4,5.6,23.9,14.7c1.9,3.9,2.9,7.8,2.9,11.9c0,1.9,1.6,3.5,3.5,3.5s3.5-1.6,3.5-3.5c0-5.2-1.2-10.2-3.6-15.1
			C83.6-63.2,72-70.3,59.2-70.3c-12.5,0-24,6.9-30,18.1c-2.6,4.9-3.8,10.2-3.8,15.7c0,1.9,1.6,3.5,3.5,3.5S32.4-34.6,32.4-36.5z
			 M81.2-35.9c0-12-9.8-21.8-21.8-21.8c-12,0-21.8,9.8-21.8,21.8s9.8,21.8,21.8,21.8C71.4-14.1,81.2-23.9,81.2-35.9z M76.1-35.9
			c0,9.2-7.5,16.7-16.7,16.7c-9.2,0-16.7-7.5-16.7-16.7s7.5-16.7,16.7-16.7C68.6-52.6,76.1-45.1,76.1-35.9z M55.2-27.2v-18.5
			c0-1.4-1.1-2.5-2.5-2.5s-2.5,1.1-2.5,2.5v18.5c0,1.4,1.1,2.5,2.5,2.5S55.2-25.8,55.2-27.2z M71.4-40c0-4.7-3.7-8.3-8.3-8.3H52.7
			c-1.4,0-2.5,1.1-2.5,2.5v11.5c0,1.4,1.1,2.5,2.5,2.5h10.3C67.6-31.7,71.2-35.3,71.4-40z M55.2-43.2h7.8c1.8,0,3.2,1.4,3.2,3.2
			c-0.1,1.9-1.5,3.3-3.2,3.3h-7.8V-43.2z"/>
	</g>
	<g id="Regular-M" transform="matrix(1 0 0 1 1391.32 1126)">
		<path d="M104.5-6.6c3.4-3.4,5.3-8,5.3-13c0-2.4-0.6-4.8-1.7-7c-0.7-1.5-2.5-2.1-4-1.4c-1.5,0.7-2.1,2.5-1.4,4
			c0.7,1.5,1.1,2.9,1.1,4.4c0,3.4-1.2,6.5-3.5,8.7c-2.3,2.3-5.4,3.5-8.7,3.5H33.7c-1.7,0-3,1.3-3,3s1.3,3,3,3h57.8
			C96.5-1.3,101.1-3.2,104.5-6.6z M61.2-4.3c0-1.7-1.3-3-3-3H33.7c-11.3,0-20.5-9.2-20.5-20.5c0-1.3,0.2-2.9,0.4-3.6
			c0.7-3.8,2.6-7.3,5.4-10.1c1.7-1.7,3.7-3.1,6.3-4.3c1.5-0.7,2.1-2.5,1.4-4c-0.7-1.5-2.5-2.1-4-1.4c-3.2,1.5-5.7,3.3-7.9,5.4
			c-3.8,3.6-6.2,8.2-7.1,13.3c-0.2,1.2-0.4,3-0.4,4.7c0,14.6,11.9,26.5,26.5,26.5h24.4C59.8-1.3,61.2-2.6,61.2-4.3z M100.8-26.6
			c0.7-0.7,1.5-1.5,2.1-2.6c1.4-2.3,2.2-5,2.2-8c0-6.9-4.4-12.9-10.8-15.1c-1.6-0.5-3.3,0.3-3.8,1.9c-0.5,1.6,0.3,3.3,1.9,3.8
			c4,1.3,6.7,5.1,6.7,9.4c0,1.8-0.4,3.5-1.3,4.9c-0.1,0.1-0.1,0.2-0.1,0.3c-0.2,0.4-0.6,0.8-1,1.2c-1.2,1.2-1.2,3.1,0,4.2
			c0.6,0.6,1.4,0.9,2.1,0.9S100.2-26,100.8-26.6z M31.8-36.5c0-4.4,1-8.6,3-12.4c4.8-8.9,13.9-14.4,23.8-14.4
			c10.2,0,19.4,5.6,23.9,14.7c1.9,3.9,2.9,7.8,2.9,11.9c0,1.7,1.3,3,3,3s3-1.3,3-3c0-5-1.2-9.9-3.5-14.6c-5.6-11.1-16.8-18-29.3-18
			c-12.1,0-23.2,6.7-29.1,17.6c-2.5,4.7-3.7,9.9-3.7,15.2c0,1.7,1.3,3,3,3S31.8-34.8,31.8-36.5z M79.9-35.9
			c0-11.7-9.5-21.2-21.2-21.2s-21.2,9.5-21.2,21.2c0,11.7,9.5,21.2,21.2,21.2S79.9-24.2,79.9-35.9z M75.4-35.9
			c0,9.2-7.5,16.7-16.7,16.7s-16.7-7.5-16.7-16.7c0-9.2,7.5-16.7,16.7-16.7S75.4-45.1,75.4-35.9z M54.5-27.3v-18.2
			c0-1.2-1-2.2-2.2-2.2s-2.2,1-2.2,2.2v18.2c0,1.2,1,2.2,2.2,2.2S54.5-26.1,54.5-27.3z M70.4-39.7c0-4.2-3.5-8.1-7.9-8.1H52.3
			c-1.2,0-2.2,1-2.2,2.2v11.4c0,1.2,1,2.2,2.2,2.2h10.2C66.6-32,70.4-35.9,70.4-39.7z M54.5-43.3h7.9c1.9,0,3.4,1.4,3.4,3.4
			c-0.2,2-1.7,3.5-3.4,3.5h-7.9V-43.3z"/>
	</g>
	<g id="Light-M" transform="matrix(1 0 0 1 1095.44 1126)">
		<path d="M102.7-7.3c3.3-3.3,5-7.7,5-12.5c0-2.8-0.8-5.5-2.3-8.1c-0.7-1.2-2.2-1.6-3.4-0.9c-1.2,0.7-1.6,2.2-0.9,3.4
			c1.1,1.8,1.6,3.6,1.6,5.5c0,3.4-1.3,6.6-3.6,8.9c-2.3,2.3-5.5,3.6-8.9,3.6H33.5c-1.4,0-2.5,1.1-2.5,2.5s1.1,2.5,2.5,2.5h56.8
			C95.1-2.3,99.5-4.1,102.7-7.3z M59.9-4.8c0-1.4-1.1-2.5-2.5-2.5h-24c-11.4,0-20.6-9.3-20.6-20.6c0-1.4,0.2-2.9,0.4-3.7
			c0.7-3.8,2.6-7.3,5.5-10.2c1.7-1.7,3.7-3.1,6.3-4.3c1.2-0.6,1.8-2.1,1.2-3.3c-0.6-1.2-2.1-1.8-3.3-1.2c-3.1,1.5-5.6,3.2-7.6,5.3
			c-3.6,3.5-6,8-6.9,12.9c-0.2,1-0.4,2.8-0.4,4.5c0,14.1,11.5,25.6,25.6,25.6h24C58.7-2.3,59.9-3.4,59.9-4.8z M99-27.1
			c0.6-0.6,1.4-1.4,2-2.5c1.4-2.2,2.1-4.8,2.1-7.6c0-7.2-5.1-13.5-12.1-14.9c-1.4-0.3-2.7,0.6-2.9,2c-0.3,1.4,0.6,2.7,2,2.9
			c4.7,1,8.1,5.2,8.1,10c0,1.9-0.5,3.6-1.4,5c0,0.1-0.1,0.1-0.1,0.2c-0.2,0.4-0.6,0.8-1.1,1.3c-1,1-1,2.6,0,3.5
			c0.5,0.5,1.1,0.7,1.8,0.7C97.9-26.3,98.5-26.6,99-27.1z M31-36.5c0-4.4,1-8.6,3-12.5c4.8-8.9,13.9-14.4,23.8-14.4
			c10.2,0,19.3,5.6,23.9,14.7c1.9,3.9,2.9,7.8,2.9,11.9c0,1.4,1.1,2.5,2.5,2.5s2.5-1.1,2.5-2.5c0-4.9-1.1-9.6-3.4-14.2
			c-5.4-10.8-16.3-17.5-28.4-17.5c-11.7,0-22.5,6.5-28.2,17c-2.4,4.6-3.6,9.6-3.6,14.8c0,1.4,1.1,2.5,2.5,2.5S31-35.1,31-36.5z
			 M78.5-35.9c0-11.4-9.2-20.6-20.6-20.6c-11.3,0-20.6,9.2-20.6,20.6s9.2,20.6,20.6,20.6C69.3-15.3,78.5-24.5,78.5-35.9z M74.6-35.9
			c0,9.2-7.5,16.7-16.7,16.7s-16.7-7.5-16.7-16.7c0-9.2,7.5-16.7,16.7-16.7S74.6-45.1,74.6-35.9z M53.5-27.5v-17.9c0-1.1-0.9-2-2-2
			s-2,0.9-2,2v17.9c0,1.1,0.9,2,2,2S53.5-26.4,53.5-27.5z M69.1-39.8c0-4.2-3.3-7.6-7.5-7.6h-10c-1.1,0-2,0.9-2,2v11.2
			c0,1.1,0.9,2,2,2h10C65.6-32.3,69-35.6,69.1-39.8z M53.5-43.4h8c2.1,0,3.6,1.6,3.6,3.6c-0.1,2-1.7,3.7-3.6,3.7h-8V-43.4z"/>
	</g>
	<g id="Thin-M" transform="matrix(1 0 0 1 799.828 1126)">
		<path d="M100.4-8.1c3.1-3.1,4.8-7.4,4.8-11.9c0-2.6-0.7-5.2-2.2-7.7c-0.6-0.9-1.8-1.3-2.7-0.7c-0.9,0.6-1.3,1.8-0.7,2.7
			c1.1,1.8,1.6,3.7,1.6,5.6c0,3.5-1.3,6.7-3.7,9.1c-2.4,2.4-5.6,3.7-9.1,3.7H32.7c-1.1,0-2,0.9-2,2s0.9,2,2,2h55.9
			C93.1-3.3,97.3-5,100.4-8.1z M58.3-5.3c0-1.1-0.9-2-2-2H32.7c-11.4,0-20.7-9.3-20.7-20.8c0-1.4,0.2-2.9,0.4-3.7
			c0.7-3.9,2.6-7.4,5.5-10.2c1.7-1.7,3.7-3.1,6.3-4.3c1-0.5,1.4-1.7,0.9-2.7c-0.5-1-1.7-1.4-2.7-0.9c-3,1.4-5.4,3.1-7.4,5.1
			c-3.5,3.4-5.8,7.7-6.6,12.4c-0.2,0.9-0.4,2.7-0.4,4.4C7.9-14.4,19-3.3,32.7-3.3h23.6C57.4-3.3,58.3-4.2,58.3-5.3z M96.8-27.5
			c0.6-0.6,1.3-1.3,1.9-2.4c1.3-2.1,2-4.6,2-7.3c0-6.9-4.8-12.9-11.5-14.2c-1.1-0.2-2.1,0.5-2.4,1.6c-0.2,1.1,0.5,2.1,1.6,2.4
			c4.8,1,8.3,5.3,8.3,10.3c0,2-0.5,3.7-1.4,5.2c0,0.1-0.1,0.1-0.1,0.2c-0.2,0.5-0.7,0.9-1.2,1.4c-0.8,0.8-0.8,2,0,2.8
			c0.4,0.4,0.9,0.6,1.4,0.6C95.9-26.9,96.4-27.1,96.8-27.5z M29.8-36.5c0-4.4,1-8.6,3-12.5c4.8-8.9,13.9-14.4,23.8-14.4
			c10.2,0,19.4,5.6,23.9,14.7c1.9,3.9,2.9,7.8,2.9,11.9c0,1.1,0.9,2,2,2s2-0.9,2-2c0-4.7-1.1-9.3-3.3-13.7
			c-5.3-10.4-15.8-16.9-27.5-16.9c-11.4,0-21.8,6.3-27.3,16.5c-2.3,4.4-3.5,9.3-3.5,14.3c0,1.1,0.9,2,2,2S29.8-35.4,29.8-36.5z
			 M76.8-35.9c0-11-9-20-20-20s-20,9-20,20s9,20,20,20S76.8-24.8,76.8-35.9z M73.5-35.9c0,9.2-7.5,16.6-16.6,16.6
			s-16.6-7.5-16.6-16.6s7.5-16.6,16.6-16.6S73.5-45.1,73.5-35.9z M52.2-27.6v-17.7c0-0.9-0.8-1.7-1.7-1.7s-1.7,0.8-1.7,1.7v17.7
			c0,0.9,0.8,1.7,1.7,1.7S52.2-26.7,52.2-27.6z M67.5-39.7c0-4-3.2-7.2-7.2-7.2h-9.8c-0.9,0-1.7,0.8-1.7,1.7v11
			c0,0.9,0.8,1.7,1.7,1.7h9.8C64.2-32.6,67.4-35.7,67.5-39.7z M52.2-43.5h8.1c2.1,0,3.8,1.7,3.8,3.8c-0.1,2.2-1.7,3.9-3.8,3.9h-8.1
			V-43.5z"/>
	</g>
	<g id="Ultralight-M" transform="matrix(1 0 0 1 503.679 1126)">
		<path d="M97.8-8.9c3-3,4.6-7,4.6-11.4c0-2.5-0.7-5-2.1-7.3c-0.4-0.7-1.3-0.9-2.1-0.5c-0.7,0.4-0.9,1.3-0.5,2.1
			c1.1,1.9,1.7,3.8,1.7,5.8c0,3.6-1.3,6.9-3.7,9.3c-2.4,2.4-5.7,3.7-9.3,3.7H31.5c-0.8,0-1.5,0.7-1.5,1.5s0.7,1.5,1.5,1.5h54.9
			C90.8-4.3,94.8-5.9,97.8-8.9z M56.2-5.8c0-0.8-0.7-1.5-1.5-1.5H31.5c-11.5,0-20.8-9.4-20.8-20.9c0-1.4,0.2-2.9,0.4-3.7
			c0.7-3.9,2.6-7.5,5.6-10.3c1.7-1.7,3.8-3.1,6.3-4.4c0.7-0.4,1.1-1.3,0.7-2c-0.4-0.7-1.3-1.1-2-0.7c-2.9,1.4-5.2,3-7.1,4.9
			C11.1-41.1,8.8-37,8-32.4c-0.1,0.9-0.4,2.6-0.4,4.2C7.6-15,18.3-4.3,31.5-4.3h23.2C55.5-4.3,56.2-5,56.2-5.8z M94.2-28
			c0.6-0.6,1.3-1.3,1.8-2.2c1.3-2,1.9-4.3,1.9-6.9c0-6.5-4.6-12.2-11-13.5c-0.8-0.2-1.6,0.4-1.8,1.2c-0.2,0.8,0.4,1.6,1.2,1.8
			c5,1,8.6,5.5,8.6,10.6c0,2-0.5,3.8-1.5,5.4c0,0-0.1,0.1-0.1,0.1c-0.3,0.5-0.7,1-1.2,1.5c-0.6,0.6-0.6,1.5,0,2.1
			c0.3,0.3,0.7,0.4,1.1,0.4C93.5-27.5,93.9-27.7,94.2-28z M28.2-36.4c0-4.4,1-8.6,3-12.5C36-57.8,45.1-63.3,55-63.3
			c10.2,0,19.4,5.6,23.9,14.7c1.9,3.9,2.9,7.8,2.9,11.9c0,0.8,0.7,1.5,1.5,1.5s1.5-0.7,1.5-1.5c0-4.6-1.1-9-3.2-13.3
			C76.6-60,66.4-66.3,55-66.3c-11,0-21.1,6.1-26.4,16c-2.3,4.3-3.4,9-3.4,13.9c0,0.8,0.7,1.5,1.5,1.5S28.2-35.6,28.2-36.4z
			 M74.7-35.9c0-10.7-8.7-19.4-19.4-19.4s-19.4,8.7-19.4,19.4s8.7,19.4,19.4,19.4S74.7-25.1,74.7-35.9z M71.8-35.9
			c0,9.2-7.4,16.6-16.6,16.6s-16.6-7.4-16.6-16.6s7.4-16.6,16.6-16.6S71.8-45,71.8-35.9z M50.4-27.7v-17.4c0-0.8-0.6-1.4-1.4-1.4
			s-1.4,0.6-1.4,1.4v17.4c0,0.8,0.6,1.4,1.4,1.4S50.4-26.9,50.4-27.7z M65.6-39.7c0-3.8-3-6.8-6.8-6.8h-9.7c-0.8,0-1.4,0.6-1.4,1.4
			v10.8c0,0.8,0.6,1.4,1.4,1.4h9.7C62.3-32.8,65.3-35.8,65.6-39.7z M50.5-43.6h8.2c2.2,0,4,1.8,4,3.9c-0.1,2.3-1.9,4.1-4,4.1h-8.2
			V-43.6z"/>
	</g>
	<g id="Black-S" transform="matrix(1 0 0 1 2884.57 696)">
		<path d="M89.3-9.6c3.2-3.2,5-7.6,5-12.3c0-2.4-1.9-4.3-4.3-4.3c-2.4,0-4.3,1.9-4.3,4.3c0,2.4-0.9,4.6-2.5,6.1
			c-1.6,1.6-3.8,2.5-6.2,2.5h-8.9H27.7c-2.4,0-4.3,1.9-4.3,4.3s1.9,4.3,4.3,4.3h39.4H77C81.7-4.7,86.1-6.4,89.3-9.6z M52.8-9
			c0-2.4-1.9-4.3-4.3-4.3H27.6c-8.7,0-15.8-7-15.8-15.6c0-0.7,0.1-1.8,0.3-2.8c0.5-2.9,1.9-5.5,4.2-7.6c0.1-0.1,0.9-0.8,1.1-1
			c1.7-1.7,1.7-4.4,0-6.1c-1.7-1.7-4.4-1.7-6.1,0c-0.1,0.1-0.9,0.8-1.1,1C6.8-42,4.5-37.8,3.6-33.1c-0.2,1.1-0.4,2.7-0.4,4.3
			c0,13.4,10.9,24.2,24.4,24.2h20.8C50.8-4.7,52.8-6.6,52.8-9z M86.1-26.5c0.6-0.6,1.4-1.4,2.1-2.6c1.4-2.3,2.1-4.8,2.1-7.6
			c0-3.5-1.1-6.7-3.1-9.3c-1.5-1.9-4.2-2.2-6-0.8c-1.9,1.5-2.2,4.2-0.8,6c0.9,1.1,1.3,2.5,1.3,4c0,1.2-0.3,2.3-0.9,3.2
			c-0.1,0.1-0.1,0.2-0.2,0.3c-0.1,0.1-0.4,0.4-0.6,0.6c-1.7,1.7-1.7,4.4,0,6.1c0.8,0.8,1.9,1.3,3.1,1.3
			C84.2-25.2,85.3-25.7,86.1-26.5z M27.8-36.2c0-3.4,0.8-6.7,2.4-9.7c3.8-6.9,10.9-11.2,18.7-11.2c8,0,15.3,4.4,18.9,11.5
			c1.5,3,2.3,6.1,2.3,9.3c0,2.4,1.9,4.3,4.3,4.3c2.4,0,4.3-1.9,4.3-4.3c0-4.5-1.1-9-3.2-13.2c-5.1-10-15.3-16.2-26.5-16.2
			c-11,0-21.1,6-26.3,15.8c-2.2,4.3-3.4,8.9-3.4,13.7c0,2.4,1.9,4.3,4.3,4.3S27.8-33.8,27.8-36.2z M68.1-35.7c0-10.5-8.6-19-19.1-19
			s-19.1,8.5-19.1,19c0,10.5,8.6,19,19.1,19S68.1-25.2,68.1-35.7z M62.2-35.7c0,7.2-5.9,13.1-13.2,13.1c-7.3,0-13.2-5.9-13.2-13.1
			S41.7-48.8,49-48.8C56.2-48.8,62.2-42.9,62.2-35.7z M46.4-28.5v-15.4c0-1.6-1.3-3-3-3c-1.6,0-3,1.3-3,3v15.4c0,1.6,1.3,3,3,3
			C45.1-25.5,46.4-26.8,46.4-28.5z M59.9-39c0-4-3.4-7.9-7.8-7.9h-8.7c-1.6,0-3,1.3-3,3v9.6c0,1.6,1.3,3,3,3h8.7
			C56.3-31.3,59.9-35.1,59.9-39z M46.4-40.9h5.7c1.1,0,1.9,0.8,1.9,1.8c-0.1,1.1-0.9,1.9-1.9,1.9h-5.7V-40.9z"/>
	</g>
	<g id="Heavy-S" transform="matrix(1 0 0 1 2588.47 696)">
		<path d="M87.8-10.2c3.1-3.1,4.8-7.3,4.8-11.8c0-0.6,0-1.3-0.2-2.1c-0.5-2.1-2.7-3.4-4.7-2.8c-2,0.5-3.3,2.5-2.9,4.6
			c0,0.1,0,0.2,0,0.4c0,2.4-0.9,4.7-2.5,6.3c-1.6,1.6-3.9,2.5-6.3,2.5H27.4c-2.2,0-3.9,1.8-3.9,3.9s1.8,3.9,3.9,3.9h48.5
			C80.5-5.4,84.7-7.1,87.8-10.2z M51.8-9.4c0-2.2-1.8-3.9-3.9-3.9H27.4c-8.7,0-15.8-7-15.8-15.7c0-0.7,0.1-1.8,0.3-2.8
			c0.5-2.9,2-5.5,4.2-7.6c0.5-0.5,0.8-0.8,1.1-0.9c1.8-1.1,2.4-3.6,1.3-5.4c-1.1-1.8-3.6-2.4-5.4-1.3c-1,0.7-1.8,1.4-2.4,2
			C7.2-41.8,5-37.7,4.2-33.1C4-32,3.8-30.5,3.8-29c0,13,10.6,23.5,23.6,23.5h20.5C50.1-5.4,51.8-7.2,51.8-9.4z M84.7-26.9
			c0.6-0.6,1.4-1.4,2-2.5c1.3-2.2,2-4.6,2-7.3c0-4.2-1.9-8.2-5.1-11.1c-1.6-1.4-4.1-1.3-5.5,0.3c-1.4,1.6-1.3,4.1,0.3,5.5
			c1.5,1.4,2.4,3.3,2.4,5.2c0,1.3-0.3,2.4-0.9,3.3c-0.1,0.1-0.1,0.2-0.2,0.3c-0.1,0.1-0.4,0.4-0.6,0.6c-1.5,1.5-1.5,4,0,5.5
			c0.8,0.8,1.8,1.2,2.8,1.2C82.9-25.7,83.9-26.1,84.7-26.9z M27.2-36.2c0-3.4,0.8-6.7,2.4-9.7c3.7-6.9,10.9-11.2,18.7-11.2
			c8,0,15.2,4.4,18.8,11.5c1.5,3,2.3,6.1,2.3,9.3c0,2.2,1.8,3.9,3.9,3.9c2.2,0,3.9-1.8,3.9-3.9c0-4.4-1-8.7-3.1-12.8
			C69.1-58.9,59.2-65,48.3-65c-10.7,0-20.5,5.9-25.6,15.4c-2.2,4.1-3.3,8.6-3.3,13.4c0,2.2,1.8,3.9,3.9,3.9S27.2-34,27.2-36.2z
			 M48.4-17.2c-10.2,0-18.6-8.3-18.6-18.5s8.3-18.5,18.6-18.5S67-45.9,67-35.7S58.7-17.2,48.4-17.2z M48.4-48.8
			c-7.3,0-13.2,5.9-13.2,13.1s5.9,13.1,13.2,13.1c7.3,0,13.2-5.9,13.2-13.1S55.7-48.8,48.4-48.8z M43-25.8c-1.5,0-2.7-1.2-2.7-2.7
			v-15.2c0-1.5,1.2-2.7,2.7-2.7s2.7,1.2,2.7,2.7v15.2C45.7-27.1,44.5-25.8,43-25.8z M51.5-31.6H43c-1.5,0-2.7-1.2-2.7-2.7v-9.5
			c0-1.5,1.2-2.7,2.7-2.7h8.5c4.2,0,7.5,3.4,7.5,7.4C59-35.3,55.4-31.6,51.5-31.6z M45.7-37h5.8c1.1,0,1.9-0.9,2.1-2.1
			c0-1.1-0.9-1.9-2.1-1.9h-5.8V-37z"/>
	</g>
	<g id="Bold-S" transform="matrix(1 0 0 1 2292.43 696)">
		<path d="M86.3-10.9c3-3,4.7-7,4.7-11.4c0-0.6,0-1.3-0.1-2.1c-0.3-1.9-2.1-3.2-4.1-2.9c-1.9,0.3-3.2,2.1-2.9,4.1c0,0.2,0,0.5,0,0.9
			c0,2.5-0.9,4.8-2.6,6.4c-1.7,1.7-4,2.6-6.5,2.6H27.2c-1.9,0-3.5,1.6-3.5,3.5s1.6,3.5,3.5,3.5h47.6C79.2-6.2,83.3-7.9,86.3-10.9z
			 M50.8-9.8c0-1.9-1.6-3.5-3.5-3.5H27.1c-8.7,0-15.9-7.1-15.9-15.8c0-0.8,0.1-1.8,0.3-2.8c0.5-2.9,2-5.6,4.2-7.7
			c0.5-0.5,1.2-1,2-1.7c1.6-1.1,1.9-3.3,0.8-4.9c-1.1-1.6-3.3-1.9-4.9-0.8c-1.2,0.9-2.1,1.6-2.8,2.4c-3.3,3.1-5.4,7.1-6.2,11.5
			c-0.2,1-0.4,2.6-0.4,4c0,12.6,10.3,22.8,22.9,22.8h20.1C49.2-6.2,50.8-7.8,50.8-9.8z M83.2-27.2c0.6-0.6,1.3-1.3,1.9-2.4
			c1.3-2.1,1.9-4.5,1.9-7.1c0-4.4-2-8.5-5.5-11.2c-1.5-1.2-3.8-0.9-4.9,0.6c-1.2,1.5-0.9,3.8,0.6,4.9c1.7,1.3,2.7,3.4,2.7,5.6
			c0,1.3-0.3,2.5-0.9,3.4c-0.1,0.1-0.1,0.2-0.2,0.3c-0.1,0.1-0.4,0.5-0.7,0.7c-1.4,1.4-1.4,3.6,0,5c0.7,0.7,1.6,1,2.5,1
			C81.6-26.2,82.5-26.5,83.2-27.2z M26.6-36.2c0-3.4,0.8-6.7,2.4-9.7c3.7-6.9,10.9-11.2,18.7-11.2c8,0,15.2,4.4,18.8,11.5
			c1.5,3,2.3,6.1,2.3,9.3c0,1.9,1.6,3.5,3.5,3.5c1.9,0,3.5-1.6,3.5-3.5c0-4.3-1-8.5-3-12.5c-4.8-9.5-14.4-15.3-25.1-15.3
			c-10.4,0-19.9,5.7-24.9,15c-2.1,4-3.2,8.4-3.2,13c0,1.9,1.6,3.5,3.5,3.5S26.6-34.2,26.6-36.2z M65.8-35.7c0-9.9-8.1-18-18.1-18
			s-18.1,8.1-18.1,18s8.1,18,18.1,18S65.8-25.8,65.8-35.7z M60.9-35.7c0,7.2-5.9,13.1-13.1,13.1s-13.1-5.9-13.1-13.1
			s5.9-13.1,13.1-13.1S60.9-42.9,60.9-35.7z M44.8-28.7v-15c0-1.4-1.1-2.5-2.5-2.5c-1.4,0-2.5,1.1-2.5,2.5v15c0,1.4,1.1,2.5,2.5,2.5
			C43.7-26.2,44.8-27.3,44.8-28.7z M57.9-39c0-4-3.1-7.1-7.1-7.1h-8.4c-1.4,0-2.5,1.1-2.5,2.5v9.3c0,1.4,1.1,2.5,2.5,2.5h8.4
			C54.6-31.8,57.8-34.9,57.9-39z M44.8-41.2h5.9c1.3,0,2.2,0.9,2.2,2.1c0,1.3-1,2.3-2.2,2.3h-5.9V-41.2z"/>
	</g>
	<g id="Semibold-S" transform="matrix(1 0 0 1 1996.19 696)">
		<path d="M84.8-11.5c2.9-2.9,4.5-6.8,4.5-11c0-1.1-0.2-2.3-0.5-3.6c-0.5-1.7-2.2-2.7-3.8-2.2c-1.7,0.5-2.7,2.2-2.2,3.8
			c0.2,0.7,0.3,1.3,0.3,1.9c0,2.5-0.9,4.9-2.6,6.6c-1.7,1.7-4,2.6-6.6,2.6H26.9c-1.7,0-3.1,1.4-3.1,3.1S25.2-7,26.9-7h46.8
			C78-7,81.9-8.6,84.8-11.5z M49.8-10.1c0-1.7-1.4-3.1-3.1-3.1H26.9c-8.8,0-15.9-7.1-15.9-15.9c0-0.8,0.1-1.8,0.3-2.8
			c0.5-2.9,2-5.6,4.2-7.8c0.9-0.9,1.9-1.7,2.9-2.2c1.5-0.8,2-2.8,1.2-4.3c-0.8-1.5-2.8-2-4.3-1.2c-1.5,0.8-2.9,1.9-4.2,3.2
			c-3.2,3-5.2,6.9-6,11.2c-0.2,1-0.4,2.5-0.4,3.9C4.7-16.9,14.7-7,26.9-7h19.8C48.4-7,49.8-8.4,49.8-10.1z M81.8-27.6
			c0.6-0.6,1.3-1.3,1.8-2.3c1.2-2,1.9-4.3,1.9-6.8c0-4.8-2.6-9.3-6.8-11.8c-1.5-0.9-3.4-0.4-4.3,1.1c-0.9,1.5-0.4,3.4,1.1,4.3
			c2.3,1.4,3.7,3.8,3.7,6.4c0,1.3-0.3,2.5-1,3.6c-0.1,0.1-0.1,0.2-0.2,0.3c-0.1,0.2-0.4,0.5-0.7,0.8c-1.2,1.2-1.2,3.2,0,4.4
			c0.6,0.6,1.4,0.9,2.2,0.9C80.4-26.7,81.2-27,81.8-27.6z M26-36.2c0-3.4,0.8-6.7,2.4-9.7c3.7-6.9,10.9-11.2,18.6-11.2
			c8,0,15.2,4.4,18.8,11.5c1.5,3,2.3,6.1,2.3,9.3c0,1.7,1.4,3.1,3.1,3.1s3.1-1.4,3.1-3.1c0-4.2-1-8.3-2.9-12.1
			c-4.7-9.2-14-14.9-24.4-14.9c-10.1,0-19.3,5.6-24.2,14.6c-2.1,3.9-3.1,8.2-3.1,12.7c0,1.7,1.4,3.1,3.1,3.1S26-34.4,26-36.2z
			 M64.7-35.7c0-9.7-7.9-17.5-17.6-17.5c-9.7,0-17.6,7.9-17.6,17.5s7.9,17.5,17.6,17.5C56.9-18.2,64.7-26,64.7-35.7z M60.3-35.7
			c0,7.2-5.9,13.1-13.1,13.1c-7.2,0-13.1-5.9-13.1-13.1c0-7.2,5.9-13.1,13.1-13.1C54.4-48.8,60.3-42.9,60.3-35.7z M44.2-28.8v-14.7
			c0-1.2-1-2.2-2.2-2.2s-2.2,1-2.2,2.2v14.7c0,1.2,1,2.2,2.2,2.2S44.2-27.5,44.2-28.8z M57-38.8c0-3.7-3-6.9-6.8-6.9h-8.2
			c-1.2,0-2.2,1-2.2,2.2v9.2c0,1.2,1,2.2,2.2,2.2h8.2C53.8-32.1,57-35.7,57-38.8z M44.2-41.3h6c1.3,0,2.4,1,2.4,2.3
			c-0.1,1.4-1.2,2.4-2.4,2.4h-6V-41.3z"/>
	</g>
	<g id="Medium-S" transform="matrix(1 0 0 1 1699.83 696)">
		<path d="M83.6-12.1c2.8-2.8,4.3-6.5,4.3-10.6c0-1.9-0.4-3.8-1.3-5.6c-0.6-1.4-2.3-2-3.6-1.3c-1.4,0.6-2,2.3-1.3,3.6
			c0.5,1.1,0.8,2.2,0.8,3.3c0,2.6-1,5-2.7,6.7c-1.7,1.7-4.1,2.7-6.7,2.7H27c-1.5,0-2.7,1.2-2.7,2.7s1.2,2.7,2.7,2.7h46
			C77.1-7.8,80.9-9.3,83.6-12.1z M49.2-10.5c0-1.5-1.2-2.7-2.7-2.7H27c-8.8,0-16-7.2-16-16c0-1,0.2-2.3,0.3-2.8c0.5-3,2-5.7,4.2-7.8
			c1.1-1.1,2.4-2,4.1-2.9c1.3-0.7,1.8-2.4,1.1-3.7c-0.7-1.3-2.4-1.8-3.7-1.1c-2.1,1.2-3.9,2.4-5.3,3.8c-3,2.9-5,6.7-5.8,10.8
			c-0.2,1-0.4,2.4-0.4,3.8C5.5-17.4,15.2-7.8,27-7.8h19.4C48-7.8,49.2-9,49.2-10.5z M80.6-27.9c0.5-0.5,1.2-1.2,1.7-2.2
			c1.2-1.9,1.8-4.1,1.8-6.5c0-5-3-9.7-7.5-11.8c-1.4-0.7-3-0.1-3.7,1.3c-0.7,1.4-0.1,3,1.3,3.7c2.7,1.3,4.4,4,4.4,6.9
			c0,1.4-0.3,2.6-1,3.7c0,0.1-0.1,0.2-0.1,0.2c-0.1,0.2-0.4,0.5-0.8,0.9c-1.1,1.1-1.1,2.8,0,3.9c0.5,0.5,1.2,0.8,1.9,0.8
			C79.4-27.1,80.1-27.4,80.6-27.9z M25.8-36.2c0-3.5,0.8-6.7,2.4-9.7c3.7-6.9,10.9-11.2,18.6-11.2c8,0,15.2,4.4,18.7,11.5
			c1.5,3,2.3,6.1,2.3,9.3c0,1.5,1.2,2.7,2.7,2.7c1.5,0,2.7-1.2,2.7-2.7c0-4.1-1-8-2.8-11.8c-4.5-9-13.6-14.5-23.6-14.5
			c-9.8,0-18.8,5.4-23.5,14.2c-2,3.8-3,7.9-3,12.3c0,1.5,1.2,2.7,2.7,2.7C24.5-33.4,25.8-34.6,25.8-36.2z M64-35.7
			c0-9.4-7.7-17.1-17.1-17.1c-9.4,0-17.1,7.6-17.1,17.1s7.7,17.1,17.1,17.1C56.3-18.6,64-26.3,64-35.7z M60-35.7
			c0,7.2-5.9,13.1-13.1,13.1c-7.2,0-13.1-5.9-13.1-13.1s5.9-13.1,13.1-13.1C54.1-48.8,60-42.9,60-35.7z M43.7-28.9v-14.5
			c0-1.1-0.9-2-2-2s-2,0.9-2,2v14.5c0,1.1,0.9,2,2,2S43.7-27.8,43.7-28.9z M56.3-38.8c0-3.6-2.9-6.5-6.5-6.5h-8.1c-1.1,0-2,0.9-2,2
			v9c0,1.1,0.9,2,2,2h8.1C53.3-32.3,56.2-35.2,56.3-38.8z M43.7-41.4h6.1c1.4,0,2.5,1.1,2.5,2.5c0,1.5-1.2,2.6-2.5,2.6h-6.1V-41.4z"
			/>
	</g>
	<g id="Regular-S" transform="matrix(1 0 0 1 1403.58 696)">
		<path d="M82.3-12.7c2.7-2.7,4.1-6.3,4.1-10.2c0-1.9-0.4-3.7-1.3-5.5c-0.6-1.2-2-1.6-3.1-1.1c-1.2,0.6-1.6,2-1.1,3.1
			c0.6,1.1,0.8,2.3,0.8,3.4c0,2.6-1,5.1-2.7,6.8c-1.8,1.8-4.2,2.7-6.8,2.7H26.8c-1.3,0-2.3,1.1-2.3,2.3s1.1,2.3,2.3,2.3h45.3
			C76-8.6,79.6-10,82.3-12.7z M48.3-10.9c0-1.3-1.1-2.3-2.3-2.3H26.8c-8.9,0-16.1-7.2-16.1-16.1c0-1.1,0.2-2.3,0.3-2.9
			c0.5-3,2-5.7,4.3-7.9c1.3-1.3,2.9-2.4,4.9-3.4c1.2-0.6,1.7-2,1.1-3.1c-0.6-1.2-2-1.7-3.1-1.1c-2.5,1.2-4.5,2.6-6.2,4.3
			C9.1-40.6,7.2-37,6.4-33c-0.2,0.9-0.3,2.3-0.3,3.7c0,11.5,9.3,20.8,20.8,20.8H46C47.3-8.6,48.3-9.6,48.3-10.9z M79.4-28.4
			c0.5-0.5,1.2-1.2,1.6-2.1c1.1-1.8,1.7-3.9,1.7-6.2c0-5.4-3.4-10.1-8.5-11.8c-1.2-0.4-2.6,0.3-3,1.5c-0.4,1.2,0.3,2.6,1.5,3
			c3.2,1.1,5.3,4,5.3,7.4c0,1.4-0.4,2.7-1,3.8c0,0.1-0.1,0.1-0.1,0.2c-0.1,0.3-0.5,0.6-0.8,1c-0.9,0.9-0.9,2.4,0,3.3
			c0.5,0.5,1.1,0.7,1.7,0.7C78.3-27.7,78.9-27.9,79.4-28.4z M25.3-36.1c0-3.5,0.8-6.7,2.4-9.7c3.7-6.9,10.9-11.2,18.6-11.2
			c8,0,15.2,4.4,18.7,11.5c1.5,3,2.2,6.1,2.2,9.3c0,1.3,1.1,2.3,2.3,2.3S72-35,72-36.3c0-3.9-0.9-7.8-2.7-11.4
			C64.8-56.4,56-61.8,46.3-61.8c-9.5,0-18.2,5.3-22.8,13.7c-1.9,3.7-2.9,7.7-2.9,11.9c0,1.3,1.1,2.3,2.3,2.3S25.3-34.8,25.3-36.1z
			 M63-35.7c0-9.1-7.4-16.6-16.6-16.6s-16.6,7.4-16.6,16.6c0,9.1,7.4,16.6,16.6,16.6S63-26.5,63-35.7z M59.5-35.7
			c0,7.2-5.9,13.1-13.1,13.1s-13.1-5.9-13.1-13.1c0-7.2,5.9-13.1,13.1-13.1S59.5-42.9,59.5-35.7z M43.1-29v-14.3
			c0-1-0.8-1.8-1.8-1.8s-1.8,0.8-1.8,1.8V-29c0,1,0.8,1.8,1.8,1.8S43.1-28,43.1-29z M55.5-38.7c0-3.3-2.7-6.3-6.2-6.3h-8
			c-1,0-1.8,0.8-1.8,1.8v8.9c0,1,0.8,1.8,1.8,1.8h8C52.6-32.6,55.5-35.7,55.5-38.7z M43.1-41.5h6.2c1.5,0,2.7,1.1,2.7,2.6
			c-0.1,1.5-1.3,2.7-2.7,2.7h-6.2V-41.5z"/>
	</g>
	<g id="Light-S" transform="matrix(1 0 0 1 1107.6 696)">
		<path d="M80.8-13.3c2.5-2.5,3.9-6,3.9-9.8c0-2.2-0.6-4.3-1.8-6.3c-0.6-0.9-1.8-1.2-2.7-0.7c-0.9,0.6-1.2,1.8-0.7,2.7
			c0.8,1.4,1.3,2.8,1.3,4.3c0,2.7-1,5.2-2.8,7c-1.8,1.8-4.3,2.8-7,2.8H26.6c-1.1,0-2,0.9-2,2s0.9,2,2,2h44.5
			C74.8-9.4,78.3-10.8,80.8-13.3z M47.2-11.3c0-1.1-0.9-2-2-2H26.5c-8.9,0-16.1-7.3-16.1-16.2c0-1.1,0.2-2.3,0.3-2.9
			c0.5-3,2-5.7,4.3-8c1.3-1.3,2.9-2.4,4.9-3.4c1-0.5,1.4-1.6,0.9-2.6c-0.5-1-1.6-1.4-2.6-0.9c-2.4,1.2-4.3,2.5-6,4.1
			C9.3-40.3,7.5-36.8,6.8-33c-0.1,0.7-0.3,2.2-0.3,3.5c0,11.1,9,20.1,20.1,20.1h18.8C46.4-9.4,47.2-10.2,47.2-11.3z M77.9-28.7
			c0.5-0.5,1.1-1.1,1.5-2c1.1-1.8,1.6-3.8,1.6-6c0-5.6-4-10.6-9.5-11.7c-1.1-0.2-2.1,0.5-2.3,1.5c-0.2,1.1,0.5,2.1,1.5,2.3
			c3.7,0.7,6.3,4,6.3,7.8c0,1.5-0.4,2.8-1.1,3.9c0,0.1-0.1,0.1-0.1,0.2c-0.2,0.3-0.5,0.7-0.9,1c-0.8,0.8-0.8,2,0,2.8
			c0.4,0.4,0.9,0.6,1.4,0.6C77-28.2,77.5-28.4,77.9-28.7z M24.6-36.1c0-3.5,0.8-6.7,2.4-9.7c3.7-6.9,10.9-11.3,18.6-11.3
			c8,0,15.1,4.4,18.7,11.5c1.5,3,2.2,6.1,2.2,9.3c0,1.1,0.9,2,2,2s2-0.9,2-2c0-3.8-0.9-7.6-2.7-11.1C63.6-55.8,55-61,45.6-61
			c-9.2,0-17.6,5.1-22.1,13.3c-1.9,3.6-2.8,7.5-2.8,11.6c0,1.1,0.9,2,2,2S24.6-35,24.6-36.1z M61.9-35.7c0-8.9-7.2-16.1-16.1-16.1
			c-8.9,0-16.1,7.2-16.1,16.1s7.2,16.1,16.1,16.1C54.6-19.5,61.9-26.8,61.9-35.7z M58.8-35.7c0,7.2-5.8,13.1-13,13.1
			s-13-5.9-13-13.1c0-7.2,5.8-13.1,13-13.1S58.8-42.9,58.8-35.7z M42.3-29.1v-14.1c0-0.8-0.7-1.5-1.5-1.5s-1.5,0.7-1.5,1.5v14.1
			c0,0.8,0.7,1.5,1.5,1.5S42.3-28.2,42.3-29.1z M54.5-38.7c0-3.3-2.6-5.9-5.9-5.9h-7.8c-0.8,0-1.5,0.7-1.5,1.5v8.8
			c0,0.8,0.7,1.5,1.5,1.5h7.8C51.7-32.8,54.4-35.5,54.5-38.7z M42.3-41.6h6.3c1.6,0,2.8,1.2,2.8,2.8c0,1.6-1.3,2.9-2.8,2.9h-6.3
			V-41.6z"/>
	</g>
	<g id="Thin-S" transform="matrix(1 0 0 1 811.863 696)">
		<path d="M78.9-13.9c2.4-2.4,3.8-5.8,3.8-9.3c0-2.1-0.6-4.1-1.7-6c-0.4-0.7-1.4-1-2.1-0.5c-0.7,0.4-1,1.4-0.5,2.1
			c0.9,1.4,1.3,2.9,1.3,4.4c0,2.7-1,5.3-2.9,7.1c-1.8,1.8-4.4,2.9-7.1,2.9H25.8c-0.9,0-1.6,0.7-1.6,1.6s0.7,1.6,1.6,1.6h43.7
			C73.1-10.1,76.5-11.5,78.9-13.9z M45.9-11.7c0-0.9-0.7-1.6-1.6-1.6H25.8c-9,0-16.2-7.3-16.2-16.3c0-1.1,0.2-2.3,0.3-2.9
			c0.6-3,2-5.8,4.3-8c1.3-1.3,2.9-2.4,4.9-3.4c0.8-0.4,1.1-1.3,0.7-2.1c-0.4-0.8-1.3-1.1-2.1-0.7c-2.3,1.1-4.2,2.4-5.8,4
			c-2.7,2.7-4.5,6-5.2,9.7c-0.1,0.7-0.3,2.1-0.3,3.4c0,10.7,8.7,19.4,19.4,19.4h18.5C45.2-10.1,45.9-10.8,45.9-11.7z M76-29.1
			c0.5-0.5,1.1-1.1,1.5-1.8c1-1.7,1.6-3.6,1.6-5.7c0-5.4-3.8-10.1-9-11.1c-0.8-0.2-1.7,0.4-1.8,1.2c-0.2,0.8,0.4,1.7,1.2,1.8
			c3.8,0.8,6.5,4.2,6.5,8.1c0,1.5-0.4,2.9-1.1,4.1c0,0-0.1,0.1-0.1,0.1c-0.2,0.4-0.5,0.7-0.9,1.1c-0.6,0.6-0.6,1.6,0,2.2
			c0.3,0.3,0.7,0.5,1.1,0.5C75.3-28.6,75.7-28.8,76-29.1z M23.6-36.1c0-3.5,0.8-6.7,2.4-9.8c3.7-6.9,10.9-11.3,18.6-11.3
			c8,0,15.2,4.4,18.7,11.5c1.5,3,2.2,6.1,2.2,9.3c0,0.9,0.7,1.6,1.6,1.6c0.9,0,1.6-0.7,1.6-1.6c0-3.7-0.9-7.3-2.6-10.8
			C62-55.2,53.8-60.3,44.6-60.3c-8.9,0-17.1,4.9-21.4,12.9c-1.8,3.5-2.7,7.3-2.7,11.2c0,0.9,0.7,1.6,1.6,1.6
			C22.9-34.5,23.6-35.2,23.6-36.1z M60.4-35.7c0-8.6-7-15.7-15.7-15.7s-15.7,7-15.7,15.7S36.1-20,44.8-20S60.4-27,60.4-35.7z
			 M57.8-35.7c0,7.2-5.8,13-13,13s-13-5.8-13-13s5.8-13,13-13S57.8-42.8,57.8-35.7z M41.1-29.2V-43c0-0.7-0.6-1.3-1.3-1.3
			s-1.3,0.6-1.3,1.3v13.8c0,0.7,0.6,1.3,1.3,1.3S41.1-28.4,41.1-29.2z M53.1-38.7c0-3.2-2.5-5.6-5.6-5.6h-7.7
			c-0.7,0-1.3,0.6-1.3,1.3v8.6c0,0.7,0.6,1.3,1.3,1.3h7.7C50.5-33,53-35.5,53.1-38.7z M41.1-41.7h6.4c1.7,0,3,1.3,3,2.9
			c-0.1,1.7-1.4,3-3,3h-6.4V-41.7z"/>
	</g>
	<g id="Ultralight-S" transform="matrix(1 0 0 1 515.649 696)">
		<path d="M76.5-14.5c2.3-2.3,3.6-5.5,3.6-8.9c0-2-0.6-3.9-1.6-5.7c-0.3-0.6-1.1-0.7-1.6-0.4c-0.6,0.3-0.7,1.1-0.4,1.6
			c0.9,1.5,1.3,3,1.3,4.5c0,2.8-1,5.4-2.9,7.3c-1.9,1.9-4.5,2.9-7.3,2.9h-43c-0.6,0-1.2,0.5-1.2,1.2c0,0.6,0.5,1.2,1.2,1.2h43
			C71-10.9,74.2-12.2,76.5-14.5z M43.9-12.1c0-0.6-0.5-1.2-1.2-1.2H24.6c-9,0-16.3-7.3-16.3-16.4c0-1.1,0.2-2.3,0.3-2.9
			c0.6-3.1,2.1-5.8,4.3-8.1c1.3-1.3,2.9-2.4,4.9-3.4c0.6-0.3,0.8-1,0.5-1.6c-0.3-0.6-1-0.8-1.6-0.5c-2.2,1.1-4.1,2.3-5.6,3.9
			c-2.6,2.6-4.4,5.8-5,9.3c-0.1,0.7-0.3,2.1-0.3,3.3c0,10.3,8.4,18.7,18.7,18.7h18.2C43.4-10.9,43.9-11.5,43.9-12.1z M73.7-29.5
			c0.5-0.5,1-1,1.4-1.7c1-1.6,1.5-3.4,1.5-5.4c0-5.1-3.6-9.6-8.6-10.6c-0.6-0.1-1.3,0.3-1.4,0.9c-0.1,0.6,0.3,1.3,0.9,1.4
			c3.9,0.8,6.7,4.3,6.7,8.3c0,1.6-0.4,3-1.2,4.2c0,0,0,0.1-0.1,0.1c-0.2,0.4-0.6,0.8-1,1.2c-0.5,0.5-0.5,1.2,0,1.7
			c0.2,0.2,0.5,0.3,0.8,0.3C73.2-29.1,73.5-29.2,73.7-29.5z M22.1-36.1c0-3.5,0.8-6.8,2.4-9.8c3.7-6.9,10.9-11.3,18.6-11.3
			c8,0,15.2,4.4,18.7,11.5c1.5,3,2.2,6.1,2.2,9.4c0,0.6,0.5,1.2,1.2,1.2s1.2-0.5,1.2-1.2c0-3.6-0.8-7.1-2.5-10.4
			c-4-7.9-12-12.8-20.8-12.8c-8.6,0-16.6,4.8-20.7,12.5c-1.8,3.4-2.7,7-2.7,10.9c0,0.6,0.5,1.2,1.2,1.2
			C21.5-34.9,22.1-35.4,22.1-36.1z M58.4-35.6c0-8.4-6.8-15.2-15.2-15.2S28-44,28-35.6s6.8,15.2,15.2,15.2S58.4-27.3,58.4-35.6z
			 M56.2-35.6c0,7.2-5.8,13-13,13s-13-5.8-13-13s5.8-13,13-13S56.2-42.8,56.2-35.6z M39.4-29.3v-13.6c0-0.6-0.5-1.1-1.1-1.1
			c-0.6,0-1.1,0.5-1.1,1.1v13.6c0,0.6,0.5,1.1,1.1,1.1C38.9-28.1,39.4-28.6,39.4-29.3z M51.3-38.6c0-3-2.3-5.3-5.3-5.3h-7.6
			c-0.6,0-1.1,0.5-1.1,1.1v8.5c0,0.6,0.5,1.1,1.1,1.1H46C48.8-33.3,51.1-35.6,51.3-38.6z M39.5-41.7H46c1.7,0,3.1,1.4,3.1,3.1
			c-0.1,1.8-1.5,3.2-3.1,3.2h-6.5V-41.7z"/>
	</g>
</g>
</svg>
