<?xml version="1.0" encoding="utf-8"?>
<!-- Generator: Adobe Illustrator 27.5.0, SVG Export Plug-In . SVG Version: 6.00 Build 0)  -->
<svg version="1.1" id="Layer_1" xmlns="http://www.w3.org/2000/svg" xmlns:xlink="http://www.w3.org/1999/xlink" x="0px" y="0px"
	 viewBox="0 0 3300 2200" style="enable-background:new 0 0 3300 2200;" xml:space="preserve">
<style type="text/css">
	.st0{fill:#FFFFFF;}
	.st1{fill:none;stroke:#000000;stroke-width:0.5;}
	.st2{font-family:'Helvetica-Bold';}
	.st3{font-size:13px;}
	.st4{font-family:'Helvetica';}
	.st5{fill:none;stroke:#00AEEF;stroke-width:0.5;}
	.st6{fill:#27AAE1;}
	.st7{fill:none;stroke:#27AAE1;stroke-width:0.5;}
</style>
<g id="Notes">
	<rect id="artboard" class="st0" width="3300" height="2200"/>
	<line class="st1" x1="263" y1="292" x2="3036" y2="292"/>
	<text transform="matrix(1 0 0 1 263 322)" class="st2 st3">Weight/Scale Variations</text>
	<text transform="matrix(1 0 0 1 534.0633 322)" class="st4 st3">Ultralight</text>
	<text transform="matrix(1 0 0 1 843.7775 322)" class="st4 st3">Thin</text>
	<text transform="matrix(1 0 0 1 1139.035 322)" class="st4 st3">Light</text>
	<text transform="matrix(1 0 0 1 1427.0773 322)" class="st4 st3">Regular</text>
	<text transform="matrix(1 0 0 1 1723.4419 322)" class="st4 st3">Medium</text>
	<text transform="matrix(1 0 0 1 2016.1719 322)" class="st4 st3">Semibold</text>
	<text transform="matrix(1 0 0 1 2326.9705 322)" class="st4 st3">Bold</text>
	<text transform="matrix(1 0 0 1 2618.2659 322)" class="st4 st3">Heavy</text>
	<text transform="matrix(1 0 0 1 2917.5054 322)" class="st4 st3">Black</text>
	<line class="st1" x1="263" y1="1903" x2="3036" y2="1903"/>
	<g transform="matrix(1 0 0 1 263 1933)">
		<path d="M9.2,0.8c4.3,0,7.9-3.6,7.9-7.9S13.5-15,9.2-15s-7.9,3.6-7.9,7.9C1.4-2.7,5,0.8,9.2,0.8z M9.2-0.7c-3.5,0-6.4-2.8-6.4-6.4
			s2.8-6.4,6.4-6.4s6.4,2.8,6.4,6.4S12.8-0.7,9.2-0.7z M5.7-7.1c0,0.4,0.3,0.7,0.8,0.7h2.1v2.1c0,0.4,0.3,0.7,0.7,0.7S10-3.9,10-4.3
			v-2.1h2.1c0.4,0,0.7-0.3,0.7-0.7c0-0.4-0.3-0.7-0.7-0.7H10v-2.1c0-0.4-0.3-0.8-0.7-0.8s-0.7,0.3-0.7,0.8v2.1H6.4
			C6-7.8,5.7-7.5,5.7-7.1z"/>
	</g>
	<g transform="matrix(1 0 0 1 281.867 1933)">
		<path d="M11.7,2.9c5.4,0,10-4.5,10-10c0-5.4-4.5-10-10-10c-5.4,0-10,4.5-10,10C1.7-1.6,6.3,2.9,11.7,2.9z M11.7,1.2
			c-4.6,0-8.3-3.7-8.3-8.3s3.7-8.3,8.3-8.3S20-11.7,20-7.1C20-2.4,16.3,1.2,11.7,1.2z M7.2-7.1c0,0.5,0.3,0.8,0.8,0.8h2.9v2.9
			c0,0.5,0.3,0.8,0.8,0.8s0.8-0.3,0.8-0.8v-2.9h2.9c0.5,0,0.8-0.3,0.8-0.8s-0.3-0.8-0.8-0.8h-2.9v-2.9c0-0.5-0.3-0.8-0.8-0.8
			s-0.8,0.3-0.8,0.8v2.9H8C7.5-7.9,7.2-7.5,7.2-7.1z"/>
	</g>
	<g transform="matrix(1 0 0 1 305.646 1933)">
		<path d="M15,5.7c7,0,12.7-5.8,12.7-12.7c0-7-5.8-12.7-12.7-12.7C8-19.8,2.3-14,2.3-7.1C2.3-0.1,8,5.7,15,5.7z M15,3.8
			C8.9,3.8,4.1-1,4.1-7.1C4.1-13.1,8.9-18,15-18c6,0,10.9,4.9,10.9,10.9C25.9-1,21,3.8,15,3.8z M9.2-7.1c0,0.5,0.4,0.9,0.9,0.9H14v4
			c0,0.5,0.4,0.9,0.9,0.9s0.9-0.4,0.9-0.9v-4h4c0.5,0,0.9-0.4,0.9-0.9S20.3-8,19.8-8h-4v-3.9c0-0.5-0.4-0.9-0.9-0.9S14-12.4,14-11.9
			V-8h-3.9C9.6-8,9.2-7.6,9.2-7.1z"/>
	</g>
	<text transform="matrix(1 0 0 1 263 1953)" class="st2 st3">Design Variations</text>
	<text transform="matrix(1 0 0 1 263 1971)" class="st4 st3">Symbols are supported in up to nine weights and three scales.</text>
	<text transform="matrix(1 0 0 1 263 1989)" class="st4 st3">For optimal layout with text and other symbols, vertically align</text>
	<text transform="matrix(1 0 0 1 263 2007)" class="st4 st3">symbols with the adjacent text.</text>
	<line class="st5" x1="776" y1="1919" x2="776" y2="1933"/>
	<g transform="matrix(1 0 0 1 776 1933)">
		<path d="M3.3,0.2c0.5,0,0.8-0.2,1-0.7L5.5-4h5.8l1.3,3.4C12.7,0,13,0.2,13.5,0.2s0.8-0.3,0.8-0.8c0-0.2,0-0.3-0.1-0.5L9.7-13.4
			C9.4-14,9-14.3,8.4-14.3s-1,0.3-1.2,0.9L2.6-1.2C2.5-1,2.5-0.8,2.5-0.6C2.5-0.1,2.8,0.2,3.3,0.2z M6-5.5l2.4-6.6l0,0l2.4,6.6
			C10.8-5.5,6-5.5,6-5.5z"/>
	</g>
	<line class="st5" x1="793.2" y1="1919" x2="793.2" y2="1933"/>
	<text transform="matrix(1 0 0 1 776 1953)" class="st2 st3">Margins</text>
	<text transform="matrix(1 0 0 1 776 1971)" class="st4 st3">Leading and trailing margins on the left and right side of each symbol</text>
	<text transform="matrix(1 0 0 1 776 1989)" class="st4 st3">can be adjusted by modifying the x-location of the margin guidelines.</text>
	<text transform="matrix(1 0 0 1 776 2007)" class="st4 st3">Modifications are automatically applied proportionally to all</text>
	<text transform="matrix(1 0 0 1 776 2025)" class="st4 st3">scales and weights.</text>
	<g transform="matrix(1 0 0 1 1289 1933)">
		<path d="M2.8,1.9l1.7,1.7c0.9,0.9,1.8,0.8,2.8-0.2L18-8.4l-1-1L6.4,2.3C6,2.7,5.7,2.8,5.2,2.3L4.1,1.1C3.6,0.7,3.7,0.3,4.1,0
			l11.5-10.8l-1-1L3-0.9C2.1,0,2,1,2.8,1.9z M9.3-16.3c-0.4,0.4-0.4,1-0.2,1.4s0.7,0.6,1.3,0.4c1.5-0.3,3-0.4,4.4,0.5l-0.6,1.5
			c-0.3,0.8-0.2,1.4,0.4,2l2.3,2.3c0.5,0.5,0.9,0.5,1.5,0.4l1-0.2l0.7,0.7v0.6c0,0.5,0.1,0.9,0.6,1.4l0.8,0.7c0.5,0.5,1.1,0.5,1.6,0
			L26-7.5C26.5-8,26.4-8.6,26-9l-1-0.9c-0.5-0.5-0.8-0.6-1.3-0.6h-0.6l-0.6-0.6l0.2-1.1c0.1-0.6,0-1-0.6-1.6L19.9-16
			C16.6-19.3,12.1-19.2,9.3-16.3z M10.8-16c2.4-1.8,5.7-1.5,7.9,0.8l2.4,2.4c0.2,0.2,0.3,0.4,0.2,0.8L21-10.5L22.5-9l1-0.1
			c0.3,0,0.3,0,0.5,0.2l0.6,0.6l-2.4,2.4l-0.6-0.6c-0.2-0.2-0.2-0.3-0.2-0.5l0.1-1L20-9.5l-1.5,0.3c-0.3,0.1-0.5,0-0.7-0.2l-2-2
			c-0.3-0.2-0.3-0.4-0.1-0.8l0.9-2.1C15-15.8,13-16.4,11-15.8C10.7-15.7,10.6-15.8,10.8-16z"/>
	</g>
	<text transform="matrix(1 0 0 1 1289 1953)" class="st2 st3">Exporting</text>
	<text transform="matrix(1 0 0 1 1289 1971)" class="st4 st3">Symbols should be outlined when exporting to ensure the</text>
	<text transform="matrix(1 0 0 1 1289 1989)" class="st4 st3">design is preserved when submitting to Xcode.</text>
	<text id="template-version" transform="matrix(1 0 0 1 2952.4141 1933)" class="st4 st3">Template v.4.0</text>
	<text transform="matrix(1 0 0 1 2865.4575 1951)" class="st4 st3">Requires Xcode 14 or greater</text>
	<text id="descriptive-name" transform="matrix(1 0 0 1 2918.2256 1969)" class="st4 st3">Generated from lock</text>
	<text transform="matrix(1 0 0 1 2912.4111 1987)" class="st4 st3">Typeset at 100 points</text>
	<text transform="matrix(1 0 0 1 263 726)" class="st4 st3">Small</text>
	<text transform="matrix(1 0 0 1 263 1156)" class="st4 st3">Medium</text>
	<text transform="matrix(1 0 0 1 263 1586)" class="st4 st3">Large</text>
</g>
<g id="Guides">
	<g id="H-reference" transform="matrix(1 0 0 1 339 696)">
		<path class="st6" d="M1,0h2.6l25.7-67.1H30v-3.3h-1.9L1,0z M11.7-24.5H47l-0.8-2.2H12.4L11.7-24.5z M55.1,0h2.6L30.6-70.5h-1.2
			v3.3L55.1,0z"/>
	</g>
	<line id="Baseline-S" class="st7" x1="263" y1="696" x2="3036" y2="696"/>
	<line id="Capline-S" class="st7" x1="263" y1="625.5" x2="3036" y2="625.5"/>
	<g id="H-reference_00000070817030170495104230000010990593485096947389_" transform="matrix(1 0 0 1 339 1126)">
		<path class="st6" d="M1,0h2.6l25.7-67.1H30v-3.3h-1.9L1,0z M11.7-24.5H47l-0.8-2.2H12.4L11.7-24.5z M55.1,0h2.6L30.6-70.5h-1.2
			v3.3L55.1,0z"/>
	</g>
	<line id="Baseline-M" class="st7" x1="263" y1="1126" x2="3036" y2="1126"/>
	<line id="Capline-M" class="st7" x1="263" y1="1055.5" x2="3036" y2="1055.5"/>
	<g id="H-reference_00000062170638971126172840000011702542488853194429_" transform="matrix(1 0 0 1 339 1556)">
		<path class="st6" d="M1,0h2.6l25.7-67.1H30v-3.3h-1.9L1,0z M11.7-24.5H47l-0.8-2.2H12.4L11.7-24.5z M55.1,0h2.6L30.6-70.5h-1.2
			v3.3L55.1,0z"/>
	</g>
	<line id="Baseline-L" class="st7" x1="263" y1="1556" x2="3036" y2="1556"/>
	<line id="Capline-L" class="st7" x1="263" y1="1485.5" x2="3036" y2="1485.5"/>
	<line id="left-margin-Regular-M" class="st5" x1="1396.6" y1="1030.8" x2="1396.6" y2="1150.1"/>
	<line id="right-margin-Regular-M" class="st5" x1="1503.1" y1="1030.8" x2="1503.1" y2="1150.1"/>
</g>
<g id="Symbols">
	<g id="Semibold-L" transform="matrix(1 0 0 1 1973.1 1556)">
		<path d="M34.2,26h72c9.4,0,14.4-5.2,14.4-15.3V-35c0-10.1-5-15.2-14.4-15.2h-72c-9.4,0-14.4,5.2-14.4,15.2v45.7
			C19.7,20.8,24.8,26,34.2,26z M36.5,14.8c-2.8,0-4.6-1.8-4.6-5.1v-43.8c0-3.2,1.7-5,4.6-5h67.4c2.8,0,4.5,1.8,4.5,5V9.8
			c0,3.2-1.7,5.1-4.5,5.1L36.5,14.8L36.5,14.8z M37.6-45.2h11.6v-20.4c0-14.5,9.3-22.9,20.9-22.9s21,8.4,21,22.9v20.4h11.6v-19.6
			c0-22.5-14.9-34.9-32.6-34.9S37.5-87.3,37.5-64.8L37.6-45.2z"/>
	</g>
	<g id="Regular-L" transform="matrix(1 0 0 1 1381.26 1556)">
		<path d="M33.4,24.5h70.4c8.8,0,13.7-5,13.7-14.4v-44.4c0-9.4-4.9-14.4-13.7-14.4H33.4c-8.7,0-13.6,5-13.6,14.4V10
			C19.7,19.4,24.6,24.5,33.4,24.5z M33.6,16.3c-3.1,0-5.1-2.1-5.1-5.7v-45.5c0-3.6,2-5.7,5.1-5.7h70c3.2,0,5.1,2.1,5.1,5.7v45.5
			c0,3.6-2,5.7-5.1,5.7H33.6z M36.9-44.7h8.5v-19.9c0-16.3,10.3-25.5,23.1-25.5c12.7,0,23.1,9.2,23.1,25.5v19.9h8.5v-18.9
			c0-22.8-14.8-34.6-31.7-34.6S36.8-86.4,36.8-63.6v18.9H36.9z"/>
	</g>
	<g id="Semibold-M" transform="matrix(1 0 0 1 1988.53 1126)">
		<path d="M26.5,12.7H83c7.6,0,11.5-4,11.5-12.2v-35.3C94.5-43,90.6-47,83-47H26.5C18.9-47,15-43,15-34.8V0.4
			C14.9,8.7,18.9,12.7,26.5,12.7z M28.7,2.9c-2,0-3.1-1.2-3.1-3.4v-33.3c0-2.3,1.1-3.4,3.1-3.4h52c2,0,3.1,1.1,3.1,3.4v33.3
			c0,2.3-1.1,3.4-3.1,3.4H28.7z M29.2-42.7h10.2v-16.4c0-10.8,7-16.8,15.4-16.8s15.4,6,15.4,16.8v16.4h10.2v-15.6
			c0-17.8-11.8-27.3-25.6-27.3c-13.7,0-25.5,9.6-25.5,27.3L29.2-42.7z"/>
	</g>
	<g id="Regular-M" transform="matrix(1 0 0 1 1396.59 1126)">
		<path d="M25.9,11.3h54.7c7.2,0,11-3.9,11-11.6v-33.6c0-7.7-3.8-11.6-11-11.6H25.9c-7.2,0-11,3.9-11,11.6v33.6
			C14.9,7.5,18.7,11.3,25.9,11.3z M26.2,4c-2.1,0-3.4-1.3-3.4-3.7v-34.7c0-2.4,1.3-3.7,3.4-3.7h54.2c2.1,0,3.4,1.3,3.4,3.7V0.3
			c0,2.4-1.2,3.7-3.4,3.7H26.2z M28.5-41.7h7.7v-16.5c0-12.3,7.9-18.9,17-18.9s17.1,6.5,17.1,18.9v16.5H78v-15.4
			c0-18.4-12-27.3-24.8-27.3s-24.7,8.9-24.7,27.3V-41.7z"/>
	</g>
	<g id="Semibold-S" transform="matrix(1 0 0 1 2000.21 696)">
		<path d="M20.9,2.6h44.3c6.2,0,9.3-3.1,9.3-9.8v-27.4c0-6.6-3.1-9.8-9.3-9.8H20.9c-6.2,0-9.3,3.1-9.3,9.8v27.4
			C11.6-0.6,14.7,2.6,20.9,2.6z M22.9-5.8c-1.4,0-2.1-0.8-2.1-2.3v-25.7c0-1.6,0.8-2.3,2.1-2.3h40.4c1.4,0,2.1,0.7,2.1,2.3v25.7
			c0,1.6-0.7,2.3-2.1,2.3C63.3-5.8,22.9-5.8,22.9-5.8z M22.9-40.7h8.7V-54c0-8.2,5.3-12.6,11.5-12.6S54.7-62.2,54.7-54v13.3h8.7
			v-12.6C63.3-67.6,53.8-75,43-75c-10.7,0-20.2,7.4-20.2,21.6L22.9-40.7z"/>
	</g>
	<g id="Regular-S" transform="matrix(1 0 0 1 1408.02 696)">
		<path d="M20.5,1.5h42.6c5.9,0,8.9-3,8.9-9.4v-25.7c0-6.3-3-9.4-8.9-9.4H20.5c-5.9,0-8.9,3-8.9,9.4v25.7
			C11.6-1.5,14.6,1.5,20.5,1.5z M20.8-5c-1.4,0-2.1-0.8-2.1-2.4v-26.7c0-1.6,0.8-2.3,2.1-2.3h42c1.4,0,2.1,0.7,2.1,2.3v26.7
			C65-5.8,64.3-5,62.8-5H20.8z M22.3-39.6h6.9v-13.7c0-9.5,6.1-14.1,12.6-14.1c6.6,0,12.7,4.6,12.7,14.1v13.7h6.9v-12.6
			c0-15-9.8-21.7-19.6-21.7s-19.5,6.7-19.5,21.7C22.3-52.2,22.3-39.6,22.3-39.6z"/>
	</g>
</g>
</svg>
