<?xml version="1.0" encoding="UTF-8"?>
<svg width="1024px" height="1024px" viewBox="0 0 1024 1024" version="1.1" xmlns="http://www.w3.org/2000/svg" xmlns:xlink="http://www.w3.org/1999/xlink">
    <title>Frame</title>
    <g id="Frame" stroke="none" fill="none" fill-rule="nonzero">
        <path d="M777.902439,152.384237 L777.972289,140.353659 C788.682554,144.646924 800.172806,147.843284 812.443045,149.942738 C824.713284,152.042191 837.55396,153.091918 850.965075,153.091918 C864.422756,153.091918 877.286716,152.042191 889.556955,149.942738 C901.827194,147.843284 913.317446,144.670513 924.027711,140.424427 L924.097561,152.384237 C913.107897,156.300073 901.466305,159.225155 889.172783,161.159483 C876.879261,163.093811 864.143358,164.060976 850.965075,164.060976 C837.833359,164.060976 825.120739,163.093811 812.827217,161.159483 C800.533695,159.225155 788.892103,156.300073 777.902439,152.384237 Z M840.048895,176.902439 C834.837437,176.902439 832.231707,174.309608 832.231707,169.123945 L832.231707,158.134146 L869.768293,158.134146 L869.768293,169.123945 C869.768293,174.309608 867.162563,176.902439 861.951105,176.902439 L840.048895,176.902439 Z M791.623326,223.329268 C784.438877,223.329268 779.038877,221.570397 775.423326,218.052656 C771.807775,214.534914 770,209.188412 770,202.01315 L770,134.01124 C770,126.835978 771.807775,121.489477 775.423326,117.971735 C779.038877,114.453993 784.438877,112.695122 791.623326,112.695122 L910.376674,112.695122 C917.607775,112.695122 923.019438,114.453993 926.611663,117.971735 C930.203888,121.489477 932,126.835978 932,134.01124 L932,202.01315 C932,209.188412 930.203888,214.534914 926.611663,218.052656 C923.019438,221.570397 917.607775,223.329268 910.376674,223.329268 L791.623326,223.329268 Z M792.336385,211.47561 L910.65142,211.47561 C914.052482,211.47561 916.649869,210.593911 918.44358,208.830514 C920.237291,207.067117 921.134146,204.398818 921.134146,200.825618 L921.134146,134.210967 C921.134146,130.637767 920.237291,127.969469 918.44358,126.206071 C916.649869,124.442674 914.052482,123.560976 910.65142,123.560976 L792.336385,123.560976 C788.935322,123.560976 786.337936,124.442674 784.544225,126.206071 C782.750514,127.969469 781.853659,130.637767 781.853659,134.210967 L781.853659,200.825618 C781.853659,204.398818 782.750514,207.067117 784.544225,208.830514 C786.337936,210.593911 788.935322,211.47561 792.336385,211.47561 Z M815.439024,118.621951 L815.439024,107.121399 C815.439024,100.609039 817.215904,95.7940487 820.769664,92.6764292 C824.323423,89.5588097 829.092943,88 835.078222,88 L866.921778,88 C873.281137,88 878.144177,89.5588097 881.510896,92.6764292 C884.877616,95.7940487 886.560976,100.609039 886.560976,107.121399 L886.560976,118.48339 L875.689277,118.48339 L875.689277,106.359315 C875.689277,103.726658 874.941117,101.694432 873.444797,100.262637 C871.948477,98.830841 869.844278,98.1149432 867.132198,98.1149432 L834.937942,98.1149432 C832.179102,98.1149432 830.051523,98.830841 828.555203,100.262637 C827.058883,101.694432 826.310723,103.726658 826.310723,106.359315 L826.310723,118.621951 L815.439024,118.621951 Z" id="Shape" fill="#FFFFFF"></path>
    </g>
</svg>