<?xml version="1.0" encoding="UTF-8"?>
<svg width="1024px" height="1024px" viewBox="0 0 1024 1024" version="1.1" xmlns="http://www.w3.org/2000/svg" xmlns:xlink="http://www.w3.org/1999/xlink">
    <title>Frame</title>
    <g id="Frame" stroke="none" fill="none" fill-rule="nonzero">
        <path d="M690.739496,536.665819 C685.674937,540.635282 680.639639,544.662859 675.602005,548.699513 L670.562423,552.737378 C659.63657,561.484771 648.65031,570.198052 637.282266,578.378478 C579.190723,620.182044 516.393434,653.006484 448.634,676.12328 C436.194195,680.366374 436.138068,680.609641 439.753163,692.575831 C447.38007,717.815454 457.207414,742.1281 472.898763,763.493371 C501.436839,802.355963 532.054169,802.080686 560.383044,762.810942 C584.257469,729.713786 594.838702,691.218656 603.993796,652.226749 C605.557701,645.570188 606.789946,638.818879 607.825746,632.058609 C611.110457,610.613957 611.009683,612.667645 632.168322,602.318541 C629.546931,618.566236 627.689634,633.381215 624.700867,647.96445 C616.313693,688.905056 605.252829,729.064646 582.525183,764.672578 C575.256724,776.061328 566.335067,786.934096 556.244947,795.850483 C531.895993,817.370676 502.274919,817.153016 477.0662,796.573883 C458.994551,781.821642 447.05989,762.36794 437.6535,741.423905 C431.362162,727.412989 426.248219,712.85024 421.023297,698.383519 C416.417048,685.62991 416.737228,685.907747 403.020531,688.362186 C386.816384,691.262188 370.5357,693.885634 354.192511,695.812567 C334.204887,698.168419 314.353754,696.244047 295.178698,690.155962 C260.849326,679.255026 245.290641,652.857964 252.575682,617.365264 C254.6307,607.354175 254.179132,599.670769 247.923512,590.614824 C237.774713,575.918918 241.359193,554.173382 253.412487,541.492754 C265.959443,528.289741 287.507145,524.909606 303.764868,533.595529 C319.57485,542.039465 327.728586,559.832548 324.396678,578.617905 C321.295655,596.089618 306.16175,609.806053 287.805639,611.777799 C272.286497,613.44482 270.364144,615.530517 270.028657,631.04969 C269.634492,649.270411 277.774197,662.13541 295.701701,669.459037 C317.967574,678.554673 341.288381,678.132156 364.624496,675.206547 C427.590167,667.313162 485.392144,643.986389 541.163341,614.905704 C586.21809,591.413764 628.264938,563.298467 667.19418,530.544445 C679.184968,520.455254 679.156904,520.420684 690.739496,536.665819 Z M737.975651,334.458048 C773.174384,345.804667 788.612738,374.395944 779.968688,410.900787 C774.599326,433.569695 763.217653,453.248606 749.571638,471.635481 C741.101082,483.052529 731.962066,494.05469 722.275781,504.446047 C716.746957,510.376099 717.110527,513.782262 722.223478,519.946647 C736.007267,536.567696 750.021956,553.250209 761.48272,571.468057 C769.826984,584.731602 776.117392,599.991467 780.056711,615.212915 C788.994169,649.750891 772.997064,678.024602 739.539642,689.309756 C730.145489,692.479023 723.093495,695.714878 718.367079,706.074222 C710.669588,722.953934 691.036777,730.415479 673.790776,726.087347 C654.418206,721.225242 642.030017,706.312397 641.473818,687.181545 C640.921446,668.126242 651.864282,651.770259 668.902346,646.184665 C687.535019,640.077902 705.925311,646.129603 717.055673,662.029723 C725.953584,674.740087 725.980374,674.747771 739.302365,668.445089 C756.331499,660.388107 763.60291,647.931284 762.473929,628.628842 C761.369184,609.731043 752.920314,593.535124 743.193207,578.031963 C721.111079,542.835803 691.743508,514.199708 659.945754,488.131041 C599.135069,438.280699 531.593864,400.002347 458.067139,372.394504 C441.860822,366.31079 441.809794,366.447805 450.313519,349.267172 C543.891479,381.355528 627.113419,431.205869 701.491026,498.071657 C724.768471,474.15681 744.98172,449.140724 757.409454,418.50831 C758.478479,415.873016 759.314054,413.127598 760.080741,410.38346 C768.759234,379.307989 757.15942,359.089981 725.951033,351.266051 C699.94617,344.745683 673.738473,346.896944 648.131624,352.428756 C623.228954,357.806908 598.511259,364.756248 574.477331,373.203787 C560.849175,377.995464 549.702229,379.205548 537.797526,367.278857 C540.711193,365.629557 543.136272,363.875255 545.830522,362.790661 C588.184579,345.753446 631.536223,332.683258 677.295086,328.723914 C697.94717,326.9376 718.258645,328.102866 737.975651,334.458048 Z M557.69438,229.584575 C565.280446,236.381611 571.827814,240.032488 582.848983,238.961564 C600.779916,237.21811 616.491813,250.342051 622.246759,268.268497 C627.784779,285.517288 621.15702,304.784951 606.163534,315.02662 C590.968434,325.404078 571.279116,324.655968 556.853469,313.151223 C542.699618,301.861687 537.515062,282.441584 543.863368,265.26581 C544.376655,263.877837 545.051203,262.364645 545.742996,260.821909 L546.040116,260.159207 C548.022351,255.732853 549.977429,251.176903 548.54644,248.722855 C545.153445,242.898106 537.845557,238.81681 531.433449,235.434945 C517.209416,227.932073 502.658717,230.512026 491.93359,241.070105 C479.947733,252.866921 468.542476,266.225287 460.489379,280.897969 C435.684411,326.094542 425.672591,375.970642 419.848738,426.646092 C411.785433,496.799291 412.990016,566.80133 425.68918,636.440843 C425.79582,637.025697 425.936379,637.623066 426.084952,638.226745 L426.184903,638.630065 C426.218426,638.764771 426.252061,638.89972 426.285523,639.034845 L426.385106,639.440678 C427.287981,643.164391 427.845142,646.969276 422.144336,649.439245 C412.510224,653.614055 408.440928,652.381724 406.903299,641.707072 C406.529547,639.110466 406.149363,636.513694 405.766111,633.916619 L404.996515,628.722026 L404.224718,623.526385 C401.269588,603.607447 398.39776,583.660097 397.124994,563.623145 C393.096531,500.183717 395.241557,436.949251 408.465173,374.469299 C411.578485,359.757624 411.984148,357.721675 400.778541,355.182979 L399.977803,355.00488 C398.338201,354.646386 396.468496,354.272136 394.3445,353.846329 C366.345601,348.231665 338.305869,344.169584 309.790173,350.149336 C275.786223,357.279434 262.931383,378.460924 272.980208,411.686465 C279.359139,432.774441 290.583198,451.586064 305.00757,467.729345 C324.701992,489.770392 345.265398,511.246514 367.315392,530.854925 C378.332733,540.654647 384.752497,549.612746 380.149816,567.599398 C363.688883,553.507014 348.224538,541.123496 333.738917,527.679303 C308.186189,503.962695 284.215752,478.57437 267.891356,447.409973 C260.596227,433.485401 254.917843,418.164529 251.589927,402.802665 C245.320736,373.86082 258.738311,349.5716 285.785283,337.417384 C304.303195,329.094666 324.157122,326.281569 344.128445,327.811094 C361.525788,329.142421 378.837162,331.894313 396.102565,334.702312 L400.810201,335.468496 C401.594628,335.596083 402.378966,335.72353 403.163221,335.850709 C416.384286,337.995119 415.575275,338.184708 420.962722,325.169653 C430.311001,302.5893 439.70139,279.921839 450.995631,258.300963 C456.653599,247.467466 465.543779,237.744605 474.71086,229.460317 C500.583873,206.080615 531.638892,206.238179 557.69438,229.584575 Z M521.831296,431.831933 C531.093737,431.831933 538.039612,438.818577 538.039612,447.74845 C538.039612,451.243697 536.110627,456.289679 532.637689,462.891526 C529.163477,469.489525 525.305508,484.242671 522.990216,507.535763 C543.442809,492.397818 555.790606,479.58277 559.266094,473.759497 C563.895402,465.608198 568.139678,462.501597 574.699246,462.501597 C583.962963,462.501597 590.907563,469.87817 590.907563,478.808044 C590.907563,488.902572 584.347995,494.335917 572.771536,495.114491 C560.807496,495.889217 545.371794,500.15919 524.534169,509.478991 C544.600455,518.797511 560.034882,523.068766 571.998922,523.84221 C583.962963,524.232138 590.907563,529.665482 590.907563,540.148656 C590.907563,549.07853 583.962963,556.455103 574.699246,556.455103 C568.139678,556.455103 563.51037,552.959857 559.266094,545.971929 C555.019267,538.985284 544.214148,527.338738 522.990216,511.805735 C524.21823,521.383145 525.507391,529.485377 526.833451,536.185774 L527.048807,537.260049 C528.989857,546.818138 531.006712,553.398733 533.023996,557.229829 C536.110627,563.053102 538.039612,567.713003 538.039612,571.208249 C538.039612,580.138123 531.093737,587.12605 521.831296,587.12605 C512.956436,587.12605 506.010561,580.138123 506.010561,571.208249 C506.010561,567.713003 508.327127,562.668304 511.027451,556.845031 C513.727774,551.017911 517.973326,537.82063 520.674924,511.805735 C501.766284,525.785438 490.96244,536.268612 485.557968,544.418628 C480.542352,551.795202 476.681833,556.455103 468.964619,556.455103 C460.088485,556.455103 452.756303,549.07853 452.756303,540.148656 C452.756303,529.665482 458.932114,524.620784 470.893604,523.84221 C485.557968,522.678837 499.450993,518.408865 519.516004,509.478991 C499.450993,500.15919 485.172936,496.279145 470.893604,495.114491 C457.773193,493.951119 452.756303,486.959343 452.756303,478.808044 C452.756303,469.87817 460.088485,462.501597 468.964619,462.501597 C475.525462,462.501597 480.542352,466.382924 484.786629,473.759497 C488.645874,480.361344 500.607364,492.397818 520.674924,507.535763 C517.587019,483.078017 514.115356,467.936224 510.641144,461.726871 C507.554513,455.514953 506.010561,450.855051 506.010561,447.74845 C506.010561,438.818577 512.956436,431.831933 521.831296,431.831933 Z" id="Combined-Shape" fill="#0AA3EA"></path>
    </g>
</svg>