<?xml version="1.0" encoding="UTF-8"?>
<svg xmlns="http://www.w3.org/2000/svg" xmlns:xlink="http://www.w3.org/1999/xlink" width="112.5pt" height="112.5pt" viewBox="0 0 112.5 112.5" version="1.1">
<g id="surface11056">
<path style=" stroke:none;fill-rule:nonzero;fill:rgb(100%,100%,100%);fill-opacity:1;" d="M 8.960938 8.960938 L 8.960938 22.398438 C 8.949219 23.207031 9.371094 23.960938 10.070312 24.367188 C 10.769531 24.773438 11.632812 24.773438 12.328125 24.367188 C 13.027344 23.960938 13.453125 23.207031 13.441406 22.398438 L 13.441406 13.441406 L 22.398438 13.441406 C 23.207031 13.453125 23.960938 13.027344 24.367188 12.328125 C 24.773438 11.632812 24.773438 10.769531 24.367188 10.070312 C 23.960938 9.371094 23.207031 8.949219 22.398438 8.960938 Z M 89.601562 8.960938 C 88.792969 8.949219 88.039062 9.371094 87.632812 10.070312 C 87.226562 10.769531 87.226562 11.632812 87.632812 12.328125 C 88.039062 13.027344 88.792969 13.453125 89.601562 13.441406 L 98.558594 13.441406 L 98.558594 22.398438 C 98.546875 23.207031 98.972656 23.960938 99.671875 24.367188 C 100.367188 24.773438 101.230469 24.773438 101.929688 24.367188 C 102.628906 23.960938 103.050781 23.207031 103.039062 22.398438 L 103.039062 8.960938 Z M 56 24.640625 C 38.707031 24.640625 24.640625 38.707031 24.640625 56 C 24.640625 59.109375 25.09375 62.121094 25.9375 64.960938 L 11.199219 64.960938 C 10.390625 64.949219 9.640625 65.371094 9.234375 66.070312 C 8.828125 66.769531 8.828125 67.632812 9.234375 68.328125 C 9.640625 69.027344 10.390625 69.453125 11.199219 69.441406 L 100.800781 69.441406 C 101.609375 69.453125 102.359375 69.027344 102.765625 68.328125 C 103.171875 67.632812 103.171875 66.769531 102.765625 66.070312 C 102.359375 65.371094 101.609375 64.949219 100.800781 64.960938 L 86.0625 64.960938 C 86.90625 62.117188 87.359375 59.109375 87.359375 56 C 87.359375 38.707031 73.292969 24.640625 56 24.640625 Z M 56 29.121094 C 70.871094 29.121094 82.878906 41.128906 82.878906 56 C 82.878906 59.152344 82.3125 62.15625 81.324219 64.960938 L 65.996094 64.960938 C 68.132812 62.582031 69.441406 59.449219 69.441406 56 C 69.441406 54.347656 69.125 52.773438 68.582031 51.308594 C 67.570312 52.964844 65.761719 54.078125 63.683594 54.078125 C 60.5 54.078125 57.921875 51.503906 57.921875 48.320312 C 57.921875 46.242188 59.039062 44.433594 60.695312 43.421875 C 59.230469 42.875 57.652344 42.558594 56 42.558594 C 48.578125 42.558594 42.558594 48.578125 42.558594 56 C 42.558594 59.449219 43.867188 62.582031 46.003906 64.960938 L 30.683594 64.960938 C 29.691406 62.15625 29.121094 59.152344 29.121094 56 C 29.121094 41.128906 41.128906 29.121094 56 29.121094 Z M 77 73.871094 C 76.382812 73.886719 75.796875 74.160156 75.386719 74.621094 C 70.492188 79.714844 63.632812 82.878906 56 82.878906 C 48.363281 82.878906 41.5 79.710938 36.605469 74.609375 C 36.191406 74.167969 35.617188 73.910156 35.011719 73.898438 C 34.101562 73.878906 33.269531 74.414062 32.90625 75.253906 C 32.546875 76.089844 32.730469 77.0625 33.371094 77.714844 C 39.078125 83.65625 47.121094 87.359375 56 87.359375 C 64.875 87.359375 72.910156 83.660156 78.613281 77.722656 C 79.277344 77.078125 79.480469 76.097656 79.125 75.246094 C 78.765625 74.394531 77.921875 73.847656 77 73.871094 Z M 11.164062 87.328125 C 9.929688 87.347656 8.941406 88.363281 8.960938 89.601562 L 8.960938 103.039062 L 22.398438 103.039062 C 23.207031 103.050781 23.960938 102.628906 24.367188 101.929688 C 24.773438 101.230469 24.773438 100.367188 24.367188 99.671875 C 23.960938 98.972656 23.207031 98.546875 22.398438 98.558594 L 13.441406 98.558594 L 13.441406 89.601562 C 13.449219 88.996094 13.210938 88.410156 12.78125 87.984375 C 12.355469 87.554688 11.769531 87.320312 11.164062 87.328125 Z M 100.765625 87.328125 C 99.53125 87.347656 98.542969 88.363281 98.558594 89.601562 L 98.558594 98.558594 L 89.601562 98.558594 C 88.792969 98.546875 88.039062 98.972656 87.632812 99.671875 C 87.226562 100.367188 87.226562 101.230469 87.632812 101.929688 C 88.039062 102.628906 88.792969 103.050781 89.601562 103.039062 L 103.039062 103.039062 L 103.039062 89.601562 C 103.046875 88.996094 102.8125 88.410156 102.382812 87.984375 C 101.953125 87.554688 101.371094 87.320312 100.765625 87.328125 Z M 100.765625 87.328125 "/>
</g>
</svg>
