<?xml version="1.0" encoding="utf-8"?>
<!-- Generator: Adobe Illustrator 24.1.1, SVG Export Plug-In . SVG Version: 6.00 Build 0)  -->
<svg version="1.1" id="Layer_1" xmlns="http://www.w3.org/2000/svg" xmlns:xlink="http://www.w3.org/1999/xlink" x="0px" y="0px"
	 viewBox="0 0 3300 2200" style="enable-background:new 0 0 3300 2200;" xml:space="preserve">
<style type="text/css">
	.st0{fill:#FFFFFF;}
	.st1{fill:none;stroke:#000000;stroke-width:0.5;}
	.st2{font-family:'Arial-BoldMT';}
	.st3{font-size:13px;}
	.st4{font-family:'ArialMT';}
	.st5{fill:none;stroke:#00AEEF;stroke-width:0.5;}
	.st6{fill:#27AAE1;}
	.st7{fill:none;stroke:#27AAE1;stroke-width:0.5;}
</style>
<g id="Notes">
	<rect id="artboard" class="st0" width="3300" height="2200"/>
	<line class="st1" x1="263" y1="292" x2="3036" y2="292"/>
	<text transform="matrix(1 0 0 1 263 322)" class="st2 st3">Weight/Scale Variations</text>
	<text transform="matrix(1 0 0 1 534.0632 322)" class="st4 st3">Ultralight</text>
	<text transform="matrix(1 0 0 1 843.7775 322)" class="st4 st3">Thin</text>
	<text transform="matrix(1 0 0 1 1139.035 322)" class="st4 st3">Light</text>
	<text transform="matrix(1 0 0 1 1427.0773 322)" class="st4 st3">Regular</text>
	<text transform="matrix(1 0 0 1 1723.4419 322)" class="st4 st3">Medium</text>
	<text transform="matrix(1 0 0 1 2016.1719 322)" class="st4 st3">Semibold</text>
	<text transform="matrix(1 0 0 1 2326.9705 322)" class="st4 st3">Bold</text>
	<text transform="matrix(1 0 0 1 2618.2659 322)" class="st4 st3">Heavy</text>
	<text transform="matrix(1 0 0 1 2917.5054 322)" class="st4 st3">Black</text>
	<line class="st1" x1="263" y1="1903" x2="3036" y2="1903"/>
	<g transform="matrix(1 0 0 1 263 1933)">
		<path d="M9.2,0.8c4.3,0,7.9-3.6,7.9-7.9S13.5-15,9.2-15s-7.9,3.6-7.9,7.9C1.4-2.7,5,0.8,9.2,0.8z M9.2-0.7C5.7-0.7,2.9-3.5,2.9-7
			c0-3.6,2.8-6.4,6.4-6.4s6.4,2.8,6.4,6.4C15.6-3.5,12.8-0.7,9.2-0.7z M5.7-7.1c0,0.4,0.3,0.7,0.8,0.7h2.1v2.1
			c0,0.4,0.3,0.7,0.7,0.7S10-3.9,10-4.3v-2.1h2.1c0.4,0,0.7-0.3,0.7-0.7c0-0.4-0.3-0.7-0.7-0.7H10v-2.1c0-0.4-0.3-0.8-0.7-0.8
			s-0.7,0.3-0.7,0.8v2.1H6.4C6-7.8,5.7-7.5,5.7-7.1z"/>
	</g>
	<g transform="matrix(1 0 0 1 281.867 1933)">
		<path d="M11.7,2.9c5.4,0,10-4.5,10-10c0-5.4-4.5-10-10-10c-5.4,0-10,4.5-10,10C1.7-1.6,6.3,2.9,11.7,2.9z M11.7,1.3
			C7.1,1.3,3.4-2.4,3.4-7s3.7-8.3,8.3-8.3S20-11.7,20-7.1C20-2.4,16.3,1.3,11.7,1.3z M7.2-7.1c0,0.5,0.3,0.8,0.8,0.8h2.9v2.9
			c0,0.5,0.3,0.8,0.8,0.8s0.8-0.3,0.8-0.8v-2.9h2.9c0.5,0,0.8-0.3,0.8-0.8s-0.3-0.8-0.8-0.8h-2.9v-2.9c0-0.5-0.3-0.8-0.8-0.8
			s-0.8,0.3-0.8,0.8v2.9H8C7.5-7.9,7.2-7.5,7.2-7.1z"/>
	</g>
	<g transform="matrix(1 0 0 1 305.646 1933)">
		<path d="M15,5.7c7,0,12.7-5.8,12.7-12.7c0-7-5.8-12.7-12.7-12.7C8-19.8,2.3-14,2.3-7.1C2.3-0.1,8,5.7,15,5.7z M15,3.8
			C8.9,3.8,4.1-1,4.1-7S8.9-17.9,15-17.9c6,0,10.9,4.9,10.9,10.9S21,3.8,15,3.8z M9.2-7.1c0,0.5,0.4,0.9,0.9,0.9H14v4
			c0,0.5,0.4,0.9,0.9,0.9s0.9-0.4,0.9-0.9v-4h4c0.5,0,0.9-0.4,0.9-0.9S20.3-8,19.8-8h-4v-3.9c0-0.5-0.4-0.9-0.9-0.9S14-12.4,14-11.9
			V-8h-3.9C9.6-8,9.2-7.6,9.2-7.1z"/>
	</g>
	<text transform="matrix(1 0 0 1 263 1953)" class="st2 st3">Design Variations</text>
	<text transform="matrix(1 0 0 1 263 1971)" class="st4 st3">Symbols are supported in up to nine weights and three scales.</text>
	<text transform="matrix(1 0 0 1 263 1989)" class="st4 st3">For optimal layout with text and other symbols, vertically align</text>
	<text transform="matrix(1 0 0 1 263 2007)" class="st4 st3">symbols with the adjacent text.</text>
	<line class="st5" x1="776" y1="1919" x2="776" y2="1933"/>
	<g transform="matrix(1 0 0 1 776 1933)">
		<path d="M3.3,0.2c0.5,0,0.8-0.2,1-0.7L5.5-4h5.8l1.3,3.4C12.7,0,13,0.2,13.5,0.2s0.9-0.3,0.9-0.8c0-0.2,0-0.3-0.1-0.5L9.7-13.4
			C9.4-14,9-14.3,8.4-14.3s-1,0.3-1.2,0.9L2.6-1.2C2.5-1,2.5-0.8,2.5-0.6C2.5-0.1,2.8,0.2,3.3,0.2z M6-5.5l2.4-6.6l0,0l2.4,6.6
			C10.8-5.5,6-5.5,6-5.5z"/>
	</g>
	<line class="st5" x1="793.2" y1="1919" x2="793.2" y2="1933"/>
	<text transform="matrix(1 0 0 1 776 1953)" class="st2 st3">Margins</text>
	<text transform="matrix(1 0 0 1 776 1971)" class="st4 st3">Leading and trailing margins on the left and right side of each symbol</text>
	<text transform="matrix(1 0 0 1 776 1989)" class="st4 st3">can be adjusted by modifying the x-location of the margin guidelines.</text>
	<text transform="matrix(1 0 0 1 776 2007)" class="st4 st3">Modifications are automatically applied proportionally to all</text>
	<text transform="matrix(1 0 0 1 776 2025)" class="st4 st3">scales and weights.</text>
	<g transform="matrix(1 0 0 1 1289 1933)">
		<path d="M2.8,1.9l1.7,1.7c0.9,0.9,1.8,0.8,2.8-0.2L18-8.4l-1-1L6.4,2.3C6,2.7,5.7,2.8,5.2,2.3L4.1,1.1C3.6,0.7,3.7,0.3,4.1,0
			l11.5-10.8l-1-1L3-0.9C2.1,0,2,1,2.8,1.9z M9.3-16.3c-0.4,0.4-0.4,1-0.2,1.4s0.7,0.6,1.3,0.4c1.5-0.3,3-0.4,4.4,0.5l-0.6,1.5
			c-0.3,0.8-0.2,1.4,0.4,2l2.3,2.3c0.5,0.5,0.9,0.5,1.5,0.4l1-0.2l0.7,0.7v0.6c0,0.5,0.1,0.9,0.6,1.4l0.8,0.7c0.5,0.5,1.1,0.5,1.6,0
			L26-7.5C26.5-8,26.4-8.6,26-9l-1-0.9c-0.5-0.5-0.9-0.6-1.3-0.6h-0.6l-0.6-0.6l0.2-1.1c0.1-0.6,0-1-0.6-1.6L19.9-16
			C16.6-19.3,12.1-19.2,9.3-16.3z M10.8-16c2.4-1.8,5.7-1.5,7.9,0.8l2.4,2.4c0.2,0.2,0.3,0.4,0.2,0.8L21-10.5L22.5-9l1-0.1
			c0.3,0,0.3,0,0.5,0.2l0.6,0.6l-2.4,2.4l-0.6-0.6c-0.2-0.2-0.2-0.3-0.2-0.5l0.1-1L20-9.5l-1.5,0.3c-0.3,0.1-0.5,0-0.7-0.2l-2-2
			c-0.3-0.2-0.3-0.4-0.1-0.8l0.9-2.1C15-15.8,13-16.4,11-15.8C10.7-15.7,10.6-15.9,10.8-16z"/>
	</g>
	<text transform="matrix(1 0 0 1 1289 1953)" class="st2 st3">Exporting</text>
	<text transform="matrix(1 0 0 1 1289 1971)" class="st4 st3">Symbols should be outlined when exporting to ensure the</text>
	<text transform="matrix(1 0 0 1 1289 1989)" class="st4 st3">design is preserved when submitting to Xcode.</text>
	<text id="template-version" transform="matrix(1 0 0 1 2952.4204 1933)" class="st4 st3">Template v.4.0</text>
	<text transform="matrix(1 0 0 1 2865.4575 1951)" class="st4 st3">Requires Xcode 14 or greater</text>
	<text id="descriptive-name" transform="matrix(1 0 0 1 2905.9302 1969)" class="st4 st3">Generated from fp.box</text>
	<text transform="matrix(1 0 0 1 2912.4175 1987)" class="st4 st3">Typeset at 100 points</text>
	<text transform="matrix(1 0 0 1 263 726)" class="st4 st3">Small</text>
	<text transform="matrix(1 0 0 1 263 1156)" class="st4 st3">Medium</text>
	<text transform="matrix(1 0 0 1 263 1586)" class="st4 st3">Large</text>
</g>
<g id="Guides">
	<g id="H-reference" transform="matrix(1 0 0 1 339 696)">
		<path class="st6" d="M1,0h2.6l25.7-67.1H30v-3.3h-1.9L1,0z M11.7-24.5H47l-0.8-2.2H12.4L11.7-24.5z M55.1,0h2.6L30.6-70.5h-1.2
			v3.3L55.1,0z"/>
	</g>
	<line id="Baseline-S" class="st7" x1="263" y1="696" x2="3036" y2="696"/>
	<line id="Capline-S" class="st7" x1="263" y1="625.5" x2="3036" y2="625.5"/>
	<g id="H-reference_1_" transform="matrix(1 0 0 1 339 1126)">
		<path class="st6" d="M1,0h2.6l25.7-67.1H30v-3.3h-1.9L1,0z M11.7-24.5H47l-0.8-2.2H12.4L11.7-24.5z M55.1,0h2.6L30.6-70.5h-1.2
			v3.3L55.1,0z"/>
	</g>
	<line id="Baseline-M" class="st7" x1="263" y1="1126" x2="3036" y2="1126"/>
	<line id="Capline-M" class="st7" x1="263" y1="1055.5" x2="3036" y2="1055.5"/>
	<g id="H-reference_2_" transform="matrix(1 0 0 1 339 1556)">
		<path class="st6" d="M1,0h2.6l25.7-67.1H30v-3.3h-1.9L1,0z M11.7-24.5H47l-0.8-2.2H12.4L11.7-24.5z M55.1,0h2.6L30.6-70.5h-1.2
			v3.3L55.1,0z"/>
	</g>
	<line id="Baseline-L" class="st7" x1="263" y1="1556" x2="3036" y2="1556"/>
	<line id="Capline-L" class="st7" x1="263" y1="1485.5" x2="3036" y2="1485.5"/>
	<line id="left-margin-Regular-M" class="st5" x1="1391.3" y1="1030.8" x2="1391.3" y2="1150.1"/>
	<line id="right-margin-Regular-M" class="st5" x1="1508.4" y1="1030.8" x2="1508.4" y2="1150.1"/>
</g>
<g id="Symbols">
	<g id="Black-L" transform="matrix(1 0 0 1 2854.19 1556)">
		<g>
			<path d="M20.1-67c2.6,0,4.5,1.9,4.5,4.2V-43c3.8-2.8,8.2-4.5,13.2-4.5c8.2,0,15.5,4.9,19.3,11.8c3.5-7.1,10.8-11.8,19.3-11.8
				c12,0,21.9,9.9,21.6,22.1c0,12-9.9,21.9-21.9,21.9c-8.2,0-15.5-4.9-19.3-11.8C53.2-8.2,45.9-3.5,37.5-3.5
				c-12,0-21.6-9.6-21.9-21.6v-37.6C15.9-65.1,17.7-67,20.1-67 M20.1-80.4c-9.2,0-16.9,7-17.8,16.3c0,0.4-0.1,0.9-0.1,1.4v37.6
				c0,0.1,0,0.2,0,0.3c0.2,9.3,3.9,18,10.5,24.6C19.3,6.2,28.1,9.9,37.5,9.9c7.1,0,13.8-2.1,19.4-5.8C62.6,7.8,69.2,9.9,76,9.9
				c19.4,0,35.2-15.8,35.3-35.1c0.2-9.4-3.4-18.4-10-25.1c-6.7-6.8-15.5-10.5-25-10.5c-7.1,0-13.8,2.1-19.4,5.8
				c-5.6-3.7-12.1-5.7-18.9-5.8v-1.9C38-72.5,29.9-80.4,20.1-80.4L20.1-80.4z"/>
			<path d="M37.5-27.8c1.2,0,2.2,1,2.2,2.2s-1,2.2-2.2,2.2s-2.2-1-2.2-2.2C35.3-26.9,36.2-27.8,37.5-27.8 M37.5-38.8
				c-7.3,0-13.2,5.9-13.2,13.2s5.9,13.2,13.2,13.2s13.2-5.9,13.2-13.2S44.8-38.8,37.5-38.8L37.5-38.8z"/>
			<path d="M76.3-27.8c1.2,0,2.2,1,2.2,2.2s-1,2.2-2.2,2.2s-2.2-1-2.2-2.2C74.1-26.9,75-27.8,76.3-27.8 M76.3-38.8
				c-7.3,0-13.2,5.9-13.2,13.2S69-12.4,76.3-12.4s13.2-5.9,13.2-13.2S83.6-38.8,76.3-38.8L76.3-38.8z"/>
			<path d="M138.3-47.8c1,0,1.9,0.3,2.8,0.9c1.9,1.4,2.4,4.2,0.9,6.1l-11.3,15.1l11.3,15l0,0c1.2,2.1,0.9,4.7-1.2,6.1
				c-0.8,0.7-1.7,1-2.7,1c-1.3,0-2.6-0.6-3.4-1.7l-9.6-12.9l-9.6,12.9c-0.8,1.1-2.1,1.6-3.4,1.6c-1,0-1.9-0.3-2.8-0.9
				c-1.9-1.4-2.4-4.2-0.9-6.1l11.3-14.8l-11.3-15c-1.4-1.9-0.9-4.7,0.9-6.1c0.8-0.7,1.7-1,2.7-1c1.3,0,2.6,0.6,3.4,1.7l9.9,12.7
				l9.6-12.9C135.7-47.2,137-47.8,138.3-47.8 M138.3-61.2L138.3-61.2c-5.1,0-9.9,2.2-13.2,5.9C121.7-58.9,117-61,112-61
				c-4.1,0-8,1.4-11.1,4c-7.5,6-9,16.9-3.3,24.6l5.2,7l-2.1,2.8l-3,4l-0.1,0.1c-5.8,7.8-4.2,19,3.6,24.8c3.1,2.3,6.9,3.6,10.8,3.6
				c5,0,9.7-2.1,13-5.7c3.3,3.6,8.1,5.8,13.1,5.8c3.9,0,7.7-1.3,10.8-3.7c7.2-5.3,9.3-15.2,4.8-23.3c-0.3-0.5-0.6-1-1-1.5l-2.8-3.7
				l-2.5-3.3l2.2-2.9l3.1-4.1c2.8-3.7,4-8.4,3.3-13.1s-3.2-9-7-11.8C146-59.9,142.2-61.2,138.3-61.2L138.3-61.2L138.3-61.2z"/>
		</g>
	</g>
	<g id="Heavy-L" transform="matrix(1 0 0 1 2558.42 1556)">
		<g>
			<path d="M19.8-67c2.6,0,4.5,1.9,4.5,4.2V-43c3.8-2.8,8.2-4.5,13.1-4.5c8.2,0,15.5,4.9,19.3,11.7c3.5-7,10.8-11.7,19.2-11.7
				c12,0,21.8,9.9,21.6,22.1c0,12-9.9,21.8-21.8,21.8c-8.2,0-15.5-4.9-19.2-11.7C53-8.3,45.7-3.6,37.2-3.6c-12,0-21.6-9.6-21.8-21.6
				v-37.6C15.6-65.1,17.5-67,19.8-67 M19.8-79.1c-8.6,0-15.7,6.5-16.6,15.2c0,0.4-0.1,38.8-0.1,38.8c0,0.1,0,0.2,0,0.2
				C3.4-16,7-7.6,13.3-1.3C19.7,5,28.2,8.5,37.2,8.5c7.1,0,13.9-2.2,19.4-6c5.6,3.9,12.2,6,19.1,6c18.7,0,33.9-15.2,34-33.9
				c0.1-9.1-3.3-17.7-9.7-24.2c-6.4-6.4-14.9-10-24-10c-7.1,0-13.9,2.2-19.4,6c-5.6-3.9-12.2-6-19.1-6c-0.3,0-0.7,0-1,0v-3.1
				C36.5-71.9,29.2-79.1,19.8-79.1L19.8-79.1z"/>
			<path d="M37.2-28.3c1.5,0,2.7,1.2,2.7,2.7s-1.2,2.7-2.7,2.7s-2.7-1.2-2.7-2.7C34.5-27.2,35.7-28.3,37.2-28.3 M37.2-38.8
				c-7.3,0-13.2,5.9-13.2,13.2s5.9,13.1,13.2,13.1s13.1-5.9,13.1-13.1C50.4-32.9,44.5-38.8,37.2-38.8L37.2-38.8z"/>
			<path d="M76-28.3c1.5,0,2.7,1.2,2.7,2.7s-1.2,2.7-2.7,2.7s-2.7-1.2-2.7-2.7C73.3-27.2,74.4-28.3,76-28.3 M76-38.8
				c-7.3,0-13.2,5.9-13.2,13.2S68.7-12.5,76-12.5s13.1-5.9,13.1-13.1C89.1-32.9,83.2-38.8,76-38.8L76-38.8z"/>
			<path d="M136.6-47.7c1,0,1.9,0.3,2.7,0.9c1.9,1.4,2.3,4.2,0.9,6.1l-11.3,15l11.3,15l0,0c1.2,2.1,0.9,4.7-1.2,6.1
				c-0.8,0.7-1.7,1-2.7,1c-1.3,0-2.6-0.6-3.4-1.7l-9.6-12.9l-9.6,12.9c-0.8,1.1-2.1,1.6-3.3,1.6c-1,0-1.9-0.3-2.7-0.9
				c-1.9-1.4-2.3-4.2-0.9-6.1L118-25.5l-11.3-15c-1.4-1.9-0.9-4.7,0.9-6.1c0.8-0.7,1.7-1,2.7-1c1.3,0,2.6,0.6,3.4,1.7l9.9,12.7
				l9.6-12.9C134.1-47.2,135.4-47.7,136.6-47.7 M136.6-59.9L136.6-59.9c-5.1,0-10,2.4-13.1,6.4c0,0,0,0,0,0.1l-0.1,0.1l0,0
				c-3.1-4.1-8-6.5-13.1-6.5c-3.8,0-7.4,1.3-10.3,3.7c-7,5.5-8.4,15.7-3,22.8l5.8,7.7L97.1-18c0,0,0,0.1-0.1,0.1
				c-5.4,7.3-3.9,17.6,3.4,23.1c2.9,2.2,6.5,3.3,10.1,3.3c5.1,0,9.9-2.4,13-6.3c3.1,4,8,6.4,13.1,6.4c3.7,0,7.2-1.2,10.1-3.5
				c6.7-4.9,8.6-14.1,4.4-21.7c-0.3-0.5-0.6-0.9-0.9-1.4l-5.8-7.7l5.8-7.7c2.6-3.5,3.7-7.8,3.1-12.2c-0.6-4.4-3-8.3-6.5-10.9
				C143.8-58.7,140.3-59.9,136.6-59.9L136.6-59.9L136.6-59.9z"/>
		</g>
	</g>
	<g id="Bold-L" transform="matrix(1 0 0 1 2262.89 1556)">
		<g>
			<path d="M19.4-66.9c2.6,0,4.5,1.9,4.5,4.2V-43c3.7-2.8,8.2-4.4,13.1-4.4c8.2,0,15.5,4.9,19.2,11.7c3.5-7,10.8-11.7,19.2-11.7
				c11.9,0,21.8,9.8,21.6,22c0,12-9.8,21.8-21.8,21.8C67-3.6,59.7-8.5,56-15.3c-3.5,7-10.8,11.7-19.2,11.7c-12,0-21.6-9.6-21.8-21.6
				v-37.5C15.2-65,17-66.9,19.4-66.9 M19.4-77.8c-7.9,0-14.5,6-15.3,14C4-63.4,4-25.2,4-25.2c0,0.1,0,0.1,0,0.2
				c0.2,8.6,3.6,16.7,9.7,22.8c6.2,6.1,14.3,9.5,23,9.5C43.9,7.3,50.6,5,56.1,1c5.5,4,12.1,6.3,19.1,6.3c18,0,32.7-14.6,32.7-32.6
				c0.1-8.8-3.2-17-9.3-23.3c-6.2-6.3-14.4-9.8-23.2-9.8c-7.2,0-13.9,2.3-19.4,6.3c-5.5-4-12.2-6.3-19.1-6.3c-0.7,0-1.5,0-2.2,0.1
				v-4.4C34.7-71.2,28-77.8,19.4-77.8L19.4-77.8z"/>
			<path d="M36.7-28.6c1.6,0,2.9,1.3,2.9,2.9s-1.3,2.9-2.9,2.9c-1.6,0-2.9-1.3-2.9-2.9C33.8-27.3,35.1-28.6,36.7-28.6 M36.7-38.8
				c-7.3,0-13.1,5.9-13.1,13.1c0,7.3,5.9,13.1,13.1,13.1c7.3,0,13.1-5.9,13.1-13.1C49.8-32.9,44-38.8,36.7-38.8L36.7-38.8z"/>
			<path d="M75.4-28.6c1.6,0,2.9,1.3,2.9,2.9s-1.3,2.9-2.9,2.9s-2.9-1.3-2.9-2.9C72.4-27.3,73.7-28.6,75.4-28.6 M75.4-38.8
				c-7.3,0-13.1,5.9-13.1,13.1c0,7.3,5.9,13.1,13.1,13.1c7.3,0,13.1-5.9,13.1-13.1S82.6-38.8,75.4-38.8L75.4-38.8z"/>
			<path d="M134.7-47.7c1,0,1.9,0.3,2.7,0.9c1.9,1.4,2.3,4.2,0.9,6.1l-11.3,15l11.3,15l0,0c1.2,2.1,0.9,4.7-1.2,6.1
				c-0.8,0.7-1.7,1-2.7,1c-1.3,0-2.6-0.6-3.4-1.7l-9.6-12.9l-9.6,12.9c-0.8,1.1-2.1,1.6-3.3,1.6c-1,0-1.9-0.3-2.7-0.9
				c-1.9-1.4-2.3-4.2-0.9-6.1l11.3-14.8l-11.3-15c-1.4-1.9-0.9-4.7,0.9-6.1c0.8-0.7,1.7-1,2.7-1c1.3,0,2.6,0.6,3.4,1.7l9.9,12.7
				l9.6-12.9C132.2-47.2,133.5-47.7,134.7-47.7 M134.7-58.6L134.7-58.6c-4.8,0-9.2,2.2-12.1,5.9l-1.1,1.4l-1-1.3
				c-2.9-3.7-7.4-6-12.1-6c-3.5,0-6.9,1.2-9.5,3.4c-6.5,5.1-7.8,14.5-2.8,21.1l6.3,8.4l-6.2,8.2c0,0,0,0.1-0.1,0.1
				c-5,6.7-3.6,16.3,3.1,21.4c2.7,2,6,3.1,9.3,3.1c4.8,0,9.3-2.2,12.1-6l0.9-1.1l0.9,1.1c2.9,3.8,7.4,6.1,12.2,6.1
				c3.4,0,6.7-1.1,9.3-3.2c6.2-4.6,8-13.1,4.1-20.1c-0.2-0.4-7.1-9.7-7.1-9.7l6.3-8.4c2.4-3.2,3.4-7.2,2.8-11.3
				c-0.6-4-2.8-7.7-6-10.1C141.4-57.5,138.1-58.6,134.7-58.6L134.7-58.6L134.7-58.6z"/>
		</g>
	</g>
	<g id="Semibold-L" transform="matrix(1 0 0 1 1966.99 1556)">
		<g>
			<path d="M19.3-66.9c2.6,0,4.4,1.9,4.4,4.2V-43c3.7-2.8,8.2-4.4,13.1-4.4c8.2,0,15.4,4.9,19.2,11.7c3.5-7,10.8-11.7,19.2-11.7
				c11.9,0,21.8,9.8,21.5,22c0,11.9-9.8,21.8-21.8,21.8c-8.2,0-15.4-4.9-19.2-11.7C52.3-8.4,45-3.7,36.6-3.7
				c-11.9,0-21.5-9.6-21.8-21.5v-37.4C15.1-65,16.9-66.9,19.3-66.9 M75.2-12.6c7.2,0,13.1-5.8,13.1-13.1s-5.8-13.1-13.1-13.1
				c-7.3,0-13.1,5.8-13.1,13.1S67.9-12.6,75.2-12.6 M36.6-12.6c7.2,0,13.1-5.8,13.1-13.1s-5.8-13.1-13.1-13.1S23.5-33,23.5-25.7
				C23.5-18.4,29.3-12.6,36.6-12.6 M19.3-76.5C12-76.5,5.9-71,5.2-63.6c0,0.3,0,38.4,0,38.4c0,0.1,0,0.1,0,0.2
				c0.2,8.3,3.5,16.1,9.4,21.9C20.4,2.8,28.2,6,36.6,6c7.2,0,14-2.4,19.3-6.6C61.3,3.6,68,6,74.9,6c17.3,0,31.4-14.1,31.4-31.4
				c0.1-8.4-3-16.4-8.9-22.4s-13.8-9.4-22.3-9.4c-7.2,0-13.9,2.4-19.3,6.6c-5.4-4.2-12.1-6.6-19-6.6c-1.1,0-2.3,0.1-3.4,0.2v-5.7
				C33.4-70.4,27.2-76.5,19.3-76.5L19.3-76.5z M75.2-22.3c-1.9,0-3.4-1.5-3.4-3.4s1.5-3.4,3.4-3.4s3.4,1.5,3.4,3.4
				S77.1-22.3,75.2-22.3L75.2-22.3z M36.6-22.3c-1.9,0-3.4-1.5-3.4-3.4s1.5-3.4,3.4-3.4s3.4,1.5,3.4,3.4S38.5-22.3,36.6-22.3
				L36.6-22.3z"/>
			<path d="M133.2-47.7c1,0,1.9,0.3,2.7,0.9c1.9,1.4,2.3,4.2,0.9,6.1l-11.2,15l11.2,15l0,0c1.2,2.1,0.9,4.7-1.2,6.1
				c-0.8,0.7-1.7,1-2.7,1c-1.3,0-2.6-0.6-3.4-1.7l-9.6-12.9l-9.6,12.9c-0.8,1.1-2.1,1.6-3.3,1.6c-1,0-1.9-0.3-2.7-0.9
				c-1.9-1.4-2.3-4.2-0.9-6.1l11.2-14.7l-11.2-15c-1.4-1.9-0.9-4.7,0.9-6.1c0.8-0.7,1.7-1,2.7-1c1.3,0,2.6,0.6,3.4,1.7l9.8,12.6
				l9.6-12.9C130.7-47.2,131.9-47.7,133.2-47.7 M133.2-57.4L133.2-57.4c-4.4,0-8.5,2-11.1,5.5l-2,2.7l-2-2.5
				c-2.6-3.4-6.8-5.5-11.1-5.5c-3.2,0-6.3,1.1-8.8,3.2c-6,4.7-7.1,13.3-2.6,19.4l6.8,9.1l-6.8,8.9c0,0,0,0.1-0.1,0.1
				c-4.6,6.2-3.3,15,2.9,19.6c2.5,1.8,5.5,2.8,8.6,2.8c4.4,0,8.5-2.1,11.1-5.5l1.8-2.4l1.8,2.4c2.6,3.5,6.8,5.6,11.2,5.6
				c3.1,0,6.1-1.1,8.6-3c5.7-4.2,7.4-12,3.8-18.5c-0.2-0.4-7.6-10.3-7.6-10.3l6.9-9.2c2.2-3,3.1-6.6,2.6-10.3s-2.5-7.1-5.5-9.3
				C139.3-56.4,136.3-57.4,133.2-57.4L133.2-57.4L133.2-57.4z"/>
		</g>
	</g>
	<g id="Medium-L" transform="matrix(1 0 0 1 1670.9 1556)">
		<g>
			<path d="M19.4-66.8c2.6,0,4.4,1.9,4.4,4.2V-43c3.7-2.8,8.2-4.4,13.1-4.4c8.2,0,15.4,4.9,19.2,11.7c3.5-7,10.7-11.7,19.1-11.7
				c11.9,0,21.7,9.8,21.5,21.9c0,11.9-9.8,21.7-21.7,21.7c-8.2,0-15.4-4.9-19.1-11.7C52.3-8.4,45-3.8,36.6-3.8
				c-11.9,0-21.5-9.6-21.7-21.5v-37.4C15.2-64.9,17-66.8,19.4-66.8 M75.2-12.6c7.2,0,13.1-5.8,13.1-13.1c0-7.2-5.8-13.1-13.1-13.1
				c-7.2,0-13.1,5.8-13.1,13.1C62.1-18.5,67.9-12.6,75.2-12.6 M36.6-12.6c7.2,0,13.1-5.8,13.1-13.1c0-7.2-5.8-13.1-13.1-13.1
				c-7.2,0-13.1,5.8-13.1,13.1C23.6-18.5,29.4-12.6,36.6-12.6 M19.4-75.3c-6.6,0-12.2,5.1-12.9,11.8c0,0.3,0,38.2,0,38.2
				c0,0.1,0,0.1,0,0.2c0.2,8,3.3,15.4,9,21s13.2,8.7,21.2,8.7c7.2,0,14-2.5,19.3-6.9c5.3,4.4,12,6.9,19,6.9
				c16.6,0,30.1-13.5,30.2-30.1c0.1-8.1-2.9-15.7-8.6-21.5s-13.3-9-21.4-9c-7.2,0-14,2.5-19.3,6.9c-5.3-4.4-12-6.9-19-6.9
				c-1.6,0-3.1,0.1-4.6,0.4v-7.1C32.3-69.7,26.6-75.3,19.4-75.3L19.4-75.3z M75.2-21.1c-2.5,0-4.6-2.1-4.6-4.6c0-2.6,2-4.6,4.6-4.6
				c2.5,0,4.6,2.1,4.6,4.6C79.8-23.2,77.7-21.1,75.2-21.1L75.2-21.1z M36.6-21.1c-2.5,0-4.6-2.1-4.6-4.6c0-2.6,2-4.6,4.6-4.6
				c2.5,0,4.6,2.1,4.6,4.6C41.3-23.2,39.2-21.1,36.6-21.1L36.6-21.1z"/>
			<path d="M131.9-47.7c1,0,1.9,0.3,2.7,0.9c1.9,1.4,2.3,4.2,0.9,6.1l-11.2,14.9l11.2,14.9l0,0c1.2,2.1,0.9,4.7-1.2,6.1
				c-0.8,0.7-1.7,1-2.7,1c-1.3,0-2.6-0.6-3.4-1.7l-9.6-12.8L109-5.5c-0.8,1.1-2.1,1.6-3.3,1.6c-1,0-1.9-0.3-2.7-0.9
				c-1.9-1.4-2.3-4.2-0.9-6.1l11.2-14.7l-11.2-14.9c-1.4-1.9-0.9-4.7,0.9-6.1c0.8-0.7,1.7-1,2.7-1c1.3,0,2.6,0.6,3.4,1.7l9.8,12.6
				l9.6-12.8C129.4-47.1,130.6-47.7,131.9-47.7 M131.9-56.1L131.9-56.1c-4,0-7.7,1.8-10.1,5l-3,4l-2.9-3.8c-2.4-3.1-6.2-5-10.1-5
				c-2.9,0-5.7,1-8,2.9c-5.4,4.3-6.5,12.2-2.4,17.7l7.4,9.8l-7.3,9.6c0,0,0,0-0.1,0.1C91.2-10.3,92.4-2.2,98,2
				c2.2,1.7,5,2.6,7.8,2.6c4.1,0,7.7-1.8,10.1-5l2.8-3.7l2.8,3.7c2.4,3.2,6.2,5.1,10.2,5.1c2.8,0,5.6-1,7.8-2.7
				c5.2-3.8,6.7-11,3.4-16.9c-0.2-0.3-0.4-0.7-0.6-1l-7.4-9.9l7.4-9.9c2-2.7,2.9-6,2.4-9.4s-2.3-6.5-5-8.5
				C137.5-55.2,134.7-56.1,131.9-56.1L131.9-56.1z"/>
		</g>
	</g>
	<g id="Regular-L" transform="matrix(1 0 0 1 1374.99 1556)">
		<g>
			<path d="M19.9-66.7c2.6,0,4.4,1.9,4.4,4.2V-43c3.7-2.8,8.2-4.4,13-4.4c8.2,0,15.4,4.9,19.1,11.6c3.5-7,10.7-11.6,19.1-11.6
				c11.9,0,21.7,9.8,21.4,21.9c0,11.9-9.8,21.7-21.7,21.7c-8.2,0-15.4-4.9-19.1-11.6C52.6-8.4,45.4-3.8,37-3.8
				c-11.9,0-21.4-9.6-21.7-21.4v-37.3C15.7-64.9,17.6-66.7,19.9-66.7 M75.6-12.7c7.2,0,13-5.8,13-13s-5.8-13.1-13-13.1
				S62.5-33,62.5-25.7C62.5-18.5,68.3-12.7,75.6-12.7 M37.1-12.7c7.2,0,13-5.8,13-13s-5.8-13.1-13-13.1S24-33,24-25.7
				C24.1-18.5,29.9-12.7,37.1-12.7 M19.9-74c-6,0-11,4.6-11.6,10.7c0,0.2,0,38,0,38v0.1c0.2,7.6,3.2,14.8,8.6,20.2
				s12.6,8.4,20.3,8.4c7.3,0,14.1-2.7,19.2-7.3c5.2,4.6,11.9,7.3,19,7.3c15.9,0,28.9-12.9,28.9-28.8c0.1-7.7-2.8-15.1-8.2-20.6
				c-5.4-5.6-12.7-8.6-20.5-8.6c-7.3,0-14.1,2.7-19.2,7.3c-5.2-4.6-11.9-7.3-19-7.3c-2,0-3.9,0.2-5.8,0.6v-8.5
				C31.6-68.9,26.4-74,19.9-74L19.9-74z M75.6-19.9c-3.2,0-5.8-2.6-5.8-5.8s2.6-5.8,5.8-5.8c3.2,0,5.8,2.6,5.8,5.8
				S78.8-19.9,75.6-19.9L75.6-19.9z M37.1-19.9c-3.2,0-5.8-2.6-5.8-5.8s2.6-5.8,5.8-5.8s5.8,2.6,5.8,5.8
				C42.9-22.5,40.3-19.9,37.1-19.9L37.1-19.9z"/>
			<path d="M129.8-47.6c1,0,1.9,0.3,2.7,0.9c1.9,1.4,2.3,4.2,0.9,6.1l-11.2,14.9l11.2,14.9l0,0c1.2,2.1,0.9,4.7-1.2,6.1
				c-0.8,0.7-1.7,1-2.7,1c-1.3,0-2.6-0.6-3.4-1.7l-9.6-12.8l-9.6,12.8c-0.8,1.1-2,1.6-3.3,1.6c-1,0-1.9-0.3-2.7-0.9
				c-1.9-1.4-2.3-4.2-0.9-6.1l11.2-14.7L100-40.4c-1.4-1.9-0.9-4.7,0.9-6.1c0.8-0.7,1.7-1,2.7-1c1.3,0,2.6,0.6,3.4,1.7l9.8,12.6
				l9.5-12.8C127.2-47.1,128.5-47.6,129.8-47.6 M129.8-54.9v7.2V-54.9c-3.6,0-7,1.6-9.1,4.5l-3.9,5.2l-3.9-5
				c-2.2-2.8-5.6-4.5-9.1-4.5c-2.6,0-5.2,0.9-7.2,2.6c-4.9,3.9-5.9,11-2.2,16l7.9,10.5l-7.9,10.3c0,0,0,0,0,0.1
				C90.5-10.1,91.6-2.9,96.7,1c2,1.5,4.5,2.3,7.1,2.3c3.7,0,7-1.6,9.1-4.5l3.8-5l3.8,5c2.2,2.9,5.6,4.6,9.2,4.6c2.6,0,5-0.9,7-2.5
				c4.8-3.5,6.2-9.9,3.1-15.3c-0.2-0.3-8.5-11.4-8.5-11.4l7.9-10.6c1.8-2.4,2.6-5.5,2.1-8.5c-0.4-3.1-2.1-5.9-4.5-7.7
				C134.8-54,132.3-54.9,129.8-54.9L129.8-54.9z"/>
		</g>
	</g>
	<g id="Light-L" transform="matrix(1 0 0 1 1079.2 1556)">
		<g>
			<path d="M19.7-66.7c2.6,0,4.4,1.9,4.4,4.2V-43c3.7-2.8,8.1-4.4,13-4.4c8.1,0,15.3,4.9,19.1,11.6c3.5-7,10.7-11.6,19.1-11.6
				c11.8,0,21.6,9.8,21.4,21.8C96.7-13.7,86.9-4,75.1-4C67-4,59.8-8.9,56-15.6C52.5-8.6,45.3-4,36.9-4C25-4,15.5-13.5,15.3-25.4
				v-37.2C15.5-64.8,17.4-66.7,19.7-66.7 M75.3-12.7c7.2,0,13-5.8,13-13s-5.8-13-13-13s-13,5.8-13,13C62.2-18.5,68-12.7,75.3-12.7
				 M36.9-12.7c7.2,0,13-5.8,13-13s-5.8-13-13-13s-13,5.8-13,13C23.9-18.5,29.7-12.7,36.9-12.7 M19.7-72.7c-5.4,0-9.8,4.1-10.4,9.6
				c0,0.2,0,0.4,0,0.6v37.2v0.1C9.6-9.9,21.7,2.1,36.9,2.1c7.4,0,14.2-2.8,19.2-7.7C61.2-0.7,67.9,2.1,75,2.1
				c15.2,0,27.6-12.4,27.6-27.6c0.1-7.4-2.7-14.4-7.8-19.7c-5.2-5.3-12.2-8.2-19.6-8.2S61-50.6,56-45.7c-5.1-4.9-11.9-7.7-18.9-7.7
				c-2.4,0-4.7,0.3-7,0.9v-10C30.1-68.2,25.5-72.7,19.7-72.7L19.7-72.7z M75.3-18.8c-3.9,0-7-3.1-7-7s3.1-7,7-7s7,3.1,7,7
				C82.2-21.9,79.1-18.8,75.3-18.8L75.3-18.8z M36.9-18.8c-3.9,0-7-3.1-7-7s3.1-7,7-7s7,3.1,7,7S40.8-18.8,36.9-18.8L36.9-18.8z"/>
			<path d="M128.1-47.6c1,0,1.9,0.3,2.7,0.9c1.9,1.4,2.3,4.2,0.9,6l-11.2,14.9l11.2,14.9l0,0c1.2,2.1,0.9,4.6-1.2,6
				c-0.8,0.7-1.7,1-2.6,1c-1.3,0-2.6-0.6-3.4-1.7L115-18.4l-9.5,12.8c-0.8,1.1-2,1.6-3.3,1.6c-1,0-1.9-0.3-2.7-0.9
				c-1.9-1.4-2.3-4.2-0.9-6l11.2-14.6L98.5-40.4c-1.4-1.9-0.9-4.6,0.9-6c0.8-0.7,1.7-1,2.7-1c1.3,0,2.6,0.6,3.4,1.7l9.8,12.5
				l9.5-12.8C125.6-47.1,126.8-47.6,128.1-47.6 M128.1-53.6v6V-53.6c-3.3,0-6.2,1.5-8.1,4l-4.8,6.5l-4.9-6.3c-1.9-2.5-5-4.1-8.2-4.1
				c-2.4,0-4.6,0.8-6.4,2.3c-4.4,3.5-5.3,9.8-2,14.3l8.4,11.2l-8.4,11C90.3-10,91.3-3.5,95.8-0.1c1.8,1.4,4.1,2.1,6.3,2.1
				c3.3,0,6.2-1.5,8.1-4l4.7-6.3l4.7,6.3c1.9,2.6,5,4.1,8.2,4.1c2.3,0,4.5-0.8,6.3-2.2c4.3-3.1,5.5-8.8,2.8-13.8
				c-0.1-0.2-0.3-0.5-0.4-0.7l-8.4-11.3l8.5-11.3c1.6-2.2,2.3-4.9,1.9-7.6c-0.4-2.7-1.9-5.2-4.1-6.9
				C132.7-52.9,130.4-53.6,128.1-53.6L128.1-53.6z"/>
		</g>
	</g>
	<g id="Thin-L" transform="matrix(1 0 0 1 783.716 1556)">
		<g>
			<path d="M18.6-66.6c2.6,0,4.4,1.9,4.4,4.2v19.5c3.7-2.8,8.1-4.4,13-4.4c8.1,0,15.3,4.9,19,11.6c3.5-7,10.7-11.6,19-11.6
				c11.8,0,21.6,9.7,21.3,21.8C95.4-13.7,85.6-4,73.8-4c-8.1,0-15.3-4.9-19-11.6C51.3-8.6,44.1-4,35.8-4C24-4,14.5-13.5,14.2-25.3
				v-37.1C14.4-64.7,16.3-66.6,18.6-66.6 M74-12.8c7.2,0,13-5.8,13-13s-5.8-13-13-13s-13,5.8-13,13S66.8-12.8,74-12.8 M35.8-12.8
				c7.2,0,13-5.8,13-13s-5.8-13-13-13s-13,5.8-13,13S28.6-12.8,35.8-12.8 M18.6-71.4c-4.7,0-8.7,3.7-9.2,8.5c0,0.2,0,0.3,0,0.5v37.1
				v0.1c0.3,14.6,11.9,26,26.4,26c7.4,0,14.3-3,19.1-8.2c5,5.2,11.8,8.2,18.9,8.2c14.5,0,29.5-17.6,29.5-26.6
				c0.1-7.1-5.6-13.5-10.6-18.5c-5-5.1-11.6-7.9-18.7-7.9c-7.4,0-14.3,3-19.1,8.2c-5-5.2-11.8-8.2-18.9-8.2c-2.8,0-5.6,0.4-8.2,1.3
				v-11.6C27.8-67.4,23.8-71.4,18.6-71.4L18.6-71.4z M74-17.6c-4.5,0-8.2-3.7-8.2-8.2S69.5-34,74-34s8.2,3.7,8.2,8.2
				S78.5-17.6,74-17.6L74-17.6z M35.8-17.6c-4.5,0-8.2-3.7-8.2-8.2s3.7-8.2,8.2-8.2s8.2,3.7,8.2,8.2C43.9-21.3,40.3-17.6,35.8-17.6
				L35.8-17.6z"/>
			<path d="M126.8-47.6c1,0,1.9,0.3,2.7,0.9c1.9,1.4,2.3,4.2,0.9,6l-11.1,14.8L130.4-11l0,0c1.2,2.1,0.9,4.6-1.2,6
				c-0.8,0.7-1.7,1-2.6,1c-1.3,0-2.6-0.6-3.4-1.7l-9.5-12.8l-9.5,12.8c-0.8,1.1-2,1.6-3.3,1.6c-1,0-1.9-0.3-2.7-0.9
				c-1.9-1.4-2.3-4.2-0.9-6l11.1-14.6L97.2-40.4c-1.4-1.9-0.9-4.6,0.9-6c0.8-0.7,1.7-1,2.6-1c1.3,0,2.6,0.6,3.4,1.7l9.7,12.5
				l9.5-12.8C124.2-47.1,125.5-47.6,126.8-47.6 M126.8-52.4v4.8V-52.4c-2.9,0-5.5,1.3-7.2,3.5l-5.8,7.7l-5.8-7.5
				c-1.7-2.2-4.4-3.6-7.2-3.6c-2.1,0-4.1,0.7-5.7,2.1c-3.8,3-4.7,8.8-1.8,12.6l9,11.9L93.4-14c-3,4-2.1,9.8,1.9,12.8
				c1.6,1.2,3.6,1.9,5.6,1.9c2.9,0,5.5-1.3,7.2-3.5l5.7-7.6l5.7,7.6c1.7,2.3,4.4,3.6,7.2,3.6c2,0,4-0.7,5.6-2
				c3.8-2.7,4.9-7.8,2.4-12.2c-0.1-0.2-0.2-0.4-0.4-0.5l-9-12l9-12c1.4-1.9,2-4.3,1.7-6.7s-1.6-4.6-3.6-6.1
				C130.8-51.7,128.8-52.4,126.8-52.4L126.8-52.4z"/>
		</g>
	</g>
	<g id="Ultralight-L" transform="matrix(1 0 0 1 487.631 1556)">
		<g>
			<path d="M18.7-66.5c2.5,0,4.4,1.9,4.4,4.2v19.4c3.7-2.8,8.1-4.4,12.9-4.4c8.1,0,15.3,4.9,19,11.6c3.5-6.9,10.6-11.6,19-11.6
				c11.8,0,21.5,9.7,21.3,21.7C95.3-13.8,85.6-4,73.8-4c-8.1,0-15.3-4.9-19-11.6C51.3-8.7,44.1-4,35.8-4C24-4,14.5-13.5,14.3-25.3
				v-37C14.5-64.7,16.4-66.5,18.7-66.5 M74-12.8c7.2,0,12.9-5.8,12.9-12.9c0-7.2-5.8-13-12.9-13c-7.2,0-13,5.8-13,13
				C61-18.6,66.8-12.8,74-12.8 M35.8-12.8c7.2,0,12.9-5.8,12.9-12.9c0-7.2-5.8-13-12.9-13c-7.2,0-13,5.8-13,13
				C22.9-18.6,28.7-12.8,35.8-12.8 M18.7-70.1c-4.1,0-7.5,3.2-8,7.4c0,0.1,0,0.2,0,0.4v37c0,0,0,0,0,0.1C11-11.3,22-0.5,35.8-0.5
				c7.5,0,14.4-3.3,19.1-8.8c4.8,5.5,11.6,8.8,18.9,8.8c13.8,0,28.8-16,28.8-25.2c0.1-6.7-6.1-13-10.8-17.8C87.1-48.3,80.8-51,74-51
				c-7.5,0-14.4,3.3-19.1,8.8C50.1-47.7,43.2-51,36-51c-3.2,0-6.4,0.6-9.4,1.8v-13.3C26.7-66.7,23.2-70.1,18.7-70.1L18.7-70.1z
				 M74-16.4c-5.2,0-9.4-4.2-9.4-9.4s4.2-9.4,9.4-9.4c5.2,0,9.4,4.2,9.4,9.4C83.3-20.6,79.2-16.4,74-16.4L74-16.4z M35.8-16.4
				c-5.2,0-9.4-4.2-9.4-9.4s4.2-9.4,9.4-9.4s9.4,4.2,9.4,9.4C45.2-20.6,41-16.4,35.8-16.4L35.8-16.4z"/>
			<path d="M125.4-47.6c1,0,1.9,0.3,2.7,0.9c1.9,1.4,2.3,4.2,0.9,6l-11.1,14.8L129-11l0,0c1.2,2.1,0.9,4.6-1.2,6
				c-0.8,0.7-1.7,1-2.6,1c-1.3,0-2.6-0.6-3.4-1.7l-9.5-12.7l-9.5,12.7c-0.8,1.1-2,1.6-3.3,1.6c-1,0-1.9-0.3-2.7-0.9
				C95-6.4,94.6-9.2,96-11l11.1-14.6L96-40.4c-1.4-1.9-0.9-4.6,0.9-6c0.8-0.7,1.7-1,2.6-1c1.3,0,2.6,0.6,3.4,1.7l9.7,12.5l9.5-12.7
				C122.9-47,124.1-47.6,125.4-47.6 M125.4-51.1v3.6V-51.1c-2.5,0-4.7,1.1-6.2,3l-6.7,9l-6.8-8.7c-1.5-1.9-3.8-3.1-6.2-3.1
				c-1.8,0-3.5,0.6-4.9,1.8c-3.3,2.6-4.1,7.6-1.5,11l9.5,12.6l-9.5,12.4C90.5-9.7,91.3-4.6,94.7-2c1.4,1,3.1,1.6,4.9,1.6
				c2.5,0,4.7-1.1,6.2-3l6.6-8.9l6.6,8.9c1.5,2,3.8,3.1,6.3,3.1c1.8,0,3.5-0.6,4.8-1.7c3.3-2.4,4.2-6.8,2.1-10.6
				c-0.1-0.1-0.2-0.3-0.3-0.4l-9.5-12.6l9.5-12.7c1.2-1.6,1.7-3.7,1.4-5.8s-1.4-4-3.1-5.3C128.9-50.6,127.2-51.1,125.4-51.1
				L125.4-51.1z"/>
		</g>
	</g>
	<g id="Black-M" transform="matrix(1 0 0 1 2871.36 1126)">
		<g>
			<path d="M16.2-59.9c2,0,3.5,1.5,3.5,3.3v15.3c2.9-2.2,6.4-3.5,10.2-3.5c6.4,0,12,3.8,15,9.1c2.7-5.5,8.4-9.1,14.9-9.1
				c9.3,0,17,7.7,16.8,17.1c0,9.3-7.7,17-17,17c-6.4,0-12-3.8-14.9-9.1c-2.7,5.5-8.4,9.1-14.9,9.1c-9.3,0-16.8-7.5-17-16.8v-29.2
				C12.9-58.4,14.4-59.9,16.2-59.9 M16.2-70.3c-7.1,0-13.1,5.4-13.8,12.6c0,0.3-0.1,0.7-0.1,1v29.2c0,0.1,0,0.1,0,0.2
				c0.1,7.2,3,14,8.1,19c5.1,5.1,12,7.9,19.2,7.9c5.5,0,10.7-1.6,15.1-4.5c4.4,2.9,9.5,4.5,14.8,4.5c15,0,27.3-12.2,27.3-27.2
				c0.1-7.3-2.6-14.2-7.8-19.5c-5.2-5.3-12-8.2-19.4-8.2c-5.5,0-10.7,1.6-15.1,4.5c-4.3-2.8-9.4-4.5-14.7-4.5v-1.5
				C30.1-64.1,23.8-70.3,16.2-70.3L16.2-70.3z"/>
			<path d="M29.7-29.5c1,0,1.7,0.8,1.7,1.7c0,1-0.7,1.7-1.7,1.7S28-26.8,28-27.8S28.7-29.5,29.7-29.5 M29.7-38
				c-5.7,0-10.2,4.6-10.2,10.2s4.6,10.2,10.2,10.2s10.2-4.6,10.2-10.2S35.3-38,29.7-38L29.7-38z"/>
			<path d="M59.8-29.5c1,0,1.7,0.8,1.7,1.7c0,1-0.7,1.7-1.7,1.7s-1.7-0.7-1.7-1.7S58.8-29.5,59.8-29.5 M59.8-38
				c-5.7,0-10.2,4.6-10.2,10.2s4.6,10.2,10.2,10.2S70-22.2,70-27.8S65.4-38,59.8-38L59.8-38z"/>
			<path d="M107.8-44.9c0.7,0,1.5,0.2,2.1,0.7c1.5,1.1,1.8,3.3,0.7,4.7L102-27.8l8.8,11.7l0,0c0.9,1.6,0.7,3.6-0.9,4.7
				c-0.6,0.5-1.3,0.8-2.1,0.8c-1,0-2-0.5-2.7-1.3l-7.5-10l-7.5,10c-0.6,0.8-1.6,1.2-2.6,1.2c-0.7,0-1.5-0.2-2.1-0.7
				c-1.5-1.1-1.8-3.3-0.7-4.7l8.8-11.5l-8.8-11.7c-1.1-1.5-0.7-3.6,0.7-4.7c0.6-0.5,1.3-0.8,2.1-0.8c1,0,2,0.5,2.7,1.3l7.7,9.8
				l7.5-10C105.9-44.5,106.8-44.9,107.8-44.9 M107.8-55.3L107.8-55.3c-3.9,0-7.7,1.7-10.3,4.6c-2.6-2.8-6.3-4.5-10.1-4.5
				c-3.1,0-6.2,1.1-8.6,3.1c-5.8,4.6-7,13.1-2.5,19l4.1,5.4l-1.6,2.2l-2.3,3.1c0,0,0,0.1-0.1,0.1C71.9-16.2,73.1-7.6,79.2-3
				c2.4,1.8,5.4,2.8,8.4,2.8c3.9,0,7.5-1.6,10.1-4.4c2.6,2.8,6.3,4.5,10.1,4.5c3,0,6-1,8.4-2.9c5.6-4.1,7.2-11.8,3.7-18.1
				c-0.2-0.4-0.5-0.8-0.8-1.2l-2.2-2.9l-1.9-2.5l1.7-2.2l2.4-3.2c2.2-2.9,3.1-6.5,2.6-10.2c-0.5-3.6-2.5-7-5.4-9.1
				C113.8-54.3,110.8-55.3,107.8-55.3L107.8-55.3L107.8-55.3z"/>
		</g>
	</g>
	<g id="Heavy-M" transform="matrix(1 0 0 1 2575.48 1126)">
		<g>
			<path d="M15.9-59.8c2,0,3.5,1.5,3.5,3.3v15.3c2.9-2.2,6.4-3.5,10.2-3.5c6.4,0,12,3.8,14.9,9.1c2.7-5.5,8.4-9.1,14.9-9.1
				c9.3,0,16.9,7.6,16.7,17.1c0,9.3-7.6,16.9-16.9,16.9c-6.4,0-12-3.8-14.9-9.1c-2.7,5.5-8.4,9.1-14.9,9.1
				c-9.3,0-16.7-7.5-16.9-16.7v-29.1C12.7-58.4,14.1-59.8,15.9-59.8 M15.9-69.3c-6.6,0-12.2,5.1-12.8,11.8c0,0.3,0,30.1,0,30.1
				c0,0.1,0,0.1,0,0.2c0.1,7,2.9,13.5,7.8,18.4c5,4.9,11.5,7.6,18.5,7.6c5.5,0,10.7-1.7,15-4.7c4.3,3,9.5,4.7,14.8,4.7
				c14.5,0,26.3-11.8,26.4-26.3c0.1-7.1-2.5-13.7-7.5-18.8s-11.6-7.9-18.7-7.9c-5.5,0-10.7,1.7-15,4.7c-4.3-3-9.5-4.7-14.8-4.7
				c-0.3,0-0.5,0-0.8,0v-2.4C28.8-63.7,23.1-69.3,15.9-69.3L15.9-69.3z"/>
			<path d="M29.4-29.9c1.2,0,2.1,0.9,2.1,2.1s-0.9,2.1-2.1,2.1s-2.1-0.9-2.1-2.1S28.2-29.9,29.4-29.9 M29.4-38
				c-5.6,0-10.2,4.5-10.2,10.2c0,5.6,4.5,10.2,10.2,10.2c5.6,0,10.2-4.5,10.2-10.2C39.6-33.4,35-38,29.4-38L29.4-38z"/>
			<path d="M59.4-29.9c1.2,0,2.1,0.9,2.1,2.1s-0.9,2.1-2.1,2.1c-1.2,0-2.1-0.9-2.1-2.1C57.3-29,58.2-29.9,59.4-29.9 M59.4-38
				c-5.6,0-10.2,4.5-10.2,10.2c0,5.6,4.5,10.2,10.2,10.2c5.6,0,10.2-4.5,10.2-10.2C69.6-33.4,65.1-38,59.4-38L59.4-38z"/>
			<path d="M106.5-44.9c0.7,0,1.5,0.2,2.1,0.7c1.5,1.1,1.8,3.3,0.7,4.7l-8.7,11.7l8.7,11.6l0,0c0.9,1.6,0.7,3.6-0.9,4.7
				c-0.6,0.5-1.3,0.8-2.1,0.8c-1,0-2-0.5-2.7-1.3l-7.5-10l-7.5,10C88-11.2,87-10.8,86-10.8c-0.7,0-1.5-0.2-2.1-0.7
				c-1.5-1.1-1.8-3.3-0.7-4.7L92-27.7l-8.7-11.6c-1.1-1.5-0.7-3.6,0.7-4.7c0.6-0.5,1.3-0.8,2.1-0.8c1,0,2,0.5,2.7,1.3l7.6,9.8
				l7.5-10C104.5-44.5,105.5-44.9,106.5-44.9 M106.5-54.4L106.5-54.4c-4,0-7.8,1.9-10.1,5l0,0l-0.1,0.1l0,0c-2.4-3.1-6.2-5-10.1-5
				c-2.9,0-5.8,1-8,2.9c-5.4,4.3-6.5,12.2-2.4,17.7l4.5,6l-4.4,5.8c0,0,0,0-0.1,0.1c-4.2,5.6-3,13.7,2.6,17.9c2.2,1.7,5,2.6,7.8,2.6
				c4,0,7.7-1.8,10.1-4.9c2.4,3.1,6.2,5,10.1,5c2.8,0,5.6-1,7.8-2.7c5.2-3.8,6.7-10.9,3.4-16.8c-0.2-0.4-0.4-0.7-0.7-1.1l-4.5-6
				l4.5-6c2-2.7,2.9-6.1,2.4-9.5s-2.3-6.5-5-8.5C112-53.4,109.3-54.4,106.5-54.4L106.5-54.4L106.5-54.4z"/>
		</g>
	</g>
	<g id="Bold-M" transform="matrix(1 0 0 1 2279.69 1126)">
		<g>
			<path d="M15.5-59.8c2,0,3.5,1.5,3.5,3.3v15.3c2.9-2.2,6.4-3.4,10.2-3.4c6.4,0,12,3.8,14.9,9.1c2.7-5.5,8.4-9.1,14.9-9.1
				c9.3,0,16.9,7.6,16.7,17.1c0,9.3-7.6,16.9-16.9,16.9c-6.4,0-12-3.8-14.9-9.1c-2.7,5.5-8.4,9.1-14.9,9.1
				c-9.3,0-16.7-7.5-16.9-16.7v-29.1C12.3-58.3,13.7-59.8,15.5-59.8 M15.5-68.3c-6.1,0-11.2,4.7-11.9,10.9c0,0.3,0,29.9,0,29.9
				c0,0.1,0,0.1,0,0.2c0.1,6.7,2.8,13,7.5,17.7C15.9-4.9,22.3-2.3,29-2.3c5.6,0,10.8-1.8,15-4.9c4.3,3.1,9.4,4.9,14.8,4.9
				c14,0,25.3-11.3,25.4-25.3c0.1-6.8-2.4-13.2-7.2-18.1c-4.8-4.9-11.2-7.6-18-7.6c-5.6,0-10.8,1.8-15,4.9
				c-4.3-3.1-9.4-4.9-14.8-4.9c-0.6,0-1.1,0-1.7,0.1v-3.4C27.5-63.1,22.2-68.3,15.5-68.3L15.5-68.3z"/>
			<path d="M29-30.1c1.3,0,2.3,1,2.3,2.3s-1,2.3-2.3,2.3s-2.3-1-2.3-2.3S27.7-30.1,29-30.1 M29-38c-5.6,0-10.2,4.5-10.2,10.2
				c0,5.6,4.5,10.2,10.2,10.2c5.6,0,10.2-4.5,10.2-10.2C39.2-33.4,34.6-38,29-38L29-38z"/>
			<path d="M59-30.1c1.3,0,2.3,1,2.3,2.3s-1,2.3-2.3,2.3s-2.3-1-2.3-2.3S57.7-30.1,59-30.1 M59-38c-5.6,0-10.2,4.5-10.2,10.2
				c0,5.6,4.5,10.2,10.2,10.2c5.6,0,10.2-4.5,10.2-10.2C69.1-33.4,64.6-38,59-38L59-38z"/>
			<path d="M105-44.9c0.7,0,1.5,0.2,2.1,0.7c1.5,1.1,1.8,3.3,0.7,4.7l-8.7,11.6l8.7,11.6l0,0c0.9,1.6,0.7,3.6-0.9,4.7
				c-0.6,0.5-1.3,0.8-2.1,0.8c-1,0-2-0.5-2.6-1.3l-7.5-10l-7.5,10c-0.6,0.8-1.6,1.2-2.6,1.2c-0.7,0-1.5-0.2-2.1-0.7
				c-1.5-1.1-1.8-3.3-0.7-4.7l8.7-11.4l-8.7-11.6c-1.1-1.5-0.7-3.6,0.7-4.7c0.6-0.5,1.3-0.8,2.1-0.8c1,0,2,0.5,2.6,1.3l7.6,9.8
				l7.4-10C103-44.5,104-44.9,105-44.9 M105-53.4L105-53.4c-3.7,0-7.1,1.7-9.4,4.6l-0.8,1.1l-0.8-1c-2.2-2.9-5.7-4.6-9.4-4.6
				c-2.7,0-5.3,0.9-7.4,2.7c-5,4-6,11.3-2.2,16.4l4.9,6.5l-4.8,6.4c0,0,0,0-0.1,0.1C71.1-16,72.2-8.6,77.4-4.6
				C79.5-3,82-2.2,84.6-2.2c3.7,0,7.2-1.7,9.4-4.6l0.7-0.9L95.4-7c2.2,3,5.7,4.7,9.4,4.7c2.6,0,5.2-0.9,7.2-2.5
				c4.8-3.5,6.2-10.1,3.2-15.6c-0.2-0.3-5.5-7.5-5.5-7.5l4.9-6.5c1.9-2.5,2.7-5.6,2.2-8.7c-0.4-3.1-2.1-6-4.6-7.9
				C110.1-52.5,107.6-53.4,105-53.4L105-53.4L105-53.4z"/>
		</g>
	</g>
	<g id="Semibold-M" transform="matrix(1 0 0 1 1983.62 1126)">
		<g>
			<path d="M15.5-59.7c2,0,3.4,1.5,3.4,3.3v15.2c2.9-2.2,6.3-3.4,10.2-3.4c6.3,0,12,3.8,14.9,9.1c2.7-5.4,8.3-9.1,14.9-9.1
				c9.2,0,16.9,7.6,16.7,17c0,9.3-7.6,16.9-16.9,16.9c-6.3,0-12-3.8-14.9-9.1c-2.7,5.4-8.3,9.1-14.9,9.1c-9.3,0-16.7-7.4-16.9-16.7
				v-29C12.2-58.3,13.6-59.7,15.5-59.7 M58.8-17.7c5.6,0,10.2-4.5,10.2-10.2c0-5.6-4.5-10.2-10.2-10.2c-5.6,0-10.2,4.5-10.2,10.2
				S53.2-17.7,58.8-17.7 M28.9-17.7c5.6,0,10.2-4.5,10.2-10.2C39-33.5,34.5-38,28.9-38s-10.2,4.5-10.2,10.2
				C18.7-22.2,23.2-17.7,28.9-17.7 M15.5-67.3c-5.6,0-10.3,4.3-10.9,10c0,0.3,0,29.8,0,29.8v0.1c0.1,6.4,2.7,12.5,7.3,17
				S22.6-3.3,29-3.3c5.6,0,10.8-1.9,15-5.1c4.2,3.3,9.4,5.1,14.8,5.1C72-3.3,82.9-14.2,83-27.6c0.1-6.5-2.3-12.7-6.9-17.4
				s-10.7-7.3-17.3-7.3c-5.6,0-10.8,1.8-15,5.1c-4.2-3.3-9.4-5.1-14.8-5.1c-0.9,0-1.8,0-2.6,0.1v-4.4C26.4-62.5,21.6-67.3,15.5-67.3
				L15.5-67.3z M58.8-25.2c-1.5,0-2.6-1.2-2.6-2.6c0-1.5,1.2-2.6,2.6-2.6c1.5,0,2.6,1.2,2.6,2.6C61.4-26.4,60.3-25.2,58.8-25.2
				L58.8-25.2z M28.9-25.2c-1.5,0-2.6-1.2-2.6-2.6c0-1.5,1.2-2.6,2.6-2.6c1.5,0,2.6,1.2,2.6,2.6C31.5-26.4,30.4-25.2,28.9-25.2
				L28.9-25.2z"/>
			<path d="M103.8-44.9c0.7,0,1.5,0.2,2.1,0.7c1.5,1.1,1.8,3.3,0.7,4.7l-8.7,11.6l8.7,11.6l0,0c0.9,1.6,0.7,3.6-0.9,4.7
				c-0.6,0.5-1.3,0.8-2.1,0.8c-1,0-2-0.5-2.6-1.3l-7.4-10l-7.4,10c-0.6,0.8-1.6,1.2-2.6,1.2c-0.7,0-1.5-0.2-2.1-0.7
				c-1.5-1.1-1.8-3.3-0.7-4.7l8.7-11.4l-8.7-11.6c-1.1-1.5-0.7-3.6,0.7-4.7c0.6-0.5,1.3-0.8,2.1-0.8c1,0,2,0.5,2.6,1.3l7.6,9.8
				l7.4-10C101.8-44.5,102.8-44.9,103.8-44.9 M103.8-52.4L103.8-52.4c-3.4,0-6.6,1.5-8.6,4.2l-1.6,2.1l-1.5-2
				c-2-2.7-5.2-4.3-8.6-4.3c-2.5,0-4.9,0.9-6.8,2.4c-4.6,3.6-5.5,10.3-2,15.1l5.3,7.1l-5.3,6.9c0,0,0,0,0,0.1
				C71.1-16,72.1-9.2,76.9-5.5c1.9,1.4,4.3,2.2,6.6,2.2c3.4,0,6.6-1.6,8.6-4.3l1.4-1.9L95-7.6c2,2.7,5.3,4.3,8.7,4.3
				c2.4,0,4.7-0.8,6.6-2.3c4.4-3.2,5.7-9.3,2.9-14.3c-0.2-0.3-5.9-8-5.9-8l5.3-7.1c1.7-2.3,2.4-5.1,2-8s-2-5.5-4.3-7.2
				C108.5-51.6,106.2-52.4,103.8-52.4L103.8-52.4L103.8-52.4z"/>
		</g>
	</g>
	<g id="Medium-M" transform="matrix(1 0 0 1 1687.4 1126)">
		<g>
			<path d="M15.5-59.7c2,0,3.4,1.4,3.4,3.3v15.2c2.9-2.2,6.3-3.4,10.1-3.4c6.3,0,11.9,3.8,14.8,9c2.7-5.4,8.3-9,14.8-9
				c9.2,0,16.8,7.6,16.6,17c0,9.2-7.6,16.8-16.8,16.8c-6.3,0-11.9-3.8-14.8-9c-2.7,5.4-8.3,9-14.8,9c-9.2,0-16.6-7.4-16.8-16.6v-29
				C12.3-58.2,13.7-59.7,15.5-59.7 M58.8-17.7c5.6,0,10.1-4.5,10.1-10.1s-4.5-10.1-10.1-10.1s-10.1,4.5-10.1,10.1
				C48.6-22.2,53.2-17.7,58.8-17.7 M28.9-17.7c5.6,0,10.1-4.5,10.1-10.1C39-33.5,34.5-38,28.9-38s-10.1,4.5-10.1,10.1
				C18.8-22.2,23.3-17.7,28.9-17.7 M15.5-66.3c-5.2,0-9.4,3.9-10,9.2c0,0.2,0,29.6,0,29.6v0.1c0.1,6.2,2.6,12,7,16.3
				c4.4,4.4,10.2,6.8,16.4,6.8c5.6,0,10.9-2,14.9-5.4c4.1,3.4,9.3,5.4,14.7,5.4c13,0,23.5-10.4,23.5-23.3c0.1-6.3-2.3-12.2-6.6-16.7
				c-4.4-4.5-10.3-7-16.6-7c-5.6,0-10.9,2-14.9,5.4c-4.1-3.4-9.3-5.4-14.7-5.4c-1.2,0-2.4,0.1-3.6,0.3v-5.5
				C25.5-61.9,21.1-66.3,15.5-66.3L15.5-66.3z M58.8-24.3c-2,0-3.6-1.6-3.6-3.6s1.6-3.6,3.6-3.6s3.6,1.6,3.6,3.6
				C62.3-25.9,60.7-24.3,58.8-24.3L58.8-24.3z M28.9-24.3c-2,0-3.6-1.6-3.6-3.6s1.6-3.6,3.6-3.6s3.6,1.6,3.6,3.6
				S30.9-24.3,28.9-24.3L28.9-24.3z"/>
			<path d="M102.8-44.9c0.7,0,1.5,0.2,2.1,0.7c1.4,1.1,1.8,3.3,0.7,4.7l-8.7,11.6l8.7,11.6l0,0c0.9,1.6,0.7,3.6-0.9,4.7
				c-0.6,0.5-1.3,0.8-2.1,0.8c-1,0-2-0.5-2.6-1.3l-7.4-10l-7.4,10c-0.6,0.8-1.6,1.2-2.6,1.2c-0.7,0-1.5-0.2-2.1-0.7
				c-1.4-1.1-1.8-3.3-0.7-4.7l8.7-11.4l-8.7-11.6c-1.1-1.4-0.7-3.6,0.7-4.7c0.6-0.5,1.3-0.8,2.1-0.8c1,0,2,0.5,2.6,1.3l7.6,9.8
				l7.4-10C100.8-44.5,101.8-44.9,102.8-44.9 M102.8-51.4L102.8-51.4c-3.1,0-6,1.4-7.8,3.8l-2.3,3.1l-2.3-2.9
				c-1.9-2.4-4.8-3.9-7.8-3.9c-2.3,0-4.5,0.8-6.2,2.2c-4.2,3.3-5.1,9.4-1.9,13.7l5.7,7.6l-5.7,7.5c0,0,0,0,0,0.1
				c-3.3,4.4-2.3,10.6,2,13.9c1.7,1.3,3.9,2,6.1,2c3.1,0,6-1.4,7.8-3.9l2.2-2.9l2.2,2.9c1.9,2.5,4.8,4,7.9,4c2.2,0,4.3-0.7,6-2.1
				c4.1-3,5.2-8.5,2.7-13.1c-0.1-0.3-0.3-0.5-0.5-0.7l-5.7-7.6l5.7-7.6c1.6-2.1,2.2-4.7,1.8-7.3c-0.4-2.6-1.8-5-3.9-6.6
				C107.1-50.7,104.9-51.4,102.8-51.4L102.8-51.4z"/>
		</g>
	</g>
	<g id="Regular-M" transform="matrix(1 0 0 1 1391.32 1126)">
		<g>
			<path d="M15.9-59.6c2,0,3.4,1.4,3.4,3.3v15.2c2.9-2.2,6.3-3.4,10.1-3.4c6.3,0,11.9,3.8,14.8,9c2.7-5.4,8.3-9,14.8-9
				c9.2,0,16.8,7.6,16.6,17c0,9.2-7.6,16.8-16.8,16.8c-6.3,0-11.9-3.8-14.8-9c-2.7,5.4-8.3,9-14.8,9c-9.2,0-16.6-7.4-16.8-16.6
				v-28.9C12.7-58.2,14.1-59.6,15.9-59.6 M59.1-17.7c5.6,0,10.1-4.5,10.1-10.1s-4.5-10.1-10.1-10.1C53.5-38,49-33.5,49-27.9
				S53.5-17.7,59.1-17.7 M29.3-17.7c5.6,0,10.1-4.5,10.1-10.1s-4.5-10.1-10.1-10.1s-10.1,4.5-10.1,10.1
				C19.2-22.3,23.7-17.7,29.3-17.7 M15.9-65.3c-4.7,0-8.5,3.6-9,8.3c0,0.2,0,29.5,0,29.5v0.1c0.1,5.9,2.5,11.5,6.7,15.6
				c4.2,4.2,9.8,6.5,15.7,6.5c5.7,0,10.9-2.1,14.9-5.7c4.1,3.6,9.3,5.7,14.7,5.7c12.3,0,22.4-10,22.4-22.4c0.1-6-2.2-11.7-6.4-16
				C70.7-48,65-50.4,59-50.4c-5.7,0-10.9,2.1-14.9,5.7c-4.1-3.6-9.3-5.7-14.7-5.7c-1.5,0-3,0.2-4.5,0.5v-6.6
				C25-61.4,21-65.3,15.9-65.3L15.9-65.3z M59.1-23.4c-2.5,0-4.5-2-4.5-4.5s2-4.5,4.5-4.5s4.5,2,4.5,4.5S61.6-23.4,59.1-23.4
				L59.1-23.4z M29.3-23.4c-2.5,0-4.5-2-4.5-4.5s2-4.5,4.5-4.5s4.5,2,4.5,4.5S31.8-23.4,29.3-23.4L29.3-23.4z"/>
			<path d="M101.1-44.9c0.7,0,1.5,0.2,2.1,0.7c1.4,1.1,1.8,3.2,0.7,4.7l-8.7,11.6l8.7,11.6l0,0c0.9,1.6,0.7,3.6-0.9,4.7
				c-0.6,0.5-1.3,0.8-2.1,0.8c-1,0-2-0.5-2.6-1.3L90.9-22l-7.4,9.9c-0.6,0.8-1.6,1.2-2.6,1.2c-0.7,0-1.5-0.2-2.1-0.7
				c-1.4-1.1-1.8-3.3-0.7-4.7l8.7-11.4l-8.7-11.6c-1.1-1.4-0.7-3.6,0.7-4.7c0.6-0.5,1.3-0.8,2.1-0.8c1,0,2,0.5,2.6,1.3l7.6,9.7
				l7.4-9.9C99.1-44.4,100.1-44.9,101.1-44.9 M101.1-50.5v5.6V-50.5c-2.8,0-5.4,1.3-7.1,3.5l-3,4.1l-3-3.9c-1.7-2.2-4.3-3.5-7.1-3.5
				c-2,0-4,0.7-5.6,2c-3.8,3-4.6,8.5-1.7,12.4l6.1,8.2l-6.1,8l0,0c-2.9,3.9-2.1,9.6,1.9,12.5C77-6,79-5.3,80.9-5.3
				c2.8,0,5.4-1.3,7.1-3.5l2.9-3.9l2.9,3.9c1.7,2.2,4.3,3.6,7.1,3.6c2,0,3.9-0.7,5.5-1.9c3.7-2.7,4.8-7.7,2.4-11.9
				c-0.1-0.2-6.6-8.8-6.6-8.8l6.1-8.2c1.4-1.9,2-4.2,1.7-6.6c-0.3-2.4-1.6-4.5-3.5-6C105-49.8,103.1-50.5,101.1-50.5L101.1-50.5z"/>
		</g>
	</g>
	<g id="Light-M" transform="matrix(1 0 0 1 1095.44 1126)">
		<g>
			<path d="M15.6-59.6c2,0,3.4,1.4,3.4,3.2v15.1c2.9-2.2,6.3-3.4,10.1-3.4c6.3,0,11.9,3.8,14.8,9c2.7-5.4,8.3-9,14.8-9
				c9.2,0,16.8,7.6,16.6,16.9c0,9.2-7.6,16.8-16.8,16.8c-6.3,0-11.9-3.8-14.8-9c-2.7,5.4-8.3,9-14.8,9c-9.2,0-16.6-7.4-16.8-16.6
				v-28.8C12.4-58.1,13.8-59.6,15.6-59.6 M58.7-17.8c5.6,0,10.1-4.5,10.1-10.1S64.3-38,58.7-38s-10.1,4.5-10.1,10.1
				C48.6-22.3,53.1-17.8,58.7-17.8 M29-17.8c5.6,0,10.1-4.5,10.1-10.1S34.6-38,29-38s-10.1,4.5-10.1,10.1S23.4-17.8,29-17.8
				 M15.6-64.3c-4.2,0-7.6,3.2-8.1,7.4c0,0.2,0,0.3,0,0.5v28.8v0.1C7.8-15.6,17.2-6.3,29-6.3c5.7,0,11-2.2,14.9-6
				c4,3.8,9.2,6,14.7,6C70.4-6.3,80-15.9,80-27.7c0.1-5.7-2.1-11.2-6.1-15.3s-9.4-6.4-15.2-6.4c-5.7,0-11,2.2-14.9,6
				c-4-3.8-9.2-6-14.7-6c-1.8,0-3.7,0.2-5.4,0.7v-7.8C23.7-60.8,20.2-64.3,15.6-64.3L15.6-64.3z M58.7-22.5c-3,0-5.4-2.4-5.4-5.4
				s2.4-5.4,5.4-5.4s5.4,2.4,5.4,5.4S61.7-22.5,58.7-22.5L58.7-22.5z M29-22.5c-3,0-5.4-2.4-5.4-5.4s2.4-5.4,5.4-5.4
				s5.4,2.4,5.4,5.4S32-22.5,29-22.5L29-22.5z"/>
			<path d="M99.7-44.8c0.7,0,1.5,0.2,2.1,0.7c1.4,1.1,1.8,3.2,0.7,4.7l-8.7,11.5l8.7,11.5l0,0c0.9,1.6,0.7,3.6-0.9,4.7
				c-0.6,0.5-1.3,0.8-2.1,0.8c-1,0-2-0.5-2.6-1.3l-7.4-9.9l-7.4,9.9c-0.6,0.8-1.6,1.2-2.6,1.2c-0.7,0-1.5-0.2-2.1-0.7
				c-1.4-1.1-1.8-3.2-0.7-4.7l8.7-11.4l-8.7-11.5c-1.1-1.4-0.7-3.6,0.7-4.7c0.6-0.5,1.3-0.8,2.1-0.8c1,0,2,0.5,2.6,1.3l7.6,9.7
				l7.4-9.9C97.7-44.4,98.7-44.8,99.7-44.8 M99.7-49.5v4.7V-49.5c-2.5,0-4.8,1.1-6.3,3.1l-3.7,5l-3.8-4.9c-1.5-2-3.9-3.1-6.3-3.1
				c-1.8,0-3.6,0.6-5,1.8c-3.4,2.7-4.1,7.6-1.5,11.1l6.5,8.7L73-19.2c-2.7,3.6-1.9,8.6,1.6,11.2c1.4,1.1,3.2,1.6,4.9,1.6
				c2.5,0,4.8-1.1,6.3-3.1l3.7-4.9l3.6,4.9c1.5,2,3.9,3.2,6.4,3.2c1.8,0,3.5-0.6,4.9-1.7c3.4-2.4,4.3-6.9,2.1-10.7
				c-0.1-0.2-0.2-0.4-0.3-0.5l-6.6-8.7l6.6-8.7c1.3-1.7,1.8-3.8,1.5-5.9c-0.3-2.1-1.5-4.1-3.1-5.3C103.2-48.9,101.5-49.5,99.7-49.5
				L99.7-49.5z"/>
		</g>
	</g>
	<g id="Thin-M" transform="matrix(1 0 0 1 799.828 1126)">
		<g>
			<path d="M14.6-59.5c2,0,3.4,1.4,3.4,3.2v15.1c2.9-2.2,6.3-3.4,10.1-3.4c6.3,0,11.9,3.8,14.7,9c2.7-5.4,8.3-9,14.7-9
				c9.2,0,16.7,7.5,16.5,16.9C74-18.5,66.5-11,57.3-11c-6.3,0-11.9-3.8-14.7-9c-2.7,5.4-8.3,9-14.7,9c-9.2,0-16.5-7.4-16.7-16.5
				v-28.8C11.4-58.1,12.8-59.5,14.6-59.5 M57.6-17.8c5.6,0,10.1-4.5,10.1-10.1S63.2-38,57.6-38s-10.1,4.5-10.1,10.1
				S52-17.8,57.6-17.8 M28-17.8c5.6,0,10.1-4.5,10.1-10.1C38-33.5,33.5-38,28-38c-5.6,0-10.1,4.5-10.1,10.1S22.4-17.8,28-17.8
				 M14.6-63.3c-3.7,0-6.7,2.8-7.1,6.6c0,0.1,0,0.3,0,0.4v28.8c0,0,0,0,0,0.1C7.7-16.1,16.7-7.3,28-7.3c5.8,0,11.1-2.3,14.8-6.4
				c3.9,4,9.1,6.4,14.7,6.4c11.3,0,22.8-13.6,22.8-20.6c0.1-5.5-4.3-10.4-8.2-14.4c-3.9-3.9-9-6.1-14.5-6.1
				c-5.8,0-11.1,2.3-14.8,6.4c-3.9-4-9.1-6.4-14.7-6.4c-2.2,0-4.3,0.3-6.3,1v-9C21.8-60.2,18.7-63.3,14.6-63.3L14.6-63.3z
				 M57.6-21.6c-3.5,0-6.3-2.8-6.3-6.3s2.8-6.3,6.3-6.3s6.3,2.8,6.3,6.3C64-24.4,61.1-21.6,57.6-21.6L57.6-21.6z M28-21.6
				c-3.5,0-6.3-2.8-6.3-6.3s2.8-6.3,6.3-6.3s6.3,2.8,6.3,6.3S31.4-21.6,28-21.6L28-21.6z"/>
			<path d="M98.5-44.8c0.7,0,1.5,0.2,2.1,0.7c1.4,1.1,1.8,3.2,0.7,4.7l-8.6,11.5l8.6,11.5l0,0c0.9,1.6,0.7,3.6-0.9,4.7
				c-0.6,0.5-1.3,0.8-2,0.8c-1,0-2-0.5-2.6-1.3l-7.4-9.9L81-12.3c-0.6,0.8-1.6,1.2-2.6,1.2c-0.7,0-1.5-0.2-2.1-0.7
				c-1.4-1.1-1.8-3.2-0.7-4.7l8.6-11.3l-8.6-11.5c-1.1-1.4-0.7-3.6,0.7-4.7c0.6-0.5,1.3-0.8,2-0.8c1,0,2,0.5,2.6,1.3l7.6,9.7
				l7.4-9.9C96.5-44.4,97.5-44.8,98.5-44.8 M98.5-48.5v3.7V-48.5c-2.2,0-4.2,1-5.5,2.7l-4.5,6L84-45.7c-1.3-1.7-3.4-2.8-5.6-2.8
				c-1.6,0-3.2,0.6-4.4,1.6c-3,2.3-3.6,6.8-1.4,9.8l6.9,9.3l-6.9,9.1c-2.3,3.1-1.6,7.6,1.4,9.9c1.2,0.9,2.8,1.4,4.3,1.4
				c2.2,0,4.3-1,5.5-2.7l4.4-5.9l4.4,5.9c1.3,1.8,3.4,2.8,5.6,2.8c1.6,0,3.1-0.5,4.3-1.5c3-2.1,3.8-6.1,1.9-9.5
				c-0.1-0.1-0.2-0.3-0.3-0.4l-7-9.3l7-9.3c1.1-1.5,1.6-3.3,1.3-5.2c-0.3-1.9-1.3-3.6-2.8-4.7C101.6-48,100.1-48.5,98.5-48.5
				L98.5-48.5z"/>
		</g>
	</g>
	<g id="Ultralight-M" transform="matrix(1 0 0 1 503.679 1126)">
		<g>
			<path d="M14.7-59.5c2,0,3.4,1.4,3.4,3.2v15.1c2.9-2.2,6.3-3.4,10-3.4c6.3,0,11.8,3.8,14.7,9c2.7-5.4,8.2-9,14.7-9
				c9.1,0,16.7,7.5,16.5,16.9C74-18.6,66.5-11,57.3-11c-6.3,0-11.8-3.8-14.7-9c-2.7,5.4-8.3,9-14.7,9c-9.1,0-16.5-7.4-16.7-16.5
				v-28.7C11.4-58,12.9-59.5,14.7-59.5 M57.5-17.9c5.6,0,10-4.5,10-10c0-5.6-4.5-10-10-10c-5.6,0-10,4.5-10,10S52-17.9,57.5-17.9
				 M27.9-17.9c5.6,0,10-4.5,10-10c0-5.6-4.5-10-10-10c-5.6,0-10,4.5-10,10C17.9-22.4,22.4-17.9,27.9-17.9 M14.7-62.3
				c-3.2,0-5.8,2.5-6.2,5.7c0,0.1,0,0.2,0,0.3v28.7c0,0,0,0,0,0.1C8.7-16.7,17.2-8.3,27.9-8.3c5.8,0,11.2-2.5,14.8-6.8
				c3.7,4.3,9,6.8,14.6,6.8c10.7,0,22.3-12.4,22.3-19.5c0.1-5.2-4.7-10.1-8.4-13.8c-3.7-3.7-8.6-5.8-13.8-5.8
				c-5.8,0-11.2,2.5-14.8,6.8c-3.7-4.3-9-6.8-14.6-6.8c-2.5,0-5,0.5-7.3,1.4v-10.3C20.9-59.6,18.1-62.3,14.7-62.3L14.7-62.3z
				 M57.5-20.7c-4,0-7.3-3.3-7.3-7.3s3.3-7.3,7.3-7.3s7.3,3.3,7.3,7.3C64.8-23.9,61.5-20.7,57.5-20.7L57.5-20.7z M27.9-20.7
				c-4,0-7.3-3.3-7.3-7.3s3.3-7.3,7.3-7.3s7.3,3.3,7.3,7.3C35.2-23.9,31.9-20.7,27.9-20.7L27.9-20.7z"/>
			<path d="M97.4-44.8c0.7,0,1.5,0.2,2.1,0.7c1.4,1.1,1.8,3.2,0.7,4.7L91.6-28l8.6,11.5l0,0c0.9,1.6,0.7,3.6-0.9,4.7
				c-0.6,0.5-1.3,0.8-2,0.8c-1,0-2-0.5-2.6-1.3l-7.4-9.9l-7.4,9.9c-0.6,0.8-1.6,1.2-2.6,1.2c-0.7,0-1.5-0.2-2.1-0.7
				c-1.4-1.1-1.8-3.2-0.7-4.7l8.6-11.3l-8.6-11.5c-1.1-1.4-0.7-3.6,0.7-4.7c0.6-0.5,1.3-0.8,2-0.8c1,0,2,0.5,2.6,1.3l7.5,9.7
				l7.3-9.9C95.4-44.4,96.4-44.8,97.4-44.8 M97.4-47.6v2.8V-47.6c-1.9,0-3.7,0.9-4.8,2.3l-5.2,6.9l-5.3-6.8
				c-1.1-1.5-2.9-2.4-4.8-2.4c-1.4,0-2.7,0.5-3.8,1.4c-2.6,2-3.1,5.9-1.2,8.5l7.3,9.8l-7.3,9.6c-2,2.7-1.4,6.6,1.3,8.6
				c1.1,0.8,2.4,1.2,3.8,1.2c1.9,0,3.7-0.9,4.8-2.3l5.1-6.9l5.1,6.9c1.1,1.5,2.9,2.4,4.8,2.4c1.4,0,2.7-0.5,3.7-1.3
				c2.6-1.8,3.3-5.3,1.6-8.2c-0.1-0.1-0.1-0.2-0.2-0.3L95.1-28l7.4-9.8c1-1.3,1.4-2.9,1.1-4.5c-0.2-1.6-1.1-3.1-2.4-4.1
				C100.1-47.1,98.7-47.6,97.4-47.6L97.4-47.6z"/>
		</g>
	</g>
	<g id="Black-S" transform="matrix(1 0 0 1 2884.57 696)">
		<g>
			<path d="M12.9-54.5c1.6,0,2.7,1.1,2.7,2.6v12c2.3-1.7,5-2.7,8-2.7c5,0,9.4,3,11.7,7.1c2.1-4.3,6.6-7.1,11.7-7.1
				c7.3,0,13.3,6,13.1,13.4c0,7.3-6,13.3-13.3,13.3c-5,0-9.4-3-11.7-7.1c-2.1,4.3-6.6,7.1-11.7,7.1c-7.3,0-13.1-5.9-13.3-13.1v-23
				C10.4-53.4,11.5-54.5,12.9-54.5 M12.9-62.7c-5.6,0-10.2,4.2-10.8,9.9c0,0.3,0,0.5,0,0.8v22.8c0,0.1,0,0.1,0,0.2
				c0.1,5.7,2.4,11,6.4,14.9c4,4,9.4,6.2,15,6.2c4.3,0,8.4-1.3,11.8-3.5c3.4,2.3,7.4,3.5,11.6,3.5c11.8,0,21.4-9.6,21.4-21.3
				c0.1-5.7-2.1-11.1-6.1-15.2s-9.4-6.4-15.2-6.4c-4.3,0-8.4,1.3-11.8,3.5c-3.4-2.2-7.3-3.5-11.5-3.5V-52
				C23.8-57.9,18.9-62.7,12.9-62.7L12.9-62.7z"/>
			<path d="M23.5-30.7c0.7,0,1.3,0.6,1.3,1.3c0,0.7-0.6,1.3-1.3,1.3c-0.8,0-1.3-0.6-1.3-1.3C22.2-30.2,22.8-30.7,23.5-30.7
				 M23.5-37.4c-4.4,0-8,3.6-8,8s3.6,8,8,8s8-3.6,8-8S27.9-37.4,23.5-37.4L23.5-37.4z"/>
			<path d="M47.1-30.7c0.7,0,1.3,0.6,1.3,1.3c0,0.7-0.6,1.3-1.3,1.3c-0.8,0-1.3-0.6-1.3-1.3C45.7-30.2,46.3-30.7,47.1-30.7
				 M47.1-37.4c-4.4,0-8,3.6-8,8s3.6,8,8,8s8-3.6,8-8C55-33.8,51.5-37.4,47.1-37.4L47.1-37.4z"/>
			<path d="M84.7-42.8c0.6,0,1.2,0.2,1.7,0.6c1.1,0.9,1.4,2.6,0.6,3.7l-6.9,9.1l6.9,9.1l0,0c0.7,1.3,0.6,2.9-0.7,3.7
				c-0.5,0.4-1.1,0.6-1.6,0.6c-0.8,0-1.6-0.4-2.1-1l-5.9-7.9L70.8-17c-0.5,0.7-1.3,1-2,1c-0.6,0-1.2-0.2-1.7-0.5
				c-1.1-0.9-1.4-2.6-0.6-3.7l6.9-9l-6.9-9.1c-0.9-1.1-0.6-2.9,0.6-3.7c0.5-0.4,1.1-0.6,1.6-0.6c0.8,0,1.6,0.4,2.1,1l6,7.7l5.8-7.8
				C83.1-42.5,83.9-42.8,84.7-42.8 M84.7-51L84.7-51c-3.1,0-6,1.3-8,3.6c-2-2.2-4.9-3.5-7.9-3.5c-2.5,0-4.8,0.9-6.7,2.4
				c-4.6,3.6-5.5,10.2-2,14.9l3.2,4.2L62-27.7l-1.8,2.4c0,0,0,0,0,0.1c-3.5,4.7-2.5,11.5,2.2,15.1c1.9,1.4,4.2,2.2,6.6,2.2
				c3,0,5.9-1.3,7.9-3.4c2,2.2,4.9,3.5,7.9,3.5c2.4,0,4.7-0.8,6.6-2.3c4.4-3.2,5.6-9.2,2.9-14.1c-0.2-0.3-0.4-0.6-0.6-0.9L92-27.4
				l-1.5-2l1.3-1.7l1.9-2.5c1.7-2.3,2.4-5.1,2-8c-0.4-2.8-1.9-5.4-4.2-7.1C89.4-50.2,87-51,84.7-51L84.7-51L84.7-51z"/>
		</g>
	</g>
	<g id="Heavy-S" transform="matrix(1 0 0 1 2588.47 696)">
		<g>
			<path d="M12.8-54.5c1.6,0,2.7,1.1,2.7,2.6v12c2.3-1.7,5-2.7,8-2.7c5,0,9.4,3,11.7,7.1c2.1-4.3,6.6-7.1,11.7-7.1
				c7.3,0,13.3,6,13.1,13.4c0,7.3-6,13.3-13.3,13.3c-5,0-9.4-3-11.7-7.1c-2.1,4.3-6.6,7.1-11.7,7.1C16-15.9,10.2-21.7,10-29v-22.8
				C10.2-53.4,11.3-54.5,12.8-54.5 M12.8-61.9c-5.2,0-9.5,4-10,9.2c0,0.2,0,23.5,0,23.5v0.1c0,5.6,2.2,10.7,6,14.5
				c3.9,3.9,9,6,14.5,6c4.3,0,8.4-1.3,11.8-3.7c3.4,2.3,7.4,3.7,11.6,3.7c11.4,0,20.6-9.2,20.6-20.6c0.1-5.5-2-10.7-5.9-14.7
				s-9.1-6.2-14.6-6.2c-4.3,0-8.4,1.3-11.8,3.7c-3.4-2.3-7.4-3.7-11.6-3.7c-0.2,0-0.4,0-0.6,0V-52C22.9-57.5,18.4-61.9,12.8-61.9
				L12.8-61.9z"/>
			<path d="M23.3-31c0.9,0,1.6,0.7,1.6,1.6s-0.7,1.6-1.6,1.6s-1.6-0.7-1.6-1.6C21.7-30.3,22.4-31,23.3-31 M23.3-37.4
				c-4.4,0-8,3.6-8,8s3.6,8,8,8s8-3.6,8-8S27.7-37.4,23.3-37.4L23.3-37.4z"/>
			<path d="M46.8-31c0.9,0,1.6,0.7,1.6,1.6s-0.7,1.6-1.6,1.6c-0.9,0-1.6-0.7-1.6-1.6S45.9-31,46.8-31 M46.8-37.4c-4.4,0-8,3.6-8,8
				s3.6,8,8,8s8-3.6,8-8S51.2-37.4,46.8-37.4L46.8-37.4z"/>
			<path d="M83.7-42.8c0.6,0,1.2,0.2,1.7,0.6c1.1,0.9,1.4,2.6,0.6,3.7l-6.8,9.1l6.8,9.1l0,0c0.7,1.3,0.6,2.8-0.7,3.7
				c-0.5,0.4-1.1,0.6-1.6,0.6c-0.8,0-1.6-0.4-2.1-1l-5.8-7.8L70-17c-0.5,0.7-1.3,1-2,1c-0.6,0-1.2-0.2-1.7-0.5
				c-1.1-0.9-1.4-2.6-0.6-3.7l6.8-9l-6.8-9.1c-0.9-1.1-0.6-2.8,0.6-3.7c0.5-0.4,1.1-0.6,1.6-0.6c0.8,0,1.6,0.4,2.1,1l6,7.7l5.8-7.8
				C82.1-42.5,82.9-42.8,83.7-42.8 M83.7-50.2L83.7-50.2c-3.1,0-6.1,1.5-7.9,3.9l0,0v0.1l0,0c-1.9-2.5-4.8-3.9-7.9-3.9
				c-2.3,0-4.5,0.8-6.3,2.3c-4.2,3.4-5.1,9.5-1.8,13.9l3.5,4.7l-3.5,4.5c0,0,0,0,0,0.1c-3.3,4.4-2.4,10.7,2.1,14
				c1.8,1.3,3.9,2,6.1,2c3.1,0,6-1.4,7.9-3.8c1.9,2.5,4.8,3.9,7.9,3.9c2.2,0,4.4-0.7,6.1-2.1c4.1-3,5.2-8.6,2.7-13.2
				c-0.2-0.3-0.3-0.6-0.5-0.8l-3.5-4.7l3.5-4.7c1.6-2.1,2.3-4.7,1.9-7.4c-0.4-2.6-1.8-5.1-3.9-6.6C88-49.5,85.8-50.2,83.7-50.2
				L83.7-50.2L83.7-50.2z"/>
		</g>
	</g>
	<g id="Bold-S" transform="matrix(1 0 0 1 2292.43 696)">
		<g>
			<path d="M12.5-54.5c1.6,0,2.7,1.1,2.7,2.6V-40c2.3-1.7,5-2.7,8-2.7c5,0,9.4,3,11.7,7.1c2.1-4.3,6.5-7.1,11.7-7.1
				c7.3,0,13.2,6,13.1,13.4c0,7.3-6,13.2-13.2,13.2c-5,0-9.4-3-11.7-7.1c-2.1,4.3-6.5,7.1-11.7,7.1c-7.3,0-13.1-5.8-13.2-13.1V-52
				C10-53.3,11.1-54.5,12.5-54.5 M12.5-61.1c-4.8,0-8.8,3.7-9.3,8.5c0,0.2,0,23.4,0,23.4v0.1c0.1,5.2,2.2,10.2,5.9,13.8
				c3.7,3.7,8.7,5.7,14,5.7c4.3,0,8.4-1.4,11.8-3.8c3.3,2.4,7.4,3.8,11.6,3.8c10.9,0,19.8-8.9,19.9-19.8c0.1-5.3-1.9-10.3-5.6-14.1
				c-3.7-3.8-8.7-5.9-14.1-5.9c-4.3,0-8.4,1.4-11.8,3.8c-3.3-2.4-7.4-3.8-11.6-3.8c-0.4,0-0.9,0-1.3,0v-2.7
				C21.8-57.1,17.7-61.1,12.5-61.1L12.5-61.1z"/>
			<path d="M23-31.2c1,0,1.8,0.8,1.8,1.8S24-27.6,23-27.6s-1.8-0.8-1.8-1.8C21.3-30.4,22-31.2,23-31.2 M23-37.4c-4.4,0-8,3.6-8,8
				s3.6,8,8,8s8-3.6,8-8S27.4-37.4,23-37.4L23-37.4z"/>
			<path d="M46.5-31.2c1,0,1.8,0.8,1.8,1.8s-0.8,1.8-1.8,1.8s-1.8-0.8-1.8-1.8C44.7-30.4,45.5-31.2,46.5-31.2 M46.5-37.4
				c-4.4,0-8,3.6-8,8s3.6,8,8,8s8-3.6,8-8S50.9-37.4,46.5-37.4L46.5-37.4z"/>
			<path d="M82.5-42.8c0.6,0,1.2,0.2,1.7,0.5c1.1,0.9,1.4,2.6,0.6,3.7L78-29.5l6.8,9.1l0,0c0.7,1.3,0.6,2.8-0.7,3.7
				C83.6-16.2,83-16,82.4-16c-0.8,0-1.6-0.4-2.1-1l-5.8-7.8L68.7-17c-0.5,0.7-1.3,1-2,1c-0.6,0-1.2-0.2-1.7-0.5
				c-1.1-0.9-1.4-2.6-0.6-3.7l6.8-9l-6.8-9.1c-0.9-1.1-0.6-2.8,0.6-3.7c0.5-0.4,1.1-0.6,1.6-0.6c0.8,0,1.6,0.4,2.1,1l6,7.7l5.8-7.8
				C81-42.5,81.8-42.8,82.5-42.8 M82.5-49.4L82.5-49.4c-2.9,0-5.6,1.3-7.3,3.6l-0.7,0.9L74-45.7c-1.7-2.3-4.5-3.6-7.3-3.6
				c-2.1,0-4.2,0.7-5.8,2.1c-3.9,3.1-4.7,8.8-1.7,12.8l3.8,5.1l-3.8,5c0,0,0,0,0,0.1c-3,4.1-2.2,9.9,1.9,13c1.6,1.2,3.6,1.9,5.6,1.9
				c2.9,0,5.6-1.4,7.3-3.6l0.5-0.7l0.5,0.7c1.7,2.3,4.5,3.7,7.4,3.7c2.1,0,4-0.7,5.6-2c3.8-2.8,4.9-7.9,2.5-12.2
				c-0.1-0.3-4.3-5.9-4.3-5.9l3.8-5.1c1.5-2,2.1-4.4,1.7-6.8c-0.4-2.4-1.7-4.7-3.6-6.1C86.6-48.8,84.6-49.4,82.5-49.4L82.5-49.4
				L82.5-49.4z"/>
		</g>
	</g>
	<g id="Semibold-S" transform="matrix(1 0 0 1 1996.19 696)">
		<g>
			<path d="M12.5-54.4c1.6,0,2.7,1.1,2.7,2.6v11.9c2.3-1.7,5-2.7,7.9-2.7c5,0,9.4,3,11.6,7.1c2.1-4.3,6.5-7.1,11.6-7.1
				c7.2,0,13.2,6,13.1,13.3c0,7.2-6,13.2-13.2,13.2c-5,0-9.4-3-11.6-7.1c-2.1,4.3-6.5,7.1-11.6,7.1c-7.2,0-13.1-5.8-13.2-13.1v-22.7
				C9.9-53.3,11.1-54.4,12.5-54.4 M46.4-21.5c4.4,0,7.9-3.5,7.9-7.9s-3.5-8-7.9-8s-8,3.5-8,8C38.5-25,42-21.5,46.4-21.5 M23-21.5
				c4.4,0,7.9-3.5,7.9-7.9s-3.5-8-7.9-8s-8,3.5-8,8C15-25,18.6-21.5,23-21.5 M12.5-60.3c-4.4,0-8.1,3.4-8.5,7.8c0,0.2,0,23.3,0,23.3
				v0.1c0,5.1,2,9.8,5.6,13.4S18-10.2,23-10.2c4.4,0,8.5-1.4,11.7-4c3.3,2.6,7.3,4,11.6,4c10.5,0,19.1-8.5,19.1-19
				c0.1-5.1-1.8-9.9-5.4-13.6c-3.6-3.7-8.4-5.7-13.5-5.7c-4.4,0-8.5,1.4-11.7,4c-3.3-2.6-7.3-4-11.6-4c-0.7,0-1.4,0-2.1,0.1v-3.5
				C21.1-56.6,17.3-60.3,12.5-60.3L12.5-60.3z M46.4-27.4c-1.2,0-2.1-0.9-2.1-2.1s0.9-2.1,2.1-2.1c1.2,0,2.1,0.9,2.1,2.1
				S47.6-27.4,46.4-27.4L46.4-27.4z M23-27.4c-1.2,0-2.1-0.9-2.1-2.1s0.9-2.1,2.1-2.1s2.1,0.9,2.1,2.1C25-28.3,24.1-27.4,23-27.4
				L23-27.4z"/>
			<path d="M81.6-42.8c0.6,0,1.2,0.2,1.7,0.5c1.1,0.8,1.4,2.6,0.6,3.7l-6.8,9.1l6.8,9.1l0,0c0.7,1.3,0.6,2.8-0.7,3.7
				c-0.5,0.4-1,0.6-1.6,0.6c-0.8,0-1.6-0.4-2.1-1l-5.8-7.8l-5.8,7.8c-0.5,0.6-1.2,1-2,1c-0.6,0-1.2-0.2-1.7-0.5
				c-1.1-0.9-1.4-2.6-0.6-3.7l6.8-8.9l-6.8-9.1c-0.8-1.1-0.6-2.8,0.6-3.7c0.5-0.4,1-0.6,1.6-0.6c0.8,0,1.6,0.4,2.1,1l6,7.7l5.8-7.8
				C80.1-42.5,80.9-42.8,81.6-42.8 M81.6-48.7L81.6-48.7c-2.7,0-5.1,1.2-6.7,3.3l-1.2,1.6l-1.2-1.5c-1.6-2.1-4.1-3.3-6.7-3.3
				c-1.9,0-3.8,0.7-5.3,1.9c-3.6,2.9-4.3,8.1-1.6,11.8l4.2,5.5L59-24l0,0c-2.8,3.7-2,9.1,1.8,11.9c1.5,1.1,3.3,1.7,5.2,1.7
				c2.7,0,5.2-1.2,6.7-3.3l1.1-1.5l1.1,1.5c1.6,2.1,4.1,3.4,6.8,3.4c1.9,0,3.7-0.6,5.2-1.8c3.5-2.5,4.5-7.3,2.3-11.2
				c-0.1-0.2-4.6-6.2-4.6-6.2l4.2-5.6c1.3-1.8,1.9-4,1.6-6.3c-0.3-2.2-1.5-4.3-3.3-5.7C85.4-48.1,83.5-48.7,81.6-48.7L81.6-48.7
				L81.6-48.7z"/>
		</g>
	</g>
	<g id="Medium-S" transform="matrix(1 0 0 1 1699.83 696)">
		<g>
			<path d="M12.6-54.4c1.6,0,2.7,1.1,2.7,2.6v11.9c2.3-1.7,5-2.7,7.9-2.7c5,0,9.4,3,11.6,7.1c2.1-4.3,6.5-7.1,11.6-7.1
				c7.2,0,13.2,6,13,13.3c0,7.2-6,13.2-13.2,13.2c-5,0-9.3-3-11.6-7.1c-2.1,4.3-6.5,7.1-11.6,7.1c-7.2,0-13-5.8-13.2-13v-22.7
				C10-53.3,11.1-54.4,12.6-54.4 M46.4-21.5c4.4,0,7.9-3.5,7.9-7.9s-3.5-7.9-7.9-7.9s-7.9,3.5-7.9,7.9C38.5-25.1,42-21.5,46.4-21.5
				 M23-21.5c4.4,0,7.9-3.5,7.9-7.9s-3.5-7.9-7.9-7.9s-7.9,3.5-7.9,7.9C15.1-25.1,18.7-21.5,23-21.5 M12.6-59.5
				c-4,0-7.4,3.1-7.8,7.2c0,0.2,0,23.2,0,23.2v0.1c0.1,4.8,2,9.4,5.5,12.8c3.4,3.4,8,5.3,12.9,5.3c4.4,0,8.5-1.5,11.7-4.2
				C38-12.5,42-11,46.3-11c10.1,0,18.3-8.2,18.3-18.3c0.1-4.9-1.8-9.5-5.2-13c-3.5-3.5-8.1-5.5-13-5.5c-4.4,0-8.5,1.5-11.7,4.2
				c-3.2-2.7-7.3-4.2-11.5-4.2c-0.9,0-1.9,0.1-2.8,0.2v-4.3C20.4-56.1,17-59.5,12.6-59.5L12.6-59.5z M46.4-26.7
				c-1.5,0-2.8-1.3-2.8-2.8c0-1.6,1.2-2.8,2.8-2.8c1.5,0,2.8,1.3,2.8,2.8C49.2-27.9,48-26.7,46.4-26.7L46.4-26.7z M23-26.7
				c-1.5,0-2.8-1.3-2.8-2.8c0-1.6,1.2-2.8,2.8-2.8c1.5,0,2.8,1.3,2.8,2.8C25.8-27.9,24.6-26.7,23-26.7L23-26.7z"/>
			<path d="M80.9-42.8c0.6,0,1.2,0.2,1.7,0.5c1.1,0.8,1.4,2.5,0.6,3.7l-6.8,9.1l6.8,9.1l0,0c0.7,1.3,0.6,2.8-0.7,3.7
				c-0.5,0.4-1,0.6-1.6,0.6c-0.8,0-1.6-0.4-2.1-1L73-24.9l-5.8,7.8c-0.5,0.6-1.2,1-2,1c-0.6,0-1.2-0.2-1.7-0.5
				c-1.1-0.9-1.4-2.6-0.6-3.7l6.8-8.9l-6.8-9.1c-0.8-1.1-0.6-2.8,0.6-3.7c0.5-0.4,1-0.6,1.6-0.6c0.8,0,1.6,0.4,2.1,1l6,7.6l5.8-7.8
				C79.3-42.5,80.1-42.8,80.9-42.8 M80.9-47.9L80.9-47.9c-2.4,0-4.7,1.1-6.1,3L73-42.5l-1.8-2.3c-1.4-1.9-3.7-3-6.1-3
				c-1.8,0-3.5,0.6-4.8,1.7c-3.3,2.6-4,7.4-1.5,10.8l4.5,6l-4.4,5.8l0,0c-2.5,3.4-1.8,8.3,1.6,10.9c1.4,1,3,1.6,4.7,1.6
				c2.5,0,4.7-1.1,6.1-3l1.7-2.3l1.7,2.3c1.4,1.9,3.8,3.1,6.2,3.1c1.7,0,3.4-0.6,4.7-1.7c3.2-2.3,4.1-6.7,2.1-10.3
				c-0.1-0.2-0.2-0.4-0.4-0.6l-4.5-6l4.5-6c1.2-1.6,1.7-3.7,1.4-5.7c-0.3-2.1-1.4-3.9-3-5.2C84.3-47.4,82.6-47.9,80.9-47.9
				L80.9-47.9z"/>
		</g>
	</g>
	<g id="Regular-S" transform="matrix(1 0 0 1 1403.58 696)">
		<g>
			<path d="M12.9-54.3c1.6,0,2.7,1.1,2.7,2.5v11.9c2.3-1.7,4.9-2.7,7.9-2.7c4.9,0,9.3,3,11.6,7.1c2.1-4.2,6.5-7.1,11.6-7.1
				c7.2,0,13.2,5.9,13,13.3c0,7.2-5.9,13.2-13.2,13.2c-4.9,0-9.3-3-11.6-7.1c-2.1,4.2-6.5,7.1-11.6,7.1c-7.2,0-13-5.8-13.2-13v-22.6
				C10.4-53.2,11.5-54.3,12.9-54.3 M46.7-21.5c4.4,0,7.9-3.5,7.9-7.9s-3.5-7.9-7.9-7.9s-7.9,3.5-7.9,7.9
				C38.8-25.1,42.3-21.5,46.7-21.5 M23.4-21.5c4.4,0,7.9-3.5,7.9-7.9s-3.5-7.9-7.9-7.9s-7.9,3.5-7.9,7.9
				C15.4-25.1,19-21.5,23.4-21.5 M12.9-58.7c-3.6,0-6.7,2.8-7.1,6.5c0,0.1,0,23.1,0,23.1v0.1c0.1,4.6,1.9,9,5.2,12.2
				c3.3,3.3,7.7,5.1,12.3,5.1c4.4,0,8.6-1.6,11.7-4.4c3.2,2.8,7.3,4.4,11.5,4.4c9.7,0,17.5-7.8,17.5-17.5c0.1-4.7-1.7-9.1-5-12.5
				c-3.3-3.4-7.7-5.2-12.4-5.2c-4.4,0-8.5,1.6-11.7,4.4c-3.2-2.8-7.3-4.4-11.5-4.4c-1.2,0-2.4,0.1-3.5,0.4v-5.2
				C20-55.7,16.9-58.7,12.9-58.7L12.9-58.7z M46.7-25.9c-1.9,0-3.5-1.6-3.5-3.5s1.6-3.5,3.5-3.5s3.5,1.6,3.5,3.5
				C50.2-27.5,48.6-25.9,46.7-25.9L46.7-25.9z M23.4-25.9c-1.9,0-3.5-1.6-3.5-3.5s1.6-3.5,3.5-3.5s3.5,1.6,3.5,3.5
				C26.9-27.5,25.3-25.9,23.4-25.9L23.4-25.9z"/>
			<path d="M79.6-42.8c0.6,0,1.2,0.2,1.7,0.5c1.1,0.8,1.4,2.5,0.6,3.7L75-29.5l6.8,9l0,0c0.7,1.3,0.6,2.8-0.7,3.7
				c-0.5,0.4-1,0.6-1.6,0.6c-0.8,0-1.6-0.4-2.1-1L71.6-25l-5.8,7.8c-0.5,0.6-1.2,1-2,1c-0.6,0-1.2-0.2-1.7-0.5
				c-1.1-0.9-1.4-2.5-0.6-3.7l6.8-8.9l-6.8-9c-0.8-1.1-0.6-2.8,0.6-3.7c0.5-0.4,1-0.6,1.6-0.6c0.8,0,1.6,0.4,2.1,1l5.9,7.6l5.8-7.8
				C78.1-42.4,78.8-42.8,79.6-42.8 M79.6-47.2v4.4V-47.2c-2.2,0-4.2,1-5.5,2.7l-2.4,3.2l-2.4-3.1c-1.3-1.7-3.4-2.8-5.5-2.8
				c-1.6,0-3.1,0.6-4.4,1.6c-3,2.4-3.6,6.7-1.3,9.7l4.8,6.4l-4.8,6.3l0,0c-2.3,3.1-1.7,7.5,1.5,9.8c1.2,0.9,2.8,1.4,4.3,1.4
				c2.2,0,4.2-1,5.5-2.7l2.3-3.1l2.3,3.1c1.3,1.8,3.4,2.8,5.6,2.8c1.6,0,3.1-0.5,4.3-1.5c2.9-2.1,3.7-6,1.9-9.3
				c-0.1-0.2-5.1-6.9-5.1-6.9l4.8-6.4c1.1-1.5,1.6-3.3,1.3-5.2c-0.3-1.9-1.3-3.6-2.8-4.7C82.7-46.7,81.1-47.2,79.6-47.2L79.6-47.2z"
				/>
		</g>
	</g>
	<g id="Light-S" transform="matrix(1 0 0 1 1107.6 696)">
		<g>
			<path d="M12.6-54.3c1.6,0,2.7,1.1,2.7,2.5V-40c2.3-1.7,4.9-2.7,7.9-2.7c4.9,0,9.3,3,11.6,7.1c2.1-4.2,6.5-7.1,11.6-7.1
				c7.2,0,13.1,5.9,13,13.3c0,7.2-5.9,13.1-13.1,13.1c-4.9,0-9.3-3-11.6-7.1c-2.1,4.2-6.5,7.1-11.6,7.1c-7.2,0-13-5.8-13.1-13v-22.6
				C10.1-53.2,11.2-54.3,12.6-54.3 M46.3-21.6c4.4,0,7.9-3.5,7.9-7.9s-3.5-7.9-7.9-7.9s-7.9,3.5-7.9,7.9
				C38.4-25.1,42-21.6,46.3-21.6 M23.1-21.6c4.4,0,7.9-3.5,7.9-7.9s-3.5-7.9-7.9-7.9s-7.9,3.5-7.9,7.9
				C15.1-25.1,18.7-21.6,23.1-21.6 M12.6-58c-3.3,0-6,2.5-6.3,5.8c0,0.1,0,0.2,0,0.4v22.6c0,0,0,0,0,0.1c0.2,9.3,7.6,16.6,16.8,16.6
				c4.5,0,8.6-1.7,11.6-4.7c3.1,3,7.2,4.7,11.5,4.7C55.4-12.5,63-20,63-29.2c0.1-4.5-1.6-8.7-4.8-12c-3.2-3.2-7.4-5-11.9-5
				s-8.6,1.7-11.6,4.7c-3.1-3-7.2-4.7-11.5-4.7c-1.4,0-2.9,0.2-4.2,0.6v-6.1C18.9-55.2,16.2-58,12.6-58L12.6-58z M46.3-25.2
				c-2.3,0-4.2-1.9-4.2-4.2s1.9-4.2,4.2-4.2s4.2,1.9,4.2,4.2C50.6-27.1,48.7-25.2,46.3-25.2L46.3-25.2z M23.1-25.2
				c-2.3,0-4.2-1.9-4.2-4.2s1.9-4.2,4.2-4.2s4.2,1.9,4.2,4.2C27.3-27.1,25.4-25.2,23.1-25.2L23.1-25.2z"/>
			<path d="M78.4-42.7c0.6,0,1.2,0.2,1.7,0.5c1.1,0.8,1.4,2.5,0.6,3.7l-6.8,9l6.8,9l0,0c0.7,1.3,0.6,2.8-0.7,3.7
				c-0.5,0.4-1,0.6-1.6,0.6c-0.8,0-1.6-0.4-2.1-1L70.5-25l-5.8,7.8c-0.5,0.6-1.2,1-2,1c-0.6,0-1.2-0.2-1.7-0.5
				c-1.1-0.8-1.4-2.5-0.6-3.7l6.8-8.9l-6.8-9c-0.8-1.1-0.6-2.8,0.6-3.7c0.5-0.4,1-0.6,1.6-0.6c0.8,0,1.6,0.4,2.1,1l5.9,7.6l5.8-7.8
				C76.9-42.4,77.7-42.7,78.4-42.7 M78.4-46.4v3.7V-46.4c-2,0-3.8,0.9-4.9,2.4l-2.9,3.9l-3-3.8c-1.2-1.5-3-2.5-5-2.5
				c-1.4,0-2.8,0.5-3.9,1.4c-2.7,2.1-3.2,6-1.2,8.7l5.1,6.8l-5.1,6.7C55.4-20,56-16.1,58.8-14c1.1,0.8,2.5,1.3,3.8,1.3
				c2,0,3.8-0.9,4.9-2.4l2.9-3.8l2.9,3.8c1.2,1.6,3,2.5,5,2.5c1.4,0,2.7-0.5,3.8-1.3c2.6-1.9,3.3-5.4,1.7-8.4
				c-0.1-0.1-0.2-0.3-0.3-0.4l-5.1-6.8l5.1-6.8c1-1.3,1.4-3,1.2-4.6c-0.2-1.7-1.1-3.2-2.5-4.2C81.2-45.9,79.8-46.4,78.4-46.4
				L78.4-46.4z"/>
		</g>
	</g>
	<g id="Thin-S" transform="matrix(1 0 0 1 811.863 696)">
		<g>
			<path d="M11.7-54.3c1.6,0,2.7,1.1,2.7,2.5V-40c2.2-1.7,4.9-2.7,7.9-2.7c4.9,0,9.3,3,11.5,7c2.1-4.2,6.5-7,11.5-7
				c7.2,0,13.1,5.9,12.9,13.2c0,7.2-5.9,13.1-13.1,13.1c-4.9,0-9.3-3-11.5-7c-2.1,4.2-6.5,7-11.5,7C15-16.3,9.2-22,9-29.2v-22.5
				C9.2-53.1,10.3-54.3,11.7-54.3 M45.4-21.6c4.4,0,7.9-3.5,7.9-7.9s-3.5-7.9-7.9-7.9s-7.9,3.5-7.9,7.9S41-21.6,45.4-21.6
				 M22.1-21.6c4.4,0,7.9-3.5,7.9-7.9s-3.5-7.9-7.9-7.9s-7.9,3.5-7.9,7.9C14.2-25.1,17.8-21.6,22.1-21.6 M11.7-57.2
				c-2.9,0-5.3,2.2-5.6,5.2c0,0.1,0,0.2,0,0.3v22.5c0,0,0,0,0,0.1c0.2,8.9,7.2,15.8,16,15.8c4.5,0,8.7-1.8,11.6-5
				c3,3.1,7.1,5,11.5,5c8.8,0,17.9-10.7,17.9-16.1c0.1-4.3-3.4-8.2-6.4-11.2c-3-3.1-7-4.8-11.3-4.8c-4.5,0-8.7,1.8-11.6,5
				c-3-3.1-7.1-5-11.5-5c-1.7,0-3.4,0.3-5,0.8v-7C17.3-54.8,14.9-57.2,11.7-57.2L11.7-57.2z M45.4-24.5c-2.7,0-5-2.2-5-5
				c0-2.7,2.2-5,5-5c2.7,0,5,2.2,5,5C50.3-26.7,48.1-24.5,45.4-24.5L45.4-24.5z M22.1-24.5c-2.7,0-5-2.2-5-5c0-2.7,2.2-5,5-5
				c2.7,0,5,2.2,5,5S24.9-24.5,22.1-24.5L22.1-24.5z"/>
			<path d="M77.4-42.7c0.6,0,1.2,0.2,1.6,0.5c1.1,0.8,1.4,2.5,0.6,3.7l-6.8,9l6.8,9l0,0c0.7,1.3,0.6,2.8-0.7,3.7
				c-0.5,0.4-1,0.6-1.6,0.6c-0.8,0-1.6-0.4-2.1-1L69.5-25l-5.8,7.7c-0.5,0.6-1.2,1-2,1c-0.6,0-1.2-0.2-1.6-0.5
				c-1.1-0.8-1.4-2.5-0.6-3.7l6.8-8.9l-6.8-9c-0.8-1.1-0.6-2.8,0.6-3.7c0.5-0.4,1-0.6,1.6-0.6c0.8,0,1.6,0.4,2.1,1l5.9,7.6l5.8-7.7
				C75.8-42.4,76.6-42.7,77.4-42.7 M77.4-45.6v2.9V-45.6c-1.7,0-3.3,0.8-4.3,2.1l-3.5,4.7L66-43.4c-1-1.4-2.7-2.2-4.4-2.2
				c-1.3,0-2.5,0.4-3.4,1.3c-2.3,1.8-2.8,5.3-1.1,7.7l5.4,7.2l-5.4,7.1c-1.8,2.4-1.3,6,1.1,7.8c1,0.7,2.2,1.1,3.4,1.1
				c1.7,0,3.3-0.8,4.3-2.1l3.4-4.6l3.4,4.6c1,1.4,2.7,2.2,4.4,2.2c1.2,0,2.4-0.4,3.4-1.2c2.3-1.7,3-4.7,1.5-7.4
				c-0.1-0.1-0.1-0.2-0.2-0.3l-5.4-7.3l5.4-7.3c0.9-1.2,1.2-2.6,1-4.1s-1-2.8-2.2-3.7C79.8-45.2,78.6-45.6,77.4-45.6L77.4-45.6z"/>
		</g>
	</g>
	<g id="Ultralight-S" transform="matrix(1 0 0 1 515.649 696)">
		<g>
			<path d="M11.7-54.2c1.5,0,2.7,1.1,2.7,2.5v11.8c2.2-1.7,4.9-2.7,7.9-2.7c4.9,0,9.3,2.9,11.5,7c2.1-4.2,6.5-7,11.5-7
				c7.2,0,13.1,5.9,12.9,13.2c0,7.2-5.9,13.1-13.1,13.1c-4.9,0-9.3-3-11.5-7c-2.1,4.2-6.5,7-11.5,7c-7.2,0-12.9-5.8-13.1-12.9v-22.5
				C9.1-53.1,10.3-54.2,11.7-54.2 M45.2-21.6c4.3,0,7.9-3.5,7.9-7.9s-3.5-7.9-7.9-7.9s-7.9,3.5-7.9,7.9
				C37.4-25.2,40.9-21.6,45.2-21.6 M22.1-21.6c4.3,0,7.9-3.5,7.9-7.9s-3.5-7.9-7.9-7.9s-7.9,3.5-7.9,7.9
				C14.2-25.2,17.7-21.6,22.1-21.6 M11.7-56.4c-2.5,0-4.6,1.9-4.8,4.5c0,0.1,0,0.1,0,0.2v22.5l0,0c0.2,8.4,6.9,15.1,15.2,15.1
				c4.6,0,8.8-2,11.6-5.3c2.9,3.3,7.1,5.3,11.5,5.3c8.4,0,17.5-9.7,17.5-15.3c0.1-4.1-3.7-7.9-6.6-10.8c-2.9-2.9-6.7-4.5-10.8-4.5
				c-4.6,0-8.8,2-11.6,5.3c-2.9-3.3-7.1-5.3-11.5-5.3c-2,0-3.9,0.4-5.7,1.1v-8.1C16.5-54.3,14.4-56.4,11.7-56.4L11.7-56.4z
				 M45.2-23.8c-3.1,0-5.7-2.5-5.7-5.7c0-3.1,2.5-5.7,5.7-5.7c3.1,0,5.7,2.5,5.7,5.7C50.9-26.4,48.4-23.8,45.2-23.8L45.2-23.8z
				 M22.1-23.8c-3.1,0-5.7-2.5-5.7-5.7c0-3.1,2.5-5.7,5.7-5.7c3.1,0,5.7,2.5,5.7,5.7C27.7-26.4,25.2-23.8,22.1-23.8L22.1-23.8z"/>
			<path d="M76.4-42.7c0.6,0,1.2,0.2,1.6,0.5c1.1,0.8,1.4,2.5,0.6,3.6l-6.7,9l6.7,9l0,0c0.7,1.3,0.6,2.8-0.7,3.7
				c-0.5,0.4-1,0.6-1.6,0.6c-0.8,0-1.6-0.4-2-1L68.5-25l-5.8,7.7c-0.5,0.6-1.2,1-2,1c-0.6,0-1.2-0.2-1.6-0.5
				c-1.1-0.8-1.4-2.5-0.6-3.7l6.7-8.8l-6.7-9c-0.8-1.1-0.6-2.8,0.6-3.7c0.5-0.4,1-0.6,1.6-0.6c0.8,0,1.6,0.4,2,1l5.9,7.6l5.8-7.7
				C74.9-42.4,75.7-42.7,76.4-42.7 M76.4-44.9v2.2V-44.9c-1.5,0-2.9,0.7-3.7,1.8l-4.1,5.4L64.5-43c-0.9-1.2-2.3-1.9-3.8-1.9
				c-1.1,0-2.1,0.4-3,1.1c-2,1.6-2.5,4.6-0.9,6.7l5.8,7.7l-5.7,7.5c-1.6,2.1-1.1,5.2,1,6.7c0.8,0.6,1.9,1,3,1c1.5,0,2.9-0.7,3.8-1.8
				l4-5.4l4,5.4c0.9,1.2,2.3,1.9,3.8,1.9c1.1,0,2.1-0.4,2.9-1c2-1.4,2.6-4.1,1.3-6.5c0-0.1-0.1-0.2-0.2-0.2l-5.8-7.7l5.8-7.7
				c0.7-1,1.1-2.2,0.9-3.5s-0.9-2.4-1.9-3.2C78.5-44.5,77.5-44.9,76.4-44.9L76.4-44.9z"/>
		</g>
	</g>
</g>
</svg>
