<?xml version="1.0" encoding="UTF-8"?>
<!--Generator: Apple Native CoreSVG 232.5-->
<!DOCTYPE svg
PUBLIC "-//W3C//DTD SVG 1.1//EN"
       "http://www.w3.org/Graphics/SVG/1.1/DTD/svg11.dtd">
<svg version="1.1" xmlns="http://www.w3.org/2000/svg" xmlns:xlink="http://www.w3.org/1999/xlink" width="3300" height="2200">
 <!--glyph: "uni1019C5.medium", point size: 100.0, font version: "19.0d7e1", template writer version: "128"-->
 <style>.monochrome-0 {-sfsymbols-motion-group:1}
.monochrome-1 {opacity:0.0;-sfsymbols-clear-behind:true;-sfsymbols-motion-group:1}
.monochrome-2 {-sfsymbols-motion-group:1}
.monochrome-3 {-sfsymbols-motion-group:0}
.monochrome-4 {-sfsymbols-motion-group:0}
.monochrome-5 {-sfsymbols-motion-group:0}

.multicolor-0:systemGrayColor {-sfsymbols-motion-group:1}
.multicolor-1:tintColor {opacity:0.0;-sfsymbols-clear-behind:true;-sfsymbols-motion-group:1}
.multicolor-2:systemGrayColor {-sfsymbols-motion-group:1}
.multicolor-3:systemBlueColor {-sfsymbols-motion-group:0}
.multicolor-4:systemBlueColor {-sfsymbols-motion-group:0}
.multicolor-5:systemBlueColor {-sfsymbols-motion-group:0}

.hierarchical-0:primary {-sfsymbols-motion-group:1}
.hierarchical-1:primary {opacity:0.0;-sfsymbols-clear-behind:true;-sfsymbols-motion-group:1}
.hierarchical-2:primary {-sfsymbols-motion-group:1}
.hierarchical-3:primary {-sfsymbols-motion-group:0}
.hierarchical-4:primary {-sfsymbols-motion-group:0}
.hierarchical-5:primary {-sfsymbols-motion-group:0}

.SFSymbolsPreviewWireframe {fill:none;opacity:1.0;stroke:black;stroke-width:0.5}
</style>
 <g id="Notes">
  <rect height="2200" id="artboard" style="fill:white;opacity:1" width="3300" x="0" y="0"/>
  <line style="fill:none;stroke:black;opacity:1;stroke-width:0.5;" x1="263" x2="3036" y1="292" y2="292"/>
  <text style="stroke:none;fill:black;font-family:sans-serif;font-size:13;font-weight:bold;" transform="matrix(1 0 0 1 263 322)">Weight/Scale Variations</text>
  <text style="stroke:none;fill:black;font-family:sans-serif;font-size:13;text-anchor:middle;" transform="matrix(1 0 0 1 559.711 322)">Ultralight</text>
  <text style="stroke:none;fill:black;font-family:sans-serif;font-size:13;text-anchor:middle;" transform="matrix(1 0 0 1 856.422 322)">Thin</text>
  <text style="stroke:none;fill:black;font-family:sans-serif;font-size:13;text-anchor:middle;" transform="matrix(1 0 0 1 1153.13 322)">Light</text>
  <text style="stroke:none;fill:black;font-family:sans-serif;font-size:13;text-anchor:middle;" transform="matrix(1 0 0 1 1449.84 322)">Regular</text>
  <text style="stroke:none;fill:black;font-family:sans-serif;font-size:13;text-anchor:middle;" transform="matrix(1 0 0 1 1746.56 322)">Medium</text>
  <text style="stroke:none;fill:black;font-family:sans-serif;font-size:13;text-anchor:middle;" transform="matrix(1 0 0 1 2043.27 322)">Semibold</text>
  <text style="stroke:none;fill:black;font-family:sans-serif;font-size:13;text-anchor:middle;" transform="matrix(1 0 0 1 2339.98 322)">Bold</text>
  <text style="stroke:none;fill:black;font-family:sans-serif;font-size:13;text-anchor:middle;" transform="matrix(1 0 0 1 2636.69 322)">Heavy</text>
  <text style="stroke:none;fill:black;font-family:sans-serif;font-size:13;text-anchor:middle;" transform="matrix(1 0 0 1 2933.4 322)">Black</text>
  <line style="fill:none;stroke:black;opacity:1;stroke-width:0.5;" x1="263" x2="3036" y1="1903" y2="1903"/>
  <g transform="matrix(0.2 0 0 0.2 263 1933)">
   <path d="m46.2402 4.15039c21.5332 0 39.4531-17.8711 39.4531-39.4043s-17.9688-39.4043-39.502-39.4043c-21.4844 0-39.3555 17.8711-39.3555 39.4043s17.9199 39.4043 39.4043 39.4043Zm0-7.42188c-17.7246 0-31.8848-14.209-31.8848-31.9824s14.1113-31.9824 31.8359-31.9824c17.7734 0 32.0312 14.209 32.0312 31.9824s-14.209 31.9824-31.9824 31.9824Zm-17.9688-31.9824c0 2.14844 1.51367 3.61328 3.75977 3.61328h10.498v10.5957c0 2.19727 1.46484 3.71094 3.61328 3.71094 2.24609 0 3.71094-1.51367 3.71094-3.71094v-10.5957h10.5957c2.19727 0 3.71094-1.46484 3.71094-3.61328 0-2.19727-1.51367-3.71094-3.71094-3.71094h-10.5957v-10.5469c0-2.24609-1.46484-3.75977-3.71094-3.75977-2.14844 0-3.61328 1.51367-3.61328 3.75977v10.5469h-10.498c-2.24609 0-3.75977 1.51367-3.75977 3.71094Z"/>
  </g>
  <g transform="matrix(0.2 0 0 0.2 281.506 1933)">
   <path d="m58.5449 14.5508c27.2461 0 49.8047-22.6074 49.8047-49.8047 0-27.2461-22.6074-49.8047-49.8535-49.8047-27.1973 0-49.7559 22.5586-49.7559 49.8047 0 27.1973 22.6074 49.8047 49.8047 49.8047Zm0-8.30078c-23.0469 0-41.4551-18.457-41.4551-41.5039s18.3594-41.5039 41.4062-41.5039 41.5527 18.457 41.5527 41.5039-18.457 41.5039-41.5039 41.5039Zm-22.6562-41.5039c0 2.39258 1.66016 4.00391 4.15039 4.00391h14.3555v14.4043c0 2.44141 1.66016 4.15039 4.05273 4.15039 2.44141 0 4.15039-1.66016 4.15039-4.15039v-14.4043h14.4043c2.44141 0 4.15039-1.61133 4.15039-4.00391 0-2.44141-1.70898-4.15039-4.15039-4.15039h-14.4043v-14.3555c0-2.49023-1.70898-4.19922-4.15039-4.19922-2.39258 0-4.05273 1.70898-4.05273 4.19922v14.3555h-14.3555c-2.49023 0-4.15039 1.70898-4.15039 4.15039Z"/>
  </g>
  <g transform="matrix(0.2 0 0 0.2 304.924 1933)">
   <path d="m74.8535 28.3203c34.8145 0 63.623-28.8086 63.623-63.5742 0-34.8145-28.8574-63.623-63.6719-63.623-34.7656 0-63.5254 28.8086-63.5254 63.623 0 34.7656 28.8086 63.5742 63.5742 63.5742Zm0-9.08203c-30.1758 0-54.4434-24.3164-54.4434-54.4922 0-30.2246 24.2188-54.4922 54.3945-54.4922 30.2246 0 54.541 24.2676 54.541 54.4922 0 30.1758-24.2676 54.4922-54.4922 54.4922Zm-28.8574-54.4922c0 2.58789 1.85547 4.39453 4.58984 4.39453h19.7266v19.7754c0 2.68555 1.85547 4.58984 4.44336 4.58984 2.68555 0 4.54102-1.85547 4.54102-4.58984v-19.7754h19.7754c2.68555 0 4.58984-1.80664 4.58984-4.39453 0-2.73438-1.85547-4.58984-4.58984-4.58984h-19.7754v-19.7266c0-2.73438-1.85547-4.63867-4.54102-4.63867-2.58789 0-4.44336 1.9043-4.44336 4.63867v19.7266h-19.7266c-2.73438 0-4.58984 1.85547-4.58984 4.58984Z"/>
  </g>
  <text style="stroke:none;fill:black;font-family:sans-serif;font-size:13;font-weight:bold;" transform="matrix(1 0 0 1 263 1953)">Design Variations</text>
  <text style="stroke:none;fill:black;font-family:sans-serif;font-size:13;" transform="matrix(1 0 0 1 263 1971)">Symbols are supported in up to nine weights and three scales.</text>
  <text style="stroke:none;fill:black;font-family:sans-serif;font-size:13;" transform="matrix(1 0 0 1 263 1989)">For optimal layout with text and other symbols, vertically align</text>
  <text style="stroke:none;fill:black;font-family:sans-serif;font-size:13;" transform="matrix(1 0 0 1 263 2007)">symbols with the adjacent text.</text>
  <line style="fill:none;stroke:#00AEEF;stroke-width:0.5;opacity:1.0;" x1="776" x2="776" y1="1919" y2="1933"/>
  <g transform="matrix(0.2 0 0 0.2 776 1933)">
   <path d="m16.5527 0.78125c2.58789 0 3.85742-0.976562 4.78516-3.71094l6.29883-17.2363h28.8086l6.29883 17.2363c0.927734 2.73438 2.19727 3.71094 4.73633 3.71094 2.58789 0 4.24805-1.5625 4.24805-4.00391 0-0.830078-0.146484-1.61133-0.537109-2.63672l-22.9004-60.9863c-1.12305-2.97852-3.125-4.49219-6.25-4.49219-3.02734 0-5.07812 1.46484-6.15234 4.44336l-22.9004 61.084c-0.390625 1.02539-0.537109 1.80664-0.537109 2.63672 0 2.44141 1.5625 3.95508 4.10156 3.95508Zm13.4766-28.3691 11.8652-32.8613h0.244141l11.8652 32.8613Z"/>
  </g>
  <line style="fill:none;stroke:#00AEEF;stroke-width:0.5;opacity:1.0;" x1="792.836" x2="792.836" y1="1919" y2="1933"/>
  <text style="stroke:none;fill:black;font-family:sans-serif;font-size:13;font-weight:bold;" transform="matrix(1 0 0 1 776 1953)">Margins</text>
  <text style="stroke:none;fill:black;font-family:sans-serif;font-size:13;" transform="matrix(1 0 0 1 776 1971)">Leading and trailing margins on the left and right side of each symbol</text>
  <text style="stroke:none;fill:black;font-family:sans-serif;font-size:13;" transform="matrix(1 0 0 1 776 1989)">can be adjusted by modifying the x-location of the margin guidelines.</text>
  <text style="stroke:none;fill:black;font-family:sans-serif;font-size:13;" transform="matrix(1 0 0 1 776 2007)">Modifications are automatically applied proportionally to all</text>
  <text style="stroke:none;fill:black;font-family:sans-serif;font-size:13;" transform="matrix(1 0 0 1 776 2025)">scales and weights.</text>
  <g transform="matrix(0.2 0 0 0.2 1289 1933)">
   <path d="m14.209 9.32617 8.49609 8.54492c4.29688 4.3457 9.22852 4.05273 13.8672-1.07422l53.4668-58.9355-4.83398-4.88281-53.0762 58.3984c-1.75781 2.00195-3.41797 2.49023-5.76172 0.146484l-5.85938-5.81055c-2.34375-2.29492-1.80664-4.00391 0.195312-5.81055l57.373-54.0039-4.88281-4.83398-57.959 54.4434c-4.93164 4.58984-5.32227 9.47266-1.02539 13.8184Zm32.0801-90.9668c-2.09961 2.05078-2.24609 4.93164-1.07422 6.88477 1.17188 1.80664 3.4668 2.97852 6.68945 2.14844 7.32422-1.70898 14.9414-2.00195 22.0703 2.68555l-2.92969 7.27539c-1.70898 4.15039-0.830078 7.08008 1.85547 9.81445l11.4746 11.5723c2.44141 2.44141 4.49219 2.53906 7.32422 2.05078l5.32227-0.976562 3.32031 3.36914-0.195312 2.7832c-0.195312 2.49023 0.439453 4.39453 2.88086 6.78711l3.80859 3.71094c2.39258 2.39258 5.46875 2.53906 7.8125 0.195312l14.5508-14.5996c2.34375-2.34375 2.24609-5.32227-0.146484-7.71484l-3.85742-3.80859c-2.39258-2.39258-4.24805-3.17383-6.64062-2.97852l-2.88086 0.244141-3.22266-3.17383 1.2207-5.61523c0.634766-2.83203-0.146484-5.0293-3.07617-7.95898l-10.9863-10.9375c-16.6992-16.6016-38.8672-16.2109-53.3203-1.75781Zm7.4707 1.85547c12.1582-8.88672 28.6133-7.37305 39.7461 3.75977l12.1582 12.0605c1.17188 1.17188 1.36719 2.09961 1.02539 3.80859l-1.61133 7.42188 7.51953 7.42188 4.93164-0.292969c1.26953-0.0488281 1.66016 0.0488281 2.63672 1.02539l2.88086 2.88086-12.207 12.207-2.88086-2.88086c-0.976562-0.976562-1.12305-1.36719-1.07422-2.68555l0.341797-4.88281-7.4707-7.42188-7.61719 1.26953c-1.61133 0.341797-2.34375 0.195312-3.56445-0.976562l-10.0098-10.0098c-1.26953-1.17188-1.41602-2.00195-0.634766-3.85742l4.39453-10.4492c-7.8125-7.27539-17.9688-10.4004-28.125-7.42188-0.78125 0.195312-1.07422-0.439453-0.439453-0.976562Z"/>
  </g>
  <text style="stroke:none;fill:black;font-family:sans-serif;font-size:13;font-weight:bold;" transform="matrix(1 0 0 1 1289 1953)">Exporting</text>
  <text style="stroke:none;fill:black;font-family:sans-serif;font-size:13;" transform="matrix(1 0 0 1 1289 1971)">Symbols should be outlined when exporting to ensure the</text>
  <text style="stroke:none;fill:black;font-family:sans-serif;font-size:13;" transform="matrix(1 0 0 1 1289 1989)">design is preserved when submitting to Xcode.</text>
  <text id="template-version" style="stroke:none;fill:black;font-family:sans-serif;font-size:13;text-anchor:end;" transform="matrix(1 0 0 1 3036 1933)">Template v.5.0</text>
  <text style="stroke:none;fill:black;font-family:sans-serif;font-size:13;text-anchor:end;" transform="matrix(1 0 0 1 3036 1951)">Requires Xcode 15 or greater</text>
  <text id="descriptive-name" style="stroke:none;fill:black;font-family:sans-serif;font-size:13;text-anchor:end;" transform="matrix(1 0 0 1 3036 1969)">Generated from list.clipboard</text>
  <text style="stroke:none;fill:black;font-family:sans-serif;font-size:13;text-anchor:end;" transform="matrix(1 0 0 1 3036 1987)">Typeset at 100.0 points</text>
  <text style="stroke:none;fill:black;font-family:sans-serif;font-size:13;" transform="matrix(1 0 0 1 263 726)">Small</text>
  <text style="stroke:none;fill:black;font-family:sans-serif;font-size:13;" transform="matrix(1 0 0 1 263 1156)">Medium</text>
  <text style="stroke:none;fill:black;font-family:sans-serif;font-size:13;" transform="matrix(1 0 0 1 263 1586)">Large</text>
 </g>
 <g id="Guides">
  <g id="H-reference" style="fill:#27AAE1;stroke:none;" transform="matrix(1 0 0 1 339 696)">
   <path d="M0.993654 0L3.63775 0L29.3281-67.1323L30.0303-67.1323L30.0303-70.459L28.1226-70.459ZM11.6885-24.4799L46.9815-24.4799L46.2315-26.7285L12.4385-26.7285ZM55.1196 0L57.7637 0L30.6382-70.459L29.4326-70.459L29.4326-67.1323Z"/>
  </g>
  <line id="Baseline-S" style="fill:none;stroke:#27AAE1;opacity:1;stroke-width:0.5;" x1="263" x2="3036" y1="696" y2="696"/>
  <line id="Capline-S" style="fill:none;stroke:#27AAE1;opacity:1;stroke-width:0.5;" x1="263" x2="3036" y1="625.541" y2="625.541"/>
  <g id="H-reference" style="fill:#27AAE1;stroke:none;" transform="matrix(1 0 0 1 339 1126)">
   <path d="M0.993654 0L3.63775 0L29.3281-67.1323L30.0303-67.1323L30.0303-70.459L28.1226-70.459ZM11.6885-24.4799L46.9815-24.4799L46.2315-26.7285L12.4385-26.7285ZM55.1196 0L57.7637 0L30.6382-70.459L29.4326-70.459L29.4326-67.1323Z"/>
  </g>
  <line id="Baseline-M" style="fill:none;stroke:#27AAE1;opacity:1;stroke-width:0.5;" x1="263" x2="3036" y1="1126" y2="1126"/>
  <line id="Capline-M" style="fill:none;stroke:#27AAE1;opacity:1;stroke-width:0.5;" x1="263" x2="3036" y1="1055.54" y2="1055.54"/>
  <g id="H-reference" style="fill:#27AAE1;stroke:none;" transform="matrix(1 0 0 1 339 1556)">
   <path d="M0.993654 0L3.63775 0L29.3281-67.1323L30.0303-67.1323L30.0303-70.459L28.1226-70.459ZM11.6885-24.4799L46.9815-24.4799L46.2315-26.7285L12.4385-26.7285ZM55.1196 0L57.7637 0L30.6382-70.459L29.4326-70.459L29.4326-67.1323Z"/>
  </g>
  <line id="Baseline-L" style="fill:none;stroke:#27AAE1;opacity:1;stroke-width:0.5;" x1="263" x2="3036" y1="1556" y2="1556"/>
  <line id="Capline-L" style="fill:none;stroke:#27AAE1;opacity:1;stroke-width:0.5;" x1="263" x2="3036" y1="1485.54" y2="1485.54"/>
  <line id="left-margin-Ultralight-S" style="fill:none;stroke:#00AEEF;stroke-width:0.5;opacity:1.0;" x1="519.288" x2="519.288" y1="600.785" y2="720.121"/>
  <line id="right-margin-Ultralight-S" style="fill:none;stroke:#00AEEF;stroke-width:0.5;opacity:1.0;" x1="600.134" x2="600.134" y1="600.785" y2="720.121"/>
  <line id="left-margin-Regular-S" style="fill:none;stroke:#00AEEF;stroke-width:0.5;opacity:1.0;" x1="1407.56" x2="1407.56" y1="600.785" y2="720.121"/>
  <line id="right-margin-Regular-S" style="fill:none;stroke:#00AEEF;stroke-width:0.5;opacity:1.0;" x1="1492.13" x2="1492.13" y1="600.785" y2="720.121"/>
  <line id="left-margin-Black-S" style="fill:none;stroke:#00AEEF;stroke-width:0.5;opacity:1.0;" x1="2888.09" x2="2888.09" y1="600.785" y2="720.121"/>
  <line id="right-margin-Black-S" style="fill:none;stroke:#00AEEF;stroke-width:0.5;opacity:1.0;" x1="2978.71" x2="2978.71" y1="600.785" y2="720.121"/>
 </g>
 <g id="Symbols">
  <g id="Black-S" transform="matrix(1 0 0 1 2888.09 696)">
   <path class="monochrome-0 multicolor-0:systemGrayColor hierarchical-0:primary SFSymbolsPreviewWireframe" d="M80.8594-4.54102L80.8594-61.9141C80.8594-71.2402 74.707-77.4414 65.5273-77.4414L25.0977-77.4414C15.918-77.4414 9.76562-71.2402 9.76562-61.9141L9.76562-4.54102C9.76562 4.78516 15.918 10.9863 25.0977 10.9863L65.5273 10.9863C74.707 10.9863 80.8594 4.78516 80.8594-4.54102ZM22.9492-4.63867L22.9492-61.8164C22.9492-63.2812 23.9746-64.2578 25.4883-64.2578L65.1367-64.2578C66.6504-64.2578 67.6758-63.2812 67.6758-61.8164L67.6758-4.63867C67.6758-3.17383 66.6504-2.19727 65.1367-2.19727L25.4883-2.19727C23.9746-2.19727 22.9492-3.17383 22.9492-4.63867Z"/>
   <path class="monochrome-1 multicolor-1:tintColor hierarchical-1:primary SFSymbolsPreviewWireframe" d="M33.6914-59.6191L56.9336-59.6191C62.1582-59.6191 65.8691-63.4277 65.8691-68.8477L65.8691-72.8516C65.8691-78.3203 62.1582-82.0801 56.8359-82.0801C55.2246-82.0801 53.418-82.0801 51.5625-82.0801L59.6191-75.6836C60.2051-84.082 53.6621-91.1133 45.3125-91.1133C36.9629-91.1133 30.4199-84.082 31.0059-75.6836L39.0625-82.0801C37.207-82.0801 35.4004-82.0801 33.7891-82.0801C28.4668-82.0801 24.7559-78.3203 24.7559-72.8516L24.7559-68.8477C24.7559-63.4277 28.4668-59.6191 33.6914-59.6191Z"/>
   <path class="monochrome-2 multicolor-2:systemGrayColor hierarchical-2:primary SFSymbolsPreviewWireframe" d="M33.6914-64.2578L56.9336-64.2578C59.6191-64.2578 61.2305-65.9668 61.2305-68.8477L61.2305-72.8516C61.2305-75.7324 59.6191-77.4414 56.9336-77.4414L55.0293-77.4414C54.6387-82.4707 50.4883-86.4746 45.3125-86.4746C40.1367-86.4746 35.9863-82.4707 35.5957-77.4414L33.6914-77.4414C31.0059-77.4414 29.3945-75.7324 29.3945-72.8516L29.3945-68.8477C29.3945-65.9668 31.0059-64.2578 33.6914-64.2578ZM45.3125-73.4375C43.3105-73.4375 41.6992-75.0977 41.6992-77.0508C41.6992-79.0039 43.3105-80.6152 45.3125-80.6152C47.3145-80.6152 48.9258-79.0039 48.9258-77.0508C48.9258-75.0977 47.3145-73.4375 45.3125-73.4375Z"/>
   <path class="monochrome-3 multicolor-3:systemBlueColor hierarchical-3:primary SFSymbolsPreviewWireframe" d="M32.2266-13.9648L47.2168-13.9648C49.5605-13.9648 51.4648-15.8691 51.4648-18.2129C51.4648-20.5566 49.5605-22.4121 47.2168-22.4121L32.2266-22.4121C29.8828-22.4121 27.9785-20.5566 27.9785-18.2129C27.9785-15.8691 29.8828-13.9648 32.2266-13.9648Z"/>
   <path class="monochrome-4 multicolor-4:systemBlueColor hierarchical-4:primary SFSymbolsPreviewWireframe" d="M32.2266-28.0762L58.4473-28.0762C60.8398-28.0762 62.6953-29.9316 62.6953-32.3242C62.6953-34.668 60.791-36.5234 58.4473-36.5234L32.2266-36.5234C29.8828-36.5234 27.9785-34.668 27.9785-32.3242C27.9785-29.9316 29.834-28.0762 32.2266-28.0762Z"/>
   <path class="monochrome-5 multicolor-5:systemBlueColor hierarchical-5:primary SFSymbolsPreviewWireframe" d="M32.2266-41.4551L58.4473-41.4551C60.791-41.4551 62.6953-43.3594 62.6953-45.7031C62.6953-48.0469 60.791-49.9512 58.4473-49.9512L32.2266-49.9512C29.8828-49.9512 27.9785-48.0469 27.9785-45.7031C27.9785-43.3594 29.8828-41.4551 32.2266-41.4551Z"/>
  </g>
  <g id="Regular-S" transform="matrix(1 0 0 1 1407.56 696)">
   <path class="monochrome-0 multicolor-0:systemGrayColor hierarchical-0:primary SFSymbolsPreviewWireframe" d="M74.8047-3.32031L74.8047-60.7422C74.8047-69.043 70.7031-73.1934 62.5-73.1934L22.0215-73.1934C13.8184-73.1934 9.76562-69.043 9.76562-60.7422L9.76562-3.32031C9.76562 5.0293 13.8184 9.13086 22.0215 9.13086L62.5 9.13086C70.7031 9.13086 74.8047 5.0293 74.8047-3.32031ZM16.7969-3.41797L16.7969-60.6445C16.7969-64.1602 18.7012-66.1133 22.4121-66.1133L62.1582-66.1133C65.8203-66.1133 67.7246-64.1602 67.7246-60.6445L67.7246-3.41797C67.7246 0.0976562 65.8203 2.09961 62.1582 2.09961L22.4121 2.09961C18.7012 2.09961 16.7969 0.0976562 16.7969-3.41797Z"/>
   <path class="monochrome-1 multicolor-1:tintColor hierarchical-1:primary SFSymbolsPreviewWireframe" d="M30.3711-59.1309L54.1504-59.1309C59.1797-59.1309 62.793-62.793 62.793-68.0176L62.793-72.1191C62.793-77.3438 59.1797-81.0059 54.1504-81.0059C53.5156-81.0059 52.7832-81.0059 52.0996-81.0059L55.4688-78.6621C54.4434-84.7656 48.6328-89.1113 42.2852-89.1113C35.9375-89.1113 30.0781-84.7656 29.1016-78.6621L32.4219-81.0059C31.7871-81.0059 31.0547-81.0059 30.3711-81.0059C25.3418-81.0059 21.7773-77.3438 21.7773-72.1191L21.7773-68.0176C21.7773-62.793 25.3418-59.1309 30.3711-59.1309Z"/>
   <path class="monochrome-2 multicolor-2:systemGrayColor hierarchical-2:primary SFSymbolsPreviewWireframe" d="M30.3711-63.916L54.1504-63.916C56.543-63.916 58.0078-65.4297 58.0078-68.0176L58.0078-72.1191C58.0078-74.707 56.543-76.2207 54.1504-76.2207L50.9766-76.2207C50.6836-80.7129 46.9238-84.3262 42.2852-84.3262C37.6465-84.3262 33.8867-80.7129 33.5449-76.2207L30.3711-76.2207C27.9785-76.2207 26.5625-74.707 26.5625-72.1191L26.5625-68.0176C26.5625-65.4297 27.9785-63.916 30.3711-63.916ZM42.2852-72.5586C40.4785-72.5586 38.9648-74.0723 38.9648-75.8789C38.9648-77.6855 40.4785-79.1504 42.2852-79.1504C44.0918-79.1504 45.5566-77.6855 45.5566-75.8789C45.5566-74.0723 44.0918-72.5586 42.2852-72.5586Z"/>
   <path class="monochrome-3 multicolor-3:systemBlueColor hierarchical-3:primary SFSymbolsPreviewWireframe" d="M25.6836-14.9902L41.8457-14.9902C43.3105-14.9902 44.5312-16.2109 44.5312-17.6758C44.5312-19.1406 43.3594-20.3125 41.8457-20.3125L25.6836-20.3125C24.1699-20.3125 22.998-19.1406 22.998-17.6758C22.998-16.2109 24.2188-14.9902 25.6836-14.9902Z"/>
   <path class="monochrome-4 multicolor-4:systemBlueColor hierarchical-4:primary SFSymbolsPreviewWireframe" d="M25.6836-29.1504L58.8867-29.1504C60.4004-29.1504 61.5723-30.3223 61.5723-31.8359C61.5723-33.3008 60.4004-34.4727 58.8867-34.4727L25.6836-34.4727C24.1699-34.4727 22.998-33.3008 22.998-31.8359C22.998-30.3223 24.1699-29.1504 25.6836-29.1504Z"/>
   <path class="monochrome-5 multicolor-5:systemBlueColor hierarchical-5:primary SFSymbolsPreviewWireframe" d="M25.6836-42.5781L58.8867-42.5781C60.3516-42.5781 61.5723-43.7988 61.5723-45.2637C61.5723-46.7285 60.3516-47.9492 58.8867-47.9492L25.6836-47.9492C24.2188-47.9492 22.998-46.7285 22.998-45.2637C22.998-43.7988 24.2188-42.5781 25.6836-42.5781Z"/>
  </g>
  <g id="Ultralight-S" transform="matrix(1 0 0 1 519.288 696)">
   <path class="monochrome-0 multicolor-0:systemGrayColor hierarchical-0:primary SFSymbolsPreviewWireframe" d="M71.0811-2.18507L71.0811-62.8764C71.0811-69.4062 67.6607-72.8755 61.0923-72.8755L19.751-72.8755C13.228-72.8755 9.76562-69.4062 9.76562-62.8764L9.76562-2.18507C9.76562 4.34815 13.228 7.76857 19.751 7.76857L61.0923 7.76857C67.6607 7.76857 71.0811 4.34815 71.0811-2.18507ZM11.9834-2.28272L11.9834-62.7788C11.9834-67.9746 14.6597-70.6543 19.8692-70.6543L60.9775-70.6543C66.1836-70.6543 68.9053-67.9746 68.9053-62.7788L68.9053-2.28272C68.9053 2.86765 66.1836 5.59616 60.9775 5.59616L19.8692 5.59616C14.6597 5.59616 11.9834 2.86765 11.9834-2.28272Z"/>
   <path class="monochrome-1 multicolor-1:tintColor hierarchical-1:primary SFSymbolsPreviewWireframe" d="M28.9634-63.354L51.8799-63.354C55.0928-63.354 57.3892-65.563 57.3892-68.6987L57.3892-72.3916C57.3892-75.5274 55.0928-77.7364 51.8799-77.7364C50.6548-77.7364 49.4229-77.7364 48.1944-77.7364L49.6563-76.8911C48.7217-81.1328 44.9092-84.2979 40.4234-84.2979C35.9375-84.2979 32.1216-81.1328 31.1904-76.8911L32.6489-77.7364C31.4238-77.7364 30.2373-77.7364 28.9634-77.7364C25.7505-77.7364 23.4575-75.5274 23.4575-72.3916L23.4575-68.6987C23.4575-65.563 25.7505-63.354 28.9634-63.354Z"/>
   <path class="monochrome-2 multicolor-2:systemGrayColor hierarchical-2:primary SFSymbolsPreviewWireframe" d="M28.9634-66.3681L51.8799-66.3681C53.4551-66.3681 54.375-67.2461 54.375-68.6987L54.375-72.3916C54.375-73.8897 53.4551-74.7222 51.8799-74.7222L46.9351-74.7222C46.9146-78.3516 44.0176-81.2837 40.4234-81.2837C36.8745-81.2837 33.9321-78.3516 33.9082-74.7222L28.9634-74.7222C27.4336-74.7222 26.4717-73.8897 26.4717-72.3916L26.4717-68.6987C26.4717-67.2461 27.4336-66.3681 28.9634-66.3681ZM40.4234-71.1963C38.4351-71.1963 36.876-72.8008 36.876-74.7437C36.876-76.7774 38.4351-78.333 40.4234-78.333C42.4116-78.333 43.9673-76.7774 43.9673-74.7437C43.9673-72.8008 42.4116-71.1963 40.4234-71.1963Z"/>
   <path class="monochrome-3 multicolor-3:systemBlueColor hierarchical-3:primary SFSymbolsPreviewWireframe" d="M22.2324-15.7168L42.9355-15.7168C43.4922-15.7168 43.9863-16.2109 43.9863-16.813C43.9863-17.3696 43.4956-17.8604 42.9355-17.8604L22.2324-17.8604C21.6724-17.8604 21.1817-17.3696 21.1817-16.813C21.1817-16.2109 21.6758-15.7168 22.2324-15.7168Z"/>
   <path class="monochrome-4 multicolor-4:systemBlueColor hierarchical-4:primary SFSymbolsPreviewWireframe" d="M22.2324-30.7851L58.6143-30.7851C59.1743-30.7851 59.6651-31.2305 59.6651-31.8359C59.6651-32.438 59.1743-32.8833 58.6143-32.8833L22.2324-32.8833C21.6724-32.8833 21.1817-32.438 21.1817-31.8359C21.1817-31.2305 21.6724-30.7851 22.2324-30.7851Z"/>
   <path class="monochrome-5 multicolor-5:systemBlueColor hierarchical-5:primary SFSymbolsPreviewWireframe" d="M22.2324-44.9394L58.6143-44.9394C59.1709-44.9394 59.6651-45.4336 59.6651-45.9902C59.6651-46.5923 59.1709-47.0864 58.6143-47.0864L22.2324-47.0864C21.6758-47.0864 21.1817-46.5923 21.1817-45.9902C21.1817-45.4336 21.6758-44.9394 22.2324-44.9394Z"/>
  </g>
 </g>
</svg>
