<?xml version="1.0" encoding="utf-8"?>
<!-- Generator: Adobe Illustrator 24.1.1, SVG Export Plug-In . SVG Version: 6.00 Build 0)  -->
<svg version="1.1" id="Layer_1" xmlns="http://www.w3.org/2000/svg" xmlns:xlink="http://www.w3.org/1999/xlink" x="0px" y="0px"
	 viewBox="0 0 3300 2200" style="enable-background:new 0 0 3300 2200;" xml:space="preserve">
<style type="text/css">
	.st0{fill:#FFFFFF;}
	.st1{fill:none;stroke:#000000;stroke-width:0.5;}
	.st2{font-family:'Arial-BoldMT';}
	.st3{font-size:13px;}
	.st4{font-family:'ArialMT';}
	.st5{fill:none;stroke:#00AEEF;stroke-width:0.5;}
	.st6{fill:#27AAE1;}
	.st7{fill:none;stroke:#27AAE1;stroke-width:0.5;}
</style>
<g id="Notes">
	<rect id="artboard" class="st0" width="3300" height="2200"/>
	<line class="st1" x1="263" y1="292" x2="3036" y2="292"/>
	<text transform="matrix(1 0 0 1 263 322)" class="st2 st3">Weight/Scale Variations</text>
	<text transform="matrix(1 0 0 1 534.0632 322)" class="st4 st3">Ultralight</text>
	<text transform="matrix(1 0 0 1 843.7775 322)" class="st4 st3">Thin</text>
	<text transform="matrix(1 0 0 1 1139.035 322)" class="st4 st3">Light</text>
	<text transform="matrix(1 0 0 1 1427.0773 322)" class="st4 st3">Regular</text>
	<text transform="matrix(1 0 0 1 1723.4419 322)" class="st4 st3">Medium</text>
	<text transform="matrix(1 0 0 1 2016.1719 322)" class="st4 st3">Semibold</text>
	<text transform="matrix(1 0 0 1 2326.9705 322)" class="st4 st3">Bold</text>
	<text transform="matrix(1 0 0 1 2618.2659 322)" class="st4 st3">Heavy</text>
	<text transform="matrix(1 0 0 1 2917.5054 322)" class="st4 st3">Black</text>
	<line class="st1" x1="263" y1="1903" x2="3036" y2="1903"/>
	<g transform="matrix(1 0 0 1 263 1933)">
		<path d="M9.2,0.8c4.3,0,7.9-3.6,7.9-7.9S13.5-15,9.2-15s-7.9,3.6-7.9,7.9C1.4-2.7,5,0.8,9.2,0.8z M9.2-0.7C5.7-0.7,2.9-3.5,2.9-7
			c0-3.6,2.8-6.4,6.4-6.4s6.4,2.8,6.4,6.4C15.6-3.5,12.8-0.7,9.2-0.7z M5.7-7.1c0,0.4,0.3,0.7,0.8,0.7h2.1v2.1
			c0,0.4,0.3,0.7,0.7,0.7S10-3.9,10-4.3v-2.1h2.1c0.4,0,0.7-0.3,0.7-0.7c0-0.4-0.3-0.7-0.7-0.7H10v-2.1c0-0.4-0.3-0.8-0.7-0.8
			s-0.7,0.3-0.7,0.8v2.1H6.4C6-7.8,5.7-7.5,5.7-7.1z"/>
	</g>
	<g transform="matrix(1 0 0 1 281.867 1933)">
		<path d="M11.7,2.9c5.4,0,10-4.5,10-10c0-5.4-4.5-10-10-10c-5.4,0-10,4.5-10,10C1.7-1.6,6.3,2.9,11.7,2.9z M11.7,1.3
			C7.1,1.3,3.4-2.4,3.4-7s3.7-8.3,8.3-8.3S20-11.7,20-7.1C20-2.4,16.3,1.3,11.7,1.3z M7.2-7.1c0,0.5,0.3,0.8,0.8,0.8h2.9v2.9
			c0,0.5,0.3,0.8,0.8,0.8s0.8-0.3,0.8-0.8v-2.9h2.9c0.5,0,0.8-0.3,0.8-0.8s-0.3-0.8-0.8-0.8h-2.9v-2.9c0-0.5-0.3-0.8-0.8-0.8
			s-0.8,0.3-0.8,0.8v2.9H8C7.5-7.9,7.2-7.5,7.2-7.1z"/>
	</g>
	<g transform="matrix(1 0 0 1 305.646 1933)">
		<path d="M15,5.7c7,0,12.7-5.8,12.7-12.7c0-7-5.8-12.7-12.7-12.7C8-19.8,2.3-14,2.3-7.1C2.3-0.1,8,5.7,15,5.7z M15,3.8
			C8.9,3.8,4.1-1,4.1-7S8.9-17.9,15-17.9c6,0,10.9,4.9,10.9,10.9S21,3.8,15,3.8z M9.2-7.1c0,0.5,0.4,0.9,0.9,0.9H14v4
			c0,0.5,0.4,0.9,0.9,0.9s0.9-0.4,0.9-0.9v-4h4c0.5,0,0.9-0.4,0.9-0.9S20.3-8,19.8-8h-4v-3.9c0-0.5-0.4-0.9-0.9-0.9S14-12.4,14-11.9
			V-8h-3.9C9.6-8,9.2-7.6,9.2-7.1z"/>
	</g>
	<text transform="matrix(1 0 0 1 263 1953)" class="st2 st3">Design Variations</text>
	<text transform="matrix(1 0 0 1 263 1971)" class="st4 st3">Symbols are supported in up to nine weights and three scales.</text>
	<text transform="matrix(1 0 0 1 263 1989)" class="st4 st3">For optimal layout with text and other symbols, vertically align</text>
	<text transform="matrix(1 0 0 1 263 2007)" class="st4 st3">symbols with the adjacent text.</text>
	<line class="st5" x1="776" y1="1919" x2="776" y2="1933"/>
	<g transform="matrix(1 0 0 1 776 1933)">
		<path d="M3.3,0.2c0.5,0,0.8-0.2,1-0.7L5.5-4h5.8l1.3,3.4C12.7,0,13,0.2,13.5,0.2s0.9-0.3,0.9-0.8c0-0.2,0-0.3-0.1-0.5L9.7-13.4
			C9.4-14,9-14.3,8.4-14.3s-1,0.3-1.2,0.9L2.6-1.2C2.5-1,2.5-0.8,2.5-0.6C2.5-0.1,2.8,0.2,3.3,0.2z M6-5.5l2.4-6.6l0,0l2.4,6.6
			C10.8-5.5,6-5.5,6-5.5z"/>
	</g>
	<line class="st5" x1="793.2" y1="1919" x2="793.2" y2="1933"/>
	<text transform="matrix(1 0 0 1 776 1953)" class="st2 st3">Margins</text>
	<text transform="matrix(1 0 0 1 776 1971)" class="st4 st3">Leading and trailing margins on the left and right side of each symbol</text>
	<text transform="matrix(1 0 0 1 776 1989)" class="st4 st3">can be adjusted by modifying the x-location of the margin guidelines.</text>
	<text transform="matrix(1 0 0 1 776 2007)" class="st4 st3">Modifications are automatically applied proportionally to all</text>
	<text transform="matrix(1 0 0 1 776 2025)" class="st4 st3">scales and weights.</text>
	<g transform="matrix(1 0 0 1 1289 1933)">
		<path d="M2.8,1.9l1.7,1.7c0.9,0.9,1.8,0.8,2.8-0.2L18-8.4l-1-1L6.4,2.3C6,2.7,5.7,2.8,5.2,2.3L4.1,1.1C3.6,0.7,3.7,0.3,4.1,0
			l11.5-10.8l-1-1L3-0.9C2.1,0,2,1,2.8,1.9z M9.3-16.3c-0.4,0.4-0.4,1-0.2,1.4s0.7,0.6,1.3,0.4c1.5-0.3,3-0.4,4.4,0.5l-0.6,1.5
			c-0.3,0.8-0.2,1.4,0.4,2l2.3,2.3c0.5,0.5,0.9,0.5,1.5,0.4l1-0.2l0.7,0.7v0.6c0,0.5,0.1,0.9,0.6,1.4l0.8,0.7c0.5,0.5,1.1,0.5,1.6,0
			L26-7.5C26.5-8,26.4-8.6,26-9l-1-0.9c-0.5-0.5-0.9-0.6-1.3-0.6h-0.6l-0.6-0.6l0.2-1.1c0.1-0.6,0-1-0.6-1.6L19.9-16
			C16.6-19.3,12.1-19.2,9.3-16.3z M10.8-16c2.4-1.8,5.7-1.5,7.9,0.8l2.4,2.4c0.2,0.2,0.3,0.4,0.2,0.8L21-10.5L22.5-9l1-0.1
			c0.3,0,0.3,0,0.5,0.2l0.6,0.6l-2.4,2.4l-0.6-0.6c-0.2-0.2-0.2-0.3-0.2-0.5l0.1-1L20-9.5l-1.5,0.3c-0.3,0.1-0.5,0-0.7-0.2l-2-2
			c-0.3-0.2-0.3-0.4-0.1-0.8l0.9-2.1C15-15.8,13-16.4,11-15.8C10.7-15.7,10.6-15.9,10.8-16z"/>
	</g>
	<text transform="matrix(1 0 0 1 1289 1953)" class="st2 st3">Exporting</text>
	<text transform="matrix(1 0 0 1 1289 1971)" class="st4 st3">Symbols should be outlined when exporting to ensure the</text>
	<text transform="matrix(1 0 0 1 1289 1989)" class="st4 st3">design is preserved when submitting to Xcode.</text>
	<text id="template-version" transform="matrix(1 0 0 1 2952.4204 1933)" class="st4 st3">Template v.4.0</text>
	<text transform="matrix(1 0 0 1 2865.4575 1951)" class="st4 st3">Requires Xcode 14 or greater</text>
	<text id="descriptive-name" transform="matrix(1 0 0 1 2877.0239 1969)" class="st4 st3">Generated from fp.onedrive</text>
	<text transform="matrix(1 0 0 1 2912.4175 1987)" class="st4 st3">Typeset at 100 points</text>
	<text transform="matrix(1 0 0 1 263 726)" class="st4 st3">Small</text>
	<text transform="matrix(1 0 0 1 263 1156)" class="st4 st3">Medium</text>
	<text transform="matrix(1 0 0 1 263 1586)" class="st4 st3">Large</text>
</g>
<g id="Guides">
	<g id="H-reference" transform="matrix(1 0 0 1 339 696)">
		<path class="st6" d="M1,0h2.6l25.7-67.1H30v-3.3h-1.9L1,0z M11.7-24.5H47l-0.8-2.2H12.4L11.7-24.5z M55.1,0h2.6L30.6-70.5h-1.2
			v3.3L55.1,0z"/>
	</g>
	<line id="Baseline-S" class="st7" x1="263" y1="696" x2="3036" y2="696"/>
	<line id="Capline-S" class="st7" x1="263" y1="625.5" x2="3036" y2="625.5"/>
	<g id="H-reference_1_" transform="matrix(1 0 0 1 339 1126)">
		<path class="st6" d="M1,0h2.6l25.7-67.1H30v-3.3h-1.9L1,0z M11.7-24.5H47l-0.8-2.2H12.4L11.7-24.5z M55.1,0h2.6L30.6-70.5h-1.2
			v3.3L55.1,0z"/>
	</g>
	<line id="Baseline-M" class="st7" x1="263" y1="1126" x2="3036" y2="1126"/>
	<line id="Capline-M" class="st7" x1="263" y1="1055.5" x2="3036" y2="1055.5"/>
	<g id="H-reference_2_" transform="matrix(1 0 0 1 339 1556)">
		<path class="st6" d="M1,0h2.6l25.7-67.1H30v-3.3h-1.9L1,0z M11.7-24.5H47l-0.8-2.2H12.4L11.7-24.5z M55.1,0h2.6L30.6-70.5h-1.2
			v3.3L55.1,0z"/>
	</g>
	<line id="Baseline-L" class="st7" x1="263" y1="1556" x2="3036" y2="1556"/>
	<line id="Capline-L" class="st7" x1="263" y1="1485.5" x2="3036" y2="1485.5"/>
	<line id="left-margin-Regular-M" class="st5" x1="1391.3" y1="1030.8" x2="1391.3" y2="1150.1"/>
	<line id="right-margin-Regular-M" class="st5" x1="1508.4" y1="1030.8" x2="1508.4" y2="1150.1"/>
</g>
<g id="Symbols">
	<g id="Black-L" transform="matrix(1 0 0 1 2854.19 1556)">
		<path d="M139,13.7H98.2c-36.1,0-42.2,0-44.6-0.4c-0.3,0-0.7-0.1-1-0.2c-11.5-3.3-18.4-13-18.4-25.9c0-3.5,0.3-6.2,1.7-9.5
			c2.8-7,9.4-12.3,18-14.4c0.2-0.7,0.4-1.4,0.7-2.1c2.9-8.2,8.1-14.8,14.1-18.1c0.1,0,0.1-0.1,0.2-0.1c5.6-2.9,9.2-3.7,15.8-3.7
			c9.7,0,15.6,2.5,22.4,9.6c8.1-2.2,16.4-1.1,23.1,3.3c3.5,2.3,6.4,5.3,8.5,8.9c1.7,2.9,2.8,6.1,3.3,9.6
			c9.5,4.1,14.2,12.4,13.3,23.6c0,0.1,0,0.1,0,0.2c-0.9,8.3-4.9,14.8-11.2,17.8l-1.6,0.8C141.4,13.4,140.2,13.7,139,13.7z M56.1-1.6
			c2.9,0.2,15.7,0.2,42,0.2l39.1,0c1.4-0.7,2.4-2.8,2.7-5.6c0.4-5.6-1.5-7.4-5.1-8.7l-2.5-0.8c-2.9-0.9-5-3.6-5.3-6.6l-0.3-3.5
			c-0.3-3.5-2.1-6.5-5-8.4c-3.3-2.1-7.6-2.5-11.9-1.1c-0.1,0-0.2,0.1-0.2,0.1l-2.6,0.8c-2.7,0.9-5.7,0.1-7.7-1.9l-3.2-3.2
			c0,0-0.1-0.1-0.1-0.1c-4-4.2-6-5.1-11.6-5.1c-4.1,0-5.3,0.3-8.7,2c-2.1,1.2-5.1,4.4-7.1,9.9c0,0.1-0.1,0.2-0.1,0.3
			c-0.1,0.3-0.2,0.8-0.3,1c-0.2,7.6-7.5,9.5-10,10.1c-0.1,0-0.2,0.1-0.4,0.1c-4.1,0.8-7.2,2.9-8.1,5.4c0,0.1-0.1,0.2-0.1,0.2
			c-0.3,0.7-0.5,1.1-0.5,3.6C49.4-5,53.1-2.6,56.1-1.6z M44.9,6.4c-19.1,0-21.5-0.5-22.6-0.8C15.4,3.8,8.6-1.9,5.3-8.5
			c-3.2-5.7-2.8-17.2-0.1-22.4c2.7-5.8,7.8-10.3,14.2-12.7c1-11.9,9.3-22.6,20.7-26.4c5.1-1.9,11.5-1.9,17.8-0.3
			c2.7-3.8,7.6-7.9,12.3-10.2c4.6-2.5,9.8-3.7,15.8-3.7c15.9,0,30.1,10.3,35.5,25.7c1.2,3.6,2.4,7.4,2.4,11.9c0,4.2-3.4,7.6-7.6,7.6
			s-7.6-3.4-7.6-7.6c0-2-0.5-4-1.5-7c-2.2-6.3-6.7-11.1-12.4-13.6c-2.7-1.2-5.7-1.8-8.7-1.8c-3.5,0-6.2,0.6-8.6,1.9
			C77.3-67.1,77.2-67,77-67c-2.5,1.2-5.6,3.9-6.6,5.4c-0.1,0.1-0.2,0.3-0.3,0.4c-3.3,4.4-7.1,9.4-14.1,6.1
			c-3.8-1.4-8.1-1.7-10.7-0.7c-0.1,0-0.2,0.1-0.3,0.1c-5.9,1.9-10.3,7.8-10.5,14c0,1.6-0.2,3-0.3,3.7l0,0.1C34.1-36,33.3-34.3,32-33
			c-1.4,1.4-3.6,2.6-5.9,3.1c-3.3,0.9-6,2.9-7.2,5.4c-0.1,0.2-0.2,0.3-0.2,0.5c-0.5,1.8-0.6,6.4-0.1,8c0.1,0.2,0.2,0.3,0.3,0.5
			c1.3,2.7,4.5,5.5,7.1,6.3c2.2,0.2,11.3,0.4,18.9,0.4c4.2,0,7.6,3.4,7.6,7.6S49.1,6.4,44.9,6.4z"/>
	</g>
	<g id="Heavy-L" transform="matrix(1 0 0 1 2558.42 1556)">
		<path d="M138.4,12.4h-41c-36.1,0-42.2,0-44.6-0.3c-0.3,0-0.6-0.1-0.9-0.2C40.6,8.7,34.1-0.6,34.1-13.4c0-4,0.4-6.4,1.6-9.3
			c2.7-6.9,9.4-12.1,18-14.1c0.2-0.8,0.5-1.7,0.8-2.5c2.9-8,7.9-14.5,13.8-17.7c0.1,0,0.1-0.1,0.2-0.1c5.5-2.8,9-3.7,15.5-3.7
			c9.6,0,15.4,2.5,22.1,9.6l0.1,0.1c8-2.3,16.3-1.3,23,3.1c6.4,4.1,10.5,10.8,11.5,18.4c9.3,4,14,12,13.3,23c0,0.1,0,0.2,0,0.3
			C153,1.7,149.1,8,143,10.9l-1.6,0.8C140.5,12.2,139.4,12.4,138.4,12.4z M55.2-1.6c2.8,0.2,81.6,0.2,81.6,0.2l0.2-0.1
			c1.6-0.8,2.8-3.1,3.1-6.2c0.4-6-1.9-8.1-5.6-9.5l-2.5-0.8c-2.7-0.8-4.6-3.2-4.8-6l-0.3-3.5c-0.3-3.8-2.2-6.9-5.3-8.9
			c-3.5-2.3-8.1-2.7-12.5-1.1c-0.1,0-0.1,0-0.2,0.1l-2.6,0.8c-2.5,0.8-5.2,0.1-7-1.7l-3.2-3.2c0,0-0.1-0.1-0.1-0.1
			c-4.1-4.3-6.4-5.3-12.1-5.3c-4.3,0-5.6,0.3-9.1,2.1c-2.3,1.3-5.4,4.6-7.4,10.3c0,0.1-0.1,0.2-0.1,0.3c-0.2,0.4-0.3,0.9-0.3,1.2
			c-0.2,7.1-7.1,9-9.5,9.6c-0.1,0-0.2,0.1-0.3,0.1c-4.3,0.9-7.6,3.1-8.7,5.8c0,0.1-0.1,0.1-0.1,0.2c-0.3,0.8-0.5,1.3-0.5,3.9
			C47.9-4.5,52.9-2.3,55.2-1.6z M43.9,6.5C24.8,6.5,22.4,6,21.5,5.7C14.7,3.9,7.9-1.7,4.7-8.3c0-0.1-0.1-0.2-0.1-0.3
			c-3-7-2.4-16.9,0.2-21.5c2.7-5.7,7.8-10.1,14.2-12.4c0.8-11.9,9-22.6,20.3-26.3c5.1-1.9,11.6-1.9,17.9-0.1
			c0.1-0.1,0.1-0.2,0.2-0.3c2.6-3.8,7.5-7.9,12.1-10.1c4.5-2.5,9.6-3.7,15.5-3.7c15.6,0,29.6,10.1,34.9,25.3
			c1.2,3.6,2.3,7.3,2.3,11.7c0,3.8-3.1,6.9-6.9,6.9c-3.8,0-6.9-3.1-6.9-6.9c0-2.1-0.6-4.1-1.6-7.2c-3.4-9.6-11.9-15.9-21.8-15.9
			c-3.6,0-6.5,0.6-9,2C76-67.1,75.9-67,75.8-67c-2.7,1.3-5.9,4-6.9,5.6c-0.1,0.1-0.2,0.2-0.2,0.3c-3.3,4.4-6.8,9-13.3,5.9
			c-4-1.5-8.5-1.7-11.2-0.7c-0.1,0-0.2,0.1-0.3,0.1c-6.3,2.1-10.8,8.1-11,14.7c0,1.6-0.2,2.9-0.3,3.7l0,0.2c-0.1,1.7-0.8,3.2-2,4.4
			c-1.4,1.4-3.4,2.4-5.6,2.9c-3.6,0.9-6.4,3.1-7.7,5.8c-0.1,0.2-0.2,0.5-0.4,0.7c-0.5,1.5-0.8,6.2,0.3,9.1c1.5,2.9,4.7,5.7,7.6,6.5
			c2.1,0.2,11.4,0.4,19.1,0.4c3.8,0,6.9,3.1,6.9,6.9S47.7,6.5,43.9,6.5z"/>
	</g>
	<g id="Bold-L" transform="matrix(1 0 0 1 2262.89 1556)">
		<path d="M136.5,11.1H96.1c-35.6,0-41.6,0-43.9-0.3c-0.3,0-0.5-0.1-0.8-0.2c-10.9-3.1-17.2-12-17.2-24.4c0-3.8,0.4-6.2,1.5-8.9
			c2.6-6.7,9.2-11.8,17.7-13.6c0.2-0.9,0.5-1.9,0.8-2.8c2.8-7.8,7.6-14,13.3-17.2c0,0,0.1-0.1,0.1-0.1c5.4-2.8,8.6-3.6,15-3.6
			c9.2,0,14.8,2.4,21.3,9.2l0.4,0.4c7.8-2.4,16-1.4,22.5,2.8c6.2,4,10.3,10.6,11.1,18.1c6.7,2.7,13.9,8.7,13,22.1c0,0.1,0,0.2,0,0.2
			c-0.8,7.7-4.5,13.7-10.3,16.5l-1.6,0.8C138.4,10.9,137.5,11.1,136.5,11.1z M54.3-1.3c2.7,0.2,80.8,0.2,80.8,0.2l0.3-0.2
			c1.8-0.9,3.1-3.3,3.5-6.6c0.4-6.4-2-8.6-5.9-10l-2.5-0.8c-2.4-0.8-4.1-2.9-4.3-5.4l-0.3-3.4c-0.3-3.9-2.3-7.3-5.6-9.4
			c-3.6-2.4-8.4-2.8-12.9-1.2c-0.1,0-0.1,0-0.2,0.1l-2.6,0.8c-2.2,0.7-4.6,0.1-6.2-1.5l-3.1-3.1c0,0-0.1-0.1-0.1-0.1
			c-4.2-4.4-6.6-5.5-12.5-5.5c-4.3,0-5.7,0.3-9.3,2.1c-2.4,1.3-5.6,4.8-7.6,10.6c0,0.1-0.1,0.2-0.1,0.2c-0.2,0.5-0.3,1.1-0.4,1.4
			c-0.2,6.6-6.4,8.2-8.8,8.8c-0.1,0-0.2,0-0.3,0.1c-4.5,0.9-7.9,3.3-9,6.2c0,0.1-0.1,0.1-0.1,0.2c-0.4,0.9-0.6,1.5-0.6,4.1
			C46.5-7.1,49-3,54.3-1.3z M43.2,5.3c-18.7,0-21.1-0.5-22-0.8C14.7,2.8,8.3-2.6,5.2-8.9C3.3-12.6,1.3-23.7,5.4-30
			c2.7-5.5,7.7-9.8,14-11.9C20-53.5,28-64.1,39-67.7c5-1.8,11.5-1.8,17.7,0c0.2-0.2,0.3-0.4,0.5-0.6c2.8-4,7.9-7.9,11.7-9.8
			c4.4-2.4,9.3-3.6,15-3.6c15.1,0,28.7,9.8,33.8,24.5c1.2,3.5,2.3,7.1,2.3,11.3c0,3.4-2.8,6.1-6.1,6.1c-3.4,0-6.1-2.8-6.1-6.1
			c0-2.1-0.6-4.3-1.6-7.3c-1.4-4.1-3.8-7.6-6.8-10.3c-4.2-3.7-9.6-5.9-15.4-5.9c-3.7,0-6.6,0.7-9.2,2.1c-0.1,0.1-0.2,0.1-0.3,0.2
			c-2.5,1.2-5.9,3.9-7.1,5.8c-0.1,0.1-0.1,0.2-0.2,0.3c-3.4,4.5-6.4,8.4-12.4,5.6c-4.1-1.5-8.7-1.8-11.6-0.7c-0.1,0-0.1,0.1-0.2,0.1
			c-6.5,2.1-11.1,8.3-11.3,15.2c0,1.5-0.2,2.8-0.3,3.6l0,0.2c-0.1,1.5-0.7,2.9-1.8,3.9c-1.3,1.2-3.1,2.2-5.2,2.7
			c-3.7,1-6.7,3.3-8,6.1c-0.2,0.4-0.4,0.7-0.6,1.1c-0.7,1.4-0.3,7,0.5,8.9c1.6,3.2,5,6.2,8.1,7.1c2,0.2,11.3,0.4,19,0.4
			c3.4,0,6.1,2.8,6.1,6.1S46.6,5.3,43.2,5.3z"/>
	</g>
	<g id="Semibold-L" transform="matrix(1 0 0 1 1966.99 1556)">
		<path d="M134.6,9.9H94.7c-34.5,0-41,0-43.2-0.3c-0.2,0-0.5-0.1-0.7-0.2C40.4,6.4,34.4-2.1,34.4-14c0-3.7,0.4-5.9,1.5-8.5
			c2.5-6.4,8.9-11.3,17.1-13c0.1,0,0.2-0.1,0.3-0.1c0.2-1,0.5-2.1,0.9-3c2.7-7.5,7.4-13.6,12.8-16.6c0,0,0.1,0,0.1-0.1
			c5.2-2.7,8.3-3.4,14.5-3.4c8.9,0,14.3,2.3,20.6,9l0.7,0.7c7.7-2.5,15.7-1.5,22,2.6c6.1,3.9,10,10.4,10.7,17.7
			c9.2,3.5,13.7,10.9,12.8,21.4c-0.8,7.5-4.3,13.3-9.8,15.9l-1.5,0.8C136.3,9.7,135.5,9.9,134.6,9.9z M53.4-1.1
			c2.6,0.2,15.2,0.2,41.4,0.2h38.6l0.5-0.2c2.1-1,3.4-3.6,3.8-7.2c0.5-5.7-1.4-8.7-6.3-10.5l-2.5-0.8c-2.1-0.7-3.6-2.5-3.8-4.7
			l-0.3-3.4c-0.4-4.1-2.4-7.6-5.8-9.7c-3.8-2.4-8.6-2.9-13.3-1.2c-0.1,0-0.1,0-0.2,0.1l-2.6,0.8c-1.9,0.6-4,0.1-5.4-1.3l-3.1-3.1
			c-4.4-4.6-6.9-5.7-12.9-5.7c-4.4,0-5.8,0.3-9.5,2.2C69-44.1,66-39.9,64.2-35c0,0.1-0.1,0.1-0.1,0.2c-0.2,0.6-0.4,1.3-0.4,1.5
			c-0.1,6-5.8,7.5-8.2,8.1c-0.1,0-0.2,0-0.3,0.1c-4.7,1-8.2,3.4-9.4,6.5c0,0.1,0,0.1-0.1,0.2c-0.4,1-0.6,1.6-0.6,4.3
			C45.1-7.2,47.9-2.8,53.4-1.1z M42.7,4.1C24.3,4.1,22,3.5,21.2,3.3C15,1.7,8.8-3.5,5.8-9.6c-2-4-3-13.4-0.1-19.8
			c2.6-5.6,7.6-9.9,14.1-12c0.4-11.4,8.2-21.8,19-25.4c5-1.8,11.4-1.7,17.5,0.1c0.2-0.3,0.5-0.7,0.8-1c2.6-3.9,7.7-7.7,11.3-9.5
			c4.2-2.3,9-3.4,14.5-3.4c8.2,0,16,3,22.1,8.2c4.7,4,8.5,9.3,10.6,15.5c1.1,3.4,2.2,6.9,2.2,10.9c0,3-2.4,5.4-5.4,5.4
			s-5.4-2.4-5.4-5.4c0-2.2-0.6-4.4-1.6-7.5c-3.5-9.9-12.3-16.4-22.5-16.4c-3.8,0-6.7,0.7-9.4,2.2c-0.1,0.1-0.2,0.1-0.3,0.1
			c-2.6,1.2-6,4-7.3,5.9c-0.1,0.1-0.1,0.2-0.2,0.3c-3.3,4.4-6,7.9-11.4,5.3c-4.2-1.6-8.9-1.8-11.9-0.7c-0.1,0-0.1,0-0.2,0.1
			c-6.6,2.2-11.4,8.6-11.7,15.6c0,1.4-0.2,2.7-0.3,3.4l0,0.2c-0.1,1.3-0.6,2.5-1.6,3.5c-1.2,1.1-2.9,2.1-4.8,2.5
			c-3.9,1-7,3.4-8.4,6.4c-1.4,3.1-0.8,8.9-0.1,10.4c0,0.1,0,0.1,0.1,0.1c1.6,3.2,5.2,6.4,8.4,7.2C25.7-6.9,35-6.7,42.7-6.7
			c3,0,5.4,2.4,5.4,5.4S45.7,4.1,42.7,4.1z"/>
	</g>
	<g id="Medium-L" transform="matrix(1 0 0 1 1670.9 1556)">
		<path d="M133.3,8.6H93.9c-33.9,0-40.4,0-42.5-0.3c-0.2,0-0.4-0.1-0.6-0.1C40.8,5.3,35-2.9,35-14.3c0-3.6,0.4-5.7,1.4-8.1
			c2.4-6.1,8.5-10.8,16.4-12.5c0.3-0.1,0.5-0.1,0.7-0.2c0.2-1.1,0.5-2.2,0.9-3.3c2.6-7.3,7.1-13.1,12.4-16c5.1-2.7,8.1-3.4,14.1-3.4
			c8.7,0,13.7,2.2,19.9,8.6l1,1c7.5-2.5,15.3-1.7,21.6,2.4c5.9,3.8,9.6,10.1,10.2,17.2l0,0.2c9.1,3.3,13.4,10.4,12.6,20.6
			c-0.7,7.2-4.1,12.6-9.3,15.1l-1.5,0.8C134.7,8.4,134,8.6,133.3,8.6z M53-0.9c2.4,0.2,14.9,0.2,40.9,0.2h38.2l0.6-0.3
			c2.2-1.1,3.7-3.8,4.1-7.6c0.5-6-1.5-9.2-6.7-11.1l-2.4-0.8c-1.8-0.6-3.1-2.2-3.2-4.1l-0.3-3.3c-0.4-4.2-2.5-7.8-6-10.1
			c-3.9-2.5-8.9-3-13.7-1.3c0,0-0.1,0-0.1,0l-2.5,0.8c-1.7,0.5-3.5,0.1-4.7-1.1l-3.1-3.1c-4.4-4.6-7.1-5.8-13.2-5.8
			c-4.4,0-6,0.4-9.7,2.3c-3.1,1.7-6.2,5.9-8,11c0,0.1,0,0.1-0.1,0.2c-0.3,0.7-0.4,1.5-0.5,1.7c-0.1,5.5-5.3,6.8-7.6,7.4
			c-0.1,0-0.2,0-0.2,0.1c-4.8,1-8.5,3.6-9.8,6.8c0,0,0,0.1-0.1,0.1c-0.5,1.1-0.7,1.9-0.7,4.5C44.3-7.2,47.3-2.7,53-0.9z M42.6,2.8
			C24,2.8,22.2,2.3,21.5,2.1C15.6,0.6,8.5-5.5,6.6-10.8C4.2-17.6,4.9-24.9,6.7-29c2.1-4.9,8.1-9.8,14-11.7c0-0.1,0-0.1,0-0.2
			c0,0,0-0.1,0-0.1C21-52,28.5-62.1,39-65.6c4.9-1.8,11.2-1.7,17.3,0.3c0.3-0.4,0.7-0.9,1.1-1.4c2.5-3.7,7.4-7.4,11-9.1
			c4.1-2.2,8.6-3.3,14-3.3c14.1,0,26.9,9.2,31.6,22.9c1.1,3.2,2.1,6.7,2.1,10.6c0,2.6-2.1,4.7-4.7,4.7s-4.7-2.1-4.7-4.7
			c0-2.3-0.6-4.5-1.6-7.6c-3.5-10.1-12.5-16.6-22.8-16.6c-3.8,0-6.9,0.7-9.6,2.2c-0.1,0-0.2,0.1-0.2,0.1c-2.7,1.3-6.1,4.1-7.4,6.1
			c-0.1,0.1-0.1,0.2-0.2,0.2c-3.3,4.4-5.6,7.4-10.5,5.1c-4.3-1.6-9.1-1.9-12.2-0.7c-0.1,0-0.1,0-0.2,0.1c-6.8,2.2-11.7,8.8-12,16
			c0,1.4-0.2,2.6-0.2,3.3l0,0.2c-0.1,1.1-0.5,2.2-1.3,3c-1,1-2.7,1.9-4.5,2.3c-3.9,1-7.8,4.7-8.7,6.6c-1.1,2.4-1.4,7.3,0.1,11.5
			c0.7,1.9,5.1,6.1,8.5,7c1.7,0.2,11,0.4,18.7,0.4c2.6,0,4.7,2.1,4.7,4.7S45.2,2.8,42.6,2.8z"/>
	</g>
	<g id="Regular-L" transform="matrix(1 0 0 1 1374.99 1556)">
		<path d="M131.7,7.3c0,0-70.1,0.1-81.1-0.4c-9.9-0.5-15-10.5-15-21.5c0-3.4,0.3-5.4,1.3-7.8c2.3-5.9,8.2-10.3,15.7-11.9
			c0.5-0.1,0.9-0.2,1.1-0.3c0.2-1.1,0.5-2.4,0.9-3.5c2.5-7,6.8-12.7,11.9-15.4c4.9-2.5,7.8-3.2,13.5-3.2c8.4,0,13.2,2.1,19.1,8.3
			l1.3,1.3l0.2-0.1c7.1-2.5,14.8-1.7,20.9,2.2c5.6,3.6,9.2,9.6,9.8,16.4l0.1,0.7c0,0,0.1,0,0.1,0c8.8,3.1,13.1,9.9,12.3,19.7
			c-0.7,6.8-3.9,12-8.8,14.4l-1.5,0.8C132.9,7.1,132.3,7.3,131.7,7.3z M52.4-0.8c2.3,0.2,13.9,0.2,40.5,0.2h37.8l0.7-0.4
			c2.4-1.2,4-4.1,4.4-8c0.5-6.2-1.6-9.7-7-11.6l-2.4-0.8c-1.5-0.5-2.6-1.8-2.7-3.4l-0.3-3.3c-0.2-1.8-0.6-3.6-1.4-5.1
			c-1.1-2.1-2.7-4-4.8-5.3c-4-2.6-9.1-3.1-14.1-1.3l-2.6,0.8c-1.4,0.4-2.9,0.1-4-1l-3-3c-4.5-4.7-7.2-5.9-13.5-5.9
			c-4.5,0-6.1,0.4-9.9,2.3c-3.2,1.8-6.3,6-8.2,11.2c0,0,0,0.1-0.1,0.1c-0.3,0.8-0.5,1.7-0.5,1.9c0,4.9-4.7,6.1-7,6.7
			c-0.1,0-0.1,0-0.2,0c-5,1-8.8,3.7-10.1,7.1c0,0,0,0.1-0.1,0.1c-0.5,1.2-0.7,2-0.7,4.7C43.4-9.5,45-3.1,52.4-0.8z M42.3,1.6
			c-12.1,0-19-0.2-20.6-0.7C16.1-0.5,10.4-5.3,7.6-10.9c-1.7-3.3-2.9-13.5,0.1-18.3c2.5-5.2,7.5-9.2,13.6-10.9c0-0.2,0-0.4,0-0.6
			c0.3-10.7,7.5-20.4,17.6-23.7c4.8-1.8,11.1-1.6,17.1,0.4c0.4-0.5,0.9-1.1,1.3-1.8c2.2-3.2,6.6-6.9,10.6-8.8
			c3.9-2.1,8.3-3.2,13.5-3.2c13.7,0,25.9,8.9,30.6,22.2c1,3.1,2.1,6.5,2.1,10.2c0,2.2-1.8,3.9-3.9,3.9c-2.2,0-3.9-1.8-3.9-3.9
			c0-2.3-0.6-4.6-1.6-7.7C100.9-63.4,91.9-70,81.4-70c-3.9,0-7,0.7-9.7,2.3c-0.1,0-0.1,0.1-0.2,0.1c-2.7,1.3-6.2,4.2-7.6,6.2
			c0,0.1-0.1,0.1-0.1,0.2c-3.2,4.3-5.2,6.8-9.5,4.8c-4.4-1.6-9.3-1.9-12.5-0.7c0,0-0.1,0-0.1,0.1c-7,2.3-12,9-12.2,16.4
			c0,1.2-0.2,2.5-0.2,3.2l0,0.2c-0.1,1-0.5,1.9-1.1,2.5c-1,1-2.5,1.7-4.2,2.1c-4,1-7.4,3.7-8.9,7c-0.1,0.2-0.2,0.4-0.4,0.6
			c-1.1,1.6-0.6,8.8,0.3,10.6c1.8,3.6,5.6,6.9,9.1,7.8c1.6,0.3,10.7,0.4,18.6,0.4c2.2,0,3.9,1.8,3.9,3.9S44.5,1.6,42.3,1.6z"/>
	</g>
	<g id="Light-L" transform="matrix(1 0 0 1 1079.2 1556)">
		<path d="M130,6c0,0-68.8-0.1-79.3-0.3C42.8,5.5,35.3-5.2,35.9-14.9c0.2-3.3,0.3-5.2,1.3-7.5c2.1-5.5,7.8-9.8,15-11.3
			c0.8-0.2,1.3-0.4,1.6-0.5c0.1-1.1,0.5-2.5,0.9-3.7c2.4-6.8,6.6-12.2,11.4-14.9c4.8-2.5,7.5-3.1,13-3.1c8,0,12.7,2,18.3,8l1.2,1.5
			c6.9-2.4,15.1-1.8,20.9,1.9c5.4,3.5,8.8,9.2,9.3,15.7l0.1,1.1l0.4,0.1c0,0,0.1,0,0.1,0c8.4,2.9,12.3,9.2,11.7,18.7
			c-0.7,6.5-3.7,11.4-8.3,13.7l-1.5,0.8C131,5.9,130.5,6,130,6z M51.8-0.7c2.2,0.2,13.6,0.2,40,0.2h37.4l0.9-0.4
			c1.2-0.6,2.2-1.5,2.9-2.8c0.9-1.5,1.5-3.4,1.8-5.7c0.4-6.5-1.8-10.1-7.4-12.1l-2.4-0.8c-1.3-0.4-2.1-1.5-2.2-2.8l-0.3-3.2
			c-0.4-4.5-2.7-8.4-6.4-10.8c-4.1-2.7-9.4-3.2-14.5-1.4l-2.5,0.8c-1.1,0.4-2.4,0.1-3.3-0.8l-3-3c-4.5-4.7-7.4-6-13.7-6
			c-4.5,0-6.2,0.4-10,2.4c-3.3,1.8-6.5,6.1-8.4,11.4c0,0,0,0.1,0,0.1c-0.3,0.9-0.5,1.8-0.5,2.1c0,4.4-4.2,5.4-6.4,6
			c-0.1,0-0.1,0-0.2,0c-5.1,1.1-9,3.8-10.4,7.4c-0.6,1.4-0.8,2.3-0.8,5c0,2.5,0.4,5.4,1.7,8C45.4-4.2,47.8-1.9,51.8-0.7z M41.9,0.4
			c-8.2,0-18.3-0.1-20.1-0.6C16.4-1.6,10.8-6.3,8.2-11.6c-1.8-3.4-2.2-12-0.1-17.1c2.4-5.3,7.5-9.3,13.6-10.9c0-0.4,0.1-0.7,0.1-1.1
			c0.3-10.3,7.3-19.6,16.9-22.8c4.6-1.7,10.9-1.5,16.8,0.6c0.4-0.5,1-1.3,1.6-2.1c2.1-3.1,6.3-6.6,10.2-8.5c3.8-2.1,8-3.1,13-3.1
			c8.4,0,16.2,3.5,22,9.3c3.3,3.3,5.9,7.4,7.5,12.1c1,3,2,6.3,2,9.8c0,1.8-1.4,3.2-3.2,3.2s-3.2-1.4-3.2-3.2c0-2.4-0.6-4.6-1.6-7.8
			c-1.4-4.1-3.8-7.7-6.8-10.5c-4.4-4.1-10.3-6.5-16.6-6.5c-3.9,0-7.1,0.7-9.9,2.3c-0.1,0-0.1,0.1-0.2,0.1c-2.8,1.4-6.3,4.2-7.7,6.4
			c0,0.1-0.1,0.1-0.1,0.2c-3.2,4.2-4.8,6.3-8.6,4.5c-4.6-1.7-9.5-2-12.8-0.7c-7.3,2.4-12.4,9.3-12.6,16.8c0,1.2-0.1,2.4-0.2,3l0,0.3
			c0,0.8-0.4,1.5-0.9,2.1c-0.9,0.9-2.3,1.6-3.8,1.9c-4.2,1.1-7.7,3.8-9.2,7.2c-1.4,3.3-0.9,10-0.1,11.6c1.8,3.7,5.8,7.1,9.4,8.1
			C24.8-6.2,33.9-6,41.9-6c1.8,0,3.2,1.4,3.2,3.2S43.6,0.4,41.9,0.4z"/>
	</g>
	<g id="Thin-L" transform="matrix(1 0 0 1 783.716 1556)">
		<path d="M127.5,4.4c0,0-74.2,0.8-78-0.3c-8.6-2.6-13.6-9.6-13.6-19.5c0-3.2,0.3-4.9,1.2-7.1c2-5.2,7.4-9.3,14.3-10.7
			c1.1-0.3,1.7-0.5,1.9-0.6c0.1-1,0.4-2.5,0.9-3.9c2.3-6.4,6.3-11.7,10.9-14.2c4.6-2.4,7.1-3,12.5-3c7.7,0,12.1,1.9,17.5,7.6
			l1.8,1.8l0.9-0.3c6.6-2.3,13.6-1.6,19.1,2c5.1,3.3,8.4,8.7,8.9,14.9l0.1,1.5l0.8,0.2c0,0,0.1,0,0.1,0c8.1,2.8,11.8,8.8,11,17.8
			c-0.6,6.1-3.4,10.8-7.7,12.8C130.2,3.4,128.6,4.4,127.5,4.4z M50.7-0.8c2,0.2,12.5,0.2,39.4,0.2h36.9l1-0.5
			c2.7-1.3,4.5-4.5,4.9-8.8c0.5-6.6-1.8-10.5-7.6-12.5l-2.4-0.7c-1-0.3-1.7-1.2-1.8-2.2l-0.3-3.2c-0.2-2.5-1-4.9-2.3-6.8
			c-1.1-1.7-2.5-3.1-4.3-4.2c-1.6-1-3.3-1.7-5.1-2.1c-3.1-0.7-6.4-0.5-9.7,0.7L97-40.2c-0.9,0.3-1.9,0-2.6-0.6l-2.9-2.9
			c-4.6-4.8-7.5-6.1-13.9-6.1c-4.5,0-6.3,0.4-10.1,2.4c-3.4,1.9-6.6,6.2-8.5,11.5c-0.4,1.1-0.6,2.1-0.6,2.3c0,3.8-3.6,4.8-5.8,5.3
			c-2.2,0.5-4.2,1.2-5.8,2.2c-2.4,1.4-4.1,3.3-5,5.5c-0.6,1.4-0.8,2.4-0.8,5.2c0,2.2,0.3,4.7,1.2,7.1C43.5-5.1,46-2.2,50.7-0.8z
			 M41.2-1c-6.5,0-17.7-0.1-19.5-0.6C16.6-2.9,11.3-7.4,8.8-12.4c-1.5-2.9-2.2-11.7,0-16.4c2.2-4.9,7.1-8.7,12.9-10.2
			c0.2,0,0.3-0.1,0.4-0.1c0-0.5,0.1-1,0.1-1.6c0.3-9.8,6.9-18.7,16.2-21.8c4.5-1.7,10.7-1.4,16.4,0.7c0.5-0.6,1.1-1.5,1.9-2.5
			c2-2.9,6.1-6.4,9.8-8.1c3.6-2,7.6-2.9,12.4-2.9c12.7,0,24,8.3,28.3,20.6c1,2.9,1.9,6,1.9,9.4c0,1.4-1.1,2.5-2.5,2.5
			c-1.4,0-2.5-1.1-2.5-2.5c0-2.4-0.6-4.7-1.6-7.8c-1.6-4.5-4.3-8.4-7.7-11.3c-4.4-3.7-9.9-5.8-15.8-5.8c-4,0-7.2,0.7-10,2.3
			c0,0-0.1,0-0.1,0.1c-2.9,1.4-6.4,4.3-7.8,6.5c0,0-0.1,0.1-0.1,0.1c-3.2,4.2-4.4,5.8-7.7,4.2c-4.6-1.7-9.6-2-13-0.7
			c-7.3,2.4-12.6,9.4-12.8,17.1c0,1.2-0.1,2.3-0.2,2.9l0,0.3c0,0.6-0.3,1.2-0.7,1.7c-0.6,0.6-1.8,1.3-3.4,1.7
			c-4.3,1.1-7.9,3.9-9.5,7.4c-1.5,3.1-1,10.2-0.1,11.9c1.9,3.8,5.9,7.3,9.7,8.2c1.3,0.3,10.3,0.4,18.2,0.4c1.4,0,2.5,1.1,2.5,2.5
			S42.6-1,41.2-1z"/>
	</g>
	<g id="Ultralight-L" transform="matrix(1 0 0 1 487.631 1556)">
		<path d="M124.5,3.4c0,0-74-0.3-75.9-0.3c-6.5,0-13.2-9.2-13.2-18.7c0-3.1,0.3-4.7,1.1-6.7c1.9-5,7.1-8.8,13.7-10.2
			c1.8-0.5,2.3-0.8,2.4-0.9c0,0,0-0.1,0-0.1c0-0.8,0.3-2.4,0.9-3.8c2.2-6.2,6-11.3,10.5-13.7c4.4-2.3,6.9-2.9,12-2.9
			c7.5,0,11.6,1.8,16.8,7.3l2,1.9c6.3-2.2,14.4-1.8,19.7,1.6c4.9,3.2,8,8.3,8.5,14.2L123-27l1.2,0.4c0,0,0,0,0.1,0
			c7.6,2.7,11.2,8.4,10.5,16.9c-0.6,5.8-3.3,10.2-7.3,12.1C127.4,2.5,125.4,3.4,124.5,3.4z M49.2-0.6c1.9,0.2,12.3,0.2,38.9,0.2
			h22.9h13.6l1.1-0.6c2.9-1.4,4.8-4.7,5.2-9.1c0.5-6.7-2-10.9-8-13l-2.3-0.7c-0.7-0.2-1.2-0.9-1.3-1.6l-0.2-3.1
			c-0.2-2.2-0.8-4.2-1.8-6c-1.2-2.2-2.9-4-5-5.4c-4.3-2.8-9.8-3.3-15.1-1.5l-2.4,0.8c-0.7,0.2-1.4,0-1.9-0.5L90.1-44
			c-4.6-4.8-7.7-6.2-14.2-6.2c-4.6,0-6.4,0.4-10.3,2.4c-2.1,1.2-4.2,3.2-5.9,5.8c-1.1,1.7-2.1,3.7-2.9,5.9c-0.4,1.1-0.6,2.2-0.6,2.5
			c0,3.3-3.2,4.1-5.3,4.7c-5.5,1.1-9.6,4.1-11.1,8c-0.6,1.4-0.9,2.5-0.9,5.3c0,2.6,0.4,4.8,1.1,6.8C41.7-4.7,44.8-1.9,49.2-0.6z
			 M40-2C34.8-2,22.7-2,20.9-2.5C16-3.8,10.9-8,8.6-12.9c0-0.1,0-0.1-0.1-0.2c-1.2-3.1-2.2-11.3,0.1-15.5c2.1-4.6,6.7-8.2,12.3-9.7
			c0.3-0.1,0.6-0.2,0.8-0.3c0.1-0.5,0.1-1.3,0.1-2c0.3-9.4,6.6-18,15.5-20.9c4.4-1.6,10.4-1.3,16,0.8c0.1,0,0.1,0,0.2,0.1
			c0,0,0,0,0,0c0.5-0.5,1.3-1.6,2.2-2.9c1.8-2.7,5.9-6.1,9.4-7.8c3.4-1.9,7.2-2.8,11.9-2.8c12.2,0,23.2,8,27.4,19.9
			c0.9,2.8,1.9,5.8,1.9,9.1c0,1-0.8,1.9-1.9,1.9s-1.9-0.8-1.9-1.9c0-2.5-0.6-4.8-1.7-7.9c-3.6-10.4-13.2-17.3-23.8-17.3
			c-4,0-7.3,0.8-10.2,2.4c-3,1.5-6.6,4.4-8.1,6.6c-3.2,4.3-4.1,5.4-6.9,4.1c-4.7-1.8-9.8-2-13.3-0.7c-7.5,2.5-12.8,9.6-13,17.4
			c0,1.1-0.1,2.2-0.2,2.8c0,0.1,0,0.3,0,0.3c0,0.5-0.2,0.9-0.5,1.2c-0.5,0.5-1.6,1.2-3,1.5c-4.4,1.1-8.1,4-9.8,7.7
			c-1.5,2.7-1,9.6,0,12.5c1.9,3.8,6,7.3,9.9,8.3C23.1-5.9,32-5.7,40-5.7c1,0,1.9,0.8,1.9,1.9S41-2,40-2z"/>
	</g>
	<g id="Black-M" transform="matrix(1 0 0 1 2871.36 1126)">
		<path d="M108.4,2.7H76.7c-28,0-32.7,0-34.6-0.3c-0.3,0-0.5-0.1-0.8-0.2c-8.9-2.5-14.2-10-14.2-20.1c0-2.7,0.2-4.8,1.3-7.4
			c2.1-5.4,7.3-9.5,14-11.1c0.2-0.6,0.3-1.1,0.5-1.6c2.3-6.3,6.2-11.4,10.9-14c0,0,0.1,0,0.1-0.1c4.4-2.3,7.1-2.9,12.2-2.9
			c7.5,0,12.1,2,17.4,7.4c6.2-1.7,12.7-0.8,17.9,2.5c2.7,1.8,5,4.1,6.6,6.9c1.3,2.2,2.2,4.8,2.5,7.4c7.3,3.2,11,9.6,10.3,18.3
			c0,0,0,0.1,0,0.1c-0.7,6.4-3.8,11.5-8.7,13.8L111,2.1C110.2,2.5,109.3,2.7,108.4,2.7z M44.2-9.2c2.2,0.1,12.2,0.1,32.6,0.1l30.3,0
			c1.1-0.5,1.9-2.2,2.1-4.4c0.3-4.3-1.1-5.7-3.9-6.7l-1.9-0.6c-2.3-0.7-3.9-2.8-4.1-5.1L99-28.6c-0.2-2.7-1.6-5.1-3.9-6.5
			c-2.6-1.7-5.9-2-9.2-0.8c-0.1,0-0.1,0-0.2,0.1l-2,0.6c-2.1,0.7-4.4,0.1-5.9-1.5l-2.5-2.5c0,0-0.1-0.1-0.1-0.1c-3.1-3.2-4.7-4-9-4
			c-3.2,0-4.1,0.2-6.7,1.6c-1.6,0.9-4,3.4-5.5,7.7c0,0.1-0.1,0.1-0.1,0.2c-0.1,0.3-0.2,0.6-0.2,0.8c-0.2,5.9-5.8,7.4-7.7,7.9
			c-0.1,0-0.2,0-0.3,0.1c-3.1,0.7-5.6,2.3-6.3,4.2c0,0.1,0,0.1-0.1,0.2c-0.2,0.6-0.4,0.9-0.4,2.8C38.9-11.8,41.8-10,44.2-9.2z
			 M35.4-3C20.6-3,18.7-3.4,17.9-3.6C12.6-5,7.3-9.4,4.7-14.5C2.3-19,2.6-27.9,4.6-31.9c2.1-4.5,6.1-8,11-9.9
			c0.8-9.2,7.2-17.5,16.1-20.5c4-1.4,8.9-1.5,13.8-0.2c2.1-2.9,5.9-6.1,9.5-7.9c3.6-2,7.6-2.9,12.2-2.9c12.3,0,23.4,8,27.5,19.9
			c0.9,2.8,1.8,5.8,1.8,9.2c0,3.3-2.6,5.9-5.9,5.9s-5.9-2.6-5.9-5.9c0-1.5-0.4-3.1-1.2-5.4c-1.7-4.9-5.2-8.6-9.6-10.5
			c-2.1-0.9-4.4-1.4-6.8-1.4c-2.7,0-4.8,0.5-6.7,1.5c-0.1,0.1-0.2,0.1-0.3,0.2c-2,0.9-4.4,3-5.1,4.2c-0.1,0.1-0.1,0.2-0.2,0.3
			c-2.6,3.4-5.5,7.3-11,4.8c-3-1.1-6.3-1.3-8.3-0.6c-0.1,0-0.1,0.1-0.2,0.1c-4.6,1.5-8,6.1-8.2,10.9c0,1.2-0.1,2.3-0.2,2.9l0,0.1
			c-0.1,1.4-0.7,2.7-1.7,3.7c-1.1,1.1-2.8,2-4.6,2.4c-2.6,0.7-4.7,2.3-5.6,4.2c-0.1,0.1-0.1,0.2-0.2,0.4c-0.4,1.4-0.5,5-0.1,6.2
			c0.1,0.1,0.1,0.3,0.2,0.4c1,2.1,3.5,4.2,5.5,4.9c1.7,0.2,8.8,0.3,14.7,0.3c3.3,0,5.9,2.6,5.9,5.9S38.7-3,35.4-3z"/>
	</g>
	<g id="Heavy-M" transform="matrix(1 0 0 1 2575.48 1126)">
		<path d="M107.8,1.7H76.1c-28,0-32.7,0-34.5-0.3c-0.2,0-0.5-0.1-0.7-0.1C32-1.2,26.9-8.4,26.9-18.4c0-3.1,0.3-5,1.3-7.2
			c2.1-5.3,7.3-9.4,13.9-10.9c0.2-0.6,0.4-1.3,0.6-1.9c2.2-6.2,6.1-11.2,10.7-13.8c0,0,0.1,0,0.1-0.1c4.3-2.2,7-2.8,12-2.8
			c7.4,0,11.9,1.9,17.1,7.4l0.1,0.1c6.2-1.8,12.6-1,17.8,2.4c5,3.2,8.2,8.4,8.9,14.3c7.2,3.1,10.8,9.3,10.3,17.8c0,0.1,0,0.1,0,0.2
			c-0.6,6.3-3.7,11.1-8.4,13.4l-1.2,0.6C109.5,1.5,108.6,1.7,107.8,1.7z M43.3-9.2C45.5-9,106.5-9,106.5-9l0.2-0.1
			c1.3-0.6,2.2-2.4,2.4-4.8c0.3-4.7-1.4-6.3-4.3-7.3l-1.9-0.6c-2.1-0.7-3.6-2.5-3.7-4.7l-0.2-2.7c-0.3-2.9-1.7-5.4-4.1-6.9
			c-2.7-1.8-6.2-2.1-9.7-0.9c-0.1,0-0.1,0-0.2,0.1l-2,0.6c-1.9,0.6-4,0.1-5.4-1.3l-2.5-2.5c0,0-0.1-0.1-0.1-0.1
			c-3.2-3.4-4.9-4.1-9.4-4.1c-3.3,0-4.3,0.2-7,1.6c-1.8,1-4.2,3.6-5.7,8c0,0.1,0,0.1-0.1,0.2c-0.1,0.3-0.2,0.7-0.3,0.9
			c-0.2,5.5-5.5,6.9-7.3,7.4c-0.1,0-0.2,0-0.3,0.1c-3.3,0.7-5.9,2.4-6.7,4.5c0,0.1,0,0.1-0.1,0.2c-0.3,0.6-0.4,1-0.4,3
			C37.7-11.4,41.5-9.7,43.3-9.2z M34.6-2.9c-14.8,0-16.6-0.4-17.4-0.6c-5.3-1.4-10.5-5.7-13-10.9c0-0.1-0.1-0.1-0.1-0.2
			c-2.4-5.4-1.8-13.1,0.2-16.7c2.1-4.4,6.1-7.8,11-9.6c0.6-9.2,7-17.5,15.8-20.4c4-1.4,9-1.5,13.9-0.1c0.1-0.1,0.1-0.1,0.2-0.2
			c2-2.9,5.8-6.1,9.4-7.9c3.5-1.9,7.4-2.9,12-2.9c12.1,0,23,7.9,27,19.6c0.9,2.8,1.8,5.7,1.8,9.1c0,3-2.4,5.4-5.4,5.4
			s-5.4-2.4-5.4-5.4c0-1.6-0.4-3.2-1.2-5.6c-2.6-7.5-9.2-12.3-16.9-12.3c-2.8,0-5,0.5-6.9,1.6c-0.1,0.1-0.2,0.1-0.3,0.1
			c-2.1,1-4.5,3.1-5.4,4.4c-0.1,0.1-0.1,0.2-0.2,0.3c-2.6,3.4-5.3,7-10.3,4.6c-3.1-1.1-6.6-1.4-8.7-0.6c-0.1,0-0.1,0-0.2,0.1
			c-4.9,1.6-8.4,6.3-8.5,11.4c0,1.2-0.1,2.3-0.2,2.9l0,0.1c-0.1,1.3-0.6,2.5-1.6,3.4c-1,1-2.6,1.9-4.3,2.3c-2.8,0.7-5,2.4-5.9,4.5
			c-0.1,0.2-0.2,0.3-0.3,0.5c-0.4,1.2-0.6,4.8,0.3,7c1.1,2.2,3.7,4.4,5.9,5c1.6,0.2,8.8,0.3,14.8,0.3c3,0,5.4,2.4,5.4,5.4
			S37.5-2.9,34.6-2.9z"/>
	</g>
	<g id="Bold-M" transform="matrix(1 0 0 1 2279.69 1126)">
		<path d="M106.4,0.7H75c-27.6,0-32.3,0-34-0.3c-0.2,0-0.4-0.1-0.6-0.1C31.9-2.1,27-9,27-18.6c0-3,0.3-4.8,1.2-6.9
			c2.1-5.2,7.2-9.1,13.7-10.5c0.2-0.7,0.4-1.5,0.7-2.1c2.2-6,5.9-10.9,10.3-13.3c0,0,0.1,0,0.1-0.1c4.2-2.2,6.7-2.8,11.6-2.8
			c7.2,0,11.5,1.9,16.5,7.2l0.3,0.3c6.1-1.9,12.4-1.1,17.5,2.2c4.8,3.1,8,8.2,8.6,14c5.2,2.1,10.8,6.8,10.1,17.2c0,0.1,0,0.1,0,0.2
			c-0.6,6-3.5,10.7-8,12.8l-1.2,0.6C107.8,0.5,107.1,0.7,106.4,0.7z M42.6-9c2.1,0.1,62.6,0.1,62.6,0.1l0.3-0.1
			c1.4-0.7,2.4-2.6,2.7-5.1c0.3-5-1.5-6.7-4.6-7.8l-1.9-0.6c-1.8-0.6-3.2-2.2-3.3-4.2l-0.2-2.6c-0.3-3-1.8-5.6-4.3-7.3
			c-2.8-1.8-6.5-2.2-10-0.9c0,0-0.1,0-0.1,0l-2,0.6c-1.7,0.5-3.5,0.1-4.8-1.2l-2.4-2.4c0,0-0.1-0.1-0.1-0.1
			c-3.3-3.4-5.1-4.2-9.7-4.2c-3.3,0-4.4,0.2-7.2,1.7c-1.8,1-4.3,3.7-5.9,8.2c0,0.1,0,0.1-0.1,0.2c-0.2,0.4-0.3,0.9-0.3,1.1
			c-0.1,5.1-5,6.4-6.8,6.9c-0.1,0-0.2,0-0.2,0.1c-3.5,0.7-6.1,2.6-7,4.8c0,0.1,0,0.1-0.1,0.1c-0.3,0.7-0.5,1.2-0.5,3.2
			C36.6-13.4,38.5-10.3,42.6-9z M34-3.9c-14.5,0-16.3-0.4-17-0.6C12-5.8,7-9.9,4.6-14.9c-1.4-2.9-3-11.5,0.1-16.4
			c2.1-4.3,6-7.6,10.8-9.2c0.5-9,6.7-17.2,15.2-20c3.9-1.4,8.9-1.4,13.7,0c0.1-0.2,0.3-0.3,0.4-0.5c2.1-3.1,6.1-6.1,9.1-7.6
			c3.4-1.9,7.2-2.8,11.6-2.8c11.7,0,22.3,7.6,26.2,19c0.9,2.7,1.7,5.5,1.7,8.8c0,2.6-2.1,4.8-4.8,4.8S84-40.9,84-43.6
			c0-1.7-0.5-3.3-1.2-5.7c-1.1-3.2-2.9-5.9-5.2-8c-3.2-2.9-7.4-4.6-11.9-4.6c-2.9,0-5.1,0.5-7.1,1.6c-0.1,0-0.2,0.1-0.3,0.1
			c-2,0.9-4.5,3-5.5,4.5c-0.1,0.1-0.1,0.2-0.2,0.2c-2.7,3.5-4.9,6.5-9.6,4.4c-3.2-1.2-6.7-1.4-9-0.6c-0.1,0-0.1,0-0.2,0.1
			c-5,1.6-8.6,6.5-8.8,11.8c0,1.2-0.1,2.2-0.2,2.8l0,0.1c-0.1,1.1-0.6,2.2-1.4,3c-1,1-2.4,1.7-4,2.1c-2.9,0.8-5.2,2.5-6.2,4.8
			c-0.1,0.3-0.3,0.6-0.5,0.8c-0.6,1.1-0.3,5.4,0.4,6.9c1.2,2.5,3.9,4.8,6.3,5.5c1.5,0.2,8.7,0.3,14.7,0.3c2.6,0,4.8,2.1,4.8,4.8
			S36.7-3.9,34-3.9z"/>
	</g>
	<g id="Semibold-M" transform="matrix(1 0 0 1 1983.62 1126)">
		<path d="M104.9-0.3H73.9c-26.7,0-31.8,0-33.5-0.3c-0.2,0-0.4-0.1-0.5-0.1C31.8-3,27.1-9.6,27.1-18.8c0-2.9,0.3-4.6,1.1-6.6
			c2-5,6.9-8.8,13.2-10.1c0.1,0,0.2,0,0.2-0.1c0.2-0.8,0.4-1.6,0.7-2.4c2.1-5.8,5.7-10.5,9.9-12.9c0,0,0.1,0,0.1-0.1
			c4.1-2.1,6.5-2.7,11.2-2.7c6.9,0,11.1,1.8,16,6.9l0.5,0.5c5.9-1.9,12.1-1.2,17.1,2c4.7,3.1,7.7,8.1,8.3,13.7
			c7.2,2.7,10.6,8.5,9.9,16.6c-0.6,5.8-3.4,10.3-7.6,12.3l-1.2,0.6C106.2-0.5,105.5-0.3,104.9-0.3z M41.9-8.8
			c2,0.1,11.8,0.1,32.1,0.1h29.9l0.4-0.2c1.6-0.8,2.7-2.8,2.9-5.6c0.4-4.4-1.1-6.8-4.9-8.1l-1.9-0.6c-1.6-0.5-2.8-2-2.9-3.7
			l-0.2-2.6c-0.3-3.2-1.9-5.9-4.5-7.6c-2.9-1.9-6.7-2.2-10.3-1c0,0-0.1,0-0.1,0l-2,0.6c-1.5,0.5-3.1,0.1-4.2-1l-2.4-2.4
			c-3.4-3.6-5.3-4.4-10-4.4c-3.4,0-4.5,0.3-7.3,1.7c-2.4,1.3-4.7,4.5-6.1,8.4c0,0.1,0,0.1-0.1,0.2c-0.2,0.4-0.3,1-0.3,1.2
			c-0.1,4.7-4.5,5.8-6.4,6.3c-0.1,0-0.1,0-0.2,0c-3.6,0.8-6.4,2.6-7.3,5.1c0,0,0,0.1-0.1,0.1c-0.3,0.7-0.5,1.3-0.5,3.4
			C35.5-13.5,37.6-10.1,41.9-8.8z M33.6-4.8C19.4-4.8,17.6-5.2,17-5.4c-4.8-1.3-9.6-5.3-11.9-10C3.4-18.4,2.6-25.7,5-30.7
			c2-4.4,5.9-7.7,10.9-9.3c0.3-8.8,6.3-16.9,14.7-19.7c3.8-1.4,8.8-1.3,13.6,0.1c0.2-0.3,0.4-0.5,0.6-0.8c2.1-3,5.9-5.9,8.8-7.3
			c3.3-1.8,6.9-2.7,11.2-2.7c6.4,0,12.4,2.3,17.1,6.4c3.7,3.1,6.6,7.2,8.2,12c0.9,2.6,1.7,5.3,1.7,8.5c0,2.3-1.9,4.2-4.2,4.2
			s-4.2-1.9-4.2-4.2c0-1.7-0.5-3.4-1.2-5.8c-2.7-7.7-9.5-12.7-17.5-12.7c-2.9,0-5.2,0.5-7.3,1.7c-0.1,0-0.1,0.1-0.2,0.1
			c-2,1-4.7,3.1-5.6,4.6c0,0.1-0.1,0.1-0.1,0.2c-2.6,3.4-4.6,6.1-8.8,4.1c-3.3-1.2-6.9-1.4-9.2-0.6c0,0-0.1,0-0.2,0.1
			c-5.1,1.7-8.9,6.7-9,12.1c0,1.1-0.1,2.1-0.2,2.7l0,0.2c-0.1,1-0.5,2-1.2,2.7c-0.9,0.9-2.3,1.6-3.7,1.9c-3,0.8-5.4,2.6-6.5,5
			c-1.1,2.4-0.6,6.9-0.1,8c0,0,0,0.1,0.1,0.1c1.2,2.5,4,4.9,6.5,5.6c1.4,0.2,8.6,0.3,14.6,0.3c2.3,0,4.2,1.9,4.2,4.2
			S35.9-4.8,33.6-4.8z"/>
	</g>
	<g id="Medium-M" transform="matrix(1 0 0 1 1687.4 1126)">
		<path d="M103.8-1.3H73.3c-26.3,0-31.3,0-33-0.2c-0.2,0-0.3-0.1-0.5-0.1C32.1-3.8,27.7-10.2,27.7-19c0-2.8,0.3-4.4,1.1-6.3
			c1.9-4.8,6.6-8.4,12.7-9.7c0.2-0.1,0.4-0.1,0.6-0.2c0.1-0.8,0.4-1.7,0.7-2.5c2-5.7,5.5-10.2,9.6-12.4c4-2.1,6.3-2.6,10.9-2.6
			c6.8,0,10.6,1.7,15.4,6.7l0.8,0.8c5.8-2,11.9-1.3,16.7,1.8c4.6,3,7.5,7.8,7.9,13.3l0,0.2c7,2.6,10.4,8.1,9.8,16
			c-0.6,5.5-3.2,9.8-7.2,11.7l-1.2,0.6C104.9-1.4,104.4-1.3,103.8-1.3z M41.6-8.7c1.9,0.1,11.6,0.1,31.7,0.1H103l0.5-0.2
			c1.7-0.8,2.9-3,3.2-5.9c0.4-4.6-1.1-7.1-5.2-8.6l-1.9-0.6c-1.4-0.4-2.4-1.7-2.5-3.2l-0.2-2.6c-0.3-3.3-1.9-6.1-4.7-7.8
			c-3-1.9-6.9-2.3-10.6-1c0,0-0.1,0-0.1,0l-2,0.6c-1.3,0.4-2.7,0.1-3.6-0.9L73.4-41c-3.4-3.6-5.5-4.5-10.2-4.5
			c-3.4,0-4.6,0.3-7.5,1.8c-2.4,1.3-4.8,4.6-6.2,8.5c0,0,0,0.1-0.1,0.1c-0.2,0.5-0.3,1.1-0.4,1.3C49-29.5,45-28.5,43.2-28
			c-0.1,0-0.1,0-0.2,0c-3.8,0.8-6.6,2.8-7.6,5.3c0,0,0,0.1,0,0.1c-0.4,0.8-0.5,1.5-0.5,3.5C34.9-13.5,37.1-10,41.6-8.7z M33.5-5.7
			c-14.4,0-15.9-0.4-16.3-0.6c-4.6-1.2-10.1-6-11.6-10c-1.9-5.3-1.3-10.9,0.1-14.2c1.6-3.8,6.3-7.6,10.8-9.1c0,0,0-0.1,0-0.1
			c0,0,0-0.1,0-0.1c0.2-8.5,6.1-16.4,14.2-19.1c3.8-1.4,8.7-1.3,13.4,0.2c0.3-0.3,0.5-0.7,0.8-1.1c2-2.9,5.7-5.7,8.5-7.1
			c3.1-1.7,6.7-2.6,10.8-2.6c11,0,20.8,7.1,24.5,17.8c0.8,2.5,1.6,5.2,1.6,8.2c0,2-1.6,3.6-3.6,3.6s-3.6-1.6-3.6-3.6
			c0-1.8-0.5-3.5-1.3-5.9c-2.7-7.8-9.7-12.9-17.7-12.9c-3,0-5.3,0.5-7.4,1.7c-0.1,0-0.1,0.1-0.2,0.1c-2.1,1-4.7,3.2-5.8,4.7
			c0,0.1-0.1,0.1-0.1,0.2c-2.6,3.4-4.3,5.7-8.1,3.9c-3.4-1.2-7.1-1.5-9.5-0.6c0,0-0.1,0-0.1,0c-5.3,1.7-9.1,6.8-9.3,12.4
			c0,1.1-0.1,2-0.2,2.6l0,0.2c-0.1,0.9-0.4,1.7-1,2.3c-0.8,0.8-2.1,1.5-3.5,1.8c-3,0.8-6.1,3.6-6.7,5.1c-0.8,1.9-1.1,5.6,0.1,8.9
			c0.5,1.5,4,4.7,6.6,5.4c1.3,0.2,8.5,0.3,14.5,0.3c2,0,3.6,1.6,3.6,3.6S35.5-5.7,33.5-5.7z"/>
	</g>
	<g id="Regular-M" transform="matrix(1 0 0 1 1391.32 1126)">
		<path d="M102.6-2.3c0,0-54.4,0.1-62.9-0.3C32-3,28-10.8,28-19.3c0-2.7,0.3-4.2,1-6c1.8-4.5,6.3-8,12.2-9.2
			c0.4-0.1,0.7-0.2,0.9-0.3c0.1-0.8,0.4-1.9,0.7-2.7c1.9-5.5,5.3-9.8,9.2-12c3.8-2,6.1-2.5,10.5-2.5c6.5,0,10.2,1.6,14.8,6.4l1,1
			l0.2-0.1c5.5-1.9,11.5-1.3,16.2,1.7c4.4,2.8,7.1,7.5,7.6,12.7l0,0.5c0,0,0,0,0.1,0c6.9,2.4,10.2,7.7,9.5,15.3
			c-0.5,5.3-3,9.3-6.8,11.1l-1.2,0.6C103.5-2.4,103-2.3,102.6-2.3z M41.1-8.6c1.8,0.2,10.8,0.2,31.4,0.2h29.3l0.6-0.3
			c1.9-0.9,3.1-3.2,3.4-6.2c0.4-4.8-1.2-7.5-5.4-9l-1.9-0.6c-1.2-0.4-2-1.4-2.1-2.7l-0.2-2.5c-0.1-1.4-0.5-2.8-1.1-4
			c-0.8-1.7-2.1-3.1-3.7-4.1c-3.1-2-7.1-2.4-10.9-1l-2,0.6c-1.1,0.3-2.3,0.1-3.1-0.8L73-41.3c-3.5-3.7-5.6-4.6-10.4-4.6
			c-3.5,0-4.7,0.3-7.6,1.8c-2.5,1.4-4.9,4.6-6.3,8.7c0,0,0,0.1,0,0.1c-0.3,0.6-0.4,1.3-0.4,1.5c0,3.8-3.7,4.7-5.4,5.2
			c0,0-0.1,0-0.1,0c-3.9,0.8-6.8,2.9-7.8,5.5c0,0,0,0.1,0,0.1c-0.4,0.9-0.6,1.6-0.6,3.7C34.1-15.3,35.3-10.3,41.1-8.6z M33.3-6.7
			c-9.4,0-14.7-0.2-16-0.5C13-8.3,8.5-12,6.4-16.4C5.1-19,4.1-26.9,6.5-30.6c1.9-4,5.8-7.1,10.6-8.5c0-0.2,0-0.3,0-0.5
			c0.2-8.3,5.8-15.8,13.6-18.4c3.7-1.4,8.6-1.2,13.2,0.3c0.3-0.4,0.7-0.9,1-1.4c1.7-2.5,5.1-5.3,8.2-6.8c3-1.7,6.4-2.5,10.4-2.5
			c10.6,0,20.1,6.9,23.7,17.2c0.8,2.4,1.6,5,1.6,7.9c0,1.7-1.4,3-3,3c-1.7,0-3-1.4-3-3c0-1.8-0.5-3.5-1.3-5.9
			c-2.8-7.9-9.8-13-17.9-13c-3,0-5.4,0.6-7.6,1.7c-0.1,0-0.1,0.1-0.2,0.1c-2.1,1-4.8,3.2-5.9,4.8c0,0.1-0.1,0.1-0.1,0.1
			c-2.5,3.3-4,5.3-7.4,3.7c-3.4-1.3-7.2-1.5-9.7-0.6c0,0-0.1,0-0.1,0c-5.4,1.8-9.3,7-9.5,12.7c0,1-0.1,1.9-0.2,2.4l0,0.2
			c0,0.7-0.4,1.4-0.9,2c-0.7,0.7-1.9,1.3-3.2,1.6c-3.1,0.8-5.8,2.8-6.9,5.4c-0.1,0.2-0.2,0.3-0.3,0.5c-0.9,1.3-0.5,6.8,0.2,8.2
			c1.4,2.8,4.4,5.4,7.1,6.1c1.2,0.2,8.3,0.3,14.4,0.3c1.7,0,3,1.4,3,3S35-6.7,33.3-6.7z"/>
	</g>
	<g id="Light-M" transform="matrix(1 0 0 1 1095.44 1126)">
		<path d="M101.1-3.3c0,0-53.3-0.1-61.5-0.2c-6.1-0.1-11.9-8.5-11.4-16c0.2-2.6,0.3-4,1-5.8c1.7-4.3,6-7.6,11.6-8.7
			c0.6-0.2,1-0.3,1.2-0.4c0.1-0.8,0.4-2,0.7-2.9c1.9-5.3,5.1-9.5,8.8-11.5c3.7-1.9,5.8-2.4,10.1-2.4c6.2,0,9.8,1.6,14.2,6.2l0.9,1.2
			c5.3-1.9,11.7-1.4,16.2,1.5c4.2,2.7,6.8,7.1,7.2,12.2l0.1,0.8l0.3,0.1c0,0,0.1,0,0.1,0c6.5,2.3,9.5,7.2,9.1,14.5
			c-0.5,5-2.8,8.9-6.4,10.6l-1.2,0.6C101.9-3.4,101.5-3.3,101.1-3.3z M40.5-8.5c1.7,0.2,10.5,0.2,31,0.2h29l0.7-0.3
			c0.9-0.4,1.7-1.2,2.3-2.1c0.7-1.2,1.2-2.6,1.4-4.4c0.3-5-1.4-7.8-5.7-9.4l-1.9-0.6c-1-0.3-1.7-1.2-1.7-2.2l-0.2-2.5
			c-0.3-3.5-2.1-6.5-5-8.4c-3.2-2.1-7.3-2.5-11.2-1.1l-2,0.6c-0.9,0.3-1.9,0-2.5-0.6l-2.3-2.3c-3.5-3.7-5.8-4.7-10.6-4.7
			c-3.5,0-4.8,0.3-7.8,1.8c-2.6,1.4-5,4.7-6.5,8.8c0,0,0,0.1,0,0.1c-0.3,0.7-0.4,1.4-0.4,1.6c0,3.4-3.2,4.2-5,4.7c0,0-0.1,0-0.1,0
			c-4,0.8-7,3-8.1,5.8c-0.5,1.1-0.6,1.8-0.6,3.9c0,2,0.3,4.2,1.3,6.2C35.6-11.2,37.4-9.4,40.5-8.5z M32.8-7.6
			c-6.3,0-14.2-0.1-15.6-0.5c-4.1-1.1-8.5-4.7-10.5-8.8c-1.4-2.6-1.7-9.3-0.1-13.2c1.9-4.1,5.8-7.2,10.6-8.5c0-0.3,0-0.6,0-0.9
			c0.2-8,5.6-15.2,13.1-17.7c3.6-1.3,8.4-1.2,13,0.5c0.3-0.4,0.8-1,1.3-1.6c1.6-2.4,4.9-5.1,7.9-6.6c2.9-1.6,6.2-2.4,10-2.4
			c6.5,0,12.6,2.7,17,7.2c2.6,2.6,4.6,5.8,5.8,9.4c0.8,2.4,1.5,4.9,1.5,7.6c0,1.4-1.1,2.5-2.5,2.5c-1.4,0-2.5-1.1-2.5-2.5
			c0-1.8-0.5-3.6-1.3-6c-1.1-3.2-2.9-6-5.2-8.1c-3.4-3.2-8-5.1-12.9-5.1c-3.1,0-5.5,0.6-7.7,1.8c0,0-0.1,0-0.1,0.1
			c-2.2,1.1-4.9,3.3-6,4.9c0,0-0.1,0.1-0.1,0.1c-2.5,3.3-3.7,4.9-6.7,3.5c-3.5-1.3-7.3-1.5-9.9-0.6c-5.6,1.8-9.6,7.2-9.8,13
			c0,0.9-0.1,1.9-0.2,2.4l0,0.2c0,0.6-0.3,1.2-0.7,1.6c-0.7,0.7-1.8,1.2-2.9,1.5c-3.2,0.8-6,2.9-7.2,5.6c-1.1,2.6-0.7,7.8-0.1,9
			c1.4,2.9,4.5,5.5,7.3,6.2c1.1,0.2,8.1,0.3,14.3,0.3c1.4,0,2.5,1.1,2.5,2.5S34.2-7.6,32.8-7.6z"/>
	</g>
	<g id="Thin-M" transform="matrix(1 0 0 1 799.828 1126)">
		<path d="M99.1-4.5c0,0-57.6,0.6-60.5-0.3c-6.7-2-10.5-7.4-10.5-15.1c0-2.5,0.2-3.8,0.9-5.5c1.6-4.1,5.7-7.2,11.1-8.3
			c0.9-0.2,1.3-0.4,1.5-0.5c0-0.7,0.3-1.9,0.7-3c1.8-5,4.9-9,8.4-11c3.6-1.8,5.5-2.3,9.7-2.3c6,0,9.4,1.5,13.6,5.9l1.4,1.4l0.7-0.2
			c5.1-1.8,10.5-1.2,14.8,1.5c4,2.6,6.5,6.8,6.9,11.6l0.1,1.1l0.6,0.2c0,0,0,0,0.1,0c6.2,2.2,9.1,6.8,8.6,13.8
			c-0.5,4.7-2.7,8.3-6,9.9C101.1-5.3,99.9-4.5,99.1-4.5z M39.6-8.6c1.6,0.2,9.7,0.2,30.5,0.2h28.6l0.8-0.4c2.1-1,3.5-3.5,3.8-6.8
			c0.4-5.1-1.4-8.1-5.9-9.7l-1.8-0.6c-0.8-0.2-1.3-0.9-1.4-1.7L93.9-30c-0.2-2-0.8-3.8-1.8-5.3c-0.8-1.3-2-2.4-3.3-3.3
			c-1.2-0.8-2.5-1.3-3.9-1.6c-2.4-0.5-5-0.4-7.5,0.5l-1.9,0.6c-0.7,0.2-1.5,0-2-0.5l-2.3-2.3c-3.5-3.7-5.8-4.7-10.8-4.7
			c-3.5,0-4.9,0.3-7.8,1.8c-2.7,1.5-5.1,4.8-6.6,8.9c-0.3,0.8-0.5,1.6-0.5,1.8c0,3-2.8,3.7-4.5,4.1c-1.7,0.4-3.2,0.9-4.5,1.7
			c-1.8,1.1-3.2,2.6-3.8,4.3c-0.5,1.1-0.7,1.9-0.7,4c0,1.7,0.2,3.7,0.9,5.5C34-11.9,35.9-9.7,39.6-8.6z M32.2-8.7
			c-5,0-13.7-0.1-15.2-0.5c-3.9-1-8.1-4.5-10-8.4c-1.2-2.3-1.7-9,0-12.7c1.7-3.8,5.5-6.8,10-7.9c0.1,0,0.2-0.1,0.3-0.1
			c0-0.4,0.1-0.8,0.1-1.2C17.7-47.1,22.9-54,30-56.4c3.5-1.3,8.3-1.1,12.7,0.6c0.4-0.4,0.9-1.1,1.5-1.9c1.5-2.2,4.7-4.9,7.6-6.3
			c2.8-1.6,5.9-2.3,9.6-2.3c9.8,0,18.6,6.4,22,15.9c0.8,2.3,1.5,4.7,1.5,7.3c0,1.1-0.9,2-2,2c-1.1,0-2-0.9-2-2
			c0-1.9-0.5-3.6-1.3-6.1c-1.2-3.5-3.3-6.5-6-8.7c-3.4-2.9-7.7-4.5-12.3-4.5c-3.1,0-5.6,0.6-7.8,1.8c0,0-0.1,0-0.1,0.1
			c-2.2,1.1-5,3.3-6.1,5c0,0,0,0.1-0.1,0.1c-2.5,3.3-3.4,4.5-6,3.3c-3.6-1.3-7.4-1.5-10.1-0.6c-5.7,1.9-9.7,7.3-9.9,13.2
			c0,0.9-0.1,1.8-0.2,2.3l0,0.2c0,0.5-0.2,0.9-0.6,1.3c-0.5,0.5-1.4,1-2.6,1.3c-3.3,0.9-6.1,3-7.4,5.8c-1.1,2.4-0.7,7.9,0,9.3
			c1.4,3,4.6,5.6,7.5,6.4c1,0.2,8,0.3,14.1,0.3c1.1,0,2,0.9,2,2S33.3-8.7,32.2-8.7z"/>
	</g>
	<g id="Ultralight-M" transform="matrix(1 0 0 1 503.679 1126)">
		<path d="M96.4-5.3c0,0-57.4-0.2-58.8-0.2c-5,0-10.2-7.1-10.2-14.5c0-2.4,0.2-3.6,0.9-5.2c1.5-3.9,5.5-6.8,10.6-7.9
			c1.4-0.4,1.8-0.6,1.8-0.7c0,0,0,0,0-0.1c0-0.6,0.2-1.8,0.7-3c1.7-4.8,4.7-8.7,8.1-10.6c3.4-1.8,5.3-2.2,9.3-2.2
			c5.8,0,9,1.4,13.1,5.7l1.5,1.4c4.9-1.7,11.1-1.4,15.2,1.3c3.8,2.4,6.2,6.5,6.6,11l0.1,1.5l0.9,0.3c0,0,0,0,0,0
			c5.9,2.1,8.7,6.5,8.1,13.1c-0.5,4.5-2.5,7.9-5.7,9.4C98.7-6,97.1-5.3,96.4-5.3z M38.1-8.4c1.5,0.2,9.5,0.2,30.2,0.2H86h10.5
			l0.9-0.4c2.2-1.1,3.7-3.6,4-7.1c0.4-5.2-1.5-8.4-6.2-10.1l-1.8-0.6c-0.6-0.2-1-0.7-1-1.3l-0.2-2.4c-0.1-1.7-0.6-3.3-1.4-4.7
			c-0.9-1.7-2.2-3.1-3.9-4.2c-3.3-2.2-7.6-2.6-11.7-1.1l-1.9,0.6c-0.5,0.2-1.1,0-1.5-0.4L69.8-42c-3.5-3.7-6-4.8-11-4.8
			c-3.6,0-5,0.3-7.9,1.9c-1.6,0.9-3.2,2.5-4.5,4.5c-0.9,1.3-1.6,2.9-2.2,4.5c-0.3,0.9-0.5,1.7-0.5,1.9c0,2.6-2.5,3.2-4.1,3.6
			c-4.2,0.9-7.4,3.2-8.6,6.2c-0.5,1.1-0.7,1.9-0.7,4.1c0,2,0.3,3.7,0.8,5.3C32.3-11.5,34.6-9.4,38.1-8.4z M30.9-9.5
			c-4,0-13.4,0-14.8-0.4c-3.8-1-7.7-4.3-9.5-8c0,0,0-0.1-0.1-0.1c-0.9-2.4-1.7-8.8,0.1-12c1.6-3.5,5.2-6.4,9.5-7.5
			c0.3-0.1,0.5-0.1,0.6-0.2c0.1-0.4,0.1-1,0.1-1.6c0.2-7.3,5.2-13.9,12-16.2c3.4-1.3,8-1,12.4,0.6c0,0,0.1,0,0.1,0.1c0,0,0,0,0,0
			c0.4-0.4,1-1.2,1.7-2.2c1.4-2.1,4.6-4.7,7.3-6c2.6-1.5,5.6-2.2,9.2-2.2c9.5,0,18,6.2,21.2,15.4c0.7,2.2,1.4,4.5,1.4,7.1
			c0,0.8-0.6,1.5-1.5,1.5c-0.8,0-1.5-0.6-1.5-1.5c0-1.9-0.5-3.7-1.3-6.1C75.4-57,68-62.4,59.8-62.4c-3.1,0-5.6,0.6-7.9,1.8
			c-2.3,1.1-5.1,3.4-6.3,5.1c-2.5,3.3-3.2,4.2-5.4,3.1c-3.6-1.4-7.6-1.6-10.3-0.6c-5.8,1.9-9.9,7.4-10.1,13.5c0,0.9-0.1,1.7-0.2,2.2
			c0,0.1,0,0.2,0,0.3c0,0.4-0.2,0.7-0.4,1c-0.4,0.4-1.2,0.9-2.4,1.2c-3.4,0.9-6.3,3.1-7.6,6c-1.1,2.1-0.8,7.5,0,9.7
			c1.5,3,4.7,5.7,7.6,6.4c0.9,0.2,7.9,0.3,14.1,0.3c0.8,0,1.5,0.7,1.5,1.5S31.7-9.5,30.9-9.5z"/>
	</g>
	<g id="Black-S" transform="matrix(1 0 0 1 2884.57 696)">
		<path d="M85.1-5.4H60.3c-21.9,0-25.6,0-27.1-0.2c-0.2,0-0.4-0.1-0.6-0.1c-7-2-11.1-7.9-11.1-15.8c0-2.1,0.2-3.8,1-5.8
			c1.7-4.2,5.7-7.4,10.9-8.7c0.1-0.4,0.3-0.9,0.4-1.3c1.8-5,4.9-9,8.6-11c0,0,0.1,0,0.1-0.1c3.4-1.8,5.6-2.3,9.6-2.3
			c5.9,0,9.5,1.5,13.6,5.8c4.9-1.4,9.9-0.7,14,2c2.2,1.4,3.9,3.2,5.1,5.4c1,1.8,1.7,3.7,2,5.8c5.8,2.5,8.6,7.5,8.1,14.3
			c0,0,0,0.1,0,0.1c-0.5,5-3,9-6.8,10.8l-0.9,0.5C86.6-5.6,85.8-5.4,85.1-5.4z M34.8-14.8c1.8,0.1,9.5,0.1,25.5,0.1l23.8,0
			c0.9-0.4,1.5-1.7,1.7-3.4c0.3-3.4-0.9-4.5-3.1-5.3l-1.5-0.5c-1.8-0.6-3.1-2.2-3.2-4L77.8-30c-0.2-2.1-1.3-4-3-5.1
			c-2-1.3-4.6-1.5-7.2-0.6c0,0-0.1,0-0.1,0l-1.6,0.5c-1.6,0.5-3.4,0.1-4.6-1.1l-1.9-1.9c0,0-0.1-0.1-0.1-0.1
			c-2.4-2.5-3.7-3.1-7.1-3.1c-2.5,0-3.2,0.2-5.3,1.2c-1.2,0.7-3.1,2.7-4.3,6c0,0.1,0,0.1-0.1,0.2c-0.1,0.2-0.1,0.5-0.2,0.6
			c-0.1,4.6-4.6,5.8-6,6.2c-0.1,0-0.1,0-0.2,0.1c-2.5,0.5-4.4,1.8-4.9,3.3c0,0,0,0.1-0.1,0.1c-0.2,0.4-0.3,0.7-0.3,2.2
			C30.7-16.8,33-15.4,34.8-14.8z M28-9.9c-11.6,0-13.1-0.3-13.7-0.5C10.1-11.5,6-14.9,4-18.9C2-22.4,2.3-29.4,3.9-32.5
			c1.7-3.5,4.7-6.3,8.6-7.7c0.6-7.2,5.7-13.7,12.6-16c3.1-1.1,7-1.2,10.8-0.2c1.6-2.3,4.6-4.8,7.4-6.2c2.8-1.5,5.9-2.3,9.6-2.3
			c9.6,0,18.3,6.3,21.5,15.6c0.7,2.2,1.4,4.5,1.4,7.2c0,2.5-2.1,4.6-4.6,4.6c-2.5,0-4.6-2.1-4.6-4.6c0-1.2-0.3-2.4-0.9-4.2
			c-1.3-3.8-4.1-6.7-7.5-8.2c-1.6-0.7-3.4-1.1-5.3-1.1c-2.1,0-3.8,0.4-5.2,1.2c-0.1,0-0.2,0.1-0.2,0.1c-1.5,0.7-3.4,2.4-4,3.3
			c-0.1,0.1-0.1,0.2-0.2,0.2c-2,2.7-4.3,5.7-8.6,3.7c-2.3-0.8-4.9-1-6.5-0.4c-0.1,0-0.1,0-0.2,0.1c-3.6,1.2-6.3,4.8-6.4,8.5
			c0,1-0.1,1.8-0.2,2.3l0,0.1c-0.1,1.1-0.6,2.1-1.3,2.9c-0.9,0.9-2.2,1.6-3.6,1.9c-2,0.5-3.7,1.8-4.4,3.3c0,0.1-0.1,0.2-0.1,0.3
			c-0.3,1.1-0.4,3.9-0.1,4.9c0.1,0.1,0.1,0.2,0.2,0.3c0.8,1.6,2.7,3.3,4.3,3.8c1.3,0.1,6.9,0.2,11.5,0.2c2.5,0,4.6,2.1,4.6,4.6
			S30.5-9.9,28-9.9z"/>
	</g>
	<g id="Heavy-S" transform="matrix(1 0 0 1 2588.47 696)">
		<path d="M84.7-6.2H59.8c-21.9,0-25.6,0-27-0.2c-0.2,0-0.4-0.1-0.6-0.1c-6.9-2-10.9-7.6-10.9-15.4c0-2.4,0.3-3.9,1-5.6
			c1.7-4.2,5.7-7.3,10.9-8.6c0.1-0.5,0.3-1,0.5-1.5c1.7-4.9,4.8-8.8,8.4-10.8c0,0,0.1,0,0.1-0.1c3.4-1.7,5.5-2.2,9.4-2.2
			c5.8,0,9.3,1.5,13.4,5.8l0.1,0.1c4.9-1.4,9.9-0.8,14,1.9c3.9,2.5,6.4,6.6,7,11.2c5.6,2.4,8.5,7.3,8.1,13.9c0,0.1,0,0.1,0,0.2
			c-0.5,4.9-2.9,8.7-6.5,10.5l-1,0.5C86-6.4,85.3-6.2,84.7-6.2z M34.2-14.7c1.7,0.1,49.5,0.1,49.5,0.1l0.1-0.1
			c1-0.5,1.7-1.9,1.9-3.7c0.2-3.7-1.1-4.9-3.4-5.7l-1.5-0.5c-1.6-0.5-2.8-2-2.9-3.7l-0.2-2.1c-0.2-2.3-1.3-4.2-3.2-5.4
			c-2.1-1.4-4.9-1.6-7.6-0.7c0,0-0.1,0-0.1,0L65.2-36c-1.5,0.5-3.1,0.1-4.2-1l-1.9-1.9c0,0,0,0-0.1-0.1c-2.5-2.6-3.9-3.2-7.4-3.2
			c-2.6,0-3.4,0.2-5.5,1.3c-1.4,0.8-3.3,2.8-4.5,6.3c0,0.1,0,0.1-0.1,0.2c-0.1,0.3-0.2,0.6-0.2,0.7c-0.1,4.3-4.3,5.4-5.7,5.8
			c-0.1,0-0.1,0-0.2,0c-2.6,0.5-4.6,1.9-5.3,3.5c0,0,0,0.1-0.1,0.1c-0.2,0.5-0.3,0.8-0.3,2.4C29.8-16.5,32.8-15.2,34.2-14.7z
			 M27.3-9.8c-11.6,0-13-0.3-13.6-0.5c-4.1-1.1-8.2-4.5-10.1-8.5c0-0.1-0.1-0.1-0.1-0.2c-1.9-4.3-1.4-10.3,0.1-13.1
			c1.7-3.5,4.7-6.1,8.6-7.5c0.5-7.2,5.5-13.7,12.4-16c3.1-1.1,7-1.1,10.9-0.1c0-0.1,0.1-0.1,0.1-0.2c1.6-2.3,4.6-4.8,7.4-6.2
			c2.7-1.5,5.8-2.2,9.4-2.2c9.5,0,18,6.2,21.2,15.3c0.7,2.2,1.4,4.4,1.4,7.1c0,2.3-1.9,4.2-4.2,4.2s-4.2-1.9-4.2-4.2
			c0-1.3-0.3-2.5-1-4.4c-2-5.8-7.2-9.6-13.2-9.6c-2.2,0-3.9,0.4-5.4,1.2c-0.1,0-0.1,0.1-0.2,0.1c-1.6,0.8-3.6,2.4-4.2,3.4
			c0,0.1-0.1,0.1-0.1,0.2c-2,2.7-4.1,5.4-8.1,3.6c-2.4-0.9-5.1-1.1-6.8-0.4c-0.1,0-0.1,0-0.2,0.1c-3.8,1.2-6.5,4.9-6.7,8.9
			c0,0.9-0.1,1.8-0.2,2.2l0,0.1c-0.1,1-0.5,2-1.2,2.7c-0.8,0.8-2.1,1.5-3.4,1.8c-2.2,0.6-3.9,1.9-4.6,3.5c-0.1,0.1-0.1,0.3-0.2,0.4
			c-0.3,0.9-0.5,3.7,0.2,5.5c0.9,1.8,2.9,3.5,4.6,4c1.3,0.1,6.9,0.2,11.6,0.2c2.3,0,4.2,1.9,4.2,4.2S29.7-9.8,27.3-9.8z"/>
	</g>
	<g id="Bold-S" transform="matrix(1 0 0 1 2292.43 696)">
		<path d="M83.6-7H59.1C37.4-7,33.8-7,32.4-7.2c-0.2,0-0.3-0.1-0.5-0.1c-6.6-1.9-10.4-7.3-10.4-14.8c0-2.3,0.2-3.8,0.9-5.4
			c1.6-4.1,5.6-7.1,10.7-8.3c0.1-0.6,0.3-1.1,0.5-1.7c1.7-4.7,4.6-8.5,8.1-10.4c0,0,0.1,0,0.1,0c3.3-1.7,5.2-2.2,9.1-2.2
			c5.6,0,9,1.5,12.9,5.6l0.3,0.3c4.8-1.5,9.7-0.8,13.7,1.7c3.8,2.4,6.2,6.4,6.7,11c4.1,1.6,8.4,5.3,7.9,13.4c0,0,0,0.1,0,0.1
			c-0.5,4.7-2.8,8.3-6.2,10l-0.9,0.5C84.8-7.1,84.2-7,83.6-7z M33.7-14.6c1.6,0.1,49,0.1,49,0.1l0.2-0.1c1.1-0.5,1.9-2,2.1-4
			c0.2-3.9-1.2-5.2-3.6-6.1l-1.5-0.5c-1.4-0.5-2.5-1.7-2.6-3.3l-0.2-2.1c-0.2-2.4-1.4-4.4-3.4-5.7c-2.2-1.4-5.1-1.7-7.8-0.7
			c0,0-0.1,0-0.1,0l-1.6,0.5c-1.3,0.4-2.8,0.1-3.8-0.9l-1.9-1.9c0,0,0,0-0.1-0.1c-2.6-2.7-4-3.3-7.6-3.3c-2.6,0-3.5,0.2-5.6,1.3
			c-1.4,0.8-3.4,2.9-4.6,6.4c0,0,0,0.1-0.1,0.1c-0.1,0.3-0.2,0.7-0.2,0.8c-0.1,4-3.9,5-5.4,5.4c-0.1,0-0.1,0-0.2,0
			c-2.7,0.6-4.8,2-5.5,3.8c0,0,0,0.1,0,0.1c-0.2,0.6-0.4,0.9-0.4,2.5C29-18.1,30.5-15.6,33.7-14.6z M27-10.6
			c-11.4,0-12.8-0.3-13.3-0.5c-4-1-7.9-4.3-9.7-8.2C2.8-21.4,1.6-28.2,4-32c1.6-3.3,4.7-5.9,8.5-7.2c0.4-7.1,5.2-13.5,11.9-15.7
			c3.1-1.1,7-1.1,10.7,0c0.1-0.1,0.2-0.3,0.3-0.4c1.7-2.4,4.8-4.8,7.1-5.9c2.7-1.5,5.6-2.2,9.1-2.2c9.2,0,17.4,6,20.5,14.9
			c0.7,2.1,1.4,4.3,1.4,6.9c0,2.1-1.7,3.7-3.7,3.7s-3.7-1.7-3.7-3.7c0-1.3-0.4-2.6-1-4.5c-0.9-2.5-2.3-4.6-4.1-6.2
			c-2.5-2.3-5.8-3.6-9.4-3.6c-2.2,0-4,0.4-5.6,1.3c-0.1,0-0.1,0.1-0.2,0.1c-1.5,0.7-3.6,2.4-4.3,3.5c0,0.1-0.1,0.1-0.1,0.2
			c-2.1,2.7-3.9,5.1-7.5,3.4c-2.5-0.9-5.3-1.1-7-0.4c0,0-0.1,0-0.1,0c-3.9,1.3-6.7,5.1-6.9,9.2c0,0.9-0.1,1.7-0.2,2.2l0,0.1
			c-0.1,0.9-0.4,1.7-1.1,2.4c-0.8,0.8-1.9,1.4-3.2,1.6c-2.3,0.6-4.1,2-4.9,3.7c-0.1,0.2-0.2,0.5-0.4,0.7c-0.4,0.9-0.2,4.2,0.3,5.4
			c0.9,1.9,3.1,3.8,4.9,4.3C16.7-18.1,22.3-18,27-18c2.1,0,3.7,1.7,3.7,3.7S29.1-10.6,27-10.6z"/>
	</g>
	<g id="Semibold-S" transform="matrix(1 0 0 1 1996.19 696)">
		<path d="M82.5-7.8H58.2C37.3-7.8,33.4-7.8,32-8c-0.1,0-0.3-0.1-0.4-0.1c-6.3-1.8-10-7-10-14.2c0-2.3,0.2-3.6,0.9-5.2
			c1.5-3.9,5.4-6.9,10.4-7.9c0.1,0,0.1,0,0.2,0c0.1-0.6,0.3-1.3,0.5-1.8c1.6-4.6,4.5-8.2,7.8-10.1c0,0,0,0,0.1,0
			c3.2-1.6,5.1-2.1,8.8-2.1c5.4,0,8.7,1.4,12.5,5.4l0.4,0.4c4.6-1.5,9.5-0.9,13.4,1.6c3.7,2.4,6.1,6.3,6.5,10.8
			c5.6,2.1,8.3,6.6,7.8,13c-0.5,4.6-2.6,8-5.9,9.6l-0.9,0.5C83.5-7.9,83-7.8,82.5-7.8z M33.1-14.5c1.6,0.1,9.2,0.1,25.1,0.1h23.4
			l0.3-0.1c1.3-0.6,2.1-2.2,2.3-4.4c0.3-3.4-0.8-5.3-3.8-6.4l-1.5-0.5c-1.3-0.4-2.2-1.5-2.3-2.9l-0.2-2c-0.2-2.5-1.5-4.6-3.5-5.9
			c-2.3-1.5-5.2-1.8-8.1-0.8c0,0-0.1,0-0.1,0l-1.6,0.5c-1.2,0.4-2.4,0.1-3.3-0.8l-1.9-1.9c-2.7-2.8-4.2-3.5-7.8-3.5
			c-2.7,0-3.5,0.2-5.7,1.3c-1.9,1-3.7,3.5-4.8,6.5c0,0,0,0.1,0,0.1c-0.1,0.3-0.2,0.8-0.3,0.9c-0.1,3.7-3.5,4.6-5,4.9
			c-0.1,0-0.1,0-0.2,0c-2.8,0.6-5,2.1-5.7,4c0,0,0,0.1,0,0.1c-0.2,0.6-0.4,1-0.4,2.6C28.1-18.1,29.8-15.5,33.1-14.5z M26.7-11.3
			c-11.2,0-12.6-0.3-13-0.4c-3.8-1-7.5-4.1-9.3-7.8c-1.2-2.4-1.9-8.1,0-12c1.6-3.4,4.6-6,8.5-7.3c0.2-6.9,5-13.2,11.5-15.4
			c3-1.1,6.9-1.1,10.6,0.1c0.1-0.2,0.3-0.4,0.5-0.6c1.6-2.4,4.6-4.6,6.9-5.7c2.6-1.4,5.4-2.1,8.8-2.1c5,0,9.7,1.8,13.4,5
			c2.9,2.4,5.1,5.7,6.4,9.4c0.7,2,1.3,4.2,1.3,6.6c0,1.8-1.5,3.3-3.3,3.3s-3.3-1.5-3.3-3.3c0-1.3-0.4-2.7-1-4.5
			c-2.1-6-7.5-10-13.7-10c-2.3,0-4.1,0.4-5.7,1.3c-0.1,0-0.1,0.1-0.2,0.1c-1.6,0.8-3.6,2.4-4.4,3.6c0,0.1-0.1,0.1-0.1,0.2
			c-2,2.7-3.6,4.8-6.9,3.2c-2.6-0.9-5.4-1.1-7.2-0.4c0,0-0.1,0-0.1,0c-4,1.3-6.9,5.2-7.1,9.5c0,0.9-0.1,1.7-0.2,2.1l0,0.1
			c-0.1,0.8-0.4,1.5-1,2.1c-0.7,0.7-1.8,1.2-2.9,1.5c-2.3,0.6-4.2,2.1-5.1,3.9c-0.9,1.9-0.5,5.4-0.1,6.3c0,0,0,0.1,0,0.1
			c0.9,1.9,3.2,3.9,5.1,4.4c1.1,0.1,6.8,0.2,11.4,0.2c1.8,0,3.3,1.5,3.3,3.3S28.5-11.3,26.7-11.3z"/>
	</g>
	<g id="Medium-S" transform="matrix(1 0 0 1 1699.83 696)">
		<path d="M81.7-8.6H57.8c-20.6,0-24.5,0-25.8-0.2c-0.1,0-0.2,0-0.4-0.1c-6.1-1.7-9.6-6.7-9.6-13.6c0-2.2,0.2-3.4,0.9-4.9
			c1.5-3.7,5.2-6.6,9.9-7.6c0.2,0,0.3-0.1,0.4-0.1c0.1-0.6,0.3-1.4,0.6-2c1.6-4.4,4.3-8,7.5-9.7c3.1-1.6,4.9-2,8.5-2
			c5.3,0,8.3,1.3,12,5.2l0.6,0.6c4.5-1.5,9.3-1,13.1,1.4c3.6,2.3,5.8,6.1,6.2,10.4l0,0.1c5.5,2,8.2,6.3,7.7,12.5
			c-0.4,4.3-2.5,7.7-5.6,9.2L83-8.9C82.6-8.7,82.1-8.6,81.7-8.6z M33-14.3c1.5,0.1,9.1,0.1,24.9,0.1H81l0.4-0.2
			c1.4-0.7,2.3-2.3,2.5-4.6c0.3-3.6-0.9-5.6-4.1-6.7l-1.5-0.5c-1.1-0.3-1.9-1.3-2-2.5l-0.2-2c-0.2-2.6-1.5-4.8-3.6-6.1
			c-2.4-1.5-5.4-1.8-8.3-0.8c0,0-0.1,0-0.1,0l-1.5,0.5c-1,0.3-2.1,0-2.8-0.7l-1.9-1.9c-2.7-2.8-4.3-3.5-8-3.5
			c-2.7,0-3.6,0.2-5.9,1.4c-1.9,1-3.8,3.6-4.8,6.7c0,0,0,0.1,0,0.1c-0.2,0.4-0.3,0.9-0.3,1c0,3.3-3.2,4.2-4.6,4.5c0,0-0.1,0-0.1,0
			c-2.9,0.6-5.2,2.2-5.9,4.1c0,0,0,0.1,0,0.1c-0.3,0.7-0.4,1.1-0.4,2.8C27.7-18.1,29.5-15.4,33-14.3z M26.7-12
			c-11.3,0-12.4-0.3-12.8-0.4c-3.6-0.9-7.9-4.7-9.1-7.8c-1.5-4.2-1-8.6,0.1-11.1c1.3-2.9,4.9-6,8.5-7.1c0,0,0-0.1,0-0.1
			c0,0,0-0.1,0-0.1c0.2-6.7,4.7-12.8,11.1-14.9c3-1.1,6.8-1,10.5,0.2c0.2-0.3,0.4-0.5,0.6-0.8c1.5-2.3,4.5-4.5,6.6-5.5
			c2.5-1.4,5.2-2,8.5-2c8.6,0,16.3,5.6,19.2,13.9c0.7,2,1.3,4.1,1.3,6.4c0,1.6-1.3,2.8-2.8,2.8s-2.8-1.3-2.8-2.8
			c0-1.4-0.4-2.7-1-4.6c-2.1-6.1-7.6-10.1-13.9-10.1c-2.3,0-4.2,0.4-5.8,1.3c0,0-0.1,0.1-0.1,0.1c-1.6,0.8-3.7,2.5-4.5,3.7
			c0,0-0.1,0.1-0.1,0.1c-2,2.7-3.4,4.5-6.3,3.1c-2.6-1-5.5-1.1-7.4-0.4c0,0-0.1,0-0.1,0c-4.1,1.4-7.1,5.3-7.3,9.7
			c0,0.8-0.1,1.6-0.2,2l0,0.1c0,0.7-0.3,1.3-0.8,1.8c-0.6,0.6-1.6,1.1-2.7,1.4c-2.4,0.6-4.7,2.8-5.3,4c-0.6,1.5-0.8,4.4,0.1,7
			c0.4,1.2,3.1,3.7,5.2,4.2c1,0.2,6.7,0.2,11.4,0.2c1.6,0,2.8,1.3,2.8,2.8S28.2-12,26.7-12z"/>
	</g>
	<g id="Regular-S" transform="matrix(1 0 0 1 1403.58 696)">
		<path d="M80.7-9.4c0,0-42.6,0.1-49.2-0.2c-6-0.3-9.1-6.4-9.1-13c0-2.1,0.2-3.3,0.8-4.7c1.4-3.6,5-6.3,9.5-7.2
			c0.3-0.1,0.5-0.1,0.7-0.2c0.1-0.7,0.3-1.5,0.6-2.1c1.5-4.3,4.1-7.7,7.2-9.4c3-1.5,4.8-2,8.2-2c5.1,0,8,1.3,11.6,5l0.8,0.8l0.1,0
			c4.3-1.5,9-1,12.7,1.3c3.4,2.2,5.6,5.8,5.9,10l0,0.4c0,0,0,0,0.1,0c5.4,1.9,7.9,6,7.5,12c-0.4,4.1-2.4,7.3-5.3,8.7l-0.9,0.5
			C81.5-9.5,81.1-9.4,80.7-9.4z M32.6-14.3c1.4,0.1,8.4,0.1,24.6,0.1h23l0.4-0.2c1.5-0.7,2.4-2.5,2.7-4.9c0.3-3.7-1-5.9-4.3-7
			l-1.5-0.5c-0.9-0.3-1.6-1.1-1.7-2.1l-0.2-2c-0.1-1.1-0.4-2.2-0.9-3.1c-0.6-1.3-1.6-2.4-2.9-3.2c-2.4-1.6-5.6-1.9-8.6-0.8l-1.6,0.5
			c-0.8,0.3-1.8,0-2.4-0.6l-1.8-1.8c-2.7-2.9-4.4-3.6-8.2-3.6c-2.7,0-3.7,0.2-6,1.4c-2,1.1-3.8,3.6-5,6.8c0,0,0,0.1,0,0.1
			c-0.2,0.5-0.3,1-0.3,1.2c0,3-2.9,3.7-4.2,4.1c0,0-0.1,0-0.1,0c-3,0.6-5.3,2.3-6.1,4.3c0,0,0,0.1,0,0.1c-0.3,0.7-0.4,1.2-0.4,2.9
			C27.2-19.6,28.1-15.6,32.6-14.3z M26.5-12.8c-7.3,0-11.5-0.1-12.5-0.4c-3.4-0.9-6.9-3.8-8.6-7.2c-1.1-2-1.8-8.2,0.1-11.1
			c1.5-3.1,4.6-5.6,8.3-6.6c0-0.1,0-0.3,0-0.4C14-45,18.4-50.9,24.5-53c2.9-1.1,6.7-1,10.4,0.3c0.2-0.3,0.5-0.7,0.8-1.1
			c1.3-1.9,4-4.2,6.4-5.3c2.4-1.3,5-1.9,8.2-1.9c8.3,0,15.7,5.4,18.5,13.4c0.6,1.9,1.2,3.9,1.2,6.2c0,1.3-1.1,2.4-2.4,2.4
			s-2.4-1.1-2.4-2.4c0-1.4-0.4-2.8-1-4.7c-2.2-6.2-7.7-10.2-14-10.2c-2.4,0-4.2,0.4-5.9,1.4c0,0-0.1,0-0.1,0.1
			c-1.7,0.8-3.8,2.5-4.6,3.8c0,0-0.1,0.1-0.1,0.1c-2,2.6-3.1,4.2-5.8,2.9c-2.7-1-5.7-1.2-7.6-0.4c0,0-0.1,0-0.1,0
			c-4.2,1.4-7.3,5.5-7.4,10c0,0.8-0.1,1.5-0.1,1.9l0,0.1c0,0.6-0.3,1.1-0.7,1.5c-0.6,0.6-1.5,1.1-2.5,1.3c-2.4,0.6-4.5,2.2-5.4,4.2
			c-0.1,0.1-0.1,0.3-0.2,0.4c-0.7,1-0.4,5.3,0.2,6.4c1.1,2.2,3.4,4.2,5.5,4.8c1,0.2,6.5,0.2,11.3,0.2c1.3,0,2.4,1.1,2.4,2.4
			C28.9-13.9,27.8-12.8,26.5-12.8z"/>
	</g>
	<g id="Light-S" transform="matrix(1 0 0 1 1107.6 696)">
		<path d="M79.6-10.1c0,0-41.7,0-48.1-0.2c-4.8-0.1-9.3-6.6-9-12.5c0.1-2,0.2-3.2,0.8-4.5c1.3-3.3,4.7-5.9,9.1-6.9
			c0.5-0.1,0.8-0.2,0.9-0.3c0.1-0.7,0.3-1.5,0.6-2.3c1.5-4.1,4-7.4,6.9-9c2.9-1.5,4.5-1.9,7.9-1.9c4.9,0,7.7,1.2,11.1,4.8l0.7,0.9
			c4.2-1.5,9.2-1.1,12.7,1.2c3.3,2.1,5.3,5.6,5.7,9.5l0.1,0.7l0.2,0.1c0,0,0,0,0.1,0c5.1,1.8,7.5,5.6,7.1,11.4c-0.4,4-2.2,6.9-5,8.3
			l-0.9,0.5C80.2-10.2,79.9-10.1,79.6-10.1z M32.1-14.2c1.3,0.1,8.3,0.1,24.3,0.1h22.7l0.5-0.3c0.7-0.3,1.3-0.9,1.8-1.7
			c0.6-0.9,0.9-2.1,1.1-3.4c0.3-3.9-1.1-6.1-4.5-7.3l-1.5-0.5c-0.8-0.2-1.3-0.9-1.4-1.7l-0.2-2c-0.2-2.8-1.6-5.1-3.9-6.6
			c-2.5-1.6-5.7-1.9-8.8-0.8l-1.5,0.5c-0.7,0.2-1.5,0-2-0.5L57-40.1c-2.7-2.9-4.5-3.7-8.3-3.7c-2.7,0-3.8,0.2-6.1,1.4
			c-2,1.1-3.9,3.7-5.1,6.9c0,0,0,0,0,0.1c-0.2,0.5-0.3,1.1-0.3,1.3c0,2.6-2.5,3.3-3.9,3.7c0,0-0.1,0-0.1,0c-3.1,0.6-5.5,2.3-6.3,4.5
			c-0.4,0.8-0.5,1.4-0.5,3c0,1.5,0.2,3.3,1,4.8C28.2-16.3,29.7-14.9,32.1-14.2z M26.1-13.5c-4.9,0-11.1-0.1-12.2-0.4
			c-3.2-0.8-6.6-3.7-8.2-6.9c-1.1-2-1.3-7.3,0-10.4c1.5-3.2,4.6-5.7,8.3-6.6c0-0.2,0-0.5,0-0.7c0.2-6.2,4.4-11.9,10.3-13.8
			c2.8-1,6.6-0.9,10.2,0.4c0.3-0.3,0.6-0.8,1-1.3c1.3-1.9,3.8-4,6.2-5.1c2.3-1.3,4.9-1.9,7.9-1.9c5.1,0,9.8,2.1,13.3,5.6
			c2,2,3.6,4.5,4.6,7.3c0.6,1.8,1.2,3.8,1.2,6c0,1.1-0.9,2-2,2c-1.1,0-2-0.9-2-2c0-1.4-0.4-2.8-1-4.7c-0.9-2.5-2.3-4.7-4.1-6.4
			c-2.7-2.5-6.2-4-10.1-4c-2.4,0-4.3,0.4-6,1.4c0,0-0.1,0-0.1,0.1c-1.7,0.8-3.8,2.6-4.7,3.9c0,0,0,0.1-0.1,0.1
			c-1.9,2.5-2.9,3.8-5.2,2.7c-2.8-1-5.7-1.2-7.8-0.4c-4.4,1.4-7.5,5.6-7.7,10.2c0,0.7-0.1,1.5-0.1,1.8l0,0.2c0,0.5-0.2,0.9-0.6,1.3
			c-0.5,0.5-1.4,0.9-2.3,1.2c-2.5,0.7-4.7,2.3-5.6,4.4c-0.8,2-0.5,6.1,0,7c1.1,2.2,3.5,4.3,5.7,4.9c0.8,0.2,6.3,0.3,11.2,0.3
			c1.1,0,2,0.9,2,2S27.2-13.5,26.1-13.5z"/>
	</g>
	<g id="Thin-S" transform="matrix(1 0 0 1 811.863 696)">
		<path d="M77.8-11.1c0,0-45.1,0.5-47.3-0.2c-5.2-1.6-8.3-5.8-8.3-11.8c0-1.9,0.2-3,0.7-4.3c1.2-3.2,4.5-5.6,8.7-6.5
			c0.7-0.2,1-0.3,1.2-0.4c0-0.6,0.2-1.5,0.6-2.4c1.4-3.9,3.8-7.1,6.6-8.6c2.8-1.4,4.3-1.8,7.6-1.8c4.7,0,7.3,1.2,10.6,4.6l1.1,1.1
			l0.6-0.2c4-1.4,8.2-1,11.6,1.2c3.1,2,5.1,5.3,5.4,9l0.1,0.9l0.5,0.1c0,0,0,0,0,0c4.9,1.7,7.1,5.4,6.7,10.8
			c-0.4,3.7-2.1,6.5-4.7,7.8C79.4-11.7,78.5-11.1,77.8-11.1z M31.2-14.3c1.2,0.1,7.6,0.1,23.9,0.1h22.4l0.6-0.3
			c1.6-0.8,2.7-2.7,3-5.3c0.3-4-1.1-6.4-4.6-7.6L75-27.8c-0.6-0.2-1-0.7-1.1-1.3l-0.2-1.9c-0.1-1.5-0.6-2.9-1.4-4.2
			c-0.7-1-1.5-1.9-2.6-2.6c-0.9-0.6-2-1-3.1-1.3c-1.9-0.4-3.9-0.3-5.9,0.4l-1.5,0.5c-0.5,0.2-1.1,0-1.5-0.4L56-40.3
			c-2.8-2.9-4.6-3.7-8.4-3.7c-2.7,0-3.8,0.3-6.1,1.4c-2.1,1.1-4,3.8-5.2,7c-0.3,0.6-0.4,1.3-0.4,1.4c0,2.3-2.2,2.9-3.5,3.2
			c-1.3,0.3-2.5,0.7-3.6,1.3c-1.4,0.9-2.5,2-3,3.3c-0.4,0.9-0.5,1.5-0.5,3.1c0,1.4,0.2,2.9,0.7,4.3C26.8-16.9,28.4-15.1,31.2-14.3z
			 M25.5-14.4c-4,0-10.8,0-11.9-0.4c-3.1-0.8-6.3-3.5-7.8-6.6c-0.9-1.8-1.3-7.1,0-9.9c1.4-3,4.3-5.3,7.8-6.2c0.1,0,0.2,0,0.2-0.1
			c0-0.3,0.1-0.6,0.1-1c0.2-6,4.2-11.4,9.8-13.2c2.7-1,6.5-0.9,10,0.4c0.3-0.3,0.7-0.9,1.2-1.5c1.2-1.8,3.7-3.9,5.9-4.9
			c2.2-1.2,4.6-1.8,7.5-1.8c7.7,0,14.6,5,17.2,12.5c0.6,1.8,1.2,3.7,1.2,5.7c0,0.8-0.7,1.5-1.5,1.5s-1.5-0.7-1.5-1.5
			c0-1.5-0.4-2.8-1-4.7c-1-2.7-2.6-5.1-4.7-6.8c-2.7-2.2-6-3.6-9.6-3.6c-2.4,0-4.3,0.5-6.1,1.4c0,0-0.1,0-0.1,0
			c-1.7,0.8-3.9,2.6-4.8,3.9c0,0,0,0.1-0.1,0.1c-1.9,2.6-2.7,3.5-4.7,2.6c-2.8-1-5.8-1.2-7.9-0.4c-4.5,1.5-7.6,5.7-7.8,10.4
			c0,0.7-0.1,1.4-0.1,1.8l0,0.2c0,0.4-0.2,0.7-0.4,1c-0.4,0.4-1.1,0.8-2.1,1c-2.6,0.7-4.8,2.4-5.8,4.5c-0.9,1.9-0.6,6.2,0,7.2
			c1.1,2.3,3.6,4.4,5.9,5c0.8,0.2,6.2,0.3,11.1,0.3c0.8,0,1.5,0.7,1.5,1.5S26.3-14.4,25.5-14.4z"/>
	</g>
	<g id="Ultralight-S" transform="matrix(1 0 0 1 515.649 696)">
		<path d="M75.5-11.7c0,0-44.9-0.2-46.1-0.2c-3.9,0-8-5.6-8-11.4c0-1.9,0.2-2.9,0.7-4.1c1.2-3,4.3-5.4,8.3-6.2
			c1.1-0.3,1.4-0.5,1.4-0.5c0,0,0,0,0-0.1c0-0.5,0.2-1.4,0.5-2.3c1.3-3.8,3.7-6.8,6.3-8.3c2.7-1.4,4.2-1.7,7.3-1.7
			c4.5,0,7,1.1,10.2,4.4l1.2,1.1c3.8-1.3,8.7-1.1,11.9,1c3,1.9,4.8,5.1,5.1,8.6l0.1,1.1l0.7,0.2c0,0,0,0,0,0
			c4.6,1.6,6.8,5.1,6.4,10.3c-0.4,3.5-2,6.2-4.4,7.4C77.3-12.3,76-11.7,75.5-11.7z M29.8-14.1C31-14,37.2-14,53.4-14h13.9h8.2
			l0.7-0.3c1.7-0.8,2.9-2.9,3.2-5.5c0.3-4.1-1.2-6.6-4.8-7.9l-1.4-0.4c-0.4-0.1-0.8-0.5-0.8-1l-0.2-1.9c-0.1-1.3-0.5-2.5-1.1-3.6
			c-0.7-1.3-1.7-2.4-3-3.3c-2.6-1.7-6-2-9.2-0.9l-1.5,0.5c-0.4,0.1-0.8,0-1.1-0.3l-1.7-1.7c-2.8-2.9-4.7-3.8-8.6-3.8
			c-2.8,0-3.9,0.3-6.2,1.5c-1.3,0.7-2.5,2-3.6,3.5c-0.7,1.1-1.3,2.3-1.7,3.6c-0.3,0.7-0.4,1.4-0.4,1.5c0,2-1.9,2.5-3.2,2.8
			c-3.3,0.7-5.8,2.5-6.7,4.8c-0.4,0.9-0.5,1.5-0.5,3.2c0,1.6,0.2,2.9,0.7,4.1C25.2-16.6,27.1-14.9,29.8-14.1z M24.2-15
			c-3.1,0-10.5,0-11.6-0.3c-3-0.8-6-3.3-7.5-6.3c0,0,0-0.1,0-0.1c-0.7-1.9-1.3-6.9,0.1-9.4c1.3-2.8,4.1-5,7.5-5.9
			c0.2,0,0.4-0.1,0.5-0.2c0-0.3,0.1-0.8,0.1-1.2c0.2-5.7,4-10.9,9.4-12.7c2.7-1,6.3-0.8,9.7,0.5c0,0,0.1,0,0.1,0c0,0,0,0,0,0
			c0.3-0.3,0.8-1,1.4-1.7c1.1-1.6,3.6-3.7,5.7-4.7c2.1-1.2,4.4-1.7,7.2-1.7c7.4,0,14.1,4.8,16.6,12.1c0.6,1.7,1.1,3.5,1.1,5.5
			c0,0.6-0.5,1.1-1.1,1.1s-1.1-0.5-1.1-1.1c0-1.5-0.4-2.9-1-4.8c-2.2-6.3-8-10.5-14.5-10.5c-2.4,0-4.4,0.5-6.2,1.4
			c-1.8,0.9-4,2.7-4.9,4c-2,2.6-2.5,3.3-4.2,2.5c-2.8-1.1-5.9-1.2-8.1-0.4c-4.5,1.5-7.8,5.8-7.9,10.6c0,0.7-0.1,1.4-0.1,1.7
			c0,0.1,0,0.2,0,0.2c0,0.3-0.1,0.5-0.3,0.8c-0.3,0.3-1,0.7-1.8,0.9c-2.7,0.7-4.9,2.4-6,4.7c-0.9,1.7-0.6,5.8,0,7.6
			c1.1,2.3,3.7,4.4,6,5c0.7,0.2,6.2,0.3,11,0.3c0.6,0,1.1,0.5,1.1,1.1C25.3-15.5,24.8-15,24.2-15z"/>
	</g>
</g>
</svg>
