<?xml version="1.0" encoding="UTF-8" standalone="no"?>
<!DOCTYPE svg PUBLIC "-//W3C//DTD SVG 1.1//EN" "http://www.w3.org/Graphics/SVG/1.1/DTD/svg11.dtd">
<svg width="100%" height="100%" viewBox="0 0 112 112" version="1.1" xmlns="http://www.w3.org/2000/svg" xmlns:xlink="http://www.w3.org/1999/xlink" xml:space="preserve" xmlns:serif="http://www.serif.com/" style="fill-rule:evenodd;clip-rule:evenodd;">
    <g id="Thin-M" transform="matrix(0.83253,0,0,0.83253,-10.1241,82.9703)">
        <path d="M23.716,7.544L116.967,7.544C124.033,7.544 128.223,3.353 128.223,-3.713L128.223,-44.074L124.582,-40.433L124.582,-3.668C124.582,1.34 121.848,4.062 116.891,4.062L23.793,4.062C18.836,4.062 16.102,1.34 16.102,-3.668L16.102,-41.954C16.102,-46.961 18.836,-49.695 23.793,-49.695L102.859,-49.695L106.291,-53.115L23.716,-53.115C16.701,-53.115 12.461,-48.924 12.461,-41.858L12.461,-3.713C12.461,3.353 16.701,7.544 23.716,7.544ZM90.139,-20.615L98.62,-25.089L139.456,-65.824L134.556,-70.75L93.733,-30.066L89.199,-21.656C88.863,-20.985 89.532,-20.28 90.139,-20.615ZM142.451,-68.82L145.637,-71.928C147.381,-73.635 147.431,-75.246 145.838,-76.839L145.423,-77.204C144.066,-78.572 142.242,-78.436 140.723,-76.905L137.514,-73.82L142.451,-68.82ZM35.947,-17.238C38.991,-17.238 41.488,-19.697 41.488,-22.842C41.488,-25.936 38.991,-28.383 35.947,-28.383C32.802,-28.383 30.243,-25.936 30.243,-22.842C30.243,-19.697 32.802,-17.238 35.947,-17.238ZM55.129,-17.238C58.173,-17.238 60.67,-19.697 60.67,-22.842C60.67,-25.936 58.173,-28.383 55.129,-28.383C51.984,-28.383 49.487,-25.936 49.487,-22.842C49.487,-19.697 51.984,-17.238 55.129,-17.238ZM74.322,-17.238C77.366,-17.238 79.914,-19.697 79.914,-22.842C79.914,-25.936 77.366,-28.383 74.322,-28.383C71.178,-28.383 68.668,-25.936 68.668,-22.842C68.668,-19.697 71.178,-17.238 74.322,-17.238Z" style="fill:white;fill-rule:nonzero;stroke:white;stroke-width:0.5px;"/>
    </g>
</svg>
