<?xml version="1.0" encoding="UTF-8" standalone="no"?>
<svg
   width="112.5"
   height="112.5"
   viewBox="0 0 112.5 112.5"
   version="1.1"
   xml:space="preserve"
   style="clip-rule:evenodd;fill-rule:evenodd;stroke-linejoin:round;stroke-miterlimit:2"
   id="svg6"
   sodipodi:docname="keepassium-logo.svg"
   inkscape:version="1.3.2 (091e20e, 2023-11-25)"
   xmlns:inkscape="http://www.inkscape.org/namespaces/inkscape"
   xmlns:sodipodi="http://sodipodi.sourceforge.net/DTD/sodipodi-0.dtd"
   xmlns="http://www.w3.org/2000/svg"
   xmlns:svg="http://www.w3.org/2000/svg"><defs
   id="defs6" /><sodipodi:namedview
   id="namedview6"
   pagecolor="#ffffff"
   bordercolor="#000000"
   borderopacity="0.25"
   inkscape:showpageshadow="2"
   inkscape:pageopacity="0.0"
   inkscape:pagecheckerboard="0"
   inkscape:deskcolor="#d1d1d1"
   inkscape:zoom="2.8361759"
   inkscape:cx="49.185948"
   inkscape:cy="69.283432"
   inkscape:window-width="1392"
   inkscape:window-height="1212"
   inkscape:window-x="896"
   inkscape:window-y="108"
   inkscape:window-maximized="0"
   inkscape:current-layer="svg6" />
    <g
   transform="matrix(0.20169812,0,0,0.20169812,-52.332864,-54.582632)"
   id="g6">
        <g
   id="g5">
            <g
   transform="translate(554.474,583.969)"
   id="g1">
                <path
   d="m 0,-72.642 c -2.725,5.144 -5.751,16.646 -7.567,34.806 16.042,-11.802 25.727,-21.793 28.453,-26.333 3.631,-6.355 6.96,-8.777 12.105,-8.777 7.266,0 12.713,5.751 12.713,12.713 0,7.87 -5.145,12.106 -14.225,12.713 -9.384,0.604 -21.491,3.933 -37.835,11.199 15.739,7.265 27.845,10.595 37.229,11.198 9.384,0.304 14.831,4.54 14.831,12.713 0,6.962 -5.447,12.713 -12.713,12.713 -5.145,0 -8.776,-2.725 -12.105,-8.173 -3.331,-5.447 -11.806,-14.527 -28.453,-26.637 2.421,18.768 5.145,30.27 7.87,35.414 2.421,4.54 3.934,8.173 3.934,10.898 0,6.962 -5.448,12.41 -12.713,12.41 -6.961,0 -12.409,-5.448 -12.409,-12.41 0,-2.725 1.817,-6.658 3.935,-11.198 2.118,-4.543 5.448,-14.832 7.567,-35.114 -14.831,10.899 -23.305,19.072 -27.544,25.426 -3.934,5.751 -6.962,9.384 -13.015,9.384 -6.962,0 -12.713,-5.751 -12.713,-12.713 0,-8.173 4.844,-12.106 14.226,-12.713 11.502,-0.907 22.399,-4.236 38.137,-11.198 -15.738,-7.266 -26.937,-10.291 -38.137,-11.199 -10.291,-0.907 -14.226,-6.358 -14.226,-12.713 0,-6.962 5.751,-12.713 12.713,-12.713 5.146,0 9.081,3.026 12.41,8.777 3.027,5.147 12.409,14.531 28.149,26.333 -2.422,-19.068 -5.145,-30.873 -7.87,-35.714 -2.421,-4.843 -3.632,-8.476 -3.632,-10.898 0,-6.962 5.448,-12.409 12.409,-12.409 7.265,0 12.713,5.447 12.713,12.409 0,2.725 -1.513,6.659 -4.237,11.806"
   style="fill:#0aa3ea;fill-rule:nonzero"
   id="path1" />
            </g>
            <g
   transform="translate(435.014,377.994)"
   id="g2">
                <path
   d="m 0,215.068 c -12.9,-11.001 -25.019,-20.668 -36.371,-31.163 -20.025,-18.514 -38.81,-38.333 -51.603,-62.661 -5.717,-10.87 -10.167,-22.83 -12.775,-34.822 -4.913,-22.593 5.602,-41.554 26.798,-51.042 14.512,-6.497 30.071,-8.693 45.722,-7.499 15.493,1.181 30.899,3.794 46.264,6.276 10.361,1.674 9.727,1.822 13.949,-8.338 7.326,-17.627 14.685,-35.322 23.536,-52.2 4.434,-8.457 11.401,-16.047 18.585,-22.514 20.276,-18.251 44.613,-18.128 65.032,0.097 5.945,5.306 11.076,8.156 19.713,7.32 14.052,-1.361 26.365,8.884 30.875,22.878 4.34,13.465 -0.854,28.506 -12.604,36.501 -11.908,8.101 -27.338,7.517 -38.643,-1.464 -11.092,-8.813 -15.155,-23.973 -10.18,-37.381 1.609,-4.334 5.24,-10.232 3.67,-12.914 -2.659,-4.547 -8.386,-7.733 -13.411,-10.373 -11.147,-5.857 -22.55,-3.843 -30.955,4.399 -9.393,9.209 -18.331,19.637 -24.642,31.091 -19.439,35.282 -27.285,74.217 -31.849,113.776 -6.319,54.764 -5.375,109.41 4.577,163.773 0.65,3.551 2.908,7.693 -2.778,10.147 -7.55,3.259 -10.739,2.297 -11.944,-6.036 -2.929,-20.27 -6.362,-40.553 -7.663,-60.955 -3.157,-49.523 -1.476,-98.886 8.887,-147.66 2.837,-13.354 2.805,-13.329 -11.066,-16.099 -21.942,-4.383 -43.916,-7.554 -66.263,-2.886 -26.648,5.566 -36.722,22.101 -28.847,48.038 4.999,16.462 13.795,31.147 25.099,43.749 15.434,17.206 31.549,33.971 48.829,49.278 8.634,7.65 13.665,14.643 10.058,28.684"
   style="fill:#0aa3ea;fill-rule:nonzero"
   id="path2" />
            </g>
            <g
   transform="translate(678.237,775.033)"
   id="g3">
                <path
   d="m 0,-206.552 c -13.896,10.851 -27.511,22.258 -41.907,32.579 -45.54,32.65 -94.769,58.287 -147.888,76.342 -9.752,3.314 -9.796,3.504 -6.962,12.85 5.979,19.713 13.683,38.702 25.984,55.389 22.372,30.353 46.374,30.138 68.582,-0.533 18.716,-25.85 27.011,-55.916 34.188,-86.37 1.226,-5.199 2.192,-10.472 3.004,-15.752 2.575,-16.749 2.496,-15.145 19.083,-23.228 -2.055,12.69 -3.511,24.261 -5.854,35.651 -6.575,31.976 -15.246,63.342 -33.063,91.153 -5.698,8.895 -12.692,17.387 -20.602,24.351 -19.088,16.808 -42.309,16.638 -62.071,0.565 -14.167,-11.522 -23.523,-26.716 -30.897,-43.074 -4.932,-10.943 -8.941,-22.317 -13.037,-33.616 -3.611,-9.961 -3.36,-9.744 -14.113,-7.827 -12.703,2.265 -25.466,4.314 -38.278,5.819 -15.669,1.84 -31.231,0.337 -46.263,-4.418 -26.912,-8.514 -39.109,-29.131 -33.398,-56.852 1.611,-7.819 1.257,-13.82 -3.647,-20.893 -7.956,-11.478 -5.146,-28.462 4.303,-38.366 9.836,-10.312 26.728,-12.952 39.473,-6.168 12.394,6.595 18.786,20.492 16.174,35.164 -2.431,13.646 -14.295,24.359 -28.685,25.899 -12.166,1.302 -13.673,2.931 -13.936,15.052 -0.309,14.231 6.072,24.279 20.126,29.999 17.455,7.104 35.737,6.774 54.031,4.489 49.361,-6.165 94.674,-24.384 138.395,-47.097 35.32,-18.348 68.282,-40.307 98.8,-65.889 9.4,-7.88 9.378,-7.907 18.458,4.781"
   style="fill:#0aa3ea;fill-rule:nonzero"
   id="path3" />
            </g>
            <g
   transform="translate(686.727,586.28)"
   id="g4">
                <path
   d="m 0,-47.801 c 18.247,-18.676 34.092,-38.212 43.834,-62.134 0.838,-2.058 1.493,-4.202 2.094,-6.345 6.803,-24.268 -2.29,-40.057 -26.754,-46.167 -20.385,-5.092 -40.929,-3.412 -61.002,0.908 -19.521,4.2 -38.897,9.627 -57.737,16.224 -10.683,3.742 -19.421,4.687 -28.753,-4.627 2.284,-1.288 4.185,-2.658 6.297,-3.505 33.201,-13.305 67.184,-23.512 103.054,-26.604 16.189,-1.395 32.111,-0.485 47.567,4.478 27.592,8.861 39.694,31.189 32.918,59.697 -4.209,17.703 -13.131,33.071 -23.828,47.43 -6.64,8.916 -13.804,17.508 -21.397,25.623 -4.334,4.631 -4.049,7.291 -0.041,12.105 10.805,12.98 21.791,26.008 30.775,40.235 6.541,10.358 11.472,22.275 14.56,34.162 7.006,26.972 -5.534,49.052 -31.761,57.865 -7.364,2.475 -12.892,5.002 -16.597,13.092 -6.034,13.182 -21.424,19.009 -34.943,15.629 C -36.9,126.468 -46.611,114.822 -47.047,99.882 -47.48,85.001 -38.902,72.228 -25.546,67.866 -10.94,63.097 3.476,67.823 12.201,80.24 19.176,90.166 19.197,90.172 29.64,85.25 42.989,78.958 48.689,69.23 47.804,54.156 46.938,39.398 40.315,26.75 32.69,14.643 15.38,-12.843 -7.641,-35.206 -32.567,-55.564 c -47.669,-38.93 -100.614,-68.823 -158.251,-90.383 -12.704,-4.751 -12.744,-4.644 -6.078,-18.061 73.355,25.059 138.592,63.989 196.896,116.207"
   style="fill:#0aa3ea;fill-rule:nonzero"
   id="path4" />
            </g>
        </g>
    </g>
</svg>
