<?xml version="1.0" encoding="utf-8"?>
<!-- Generator: Adobe Illustrator 24.1.1, SVG Export Plug-In . SVG Version: 6.00 Build 0)  -->
<svg version="1.1" id="Layer_1" xmlns="http://www.w3.org/2000/svg" xmlns:xlink="http://www.w3.org/1999/xlink" x="0px" y="0px"
	 viewBox="0 0 3300 2200" style="enable-background:new 0 0 3300 2200;" xml:space="preserve">
<style type="text/css">
	.st0{fill:#FFFFFF;}
	.st1{fill:none;stroke:#000000;stroke-width:0.5;}
	.st2{font-family:'Arial-BoldMT';}
	.st3{font-size:13px;}
	.st4{font-family:'ArialMT';}
	.st5{fill:none;stroke:#00AEEF;stroke-width:0.5;}
	.st6{fill:#27AAE1;}
	.st7{fill:none;stroke:#27AAE1;stroke-width:0.5;}
</style>
<g id="Notes">
	<rect id="artboard" class="st0" width="3300" height="2200"/>
	<line class="st1" x1="263" y1="292" x2="3036" y2="292"/>
	<text transform="matrix(1 0 0 1 263 322)" class="st2 st3">Weight/Scale Variations</text>
	<text transform="matrix(1 0 0 1 534.0632 322)" class="st4 st3">Ultralight</text>
	<text transform="matrix(1 0 0 1 843.7775 322)" class="st4 st3">Thin</text>
	<text transform="matrix(1 0 0 1 1139.035 322)" class="st4 st3">Light</text>
	<text transform="matrix(1 0 0 1 1427.0773 322)" class="st4 st3">Regular</text>
	<text transform="matrix(1 0 0 1 1723.4419 322)" class="st4 st3">Medium</text>
	<text transform="matrix(1 0 0 1 2016.1719 322)" class="st4 st3">Semibold</text>
	<text transform="matrix(1 0 0 1 2326.9705 322)" class="st4 st3">Bold</text>
	<text transform="matrix(1 0 0 1 2618.2659 322)" class="st4 st3">Heavy</text>
	<text transform="matrix(1 0 0 1 2917.5054 322)" class="st4 st3">Black</text>
	<line class="st1" x1="263" y1="1903" x2="3036" y2="1903"/>
	<g transform="matrix(1 0 0 1 263 1933)">
		<path d="M9.2,0.8c4.3,0,7.9-3.6,7.9-7.9S13.5-15,9.2-15s-7.9,3.6-7.9,7.9C1.4-2.7,5,0.8,9.2,0.8z M9.2-0.7C5.7-0.7,2.9-3.5,2.9-7
			c0-3.6,2.8-6.4,6.4-6.4s6.4,2.8,6.4,6.4C15.6-3.5,12.8-0.7,9.2-0.7z M5.7-7.1c0,0.4,0.3,0.7,0.8,0.7h2.1v2.1
			c0,0.4,0.3,0.7,0.7,0.7S10-3.9,10-4.3v-2.1h2.1c0.4,0,0.7-0.3,0.7-0.7c0-0.4-0.3-0.7-0.7-0.7H10v-2.1c0-0.4-0.3-0.8-0.7-0.8
			s-0.7,0.3-0.7,0.8v2.1H6.4C6-7.8,5.7-7.5,5.7-7.1z"/>
	</g>
	<g transform="matrix(1 0 0 1 281.867 1933)">
		<path d="M11.7,2.9c5.4,0,10-4.5,10-10c0-5.4-4.5-10-10-10c-5.4,0-10,4.5-10,10C1.7-1.6,6.3,2.9,11.7,2.9z M11.7,1.3
			C7.1,1.3,3.4-2.4,3.4-7s3.7-8.3,8.3-8.3S20-11.7,20-7.1C20-2.4,16.3,1.3,11.7,1.3z M7.2-7.1c0,0.5,0.3,0.8,0.8,0.8h2.9v2.9
			c0,0.5,0.3,0.8,0.8,0.8s0.8-0.3,0.8-0.8v-2.9h2.9c0.5,0,0.8-0.3,0.8-0.8s-0.3-0.8-0.8-0.8h-2.9v-2.9c0-0.5-0.3-0.8-0.8-0.8
			s-0.8,0.3-0.8,0.8v2.9H8C7.5-7.9,7.2-7.5,7.2-7.1z"/>
	</g>
	<g transform="matrix(1 0 0 1 305.646 1933)">
		<path d="M15,5.7c7,0,12.7-5.8,12.7-12.7c0-7-5.8-12.7-12.7-12.7C8-19.8,2.3-14,2.3-7.1C2.3-0.1,8,5.7,15,5.7z M15,3.8
			C8.9,3.8,4.1-1,4.1-7S8.9-17.9,15-17.9c6,0,10.9,4.9,10.9,10.9S21,3.8,15,3.8z M9.2-7.1c0,0.5,0.4,0.9,0.9,0.9H14v4
			c0,0.5,0.4,0.9,0.9,0.9s0.9-0.4,0.9-0.9v-4h4c0.5,0,0.9-0.4,0.9-0.9S20.3-8,19.8-8h-4v-3.9c0-0.5-0.4-0.9-0.9-0.9S14-12.4,14-11.9
			V-8h-3.9C9.6-8,9.2-7.6,9.2-7.1z"/>
	</g>
	<text transform="matrix(1 0 0 1 263 1953)" class="st2 st3">Design Variations</text>
	<text transform="matrix(1 0 0 1 263 1971)" class="st4 st3">Symbols are supported in up to nine weights and three scales.</text>
	<text transform="matrix(1 0 0 1 263 1989)" class="st4 st3">For optimal layout with text and other symbols, vertically align</text>
	<text transform="matrix(1 0 0 1 263 2007)" class="st4 st3">symbols with the adjacent text.</text>
	<line class="st5" x1="776" y1="1919" x2="776" y2="1933"/>
	<g transform="matrix(1 0 0 1 776 1933)">
		<path d="M3.3,0.2c0.5,0,0.8-0.2,1-0.7L5.5-4h5.8l1.3,3.4C12.7,0,13,0.2,13.5,0.2s0.9-0.3,0.9-0.8c0-0.2,0-0.3-0.1-0.5L9.7-13.4
			C9.4-14,9-14.3,8.4-14.3s-1,0.3-1.2,0.9L2.6-1.2C2.5-1,2.5-0.8,2.5-0.6C2.5-0.1,2.8,0.2,3.3,0.2z M6-5.5l2.4-6.6l0,0l2.4,6.6
			C10.8-5.5,6-5.5,6-5.5z"/>
	</g>
	<line class="st5" x1="793.2" y1="1919" x2="793.2" y2="1933"/>
	<text transform="matrix(1 0 0 1 776 1953)" class="st2 st3">Margins</text>
	<text transform="matrix(1 0 0 1 776 1971)" class="st4 st3">Leading and trailing margins on the left and right side of each symbol</text>
	<text transform="matrix(1 0 0 1 776 1989)" class="st4 st3">can be adjusted by modifying the x-location of the margin guidelines.</text>
	<text transform="matrix(1 0 0 1 776 2007)" class="st4 st3">Modifications are automatically applied proportionally to all</text>
	<text transform="matrix(1 0 0 1 776 2025)" class="st4 st3">scales and weights.</text>
	<g transform="matrix(1 0 0 1 1289 1933)">
		<path d="M2.8,1.9l1.7,1.7c0.9,0.9,1.8,0.8,2.8-0.2L18-8.4l-1-1L6.4,2.3C6,2.7,5.7,2.8,5.2,2.3L4.1,1.1C3.6,0.7,3.7,0.3,4.1,0
			l11.5-10.8l-1-1L3-0.9C2.1,0,2,1,2.8,1.9z M9.3-16.3c-0.4,0.4-0.4,1-0.2,1.4s0.7,0.6,1.3,0.4c1.5-0.3,3-0.4,4.4,0.5l-0.6,1.5
			c-0.3,0.8-0.2,1.4,0.4,2l2.3,2.3c0.5,0.5,0.9,0.5,1.5,0.4l1-0.2l0.7,0.7v0.6c0,0.5,0.1,0.9,0.6,1.4l0.8,0.7c0.5,0.5,1.1,0.5,1.6,0
			L26-7.5C26.5-8,26.4-8.6,26-9l-1-0.9c-0.5-0.5-0.9-0.6-1.3-0.6h-0.6l-0.6-0.6l0.2-1.1c0.1-0.6,0-1-0.6-1.6L19.9-16
			C16.6-19.3,12.1-19.2,9.3-16.3z M10.8-16c2.4-1.8,5.7-1.5,7.9,0.8l2.4,2.4c0.2,0.2,0.3,0.4,0.2,0.8L21-10.5L22.5-9l1-0.1
			c0.3,0,0.3,0,0.5,0.2l0.6,0.6l-2.4,2.4l-0.6-0.6c-0.2-0.2-0.2-0.3-0.2-0.5l0.1-1L20-9.5l-1.5,0.3c-0.3,0.1-0.5,0-0.7-0.2l-2-2
			c-0.3-0.2-0.3-0.4-0.1-0.8l0.9-2.1C15-15.8,13-16.4,11-15.8C10.7-15.7,10.6-15.9,10.8-16z"/>
	</g>
	<text transform="matrix(1 0 0 1 1289 1953)" class="st2 st3">Exporting</text>
	<text transform="matrix(1 0 0 1 1289 1971)" class="st4 st3">Symbols should be outlined when exporting to ensure the</text>
	<text transform="matrix(1 0 0 1 1289 1989)" class="st4 st3">design is preserved when submitting to Xcode.</text>
	<text id="template-version" transform="matrix(1 0 0 1 2952.4204 1933)" class="st4 st3">Template v.4.0</text>
	<text transform="matrix(1 0 0 1 2865.4575 1951)" class="st4 st3">Requires Xcode 14 or greater</text>
	<text id="descriptive-name" transform="matrix(1 0 0 1 2861.8579 1969)" class="st4 st3">Generated from synologydrive</text>
	<text transform="matrix(1 0 0 1 2912.4175 1987)" class="st4 st3">Typeset at 100 points</text>
	<text transform="matrix(1 0 0 1 263 726)" class="st4 st3">Small</text>
	<text transform="matrix(1 0 0 1 263 1156)" class="st4 st3">Medium</text>
	<text transform="matrix(1 0 0 1 263 1586)" class="st4 st3">Large</text>
</g>
<g id="Guides">
	<g id="H-reference" transform="matrix(1 0 0 1 339 696)">
		<path class="st6" d="M1,0h2.6l25.7-67.1H30v-3.3h-1.9L1,0z M11.7-24.5H47l-0.8-2.2H12.4L11.7-24.5z M55.1,0h2.6L30.6-70.5h-1.2
			v3.3L55.1,0z"/>
	</g>
	<line id="Baseline-S" class="st7" x1="263" y1="696" x2="3036" y2="696"/>
	<line id="Capline-S" class="st7" x1="263" y1="625.5" x2="3036" y2="625.5"/>
	<g id="H-reference_1_" transform="matrix(1 0 0 1 339 1126)">
		<path class="st6" d="M1,0h2.6l25.7-67.1H30v-3.3h-1.9L1,0z M11.7-24.5H47l-0.8-2.2H12.4L11.7-24.5z M55.1,0h2.6L30.6-70.5h-1.2
			v3.3L55.1,0z"/>
	</g>
	<line id="Baseline-M" class="st7" x1="263" y1="1126" x2="3036" y2="1126"/>
	<line id="Capline-M" class="st7" x1="263" y1="1055.5" x2="3036" y2="1055.5"/>
	<g id="H-reference_2_" transform="matrix(1 0 0 1 339 1556)">
		<path class="st6" d="M1,0h2.6l25.7-67.1H30v-3.3h-1.9L1,0z M11.7-24.5H47l-0.8-2.2H12.4L11.7-24.5z M55.1,0h2.6L30.6-70.5h-1.2
			v3.3L55.1,0z"/>
	</g>
	<line id="Baseline-L" class="st7" x1="263" y1="1556" x2="3036" y2="1556"/>
	<line id="Capline-L" class="st7" x1="263" y1="1485.5" x2="3036" y2="1485.5"/>
	<line id="left-margin-Regular-M" class="st5" x1="1391.3" y1="1030.8" x2="1391.3" y2="1150.1"/>
	<line id="right-margin-Regular-M" class="st5" x1="1508.4" y1="1030.8" x2="1508.4" y2="1150.1"/>
</g>
<g id="Symbols">
	<g id="Black-L" transform="matrix(1 0 0 1 2854.19 1556)">
		<path d="M38.9,27.3l30.5-52.7c3.7-6.1,3.7-13.5,0-19.6L38.9-97.7c-2.1-3.6-6.6-4.8-10.2-2.7c-3.6,2.1-4.8,6.6-2.7,10.2l30.6,52.8
			c0,0,0.1,0.1,0.1,0.1c0.9,1.4,0.9,2.9,0,4.3c0,0-30.7,52.9-30.7,52.9C24,23.4,25.2,28,28.8,30C29.9,30.7,37.5,29.7,38.9,27.3z
			 M112.4,25c0-0.1,0.1-0.1,0.1-0.2l30.2-52.3c2.9-4.9,2.8-10.7,0-15.5l-30.1-52.3c-2.8-4.9-7.9-7.8-13.5-7.8H37.2
			c-6.1,0-11.8,3.7-14.3,9.4c0,0.1-0.1,0.2-0.1,0.2l-7.8,19.1c-1.8,4.5-1.5,9.7,0.9,13.8l14.1,25c0.2,0.3,0.1,0.3,0.1,0.4
			c0,0.1-0.1,0.1-0.1,0.2L15.6-10.1c0,0.1-0.1,0.2-0.1,0.2C13.2-5.6,12.9-1,14.5,3.4c0,0.1,0.1,0.2,0.1,0.3l8,19
			c2.4,5.8,8.2,9.6,14.5,9.6h61.6c0.3,0,0.6,0,0.9,0C104.8,32.4,109.6,29.7,112.4,25z M106.1,21.2L106.1,21.2L106.1,21.2z M28.6-2.9
			l14.2-24.7c2.9-4.8,2.9-10.6,0.1-15.4L28.8-68c-0.2-0.3-0.1-0.6-0.1-0.7l7.8-18.9c0.2-0.3,0.5-0.6,0.8-0.6H99
			c0.3,0,0.4,0.1,0.6,0.3l30.2,52.4c0,0.1,0.1,0.1,0.1,0.2c0,0-30.2,52.6-30.2,52.6c-0.1,0.1-0.1,0.2-0.2,0.2c0,0,0,0,0,0
			c-0.2,0-0.4,0-0.6,0H37.1c-0.3,0-0.6-0.2-0.7-0.4L28.5-1.8C28.4-2.1,28.4-2.4,28.6-2.9z M97.5-3.1l14-24.3
			c2.9-4.8,2.9-10.6,0-15.5L97.5-67.2C94.7-72.1,89.7-75,84-75H47.8c-4.1,0-7.4,3.3-7.4,7.4c0,4.1,3.3,7.4,7.4,7.4H84
			c0.3,0,0.4,0.1,0.6,0.3l14.1,24.4c0.2,0.3,0.1,0.3,0.1,0.4c0,0.1-0.1,0.1-0.1,0.2L84.6-10.6c-0.2,0.3-0.3,0.3-0.6,0.3H47.8
			c-4.1,0-4.1,14.9,0,14.9H84C89.7,4.7,94.7,1.8,97.5-3.1z"/>
	</g>
	<g id="Heavy-L" transform="matrix(1 0 0 1 2558.42 1556)">
		<path d="M37.7,26.4l30.3-52.2c3.5-5.9,3.5-12.9,0-18.8L37.7-96.8c-1.9-3.2-6-4.3-9.2-2.4c-3.2,1.9-4.3,6-2.4,9.2l30.3,52.3
			c0,0,0,0.1,0.1,0.1c1,1.6,1,3.3,0,5c0,0-30.4,52.4-30.4,52.4c-1.9,3.2-0.8,7.3,2.4,9.2C29.6,29.5,36.4,28.6,37.7,26.4z
			 M110.6,24.1c0,0,0.1-0.1,0.1-0.1l29.9-51.9c2.7-4.7,2.7-10.2,0-14.7l-29.9-51.8c-2.7-4.6-7.4-7.4-12.8-7.4H36.7
			c-5.8,0-11.2,3.5-13.6,8.9c0,0.1-0.1,0.1-0.1,0.2l-7.8,18.9c-1.8,4.3-1.4,9.2,0.9,13.1l14,24.7c0.4,0.6,0.2,0.9,0.1,1.1
			c0,0-0.1,0.1-0.1,0.2L15.9-10c0,0.1-0.1,0.1-0.1,0.2c-2.2,4.1-2.5,8.4-0.9,12.7c0,0.1,0.1,0.2,0.1,0.3L22.9,22
			c2.2,5.5,7.7,9.1,13.7,9.1h61c0.3,0,0.6,0,0.9,0C103.5,31.1,107.9,28.6,110.6,24.1z M104.9,20.6L104.9,20.6L104.9,20.6z M27.6-3.5
			L41.7-28c2.7-4.5,2.7-10,0.1-14.6l-14-24.8c-0.3-0.6-0.2-1.1-0.1-1.3l7.7-18.7c0.3-0.6,0.8-1,1.4-1H98c0.6,0,0.9,0.2,1.2,0.7
			L129-35.8c0,0,0.1,0.1,0.1,0.1c0.1,0.1,0.3,0.4-0.1,1.1L99.2,17.2c-0.4,0.6-0.7,0.5-0.8,0.5c-0.2,0-0.4,0-0.6,0H36.6
			c-0.6,0-1.1-0.4-1.3-0.8L27.4-1.9C27.2-2.4,27.2-2.8,27.6-3.5z M95.9-3.7l13.9-24.1c2.7-4.5,2.7-10,0-14.7L95.8-66.6
			c-2.7-4.6-7.4-7.4-12.8-7.4H47.2c-3.7,0-6.7,3-6.7,6.7c0,3.7,3,6.7,6.7,6.7h35.9c0.6,0,0.9,0.2,1.2,0.7l13.9,24.1
			c0.4,0.6,0.2,0.9,0.1,1.1c0,0-0.1,0.1-0.1,0.1L84.2-10.5C84-10,83.6-9.8,83.1-9.8H47.2c-3.7,0-3.7,13.4,0,13.4h35.9
			C88.4,3.6,93.2,0.9,95.9-3.7z"/>
	</g>
	<g id="Bold-L" transform="matrix(1 0 0 1 2262.89 1556)">
		<path d="M36.5,25.5l29.9-51.7c3.4-5.6,3.4-12.4,0.1-17.9l-30-51.8c-1.7-2.9-5.3-3.8-8.2-2.2c-2.9,1.7-3.8,5.3-2.2,8.2L56.2-38
			c1.1,1.8,1.1,3.8-0.1,5.7l-30,51.8c-1.7,2.9-0.7,6.5,2.2,8.2c0.9,0.5,2,0.8,3,0.8C33.3,28.5,35.3,27.4,36.5,25.5z M108.6,23.2
			c0,0,0.1-0.1,0.1-0.1l29.6-51.4c2.6-4.4,2.5-9.6,0-13.9l-29.6-51.3c-2.5-4.4-7-7-12.1-7H35.9c-5.5,0-10.6,3.3-12.9,8.4
			c0,0.1-0.1,0.1-0.1,0.2l-7.7,18.7c-1.7,4-1.3,8.7,0.9,12.4L30-36.2c0.4,0.6,0.4,1.2,0.1,1.7c0,0-0.1,0.1-0.1,0.1L15.9-9.9
			c0,0.1-0.1,0.1-0.1,0.2c-2,3.9-2.3,8-0.9,12c0,0.1,0.1,0.2,0.1,0.2l7.8,18.7c2.1,5.2,7.3,8.6,13,8.6h60.5c0.3,0,0.6,0,0.9,0
			C101.9,29.8,106,27.5,108.6,23.2z M103.5,20.1L103.5,20.1L103.5,20.1z M26.3-4.1l14-24.3c2.6-4.3,2.6-9.4,0.1-13.8L26.5-66.7
			c-0.3-0.6-0.4-1.3-0.2-1.9L34-87.2c0.4-0.8,1.2-1.3,2-1.3h60.7c0.8,0,1.3,0.3,1.7,1l29.6,51.4c0,0,0.1,0.1,0.1,0.1
			c0.3,0.5,0.3,1.1-0.1,1.7L98.4,17.1c-0.6,0.9-1,0.9-1.4,0.8c-0.2,0-0.3,0-0.5,0H35.8c-0.8,0-1.6-0.5-1.9-1.2L26.1-2
			C25.9-2.6,25.8-3.2,26.3-4.1z M94-4.4l13.8-23.8c2.6-4.3,2.6-9.5,0-13.9L93.9-66c-2.5-4.4-7-7-12.1-7H46.3c-3.3,0-6,2.7-6,6
			c0,3.3,2.7,6,6,6h35.6c0.8,0,1.3,0.3,1.7,1l13.8,23.9c0.4,0.6,0.4,1.2,0.1,1.7c0,0-0.1,0.1-0.1,0.1L83.6-10.4
			c-0.4,0.7-0.9,1-1.7,1H46.3c-3.3,0-3.3,12,0,12h35.6C86.9,2.6,91.4,0,94-4.4z"/>
	</g>
	<g id="Semibold-L" transform="matrix(1 0 0 1 1966.99 1556)">
		<path d="M35.2,24.6l29.7-51.2c3.3-5.4,3.3-11.8,0.1-17.1L35.2-95c-1.5-2.5-4.7-3.4-7.2-1.9c-2.5,1.5-3.4,4.7-1.9,7.2l29.8,51.4
			c1.2,2,1.2,4.2-0.1,6.3L26.1,19.3c-1.5,2.5-0.6,5.7,1.9,7.2c0.8,0.5,1.7,0.7,2.6,0.7C32.5,27.2,34.3,26.3,35.2,24.6z M106.8,22.3
			c0,0,0-0.1,0.1-0.1l29.3-50.9c2.4-4.2,2.4-9,0-13.1l-29.3-50.8c-2.4-4.1-6.6-6.6-11.4-6.6H35.4c-5.2,0-10,3.1-12.2,7.9
			c0,0.1-0.1,0.1-0.1,0.2l-7.6,18.5c-1.6,3.8-1.2,8.2,0.8,11.7l13.7,24.2c0.3,0.5,0.7,1.4,0.1,2.4c0,0,0,0.1-0.1,0.1L16.1-9.9
			c0,0.1-0.1,0.1-0.1,0.2c-1.9,3.6-2.2,7.6-0.8,11.4c0,0.1,0.1,0.1,0.1,0.2L23,20.4c2,4.9,6.9,8.1,12.2,8.1h59.9c0.3,0,0.6,0,0.9,0
			C100.4,28.6,104.4,26.3,106.8,22.3z M102.3,19.6L102.3,19.6L102.3,19.6z M25.3-4.7l13.9-24c2.4-4,2.4-8.9,0.1-13L25.5-66.1
			c-0.4-0.7-0.5-1.7-0.2-2.4l7.6-18.4c0.5-1,1.5-1.7,2.5-1.7h60.1c1,0,1.8,0.4,2.3,1.3l29.3,50.9c0,0,0,0.1,0.1,0.1
			c0.6,1,0.2,1.9-0.1,2.4L97.8,16.9c-0.5,0.8-1.2,1.2-2,1.1c-0.2,0-0.3,0-0.5,0H35.3c-1,0-2.1-0.7-2.5-1.6L25.1-2
			C24.7-3,24.8-3.8,25.3-4.7z M92.3-5l13.6-23.6c2.5-4,2.5-8.9,0.1-13.1L92.3-65.4c-2.4-4.1-6.6-6.6-11.4-6.6H45.7
			c-2.9,0-5.3,2.4-5.3,5.3c0,2.9,2.4,5.3,5.3,5.3h35.2c1,0,1.8,0.4,2.3,1.3l13.7,23.7c0.3,0.5,0.7,1.4,0,2.5L83.2-10.3
			C82.7-9.4,81.9-9,80.9-9H45.7c-2.9,0-5.3,2.4-5.3,5.3s2.4,5.3,5.3,5.3h35.2C85.7,1.6,89.9-0.9,92.3-5z"/>
	</g>
	<g id="Medium-L" transform="matrix(1 0 0 1 1670.9 1556)">
		<path d="M34.7,23.7L64-27c3.1-5.1,3.1-11.2,0-16.2L34.7-94c-1.3-2.2-4-2.9-6.2-1.7c-2.2,1.3-2.9,4-1.7,6.2l29.5,50.9
			c1.3,2.2,1.3,4.7,0,6.9L26.8,19.1c-1.3,2.2-0.5,5,1.7,6.2c0.7,0.4,1.5,0.6,2.3,0.6C32.3,25.9,33.8,25.1,34.7,23.7z M105.4,21.4
			c0,0,0-0.1,0.1-0.1l8.1-14.1l20.9-36.3c2.3-3.9,2.3-8.6,0-12.2l-29-50.4c-2.2-3.9-6.2-6.2-10.7-6.2H35.3c-4.9,0-9.4,2.9-11.4,7.5
			c0,0.1,0,0.1-0.1,0.2l-7.6,18.4c-1.5,3.6-1.2,7.7,0.8,11l13.6,24c0.6,1,0.6,2.1,0,3.1l-13.8,24c0,0-0.1,0.1-0.1,0.1
			c-1.8,3.4-2.1,7.2-0.8,10.7c0,0.1,0,0.1,0.1,0.2l7.7,18.3c1.9,4.6,6.5,7.6,11.5,7.6h59.3c0.3,0,0.6,0,0.8,0
			C99.5,27.3,103.1,25.2,105.4,21.4z M101.5,19L101.5,19L101.5,19z M24.7-5.3l9.5-16.4l4.2-7.3c2.3-3.8,2.3-8.4,0.1-12.3l-13.6-24
			c-0.5-0.9-0.6-2-0.2-3l7.5-18.3c0.6-1.3,1.8-2.1,3.1-2.1h59.5c1.2,0,2.2,0.6,2.8,1.6l29.1,50.5c0.6,0.9,0.5,2-0.1,3l-29,50.3
			c-0.9,1.4-1.8,1.5-2.6,1.4c-0.1,0-0.3,0-0.4,0H35.2c-1.3,0-2.6-0.9-3.1-2L24.4-2.1C24-3.3,24.1-4.2,24.7-5.3z M91-5.6L104.5-29
			c2.3-3.8,2.3-8.4,0.1-12.3L91-64.7c-2.2-3.9-6.2-6.2-10.7-6.2H45.4c-2.5,0-4.6,2-4.6,4.6c0,2.5,2,4.6,4.6,4.6h34.9
			c1.2,0,2.2,0.6,2.8,1.6l13.5,23.4c0.6,1,0.6,2.1,0,3.1L83.1-10.2c-0.6,1.1-1.6,1.6-2.8,1.6H45.4c-2.5,0-4.6,2-4.6,4.6
			s2,4.6,4.6,4.6h34.9C84.8,0.6,88.8-1.8,91-5.6z"/>
	</g>
	<g id="Regular-L" transform="matrix(1 0 0 1 1374.99 1556)">
		<path d="M33.6,22.7l29.1-50.2c2.9-4.8,2.9-10.6,0-15.4L33.6-93.1c-1.1-1.8-3.4-2.5-5.3-1.4c-1.8,1.1-2.5,3.4-1.4,5.3l29.2,50.3
			c1.4,2.4,1.4,5.1,0,7.5L26.9,18.9c-1.1,1.8-0.4,4.2,1.4,5.3c0.6,0.4,1.3,0.5,1.9,0.5C31.6,24.7,32.9,24,33.6,22.7z M103.8,20.5
			C103.8,20.5,103.8,20.4,103.8,20.5l7.9-13.7l20.9-36.2c2.1-3.7,2.1-8,0-11.5l-28.7-49.9c-2.1-3.6-5.9-5.8-10-5.8H34.9
			c-4.6,0-8.8,2.8-10.7,7c0,0,0,0.1-0.1,0.1l-7.5,18.2c-1.4,3.4-1.1,7.2,0.7,10.3l13.4,23.7c0.7,1.2,0.7,2.5,0,3.7L17.1-9.7
			c0,0,0,0.1-0.1,0.1c-1.7,3.2-2,6.7-0.7,10.1c0,0.1,0,0.1,0.1,0.2L24,18.8c1.8,4.3,6.1,7.2,10.8,7.2h58.7c0.3,0,0.5,0,0.8,0
			C98.1,26,101.6,24,103.8,20.5z M100.5,18.5L100.5,18.5L100.5,18.5z M23.8-5.9l13.6-23.6c2.2-3.5,2.2-7.9,0.1-11.5L24-64.8
			c-0.6-1.1-0.7-2.4-0.3-3.5l7.4-18.1c0.7-1.5,2.2-2.4,3.7-2.4h58.9c1.5,0,2.6,0.7,3.4,1.9L125.9-37c0.7,1.1,0.7,2.4-0.1,3.7
			L97.1,16.5c-0.5,0.7-1.5,1.9-3.2,1.7c-0.1,0-0.2,0-0.3,0h-10H34.8c-1.5,0-3.1-1-3.6-2.4L23.5-2.3C23.1-3.5,23.2-4.7,23.8-5.9z
			 M89.5-6.3l13.3-23.1c2.2-3.5,2.2-7.9,0-11.6L89.5-64.1c-2.1-3.6-5.9-5.8-10-5.8H44.9c-2.1,0-3.9,1.7-3.9,3.9
			c0,2.1,1.7,3.9,3.9,3.9h34.5c1.5,0,2.6,0.7,3.4,1.9L96.2-37c0.7,1.2,0.7,2.5,0,3.7L82.8-10.1c-0.7,1.3-1.9,1.9-3.4,1.9H44.9
			c-2.1,0-3.9,1.7-3.9,3.9s1.7,3.9,3.9,3.9h34.5C83.6-0.5,87.4-2.6,89.5-6.3z"/>
	</g>
	<g id="Light-L" transform="matrix(1 0 0 1 1079.2 1556)">
		<path d="M32.8,21.8l28.8-49.7c2.8-4.6,2.8-10.1,0-14.6L32.8-92.2c-0.9-1.5-2.8-2-4.4-1.2c-1.5,0.9-2,2.8-1.2,4.4l28.8,49.8
			c1.6,2.6,1.6,5.5,0,8.1L27.2,18.6c-0.9,1.5-0.4,3.5,1.2,4.4c0.5,0.3,1.1,0.4,1.6,0.4C31.1,23.4,32.2,22.8,32.8,21.8z M102.1,19.6
			C102.1,19.5,102.1,19.5,102.1,19.6l28.5-49.4c2-3.4,2-7.5,0-10.7l-28.4-49.3c-2-3.4-5.5-5.4-9.4-5.4H50.8H34.5
			c-4.3,0-8.2,2.6-10.1,6.7l-7.4,18c-1.3,3.1-1,6.8,0.7,9.7l13.3,23.5c0.8,1.4,0.8,3,0,4.3L17.4-9.6c-1.6,3-1.8,6.3-0.7,9.5
			c0,0,0,0.1,0.1,0.1L24.3,18c1.6,4,5.7,6.7,10.1,6.7h17.8h25.2h15.2c0.3,0,0.5,0,0.8,0C96.8,24.7,100.1,22.8,102.1,19.6z M23-6.5
			l13.5-23.4c2-3.3,2-7.3,0.1-10.7L23.2-64.1c-0.7-1.2-0.8-2.8-0.3-4.1l7.3-17.9c0.8-1.7,2.5-2.8,4.2-2.8h58.2c1.7,0,3,0.8,3.9,2.2
			L125-37.3c0.8,1.3,0.8,2.9,0,4.3L96.6,16.3c-0.5,0.8-1.7,2.2-3.7,2c-0.1,0-0.2,0-0.3,0H56.1H34.3c-1.8,0-3.5-1.2-4.2-2.8L22.6-2.4
			C22.1-3.8,22.2-5.2,23-6.5z M99.3,17.9L99.3,17.9L99.3,17.9z M88-6.9l13.2-22.9c2-3.3,2-7.3,0-10.8L88-63.5
			c-2-3.4-5.5-5.4-9.4-5.4H44.4c-1.8,0-3.2,1.4-3.2,3.2s1.4,3.2,3.2,3.2h34.2c1.7,0,3,0.8,3.9,2.2l13.3,22.9c0.8,1.4,0.8,3,0,4.3
			L82.4-10.1c-0.8,1.4-2.2,2.2-3.9,2.2H44.4c-1.8,0-3.2,1.4-3.2,3.2s1.4,3.2,3.2,3.2h34.2C82.5-1.5,86-3.5,88-6.9z"/>
	</g>
	<g id="Thin-L" transform="matrix(1 0 0 1 783.716 1556)">
		<path d="M31.4,20.9l28.5-49.1c2.6-4.3,2.6-9.5,0-13.8L31.4-91.2c-0.7-1.2-2.2-1.6-3.4-0.9c-1.2,0.7-1.6,2.2-0.9,3.4l28.5,49.2
			c1.7,2.7,1.7,5.9,0,8.6L27,18.3c-0.7,1.2-0.3,2.7,0.9,3.4c0.4,0.2,0.8,0.3,1.3,0.3C30.1,22.1,30.9,21.7,31.4,20.9z M99.9,18.6
			C100,18.6,100,18.6,99.9,18.6l12.5-21.7l15.6-27.1c1.9-3.2,1.8-6.9,0-10L100-89c-1.8-3.2-5.1-5-8.7-5H72.7H33.6
			c-4,0-7.7,2.4-9.4,6.2L16.9-70c-1.2,2.9-1,6.3,0.6,9l6,10.6l7.2,12.7c0.9,1.6,0.9,3.4,0,4.9L17.3-9.6c-1.5,2.9-1.7,5.9-0.6,9
			l7.4,17.8c1.5,3.7,5.3,6.2,9.4,6.2h32H91c0.2,0,0.5,0,0.7,0C95.1,23.4,98.1,21.7,99.9,18.6z M91.2-89c1.9,0,3.4,0.9,4.4,2.5
			l28.1,48.8c0.9,1.5,0.9,3.3,0,4.9L95.6,16c-1,1.7-2.5,2.5-4.3,2.3c-0.1,0-0.1,0-0.2,0H75.8H33.5c-2,0-4-1.3-4.7-3.1L21.4-2.5
			c-0.6-1.6-0.5-3.1,0.3-4.7L35-30.3c1.9-3.1,1.9-6.8,0-10L21.9-63.5c-0.8-1.4-1-3.1-0.3-4.6l7.3-17.7c0.9-1.9,2.8-3.2,4.8-3.2H91.2
			z M97.8,17.3L97.8,17.3L97.8,17.3z M86-7.5l13.1-22.6c1.9-3.1,1.9-6.8,0-10L86-62.9c-1.8-3.2-5.1-5-8.7-5H43.5
			c-1.4,0-2.5,1.1-2.5,2.5c0,1.4,1.1,2.5,2.5,2.5h33.8c1.9,0,3.4,0.9,4.4,2.5l13.1,22.7c0.9,1.6,0.9,3.4,0,4.9L81.6-10
			c-0.9,1.6-2.5,2.5-4.4,2.5H43.5c-1.4,0-2.5,1.1-2.5,2.5s1.1,2.5,2.5,2.5h33.8C80.9-2.5,84.2-4.4,86-7.5z"/>
	</g>
	<g id="Ultralight-L" transform="matrix(1 0 0 1 487.631 1556)">
		<path d="M29.5,19.9l28.1-48.6c2.5-4.1,2.5-9,0-13L29.5-90.3C29-91.2,27.9-91.5,27-91c-0.9,0.5-1.2,1.7-0.7,2.6l28.2,48.6
			c1.8,2.9,1.8,6.2,0,9.2L26.3,18c-0.5,0.9-0.2,2,0.7,2.6c0.3,0.2,0.6,0.3,0.9,0.3C28.6,20.8,29.2,20.5,29.5,19.9z M97.4,17.8
			c0,0,0-0.1,0.1-0.1l21.3-36.9l6.5-11.3c1.7-3,1.7-6.4,0-9.2l-17.8-30.8L97.5-88c-1.7-3-4.7-4.7-8.1-4.7H59.5H32.4
			c-3.7,0-7.1,2.2-8.7,5.8l-7.2,17.6c-1.1,2.7-0.9,5.8,0.6,8.4l13,22.9c1,1.8,1,3.8,0,5.5l-13.2,23c-1.4,2.7-1.6,5.5-0.6,8.3
			l7.3,17.6c1.4,3.5,4.9,5.8,8.7,5.8H71h18.1c0.2,0,0.5,0,0.7,0C92.9,22.1,95.5,20.6,97.4,17.8z M89.4-89c2.1,0,3.8,1,4.9,2.8
			L122-37.9c1,1.6,1,3.7,0,5.4L94.3,15.7c-0.9,1.3-2.5,2.8-4.9,2.6c-0.1,0-0.1,0-0.2,0H61.5H32.3c-2.3,0-4.4-1.4-5.3-3.5L19.7-2.6
			c-0.7-1.8-0.5-3.5,0.4-5.1l13.2-22.9c1.7-2.8,1.7-6.3,0-9.2l-13-23c-0.9-1.5-1.1-3.4-0.4-5.1l7.2-17.5c1-2.1,3.1-3.5,5.3-3.5H89.4
			z M95.8,16.7L95.8,16.7L95.8,16.7z M83.5-8.1l12.9-22.4c1.7-2.8,1.7-6.3,0-9.3l-13-22.4c-1.7-3-4.7-4.7-8.1-4.7H42
			c-1,0-1.9,0.8-1.9,1.9c0,1,0.8,1.9,1.9,1.9h33.4c2.1,0,3.8,1,4.9,2.8l13,22.4c1,1.8,1,3.8,0,5.5L80.3-10c-1,1.8-2.8,2.8-4.9,2.8
			H42c-1,0-1.9,0.8-1.9,1.9S41-3.5,42-3.5h33.4C78.8-3.5,81.8-5.2,83.5-8.1z"/>
	</g>
	<g id="Black-M" transform="matrix(1 0 0 1 2871.36 1126)">
		<path d="M30.8,13.3l23.7-40.9c2.9-4.8,2.9-10.4,0-15.2L30.8-83.7c-1.6-2.8-5.1-3.7-7.9-2.1c-2.8,1.6-3.7,5.1-2.1,7.9L44.5-37
			c0,0,0,0.1,0.1,0.1c0.7,1.1,0.7,2.3,0,3.3c0,0-23.8,41-23.8,41c-1.6,2.8-0.7,6.3,2.1,7.9C23.8,15.9,29.7,15.1,30.8,13.3z
			 M87.8,11.5c0,0,0.1-0.1,0.1-0.1l23.4-40.6c2.2-3.8,2.2-8.3,0-12L87.9-81.8c-2.2-3.8-6.1-6-10.4-6H29.5c-4.8,0-9.1,2.9-11.1,7.3
			c0,0.1-0.1,0.1-0.1,0.2l-6.1,14.8c-1.4,3.5-1.1,7.5,0.7,10.7l10.9,19.3c0.1,0.2,0.1,0.3,0.1,0.3c0,0-0.1,0.1-0.1,0.1L12.7-15.8
			c0,0.1-0.1,0.1-0.1,0.2c-1.8,3.3-2,6.9-0.7,10.4C11.9-5.2,12-5.1,12-5l6.2,14.7c1.8,4.5,6.3,7.5,11.2,7.5h47.7c0.2,0,0.5,0,0.7,0
			C81.9,17.2,85.6,15.1,87.8,11.5z M82.9,8.5L82.9,8.5L82.9,8.5z M22.8-10.2l11-19.1c2.2-3.7,2.2-8.2,0.1-12l-11-19.4
			c-0.1-0.3-0.1-0.5-0.1-0.5l6-14.6c0.1-0.3,0.4-0.4,0.6-0.4h47.9c0.2,0,0.3,0.1,0.5,0.3l23.4,40.6c0,0,0.1,0.1,0.1,0.1
			c0,0-23.4,40.8-23.4,40.8c0,0.1-0.1,0.1-0.1,0.2c0,0,0,0,0,0c-0.2,0-0.3,0-0.5,0H29.4c-0.2,0-0.5-0.2-0.6-0.3L22.7-9.3
			C22.6-9.6,22.6-9.8,22.8-10.2z M76.2-10.3l10.9-18.8c2.2-3.7,2.2-8.2,0-12L76.2-60.1c-2.2-3.8-6.1-6-10.4-6H37.7
			c-3.2,0-5.8,2.6-5.8,5.8s2.6,5.8,5.8,5.8h28.1c0.2,0,0.3,0.1,0.5,0.3l10.9,18.9c0.1,0.2,0.1,0.3,0.1,0.3c0,0,0,0.1-0.1,0.1
			L66.2-16.1c-0.1,0.2-0.2,0.3-0.5,0.3H37.7c-3.2,0-3.2,11.5,0,11.5h28.1C70.1-4.3,74-6.6,76.2-10.3z"/>
	</g>
	<g id="Heavy-M" transform="matrix(1 0 0 1 2575.48 1126)">
		<path d="M29.7,12.5l23.5-40.5c2.7-4.6,2.7-10,0-14.5L29.7-83c-1.4-2.5-4.6-3.3-7.1-1.9c-2.5,1.4-3.3,4.6-1.9,7.1l23.5,40.5
			c0,0,0,0.1,0.1,0.1c0.8,1.3,0.8,2.6,0,3.9c0,0-23.5,40.6-23.5,40.6c-1.4,2.5-0.6,5.7,1.9,7.1C23.5,14.9,28.8,14.2,29.7,12.5z
			 M86.3,10.8c0,0,0-0.1,0.1-0.1l23.2-40.2c2.1-3.6,2.1-7.9,0-11.4L86.4-81.1c-2.1-3.6-5.8-5.7-9.9-5.7H29c-4.5,0-8.6,2.7-10.5,6.9
			c0,0.1-0.1,0.1-0.1,0.2l-6,14.6C11-61.8,11.2-58,13-54.9l10.8,19.2c0.3,0.5,0.1,0.7,0.1,0.8c0,0,0,0.1-0.1,0.1l-11,19.1
			c0,0.1-0.1,0.1-0.1,0.2c-1.7,3.1-1.9,6.6-0.7,9.8c0,0.1,0.1,0.1,0.1,0.2l6.1,14.6c1.7,4.2,6,7.1,10.6,7.1h47.3c0.2,0,0.5,0,0.7,0
			C80.7,16.2,84.2,14.2,86.3,10.8z M81.9,8.1L81.9,8.1L81.9,8.1z M21.9-10.6l10.9-19c2.1-3.5,2.1-7.8,0-11.3L22-60.1
			c-0.3-0.5-0.2-0.8-0.1-1l6-14.5c0.2-0.4,0.7-0.7,1.1-0.7h47.5c0.4,0,0.7,0.2,0.9,0.5l23.2,40.2c0,0,0,0.1,0.1,0.1
			c0.1,0.1,0.2,0.3-0.1,0.8L77.4,5.4c-0.3,0.4-0.5,0.4-0.6,0.4c-0.1,0-0.3,0-0.4,0H28.9c-0.4,0-0.9-0.3-1-0.7L21.8-9.4
			C21.6-9.8,21.6-10.1,21.9-10.6z M74.8-10.8l10.8-18.7c2.1-3.5,2.1-7.8,0-11.4L74.8-59.6c-2.1-3.6-5.8-5.7-9.9-5.7H37.1
			c-2.9,0-5.2,2.3-5.2,5.2s2.3,5.2,5.2,5.2h27.8c0.4,0,0.7,0.2,0.9,0.5l10.8,18.7c0.3,0.5,0.1,0.7,0.1,0.8c0,0,0,0.1-0.1,0.1
			L65.8-16c-0.2,0.4-0.5,0.5-0.9,0.5H37.1c-2.9,0-2.9,10.4,0,10.4h27.8C69.1-5.1,72.8-7.3,74.8-10.8z"/>
	</g>
	<g id="Bold-M" transform="matrix(1 0 0 1 2279.69 1126)">
		<path d="M28.8,11.8L52-28.2c2.7-4.4,2.7-9.6,0-13.9L28.8-82.3c-1.3-2.2-4.1-3-6.3-1.7c-2.2,1.3-3,4.1-1.7,6.3l23.3,40.2
			c0.9,1.4,0.9,2.9,0,4.4L20.8,7.2c-1.3,2.2-0.5,5,1.7,6.3c0.7,0.4,1.5,0.6,2.3,0.6C26.4,14.1,27.9,13.3,28.8,11.8z M84.7,10.1
			c0,0,0-0.1,0.1-0.1l22.9-39.8c2-3.4,2-7.4,0-10.8L84.8-80.4c-2-3.4-5.5-5.4-9.4-5.4h-47c-4.3,0-8.2,2.6-10,6.5
			c0,0.1,0,0.1-0.1,0.2l-6,14.5c-1.3,3.1-1,6.7,0.7,9.6l10.7,19c0.3,0.5,0.3,0.9,0.1,1.3c0,0,0,0.1-0.1,0.1L12.8-15.6
			c0,0-0.1,0.1-0.1,0.1c-1.6,3-1.8,6.2-0.7,9.3c0,0.1,0,0.1,0.1,0.2l6.1,14.5c1.6,4,5.7,6.7,10.1,6.7h46.9c0.2,0,0.5,0,0.7,0
			C79.5,15.2,82.7,13.4,84.7,10.1z M80.8,7.7L80.8,7.7L80.8,7.7z M20.9-11.1l10.8-18.8c2-3.3,2-7.3,0-10.7l-10.7-19
			c-0.3-0.5-0.3-1-0.1-1.4l5.9-14.4c0.3-0.6,0.9-1,1.5-1h47c0.6,0,1,0.2,1.3,0.8l23,39.8c0,0,0,0.1,0.1,0.1c0.2,0.4,0.2,0.9-0.1,1.3
			L76.8,5.3C76.4,6,76,5.9,75.7,5.9c-0.1,0-0.3,0-0.4,0h-47c-0.6,0-1.3-0.4-1.5-1l-6-14.4C20.6-10,20.6-10.4,20.9-11.1z M73.4-11.3
			L84-29.8c2-3.3,2-7.3,0-10.7L73.4-59.1c-2-3.4-5.5-5.4-9.4-5.4H36.4c-2.6,0-4.6,2.1-4.6,4.6c0,2.6,2.1,4.6,4.6,4.6H64
			c0.6,0,1,0.2,1.3,0.8L76-35.9c0.3,0.5,0.3,0.9,0.1,1.3c0,0,0,0.1-0.1,0.1L65.3-16c-0.3,0.5-0.7,0.8-1.3,0.8H36.4
			c-2.6,0-2.6,9.3,0,9.3H64C67.9-5.9,71.4-7.9,73.4-11.3z"/>
	</g>
	<g id="Semibold-M" transform="matrix(1 0 0 1 1983.62 1126)">
		<path d="M27.8,11.1l23-39.7c2.5-4.2,2.5-9.1,0-13.2l-23-39.8c-1.1-1.9-3.6-2.6-5.6-1.5c-1.9,1.1-2.6,3.6-1.5,5.6l23.1,39.8
			c0.9,1.6,0.9,3.3,0,4.9L20.7,7c-1.1,1.9-0.5,4.4,1.5,5.6c0.6,0.4,1.3,0.6,2,0.6C25.7,13.2,27,12.4,27.8,11.1z M83.3,9.4
			C83.3,9.3,83.3,9.3,83.3,9.4l22.8-39.5c1.9-3.2,1.9-7,0-10.1L83.4-79.7c-1.8-3.2-5.1-5.1-8.8-5.1H27.9c-4,0-7.7,2.4-9.4,6.2
			c0,0,0,0.1-0.1,0.1l-5.9,14.4c-1.2,2.9-1,6.4,0.6,9.1l10.6,18.8c0.2,0.4,0.5,1.1,0,1.8c0,0,0,0.1-0.1,0.1L13-15.6
			c0,0,0,0.1-0.1,0.1c-1.5,2.8-1.7,5.9-0.6,8.8c0,0.1,0,0.1,0.1,0.2l6,14.3c1.5,3.8,5.4,6.3,9.5,6.3h46.4c0.2,0,0.4,0,0.7,0
			C78.4,14.2,81.4,12.4,83.3,9.4z M79.8,7.2L79.8,7.2L79.8,7.2z M20.1-11.6l10.7-18.6c1.9-3.1,1.9-6.9,0-10.1L20.2-59.1
			c-0.3-0.6-0.4-1.3-0.2-1.9L26-75.3c0.4-0.8,1.2-1.3,2-1.3h46.6c0.8,0,1.4,0.3,1.8,1L99-36.2c0,0,0,0.1,0.1,0.1
			c0.5,0.7,0.2,1.5-0.1,1.9L76.3,5.2c-0.4,0.6-0.9,0.9-1.5,0.9c-0.1,0-0.2,0-0.4,0H27.8c-0.8,0-1.7-0.5-1.9-1.3l-6-14.3
			C19.7-10.2,19.7-10.9,20.1-11.6z M72-11.8l10.5-18.3c1.9-3.1,1.9-6.9,0.1-10.2L72-58.6c-1.8-3.2-5.1-5.1-8.8-5.1H35.9
			c-2.3,0-4.1,1.8-4.1,4.1s1.8,4.1,4.1,4.1h27.3c0.8,0,1.4,0.3,1.8,1l10.6,18.4c0.2,0.4,0.5,1.1,0,1.9L65-15.9c-0.4,0.7-1,1-1.8,1
			H35.9c-2.3,0-4.1,1.8-4.1,4.1s1.8,4.1,4.1,4.1h27.3C66.9-6.7,70.2-8.6,72-11.8z"/>
	</g>
	<g id="Medium-M" transform="matrix(1 0 0 1 1687.4 1126)">
		<path d="M27.4,10.4l22.8-39.3c2.4-4,2.4-8.7,0-12.6L27.4-80.8c-1-1.7-3.1-2.3-4.8-1.3c-1.7,1-2.3,3.1-1.3,4.8l22.8,39.4
			c1,1.7,1,3.6,0,5.4L21.3,6.9c-1,1.7-0.4,3.8,1.3,4.8c0.6,0.3,1.2,0.5,1.8,0.5C25.5,12.2,26.7,11.5,27.4,10.4z M82.2,8.7
			C82.3,8.6,82.3,8.6,82.2,8.7l6.3-11l16.2-28.1c1.8-3.1,1.8-6.6,0-9.5L82.3-79c-1.7-3-4.8-4.8-8.3-4.8H27.9c-3.8,0-7.3,2.3-8.9,5.8
			c0,0,0,0.1-0.1,0.1l-5.9,14.2c-1.1,2.8-0.9,6,0.6,8.5l10.5,18.6c0.5,0.8,0.5,1.6,0,2.4L13.5-15.5c0,0,0,0.1-0.1,0.1
			c-1.4,2.7-1.6,5.5-0.6,8.3c0,0,0,0.1,0.1,0.1l5.9,14.2c1.5,3.5,5,5.9,8.9,5.9h46c0.2,0,0.4,0,0.7,0C77.6,13.2,80.5,11.6,82.2,8.7z
			 M79.2,6.8L79.2,6.8L79.2,6.8z M19.7-12.1L27-24.8l3.3-5.7c1.8-2.9,1.8-6.5,0.1-9.5L19.8-58.6c-0.4-0.7-0.5-1.6-0.2-2.3l5.8-14.2
			c0.5-1,1.4-1.6,2.4-1.6H74c1,0,1.7,0.4,2.2,1.3l22.5,39.1c0.4,0.7,0.4,1.5,0,2.3L76.2,5c-0.7,1.1-1.4,1.2-2,1.1
			c-0.1,0-0.2,0-0.3,0H27.8c-1,0-2-0.7-2.4-1.6L19.4-9.6C19.1-10.5,19.2-11.2,19.7-12.1z M71.1-12.3l10.5-18.1
			c1.8-2.9,1.8-6.5,0-9.6L71.1-58.1c-1.7-3-4.8-4.8-8.3-4.8h-27c-2,0-3.5,1.6-3.5,3.5c0,2,1.6,3.5,3.5,3.5h27c1,0,1.7,0.4,2.2,1.3
			l10.5,18.2c0.5,0.8,0.5,1.6,0,2.4L65-15.8c-0.5,0.8-1.2,1.3-2.2,1.3h-27c-2,0-3.5,1.6-3.5,3.5s1.6,3.5,3.5,3.5h27
			C66.2-7.5,69.3-9.3,71.1-12.3z"/>
	</g>
	<g id="Regular-M" transform="matrix(1 0 0 1 1391.32 1126)">
		<path d="M26.5,9.7l22.5-38.9c2.3-3.8,2.3-8.2,0-11.9L26.5-80.1c-0.8-1.4-2.7-1.9-4.1-1.1c-1.4,0.8-1.9,2.7-1.1,4.1l22.6,39
			c1.1,1.8,1.1,3.9,0,5.8l-22.6,39c-0.8,1.4-0.3,3.3,1.1,4.1c0.5,0.3,1,0.4,1.5,0.4C25,11.2,26,10.6,26.5,9.7z M80.9,7.9
			C80.9,7.9,80.9,7.9,80.9,7.9l6.1-10.7l16.2-28.1c1.7-2.9,1.6-6.2,0-8.9L81-78.3c-1.6-2.8-4.5-4.5-7.8-4.5H27.5
			c-3.5,0-6.8,2.1-8.3,5.5c0,0,0,0.1,0,0.1l-5.8,14.1c-1.1,2.6-0.9,5.6,0.6,8l10.4,18.4c0.5,0.9,0.6,2,0,2.9L13.7-15.5
			c0,0,0,0.1-0.1,0.1c-1.3,2.5-1.5,5.2-0.6,7.8c0,0,0,0.1,0,0.1l5.9,14.1c1.4,3.3,4.7,5.6,8.4,5.6H73c0.2,0,0.4,0,0.6,0
			C76.6,12.2,79.3,10.6,80.9,7.9z M78.4,6.4L78.4,6.4L78.4,6.4z M19-12.5l10.5-18.3c1.7-2.7,1.7-6.1,0.1-8.9L19.1-58.2
			c-0.5-0.8-0.6-1.9-0.2-2.7l5.8-14c0.5-1.1,1.7-1.9,2.8-1.9h45.6c1.1,0,2,0.5,2.6,1.5l22.3,38.7c0.5,0.9,0.5,1.9,0,2.8L75.8,4.9
			c-0.4,0.6-1.1,1.5-2.5,1.3c-0.1,0-0.2,0-0.3,0h-7.8H27.4c-1.2,0-2.4-0.8-2.8-1.9l-5.9-14C18.4-10.7,18.5-11.6,19-12.5z M69.9-12.8
			l10.3-17.9c1.7-2.7,1.7-6.1,0-9l-10.4-18c-1.6-2.8-4.5-4.5-7.8-4.5H35.3c-1.7,0-3,1.3-3,3s1.3,3,3,3h26.8c1.1,0,2,0.5,2.6,1.5
			l10.4,18c0.5,0.9,0.6,2,0,2.9l-10.4,18c-0.6,1-1.5,1.5-2.6,1.5H35.3c-1.7,0-3,1.3-3,3s1.3,3,3,3h26.8C65.3-8.3,68.2-10,69.9-12.8z
			"/>
	</g>
	<g id="Light-M" transform="matrix(1 0 0 1 1095.44 1126)">
		<path d="M25.8,9l22.3-38.5c2.2-3.6,2.2-7.8,0-11.3L25.8-79.4c-0.7-1.2-2.2-1.6-3.4-0.9c-1.2,0.7-1.6,2.2-0.9,3.4l22.4,38.6
			c1.2,2,1.2,4.3,0,6.3L21.5,6.5c-0.7,1.2-0.3,2.7,0.9,3.4c0.4,0.2,0.8,0.3,1.2,0.3C24.5,10.2,25.3,9.7,25.8,9z M79.5,7.2
			C79.5,7.2,79.5,7.2,79.5,7.2l22.1-38.3c1.5-2.7,1.5-5.8,0-8.3l-22-38.2c-1.5-2.6-4.2-4.2-7.3-4.2H39.8H27.1c-3.3,0-6.4,2-7.8,5.2
			l-5.7,13.9c-1,2.4-0.8,5.2,0.5,7.5L24.4-37c0.6,1.1,0.6,2.3,0,3.4L13.9-15.4c-1.2,2.4-1.4,4.9-0.5,7.3c0,0,0,0.1,0,0.1L19.2,6
			c1.3,3.1,4.4,5.2,7.8,5.2h13.8h19.5h11.8c0.2,0,0.4,0,0.6,0C75.4,11.2,78,9.8,79.5,7.2z M18.2-13l10.4-18.1c1.6-2.6,1.6-5.7,0-8.3
			L18.4-57.7c-0.6-1-0.7-2.1-0.2-3.1l5.7-13.8c0.6-1.3,1.9-2.2,3.3-2.2h45.2c1.3,0,2.4,0.6,3,1.7l22.1,38.3c0.6,1,0.6,2.2,0,3.3
			l-22,38.2c-0.4,0.7-1.3,1.7-2.9,1.6c-0.1,0-0.1,0-0.2,0H43.8H27c-1.4,0-2.7-0.9-3.3-2.1L18-9.8C17.5-10.9,17.6-11.9,18.2-13z
			 M77.4,5.9L77.4,5.9L77.4,5.9z M68.6-13.3L78.8-31c1.6-2.6,1.6-5.7,0-8.4L68.6-57.2c-1.5-2.6-4.2-4.2-7.3-4.2H34.8
			c-1.4,0-2.5,1.1-2.5,2.5c0,1.4,1.1,2.5,2.5,2.5h26.5c1.3,0,2.4,0.6,3,1.7l10.3,17.8c0.6,1.1,0.6,2.3,0,3.4L64.3-15.7
			c-0.6,1.1-1.7,1.7-3,1.7H34.8c-1.4,0-2.5,1.1-2.5,2.5s1.1,2.5,2.5,2.5h26.5C64.3-9.1,67.1-10.6,68.6-13.3z"/>
	</g>
	<g id="Thin-M" transform="matrix(1 0 0 1 799.828 1126)">
		<path d="M24.6,8.2l22.1-38.1c2-3.4,2-7.4,0-10.7L24.6-78.7c-0.5-0.9-1.7-1.3-2.7-0.7c-0.9,0.5-1.3,1.7-0.7,2.7l22.1,38.1
			c1.3,2.1,1.3,4.5,0,6.7L21.2,6.3c-0.5,0.9-0.2,2.1,0.7,2.7c0.3,0.2,0.6,0.3,1,0.3C23.6,9.2,24.2,8.9,24.6,8.2z M77.7,6.5
			C77.7,6.5,77.7,6.5,77.7,6.5l9.7-16.8l12.1-21c1.4-2.5,1.4-5.4,0-7.7L77.7-76.9c-1.4-2.4-3.9-3.9-6.8-3.9H56.6H26.3
			c-3.1,0-5.9,1.9-7.3,4.8l-5.7,13.8c-0.9,2.3-0.7,4.9,0.5,7l4.6,8.2l5.5,9.8c0.7,1.2,0.7,2.6,0,3.8l-10.4,18
			c-1.2,2.2-1.4,4.5-0.5,6.9l5.8,13.8c1.2,2.9,4.1,4.8,7.3,4.8H51h19.8c0.2,0,0.4,0,0.6,0C74,10.2,76.3,8.9,77.7,6.5z M71-76.9
			c1.5,0,2.7,0.7,3.4,2l21.8,37.9c0.7,1.2,0.7,2.5,0,3.8L74.4,4.5c-0.8,1.3-1.9,1.9-3.3,1.8c-0.1,0-0.1,0-0.2,0H59H26.2
			c-1.6,0-3.1-1-3.7-2.4L16.8-9.8c-0.5-1.3-0.4-2.4,0.3-3.6l10.3-17.9c1.5-2.4,1.5-5.3,0-7.7l-10.2-18c-0.6-1.1-0.7-2.4-0.3-3.5
			l5.6-13.7c0.7-1.5,2.2-2.5,3.7-2.5H71z M76,5.5L76,5.5L76,5.5z M66.9-13.8L77-31.3c1.5-2.4,1.5-5.3,0-7.8L66.9-56.7
			c-1.4-2.4-3.9-3.9-6.8-3.9H33.9c-1.1,0-2,0.9-2,2s0.9,2,2,2h26.2c1.5,0,2.7,0.7,3.4,2l10.2,17.6c0.7,1.2,0.7,2.6,0,3.8L63.5-15.7
			c-0.7,1.3-1.9,2-3.4,2H33.9c-1.1,0-2,0.9-2,2s0.9,2,2,2h26.2C62.9-9.9,65.5-11.3,66.9-13.8z"/>
	</g>
	<g id="Ultralight-M" transform="matrix(1 0 0 1 503.679 1126)">
		<path d="M22.8,7.5l21.8-37.7c1.9-3.2,1.9-6.9,0-10.1L22.8-77.9c-0.4-0.7-1.3-0.9-2-0.5c-0.7,0.4-0.9,1.3-0.5,2l21.8,37.7
			c1.4,2.3,1.4,4.8,0,7.1L20.3,6c-0.4,0.7-0.2,1.6,0.5,2c0.2,0.1,0.5,0.2,0.7,0.2C22.1,8.2,22.6,8,22.8,7.5z M75.4,5.8
			C75.4,5.8,75.5,5.8,75.4,5.8L92-22.9l5.1-8.8c1.3-2.3,1.3-5,0-7.1L83.3-62.7l-7.8-13.5c-1.3-2.3-3.6-3.6-6.3-3.6H46.1H25
			c-2.9,0-5.5,1.7-6.8,4.5l-5.6,13.6c-0.9,2.1-0.7,4.5,0.5,6.5l10.1,17.8c0.8,1.4,0.8,2.9,0,4.3L12.9-15.4c-1.1,2.1-1.3,4.2-0.4,6.5
			l5.7,13.6c1.1,2.7,3.8,4.5,6.8,4.5H55h14c0.2,0,0.4,0,0.5,0C71.9,9.2,74,8,75.4,5.8z M69.2-76.9c1.6,0,3,0.8,3.8,2.2l21.6,37.4
			c0.8,1.3,0.8,2.9,0,4.2L73,4.3c-0.7,1-1.9,2.2-3.8,2c0,0-0.1,0-0.1,0H47.6H24.9c-1.8,0-3.4-1.1-4.1-2.7L15.2-10
			c-0.5-1.4-0.4-2.7,0.3-4l10.2-17.7c1.3-2.2,1.3-4.9,0-7.2L15.7-56.7c-0.7-1.2-0.8-2.7-0.3-3.9L21-74.2c0.7-1.6,2.4-2.7,4.1-2.7
			H69.2z M74.2,5L74.2,5L74.2,5z M64.7-14.2l10-17.4c1.3-2.2,1.3-4.9,0-7.2l-10-17.4c-1.3-2.3-3.6-3.6-6.3-3.6H32.5
			c-0.8,0-1.4,0.6-1.4,1.4c0,0.8,0.6,1.4,1.4,1.4h25.9c1.6,0,3,0.8,3.8,2.2l10,17.4c0.8,1.4,0.8,2.9,0,4.2l-10,17.4
			c-0.8,1.4-2.2,2.2-3.8,2.2H32.5c-0.8,0-1.4,0.6-1.4,1.4s0.6,1.4,1.4,1.4h25.9C61-10.6,63.3-11.9,64.7-14.2z"/>
	</g>
	<g id="Black-S" transform="matrix(1 0 0 1 2884.57 696)">
		<path d="M24.4,2.8l18.5-32c2.2-3.7,2.2-8.2,0-11.9l-18.5-32c-1.3-2.2-4-2.9-6.2-1.6c-2.2,1.3-2.9,4-1.6,6.2l18.6,32
			c0,0,0,0.1,0,0.1c0.5,0.9,0.5,1.8,0,2.6c0,0-18.6,32.1-18.6,32.1c-1.3,2.2-0.5,4.9,1.6,6.2C18.9,4.9,23.5,4.3,24.4,2.8z M69,1.4
			c0,0,0-0.1,0.1-0.1l18.3-31.8c1.7-3,1.7-6.5,0-9.4L69-71.6c-1.7-3-4.8-4.7-8.2-4.7H23.3c-3.7,0-7.1,2.2-8.7,5.7c0,0,0,0.1-0.1,0.2
			L9.8-58.9c-1.1,2.7-0.9,5.9,0.6,8.4l8.6,15.2c0.1,0.2,0.1,0.2,0.1,0.2c0,0,0,0.1-0.1,0.1l-8.7,15.1c0,0-0.1,0.1-0.1,0.1
			c-1.4,2.6-1.6,5.4-0.6,8.1c0,0.1,0,0.1,0.1,0.2L14.5,0c1.4,3.5,5,5.8,8.8,5.8h37.4c0.2,0,0.4,0,0.6,0C64.4,5.9,67.2,4.3,69,1.4z
			 M65.1-0.9L65.1-0.9L65.1-0.9z M18.1-15.5l8.6-15c1.7-2.9,1.8-6.4,0-9.4L18.2-55c-0.1-0.2-0.1-0.4,0-0.4l4.7-11.5
			c0.1-0.2,0.3-0.4,0.5-0.4h37.5c0.2,0,0.3,0,0.4,0.2l18.3,31.8c0,0,0,0.1,0.1,0.1c0,0-18.3,31.9-18.3,31.9c0,0.1-0.1,0.1-0.1,0.1
			c0,0,0,0,0,0c-0.1,0-0.2,0-0.4,0H23.2c-0.2,0-0.4-0.1-0.4-0.3L18-14.9C18-15.1,17.9-15.2,18.1-15.5z M59.9-15.7l8.5-14.7
			c1.7-2.9,1.8-6.4,0-9.4l-8.5-14.8c-1.7-3-4.8-4.7-8.2-4.7h-22c-2.5,0-4.5,2-4.5,4.5c0,2.5,2,4.5,4.5,4.5h22c0.2,0,0.3,0,0.4,0.2
			l8.5,14.8c0.1,0.2,0.1,0.2,0.1,0.2c0,0,0,0.1-0.1,0.1l-8.5,14.8C52-20,51.9-20,51.7-20h-22c-2.5,0-2.5,9,0,9h22
			C55.2-10.9,58.2-12.7,59.9-15.7z"/>
	</g>
	<g id="Heavy-S" transform="matrix(1 0 0 1 2588.47 696)">
		<path d="M23.6,2.3l18.4-31.7c2.1-3.6,2.1-7.8,0-11.4L23.6-72.5C22.4-74.5,20-75.1,18-74c-1.9,1.1-2.6,3.6-1.5,5.6l18.4,31.7
			c0,0,0,0,0,0.1c0.6,1,0.6,2,0,3c0,0-18.4,31.8-18.4,31.8c-1.1,1.9-0.5,4.4,1.5,5.6C18.7,4.1,22.8,3.6,23.6,2.3z M67.9,0.9
			C67.9,0.9,67.9,0.8,67.9,0.9l18.2-31.6c1.6-2.8,1.6-6.2,0-8.9L67.9-71.1c-1.6-2.8-4.5-4.5-7.8-4.5H23c-3.5,0-6.8,2.1-8.3,5.4
			c0,0,0,0.1-0.1,0.1L9.9-58.5c-1.1,2.6-0.8,5.6,0.5,7.9l8.5,15c0.2,0.4,0.1,0.6,0,0.6c0,0,0,0.1-0.1,0.1l-8.6,15c0,0,0,0.1-0.1,0.1
			C9-17.3,8.8-14.6,9.7-12c0,0.1,0,0.1,0.1,0.2l4.8,11.4c1.4,3.3,4.7,5.5,8.3,5.5h37c0.2,0,0.4,0,0.6,0C63.5,5.1,66.2,3.6,67.9,0.9z
			 M64.4-1.2L64.4-1.2L64.4-1.2z M17.4-15.9L26-30.7c1.7-2.7,1.7-6.1,0-8.9l-8.5-15c-0.2-0.4-0.1-0.7-0.1-0.8l4.7-11.4
			c0.2-0.3,0.5-0.6,0.8-0.6h37.2c0.3,0,0.5,0.1,0.7,0.4L79-35.5c0,0,0,0.1,0.1,0.1c0,0.1,0.2,0.3-0.1,0.6L60.9-3.3
			C60.7-3,60.5-3,60.4-3c-0.1,0-0.2,0-0.4,0H22.9c-0.3,0-0.7-0.3-0.8-0.5l-4.8-11.4C17.2-15.2,17.2-15.5,17.4-15.9z M58.9-16
			l8.4-14.6c1.7-2.7,1.7-6.1,0-8.9l-8.5-14.6c-1.6-2.8-4.5-4.5-7.8-4.5H29.3c-2.2,0-4.1,1.8-4.1,4.1c0,2.2,1.8,4.1,4.1,4.1h21.8
			c0.3,0,0.5,0.1,0.7,0.4l8.5,14.6c0.2,0.4,0.1,0.6,0,0.6c0,0,0,0.1-0.1,0.1l-8.5,14.6c-0.2,0.3-0.4,0.4-0.7,0.4H29.3
			c-2.2,0-2.2,8.1,0,8.1h21.8C54.4-11.6,57.3-13.2,58.9-16z"/>
	</g>
	<g id="Bold-S" transform="matrix(1 0 0 1 2292.43 696)">
		<path d="M22.9,1.7l18.2-31.4c2.1-3.4,2.1-7.5,0-10.9L22.9-72c-1-1.7-3.2-2.3-5-1.3c-1.7,1-2.3,3.2-1.3,5l18.3,31.5
			c0.7,1.1,0.7,2.3,0,3.5L16.6-1.9c-1,1.7-0.4,4,1.3,5c0.6,0.3,1.2,0.5,1.8,0.5C21,3.5,22.2,2.9,22.9,1.7z M66.7,0.3
			C66.7,0.3,66.7,0.3,66.7,0.3l18-31.3c1.6-2.7,1.5-5.8,0-8.4l-18-31.2c-1.5-2.6-4.3-4.2-7.3-4.2H22.6c-3.3,0-6.4,2-7.8,5.1
			c0,0,0,0.1-0.1,0.1L10-58.1c-1,2.4-0.8,5.3,0.5,7.5l8.4,14.9c0.2,0.4,0.2,0.7,0,1c0,0,0,0.1,0,0.1l-8.5,14.8c0,0,0,0.1-0.1,0.1
			c-1.2,2.3-1.4,4.9-0.5,7.3c0,0,0,0.1,0.1,0.1l4.7,11.3c1.3,3.1,4.4,5.2,7.9,5.2h36.7c0.2,0,0.4,0,0.6,0
			C62.6,4.3,65.1,2.9,66.7,0.3z M63.6-1.6L63.6-1.6L63.6-1.6z M16.7-16.3L25.2-31c1.6-2.6,1.6-5.7,0-8.4l-8.4-14.9
			c-0.2-0.4-0.2-0.8-0.1-1.1l4.6-11.3c0.2-0.5,0.7-0.8,1.2-0.8h36.8c0.5,0,0.8,0.2,1,0.6l18,31.2c0,0,0,0.1,0,0.1
			c0.2,0.3,0.2,0.7,0,1.1L60.5-3.4c-0.3,0.5-0.6,0.5-0.9,0.5c-0.1,0-0.2,0-0.3,0H22.5c-0.5,0-1-0.3-1.2-0.8L16.6-15
			C16.5-15.4,16.4-15.7,16.7-16.3z M57.8-16.4l8.4-14.5c1.6-2.6,1.6-5.7,0-8.4l-8.4-14.5c-1.5-2.6-4.3-4.2-7.3-4.2H28.9
			c-2,0-3.6,1.6-3.6,3.6c0,2,1.6,3.6,3.6,3.6h21.6c0.5,0,0.8,0.2,1.1,0.6l8.4,14.5c0.2,0.4,0.2,0.7,0,1c0,0,0,0.1,0,0.1l-8.4,14.5
			c-0.2,0.4-0.6,0.6-1.1,0.6H28.9c-2,0-2,7.3,0,7.3h21.6C53.5-12.2,56.3-13.8,57.8-16.4z"/>
	</g>
	<g id="Semibold-S" transform="matrix(1 0 0 1 1996.19 696)">
		<path d="M22.1,1.2l18-31.1c2-3.3,2-7.2,0-10.4l-18-31.1c-0.9-1.5-2.8-2-4.4-1.2c-1.5,0.9-2,2.8-1.2,4.4L34.7-37
			c0.7,1.2,0.7,2.6,0,3.8l-18,31.1c-0.9,1.5-0.4,3.5,1.2,4.4c0.5,0.3,1.1,0.4,1.6,0.4C20.5,2.7,21.5,2.2,22.1,1.2z M65.6-0.2
			C65.6-0.2,65.6-0.3,65.6-0.2l17.8-31c1.5-2.5,1.5-5.5,0-7.9L65.6-70c-1.4-2.5-4-4-6.9-4H22.2c-3.1,0-6,1.9-7.4,4.8
			c0,0,0,0.1,0,0.1l-4.6,11.3c-1,2.3-0.8,5,0.5,7.1L19-36c0.2,0.3,0.4,0.9,0,1.4c0,0,0,0,0,0.1l-8.5,14.7c0,0,0,0.1-0.1,0.1
			c-1.2,2.2-1.3,4.6-0.5,6.9c0,0,0,0.1,0,0.1l4.7,11.2c1.2,3,4.2,4.9,7.4,4.9h36.4c0.2,0,0.4,0,0.5,0C61.7,3.6,64.1,2.2,65.6-0.2z
			 M62.9-1.9L62.9-1.9L62.9-1.9z M16.1-16.6l8.4-14.6c1.5-2.4,1.5-5.4,0-7.9l-8.3-14.7c-0.3-0.5-0.3-1-0.1-1.5l4.6-11.2
			c0.3-0.6,0.9-1,1.5-1h36.5c0.6,0,1.1,0.3,1.4,0.8l17.8,30.9c0,0,0,0,0,0.1c0.4,0.6,0.1,1.2,0,1.5L60.1-3.5
			c-0.3,0.5-0.7,0.7-1.2,0.7c-0.1,0-0.2,0-0.3,0H22.2c-0.6,0-1.3-0.4-1.5-1L16-15C15.8-15.6,15.8-16.1,16.1-16.6z M56.8-16.8
			L65-31.1c1.5-2.4,1.5-5.4,0-8l-8.3-14.4c-1.4-2.5-4-4-6.9-4H28.5c-1.8,0-3.2,1.4-3.2,3.2c0,1.8,1.4,3.2,3.2,3.2h21.4
			c0.6,0,1.1,0.3,1.4,0.8l8.3,14.4c0.2,0.3,0.4,0.9,0,1.5L51.2-20c-0.3,0.5-0.8,0.8-1.4,0.8H28.5c-1.8,0-3.2,1.4-3.2,3.2
			s1.4,3.2,3.2,3.2h21.4C52.7-12.8,55.3-14.3,56.8-16.8z"/>
	</g>
	<g id="Medium-S" transform="matrix(1 0 0 1 1699.83 696)">
		<path d="M21.8,0.6l17.8-30.8c1.9-3.1,1.9-6.8,0-9.9L21.8-70.8c-0.8-1.3-2.5-1.8-3.8-1c-1.3,0.8-1.8,2.5-1,3.8l17.9,30.9
			c0.8,1.3,0.8,2.8,0,4.2L17.1-2.2c-0.8,1.3-0.3,3,1,3.8C18.5,1.8,19,2,19.5,2C20.4,2,21.3,1.5,21.8,0.6z M64.8-0.8
			C64.8-0.8,64.8-0.8,64.8-0.8l5-8.6l12.7-22c1.4-2.4,1.4-5.2,0-7.4L64.8-69.4c-1.4-2.3-3.8-3.7-6.5-3.7H22.2c-3,0-5.7,1.8-6.9,4.5
			c0,0,0,0.1,0,0.1l-4.6,11.1c-0.9,2.2-0.7,4.7,0.5,6.7l8.2,14.6c0.4,0.6,0.4,1.3,0,1.9L11-19.7c0,0,0,0.1,0,0.1
			c-1.1,2.1-1.3,4.3-0.5,6.5c0,0,0,0.1,0,0.1l4.7,11.1c1.1,2.8,3.9,4.6,7,4.6h36c0.2,0,0.3,0,0.5,0C61.2,2.8,63.4,1.5,64.8-0.8z
			 M62.4-2.2L62.4-2.2L62.4-2.2z M15.8-17l5.7-10l2.6-4.4c1.4-2.3,1.4-5.1,0-7.5l-8.2-14.6c-0.3-0.6-0.4-1.2-0.1-1.8l4.6-11.1
			c0.4-0.8,1.1-1.3,1.9-1.3h36.1c0.7,0,1.3,0.3,1.7,1L77.7-36c0.3,0.6,0.3,1.2,0,1.8L60.1-3.6c-0.5,0.8-1.1,0.9-1.6,0.9
			c-0.1,0-0.2,0-0.2,0H22.1c-0.8,0-1.6-0.5-1.9-1.2l-4.6-11.1C15.4-15.7,15.4-16.3,15.8-17z M56.1-17.2l8.2-14.2
			c1.4-2.3,1.4-5.1,0-7.5l-8.2-14.2c-1.4-2.3-3.8-3.8-6.5-3.8H28.4c-1.5,0-2.8,1.2-2.8,2.8c0,1.5,1.2,2.8,2.8,2.8h21.2
			c0.7,0,1.3,0.3,1.7,1l8.2,14.2c0.4,0.6,0.4,1.3,0,1.9L51.3-20c-0.4,0.6-1,1-1.7,1H28.4c-1.5,0-2.8,1.2-2.8,2.8
			c0,1.5,1.2,2.8,2.8,2.8h21.2C52.3-13.4,54.7-14.8,56.1-17.2z"/>
	</g>
	<g id="Regular-S" transform="matrix(1 0 0 1 1403.58 696)">
		<path d="M21.2,0l17.6-30.5c1.8-2.9,1.8-6.5,0-9.4L21.2-70.3c-0.6-1.1-2.1-1.5-3.2-0.9c-1.1,0.6-1.5,2.1-0.9,3.2l17.7,30.5
			c0.9,1.4,0.9,3.1,0,4.6L17.1-2.3c-0.6,1.1-0.3,2.6,0.9,3.2c0.4,0.2,0.8,0.3,1.2,0.3C20,1.2,20.8,0.8,21.2,0z M63.8-1.3
			C63.8-1.4,63.8-1.4,63.8-1.3l4.8-8.3l12.7-22c1.3-2.2,1.3-4.9,0-7L63.8-68.9c-1.3-2.2-3.6-3.5-6.1-3.5H22c-2.8,0-5.3,1.7-6.5,4.3
			c0,0,0,0.1,0,0.1l-4.5,11c-0.8,2-0.7,4.4,0.4,6.3l8.1,14.4c0.4,0.7,0.4,1.5,0,2.3l-8.3,14.4c0,0,0,0,0,0.1c-1,2-1.2,4.1-0.4,6.1
			c0,0,0,0.1,0,0.1l4.6,11C16.4,0.2,19.1,2,21.9,2h35.6c0.2,0,0.3,0,0.5,0C60.4,2,62.5,0.8,63.8-1.3z M61.8-2.6L61.8-2.6L61.8-2.6z
			 M15.3-17.4l8.2-14.3c1.3-2.2,1.3-4.8,0-7l-8.2-14.4c-0.4-0.7-0.4-1.5-0.2-2.1l4.5-11c0.4-0.9,1.3-1.5,2.2-1.5h35.7
			c0.9,0,1.6,0.4,2,1.2l17.5,30.3c0.4,0.7,0.4,1.5,0,2.2L59.8-3.8c-0.3,0.4-0.9,1.1-1.9,1.1c-0.1,0-0.1,0-0.2,0h-6.1H21.9
			c-0.9,0-1.9-0.6-2.2-1.5l-4.6-11C14.8-15.9,14.9-16.6,15.3-17.4z M55.1-17.6l8.1-14c1.3-2.2,1.3-4.8,0-7l-8.1-14.1
			c-1.3-2.2-3.6-3.5-6.1-3.5h-21c-1.3,0-2.3,1.1-2.3,2.3c0,1.3,1.1,2.3,2.3,2.3h21c0.9,0,1.6,0.4,2,1.2l8.1,14.1
			c0.4,0.7,0.4,1.5,0,2.3l-8.1,14.1c-0.4,0.8-1.1,1.2-2,1.2h-21c-1.3,0-2.3,1.1-2.3,2.3c0,1.3,1.1,2.3,2.3,2.3h21
			C51.6-14.1,53.9-15.4,55.1-17.6z"/>
	</g>
	<g id="Light-S" transform="matrix(1 0 0 1 1107.6 696)">
		<path d="M20.6-0.5L38-30.7c1.7-2.8,1.7-6.1,0-8.9L20.6-69.7c-0.5-0.9-1.7-1.2-2.6-0.7c-0.9,0.5-1.2,1.7-0.7,2.6l17.5,30.2
			c0.9,1.5,0.9,3.3,0,4.9L17.2-2.5c-0.5,0.9-0.2,2.1,0.7,2.6c0.3,0.2,0.6,0.3,1,0.3C19.6,0.4,20.2,0.1,20.6-0.5z M62.6-1.9
			C62.6-1.9,62.6-1.9,62.6-1.9l17.3-30c1.2-2.1,1.2-4.5,0-6.5L62.7-68.3c-1.2-2.1-3.3-3.3-5.7-3.3H31.5h-9.9c-2.6,0-5,1.6-6.1,4.1
			L11-56.6c-0.8,1.9-0.6,4.1,0.4,5.9l8.1,14.3c0.5,0.9,0.5,1.8,0,2.6l-8.2,14.3c-1,1.8-1.1,3.8-0.4,5.8c0,0,0,0.1,0,0.1l4.6,10.9
			c1,2.4,3.5,4.1,6.1,4.1h10.8h15.3h9.2c0.2,0,0.3,0,0.5,0C59.4,1.2,61.4,0.1,62.6-1.9z M14.6-17.7l8.2-14.2c1.2-2,1.2-4.5,0-6.5
			l-8.1-14.3c-0.4-0.8-0.5-1.7-0.2-2.5L19-66c0.5-1,1.5-1.7,2.6-1.7H57c1,0,1.8,0.5,2.3,1.4l17.3,30c0.5,0.8,0.5,1.7,0,2.6L59.3-3.9
			c-0.3,0.5-1,1.3-2.3,1.2c-0.1,0-0.1,0-0.2,0H34.7H21.5c-1.1,0-2.1-0.7-2.5-1.7l-4.5-10.9C14.1-16.1,14.2-16.9,14.6-17.7z M61-2.9
			L61-2.9L61-2.9z M54.1-18l8-13.9c1.2-2,1.2-4.5,0-6.5l-8-13.9c-1.2-2.1-3.3-3.3-5.7-3.3H27.6c-1.1,0-1.9,0.9-1.9,1.9
			c0,1.1,0.9,1.9,1.9,1.9h20.7c1,0,1.8,0.5,2.3,1.4l8,13.9c0.5,0.9,0.5,1.8,0,2.6l-8,13.9c-0.5,0.9-1.3,1.4-2.3,1.4H27.6
			c-1.1,0-1.9,0.9-1.9,1.9c0,1.1,0.9,1.9,1.9,1.9h20.7C50.7-14.7,52.9-15.9,54.1-18z"/>
	</g>
	<g id="Thin-S" transform="matrix(1 0 0 1 811.863 696)">
		<path d="M19.5-1.1l17.3-29.8c1.6-2.6,1.6-5.8,0-8.4L19.5-69.1c-0.4-0.7-1.4-1-2.1-0.6c-0.7,0.4-1,1.4-0.6,2.1l17.3,29.9
			c1,1.7,1,3.6,0,5.2L16.8-2.7c-0.4,0.7-0.2,1.7,0.6,2.1c0.2,0.1,0.5,0.2,0.8,0.2C18.7-0.4,19.2-0.6,19.5-1.1z M61.1-2.5
			C61.1-2.5,61.1-2.5,61.1-2.5l7.6-13.2l9.5-16.4c1.1-1.9,1.1-4.2,0-6L61.1-67.8c-1.1-1.9-3.1-3.1-5.3-3.1H44.6H20.8
			c-2.4,0-4.6,1.5-5.7,3.8l-4.4,10.8c-0.7,1.8-0.6,3.8,0.4,5.5l3.6,6.4l4.3,7.7c0.6,1,0.6,2,0,3l-8.1,14.1c-0.9,1.8-1.1,3.6-0.4,5.4
			l4.5,10.8c0.9,2.3,3.2,3.8,5.7,3.8h19.4h15.5c0.2,0,0.3,0,0.4,0C58.2,0.4,60-0.6,61.1-2.5z M55.8-67.8c1.1,0,2.1,0.5,2.7,1.5
			l17.1,29.6c0.6,0.9,0.5,2,0,3L58.5-4c-0.6,1-1.5,1.5-2.6,1.4c0,0-0.1,0-0.1,0h-9.3H20.8c-1.2,0-2.4-0.8-2.9-1.9l-4.5-10.7
			c-0.4-1-0.3-1.9,0.2-2.8l8.1-14c1.1-1.9,1.1-4.1,0-6.1l-8-14.1c-0.5-0.8-0.6-1.9-0.2-2.8l4.4-10.7c0.5-1.2,1.7-1.9,2.9-1.9H55.8z
			 M59.8-3.3L59.8-3.3L59.8-3.3z M52.6-18.3l7.9-13.7c1.1-1.9,1.1-4.1,0-6.1l-8-13.8c-1.1-1.9-3.1-3.1-5.3-3.1H26.8
			c-0.8,0-1.5,0.7-1.5,1.5c0,0.8,0.7,1.5,1.5,1.5h20.5c1.1,0,2.1,0.5,2.7,1.5l8,13.8c0.6,1,0.6,2,0,3l-8,13.8
			c-0.6,1-1.5,1.5-2.7,1.5H26.8c-0.8,0-1.5,0.7-1.5,1.5c0,0.8,0.7,1.5,1.5,1.5h20.5C49.5-15.3,51.5-16.4,52.6-18.3z"/>
	</g>
	<g id="Ultralight-S" transform="matrix(1 0 0 1 515.649 696)">
		<path d="M17.8-1.7l17.1-29.5c1.5-2.5,1.5-5.4,0-7.9L17.8-68.6c-0.3-0.5-1-0.7-1.6-0.4c-0.5,0.3-0.7,1-0.4,1.6L33-37.9
			c1.1,1.8,1.1,3.8,0,5.6L15.9-2.8c-0.3,0.5-0.1,1.2,0.4,1.6c0.2,0.1,0.4,0.2,0.6,0.2C17.2-1.1,17.6-1.3,17.8-1.7z M59-3
			C59-3,59.1-3,59-3L72-25.5l4-6.9c1-1.8,1-3.9,0-5.6L65.2-56.6l-6.1-10.6C58-69,56.2-70,54.1-70H36H19.6c-2.2,0-4.3,1.4-5.3,3.5
			L9.9-55.9c-0.7,1.6-0.5,3.5,0.4,5.1l7.9,13.9c0.6,1.1,0.6,2.3,0,3.3l-8,14c-0.9,1.6-1,3.3-0.3,5.1l4.5,10.7c0.9,2.1,3,3.5,5.3,3.5
			H43h11c0.1,0,0.3,0,0.4,0C56.3-0.4,57.9-1.3,59-3z M54.1-67.8c1.2,0,2.3,0.6,3,1.7L74-36.8c0.6,1,0.6,2.2,0,3.3L57.1-4.2
			c-0.5,0.8-1.5,1.7-2.9,1.6c0,0-0.1,0-0.1,0H37.2H19.5c-1.4,0-2.7-0.9-3.2-2.1l-4.4-10.6c-0.4-1.1-0.3-2.1,0.2-3.1l8-13.9
			c1.1-1.7,1.1-3.8,0-5.6l-7.9-13.9C11.7-52.9,11.6-54,12-55l4.4-10.6c0.6-1.3,1.9-2.1,3.2-2.1H54.1z M58.1-3.6L58.1-3.6L58.1-3.6z
			 M50.6-18.7l7.9-13.6c1.1-1.7,1.1-3.8,0-5.6l-7.9-13.6c-1-1.8-2.8-2.8-4.9-2.8H25.4c-0.6,0-1.1,0.5-1.1,1.1s0.5,1.1,1.1,1.1h20.3
			c1.2,0,2.3,0.6,3,1.7l7.9,13.6c0.6,1.1,0.6,2.3,0,3.3l-7.9,13.6c-0.6,1.1-1.7,1.7-3,1.7H25.4c-0.6,0-1.1,0.5-1.1,1.1
			c0,0.6,0.5,1.1,1.1,1.1h20.3C47.8-15.9,49.5-16.9,50.6-18.7z"/>
	</g>
</g>
</svg>
