<?xml version="1.0" encoding="utf-8"?>
<!-- Generator: Adobe Illustrator 24.1.1, SVG Export Plug-In . SVG Version: 6.00 Build 0)  -->
<svg version="1.1" id="Layer_1" xmlns="http://www.w3.org/2000/svg" xmlns:xlink="http://www.w3.org/1999/xlink" x="0px" y="0px"
	 viewBox="0 0 3300 2200" style="enable-background:new 0 0 3300 2200;" xml:space="preserve">
<style type="text/css">
	.st0{fill:#FFFFFF;}
	.st1{fill:none;stroke:#000000;stroke-width:0.5;}
	.st2{font-family:'Arial-BoldMT';}
	.st3{font-size:13px;}
	.st4{font-family:'ArialMT';}
	.st5{fill:none;stroke:#00AEEF;stroke-width:0.5;}
	.st6{fill:#27AAE1;}
	.st7{fill:none;stroke:#27AAE1;stroke-width:0.5;}
</style>
<g id="Notes">
	<rect id="artboard" class="st0" width="3300" height="2200"/>
	<line class="st1" x1="263" y1="292" x2="3036" y2="292"/>
	<text transform="matrix(1 0 0 1 263 322)" class="st2 st3">Weight/Scale Variations</text>
	<text transform="matrix(1 0 0 1 534.0632 322)" class="st4 st3">Ultralight</text>
	<text transform="matrix(1 0 0 1 843.7775 322)" class="st4 st3">Thin</text>
	<text transform="matrix(1 0 0 1 1139.035 322)" class="st4 st3">Light</text>
	<text transform="matrix(1 0 0 1 1427.0773 322)" class="st4 st3">Regular</text>
	<text transform="matrix(1 0 0 1 1723.4419 322)" class="st4 st3">Medium</text>
	<text transform="matrix(1 0 0 1 2016.1719 322)" class="st4 st3">Semibold</text>
	<text transform="matrix(1 0 0 1 2326.9705 322)" class="st4 st3">Bold</text>
	<text transform="matrix(1 0 0 1 2618.2659 322)" class="st4 st3">Heavy</text>
	<text transform="matrix(1 0 0 1 2917.5054 322)" class="st4 st3">Black</text>
	<line class="st1" x1="263" y1="1903" x2="3036" y2="1903"/>
	<g transform="matrix(1 0 0 1 263 1933)">
		<path d="M9.2,0.8c4.3,0,7.9-3.6,7.9-7.9S13.5-15,9.2-15s-7.9,3.6-7.9,7.9C1.4-2.7,5,0.8,9.2,0.8z M9.2-0.7C5.7-0.7,2.9-3.5,2.9-7
			c0-3.6,2.8-6.4,6.4-6.4s6.4,2.8,6.4,6.4C15.6-3.5,12.8-0.7,9.2-0.7z M5.7-7.1c0,0.4,0.3,0.7,0.8,0.7h2.1v2.1
			c0,0.4,0.3,0.7,0.7,0.7S10-3.9,10-4.3v-2.1h2.1c0.4,0,0.7-0.3,0.7-0.7c0-0.4-0.3-0.7-0.7-0.7H10v-2.1c0-0.4-0.3-0.8-0.7-0.8
			s-0.7,0.3-0.7,0.8v2.1H6.4C6-7.8,5.7-7.5,5.7-7.1z"/>
	</g>
	<g transform="matrix(1 0 0 1 281.867 1933)">
		<path d="M11.7,2.9c5.4,0,10-4.5,10-10c0-5.4-4.5-10-10-10c-5.4,0-10,4.5-10,10C1.7-1.6,6.3,2.9,11.7,2.9z M11.7,1.3
			C7.1,1.3,3.4-2.4,3.4-7s3.7-8.3,8.3-8.3S20-11.7,20-7.1C20-2.4,16.3,1.3,11.7,1.3z M7.2-7.1c0,0.5,0.3,0.8,0.8,0.8h2.9v2.9
			c0,0.5,0.3,0.8,0.8,0.8s0.8-0.3,0.8-0.8v-2.9h2.9c0.5,0,0.8-0.3,0.8-0.8s-0.3-0.8-0.8-0.8h-2.9v-2.9c0-0.5-0.3-0.8-0.8-0.8
			s-0.8,0.3-0.8,0.8v2.9H8C7.5-7.9,7.2-7.5,7.2-7.1z"/>
	</g>
	<g transform="matrix(1 0 0 1 305.646 1933)">
		<path d="M15,5.7c7,0,12.7-5.8,12.7-12.7c0-7-5.8-12.7-12.7-12.7C8-19.8,2.3-14,2.3-7.1C2.3-0.1,8,5.7,15,5.7z M15,3.8
			C8.9,3.8,4.1-1,4.1-7S8.9-17.9,15-17.9c6,0,10.9,4.9,10.9,10.9S21,3.8,15,3.8z M9.2-7.1c0,0.5,0.4,0.9,0.9,0.9H14v4
			c0,0.5,0.4,0.9,0.9,0.9s0.9-0.4,0.9-0.9v-4h4c0.5,0,0.9-0.4,0.9-0.9S20.3-8,19.8-8h-4v-3.9c0-0.5-0.4-0.9-0.9-0.9S14-12.4,14-11.9
			V-8h-3.9C9.6-8,9.2-7.6,9.2-7.1z"/>
	</g>
	<text transform="matrix(1 0 0 1 263 1953)" class="st2 st3">Design Variations</text>
	<text transform="matrix(1 0 0 1 263 1971)" class="st4 st3">Symbols are supported in up to nine weights and three scales.</text>
	<text transform="matrix(1 0 0 1 263 1989)" class="st4 st3">For optimal layout with text and other symbols, vertically align</text>
	<text transform="matrix(1 0 0 1 263 2007)" class="st4 st3">symbols with the adjacent text.</text>
	<line class="st5" x1="776" y1="1919" x2="776" y2="1933"/>
	<g transform="matrix(1 0 0 1 776 1933)">
		<path d="M3.3,0.2c0.5,0,0.8-0.2,1-0.7L5.5-4h5.8l1.3,3.4C12.7,0,13,0.2,13.5,0.2s0.9-0.3,0.9-0.8c0-0.2,0-0.3-0.1-0.5L9.7-13.4
			C9.4-14,9-14.3,8.4-14.3s-1,0.3-1.2,0.9L2.6-1.2C2.5-1,2.5-0.8,2.5-0.6C2.5-0.1,2.8,0.2,3.3,0.2z M6-5.5l2.4-6.6l0,0l2.4,6.6
			C10.8-5.5,6-5.5,6-5.5z"/>
	</g>
	<line class="st5" x1="793.2" y1="1919" x2="793.2" y2="1933"/>
	<text transform="matrix(1 0 0 1 776 1953)" class="st2 st3">Margins</text>
	<text transform="matrix(1 0 0 1 776 1971)" class="st4 st3">Leading and trailing margins on the left and right side of each symbol</text>
	<text transform="matrix(1 0 0 1 776 1989)" class="st4 st3">can be adjusted by modifying the x-location of the margin guidelines.</text>
	<text transform="matrix(1 0 0 1 776 2007)" class="st4 st3">Modifications are automatically applied proportionally to all</text>
	<text transform="matrix(1 0 0 1 776 2025)" class="st4 st3">scales and weights.</text>
	<g transform="matrix(1 0 0 1 1289 1933)">
		<path d="M2.8,1.9l1.7,1.7c0.9,0.9,1.8,0.8,2.8-0.2L18-8.4l-1-1L6.4,2.3C6,2.7,5.7,2.8,5.2,2.3L4.1,1.1C3.6,0.7,3.7,0.3,4.1,0
			l11.5-10.8l-1-1L3-0.9C2.1,0,2,1,2.8,1.9z M9.3-16.3c-0.4,0.4-0.4,1-0.2,1.4s0.7,0.6,1.3,0.4c1.5-0.3,3-0.4,4.4,0.5l-0.6,1.5
			c-0.3,0.8-0.2,1.4,0.4,2l2.3,2.3c0.5,0.5,0.9,0.5,1.5,0.4l1-0.2l0.7,0.7v0.6c0,0.5,0.1,0.9,0.6,1.4l0.8,0.7c0.5,0.5,1.1,0.5,1.6,0
			L26-7.5C26.5-8,26.4-8.6,26-9l-1-0.9c-0.5-0.5-0.9-0.6-1.3-0.6h-0.6l-0.6-0.6l0.2-1.1c0.1-0.6,0-1-0.6-1.6L19.9-16
			C16.6-19.3,12.1-19.2,9.3-16.3z M10.8-16c2.4-1.8,5.7-1.5,7.9,0.8l2.4,2.4c0.2,0.2,0.3,0.4,0.2,0.8L21-10.5L22.5-9l1-0.1
			c0.3,0,0.3,0,0.5,0.2l0.6,0.6l-2.4,2.4l-0.6-0.6c-0.2-0.2-0.2-0.3-0.2-0.5l0.1-1L20-9.5l-1.5,0.3c-0.3,0.1-0.5,0-0.7-0.2l-2-2
			c-0.3-0.2-0.3-0.4-0.1-0.8l0.9-2.1C15-15.8,13-16.4,11-15.8C10.7-15.7,10.6-15.9,10.8-16z"/>
	</g>
	<text transform="matrix(1 0 0 1 1289 1953)" class="st2 st3">Exporting</text>
	<text transform="matrix(1 0 0 1 1289 1971)" class="st4 st3">Symbols should be outlined when exporting to ensure the</text>
	<text transform="matrix(1 0 0 1 1289 1989)" class="st4 st3">design is preserved when submitting to Xcode.</text>
	<text id="template-version" transform="matrix(1 0 0 1 2952.4204 1933)" class="st4 st3">Template v.4.0</text>
	<text transform="matrix(1 0 0 1 2865.4575 1951)" class="st4 st3">Requires Xcode 14 or greater</text>
	<text id="descriptive-name" transform="matrix(1 0 0 1 2905.9302 1969)" class="st4 st3">Generated from fp.dav</text>
	<text transform="matrix(1 0 0 1 2912.4175 1987)" class="st4 st3">Typeset at 100 points</text>
	<text transform="matrix(1 0 0 1 263 726)" class="st4 st3">Small</text>
	<text transform="matrix(1 0 0 1 263 1156)" class="st4 st3">Medium</text>
	<text transform="matrix(1 0 0 1 263 1586)" class="st4 st3">Large</text>
</g>
<g id="Guides">
	<g id="H-reference" transform="matrix(1 0 0 1 339 696)">
		<path class="st6" d="M1,0h2.6l25.7-67.1H30v-3.3h-1.9L1,0z M11.7-24.5H47l-0.8-2.2H12.4L11.7-24.5z M55.1,0h2.6L30.6-70.5h-1.2
			v3.3L55.1,0z"/>
	</g>
	<line id="Baseline-S" class="st7" x1="263" y1="696" x2="3036" y2="696"/>
	<line id="Capline-S" class="st7" x1="263" y1="625.5" x2="3036" y2="625.5"/>
	<g id="H-reference_1_" transform="matrix(1 0 0 1 339 1126)">
		<path class="st6" d="M1,0h2.6l25.7-67.1H30v-3.3h-1.9L1,0z M11.7-24.5H47l-0.8-2.2H12.4L11.7-24.5z M55.1,0h2.6L30.6-70.5h-1.2
			v3.3L55.1,0z"/>
	</g>
	<line id="Baseline-M" class="st7" x1="263" y1="1126" x2="3036" y2="1126"/>
	<line id="Capline-M" class="st7" x1="263" y1="1055.5" x2="3036" y2="1055.5"/>
	<g id="H-reference_2_" transform="matrix(1 0 0 1 339 1556)">
		<path class="st6" d="M1,0h2.6l25.7-67.1H30v-3.3h-1.9L1,0z M11.7-24.5H47l-0.8-2.2H12.4L11.7-24.5z M55.1,0h2.6L30.6-70.5h-1.2
			v3.3L55.1,0z"/>
	</g>
	<line id="Baseline-L" class="st7" x1="263" y1="1556" x2="3036" y2="1556"/>
	<line id="Capline-L" class="st7" x1="263" y1="1485.5" x2="3036" y2="1485.5"/>
	<line id="left-margin-Regular-M" class="st5" x1="1391.3" y1="1030.8" x2="1391.3" y2="1150.1"/>
	<line id="right-margin-Regular-M" class="st5" x1="1508.4" y1="1030.8" x2="1508.4" y2="1150.1"/>
</g>
<g id="Symbols">
	<g id="Black-L" transform="matrix(1 0 0 1 2854.19 1556)">
		<path d="M45.4-58.3c-1.5,0-4.6,0-4.6,0L30-13.9c0,0,0,0,7.1,0s16.3-17.9,16.3-30.8C53.5-57.8,46.9-58.3,45.4-58.3z M41.1-27.5
			l4.8-19.7c0.1,0.7,0.1,1.5,0.1,2.4C45.9-38.9,43.6-32.3,41.1-27.5z M82.8-44.7L88.6-25H76.1L82.8-44.7z M115.4,6.3
			c-1.1,0-2.2-0.2-3.2-0.6c-0.8,0.2-1.6,0.3-2.4,0.3H93.8c-4.5,0-8.3-3-9.4-7.3l-1.3-5.2h-1.1l-1.3,5.2C79.8,3,75.9,6,71.5,6h-12
			c-3,0-5.7-1.3-7.6-3.7c-0.2-0.3-0.5-0.6-0.7-1c-4.5,2.4-9.1,3.5-13.8,3.5C31.9,4.9,27,4.9,23,5c-6.9,0.1-11.1,0.2-11.4,0.2l-0.3,0
			C6.7,5.2,2.6,2,1.7-2.3c-0.9-4.1,0.8-8.1,4.2-10.2c1-4.5,2.4-10.9,4-17.7c1.5-6.8,2.8-12.4,3.8-17c2.2-9.7,3.4-15,3.9-17.3
			c-0.9-2.7-0.5-5.6,1.2-8.1c1.7-2.6,4.7-4.2,8.1-4.2l0.9,0c4,0,20-0.1,21.5-0.1c4.6,0,11.7,1.8,17.4,6.6c1.8-2.5,4.7-4,7.8-4h17.2
			c0.9,0,1.8,0.1,2.6,0.4c0.9-0.3,1.8-0.4,2.7-0.4h17.2c4.5,0,8.4,3.1,9.4,7.4l0.5,2.3c0-0.9,0.2-1.8,0.4-2.7c1.3-4,5-6.8,9.2-6.8
			h13.5c3.7,0,7.1,2.2,8.7,5.5c1.6,3.3,1.1,7.4-1.2,10.2c-0.1,0.1-0.1,0.2-0.2,0.3c-0.9,3-3.7,11.9-6.8,22c-1.5,4.8-3,9.8-4.5,14.6
			c-1.1,3.4-2.1,6.7-3,9.7c-0.2,0.9-0.5,2.1-0.7,3.2c2,2.9,2.2,6.6,0.6,9.8c-1.6,3.2-4.9,5.2-8.6,5.2H115.4z M37.4-4.7
			c6,0,11.8-3,16.7-8C61.8-20.6,67-33.3,67-46.6c0-3.6-0.6-6.6-1.5-9c-4.1-11.1-15.4-11.6-16.3-11.6c-1.7,0-22.3,0.1-22.3,0.1
			s0.8,2.2,0.3,4S18-22.3,14.9-8.8c-0.6,2.8-3.6,4.3-3.6,4.3S21.9-4.7,37.4-4.7z M107.5-3.6l-17.7-59c-0.2-0.7-0.3-1.4-0.3-2.2
			l-14.9,0c0,0,0.8,0.7,0.6,2.2c0,0-0.7,2.6-1.7,6.7c0.7,2.7,1.1,5.8,1.1,9.3c0,14.7-5.4,28.5-13.7,37.7c-0.9,3.3-1.4,5.3-1.4,5.3
			h12l3.1-12.6h16.2l3.1,12.6H107.5z M147.3-64.5h-13.5c0,0,1.8,1.3,1.3,2.2c-0.4,1-11.2,38.5-11.2,38.5l-9.6-41h-15
			c0,0.5,0,1-0.1,1.5c2,6.7,11.5,36.9,18,57.3c0.3,0.8,0.4,1.7,0.3,2.5h14.1c0,0-2.1-3.1-1.8-5.3c0.3-1.8,1.3-5.9,1.3-5.9
			s14.5-47,14.8-47.7C146-62.9,147.3-64.5,147.3-64.5z"/>
	</g>
	<g id="Heavy-L" transform="matrix(1 0 0 1 2558.42 1556)">
		<path d="M45-58c-1.5,0-4.5,0-4.5,0L29.9-14.3c0,0,0,0,7,0S53-31.9,53-44.6C53-57.4,46.5-58,45-58z M40.7-27.6L45.4-47
			c0.1,0.7,0.1,1.5,0.1,2.4C45.5-38.8,43.2-32.3,40.7-27.6z M81.8-44.5l5.8,19.4H75.2L81.8-44.5z M114,5.2c-1.1,0-2.1-0.2-3.2-0.6
			C110,4.9,109.3,5,108.5,5H92.7c-4.2,0-7.8-2.8-8.8-6.9l-1.3-5.5h-1.7l-1.3,5.5c-1,4.1-4.6,6.9-8.8,6.9H58.9
			c-2.8,0-5.4-1.3-7.1-3.5c-0.3-0.4-0.6-0.8-0.8-1.3c-4.4,2.4-9.1,3.6-13.8,3.6c-14.8,0-25.4,0.3-25.5,0.3l-0.2,0
			c-4.4,0-8.2-3-9.1-7.1c-0.8-3.9,0.8-7.8,4.1-9.7C7.4-16.5,8.6-22,9.9-28l0.5-2.2c4.7-20.8,6.9-30.6,7.7-33.9
			c-0.9-2.6-0.5-5.3,1.1-7.7c1.6-2.4,4.4-3.9,7.6-3.9l0.9,0c4,0,19.7-0.1,21.1-0.1c4.6,0,11.6,1.8,17.2,6.7c1.6-2.6,4.5-4.2,7.6-4.2
			h16.9c0.9,0,1.7,0.1,2.6,0.4c0.9-0.3,1.7-0.4,2.6-0.4h16.9c4.2,0,7.9,2.9,8.8,7l1.6,6.6c0.1-0.4,0.2-0.8,0.3-1.2
			c-0.7-1.9-0.7-3.9-0.1-5.8c1.2-3.8,4.7-6.4,8.7-6.4h13.3c3.5,0,6.7,2,8.2,5.2c1.5,3.1,1,6.9-1.2,9.6c-0.1,0.1-0.2,0.2-0.3,0.3
			c-1.3,4-6.2,19.8-11.1,35.8c-1,3.3-2,6.6-3,9.7c-0.2,0.9-0.5,2.3-0.7,3.3c0,0,0,0.1,0.1,0.1c1.9,2.7,2.1,6.3,0.6,9.3
			c-1.5,3-4.6,4.8-8.1,4.8H114z M37.2-5.2c5.9,0,11.6-3,16.4-7.9c7.6-7.7,12.7-20.3,12.7-33.4c0-3.5-0.5-6.5-1.4-8.9
			c-4-10.9-15.1-11.5-16-11.5c-1.6,0-22,0.1-22,0.1s0.8,2.2,0.3,4C26.6-60.9,18-22.5,15-9.2c-0.5,2.7-3.6,4.3-3.6,4.3
			S21.9-5.2,37.2-5.2z M106.1-4.1L88.7-62.2c-0.2-0.7-0.3-1.4-0.3-2.1l-14.7,0c0,0,0.8,0.7,0.5,2.2c0,0-0.6,2.5-1.7,6.6
			c0.7,2.7,1.1,5.7,1.1,9.1c0,14.5-5.4,28-13.5,37.1c-0.9,3.2-1.4,5.2-1.4,5.2h11.8l3-12.4h15.9l3,12.4H106.1z M145.3-64H132
			c0,0,1.8,1.2,1.2,2.2c-0.4,1-11,37.9-11,37.9l-9.5-40.4H98c0,0.5,0,1-0.1,1.5c2,6.6,11.3,36.3,17.7,56.4c0.3,0.8,0.4,1.7,0.3,2.5
			h13.9c0,0-2.1-3-1.8-5.2c0.3-1.8,1.2-5.8,1.2-5.8s14.3-46.3,14.6-47S145.3-64,145.3-64z"/>
	</g>
	<g id="Bold-L" transform="matrix(1 0 0 1 2262.89 1556)">
		<path d="M44.4-57.6c-1.5,0-4.5,0-4.5,0l-10.4,43c0,0,0,0,6.9,0s15.8-17.3,15.8-29.9C52.2-57.1,45.8-57.6,44.4-57.6z M40.2-27.8
			l4.6-19.1c0.1,0.7,0.1,1.4,0.1,2.3C44.9-38.8,42.6-32.3,40.2-27.8z M80.6-44.4l5.7,19.1H74.1L80.6-44.4z M112.3,4.2
			c-1,0-2.1-0.2-3.1-0.6c-0.8,0.2-1.5,0.3-2.3,0.3H91.3c-3.9,0-7.3-2.7-8.3-6.5l-1.4-5.7h-2.3l-1.4,5.7c-0.9,3.8-4.3,6.5-8.3,6.5H58
			c-2.6,0-5.1-1.2-6.7-3.3c-0.4-0.5-0.7-1-1-1.6c-4.4,2.5-9,3.7-13.7,3.7C22.1,2.8,12,3.1,11.6,3.1l-0.2,0c-4.1,0-7.7-2.8-8.5-6.6
			c-0.8-3.8,0.8-7.4,4-9.2c1-4.3,2.4-10.7,3.9-17.5c0.9-4.2,1.8-7.9,2.5-11.3c2.9-12.8,4.4-19.6,5-22.1c-0.9-2.4-0.5-5.1,1-7.3
			c1.5-2.3,4.2-3.7,7.2-3.7l0.9,0c4,0,19.3-0.1,20.8-0.1c4.5,0,11.5,1.8,17.1,6.8c1.5-2.6,4.3-4.3,7.4-4.3h16.6
			c0.9,0,1.7,0.1,2.6,0.4c0.8-0.3,1.7-0.4,2.6-0.4H111c4,0,7.4,2.7,8.3,6.6l1.9,8c0.3-1.1,0.6-2,0.8-2.7c-0.7-1.8-0.8-3.8-0.2-5.6
			c1.1-3.6,4.4-6,8.1-6h13.1c3.3,0,6.3,1.9,7.7,4.9c1.4,3,1,6.5-1.1,9c-0.1,0.1-0.2,0.3-0.3,0.4c-0.8,2.7-3.4,10.9-6.3,20.3
			c-2.6,8.2-5.4,17.4-7.6,24.6c-0.2,1-0.5,2.4-0.8,3.5c0.1,0.1,0.1,0.2,0.2,0.3c1.8,2.5,2,5.9,0.5,8.7c-1.5,2.8-4.4,4.6-7.6,4.6
			H112.3z M36.7-5.7c5.9,0,11.5-2.9,16.1-7.7c7.4-7.6,12.5-20,12.5-32.8c0-3.5-0.5-6.4-1.4-8.7C60-65.7,49-66.3,48.1-66.3
			c-1.6,0-21.6,0.1-21.6,0.1s0.8,2.2,0.3,3.9S17.9-22.7,14.9-9.6c-0.5,2.7-3.5,4.2-3.5,4.2S21.6-5.7,36.7-5.7z M104.5-4.6L87.4-61.7
			c-0.2-0.7-0.3-1.4-0.3-2.1l-14.5,0c0,0,0.8,0.7,0.5,2.2c0,0-0.6,2.5-1.7,6.4c0.7,2.6,1.1,5.6,1.1,9c0,14.3-5.3,27.6-13.3,36.5
			C58.5-6.6,58-4.6,58-4.6h11.6l3-12.2h15.7l3,12.2H104.5z M143.1-63.6H130c0,0,1.8,1.2,1.2,2.2c-0.4,0.9-10.8,37.3-10.8,37.3
			L111-63.8H96.5c0,0.5,0,1-0.1,1.5c2,6.5,11.2,35.7,17.4,55.5c0.3,0.8,0.4,1.6,0.3,2.5h13.7c0,0-2-3-1.8-5.1
			c0.3-1.8,1.2-5.7,1.2-5.7s14.1-45.6,14.3-46.3S143.1-63.6,143.1-63.6z"/>
	</g>
	<g id="Semibold-L" transform="matrix(1 0 0 1 1966.99 1556)">
		<path d="M44-57.3c-1.5,0-4.4,0-4.4,0L29.3-14.9c0,0,0,0,6.8,0s15.6-17,15.6-29.4C51.7-56.7,45.4-57.3,44-57.3z M39.9-27.9
			l4.5-18.8c0.1,0.7,0.1,1.4,0.1,2.3C44.5-38.7,42.3-32.4,39.9-27.9z M79.6-44.2l5.6,18.8h-12L79.6-44.2z M110.8,3.1
			c-1,0-2-0.2-3-0.6c-0.8,0.2-1.5,0.3-2.3,0.3H90.1c-3.7,0-6.9-2.5-7.8-6.1l-1.4-5.9H78l-1.4,5.9c-0.9,3.6-4.1,6.1-7.8,6.1H57.4
			c-2.5,0-4.8-1.1-6.3-3c-0.4-0.6-0.8-1.2-1.1-1.8c-4.4,2.5-9,3.8-13.7,3.8c-14.3,0-24.3,0.3-24.7,0.3l-0.2,0c-3.9,0-7.2-2.6-8-6.2
			c-0.8-3.6,0.8-7.1,3.9-8.7c1-4.3,2.4-10.6,3.9-17.4c1.6-7.1,2.9-12.9,3.9-17.6c2-8.8,3.1-13.5,3.5-15.4c-0.9-2.3-0.5-4.8,0.9-7
			c1.4-2.1,3.9-3.4,6.7-3.5l0.9,0c3.9,0,19-0.1,20.5-0.1c3.6,0,11.1,1.5,16.9,6.9c1.3-2.7,4.1-4.5,7.2-4.5h16.4
			c0.8,0,1.7,0.1,2.5,0.4c0.8-0.3,1.7-0.4,2.5-0.4h16.4c3.7,0,6.9,2.5,7.8,6.2l2.2,9.4c0.5-1.8,0.9-3.2,1.3-4.3
			c-0.7-1.7-0.8-3.6-0.2-5.4c1-3.4,4.1-5.6,7.6-5.6h12.9c3.1,0,5.9,1.8,7.2,4.6c1.3,2.8,0.9,6.1-1,8.5c-0.1,0.1-0.2,0.3-0.3,0.4
			c-1,3.3-4.9,15.7-8.7,27.9c-1.8,5.8-3.6,11.6-5,16.3c-0.2,1-0.6,2.5-0.8,3.6c0.1,0.2,0.2,0.3,0.2,0.4c1.7,2.4,1.9,5.5,0.5,8.2
			c-1.4,2.6-4.1,4.3-7.1,4.3H110.8z M36.4-6.2c5.8,0,11.3-2.9,15.9-7.6c7.3-7.5,12.3-19.6,12.3-32.3c0-3.4-0.5-6.2-1.4-8.6
			c-3.9-10.6-14.6-11.1-15.5-11.1c-1.6,0-21.3,0.1-21.3,0.1s0.8,2.1,0.3,3.9C26.1-60,17.9-22.9,15-10c-0.5,2.7-3.5,4.1-3.5,4.1
			S21.6-6.2,36.4-6.2z M103.2-5.1L86.3-61.3C86.1-62,86-62.7,86-63.4l-14.2,0c0,0,0.8,0.7,0.5,2.1c0,0-0.6,2.4-1.6,6.3
			c0.7,2.6,1.1,5.5,1.1,8.8c0,14-5.2,27.1-13.1,35.9c-0.8,3.1-1.3,5.1-1.3,5.1h11.4l2.9-12h15.4l2.9,12H103.2z M141.1-63.1h-12.9
			c0,0,1.7,1.2,1.2,2.1c-0.4,0.9-10.6,36.7-10.6,36.7l-9.2-39.1H95.3c0,0.5,0,1-0.1,1.5c1.9,6.3,11,35.1,17.1,54.6
			c0.2,0.8,0.4,1.6,0.3,2.4h13.4c0,0-2-2.9-1.7-5.1c0.3-1.7,1.2-5.6,1.2-5.6s13.8-44.8,14.1-45.5C139.9-61.6,141.1-63.1,141.1-63.1z
			"/>
	</g>
	<g id="Medium-L" transform="matrix(1 0 0 1 1670.9 1556)">
		<path d="M44-56.9c-1.4,0-4.3,0-4.3,0L29.6-15.3c0,0,0,0,6.7,0S51.6-32,51.6-44.2C51.6-56.4,45.4-56.9,44-56.9z M39.9-28l4.5-18.4
			c0.1,0.6,0.1,1.4,0.1,2.2C44.5-38.7,42.3-32.4,39.9-28z M79-44.1l5.5,18.4H72.8L79-44.1z M109.6,2.1c-1,0-2-0.2-2.9-0.6
			c-0.8,0.2-1.5,0.4-2.3,0.4h-15c-3.4,0-6.4-2.3-7.2-5.7l-1.5-6.1h-3.5l-1.5,6.1c-0.8,3.3-3.8,5.7-7.2,5.7H57.2
			c-2.3,0-4.4-1-5.9-2.8c-0.5-0.6-0.9-1.4-1.2-2.1c-4.4,2.6-9,3.9-13.6,3.9c-14.1,0-23.9,0.2-24.3,0.3l-0.2,0
			c-3.6,0-6.8-2.4-7.5-5.8c-0.7-3.4,0.8-6.7,3.8-8.2c0.8-3.8,2.1-9.2,3.4-15.2l0.5-2.1C16.9-50.8,19-60,19.6-62.7
			c-0.9-2.2-0.6-4.5,0.8-6.6c1.3-2,3.6-3.2,6.3-3.2l0.9,0c3.9,0,18.7-0.1,20.1-0.1c3.6,0,11.1,1.5,16.7,7.1c1.1-2.8,3.9-4.7,6.9-4.7
			h16.1c0.8,0,1.7,0.1,2.5,0.4c0.8-0.3,1.6-0.4,2.5-0.4h16.1c3.5,0,6.5,2.4,7.3,5.8l2.5,10.7c0.7-2.6,1.3-4.4,1.7-5.8
			c-0.7-1.6-0.8-3.4-0.3-5.1c1-3.1,3.8-5.2,7.1-5.2h12.7c2.9,0,5.5,1.7,6.7,4.3c1.2,2.6,0.9,5.7-1,7.9c-0.1,0.2-0.3,0.4-0.4,0.6
			c-1.2,3.9-7.8,25.3-13.5,43.5c-0.3,1.1-0.6,2.6-0.8,3.7c0.1,0.2,0.2,0.4,0.3,0.6c1.6,2.2,1.8,5.2,0.5,7.7c-1.3,2.5-3.8,4-6.7,4
			H116H109.6z M36.5-6.7c5.7,0,11.1-2.8,15.6-7.5c7.2-7.4,12.1-19.3,12.1-31.8c0-3.4-0.5-6.1-1.4-8.4c-3.8-10.4-14.4-10.9-15.3-10.9
			c-1.6,0-20.9,0.1-20.9,0.1s0.8,2.1,0.3,3.8s-8.6,38.2-11.5,50.9c-0.5,2.6-3.4,4.1-3.4,4.1S22-6.7,36.5-6.7z M102.2-5.6L85.6-60.9
			c-0.2-0.7-0.3-1.3-0.3-2l-14,0c0,0,0.8,0.7,0.5,2.1c0,0-0.6,2.4-1.6,6.2c0.7,2.5,1.1,5.4,1.1,8.7c0,13.8-5.1,26.7-12.8,35.3
			c-0.8,3.1-1.3,5-1.3,5h11.3l2.9-11.8h15.2l2.9,11.8H102.2z M139.5-62.6h-12.7c0,0,1.7,1.2,1.2,2.1c-0.4,0.9-10.5,36.1-10.5,36.1
			l-9-38.5h-14c0,0.5,0,1-0.1,1.4c1.9,6.2,10.8,34.6,16.8,53.7c0.2,0.8,0.3,1.6,0.3,2.4h13.2c0,0-2-2.9-1.7-5
			c0.3-1.7,1.2-5.5,1.2-5.5s13.6-44.1,13.9-44.7S139.5-62.6,139.5-62.6z"/>
	</g>
	<g id="Regular-L" transform="matrix(1 0 0 1 1374.99 1556)">
		<path d="M43.7-56.5c-1.4,0-4.2,0-4.2,0l-9.9,40.9c0,0,0,0,6.6,0s15-16.5,15-28.4C51.2-56,45.1-56.5,43.7-56.5z M39.3-26.2
			l5.3-21.9c0.1,0.8,0.1,1.6,0.1,2.7C44.7-38.9,42.1-31.5,39.3-26.2z M78.2-43.9l5.4,18.1H72L78.2-43.9z M143.8-65.1
			c-1.2-2.4-3.6-4-6.3-4h-12.5c-3,0-5.7,2-6.6,4.9c-0.5,1.7-0.4,3.4,0.3,4.9c-0.5,1.6-1.1,3.8-2.1,7.2L113.8-64
			c-0.7-3.1-3.5-5.4-6.8-5.4h-6.2h-9.6c-0.8,0-1.7,0.2-2.5,0.5c-0.8-0.3-1.6-0.5-2.4-0.5l-15.8,0c-2.9,0-5.5,1.8-6.5,4.6
			c0,0.1-0.1,0.3-0.1,0.4c-5.4-5.7-12.8-7.3-16.6-7.3c-1.5,0-19.8,0.1-20.6,0.1c-2.3,0-4.6,1-5.8,3c-1.2,1.9-1.5,4.2-0.7,6.3
			c-0.5,1.8-1.7,7.1-4.2,18.4c-0.9,3.8-1.9,8.4-3.1,13.7C11.4-23.4,10-17.1,9-13c-3,1.3-4.4,4.5-3.7,7.7c0.7,3.2,3.7,5.4,7,5.4
			c0.1,0,0.1,0,0.2,0c0.1,0,9.9-0.3,23.9-0.3c4.8,0,9.4-1.5,13.6-4.1c0.2,0.9,0.6,1.7,1.2,2.5c1.3,1.7,3.3,2.7,5.5,2.7h11.1
			c3.2,0,6-2.2,6.7-5.3l1.5-6.3h4l1.5,6.3c0.8,3.1,3.5,5.3,6.7,5.3h14.8c0.8,0,1.5-0.1,2.3-0.4c0.9,0.4,1.9,0.6,2.9,0.6H123
			c2.6,0,5-1.4,6.2-3.7c1.2-2.3,1-5-0.5-7.2c-0.1-0.2-0.3-0.5-0.4-0.7c0.2-1.1,0.6-2.7,0.8-3.8c4.8-15.6,12-38.7,13.3-42.9
			c0.1-0.2,0.3-0.4,0.4-0.6C144.6-59.9,145-62.7,143.8-65.1z M12.3-6.9c0,0,2.8-1.4,3.3-4c2.8-12.5,10.8-48.3,11.3-50
			s-0.3-3.7-0.3-3.7s19-0.1,20.6-0.1c0.8,0,11.2,0.5,15,10.7c0.8,2.3,1.3,5,1.3,8.3c0,12.2-4.8,24-11.9,31.2
			c-4.5,4.6-9.8,7.4-15.3,7.4C22.1-7.1,12.3-6.9,12.3-6.9z M88.3-6.1l-2.8-11.6H70.6L67.7-6.1H56.7c0,0,0.5-1.9,1.3-4.9
			c7.6-8.5,12.6-21.1,12.6-34.7c0-3.2-0.4-6-1.1-8.5c1-3.8,1.6-6.1,1.6-6.1c0.3-1.4-0.5-2.1-0.5-2.1l13.8,0c0,0.7,0.1,1.3,0.3,2
			l16.3,54.3H88.3z M136.1-60.1c-0.3,0.6-13.6,44-13.6,44s-0.9,3.7-1.2,5.4c-0.3,2.1,1.7,4.9,1.7,4.9h-13c0-0.8-0.1-1.6-0.3-2.3
			C103.8-27,95.1-54.9,93.2-61c0.1-0.5,0.1-0.9,0.1-1.4h13.8l8.9,37.8c0,0,9.9-34.6,10.3-35.5c0.5-0.9-1.2-2.1-1.2-2.1h12.5
			C137.6-62.2,136.4-60.8,136.1-60.1z"/>
	</g>
	<g id="Light-L" transform="matrix(1 0 0 1 1079.2 1556)">
		<path d="M43-56.4c-1.4,0-4.2,0-4.2,0l-9.8,40.6c0,0,0,0,6.5,0s15-16.4,15-28.2C50.4-55.9,44.4-56.4,43-56.4z M36.8-23.6l6.2-25.7
			c0.5,0.5,1.3,2.2,1.3,6C44.3-35.5,39.7-26.7,36.8-23.6z M77.3-43.9l5.4,18H71.1L77.3-43.9z M141.5-64.5c-1-2-3-3.3-5.2-3.3h-12.4
			c-2.5,0-4.7,1.6-5.5,4c-0.5,1.5-0.3,3.1,0.4,4.4c-0.6,2-1.6,5.6-3.4,11.8l-3.8-16.1c-0.6-2.6-2.9-4.4-5.6-4.4H90.3
			c-0.9,0-1.7,0.2-2.4,0.5c-0.7-0.3-1.6-0.5-2.4-0.5l-15.7,0c-2.4,0-4.6,1.5-5.4,3.8c-0.3,1-0.4,2-0.3,2.9c-5.2-7.1-13.4-9-17.5-9
			c-1.5,0-19.7,0.1-20.5,0.1c-1.9,0-3.7,0.9-4.8,2.5c-1,1.6-1.3,3.5-0.6,5.2c0,0.1,0.1,0.2,0.1,0.4c-0.5,2-2.5,10.7-7.3,32.1
			c-1.6,6.9-3,13.4-3.9,17.5c-0.1,0.1-0.3,0.2-0.4,0.3c-2.5,1.1-3.7,3.8-3.1,6.4c0.6,2.6,3,4.4,5.7,4.4c0.1,0,0.1,0,0.2,0
			c0.1,0,9.8-0.3,23.7-0.3c5.1,0,10-1.8,14.4-4.8c0,1.3,0.4,2.6,1.2,3.7c1.1,1.4,2.8,2.2,4.5,2.2h11c2.6,0,5-1.8,5.6-4.4l1.7-7.1H80
			l1.7,7.1c0.6,2.6,2.9,4.4,5.6,4.4H102c0.8,0,1.6-0.2,2.3-0.5c0.8,0.5,1.8,0.7,2.8,0.7h14.7c2.1,0,4.1-1.2,5.1-3.1
			c1-1.9,0.9-4.2-0.3-5.9c-0.2-0.3-0.5-0.9-0.6-1.3c0.2-1.1,0.6-3,0.9-4.2c4.9-15.8,12.1-39.1,13.3-42.9c0.2-0.2,0.4-0.5,0.6-0.8
			C142.1-60.1,142.4-62.5,141.5-64.5z M35.7-7.3c-14.2,0-23.9,0.3-23.9,0.3s2.8-1.4,3.3-4c2.8-12.4,10.7-48,11.2-49.7
			s-0.3-3.7-0.3-3.7s18.9-0.1,20.4-0.1c0.9,0,12.6,0.6,15.5,12.8c0.4,1.8,0.7,3.8,0.7,6.1c0,11.1-4,21.9-10.1,29.1
			C48-10.9,42-7.3,35.7-7.3z M84.5-17.8H69.7L66.9-6.3h-11c0,0,0.7-3,2-7.5c6.5-8.2,10.7-19.6,10.7-31.9c0-2.2-0.2-4.2-0.5-6
			c1.3-5.2,2.2-8.6,2.2-8.6c0.3-1.4-0.5-2-0.5-2l14.8,0c0,0.6,0.1,1.1,0.2,1.7l16.3,54.3H87.3L84.5-17.8z M134.9-60
			c-0.3,0.6-13.5,43.7-13.5,43.7s-0.9,3.7-1.2,5.4c-0.3,2,1.7,4.9,1.7,4.9h-14.1c0-0.7-0.1-1.3-0.3-2c-6-19.1-14.9-47.3-16.5-52.8
			c0.1-0.5,0.2-1,0.2-1.5H106l8.8,37.6c0,0,9.8-34.4,10.2-35.3c0.5-0.9-1.2-2-1.2-2h12.4C136.3-62,135.1-60.6,134.9-60z"/>
	</g>
	<g id="Thin-L" transform="matrix(1 0 0 1 783.716 1556)">
		<path d="M42.1-56.1c-1.4,0-4.2,0-4.2,0L28.2-16c0,0,0,0,6.4,0s14.7-16.1,14.7-27.9C49.4-55.6,43.5-56.1,42.1-56.1z M34.6-21.1
			l7.3-30c0,0,2.5,2.5,2.5,7.2C44.3-33.6,37.5-22.3,34.6-21.1z M75.9-43.7L81.2-26H69.8L75.9-43.7z M138.7-63.8
			c-0.8-1.8-2.6-2.9-4.6-2.9h-12.2c-2.3,0-4.4,1.4-5,3.6c-0.4,1.5-0.2,3,0.6,4.2c-0.7,2.2-1.9,6.3-4.1,14.1l-4.3-18.2
			c-0.5-2.3-2.6-3.9-4.9-3.9H88.7c-0.8,0-1.7,0.2-2.4,0.6c-0.7-0.4-1.5-0.6-2.4-0.6l-15.5,0c-2.1,0-4,1.3-4.7,3.3
			c-0.4,1.2-0.4,2.5,0.1,3.6c-0.1,0.3-0.2,0.7-0.3,1.2c-4.8-8.2-13.7-10.4-17.8-10.4c-1.5,0-19.4,0.1-20.2,0.1
			c-1.7,0-3.3,0.8-4.2,2.2c-0.9,1.4-1.1,3.1-0.5,4.6c0.1,0.2,0.1,0.5,0.1,0.6c-0.4,1.6-10.2,45.2-11.1,49.2C9.5-12.3,9.1-12,9.1-12
			C7-10.9,5.9-8.5,6.4-6.2C7-4,9-2.4,11.3-2.4c0,0,9.8-0.3,23.6-0.3c5.4,0,10.5-2,15.1-5.5c0,0.2-0.1,0.3-0.1,0.3
			c-0.4,1.5,0,3.1,0.9,4.3c1,1.2,2.4,1.9,4,1.9h10.8c2.3,0,4.3-1.6,4.9-3.8l1.8-7.5h6.7l1.8,7.5c0.6,2.3,2.6,3.8,4.9,3.8h14.5
			c0.8,0,1.6-0.2,2.3-0.6c0.8,0.5,1.7,0.8,2.7,0.8h14.5c1.9,0,3.6-1,4.5-2.7c0.9-1.7,0.8-3.7-0.3-5.2c-0.3-0.4-0.6-1.2-0.8-1.6
			c0.2-1.1,0.7-3.1,1-4.4c4.9-15.7,12.1-39,13.1-42.4c0.2-0.2,0.4-0.6,0.7-0.9C139.2-60,139.5-62.1,138.7-63.8z M34.9-7.7
			c-14,0-23.6,0.3-23.6,0.3s2.8-1.4,3.3-3.9c2.8-12.2,10.6-47.4,11.1-49c0.5-1.6-0.3-3.7-0.3-3.7s18.7-0.1,20.2-0.1
			c0.9,0,13.3,0.6,15.6,14c0.2,1.4,0.4,2.9,0.4,4.6c0,10.3-3.5,20.3-8.9,27.4C47.9-11.7,41.5-7.7,34.9-7.7z M85.8-6.7L83.1-18H68.4
			L65.7-6.7H54.8c0,0,0.9-3.7,2.4-9c5.8-7.8,9.4-18.5,9.4-29.9c0-1.6-0.1-3-0.3-4.4c1.5-6,2.6-10,2.6-10c0.3-1.4-0.5-2-0.5-2l15.3,0
			c0,0.2-0.2,1.4,0,2C83.8-59.2,100-6.7,100-6.7H85.8z M132.7-59.6c-0.3,0.6-13.4,43.1-13.4,43.1s-0.9,3.7-1.1,5.3
			c-0.3,2,1.6,4.8,1.6,4.8l-14.5-0.1c0-0.6,0-1.1-0.2-1.6c-2-6.3-16.2-53.1-16.2-53.1c0-0.2,0-0.4,0-0.6h15.3l8.7,37.1
			c0,0,9.7-33.9,10.1-34.8c0.5-0.9-1.1-2-1.1-2h12.2C134.1-61.6,133-60.3,132.7-59.6z"/>
	</g>
	<g id="Ultralight-L" transform="matrix(1 0 0 1 487.631 1556)">
		<path d="M40.6-56c-1.4,0-4.1,0-4.1,0l-9.7,39.9c0,0,0,0,6.4,0s14.7-16,14.7-27.7C47.9-55.5,42-56,40.6-56z M31.6-19.9
			c1.9-7.1,7.2-29.6,7.8-32.3c3.3,0,4.9,3.2,4.7,8.4C43.5-29.8,36.1-19.2,31.6-19.9z M68.2-26h11.3l-5.3-17.7L68.2-26z M135.5-63.1
			c-0.6-1.3-1.9-2.1-3.4-2.1H120c-1.7,0-3.2,1.1-3.7,2.7c-0.4,1.3-0.1,2.6,0.7,3.5c-0.7,2.3-2.2,7.4-5.6,19.3l-5.4-22.8
			c-0.4-1.7-1.9-2.9-3.7-2.9H87c-0.9,0-1.7,0.3-2.4,0.9c-0.7-0.5-1.5-0.9-2.4-0.9l-15.4,0c-1.6,0-3,1-3.5,2.5c-0.4,1-0.3,2.1,0.2,3
			c-0.2,0.9-0.7,2.7-1.3,5c-3.9-10.2-13.7-12.8-18.1-12.8c-1.5,0-19.3,0.1-20.1,0.1c-1.2,0-2.4,0.6-3.1,1.6c-0.7,1-0.9,2.3-0.4,3.5
			c0.1,0.4,0.2,1,0.2,1.2c-0.3,1-10.2,45-11.1,49c0,0,0,0.1,0,0.1c-0.1,0.4-0.8,1-1.3,1.3c-1.6,0.8-2.4,2.6-1.9,4.3
			C6.8-5,8.3-3.8,10-3.8c0,0,9.7-0.3,23.4-0.3c6.1,0,12.1-2.8,17.3-7.9c-0.7,2.6-1.1,4.2-1.1,4.3c-0.3,1.1,0,2.3,0.7,3.2
			c0.7,0.9,1.8,1.4,3,1.4H64c1.7,0,3.2-1.2,3.7-2.9l2.1-8.4h8.6L80.4-6c0.4,1.7,1.9,2.9,3.7,2.9h14.4c0.9,0,1.7-0.3,2.4-0.8
			c0.7,0.7,1.6,1.1,2.6,1.1h14.4c1.4,0,2.7-0.8,3.3-2c0.7-1.2,0.6-2.7-0.2-3.9c-0.5-0.7-0.9-1.8-1-2.2c0.1-3.1,13.3-44.4,14.1-47.1
			c0.2-0.3,0.5-0.7,0.8-1.1C135.9-60.2,136.1-61.8,135.5-63.1z M33.5-7.8C19.5-7.8,10-7.6,10-7.6s2.8-1.4,3.3-3.9
			c2.8-12.2,10.5-47.1,11-48.8c0.5-1.6-0.3-3.6-0.3-3.6S42.6-64,44.1-64c1,0,15.3,0.7,15.9,17.5c0,0.4,0,0.7,0,1.1
			c0,8.8-2.6,17.4-6.7,24.1C48.3-13.3,41.1-7.8,33.5-7.8z M84.1-6.8l-2.8-11.3H66.8L64-6.8H53.3l3.5-13c4.5-7.5,7-16.6,7-25.6
			c0-0.2,0-0.4,0-0.6l3.5-13.7c0.3-1.4-0.5-2-0.5-2l15.4,0c0,0-0.5,0.9-0.3,2c0.3,1.1,16.5,52.9,16.5,52.9H84.1z M130.7-59.5
			c-0.3,0.6-13.3,42.9-13.3,42.9s-0.9,3.6-1.1,5.3c-0.3,2,1.6,4.8,1.6,4.8h-14.4l-1.3-4.4l-2.7-8.9L87-61.8h15.4l8.6,36.9
			c0,0,9.7-33.7,10-34.6c0.5-0.9-1.1-2-1.1-2h12.2C132.1-61.5,131-60.1,130.7-59.5z"/>
	</g>
	<g id="Black-M" transform="matrix(1 0 0 1 2871.36 1126)">
		<path d="M35.8-53.2c-1.2,0-3.6,0-3.6,0l-8.3,34.4c0,0,0,0,5.5,0s12.7-13.9,12.7-23.9C42.1-52.7,37-53.2,35.8-53.2z M32.5-29.3
			l3.7-15.3c0.1,0.5,0.1,1.1,0.1,1.9C36.2-38.1,34.4-32.9,32.5-29.3z M64.8-42.5l4.5,15.3h-9.7L64.8-42.5z M90.1-3.1
			c-0.8,0-1.7-0.2-2.5-0.4c-0.6,0.2-1.2,0.2-1.8,0.2H73.3c-3.5,0-6.4-2.3-7.3-5.7l-1-4h-0.8l-1,4c-0.8,3.4-3.8,5.7-7.3,5.7h-9.3
			c-2.3,0-4.4-1-5.9-2.9c-0.2-0.2-0.4-0.5-0.5-0.8c-3.5,1.8-7.1,2.7-10.7,2.7c-4.3,0-8.1,0-11.2,0.1C13.1-4,9.8-3.9,9.6-3.9l-0.2,0
			c-3.6,0-6.7-2.4-7.5-5.8c-0.7-3.2,0.7-6.3,3.3-7.9C6-21.1,7.1-26,8.3-31.3c1.2-5.2,2.2-9.6,3-13.2c1.7-7.5,2.6-11.6,3.1-13.4
			c-0.7-2.1-0.4-4.3,0.9-6.3c1.3-2,3.7-3.2,6.3-3.3l0.7,0c3.1,0,15.5-0.1,16.7-0.1c3.6,0,9,1.4,13.5,5.1c1.4-1.9,3.6-3.1,6.1-3.1
			h13.3c0.7,0,1.4,0.1,2,0.3c0.7-0.2,1.4-0.3,2.1-0.3h13.3c3.5,0,6.5,2.4,7.3,5.8l0.4,1.8c0-0.7,0.1-1.4,0.3-2.1
			c1-3.1,3.8-5.2,7.1-5.2h10.5c2.9,0,5.5,1.7,6.7,4.3c1.2,2.6,0.9,5.7-1,7.9c0,0.1-0.1,0.1-0.2,0.2c-0.7,2.3-2.9,9.3-5.3,17
			c-1.1,3.7-2.3,7.6-3.5,11.3c-0.8,2.7-1.6,5.2-2.3,7.5c-0.2,0.7-0.4,1.6-0.6,2.5c1.6,2.2,1.7,5.2,0.5,7.6c-1.3,2.5-3.8,4-6.7,4
			H90.1z M29.6-11.6c4.7,0,9.2-2.3,12.9-6.2c5.9-6.1,10-16,10-26.3c0-2.8-0.4-5.1-1.1-7c-3.2-8.6-11.9-9-12.6-9
			c-1.3,0-17.3,0.1-17.3,0.1s0.6,1.7,0.2,3.1s-7.1,31.6-9.5,42.1c-0.4,2.2-2.8,3.4-2.8,3.4S17.6-11.6,29.6-11.6z M84-10.7L70.2-56.5
			C70.1-57,70-57.6,70-58.1l-11.6,0c0,0,0.6,0.5,0.4,1.7c0,0-0.5,2-1.3,5.2c0.6,2.1,0.9,4.5,0.9,7.2c0,11.4-4.2,22.1-10.6,29.2
			c-0.7,2.5-1.1,4.1-1.1,4.1H56l2.4-9.7H71l2.4,9.7H84z M114.8-57.9h-10.5c0,0,1.4,1,1,1.7c-0.3,0.8-8.7,29.9-8.7,29.9l-7.5-31.8
			H77.6c0,0.4,0,0.8-0.1,1.2c1.6,5.2,8.9,28.6,13.9,44.4c0.2,0.6,0.3,1.3,0.3,2h10.9c0,0-1.6-2.4-1.4-4.1c0.2-1.4,1-4.5,1-4.5
			s11.3-36.5,11.5-37C113.8-56.7,114.8-57.9,114.8-57.9z"/>
	</g>
	<g id="Heavy-M" transform="matrix(1 0 0 1 2575.48 1126)">
		<path d="M35.4-52.9c-1.2,0-3.5,0-3.5,0L23.7-19c0,0,0,0,5.4,0s12.5-13.6,12.5-23.5C41.6-52.5,36.6-52.9,35.4-52.9z M32.1-29.4
			l3.6-15c0.1,0.5,0.1,1.1,0.1,1.8C35.8-38,34.1-33,32.1-29.4z M64-42.4l4.5,15h-9.6L64-42.4z M88.9-3.9c-0.8,0-1.7-0.2-2.5-0.5
			c-0.6,0.2-1.2,0.2-1.8,0.2H72.4c-3.3,0-6.1-2.2-6.8-5.4l-1-4.2h-1.3l-1,4.2c-0.8,3.2-3.6,5.4-6.8,5.4h-9.2c-2.2,0-4.2-1-5.5-2.7
			c-0.2-0.3-0.5-0.6-0.6-1c-3.4,1.9-7,2.8-10.7,2.8C17.8-4.9,9.7-4.7,9.6-4.7l-0.2,0c-3.4,0-6.4-2.3-7-5.5c-0.7-3,0.7-6,3.2-7.5
			c0.7-3,1.6-7.3,2.7-11.9l0.4-1.7c3.6-16.1,5.3-23.7,5.9-26.2c-0.7-2-0.4-4.1,0.8-6c1.2-1.9,3.4-3,5.9-3.1l0.7,0
			c3.1,0,15.2-0.1,16.4-0.1c3.6,0,9,1.4,13.4,5.2c1.3-2,3.5-3.2,5.9-3.2h13.1c0.7,0,1.4,0.1,2,0.3c0.7-0.2,1.3-0.3,2-0.3h13.1
			c3.3,0,6.1,2.2,6.8,5.4l1.2,5.1c0.1-0.3,0.2-0.6,0.3-0.9c-0.5-1.4-0.6-3-0.1-4.5c0.9-3,3.6-4.9,6.7-4.9h10.3c2.7,0,5.2,1.6,6.3,4
			c1.2,2.4,0.8,5.4-0.9,7.5c-0.1,0.1-0.1,0.2-0.2,0.2c-1,3.1-4.8,15.4-8.6,27.8c-0.8,2.5-1.6,5.1-2.3,7.6c-0.2,0.7-0.4,1.7-0.6,2.6
			c0,0,0,0.1,0.1,0.1c1.5,2.1,1.7,4.9,0.4,7.2c-1.2,2.3-3.6,3.8-6.3,3.8H88.9z M29.3-12c4.6,0,9-2.3,12.7-6.1
			c5.9-6,9.9-15.7,9.9-25.9c0-2.7-0.4-5-1.1-6.9c-3.1-8.5-11.7-8.9-12.4-8.9c-1.3,0-17,0.1-17,0.1s0.6,1.7,0.2,3.1
			c-0.4,1.4-7,31.1-9.4,41.4c-0.4,2.1-2.8,3.3-2.8,3.3S17.5-12,29.3-12z M82.8-11.1l-13.5-45c-0.2-0.5-0.2-1.1-0.2-1.7l-11.4,0
			c0,0,0.6,0.5,0.4,1.7c0,0-0.5,2-1.3,5.1c0.6,2.1,0.9,4.4,0.9,7.1c0,11.2-4.2,21.7-10.5,28.8c-0.7,2.5-1.1,4.1-1.1,4.1h9.2l2.3-9.6
			H70l2.3,9.6H82.8z M113.2-57.6h-10.3c0,0,1.4,1,1,1.7c-0.3,0.7-8.5,29.4-8.5,29.4l-7.4-31.3H76.5c0,0.4,0,0.8-0.1,1.2
			c1.6,5.1,8.8,28.1,13.7,43.8c0.2,0.6,0.3,1.3,0.3,1.9h10.8c0,0-1.6-2.3-1.4-4c0.2-1.4,1-4.5,1-4.5s11.1-35.9,11.3-36.4
			C112.2-56.4,113.2-57.6,113.2-57.6z"/>
	</g>
	<g id="Bold-M" transform="matrix(1 0 0 1 2279.69 1126)">
		<path d="M34.9-52.6c-1.2,0-3.5,0-3.5,0l-8.1,33.3c0,0,0,0,5.3,0S41-32.7,41-42.4C41-52.2,36.1-52.6,34.9-52.6z M31.7-29.5
			l3.6-14.8c0,0.5,0.1,1.1,0.1,1.8C35.3-38,33.6-33,31.7-29.5z M63-42.3l4.4,14.8H58L63-42.3z M87.5-4.7c-0.8,0-1.6-0.2-2.4-0.5
			C84.6-5,84-4.9,83.4-4.9H71.3c-3.1,0-5.7-2.1-6.4-5l-1.1-4.4H62l-1.1,4.4c-0.7,3-3.4,5-6.4,5h-9c-2,0-3.9-0.9-5.2-2.5
			c-0.3-0.4-0.5-0.8-0.7-1.2c-3.4,1.9-7,2.9-10.6,2.9C17.7-5.7,9.8-5.5,9.5-5.5l-0.2,0c-3.2,0-6-2.2-6.6-5.1
			c-0.6-2.9,0.6-5.7,3.1-7.1c0.8-3.4,1.9-8.3,3-13.6c0.7-3.3,1.4-6.2,2-8.8c2.2-10,3.4-15.2,3.9-17.2c-0.7-1.9-0.4-3.9,0.7-5.7
			c1.2-1.8,3.2-2.9,5.5-2.9l0.7,0c3.1,0,15-0.1,16.1-0.1c3.5,0,8.9,1.4,13.2,5.3c1.2-2,3.4-3.4,5.8-3.4h12.9c0.7,0,1.3,0.1,2,0.3
			c0.7-0.2,1.3-0.3,2-0.3h12.9c3.1,0,5.7,2.1,6.4,5.1l1.5,6.2c0.2-0.8,0.5-1.5,0.6-2.1c-0.5-1.4-0.6-2.9-0.1-4.3
			c0.9-2.8,3.4-4.6,6.3-4.6h10.2c2.5,0,4.9,1.5,6,3.8c1.1,2.3,0.8,5-0.8,7c-0.1,0.1-0.2,0.2-0.2,0.3c-0.7,2.1-2.6,8.4-4.9,15.7
			c-2,6.4-4.2,13.5-5.9,19.1c-0.2,0.7-0.4,1.8-0.6,2.7c0,0.1,0.1,0.2,0.1,0.2c1.4,2,1.6,4.6,0.4,6.8c-1.1,2.2-3.4,3.5-5.9,3.5H87.5z
			 M28.9-12.3c4.5,0,8.9-2.3,12.5-6c5.8-5.9,9.7-15.5,9.7-25.5c0-2.7-0.4-4.9-1.1-6.8c-3.1-8.3-11.5-8.7-12.2-8.7
			c-1.3,0-16.8,0.1-16.8,0.1s0.6,1.7,0.2,3s-6.9,30.6-9.2,40.8c-0.4,2.1-2.7,3.3-2.7,3.3S17.3-12.3,28.9-12.3z M81.6-11.5L68.3-55.8
			c-0.2-0.5-0.2-1.1-0.2-1.6l-11.2,0c0,0,0.6,0.5,0.4,1.7c0,0-0.5,1.9-1.3,5c0.5,2,0.9,4.3,0.9,7c0,11.1-4.1,21.4-10.3,28.3
			c-0.7,2.5-1,4-1,4h9l2.3-9.4H69l2.3,9.4H81.6z M111.5-57.2h-10.2c0,0,1.4,0.9,0.9,1.7c-0.3,0.7-8.4,28.9-8.4,28.9l-7.2-30.8H75.4
			c0,0.4,0,0.8-0.1,1.2c1.5,5,8.7,27.7,13.5,43.1c0.2,0.6,0.3,1.3,0.3,1.9h10.6c0,0-1.6-2.3-1.4-4c0.2-1.4,0.9-4.4,0.9-4.4
			s10.9-35.3,11.1-35.9C110.5-56.1,111.5-57.2,111.5-57.2z"/>
	</g>
	<g id="Semibold-M" transform="matrix(1 0 0 1 1983.62 1126)">
		<path d="M34.6-52.3c-1.1,0-3.4,0-3.4,0l-7.9,32.8c0,0,0,0,5.3,0s12.1-13.2,12.1-22.8C40.6-51.9,35.7-52.3,34.6-52.3z M31.4-29.5
			l3.5-14.5c0,0.5,0.1,1.1,0.1,1.8C35-38,33.3-33,31.4-29.5z M62.2-42.2l4.3,14.5h-9.3L62.2-42.2z M86.4-5.5c-0.8,0-1.6-0.2-2.3-0.5
			c-0.6,0.2-1.2,0.3-1.8,0.3H70.4c-2.9,0-5.3-1.9-6-4.7L63.2-15H61l-1.1,4.6c-0.7,2.8-3.2,4.7-6,4.7H45c-1.9,0-3.7-0.9-4.9-2.4
			c-0.3-0.4-0.6-0.9-0.8-1.4c-3.4,2-7,3-10.6,3C17.6-6.5,9.9-6.3,9.6-6.3l-0.2,0c-3,0-5.6-2-6.2-4.8c-0.6-2.8,0.6-5.5,3-6.7
			c0.7-3.3,1.9-8.2,3-13.5c1.2-5.5,2.2-10,3.1-13.6c1.5-6.8,2.4-10.5,2.7-12c-0.7-1.8-0.4-3.7,0.7-5.4c1.1-1.7,3-2.7,5.2-2.7l0.7,0
			c3,0,14.8-0.1,15.9-0.1c2.8,0,8.6,1.1,13.1,5.4c1-2.1,3.2-3.5,5.6-3.5h12.7c0.7,0,1.3,0.1,1.9,0.3c0.6-0.2,1.3-0.3,2-0.3h12.7
			c2.9,0,5.4,2,6,4.8l1.7,7.3c0.4-1.4,0.7-2.5,1-3.3c-0.5-1.3-0.6-2.8-0.2-4.2c0.8-2.6,3.2-4.3,5.9-4.3h10c2.4,0,4.6,1.4,5.6,3.5
			c1,2.1,0.7,4.7-0.8,6.6c-0.1,0.1-0.2,0.2-0.3,0.3c-0.8,2.6-3.8,12.2-6.7,21.7c-1.4,4.5-2.8,9-3.9,12.7c-0.2,0.8-0.4,1.9-0.6,2.8
			c0.1,0.1,0.1,0.2,0.2,0.3c1.3,1.9,1.5,4.3,0.4,6.4c-1.1,2-3.2,3.3-5.5,3.3H86.4z M28.7-12.7c4.5,0,8.7-2.2,12.3-5.9
			c5.7-5.8,9.6-15.2,9.6-25c0-2.7-0.4-4.8-1.1-6.7c-3-8.2-11.3-8.6-12-8.6c-1.2,0-16.5,0.1-16.5,0.1s0.6,1.7,0.2,3
			c-0.4,1.3-6.8,30.1-9.1,40.1c-0.4,2.1-2.7,3.2-2.7,3.2S17.3-12.7,28.7-12.7z M80.5-11.9L67.4-55.5c-0.2-0.5-0.2-1.1-0.2-1.6l-11,0
			c0,0,0.6,0.5,0.4,1.7c0,0-0.5,1.9-1.3,4.9c0.5,2,0.8,4.3,0.8,6.8c0,10.9-4,21-10.1,27.8c-0.7,2.4-1,3.9-1,3.9h8.9l2.3-9.3h12
			l2.3,9.3H80.5z M109.9-56.9h-10c0,0,1.3,0.9,0.9,1.7c-0.3,0.7-8.3,28.5-8.3,28.5l-7.1-30.3h-11c0,0.4,0,0.8-0.1,1.1
			c1.5,4.9,8.5,27.2,13.3,42.4c0.2,0.6,0.3,1.3,0.3,1.9h10.4c0,0-1.5-2.3-1.3-3.9c0.2-1.3,0.9-4.3,0.9-4.3s10.7-34.8,10.9-35.3
			C108.9-55.7,109.9-56.9,109.9-56.9z"/>
	</g>
	<g id="Medium-M" transform="matrix(1 0 0 1 1687.4 1126)">
		<path d="M34.6-52c-1.1,0-3.3,0-3.3,0l-7.8,32.2c0,0,0,0,5.2,0s11.9-13,11.9-22.4C40.5-51.6,35.7-52,34.6-52z M31.5-29.6l3.5-14.3
			c0,0.5,0.1,1.1,0.1,1.7C35-37.9,33.3-33.1,31.5-29.6z M61.8-42.1L66-27.8h-9.1L61.8-42.1z M85.5-6.3c-0.8,0-1.5-0.2-2.3-0.5
			c-0.6,0.2-1.2,0.3-1.8,0.3H69.8c-2.7,0-5-1.8-5.6-4.4L63-15.6h-2.7l-1.2,4.7c-0.6,2.6-2.9,4.4-5.6,4.4h-8.7
			c-1.8,0-3.4-0.8-4.5-2.2c-0.4-0.5-0.7-1.1-0.9-1.7c-3.4,2-7,3.1-10.6,3.1C17.9-7.3,10.3-7.1,10-7.1l-0.2,0C7-7.1,4.6-9,4-11.6
			c-0.6-2.7,0.6-5.2,3-6.3c0.7-2.9,1.6-7.1,2.6-11.8l0.4-1.6c3.6-16,5.2-23.1,5.7-25.2c-0.7-1.7-0.5-3.5,0.6-5.1
			c1-1.5,2.8-2.5,4.9-2.5l0.7,0c3,0,14.5-0.1,15.6-0.1c2.8,0,8.6,1.2,13,5.5c0.9-2.2,3-3.7,5.4-3.7h12.5c0.6,0,1.3,0.1,1.9,0.3
			c0.6-0.2,1.3-0.3,1.9-0.3h12.5c2.7,0,5,1.8,5.6,4.5l1.9,8.3c0.6-2,1-3.4,1.3-4.5c-0.5-1.3-0.6-2.7-0.2-4c0.8-2.4,3-4.1,5.5-4.1
			h9.8c2.2,0,4.3,1.3,5.2,3.3c1,2,0.7,4.4-0.7,6.1c-0.1,0.1-0.2,0.3-0.3,0.4c-0.9,3-6.1,19.6-10.4,33.8c-0.2,0.8-0.5,2-0.6,2.9
			c0.1,0.2,0.2,0.3,0.2,0.5c1.2,1.7,1.4,4,0.4,5.9c-1,1.9-3,3.1-5.2,3.1h-6.7H85.5z M28.8-13.1c4.4,0,8.6-2.2,12.1-5.8
			c5.6-5.7,9.4-15,9.4-24.6c0-2.6-0.4-4.8-1.1-6.5c-3-8-11.2-8.5-11.8-8.5c-1.2,0-16.2,0.1-16.2,0.1s0.6,1.6,0.2,2.9
			S14.7-25.9,12.5-16c-0.4,2-2.6,3.1-2.6,3.1S17.6-13.1,28.8-13.1z M79.7-12.3L66.9-55.1c-0.2-0.5-0.2-1-0.2-1.6l-10.9,0
			c0,0,0.6,0.5,0.4,1.6c0,0-0.5,1.9-1.2,4.8c0.5,2,0.8,4.2,0.8,6.7c0,10.7-4,20.7-9.9,27.4c-0.6,2.4-1,3.9-1,3.9h8.7l2.2-9.1h11.8
			l2.2,9.1H79.7z M108.6-56.5h-9.8c0,0,1.3,0.9,0.9,1.6c-0.3,0.7-8.1,28-8.1,28l-7-29.8H73.7c0,0.4,0,0.8-0.1,1.1
			c1.5,4.8,8.4,26.8,13,41.6c0.2,0.6,0.3,1.2,0.2,1.8h10.2c0,0-1.5-2.2-1.3-3.9c0.2-1.3,0.9-4.3,0.9-4.3s10.5-34.2,10.7-34.7
			C107.7-55.4,108.6-56.5,108.6-56.5z"/>
	</g>
	<g id="Regular-M" transform="matrix(1 0 0 1 1391.32 1126)">
		<path d="M34.4-51.7c-1.1,0-3.3,0-3.3,0l-7.7,31.7c0,0,0,0,5.1,0s11.7-12.8,11.7-22C40.1-51.3,35.5-51.7,34.4-51.7z M30.9-28.3
			l4.1-17c0.1,0.6,0.1,1.3,0.1,2.1C35.1-38.1,33.1-32.4,30.9-28.3z M61.1-42l4.2,14.1h-9L61.1-42z M112-58.4
			c-0.9-1.9-2.8-3.1-4.9-3.1h-9.7c-2.4,0-4.4,1.5-5.1,3.8c-0.4,1.3-0.3,2.6,0.2,3.8c-0.4,1.2-0.9,3-1.6,5.6l-2.2-9.2
			c-0.6-2.4-2.7-4.2-5.2-4.2h-4.8h-7.5c-0.7,0-1.3,0.1-1.9,0.4c-0.6-0.2-1.2-0.4-1.9-0.4l-12.3,0c-2.3,0-4.3,1.4-5.1,3.5
			c0,0.1-0.1,0.2-0.1,0.3c-4.2-4.4-9.9-5.7-12.9-5.7c-1.2,0-15.4,0.1-16,0.1c-1.8,0-3.5,0.8-4.5,2.3c-1,1.5-1.2,3.2-0.5,4.9
			c-0.4,1.4-1.3,5.5-3.3,14.2c-0.7,3-1.5,6.5-2.4,10.6c-1.2,5.2-2.3,10.1-3,13.3c-2.3,1-3.4,3.5-2.9,6C5.2-9.6,7.5-7.9,10-7.9
			c0,0,0.1,0,0.1,0c0.1,0,7.6-0.2,18.5-0.2c3.7,0,7.3-1.1,10.6-3.2c0.2,0.7,0.5,1.3,0.9,1.9c1,1.3,2.6,2.1,4.2,2.1H53
			c2.5,0,4.6-1.7,5.2-4.1l1.2-4.9h3.1l1.2,4.9C64.3-9,66.5-7.3,69-7.3h11.5c0.6,0,1.2-0.1,1.8-0.3c0.7,0.3,1.4,0.5,2.2,0.5h11.5
			c2,0,3.9-1.1,4.8-2.9c0.9-1.8,0.8-3.9-0.4-5.5c-0.1-0.1-0.2-0.4-0.3-0.6c0.2-0.8,0.4-2.1,0.7-2.9c3.7-12.1,9.3-30,10.3-33.3
			c0.1-0.1,0.2-0.3,0.3-0.4C112.6-54.3,112.9-56.6,112-58.4z M10.1-13.3c0,0,2.2-1.1,2.6-3.1c2.2-9.7,8.4-37.5,8.8-38.8
			c0.4-1.3-0.2-2.9-0.2-2.9s14.7-0.1,15.9-0.1c0.7,0,8.7,0.4,11.6,8.3c0.6,1.8,1,3.9,1,6.4c0,9.5-3.8,18.6-9.2,24.2
			c-3.4,3.5-7.6,5.7-11.9,5.7C17.6-13.5,10.1-13.3,10.1-13.3z M69-12.7l-2.2-9H55.2l-2.2,9h-8.6c0,0,0.4-1.5,1-3.8
			c5.9-6.6,9.8-16.4,9.8-26.9c0-2.5-0.3-4.7-0.8-6.6c0.7-2.9,1.2-4.8,1.2-4.8c0.2-1.1-0.4-1.6-0.4-1.6l10.7,0c0,0.5,0.1,1,0.2,1.5
			l12.6,42.1H69z M106-54.5c-0.2,0.5-10.6,34.1-10.6,34.1s-0.7,2.9-0.9,4.2c-0.2,1.6,1.3,3.8,1.3,3.8H85.8c0-0.6-0.1-1.2-0.2-1.8
			c-4.6-14.6-11.4-36.2-12.8-40.9c0.1-0.4,0.1-0.7,0.1-1.1h10.7L90.4-27c0,0,7.7-26.8,8-27.5c0.4-0.7-0.9-1.6-0.9-1.6h9.7
			C107.1-56.1,106.2-55,106-54.5z"/>
	</g>
	<g id="Light-M" transform="matrix(1 0 0 1 1095.44 1126)">
		<path d="M33.7-51.6c-1.1,0-3.3,0-3.3,0l-7.6,31.5c0,0,0,0,5.1,0S39.5-32.8,39.5-42C39.5-51.2,34.8-51.6,33.7-51.6z M28.9-26.3
			l4.8-19.9c0.4,0.4,1,1.7,1,4.6C34.8-35.5,31.2-28.6,28.9-26.3z M60.3-41.9l4.2,14h-8.9L60.3-41.9z M110.1-57.9
			c-0.7-1.6-2.3-2.5-4-2.5h-9.6c-1.9,0-3.7,1.3-4.3,3.1c-0.4,1.2-0.2,2.4,0.3,3.4c-0.5,1.6-1.3,4.3-2.7,9.2l-2.9-12.5
			c-0.5-2-2.3-3.4-4.3-3.4H70.4c-0.7,0-1.3,0.2-1.9,0.4c-0.6-0.3-1.2-0.4-1.9-0.4l-12.2,0c-1.9,0-3.6,1.2-4.2,2.9
			C50-57,49.9-56.2,50-55.4c-4-5.5-10.4-7-13.5-7c-1.2,0-15.3,0.1-15.9,0.1c-1.5,0-2.9,0.7-3.7,1.9c-0.8,1.2-1,2.7-0.4,4.1
			c0,0.1,0,0.2,0.1,0.3c-0.4,1.5-1.9,8.3-5.7,24.9c-1.2,5.4-2.3,10.4-3,13.6c-0.1,0.1-0.2,0.2-0.3,0.2c-1.9,0.9-2.9,2.9-2.4,5
			C5.6-10.3,7.5-9,9.6-9c0,0,0.1,0,0.1,0c0.1,0,7.6-0.2,18.4-0.2c4,0,7.8-1.4,11.2-3.8c0,1,0.3,2,1,2.8c0.8,1.1,2.1,1.7,3.5,1.7h8.5
			c2.1,0,3.8-1.4,4.3-3.4l1.3-5.5h4.5l1.3,5.5c0.5,2,2.3,3.4,4.3,3.4h11.4c0.6,0,1.2-0.1,1.8-0.4c0.7,0.4,1.4,0.6,2.2,0.6h11.4
			c1.7,0,3.2-0.9,3.9-2.4c0.8-1.5,0.7-3.2-0.3-4.6c-0.2-0.3-0.4-0.7-0.5-1c0.2-0.9,0.5-2.3,0.7-3.3c3.8-12.2,9.4-30.3,10.3-33.2
			c0.1-0.2,0.3-0.4,0.4-0.6C110.6-54.5,110.8-56.4,110.1-57.9z M28.1-13.6c-11,0-18.5,0.2-18.5,0.2s2.2-1.1,2.6-3.1
			c2.2-9.6,8.3-37.2,8.7-38.5c0.4-1.3-0.2-2.9-0.2-2.9S35.3-58,36.5-58c0.7,0,9.7,0.5,12.1,9.9c0.3,1.4,0.5,3,0.5,4.7
			c0,8.6-3.1,16.9-7.8,22.6C37.6-16.4,32.9-13.6,28.1-13.6z M65.9-21.7H54.4l-2.2,8.9h-8.5c0,0,0.6-2.3,1.5-5.8
			c5-6.3,8.3-15.2,8.3-24.7c0-1.7-0.2-3.2-0.4-4.7c1-4,1.7-6.6,1.7-6.6c0.2-1.1-0.4-1.6-0.4-1.6l11.5,0c0,0.4,0.1,0.9,0.2,1.3
			l12.6,42.1H68.1L65.9-21.7z M105-54.4c-0.2,0.5-10.5,33.9-10.5,33.9s-0.7,2.9-0.9,4.2c-0.2,1.6,1.3,3.8,1.3,3.8H83.9
			c0-0.5,0-1-0.2-1.5c-4.7-14.8-11.5-36.7-12.8-40.9c0.1-0.4,0.1-0.7,0.1-1.1h11.5l6.8,29.1c0,0,7.6-26.6,7.9-27.3
			c0.4-0.7-0.9-1.6-0.9-1.6h9.6C106-56,105.2-54.9,105-54.4z"/>
	</g>
	<g id="Thin-M" transform="matrix(1 0 0 1 799.828 1126)">
		<path d="M32.9-51.4c-1.1,0-3.2,0-3.2,0l-7.5,31.1c0,0,0,0,5,0s11.4-12.5,11.4-21.6C38.5-51,33.9-51.4,32.9-51.4z M27.1-24.3
			l5.6-23.2c0,0,1.9,2,1.9,5.6C34.6-33.9,29.3-25.2,27.1-24.3z M59-41.8l4.1,13.8h-8.8L59-41.8z M107.7-57.4c-0.6-1.4-2-2.2-3.5-2.2
			h-9.5c-1.8,0-3.4,1.1-3.9,2.8c-0.3,1.2-0.1,2.3,0.5,3.2c-0.5,1.7-1.4,4.9-3.2,10.9l-3.3-14.1c-0.4-1.8-2-3-3.8-3H69
			c-0.7,0-1.3,0.2-1.9,0.5c-0.6-0.3-1.2-0.5-1.9-0.5l-12,0c-1.6,0-3.1,1-3.7,2.6c-0.3,0.9-0.3,1.9,0.1,2.8c-0.1,0.3-0.1,0.6-0.2,0.9
			c-3.7-6.4-10.6-8.1-13.8-8.1c-1.2,0-15.1,0.1-15.7,0.1c-1.3,0-2.5,0.6-3.3,1.7c-0.7,1.1-0.9,2.4-0.4,3.6c0,0.1,0.1,0.4,0.1,0.5
			c-0.3,1.3-7.9,35-8.6,38.1c-0.1,0.2-0.5,0.4-0.5,0.4c-1.6,0.8-2.5,2.7-2,4.4c0.4,1.7,2,3,3.8,3c0,0,7.6-0.2,18.3-0.2
			c4.2,0,8.2-1.6,11.7-4.3c0,0.1-0.1,0.2-0.1,0.2c-0.3,1.2,0,2.4,0.7,3.3c0.7,0.9,1.9,1.5,3.1,1.5h8.4c1.8,0,3.4-1.2,3.8-3l1.4-5.8
			h5.2l1.4,5.8c0.4,1.7,2,3,3.8,3H78c0.6,0,1.2-0.2,1.8-0.4C80.4-9.2,81.1-9,81.9-9h11.2c1.4,0,2.8-0.8,3.5-2.1
			c0.7-1.3,0.6-2.8-0.2-4c-0.2-0.3-0.5-0.9-0.6-1.2c0.2-0.9,0.5-2.4,0.7-3.4c3.8-12.2,9.3-30.3,10.2-32.9c0.1-0.2,0.3-0.5,0.5-0.7
			C108.2-54.4,108.4-56,107.7-57.4z M27.3-13.9C16.4-13.9,9-13.7,9-13.7s2.1-1.1,2.5-3c2.1-9.5,8.2-36.7,8.6-38
			c0.4-1.3-0.2-2.8-0.2-2.8s14.5-0.1,15.6-0.1c0.7,0,10.3,0.5,12.1,10.9c0.2,1.1,0.3,2.3,0.3,3.6c0,8-2.7,15.8-6.9,21.3
			C37.3-17,32.4-13.9,27.3-13.9z M66.8-13.1l-2.1-8.8H53.3l-2.1,8.8h-8.4c0,0,0.7-2.8,1.9-7c4.5-6.1,7.3-14.3,7.3-23.1
			c0-1.2-0.1-2.3-0.2-3.4c1.2-4.6,2-7.8,2-7.8c0.2-1.1-0.4-1.6-0.4-1.6l11.8,0c0,0.1-0.1,1.1,0,1.6c0.1,0.5,12.7,41.2,12.7,41.2
			H66.8z M103.1-54.2c-0.2,0.5-10.4,33.4-10.4,33.4s-0.7,2.8-0.9,4.1c-0.2,1.6,1.3,3.7,1.3,3.7L81.9-13c0-0.4,0-0.9-0.2-1.3
			c-1.5-4.9-12.6-41.1-12.6-41.1c0-0.2,0-0.3,0-0.5H81l6.7,28.7c0,0,7.5-26.3,7.8-27c0.4-0.7-0.9-1.6-0.9-1.6h9.5
			C104.2-55.7,103.3-54.6,103.1-54.2z"/>
	</g>
	<g id="Ultralight-M" transform="matrix(1 0 0 1 503.679 1126)">
		<path d="M31.4-51.3c-1.1,0-3.2,0-3.2,0l-7.5,30.9c0,0,0,0,5,0S37-32.9,37-41.9C37-50.9,32.5-51.3,31.4-51.3z M24.4-23.3
			c1.5-5.5,5.6-23,6.1-25.1c2.6,0,3.8,2.5,3.6,6.5C33.6-31,27.9-22.8,24.4-23.3z M52.8-28.1h8.7l-4.1-13.7L52.8-28.1z M105-56.9
			c-0.5-1-1.5-1.7-2.6-1.7h-9.4c-1.3,0-2.5,0.8-2.8,2.1c-0.3,1-0.1,2,0.6,2.7c-0.5,1.8-1.7,5.8-4.3,15l-4.1-17.7
			c-0.3-1.3-1.5-2.2-2.8-2.2h-12c-0.7,0-1.3,0.2-1.9,0.7c-0.5-0.4-1.1-0.7-1.8-0.7l-12,0c-1.2,0-2.3,0.8-2.7,1.9
			c-0.3,0.8-0.2,1.6,0.2,2.4c-0.2,0.7-0.5,2.1-1,3.9c-3-7.9-10.6-9.9-14-9.9c-1.2,0-15,0.1-15.6,0.1c-1,0-1.8,0.5-2.4,1.3
			c-0.5,0.8-0.7,1.8-0.3,2.7c0.1,0.3,0.2,0.8,0.1,1c-0.2,0.8-7.9,34.9-8.6,38c0,0,0,0,0,0.1c-0.1,0.3-0.6,0.8-1,1
			c-1.2,0.6-1.8,2-1.5,3.3c0.3,1.3,1.5,2.2,2.8,2.2c0,0,7.6-0.2,18.2-0.2c4.7,0,9.4-2.2,13.4-6.1c-0.5,2-0.8,3.2-0.9,3.3
			c-0.2,0.9,0,1.8,0.5,2.5c0.6,0.7,1.4,1.1,2.3,1.1h8.4c1.3,0,2.5-0.9,2.8-2.2l1.6-6.5h6.7l1.6,6.5c0.3,1.3,1.5,2.2,2.8,2.2h11.2
			c0.7,0,1.3-0.2,1.8-0.7c0.5,0.5,1.3,0.9,2.1,0.9h11.2c1.1,0,2.1-0.6,2.6-1.6c0.5-1,0.4-2.1-0.2-3c-0.4-0.5-0.7-1.4-0.8-1.7
			c0.1-2.4,10.3-34.4,11-36.5c0.1-0.2,0.4-0.6,0.6-0.9C105.3-54.6,105.5-55.8,105-56.9z M25.9-14c-10.8,0-18.2,0.2-18.2,0.2
			s2.1-1.1,2.5-3c2.1-9.4,8.2-36.5,8.6-37.8c0.4-1.3-0.2-2.8-0.2-2.8s14.4-0.1,15.5-0.1C34.9-57.6,46-57,46.4-44c0,0.3,0,0.5,0,0.8
			c0,6.8-2,13.5-5.2,18.7C37.4-18.2,31.8-14,25.9-14z M65.1-13.2L63-22H51.7l-2.1,8.7h-8.4L44-23.3c3.5-5.8,5.4-12.9,5.4-19.8
			c0-0.2,0-0.3,0-0.5l2.7-10.6c0.2-1.1-0.4-1.6-0.4-1.6l12,0c0,0-0.4,0.7-0.2,1.6c0.2,0.9,12.8,41,12.8,41H65.1z M101.3-54.1
			C101.1-53.6,91-20.8,91-20.8s-0.7,2.8-0.9,4.1c-0.2,1.6,1.3,3.7,1.3,3.7H80.2l-1-3.4l-2.1-6.9l-9.7-32.5h12L86-27.2
			c0,0,7.5-26.1,7.8-26.8c0.4-0.7-0.9-1.6-0.9-1.6h9.4C102.3-55.6,101.5-54.5,101.3-54.1z"/>
	</g>
	<g id="Black-S" transform="matrix(1 0 0 1 2884.57 696)">
		<path d="M28.3-49.2c-0.9,0-2.8,0-2.8,0L19-22.2c0,0,0,0,4.3,0s9.9-10.8,9.9-18.7C33.2-48.8,29.2-49.2,28.3-49.2z M25.7-30.5
			l2.9-11.9c0,0.4,0.1,0.9,0.1,1.5C28.6-37.4,27.2-33.3,25.7-30.5z M51-40.9l3.6,11.9h-7.6L51-40.9z M70.8-10c-0.7,0-1.3-0.1-2-0.3
			c-0.5,0.1-0.9,0.2-1.4,0.2h-9.7c-2.7,0-5-1.8-5.7-4.5l-0.8-3.2h-0.6l-0.8,3.2c-0.6,2.6-3,4.5-5.7,4.5h-7.3c-1.8,0-3.5-0.8-4.6-2.2
			c-0.1-0.2-0.3-0.4-0.4-0.6c-2.7,1.4-5.5,2.2-8.4,2.2c-3.3,0-6.3,0-8.8,0c-4.2,0-6.8,0.1-6.9,0.1l-0.2,0c-2.8,0-5.3-1.9-5.8-4.6
			c-0.5-2.5,0.5-4.9,2.6-6.2c0.6-2.7,1.5-6.6,2.4-10.7c0.9-4.1,1.7-7.5,2.3-10.3c1.3-5.9,2.1-9.1,2.4-10.5c-0.5-1.6-0.3-3.4,0.7-4.9
			c1-1.6,2.9-2.5,4.9-2.5l0.5,0c2.4,0,12.1-0.1,13.1-0.1c2.8,0,7.1,1.1,10.6,4c1.1-1.5,2.8-2.5,4.8-2.5h10.4c0.5,0,1.1,0.1,1.6,0.2
			c0.5-0.2,1.1-0.2,1.6-0.2H70c2.7,0,5.1,1.9,5.7,4.5l0.3,1.4c0-0.5,0.1-1.1,0.3-1.6c0.8-2.5,3-4.1,5.6-4.1h8.2
			c2.2,0,4.3,1.3,5.3,3.3c1,2,0.7,4.5-0.7,6.2c0,0-0.1,0.1-0.1,0.2c-0.6,1.8-2.3,7.2-4.1,13.3c-0.9,2.9-1.8,5.9-2.7,8.8
			c-0.6,2.1-1.3,4.1-1.8,5.9c-0.1,0.5-0.3,1.3-0.4,1.9c1.2,1.7,1.4,4,0.4,6c-1,1.9-3,3.1-5.2,3.1H70.8z M23.4-16.6
			c3.7,0,7.2-1.8,10.1-4.8c4.7-4.8,7.8-12.5,7.8-20.6c0-2.2-0.3-4-0.9-5.5c-2.5-6.7-9.3-7.1-9.9-7.1c-1,0-13.6,0.1-13.6,0.1
			s0.5,1.4,0.2,2.5c-0.3,1.1-5.6,24.7-7.5,33c-0.3,1.7-2.2,2.6-2.2,2.6S14-16.6,23.4-16.6z M66-16L55.2-51.8
			c-0.1-0.4-0.2-0.9-0.2-1.3l-9.1,0c0,0,0.5,0.4,0.3,1.4c0,0-0.4,1.6-1,4c0.4,1.6,0.7,3.5,0.7,5.6c0,8.9-3.3,17.3-8.3,22.9
			c-0.5,2-0.8,3.2-0.8,3.2h7.3l1.9-7.6h9.8l1.9,7.6H66z M90.1-52.9h-8.2c0,0,1.1,0.8,0.8,1.4c-0.3,0.6-6.8,23.4-6.8,23.4L70-53.1H61
			c0,0.3,0,0.6-0.1,0.9c1.2,4,7,22.4,10.9,34.8c0.2,0.5,0.2,1,0.2,1.5h8.6c0,0-1.3-1.9-1.1-3.2c0.2-1.1,0.8-3.6,0.8-3.6
			s8.8-28.6,9-29C89.4-52,90.1-52.9,90.1-52.9z"/>
	</g>
	<g id="Heavy-S" transform="matrix(1 0 0 1 2588.47 696)">
		<path d="M28-49c-0.9,0-2.8,0-2.8,0l-6.4,26.5c0,0,0,0,4.3,0s9.8-10.7,9.8-18.4C32.9-48.6,28.9-49,28-49z M25.4-30.5l2.8-11.8
			c0,0.4,0.1,0.9,0.1,1.4C28.3-37.4,27-33.4,25.4-30.5z M50.4-40.8L53.9-29h-7.5L50.4-40.8z M69.9-10.6c-0.6,0-1.3-0.1-1.9-0.4
			c-0.5,0.1-0.9,0.2-1.4,0.2H57c-2.5,0-4.7-1.7-5.3-4.2l-0.8-3.3h-1L49-15c-0.6,2.5-2.8,4.2-5.3,4.2h-7.2c-1.7,0-3.3-0.8-4.3-2.1
			c-0.2-0.2-0.4-0.5-0.5-0.8c-2.7,1.5-5.5,2.2-8.3,2.2c-9,0-15.4,0.2-15.5,0.2l-0.2,0c-2.7,0-5-1.8-5.5-4.3
			c-0.5-2.4,0.5-4.7,2.5-5.9c0.5-2.4,1.3-5.7,2.1-9.3l0.3-1.4c2.8-12.6,4.2-18.6,4.7-20.5c-0.5-1.5-0.3-3.2,0.6-4.7
			c1-1.5,2.7-2.4,4.6-2.4l0.6,0c2.4,0,11.9-0.1,12.8-0.1c2.8,0,7,1.1,10.5,4c1-1.6,2.7-2.5,4.6-2.5h10.3c0.5,0,1.1,0.1,1.6,0.2
			c0.5-0.2,1.1-0.2,1.6-0.2h10.3c2.6,0,4.8,1.7,5.4,4.2l0.9,4c0.1-0.3,0.1-0.5,0.2-0.7c-0.4-1.1-0.4-2.4-0.1-3.5
			c0.7-2.3,2.8-3.9,5.3-3.9h8.1c2.1,0,4.1,1.2,5,3.1c0.9,1.9,0.6,4.2-0.7,5.8c0,0.1-0.1,0.1-0.2,0.2c-0.8,2.4-3.7,12-6.7,21.8
			c-0.6,2-1.2,4-1.8,5.9c-0.1,0.6-0.3,1.4-0.5,2c0,0,0,0.1,0,0.1c1.2,1.6,1.3,3.8,0.4,5.6c-0.9,1.8-2.8,2.9-4.9,2.9H69.9z
			 M23.3-16.9c3.6,0,7.1-1.8,10-4.8c4.6-4.7,7.7-12.3,7.7-20.3c0-2.1-0.3-3.9-0.9-5.4c-2.4-6.6-9.2-7-9.7-7c-1,0-13.3,0.1-13.3,0.1
			s0.5,1.3,0.2,2.4c-0.3,1.1-5.5,24.4-7.3,32.4c-0.3,1.7-2.2,2.6-2.2,2.6S14-16.9,23.3-16.9z M65.1-16.3L54.6-51.5
			c-0.1-0.4-0.2-0.9-0.2-1.3l-8.9,0c0,0,0.5,0.4,0.3,1.3c0,0-0.4,1.5-1,4c0.4,1.6,0.7,3.5,0.7,5.5c0,8.8-3.2,17-8.2,22.5
			c-0.5,2-0.8,3.2-0.8,3.2h7.2l1.8-7.5h9.7l1.8,7.5H65.1z M88.9-52.6h-8.1c0,0,1.1,0.8,0.8,1.3c-0.3,0.6-6.7,23-6.7,23l-5.8-24.5
			h-8.9c0,0.3,0,0.6-0.1,0.9c1.2,4,6.9,22,10.7,34.3c0.2,0.5,0.2,1,0.2,1.5h8.4c0,0-1.3-1.8-1.1-3.2c0.2-1.1,0.8-3.5,0.8-3.5
			s8.7-28.1,8.8-28.5S88.9-52.6,88.9-52.6z"/>
	</g>
	<g id="Bold-S" transform="matrix(1 0 0 1 2292.43 696)">
		<path d="M27.7-48.7c-0.9,0-2.7,0-2.7,0l-6.3,26.1c0,0,0,0,4.2,0s9.6-10.5,9.6-18.1C32.4-48.4,28.6-48.7,27.7-48.7z M25.2-30.6
			L28-42.2c0,0.4,0.1,0.9,0.1,1.4C28-37.3,26.6-33.4,25.2-30.6z M49.7-40.7l3.4,11.6h-7.4L49.7-40.7z M68.9-11.2
			c-0.6,0-1.3-0.1-1.9-0.4c-0.5,0.1-0.9,0.2-1.4,0.2h-9.4c-2.4,0-4.5-1.6-5-3.9l-0.8-3.4h-1.4l-0.8,3.4c-0.6,2.3-2.6,3.9-5,3.9H36
			c-1.6,0-3.1-0.7-4.1-2c-0.2-0.3-0.4-0.6-0.6-0.9c-2.7,1.5-5.5,2.3-8.3,2.3c-8.8,0-15,0.2-15.2,0.2l-0.1,0c-2.5,0-4.7-1.7-5.2-4
			c-0.5-2.3,0.5-4.5,2.4-5.6c0.6-2.6,1.5-6.5,2.4-10.6c0.6-2.5,1.1-4.8,1.5-6.9c1.8-7.8,2.7-11.9,3.1-13.4c-0.5-1.5-0.3-3.1,0.6-4.5
			c0.9-1.4,2.5-2.2,4.3-2.2l0.6,0c2.4,0,11.7-0.1,12.6-0.1c2.8,0,7,1.1,10.4,4.1c0.9-1.6,2.6-2.6,4.5-2.6h10.1c0.5,0,1,0.1,1.6,0.2
			c0.5-0.2,1-0.2,1.6-0.2h10.1c2.4,0,4.5,1.6,5,4l1.1,4.9c0.2-0.7,0.4-1.2,0.5-1.7c-0.4-1.1-0.5-2.3-0.1-3.4
			c0.7-2.2,2.7-3.6,4.9-3.6h8c2,0,3.8,1.2,4.7,3c0.9,1.8,0.6,3.9-0.7,5.5c-0.1,0.1-0.1,0.2-0.2,0.2c-0.5,1.6-2.1,6.6-3.8,12.3
			c-1.5,5-3.3,10.6-4.6,15c-0.1,0.6-0.3,1.4-0.5,2.1c0,0.1,0.1,0.1,0.1,0.2c1.1,1.5,1.2,3.6,0.3,5.3c-0.9,1.7-2.7,2.8-4.6,2.8H68.9z
			 M23-17.2c3.6,0,7-1.8,9.8-4.7c4.5-4.6,7.6-12.1,7.6-19.9c0-2.1-0.3-3.9-0.9-5.3c-2.4-6.5-9-6.9-9.6-6.9c-1,0-13.1,0.1-13.1,0.1
			s0.5,1.3,0.2,2.4c-0.3,1.1-5.4,24-7.2,31.9c-0.3,1.6-2.1,2.5-2.1,2.5S13.9-17.2,23-17.2z M64.2-16.6L53.8-51.2
			c-0.1-0.4-0.2-0.8-0.2-1.3l-8.8,0c0,0,0.5,0.4,0.3,1.3c0,0-0.4,1.5-1,3.9c0.4,1.6,0.7,3.4,0.7,5.4c0,8.7-3.2,16.7-8.1,22.2
			c-0.5,1.9-0.8,3.1-0.8,3.1H43l1.8-7.4h9.5l1.8,7.4H64.2z M87.6-52.4h-8c0,0,1.1,0.7,0.7,1.3c-0.2,0.6-6.6,22.7-6.6,22.7l-5.7-24.1
			h-8.8c0,0.3,0,0.6-0.1,0.9c1.2,3.9,6.8,21.7,10.6,33.7c0.2,0.5,0.2,1,0.2,1.5h8.3c0,0-1.2-1.8-1.1-3.1C77.4-20.6,78-23,78-23
			s8.5-27.7,8.7-28.1S87.6-52.4,87.6-52.4z"/>
	</g>
	<g id="Semibold-S" transform="matrix(1 0 0 1 1996.19 696)">
		<path d="M27.4-48.5c-0.9,0-2.7,0-2.7,0l-6.2,25.7c0,0,0,0,4.1,0s9.4-10.3,9.4-17.8C32.1-48.2,28.3-48.5,27.4-48.5z M24.9-30.7
			l2.8-11.4c0,0.4,0.1,0.9,0.1,1.4C27.8-37.3,26.4-33.4,24.9-30.7z M49.1-40.6l3.4,11.4h-7.3L49.1-40.6z M68-11.9
			c-0.6,0-1.2-0.1-1.8-0.4c-0.5,0.1-0.9,0.2-1.4,0.2h-9.3c-2.2,0-4.2-1.5-4.7-3.7l-0.9-3.6h-1.8l-0.9,3.6c-0.5,2.2-2.5,3.7-4.7,3.7
			h-6.9c-1.5,0-2.9-0.7-3.8-1.9c-0.3-0.3-0.5-0.7-0.7-1.1c-2.7,1.5-5.5,2.3-8.3,2.3c-8.7,0-14.7,0.2-15,0.2l-0.1,0
			c-2.3,0-4.4-1.6-4.9-3.8c-0.5-2.2,0.5-4.3,2.4-5.3c0.6-2.6,1.4-6.4,2.4-10.6c1-4.3,1.8-7.8,2.4-10.7c1.2-5.4,1.9-8.2,2.1-9.4
			c-0.5-1.4-0.3-2.9,0.5-4.2c0.8-1.3,2.4-2.1,4.1-2.1l0.5,0c2.4,0,11.6-0.1,12.4-0.1c2.2,0,6.7,0.9,10.3,4.2
			c0.8-1.7,2.5-2.7,4.4-2.7h9.9c0.5,0,1,0.1,1.5,0.3c0.5-0.2,1-0.3,1.5-0.3h9.9c2.3,0,4.2,1.5,4.7,3.7l1.3,5.7
			c0.3-1.1,0.6-1.9,0.8-2.6c-0.4-1-0.5-2.2-0.1-3.3c0.6-2,2.5-3.4,4.6-3.4h7.8c1.9,0,3.6,1.1,4.4,2.8c0.8,1.7,0.6,3.7-0.6,5.1
			c-0.1,0.1-0.1,0.2-0.2,0.3c-0.6,2-3,9.6-5.3,17c-1.1,3.5-2.2,7-3.1,9.9c-0.1,0.6-0.4,1.5-0.5,2.2c0,0.1,0.1,0.2,0.1,0.3
			c1,1.5,1.2,3.4,0.3,5c-0.8,1.6-2.5,2.6-4.3,2.6H68z M22.8-17.5c3.5,0,6.8-1.8,9.6-4.6c4.4-4.6,7.5-11.9,7.5-19.6
			c0-2.1-0.3-3.8-0.8-5.2c-2.4-6.4-8.9-6.7-9.4-6.7c-1,0-12.9,0.1-12.9,0.1s0.5,1.3,0.2,2.3c-0.3,1-5.3,23.6-7.1,31.4
			c-0.3,1.6-2.1,2.5-2.1,2.5S13.9-17.5,22.8-17.5z M63.4-16.9L53.1-51C53-51.4,53-51.8,53-52.2l-8.6,0c0,0,0.5,0.4,0.3,1.3
			c0,0-0.4,1.5-1,3.8c0.4,1.6,0.7,3.3,0.7,5.4c0,8.5-3.1,16.5-7.9,21.8c-0.5,1.9-0.8,3.1-0.8,3.1h6.9l1.8-7.3h9.4l1.8,7.3H63.4z
			 M86.4-52.1h-7.8c0,0,1,0.7,0.7,1.3c-0.2,0.6-6.5,22.3-6.5,22.3l-5.6-23.7h-8.6c0,0.3,0,0.6-0.1,0.9c1.2,3.9,6.7,21.3,10.4,33.2
			c0.2,0.5,0.2,1,0.2,1.5h8.2c0,0-1.2-1.8-1-3.1c0.2-1,0.7-3.4,0.7-3.4s8.4-27.2,8.6-27.6C85.7-51.2,86.4-52.1,86.4-52.1z"/>
	</g>
	<g id="Medium-S" transform="matrix(1 0 0 1 1699.83 696)">
		<path d="M27.5-48.3c-0.9,0-2.6,0-2.6,0l-6.1,25.2c0,0,0,0,4,0s9.3-10.2,9.3-17.5C32.1-48,28.4-48.3,27.5-48.3z M25-30.8L27.8-42
			c0,0.4,0.1,0.8,0.1,1.4C27.8-37.2,26.5-33.5,25-30.8z M48.8-40.5l3.3,11.2H45L48.8-40.5z M67.4-12.5c-0.6,0-1.2-0.1-1.8-0.4
			c-0.5,0.1-0.9,0.2-1.4,0.2H55c-2.1,0-3.9-1.4-4.4-3.5l-0.9-3.7h-2.1l-0.9,3.7c-0.5,2-2.3,3.5-4.4,3.5h-6.8c-1.4,0-2.7-0.6-3.6-1.7
			c-0.3-0.4-0.5-0.8-0.7-1.3c-2.7,1.6-5.5,2.4-8.3,2.4c-8.5,0-14.5,0.2-14.7,0.2l-0.1,0c-2.2,0-4.1-1.5-4.5-3.5
			c-0.5-2.1,0.5-4.1,2.3-5c0.5-2.3,1.3-5.6,2.1-9.2l0.3-1.3c2.8-12.5,4.1-18.1,4.5-19.8c-0.5-1.3-0.4-2.8,0.5-4
			c0.8-1.2,2.2-1.9,3.8-2l0.5,0c2.4,0,11.3-0.1,12.2-0.1c2.2,0,6.7,0.9,10.2,4.3c0.7-1.7,2.4-2.9,4.2-2.9h9.8c0.5,0,1,0.1,1.5,0.3
			c0.5-0.2,1-0.3,1.5-0.3h9.8c2.1,0,3.9,1.4,4.4,3.5l1.5,6.5c0.5-1.6,0.8-2.7,1-3.5c-0.4-1-0.5-2.1-0.2-3.1c0.6-1.9,2.3-3.2,4.3-3.2
			h7.7c1.7,0,3.3,1,4.1,2.6c0.7,1.6,0.5,3.5-0.6,4.8c-0.1,0.1-0.2,0.2-0.3,0.3c-0.7,2.4-4.8,15.4-8.2,26.4c-0.2,0.6-0.4,1.6-0.5,2.2
			c0.1,0.1,0.1,0.3,0.2,0.4c1,1.4,1.1,3.1,0.3,4.7c-0.8,1.5-2.3,2.4-4,2.4h-5.3H67.4z M23-17.8c3.4,0,6.7-1.7,9.5-4.5
			c4.4-4.5,7.4-11.7,7.4-19.3c0-2-0.3-3.7-0.8-5.1c-2.3-6.3-8.7-6.6-9.3-6.6c-1,0-12.7,0.1-12.7,0.1s0.5,1.3,0.2,2.3
			c-0.3,1-5.2,23.2-7,30.9c-0.3,1.6-2.1,2.5-2.1,2.5S14.2-17.8,23-17.8z M62.8-17.2L52.8-50.7c-0.1-0.4-0.2-0.8-0.2-1.2l-8.5,0
			c0,0,0.5,0.4,0.3,1.3c0,0-0.4,1.5-1,3.8c0.4,1.5,0.7,3.3,0.7,5.3c0,8.4-3.1,16.2-7.8,21.4c-0.5,1.9-0.8,3-0.8,3h6.8l1.7-7.1h9.2
			l1.7,7.1H62.8z M85.5-51.8h-7.7c0,0,1,0.7,0.7,1.3c-0.2,0.6-6.4,21.9-6.4,21.9L66.6-52h-8.5c0,0.3,0,0.6-0.1,0.9
			c1.2,3.8,6.6,21,10.2,32.6c0.1,0.5,0.2,1,0.2,1.4h8c0,0-1.2-1.7-1-3c0.2-1,0.7-3.3,0.7-3.3s8.3-26.8,8.4-27.2
			C84.7-50.9,85.5-51.8,85.5-51.8z"/>
	</g>
	<g id="Regular-S" transform="matrix(1 0 0 1 1403.58 696)">
		<path d="M27.3-48.1c-0.9,0-2.6,0-2.6,0l-6,24.8c0,0,0,0,4,0s9.1-10,9.1-17.2C31.9-47.8,28.2-48.1,27.3-48.1z M24.7-29.7L27.9-43
			c0,0.5,0.1,1,0.1,1.6C27.9-37.4,26.4-32.9,24.7-29.7z M48.3-40.4l3.3,11h-7L48.3-40.4z M88.1-53.3c-0.7-1.5-2.2-2.4-3.8-2.4h-7.6
			c-1.8,0-3.5,1.2-4,3c-0.3,1-0.2,2.1,0.2,3c-0.3,0.9-0.7,2.3-1.3,4.4l-1.7-7.2c-0.4-1.9-2.1-3.3-4.1-3.3h-3.7h-5.9
			c-0.5,0-1,0.1-1.5,0.3c-0.5-0.2-1-0.3-1.5-0.3l-9.6,0c-1.8,0-3.4,1.1-4,2.8c0,0.1,0,0.2-0.1,0.2c-3.3-3.4-7.8-4.4-10.1-4.4
			c-0.9,0-12,0.1-12.5,0.1c-1.4,0-2.8,0.6-3.5,1.8c-0.8,1.2-0.9,2.5-0.4,3.8c-0.3,1.1-1,4.3-2.6,11.2c-0.5,2.3-1.1,5.1-1.9,8.3
			C7.7-28,6.9-24.2,6.3-21.7c-1.8,0.8-2.7,2.7-2.2,4.7c0.4,1.9,2.3,3.3,4.2,3.3c0,0,0.1,0,0.1,0c0.1,0,6-0.2,14.5-0.2
			c2.9,0,5.7-0.9,8.3-2.5c0.1,0.5,0.4,1,0.7,1.5c0.8,1,2,1.6,3.3,1.6h6.7c1.9,0,3.6-1.3,4.1-3.2l0.9-3.8h2.4l0.9,3.8
			c0.5,1.9,2.2,3.2,4.1,3.2h9c0.5,0,0.9-0.1,1.4-0.2c0.5,0.2,1.1,0.4,1.7,0.4h9c1.6,0,3-0.8,3.8-2.2c0.7-1.4,0.6-3.1-0.3-4.3
			c-0.1-0.1-0.2-0.3-0.2-0.4c0.1-0.7,0.4-1.6,0.5-2.3c2.9-9.5,7.3-23.5,8.1-26c0.1-0.1,0.2-0.2,0.3-0.3
			C88.6-50.1,88.8-51.8,88.1-53.3z M8.3-18c0,0,1.7-0.9,2-2.4c1.7-7.6,6.6-29.3,6.9-30.4c0.3-1-0.2-2.3-0.2-2.3s11.5-0.1,12.5-0.1
			c0.5,0,6.8,0.3,9.1,6.5c0.5,1.4,0.8,3,0.8,5c0,7.4-2.9,14.5-7.2,18.9c-2.7,2.8-5.9,4.5-9.3,4.5C14.2-18.1,8.3-18,8.3-18z
			 M54.4-17.5l-1.7-7h-9.1l-1.7,7h-6.7c0,0,0.3-1.1,0.8-3c4.6-5.2,7.7-12.8,7.7-21.1c0-1.9-0.2-3.7-0.6-5.2c0.6-2.3,1-3.7,1-3.7
			c0.2-0.9-0.3-1.2-0.3-1.2l8.4,0c0,0.4,0.1,0.8,0.2,1.2l9.9,33H54.4z M83.5-50.3c-0.2,0.4-8.3,26.7-8.3,26.7s-0.5,2.3-0.7,3.3
			c-0.2,1.2,1,3,1,3h-7.9c0-0.5,0-1-0.2-1.4c-3.6-11.4-8.9-28.3-10-32c0.1-0.3,0.1-0.6,0.1-0.9h8.4l5.4,22.9c0,0,6-21,6.2-21.5
			c0.3-0.5-0.7-1.2-0.7-1.2h7.6C84.3-51.5,83.6-50.7,83.5-50.3z"/>
	</g>
	<g id="Light-S" transform="matrix(1 0 0 1 1107.6 696)">
		<path d="M26.8-48c-0.9,0-2.6,0-2.6,0l-6,24.7c0,0,0,0,4,0s9.1-9.9,9.1-17.1C31.3-47.7,27.6-48,26.8-48z M23-28.1l3.8-15.6
			c0.3,0.3,0.8,1.3,0.8,3.6C27.6-35.4,24.8-30,23-28.1z M47.6-40.4l3.3,10.9h-7L47.6-40.4z M86.6-52.9c-0.6-1.2-1.8-2-3.2-2h-7.5
			c-1.5,0-2.9,1-3.3,2.4c-0.3,0.9-0.2,1.9,0.3,2.7c-0.4,1.2-1,3.4-2.1,7.2l-2.3-9.8c-0.4-1.6-1.8-2.7-3.4-2.7h-9.5
			c-0.5,0-1,0.1-1.5,0.3c-0.5-0.2-1-0.3-1.5-0.3l-9.5,0c-1.5,0-2.8,0.9-3.3,2.3c-0.2,0.6-0.3,1.2-0.2,1.8c-3.1-4.3-8.2-5.5-10.6-5.5
			c-0.9,0-12,0.1-12.4,0.1c-1.2,0-2.3,0.5-2.9,1.5c-0.6,1-0.8,2.1-0.3,3.2c0,0.1,0,0.2,0,0.2C13-50.3,11.8-45,8.9-32
			c-0.9,4.2-1.8,8.1-2.4,10.6c-0.1,0.1-0.2,0.1-0.2,0.2c-1.5,0.7-2.2,2.3-1.9,3.9c0.4,1.6,1.8,2.7,3.5,2.7c0,0,0.1,0,0.1,0
			c0.1,0,6-0.2,14.4-0.2c3.1,0,6.1-1.1,8.8-2.9c0,0.8,0.2,1.6,0.7,2.2c0.7,0.8,1.7,1.3,2.7,1.3h6.7c1.6,0,3-1.1,3.4-2.7l1.1-4.3h3.5
			l1.1,4.3c0.4,1.6,1.8,2.7,3.4,2.7h8.9c0.5,0,1-0.1,1.4-0.3c0.5,0.3,1.1,0.5,1.7,0.5h8.9c1.3,0,2.5-0.7,3.1-1.9
			c0.6-1.1,0.5-2.5-0.2-3.6c-0.1-0.2-0.3-0.5-0.4-0.8c0.1-0.7,0.4-1.8,0.6-2.6c3-9.6,7.3-23.8,8.1-26c0.1-0.1,0.2-0.3,0.4-0.5
			C87-50.2,87.1-51.7,86.6-52.9z M22.4-18.2c-8.6,0-14.5,0.2-14.5,0.2s1.7-0.9,2-2.4c1.7-7.5,6.5-29.2,6.8-30.2
			c0.3-1-0.2-2.2-0.2-2.2S28-53,29-53c0.5,0,7.6,0.4,9.4,7.8c0.3,1.1,0.4,2.3,0.4,3.7c0,6.8-2.4,13.3-6.1,17.7
			C29.8-20.4,26.2-18.2,22.4-18.2z M52-24.6h-9l-1.7,7h-6.7c0,0,0.4-1.8,1.2-4.5c3.9-5,6.5-11.9,6.5-19.4c0-1.3-0.1-2.5-0.3-3.6
			c0.8-3.1,1.3-5.2,1.3-5.2c0.2-0.9-0.3-1.2-0.3-1.2l9,0c0,0.3,0,0.7,0.1,1l9.9,33h-8.3L52-24.6z M82.6-50.2
			c-0.2,0.4-8.2,26.5-8.2,26.5s-0.5,2.2-0.7,3.3c-0.2,1.2,1,2.9,1,2.9h-8.5c0-0.4,0-0.8-0.2-1.2c-3.6-11.6-9-28.7-10-32
			C56-51,56-51.3,56-51.6h9l5.4,22.8c0,0,6-20.9,6.2-21.4c0.3-0.5-0.7-1.2-0.7-1.2h7.5C83.4-51.4,82.7-50.6,82.6-50.2z"/>
	</g>
	<g id="Thin-S" transform="matrix(1 0 0 1 811.863 696)">
		<path d="M26-47.8c-0.8,0-2.5,0-2.5,0l-5.9,24.3c0,0,0,0,3.9,0s9-9.8,9-16.9C30.4-47.5,26.8-47.8,26-47.8z M21.5-26.6l4.4-18.2
			c0,0,1.5,1.5,1.5,4.4C27.3-34.1,23.2-27.3,21.5-26.6z M46.5-40.3l3.2,10.8h-6.9L46.5-40.3z M84.6-52.5c-0.5-1.1-1.6-1.7-2.8-1.7
			h-7.4c-1.4,0-2.7,0.9-3,2.2c-0.3,0.9-0.1,1.8,0.4,2.5c-0.4,1.3-1.1,3.9-2.5,8.5L66.7-52c-0.3-1.4-1.6-2.4-3-2.4h-9.4
			c-0.5,0-1,0.1-1.4,0.4c-0.4-0.2-0.9-0.4-1.5-0.4l-9.4,0c-1.3,0-2.4,0.8-2.9,2c-0.3,0.7-0.2,1.5,0,2.2c-0.1,0.2-0.1,0.4-0.2,0.7
			c-2.9-5-8.3-6.3-10.8-6.3c-0.9,0-11.8,0.1-12.3,0.1c-1,0-2,0.5-2.5,1.3c-0.6,0.8-0.7,1.9-0.3,2.8c0,0.1,0.1,0.3,0.1,0.4
			c-0.3,1-6.2,27.4-6.8,29.9C6.2-21.2,6-21,5.9-21c-1.3,0.6-1.9,2.1-1.6,3.5c0.3,1.4,1.6,2.3,3,2.3c0,0,6-0.2,14.3-0.2
			c3.3,0,6.4-1.2,9.2-3.4c0,0.1,0,0.2,0,0.2c-0.2,0.9,0,1.9,0.6,2.6c0.6,0.7,1.5,1.2,2.4,1.2h6.6c1.4,0,2.6-1,3-2.3l1.1-4.6h4.1
			l1.1,4.6c0.3,1.4,1.6,2.3,3,2.3h8.8c0.5,0,1-0.1,1.4-0.3c0.5,0.3,1.1,0.5,1.7,0.5h8.8c1.1,0,2.2-0.6,2.7-1.6
			c0.5-1,0.5-2.2-0.2-3.2c-0.2-0.3-0.4-0.7-0.5-0.9c0.1-0.7,0.4-1.9,0.6-2.6c2.9-9.5,7.3-23.7,8-25.7c0.1-0.1,0.3-0.4,0.4-0.5
			C84.9-50.2,85.1-51.4,84.6-52.5z M21.6-18.4c-8.5,0-14.3,0.2-14.3,0.2s1.7-0.8,2-2.4c1.7-7.4,6.4-28.8,6.7-29.8
			c0.3-1-0.2-2.2-0.2-2.2s11.3-0.1,12.2-0.1c0.6,0,8.1,0.4,9.5,8.5c0.1,0.9,0.2,1.8,0.2,2.8c0,6.3-2.1,12.3-5.4,16.7
			C29.5-20.9,25.6-18.4,21.6-18.4z M52.5-17.8l-1.7-6.9H42l-1.7,6.9h-6.6c0,0,0.5-2.2,1.5-5.4c3.5-4.8,5.7-11.2,5.7-18.1
			c0-0.9-0.1-1.8-0.2-2.7c0.9-3.6,1.6-6.1,1.6-6.1c0.2-0.8-0.3-1.2-0.3-1.2l9.3,0c0,0.1-0.1,0.9,0,1.2c0.1,0.4,9.9,32.3,9.9,32.3
			H52.5z M81-50c-0.2,0.4-8.1,26.2-8.1,26.2s-0.5,2.2-0.7,3.2c-0.2,1.2,1,2.9,1,2.9l-8.8-0.1c0-0.3,0-0.7-0.1-1
			C63-22.6,54.4-51,54.4-51c0-0.1,0-0.3,0-0.4h9.3L69-28.8c0,0,5.9-20.6,6.1-21.1c0.3-0.5-0.7-1.2-0.7-1.2h7.4
			C81.8-51.2,81.1-50.4,81-50z"/>
	</g>
	<g id="Ultralight-S" transform="matrix(1 0 0 1 515.649 696)">
		<path d="M24.5-47.8c-0.8,0-2.5,0-2.5,0l-5.9,24.2c0,0,0,0,3.9,0S29-33.3,29-40.4C29-47.5,25.4-47.8,24.5-47.8z M19.1-25.8
			c1.2-4.3,4.4-18,4.8-19.6c2,0,3,2,2.8,5.1C26.3-31.9,21.8-25.4,19.1-25.8z M41.3-29.6h6.8l-3.2-10.7L41.3-29.6z M82.2-52.1
			c-0.4-0.8-1.2-1.3-2.1-1.3h-7.4c-1,0-1.9,0.6-2.2,1.6c-0.2,0.8-0.1,1.6,0.4,2.1c-0.4,1.4-1.3,4.5-3.4,11.7l-3.2-13.8
			c-0.2-1-1.2-1.8-2.2-1.8h-9.4c-0.5,0-1.1,0.2-1.5,0.5c-0.4-0.3-0.9-0.5-1.4-0.5l-9.4,0c-1,0-1.8,0.6-2.1,1.5
			c-0.2,0.6-0.2,1.3,0.1,1.8c-0.1,0.6-0.4,1.6-0.8,3c-2.3-6.2-8.3-7.8-11-7.8c-0.9,0-11.7,0.1-12.2,0.1c-0.7,0-1.4,0.4-1.9,1
			c-0.4,0.6-0.5,1.4-0.3,2.1c0.1,0.2,0.1,0.6,0.1,0.7c-0.2,0.6-6.2,27.3-6.7,29.8c0,0,0,0,0,0.1c0,0.2-0.5,0.6-0.8,0.8
			c-1,0.5-1.4,1.6-1.2,2.6c0.3,1,1.2,1.7,2.2,1.7c0,0,5.9-0.2,14.2-0.2c3.7,0,7.4-1.7,10.5-4.8c-0.4,1.6-0.7,2.5-0.7,2.6
			c-0.2,0.7,0,1.4,0.4,2c0.4,0.6,1.1,0.9,1.8,0.9h6.5c1.1,0,2-0.7,2.2-1.7l1.2-5.1h5.2l1.2,5.1c0.2,1,1.2,1.7,2.2,1.7h8.8
			c0.5,0,1-0.2,1.4-0.5c0.4,0.4,1,0.7,1.6,0.7h8.8c0.8,0,1.6-0.5,2-1.2c0.4-0.7,0.3-1.7-0.1-2.4c-0.3-0.4-0.6-1.1-0.6-1.3
			c0.1-1.9,8.1-26.9,8.6-28.6c0.1-0.2,0.3-0.4,0.5-0.7C82.4-50.3,82.5-51.3,82.2-52.1z M20.2-18.5C11.8-18.5,6-18.4,6-18.4
			s1.7-0.8,2-2.4c1.7-7.4,6.4-28.6,6.7-29.6c0.3-1-0.2-2.2-0.2-2.2s11.3-0.1,12.2-0.1c0.6,0,9.3,0.4,9.6,10.6c0,0.2,0,0.4,0,0.6
			c0,5.4-1.6,10.6-4.1,14.6C29.2-21.8,24.9-18.5,20.2-18.5z M51-17.9l-1.7-6.8h-8.8l-1.7,6.8h-6.5l2.1-7.9
			c2.7-4.5,4.2-10.1,4.2-15.5c0-0.1,0-0.3,0-0.4l2.1-8.3c0.2-0.8-0.3-1.2-0.3-1.2l9.4,0c0,0-0.3,0.5-0.2,1.2
			c0.2,0.7,10,32.1,10,32.1H51z M79.3-49.9c-0.2,0.4-8.1,26-8.1,26s-0.5,2.2-0.7,3.2c-0.2,1.2,1,2.9,1,2.9h-8.8l-0.8-2.7l-1.6-5.4
			l-7.6-25.4h9.4l5.3,22.4c0,0,5.9-20.5,6.1-21c0.3-0.5-0.7-1.2-0.7-1.2h7.4C80.1-51.1,79.4-50.3,79.3-49.9z"/>
	</g>
</g>
</svg>
