<?xml version="1.0" encoding="utf-8"?>
<!-- Generator: Adobe Illustrator 24.1.1, SVG Export Plug-In . SVG Version: 6.00 Build 0)  -->
<svg version="1.1" id="Layer_1" xmlns="http://www.w3.org/2000/svg" xmlns:xlink="http://www.w3.org/1999/xlink" x="0px" y="0px"
	 viewBox="0 0 3300 2200" style="enable-background:new 0 0 3300 2200;" xml:space="preserve">
<style type="text/css">
	.st0{fill:#FFFFFF;}
	.st1{fill:none;stroke:#000000;stroke-width:0.5;}
	.st2{font-family:'Arial-BoldMT';}
	.st3{font-size:13px;}
	.st4{font-family:'ArialMT';}
	.st5{fill:none;stroke:#00AEEF;stroke-width:0.5;}
	.st6{fill:#27AAE1;}
	.st7{fill:none;stroke:#27AAE1;stroke-width:0.5;}
</style>
<g id="Notes">
	<rect id="artboard" class="st0" width="3300" height="2200"/>
	<line class="st1" x1="263" y1="292" x2="3036" y2="292"/>
	<text transform="matrix(1 0 0 1 263 322)" class="st2 st3">Weight/Scale Variations</text>
	<text transform="matrix(1 0 0 1 534.0632 322)" class="st4 st3">Ultralight</text>
	<text transform="matrix(1 0 0 1 843.7775 322)" class="st4 st3">Thin</text>
	<text transform="matrix(1 0 0 1 1139.035 322)" class="st4 st3">Light</text>
	<text transform="matrix(1 0 0 1 1427.0773 322)" class="st4 st3">Regular</text>
	<text transform="matrix(1 0 0 1 1723.4419 322)" class="st4 st3">Medium</text>
	<text transform="matrix(1 0 0 1 2016.1719 322)" class="st4 st3">Semibold</text>
	<text transform="matrix(1 0 0 1 2326.9705 322)" class="st4 st3">Bold</text>
	<text transform="matrix(1 0 0 1 2618.2659 322)" class="st4 st3">Heavy</text>
	<text transform="matrix(1 0 0 1 2917.5054 322)" class="st4 st3">Black</text>
	<line class="st1" x1="263" y1="1903" x2="3036" y2="1903"/>
	<g transform="matrix(1 0 0 1 263 1933)">
		<path d="M9.2,0.8c4.3,0,7.9-3.6,7.9-7.9S13.5-15,9.2-15s-7.9,3.6-7.9,7.9C1.4-2.7,5,0.8,9.2,0.8z M9.2-0.7C5.7-0.7,2.9-3.5,2.9-7
			c0-3.6,2.8-6.4,6.4-6.4s6.4,2.8,6.4,6.4C15.6-3.5,12.8-0.7,9.2-0.7z M5.7-7.1c0,0.4,0.3,0.7,0.8,0.7h2.1v2.1
			c0,0.4,0.3,0.7,0.7,0.7S10-3.9,10-4.3v-2.1h2.1c0.4,0,0.7-0.3,0.7-0.7c0-0.4-0.3-0.7-0.7-0.7H10v-2.1c0-0.4-0.3-0.8-0.7-0.8
			s-0.7,0.3-0.7,0.8v2.1H6.4C6-7.8,5.7-7.5,5.7-7.1z"/>
	</g>
	<g transform="matrix(1 0 0 1 281.867 1933)">
		<path d="M11.7,2.9c5.4,0,10-4.5,10-10c0-5.4-4.5-10-10-10c-5.4,0-10,4.5-10,10C1.7-1.6,6.3,2.9,11.7,2.9z M11.7,1.3
			C7.1,1.3,3.4-2.4,3.4-7s3.7-8.3,8.3-8.3S20-11.7,20-7.1C20-2.4,16.3,1.3,11.7,1.3z M7.2-7.1c0,0.5,0.3,0.8,0.8,0.8h2.9v2.9
			c0,0.5,0.3,0.8,0.8,0.8s0.8-0.3,0.8-0.8v-2.9h2.9c0.5,0,0.8-0.3,0.8-0.8s-0.3-0.8-0.8-0.8h-2.9v-2.9c0-0.5-0.3-0.8-0.8-0.8
			s-0.8,0.3-0.8,0.8v2.9H8C7.5-7.9,7.2-7.5,7.2-7.1z"/>
	</g>
	<g transform="matrix(1 0 0 1 305.646 1933)">
		<path d="M15,5.7c7,0,12.7-5.8,12.7-12.7c0-7-5.8-12.7-12.7-12.7C8-19.8,2.3-14,2.3-7.1C2.3-0.1,8,5.7,15,5.7z M15,3.8
			C8.9,3.8,4.1-1,4.1-7S8.9-17.9,15-17.9c6,0,10.9,4.9,10.9,10.9S21,3.8,15,3.8z M9.2-7.1c0,0.5,0.4,0.9,0.9,0.9H14v4
			c0,0.5,0.4,0.9,0.9,0.9s0.9-0.4,0.9-0.9v-4h4c0.5,0,0.9-0.4,0.9-0.9S20.3-8,19.8-8h-4v-3.9c0-0.5-0.4-0.9-0.9-0.9S14-12.4,14-11.9
			V-8h-3.9C9.6-8,9.2-7.6,9.2-7.1z"/>
	</g>
	<text transform="matrix(1 0 0 1 263 1953)" class="st2 st3">Design Variations</text>
	<text transform="matrix(1 0 0 1 263 1971)" class="st4 st3">Symbols are supported in up to nine weights and three scales.</text>
	<text transform="matrix(1 0 0 1 263 1989)" class="st4 st3">For optimal layout with text and other symbols, vertically align</text>
	<text transform="matrix(1 0 0 1 263 2007)" class="st4 st3">symbols with the adjacent text.</text>
	<line class="st5" x1="776" y1="1919" x2="776" y2="1933"/>
	<g transform="matrix(1 0 0 1 776 1933)">
		<path d="M3.3,0.2c0.5,0,0.8-0.2,1-0.7L5.5-4h5.8l1.3,3.4C12.7,0,13,0.2,13.5,0.2s0.9-0.3,0.9-0.8c0-0.2,0-0.3-0.1-0.5L9.7-13.4
			C9.4-14,9-14.3,8.4-14.3s-1,0.3-1.2,0.9L2.6-1.2C2.5-1,2.5-0.8,2.5-0.6C2.5-0.1,2.8,0.2,3.3,0.2z M6-5.5l2.4-6.6l0,0l2.4,6.6
			C10.8-5.5,6-5.5,6-5.5z"/>
	</g>
	<line class="st5" x1="793.2" y1="1919" x2="793.2" y2="1933"/>
	<text transform="matrix(1 0 0 1 776 1953)" class="st2 st3">Margins</text>
	<text transform="matrix(1 0 0 1 776 1971)" class="st4 st3">Leading and trailing margins on the left and right side of each symbol</text>
	<text transform="matrix(1 0 0 1 776 1989)" class="st4 st3">can be adjusted by modifying the x-location of the margin guidelines.</text>
	<text transform="matrix(1 0 0 1 776 2007)" class="st4 st3">Modifications are automatically applied proportionally to all</text>
	<text transform="matrix(1 0 0 1 776 2025)" class="st4 st3">scales and weights.</text>
	<g transform="matrix(1 0 0 1 1289 1933)">
		<path d="M2.8,1.9l1.7,1.7c0.9,0.9,1.8,0.8,2.8-0.2L18-8.4l-1-1L6.4,2.3C6,2.7,5.7,2.8,5.2,2.3L4.1,1.1C3.6,0.7,3.7,0.3,4.1,0
			l11.5-10.8l-1-1L3-0.9C2.1,0,2,1,2.8,1.9z M9.3-16.3c-0.4,0.4-0.4,1-0.2,1.4s0.7,0.6,1.3,0.4c1.5-0.3,3-0.4,4.4,0.5l-0.6,1.5
			c-0.3,0.8-0.2,1.4,0.4,2l2.3,2.3c0.5,0.5,0.9,0.5,1.5,0.4l1-0.2l0.7,0.7v0.6c0,0.5,0.1,0.9,0.6,1.4l0.8,0.7c0.5,0.5,1.1,0.5,1.6,0
			L26-7.5C26.5-8,26.4-8.6,26-9l-1-0.9c-0.5-0.5-0.9-0.6-1.3-0.6h-0.6l-0.6-0.6l0.2-1.1c0.1-0.6,0-1-0.6-1.6L19.9-16
			C16.6-19.3,12.1-19.2,9.3-16.3z M10.8-16c2.4-1.8,5.7-1.5,7.9,0.8l2.4,2.4c0.2,0.2,0.3,0.4,0.2,0.8L21-10.5L22.5-9l1-0.1
			c0.3,0,0.3,0,0.5,0.2l0.6,0.6l-2.4,2.4l-0.6-0.6c-0.2-0.2-0.2-0.3-0.2-0.5l0.1-1L20-9.5l-1.5,0.3c-0.3,0.1-0.5,0-0.7-0.2l-2-2
			c-0.3-0.2-0.3-0.4-0.1-0.8l0.9-2.1C15-15.8,13-16.4,11-15.8C10.7-15.7,10.6-15.9,10.8-16z"/>
	</g>
	<text transform="matrix(1 0 0 1 1289 1953)" class="st2 st3">Exporting</text>
	<text transform="matrix(1 0 0 1 1289 1971)" class="st4 st3">Symbols should be outlined when exporting to ensure the</text>
	<text transform="matrix(1 0 0 1 1289 1989)" class="st4 st3">design is preserved when submitting to Xcode.</text>
	<text id="template-version" transform="matrix(1 0 0 1 2952.4204 1933)" class="st4 st3">Template v.4.0</text>
	<text transform="matrix(1 0 0 1 2865.4575 1951)" class="st4 st3">Requires Xcode 14 or greater</text>
	<text id="descriptive-name" transform="matrix(1 0 0 1 2894.3657 1969)" class="st4 st3">Generated from dropbox</text>
	<text transform="matrix(1 0 0 1 2912.4175 1987)" class="st4 st3">Typeset at 100 points</text>
	<text transform="matrix(1 0 0 1 263 726)" class="st4 st3">Small</text>
	<text transform="matrix(1 0 0 1 263 1156)" class="st4 st3">Medium</text>
	<text transform="matrix(1 0 0 1 263 1586)" class="st4 st3">Large</text>
</g>
<g id="Guides">
	<g id="H-reference" transform="matrix(1 0 0 1 339 696)">
		<path class="st6" d="M1,0h2.6l25.7-67.1H30v-3.3h-1.9L1,0z M11.7-24.5H47l-0.8-2.2H12.4L11.7-24.5z M55.1,0h2.6L30.6-70.5h-1.2
			v3.3L55.1,0z"/>
	</g>
	<line id="Baseline-S" class="st7" x1="263" y1="696" x2="3036" y2="696"/>
	<line id="Capline-S" class="st7" x1="263" y1="625.5" x2="3036" y2="625.5"/>
	<g id="H-reference_1_" transform="matrix(1 0 0 1 339 1126)">
		<path class="st6" d="M1,0h2.6l25.7-67.1H30v-3.3h-1.9L1,0z M11.7-24.5H47l-0.8-2.2H12.4L11.7-24.5z M55.1,0h2.6L30.6-70.5h-1.2
			v3.3L55.1,0z"/>
	</g>
	<line id="Baseline-M" class="st7" x1="263" y1="1126" x2="3036" y2="1126"/>
	<line id="Capline-M" class="st7" x1="263" y1="1055.5" x2="3036" y2="1055.5"/>
	<g id="H-reference_2_" transform="matrix(1 0 0 1 339 1556)">
		<path class="st6" d="M1,0h2.6l25.7-67.1H30v-3.3h-1.9L1,0z M11.7-24.5H47l-0.8-2.2H12.4L11.7-24.5z M55.1,0h2.6L30.6-70.5h-1.2
			v3.3L55.1,0z"/>
	</g>
	<line id="Baseline-L" class="st7" x1="263" y1="1556" x2="3036" y2="1556"/>
	<line id="Capline-L" class="st7" x1="263" y1="1485.5" x2="3036" y2="1485.5"/>
	<line id="left-margin-Regular-M" class="st5" x1="1391.3" y1="1030.8" x2="1391.3" y2="1150.1"/>
	<line id="right-margin-Regular-M" class="st5" x1="1508.4" y1="1030.8" x2="1508.4" y2="1150.1"/>
</g>
<g id="Symbols">
	<g id="Black-L" transform="matrix(1 0 0 1 2854.19 1556)">
		<path d="M83.3,35.1l40.9-26.7c2.1-1.4,3.4-3.7,3.4-6.2v-20c0-4.1-3.4-7.5-7.5-7.5s-7.5,3.4-7.5,7.5v15.9L79.1,20L45.5-2.2v-15.6
			c0-4.1-3.4-7.5-7.5-7.5s-7.5,3.4-7.5,7.5V1.8c0,2.5,1.3,4.8,3.4,6.2l40.9,27.1c1.3,0.8,2.7,1.3,4.1,1.3
			C80.6,36.3,82,35.9,83.3,35.1z M124.1-48.4l25.4-20.8c1.8-1.5,2.8-3.9,2.7-6.2c-0.1-2.3-1.4-4.5-3.5-5.8l-38.8-24.5
			c-2.7-1.7-6.2-1.5-8.8,0.5L74.4-83.1c-1.9,1.5-2.8,3.9-2.7,6.3c0.3,2.5,1.5,4.6,3.7,5.8l40.1,23.2c1.2,0.6,2.5,1,3.7,1
			C121-46.7,122.7-47.2,124.1-48.4z M106.6-90.3l25.5,16.1l-13.4,11L92.2-78.4L106.6-90.3z M58.1-3.2l25.7-20c1.9-1.5,3-3.9,2.8-6.2
			c-0.1-2.5-1.4-4.6-3.5-5.9l-38.2-24c-2.6-1.7-5.9-1.5-8.4,0.4L9.2-38.4c-1.9,1.5-3.1,3.9-3,6.3c0.1,2.5,1.5,4.8,3.6,5.9L49.7-2.7
			c1.2,0.6,2.5,1,3.7,1C55.2-1.7,56.8-2.2,58.1-3.2z M41.4-44l24.9,15.6L53-18L27.1-33.3L41.4-44z M45-46.8l38.2-24.3
			c1.9-1.3,3.2-3.4,3.5-5.7c0.1-2.3-0.8-4.6-2.6-6.2L58.4-105c-2.5-2.2-6.1-2.5-8.9-0.6L9.7-80c-2.1,1.3-3.4,3.5-3.4,5.9
			c-0.1,2.5,1,4.8,3,6.2l27.3,20.8c1.3,1,3,1.5,4.5,1.5C42.3-45.6,43.7-46,45-46.8z M52.9-90.2l13.9,12L41.4-62L26.7-73.3L52.9-90.2
			z M109.3-2.7l39.3-23.5c2.1-1.3,3.4-3.4,3.6-5.8s-0.8-4.8-2.6-6.3l-25.4-21.5c-2.5-2.1-6.1-2.3-8.8-0.6L75.3-35.3
			c-2.1,1.3-3.4,3.5-3.5,5.9c-0.1,2.5,1,4.8,3,6.2l26.2,20c1.3,1,3,1.5,4.5,1.5C106.7-1.7,108.1-2,109.3-2.7z M118.7-44.9L132-33.5
			l-26.1,15.6L92.2-28.2L118.7-44.9z"/>
	</g>
	<g id="Heavy-L" transform="matrix(1 0 0 1 2558.42 1556)">
		<path d="M81.9,34l40.6-26.6c1.9-1.3,3.1-3.4,3.1-5.5v-19.7c0-3.7-3-6.7-6.7-6.7s-6.7,3-6.7,6.7v16.1L78.3,20.4L44.4-2v-15.9
			c0-3.7-3-6.7-6.7-6.7c-3.7,0-6.7,3-6.7,6.7V1.6c0,2.2,1.2,4.4,3,5.5L74.6,34c1.2,0.8,2.5,1.2,3.7,1.2C79.6,35,80.9,34.6,81.9,34z
			 M122.3-48.7l25.2-20.5c1.7-1.4,2.6-3.5,2.5-5.5c-0.1-2.2-1.3-4.1-3.1-5.3l-38.4-24.5c-2.5-1.5-5.7-1.3-7.9,0.5L73.9-82.1
			c-1.7,1.4-2.6,3.5-2.5,5.7c0.1,2.2,1.4,4.1,3.4,5.3l39.7,23c1,0.6,2.2,0.9,3.4,0.9C119.6-47.3,121.1-47.7,122.3-48.7z M105.4-90.7
			l26.4,16.8l-14.4,11.7L89.9-78L105.4-90.7z M57-4l25.4-19.7c1.7-1.3,2.7-3.5,2.6-5.7c-0.1-2.2-1.3-4.1-3.1-5.3L44-58.5
			c-2.3-1.4-5.4-1.3-7.6,0.3L9.3-38c-1.8,1.3-2.8,3.5-2.7,5.7c0.1,2.2,1.4,4.3,3.2,5.4L49.3-3.7c1,0.6,2.2,0.9,3.4,0.9
			C54.3-2.6,55.7-3.1,57-4z M40.8-44.7l25.9,16.3L52.4-17.4l-27-15.9L40.8-44.7z M44-47.2l37.9-24.1c1.8-1.2,3-3.1,3.1-5.2
			c0.1-2.1-0.6-4.1-2.3-5.5l-25.4-21.9c-2.2-1.9-5.5-2.2-8-0.5L9.8-79c-1.8,1.2-3,3.2-3.1,5.4c-0.1,2.2,0.9,4.3,2.6,5.5l27.1,20.5
			c1.2,0.9,2.6,1.4,4,1.4C41.7-46.2,42.9-46.5,44-47.2z M52.2-90.5l14.8,12.8L40.8-61L25-73L52.2-90.5z M107.7-3.6l39-23.2
			c1.8-1.2,3.1-3.1,3.2-5.2c0.1-2.2-0.6-4.3-2.3-5.7l-25.2-21.4c-2.2-1.9-5.4-2.1-7.9-0.5L74.8-34.7c-1.8,1.2-3.1,3.2-3.1,5.4
			c-0.1,2.2,0.9,4.3,2.6,5.7l25.9,19.7c1.2,0.9,2.6,1.4,4,1.4C105.5-2.6,106.7-2.9,107.7-3.6z M117.5-45.6l14.3,12.1l-27.1,16.1
			L90-28.5L117.5-45.6z"/>
	</g>
	<g id="Bold-L" transform="matrix(1 0 0 1 2262.89 1556)">
		<path d="M80.3,32.8l40.2-26.3c1.7-1.2,2.7-3,2.7-5v-19.6c0-3.4-2.7-5.9-5.9-5.9c-3.2,0-5.9,2.7-5.9,5.9v16.4L77.3,20.5L42.9-2
			v-16.1c0-3.4-2.7-5.9-5.9-5.9c-3.2,0-5.9,2.7-5.9,5.9V1.2c0,2.1,1,3.9,2.7,5L74,32.8c1,0.6,2.2,1,3.4,1
			C78.3,33.7,79.3,33.4,80.3,32.8z M120.3-49.1l24.9-20.4c1.5-1.2,2.3-3.1,2.2-5c-0.1-1.9-1.2-3.6-2.7-4.6l-38.1-24.1
			c-2.2-1.4-5-1.2-7,0.4L73.4-81.2c-1.5,1.3-2.3,3.1-2.2,5.2c0.1,1.9,1.3,3.7,3,4.6l39.5,22.8c0.9,0.5,1.9,0.8,3,0.8
			C117.9-47.8,119.2-48.2,120.3-49.1z M103.8-90.9l27.5,17.4L116-61L87.6-77.4L103.8-90.9z M55.6-4.8l25.2-19.6
			c1.5-1.2,2.5-3.1,2.3-5c-0.1-1.9-1.2-3.7-2.8-4.8L42.7-57.8c-2.1-1.3-4.8-1.2-6.7,0.3L9.1-37.4c-1.5,1.2-2.5,3.1-2.3,5.2
			c0.1,1.9,1.2,3.7,3,4.8L49-4.4c0.9,0.5,1.9,0.8,3.1,0.8C53.1-3.6,54.4-4,55.6-4.8z M39.8-45.5l26.8,16.9L51.5-16.7l-28-16.5
			L39.8-45.5z M42.7-47.7l37.5-23.9c1.5-1,2.6-2.7,2.7-4.6c0.1-1.9-0.6-3.7-2.1-4.9l-25.2-21.7c-2.1-1.7-4.9-1.9-7.1-0.5L9.4-78.2
			c-1.7,1-2.7,2.8-2.7,4.8c-0.1,1.9,0.8,3.9,2.3,5L35.8-48c1,0.8,2.3,1.2,3.6,1.2C40.6-46.8,41.8-47.1,42.7-47.7z M51.3-90.9
			l15.7,13.5L39.8-60.1L23.1-72.9L51.3-90.9z M105.9-4.4l38.6-23.1c1.7-1,2.7-2.7,2.8-4.6c0.1-1.9-0.6-3.7-2.1-5l-24.9-21.2
			c-1.9-1.7-4.8-1.9-7.1-0.5L73.8-34.2c-1.7,1-2.7,2.8-2.8,4.8c-0.1,1.9,0.8,3.9,2.3,5L99.1-4.8c1,0.8,2.3,1.2,3.6,1.2
			C104-3.6,105-3.8,105.9-4.4z M116-46.4l15.2,12.9l-28,16.8L87.6-28.6L116-46.4z"/>
	</g>
	<g id="Semibold-L" transform="matrix(1 0 0 1 1966.99 1556)">
		<path d="M79.2,31.6L119,5.6c1.5-1,2.3-2.6,2.3-4.4v-19.4c0-3-2.3-5.3-5.3-5.3s-5.3,2.3-5.3,5.3v16.5L76.2,20.9L41.6-1.9v-16.3
			c0-3-2.3-5.3-5.3-5.3c-3,0-5.3,2.3-5.3,5.3V0.9c0,1.8,0.9,3.5,2.3,4.4l39.9,26.3c0.9,0.5,1.9,0.9,2.8,0.9
			C77.2,32.4,78.3,32.1,79.2,31.6z M118.7-49.5l24.8-20.3c1.3-1,2.1-2.7,1.9-4.4c-0.1-1.7-1-3.2-2.5-4.1l-37.8-23.9
			c-1.9-1.2-4.4-1-6.2,0.4L72.9-80.2c-1.3,1.2-2.1,2.8-1.9,4.5s1.2,3.2,2.6,4.1L112.6-49c0.8,0.5,1.7,0.6,2.6,0.6
			C116.6-48.4,117.7-48.7,118.7-49.5z M102.8-91.3l28.4,17.9l-16.3,13.3l-29.4-17L102.8-91.3z M54.5-5.7l25-19.4
			c1.4-1,2.1-2.7,2.1-4.4c-0.1-1.7-1-3.2-2.5-4.3L42-57c-1.8-1.2-4.3-1-5.9,0.3l-26.6,20c-1.4,1-2.2,2.7-2.1,4.5
			c0.1,1.8,1,3.4,2.6,4.3L48.9-5.1c0.8,0.5,1.8,0.8,2.7,0.8C52.5-4.5,53.6-4.9,54.5-5.7z M39.3-46.2l27.7,17.4L50.8-16.1l-28.9-17
			L39.3-46.2z M41.9-48.1L79-71.7c1.4-0.9,2.3-2.5,2.5-4c0.1-1.7-0.5-3.2-1.8-4.4l-25-21.5c-1.8-1.5-4.3-1.7-6.3-0.4L9.5-77
			c-1.4,0.9-2.3,2.5-2.5,4.3c-0.1,1.7,0.6,3.4,2.1,4.4l26.6,20.3c0.9,0.8,2.1,1,3.2,1C40.1-47.3,41-47.6,41.9-48.1z M50.8-91.2
			l16.6,14.3L39.3-58.9L21.6-72.4L50.8-91.2z M104.5-5.3l38.3-22.8c1.4-0.9,2.5-2.5,2.6-4.1c0.1-1.7-0.5-3.4-1.8-4.4l-24.8-21
			c-1.8-1.4-4.3-1.7-6.2-0.4L73.5-33.5c-1.4,0.9-2.5,2.5-2.5,4.3c-0.1,1.7,0.6,3.4,2.1,4.4L98.7-5.5c0.9,0.8,2.1,1,3.2,1
			C102.8-4.5,103.7-4.8,104.5-5.3z M114.9-47.1L131-33.3L102.1-16L85.5-28.6L114.9-47.1z"/>
	</g>
	<g id="Medium-L" transform="matrix(1 0 0 1 1670.9 1556)">
		<path d="M78.1,30.4l39.5-25.8c1.3-0.8,2.1-2.3,2.1-3.8v-19.2c0-2.5-2-4.6-4.6-4.6s-4.6,2-4.6,4.6v16.8L75.6,21.2L40.7-1.9v-16.5
			c0-2.5-2-4.6-4.6-4.6s-4.6,2-4.6,4.6v19c0,1.5,0.8,3,2,3.8L73,30.5c0.8,0.5,1.6,0.8,2.5,0.8C76.5,31.2,77.4,30.9,78.1,30.4z
			 M117.2-49.9l24.5-20c1.1-0.9,1.8-2.3,1.7-3.8c-0.1-1.5-0.9-2.8-2.1-3.6L103.9-101c-1.7-1.1-3.8-0.9-5.3,0.3L72.8-79.4
			c-1.2,1-1.8,2.4-1.6,3.9c0.1,1.5,1,2.8,2.3,3.6l38.7,22.4c0.7,0.4,1.5,0.6,2.3,0.6C115.4-48.9,116.4-49.2,117.2-49.9z M101.8-91.5
			L131.1-73l-17.2,14L83.6-76.5L101.8-91.5z M53.7-6.4l24.7-19.2c1.2-0.9,1.8-2.3,1.8-3.8c-0.1-1.5-0.9-2.8-2.1-3.6L41.2-56.2
			c-1.6-1-3.6-0.9-5.2,0.2L9.7-36.3c-1.2,0.9-1.9,2.4-1.8,3.9s0.9,2.9,2.2,3.7L48.5-6.1c0.7,0.4,1.5,0.6,2.3,0.6
			C51.9-5.4,52.9-5.8,53.7-6.4z M39-46.9l28.7,18L50.5-15.6L20.6-33.2L39-46.9z M41.2-48.5l36.9-23.4c1.2-0.8,2-2.1,2.1-3.5
			s-0.5-2.8-1.6-3.8l-24.7-21.3c-1.5-1.3-3.7-1.5-5.4-0.4L10.1-76.2c-1.3,0.8-2,2.2-2.1,3.7c-0.1,1.5,0.6,2.9,1.8,3.8l26.3,20
			c0.8,0.6,1.8,0.9,2.8,0.9C39.6-47.8,40.5-48.1,41.2-48.5z M50.5-91.5L68-76.4L39-58L20.4-72.2L50.5-91.5z M103.3-6.1l37.9-22.6
			c1.3-0.8,2.1-2.1,2.2-3.5c0.1-1.5-0.5-2.9-1.6-3.9l-24.5-20.8c-1.5-1.3-3.7-1.4-5.4-0.4L73.2-33.1c-1.3,0.8-2.1,2.2-2.1,3.7
			c-0.1,1.5,0.6,2.9,1.8,3.8L98.2-6.4C99-5.8,100-5.5,101-5.5C101.7-5.4,102.6-5.6,103.3-6.1z M113.9-47.8L131-33.3l-29.8,17.8
			L83.6-28.9L113.9-47.8z"/>
	</g>
	<g id="Regular-L" transform="matrix(1 0 0 1 1374.99 1556)">
		<path d="M77,29.2l39.1-25.6c1.1-0.7,1.8-1.9,1.8-3.2v-19c0-2.1-1.7-3.9-3.9-3.9s-3.9,1.7-3.9,3.9v16.9l-35.2,23L39.6-2v-16.7
			c0-2.1-1.7-3.9-3.9-3.9s-3.9,1.7-3.9,3.9V0.1c0,1.3,0.7,2.5,1.7,3.2l39.1,25.8c0.6,0.4,1.4,0.6,2.1,0.6
			C75.6,29.9,76.3,29.7,77,29.2z M115.6-50.3l24.3-19.8c1-0.8,1.5-2,1.4-3.2s-0.7-2.4-1.8-3l-37-23.5c-1.4-0.9-3.2-0.8-4.5,0.3
			L72.4-78.4c-1,0.8-1.5,2-1.4,3.3s0.8,2.4,1.9,3l38.3,22.2c0.6,0.3,1.3,0.5,1.9,0.5C114-49.4,114.9-49.7,115.6-50.3z M100.7-91.8
			l30.1,19.1l-18,14.7L81.6-76L100.7-91.8z M52.7-7.2l24.5-19c1-0.8,1.6-2,1.5-3.2c-0.1-1.3-0.7-2.4-1.8-3.1L40.4-55.4
			c-1.4-0.9-3.1-0.8-4.4,0.2L9.9-35.6c-1,0.8-1.6,2-1.5,3.3s0.8,2.5,1.9,3.1L48.4-6.8c0.6,0.4,1.3,0.5,2,0.5
			C51.2-6.4,52-6.6,52.7-7.2z M38.5-47.5l29.6,18.6L50-14.9L19.2-33L38.5-47.5z M40.4-48.9l36.5-23.2c1-0.7,1.7-1.8,1.8-3
			c0.1-1.2-0.4-2.4-1.3-3.2L52.9-99.4c-1.3-1.1-3.2-1.3-4.6-0.3L10.2-75.2c-1.1,0.7-1.7,1.8-1.8,3.1c0,1.3,0.5,2.5,1.5,3.2L36-49.1
			c0.7,0.5,1.5,0.8,2.3,0.8C39.1-48.3,39.8-48.5,40.4-48.9z M50-91.7l18.4,15.8l-29.8,19L19.1-71.7L50-91.7z M101.9-6.9l37.5-22.4
			c1.1-0.6,1.8-1.8,1.9-3s-0.4-2.5-1.4-3.3l-24.3-20.6c-1.3-1.1-3.1-1.2-4.6-0.3l-38.3,24c-1.1,0.7-1.8,1.8-1.8,3.1
			c-0.1,1.3,0.5,2.5,1.5,3.3l25,19c0.7,0.5,1.5,0.8,2.3,0.8C100.6-6.4,101.2-6.5,101.9-6.9z M112.8-48.5l18,15.3l-30.7,18.3L81.6-29
			L112.8-48.5z"/>
	</g>
	<g id="Light-L" transform="matrix(1 0 0 1 1079.2 1556)">
		<path d="M75.7,28.1l38.7-25.3c0.9-0.6,1.4-1.6,1.4-2.7v-18.8c0-1.8-1.4-3.2-3.2-3.2c-1.8,0-3.2,1.4-3.2,3.2v17.1L73.9,21.6
			L38.4-1.8v-16.9c0-1.8-1.4-3.2-3.2-3.2c-1.8,0-3.2,1.4-3.2,3.2v18.6C32,1,32.5,2,33.4,2.6l38.7,25.6c0.5,0.4,1.1,0.5,1.8,0.5
			C74.5,28.6,75.1,28.4,75.7,28.1z M113.9-50.6l24-19.6c0.8-0.6,1.2-1.6,1.2-2.7c-0.1-1-0.6-2-1.5-2.5l-36.7-23.2
			c-1.2-0.7-2.7-0.6-3.7,0.2L71.9-77.5c-0.8,0.7-1.2,1.7-1.1,2.7s0.7,2,1.6,2.5l37.9,21.9c0.5,0.3,1,0.4,1.6,0.4
			C112.6-49.9,113.3-50.1,113.9-50.6z M99.5-92l31,19.6L111.6-57L79.5-75.5L99.5-92z M51.6-8l24.3-18.8c0.8-0.6,1.3-1.6,1.2-2.7
			c-0.1-1-0.6-2-1.5-2.5L39.5-54.7c-1.1-0.7-2.6-0.6-3.6,0.1L10.1-35.2c-0.9,0.6-1.3,1.7-1.3,2.7c0.1,1.1,0.6,2,1.6,2.6L48.1-7.7
			c0.5,0.3,1.1,0.4,1.6,0.4C50.4-7.3,51.1-7.5,51.6-8z M38-48.2l30.4,19.1L49.5-14.4L17.8-33.1L38-48.2z M39.5-49.4l36.1-23
			c0.9-0.5,1.4-1.5,1.5-2.5s-0.3-2-1.1-2.7L51.7-98.5c-1.1-0.9-2.6-1-3.8-0.3L10.2-74.5c-0.9,0.6-1.4,1.5-1.5,2.6c0,1,0.4,2,1.3,2.7
			l25.8,19.6c0.6,0.4,1.3,0.7,1.9,0.7C38.4-48.9,39-49,39.5-49.4z M49.4-92l19.2,16.5L38-56L17.6-71.5L49.4-92z M100.4-7.7
			l37.2-22.2c0.9-0.5,1.5-1.5,1.5-2.5c0.1-1-0.3-2-1.1-2.7l-24-20.4c-1.1-0.9-2.6-1-3.8-0.3L72.3-32.1c-0.9,0.6-1.4,1.5-1.5,2.6
			c0,1,0.4,2.1,1.3,2.7L96.9-8c0.6,0.4,1.2,0.7,1.9,0.7C99.3-7.3,99.8-7.4,100.4-7.7z M111.6-49.1l18.8,16L98.9-14.3L79.5-29
			L111.6-49.1z"/>
	</g>
	<g id="Thin-L" transform="matrix(1 0 0 1 783.716 1556)">
		<path d="M74.1,26.9l38.3-25c0.7-0.5,1.1-1.3,1.1-2.1v-18.7c0-1.4-1.1-2.5-2.5-2.5s-2.5,1.1-2.5,2.5v17.3L72.7,21.8L36.9-1.8v-17
			c0-1.4-1.1-2.5-2.5-2.5s-2.5,1.1-2.5,2.5v18.4c0,0.8,0.4,1.6,1.1,2.1L71.3,27c0.4,0.3,0.9,0.4,1.4,0.4
			C73.2,27.3,73.7,27.2,74.1,26.9z M111.9-50.9l23.8-19.4c0.6-0.5,1-1.3,0.9-2.1c0-0.8-0.5-1.5-1.2-2l-36.3-23
			c-0.9-0.6-2.1-0.5-3,0.2l-25,20.7c-0.6,0.5-1,1.3-0.9,2.2c0.1,0.8,0.5,1.6,1.3,2l37.6,21.7c0.4,0.2,0.8,0.3,1.3,0.3
			C110.8-50.4,111.4-50.6,111.9-50.9z M98-92.2l31.8,20.1L110.1-56L77.2-75L98-92.2z M50.3-8.7l24-18.7c0.7-0.5,1-1.3,1-2.1
			c0-0.8-0.5-1.6-1.2-2L38.3-54c-0.9-0.6-2-0.5-2.9,0.1L9.9-34.7c-0.7,0.5-1.1,1.3-1,2.2c0,0.8,0.5,1.6,1.2,2l37.3,22
			c0.4,0.2,0.8,0.3,1.3,0.3C49.3-8.2,49.8-8.4,50.3-8.7z M37.1-48.8l31.2,19.6L48.5-13.8L15.9-33L37.1-48.8z M38.3-49.7l35.8-22.7
			c0.7-0.4,1.1-1.2,1.2-2c0.1-0.8-0.3-1.6-0.9-2.1l-24-20.7c-0.8-0.7-2.1-0.8-3-0.2l-37.3,24c-0.7,0.4-1.1,1.2-1.2,2
			c0,0.8,0.3,1.6,1,2.1l25.5,19.4c0.5,0.3,1,0.5,1.5,0.5C37.4-49.3,37.9-49.5,38.3-49.7z M48.5-92.2l20,17.2L37.1-55L15.8-71.2
			L48.5-92.2z M98.5-8.6l36.8-22c0.7-0.4,1.2-1.1,1.2-2c0.1-0.8-0.3-1.6-0.9-2.1l-23.8-20.2c-0.8-0.7-2-0.8-3-0.2L71.2-31.6
			c-0.7,0.4-1.1,1.2-1.2,2c0,0.8,0.3,1.6,1,2.1L95.5-8.8c0.5,0.3,1,0.5,1.5,0.5C97.7-8.2,98.1-8.3,98.5-8.6z M110-49.8l19.7,16.7
			L97.4-13.8L77.1-29.2L110-49.8z"/>
	</g>
	<g id="Ultralight-L" transform="matrix(1 0 0 1 487.631 1556)">
		<path d="M72.1,25.7L110,0.9c0.5-0.3,0.9-0.9,0.9-1.6v-18.5c0-1-0.8-1.9-1.9-1.9c-1,0-1.9,0.8-1.9,1.9v17.4l-36,23.5l-36-23.8
			v-17.2c0-1-0.8-1.9-1.9-1.9s-1.9,0.8-1.9,1.9v18.2c0,0.6,0.3,1.2,0.8,1.6l37.9,25c0.3,0.2,0.7,0.3,1,0.3
			C71.5,26,71.8,25.9,72.1,25.7z M109.5-51.3L133-70.5c0.5-0.4,0.7-1,0.7-1.6s-0.4-1.1-0.9-1.5L96.9-96.3c-0.7-0.4-1.6-0.4-2.2,0.1
			L69.9-75.7c-0.5,0.4-0.7,1-0.7,1.6c0.1,0.6,0.4,1.2,0.9,1.5l37.2,21.5c0.3,0.2,0.6,0.3,0.9,0.3C108.7-50.8,109.1-51,109.5-51.3z
			 M96-92.4l32.5,20.6L108-55.1L74.3-74.6L96-92.4z M48.5-9.5L72.3-28c0.5-0.4,0.8-1,0.7-1.6c0-0.6-0.4-1.2-0.9-1.5L36.7-53.3
			c-0.7-0.4-1.5-0.4-2.1,0.1l-25.3,19c-0.5,0.4-0.8,1-0.7,1.6c0,0.6,0.4,1.2,0.9,1.5L46.4-9.4c0.3,0.2,0.6,0.3,1,0.3
			C47.8-9.1,48.2-9.3,48.5-9.5z M35.8-49.4l32,20.1l-20.6,16L13.8-33L35.8-49.4z M36.7-50.1l35.4-22.5c0.5-0.3,0.8-0.9,0.9-1.4
			c0-0.6-0.2-1.2-0.6-1.6L48.6-96.1c-0.6-0.5-1.5-0.6-2.2-0.2L9.5-72.5C9-72.2,8.7-71.6,8.6-71c0,0.6,0.3,1.2,0.7,1.6l25.3,19.2
			c0.3,0.3,0.7,0.4,1.1,0.4C36.1-49.8,36.4-49.9,36.7-50.1z M47.2-92.3L68-74.4L35.8-54L13.7-70.8L47.2-92.3z M96.3-9.4l36.4-21.7
			c0.5-0.3,0.9-0.9,0.9-1.5c0.1-0.6-0.2-1.2-0.7-1.6l-23.5-20c-0.6-0.5-1.5-0.6-2.2-0.2L70-31.1c-0.5,0.3-0.9,0.9-0.9,1.5
			s0.2,1.2,0.7,1.6L94.1-9.5c0.3,0.3,0.7,0.4,1.1,0.4C95.7-9.1,96-9.2,96.3-9.4z M108.1-50.4L128.6-33L95.5-13.3l-21.1-16
			L108.1-50.4z"/>
	</g>
	<g id="Black-M" transform="matrix(1 0 0 1 2871.36 1126)">
		<path d="M65.2,19.3L96.9-1.4c1.6-1.1,2.6-2.9,2.6-4.8v-15.5c0-3.2-2.6-5.8-5.8-5.8s-5.8,2.6-5.8,5.8v12.3l-26,17l-26-17.2v-12.1
			c0-3.2-2.6-5.8-5.8-5.8s-5.8,2.6-5.8,5.8v15.2c0,1.9,1,3.7,2.6,4.8l31.7,21c1,0.6,2.1,1,3.2,1C63.1,20.2,64.2,19.9,65.2,19.3z
			 M96.8-45.4l19.7-16.1c1.4-1.2,2.2-3,2.1-4.8c-0.1-1.8-1.1-3.5-2.7-4.5l-30.1-19C83.7-91.1,81-91,79-89.4L58.3-72.3
			c-1.5,1.2-2.2,3-2.1,4.9c0.2,1.9,1.2,3.6,2.9,4.5l31.1,18c0.9,0.5,1.9,0.8,2.9,0.8C94.4-44.1,95.7-44.5,96.8-45.4z M83.2-77.9
			L103-65.4l-10.4,8.5L72.1-68.7L83.2-77.9z M45.6-10.4l19.9-15.5c1.5-1.2,2.3-3,2.2-4.8c-0.1-1.9-1.1-3.6-2.7-4.6L35.4-53.9
			c-2-1.3-4.6-1.2-6.5,0.3L7.7-37.7c-1.5,1.2-2.4,3-2.3,4.9c0.1,1.9,1.2,3.7,2.8,4.6L39.1-10C40-9.5,41-9.2,42-9.2
			C43.4-9.2,44.6-9.6,45.6-10.4z M32.7-42L52-29.9l-10.3,8L21.6-33.7L32.7-42z M35.5-44.2L65.1-63c1.5-1,2.5-2.6,2.7-4.4
			c0.1-1.8-0.6-3.6-2-4.8L45.9-89.3C44-91,41.2-91.2,39-89.8L8.1-69.9c-1.6,1-2.6,2.7-2.6,4.6c-0.1,1.9,0.8,3.7,2.3,4.8L29-44.4
			c1,0.8,2.3,1.2,3.5,1.2C33.4-43.3,34.5-43.6,35.5-44.2z M41.6-77.8l10.8,9.3L32.7-56l-11.4-8.7L41.6-77.8z M85.3-10l30.5-18.2
			c1.6-1,2.6-2.6,2.8-4.5s-0.6-3.7-2-4.9L96.9-54.3c-1.9-1.6-4.7-1.8-6.8-0.5L59-35.3c-1.6,1-2.6,2.7-2.7,4.6s0.8,3.7,2.3,4.8
			l20.3,15.5c1,0.8,2.3,1.2,3.5,1.2C83.3-9.2,84.4-9.4,85.3-10z M92.6-42.7l10.3,8.8L82.7-21.8l-10.6-8L92.6-42.7z"/>
	</g>
	<g id="Heavy-M" transform="matrix(1 0 0 1 2575.48 1126)">
		<path d="M64,18.4L95.5-2.2c1.5-1,2.4-2.6,2.4-4.3v-15.3c0-2.9-2.3-5.2-5.2-5.2s-5.2,2.3-5.2,5.2v12.5L61.2,7.9L34.9-9.5v-12.3
			c0-2.9-2.3-5.2-5.2-5.2s-5.2,2.3-5.2,5.2v15.1c0,1.7,0.9,3.4,2.3,4.3l31.5,20.8c0.9,0.6,1.9,0.9,2.9,0.9
			C62.2,19.2,63.2,19,64,18.4z M95.3-45.7l19.5-15.9c1.3-1.1,2-2.7,1.9-4.3c-0.1-1.7-1-3.2-2.4-4.1L84.5-89c-1.9-1.2-4.4-1-6.1,0.4
			l-20.6,17c-1.3,1.1-2,2.7-1.9,4.4c0.1,1.7,1.1,3.2,2.6,4.1l30.8,17.8c0.8,0.5,1.7,0.7,2.6,0.7C93.2-44.5,94.4-44.9,95.3-45.7z
			 M82.2-78.2l20.5,13l-11.2,9.1L70.2-68.4L82.2-78.2z M44.7-11l19.7-15.3c1.3-1,2.1-2.7,2-4.4c-0.1-1.7-1-3.2-2.4-4.1L34.6-53.3
			c-1.8-1.1-4.2-1-5.9,0.2l-21,15.7c-1.4,1-2.2,2.7-2.1,4.4c0.1,1.7,1.1,3.3,2.5,4.2l30.6,18c0.8,0.5,1.7,0.7,2.6,0.7
			C42.6-9.9,43.7-10.3,44.7-11z M32.1-42.6L52.2-30l-11.1,8.6L20.2-33.7L32.1-42.6z M34.6-44.5L64-63.2c1.4-0.9,2.3-2.4,2.4-4
			c0.1-1.6-0.5-3.2-1.8-4.3l-19.7-17c-1.7-1.5-4.3-1.7-6.2-0.4L8.1-69.2c-1.4,0.9-2.3,2.5-2.4,4.2s0.7,3.3,2,4.3l21,15.9
			c0.9,0.7,2,1.1,3.1,1.1C32.8-43.7,33.8-44,34.6-44.5z M41-78.1l11.5,9.9l-20.4,13l-12.2-9.3L41-78.1z M84-10.7l30.2-18
			c1.4-0.9,2.4-2.4,2.5-4c0.1-1.7-0.5-3.3-1.8-4.4L95.4-53.7c-1.7-1.5-4.2-1.6-6.1-0.4L58.5-34.8c-1.4,0.9-2.4,2.5-2.4,4.2
			c-0.1,1.7,0.7,3.3,2,4.4l20.1,15.3c0.9,0.7,2,1.1,3.1,1.1C82.3-9.9,83.2-10.2,84-10.7z M91.6-43.3l11.1,9.4l-21,12.5L70.3-30
			L91.6-43.3z"/>
	</g>
	<g id="Bold-M" transform="matrix(1 0 0 1 2279.69 1126)">
		<path d="M62.8,17.5L94-2.9c1.3-0.9,2.1-2.3,2.1-3.9V-22c0-2.6-2.1-4.6-4.6-4.6s-4.6,2.1-4.6,4.6v12.7L60.4,8L33.8-9.5V-22
			c0-2.6-2.1-4.6-4.6-4.6s-4.6,2.1-4.6,4.6v15c0,1.6,0.8,3,2.1,3.9l31.2,20.6c0.8,0.5,1.7,0.8,2.6,0.8C61.2,18.2,62,18,62.8,17.5z
			 M93.8-46l19.3-15.8c1.2-0.9,1.8-2.4,1.7-3.9s-0.9-2.8-2.1-3.6L83.2-88c-1.7-1.1-3.9-0.9-5.4,0.3L57.4-70.9c-1.2,1-1.8,2.4-1.7,4
			c0.1,1.5,1,2.9,2.3,3.6l30.6,17.7c0.7,0.4,1.5,0.6,2.3,0.6C91.9-45,92.9-45.3,93.8-46z M81-78.4l21.3,13.5l-11.9,9.7l-22-12.7
			L81-78.4z M43.6-11.6l19.5-15.2c1.2-0.9,1.9-2.4,1.8-3.9c-0.1-1.5-0.9-2.9-2.2-3.7L33.6-52.7c-1.6-1-3.7-0.9-5.2,0.2L7.6-36.9
			c-1.2,0.9-1.9,2.4-1.8,4c0.1,1.5,0.9,2.9,2.3,3.7l30.4,17.9c0.7,0.4,1.5,0.6,2.4,0.6C41.7-10.7,42.7-11,43.6-11.6z M31.4-43.2
			l20.8,13.1l-11.8,9.2L18.7-33.7L31.4-43.2z M33.6-44.9l29.1-18.5c1.2-0.8,2-2.1,2.1-3.6s-0.5-2.9-1.6-3.8L43.7-87.6
			c-1.6-1.3-3.8-1.5-5.5-0.4L7.8-68.5c-1.3,0.8-2.1,2.2-2.1,3.7c-0.1,1.5,0.6,3,1.8,3.9l20.8,15.8c0.8,0.6,1.8,0.9,2.8,0.9
			C32-44.1,32.9-44.4,33.6-44.9z M40.3-78.4l12.2,10.5L31.4-54.5l-13-9.9L40.3-78.4z M82.6-11.3l29.9-17.9c1.3-0.8,2.1-2.1,2.2-3.6
			c0.1-1.5-0.5-2.9-1.6-3.9L93.8-53.1c-1.5-1.3-3.7-1.5-5.5-0.4L57.7-34.4c-1.3,0.8-2.1,2.2-2.2,3.7c-0.1,1.5,0.6,3,1.8,3.9l20,15.2
			c0.8,0.6,1.8,0.9,2.8,0.9C81.1-10.7,81.9-10.9,82.6-11.3z M90.4-43.9l11.8,10l-21.7,13l-12.1-9.2L90.4-43.9z"/>
	</g>
	<g id="Semibold-M" transform="matrix(1 0 0 1 1983.62 1126)">
		<path d="M61.9,16.6L92.8-3.6c1.2-0.8,1.8-2,1.8-3.4v-15c0-2.3-1.8-4.1-4.1-4.1s-4.1,1.8-4.1,4.1v12.8L59.6,8.3L32.8-9.4V-22
			c0-2.3-1.8-4.1-4.1-4.1c-2.3,0-4.1,1.8-4.1,4.1v14.8c0,1.4,0.7,2.7,1.8,3.4l30.9,20.4c0.7,0.4,1.5,0.7,2.2,0.7
			C60.4,17.2,61.2,17,61.9,16.6z M92.5-46.3L111.7-62c1-0.8,1.6-2.1,1.5-3.4s-0.8-2.5-1.9-3.2L82-87.1c-1.5-0.9-3.4-0.8-4.8,0.3
			L57-70.1c-1,0.9-1.6,2.2-1.5,3.5s0.9,2.5,2,3.2l30.3,17.5c0.6,0.4,1.3,0.5,2,0.5C90.9-45.4,91.8-45.7,92.5-46.3z M80.2-78.6
			l22,13.9L89.6-54.4L66.8-67.6L80.2-78.6z M42.8-12.3l19.4-15c1.1-0.8,1.6-2.1,1.6-3.4C63.7-32,63-33.2,61.9-34L33.1-52.1
			c-1.4-0.9-3.3-0.8-4.6,0.2L7.9-36.4c-1.1,0.8-1.7,2.1-1.6,3.5s0.8,2.6,2,3.3l30.1,17.7c0.6,0.4,1.4,0.6,2.1,0.6
			C41.2-11.4,42.1-11.7,42.8-12.3z M31-43.7l21.5,13.5l-12.6,9.8L17.5-33.6L31-43.7z M33-45.2l28.8-18.3c1.1-0.7,1.8-1.9,1.9-3.1
			c0.1-1.3-0.4-2.5-1.4-3.4L42.9-86.7C41.5-87.9,39.6-88,38-87L7.9-67.6c-1.1,0.7-1.8,1.9-1.9,3.3c-0.1,1.3,0.5,2.6,1.6,3.4
			l20.6,15.7c0.7,0.6,1.6,0.8,2.5,0.8C31.6-44.6,32.3-44.8,33-45.2z M39.9-78.6l12.9,11.1L31-53.6L17.3-64L39.9-78.6z M81.5-12
			l29.7-17.7c1.1-0.7,1.9-1.9,2-3.2c0.1-1.3-0.4-2.6-1.4-3.4L92.6-52.6c-1.4-1.1-3.3-1.3-4.8-0.3l-30.3,19c-1.1,0.7-1.9,1.9-1.9,3.3
			s0.5,2.6,1.6,3.4l19.8,15c0.7,0.6,1.6,0.8,2.5,0.8C80.2-11.4,80.9-11.6,81.5-12z M89.6-44.4l12.5,10.7L79.7-20.3l-12.9-9.8
			L89.6-44.4z"/>
	</g>
	<g id="Medium-M" transform="matrix(1 0 0 1 1687.4 1126)">
		<path d="M61.1,15.7l30.6-20c1-0.7,1.6-1.8,1.6-3v-14.9c0-2-1.6-3.5-3.5-3.5s-3.5,1.6-3.5,3.5v13L59.2,8.5L32.1-9.4v-12.8
			c0-2-1.6-3.5-3.5-3.5c-2,0-3.5,1.6-3.5,3.5v14.7c0,1.2,0.6,2.3,1.6,3l30.6,20.2c0.6,0.4,1.3,0.6,1.9,0.6
			C59.8,16.2,60.5,16,61.1,15.7z M91.4-46.6l19-15.5c0.9-0.7,1.4-1.8,1.3-3c-0.1-1.1-0.7-2.2-1.6-2.8l-29-18.4
			c-1.3-0.8-3-0.7-4.1,0.3L57-69.5c-0.9,0.7-1.4,1.9-1.3,3c0.1,1.2,0.8,2.2,1.8,2.8l30,17.3c0.6,0.3,1.2,0.5,1.8,0.5
			C90-45.8,90.7-46.1,91.4-46.6z M79.4-78.9l22.7,14.4L88.8-53.6L65.3-67.2L79.4-78.9z M42.1-12.9l19.2-14.9c0.9-0.7,1.4-1.8,1.4-3
			C62.6-32,62-33,61-33.6l-28.6-18c-1.2-0.8-2.8-0.7-4,0.2L8-36.1c-0.9,0.7-1.5,1.8-1.4,3s0.7,2.2,1.7,2.9l29.8,17.6
			c0.6,0.3,1.2,0.5,1.8,0.5C40.7-12.1,41.5-12.4,42.1-12.9z M30.8-44.2l22.2,14L39.7-19.9L16.5-33.5L30.8-44.2z M32.5-45.5
			l28.6-18.2c0.9-0.6,1.5-1.6,1.6-2.7s-0.4-2.2-1.2-2.9L42.3-85.8c-1.2-1-2.9-1.1-4.2-0.3L8.3-66.9c-1,0.6-1.6,1.7-1.6,2.8
			c0,1.2,0.5,2.3,1.4,3l20.4,15.5c0.6,0.5,1.4,0.7,2.1,0.7C31.2-45,31.9-45.2,32.5-45.5z M39.7-78.8l13.6,11.7L30.8-52.8l-14.4-11
			L39.7-78.8z M80.6-12.6L110-30.2c1-0.6,1.6-1.6,1.7-2.7s-0.4-2.2-1.2-3L91.5-52c-1.2-1-2.9-1.1-4.2-0.3l-30,18.8
			c-1,0.6-1.6,1.7-1.7,2.8c-0.1,1.2,0.5,2.3,1.4,3l19.6,14.9c0.6,0.5,1.4,0.7,2.1,0.7C79.4-12.1,80-12.3,80.6-12.6z M88.8-45
			L102-33.8L78.9-20L65.3-30.4L88.8-45z"/>
	</g>
	<g id="Regular-M" transform="matrix(1 0 0 1 1391.32 1126)">
		<path d="M60.2,14.8L90.5-5c0.8-0.6,1.4-1.5,1.4-2.5v-14.8c0-1.7-1.3-3-3-3s-3,1.3-3,3v13.1L58.6,8.6l-27.3-18v-12.9
			c0-1.7-1.3-3-3-3s-3,1.3-3,3v14.6c0,1,0.5,1.9,1.3,2.5l30.3,20c0.5,0.3,1.1,0.5,1.7,0.5C59.1,15.2,59.7,15.1,60.2,14.8z
			 M90.2-46.9L109-62.3c0.7-0.6,1.2-1.5,1.1-2.5s-0.6-1.8-1.4-2.4L80-85.4c-1.1-0.7-2.5-0.6-3.5,0.2L56.7-68.8
			c-0.8,0.6-1.2,1.6-1.1,2.6s0.6,1.9,1.5,2.3l29.7,17.2c0.5,0.3,1,0.4,1.5,0.4C88.9-46.2,89.6-46.4,90.2-46.9z M78.6-79.1l23.3,14.8
			l-14,11.4l-24.2-14L78.6-79.1z M41.4-13.5l19-14.8c0.8-0.6,1.2-1.5,1.2-2.5s-0.6-1.9-1.4-2.4L31.9-51c-1.1-0.7-2.4-0.6-3.4,0.1
			L8.3-35.7c-0.8,0.6-1.3,1.6-1.2,2.6c0.1,1,0.6,1.9,1.5,2.4l29.5,17.4c0.5,0.3,1,0.4,1.5,0.4C40.2-12.9,40.8-13.1,41.4-13.5z
			 M30.4-44.8l22.9,14.4l-14,10.9L15.4-33.6L30.4-44.8z M31.9-45.9l28.3-18c0.8-0.5,1.3-1.4,1.4-2.3s-0.3-1.9-1-2.5l-19-16.4
			c-1-0.9-2.5-1-3.6-0.3l-29.5,19C7.7-65.9,7.2-65,7.1-64c0,1,0.4,1.9,1.2,2.5l20.2,15.4c0.5,0.4,1.2,0.6,1.8,0.6
			C30.8-45.4,31.4-45.6,31.9-45.9z M39.3-79l14.2,12.3L30.4-52L15.3-63.5L39.3-79z M79.5-13.3l29.1-17.4c0.8-0.5,1.4-1.4,1.5-2.3
			c0.1-1-0.3-1.9-1-2.5l-18.8-16c-1-0.8-2.4-0.9-3.5-0.3L57.1-33.2c-0.8,0.5-1.4,1.4-1.4,2.4s0.4,1.9,1.2,2.5l19.4,14.8
			c0.5,0.4,1.2,0.6,1.8,0.6C78.5-12.9,79-13,79.5-13.3z M88-45.5l13.9,11.8L78.1-19.5L63.8-30.4L88-45.5z"/>
	</g>
	<g id="Light-M" transform="matrix(1 0 0 1 1095.44 1126)">
		<path d="M59.1,13.8l30-19.6c0.7-0.5,1.1-1.2,1.1-2.1v-14.6c0-1.4-1.1-2.5-2.5-2.5s-2.5,1.1-2.5,2.5v13.3l-27.5,18L30.2-9.4v-13.1
			c0-1.4-1.1-2.5-2.5-2.5s-2.5,1.1-2.5,2.5v14.4c0,0.8,0.4,1.6,1.1,2.1l30,19.8c0.4,0.3,0.9,0.4,1.4,0.4
			C58.2,14.2,58.7,14.1,59.1,13.8z M88.7-47.1l18.6-15.2c0.6-0.5,1-1.3,0.9-2.1c0-0.8-0.5-1.5-1.1-1.9l-28.4-18
			c-0.9-0.6-2.1-0.5-2.9,0.2L56.2-67.9c-0.6,0.5-1,1.3-0.9,2.1c0.1,0.8,0.5,1.5,1.2,1.9l29.4,17c0.4,0.2,0.8,0.3,1.2,0.3
			C87.7-46.6,88.3-46.8,88.7-47.1z M77.5-79.2l24,15.2L86.9-52L62.1-66.4L77.5-79.2z M40.4-14.1l18.8-14.6c0.6-0.5,1-1.3,1-2.1
			s-0.5-1.5-1.2-2L31-50.4c-0.9-0.5-2-0.5-2.8,0.1l-20,15c-0.7,0.5-1,1.3-1,2.1c0,0.8,0.5,1.6,1.2,2L37.6-14
			c0.4,0.2,0.8,0.3,1.3,0.3C39.5-13.6,40-13.7,40.4-14.1z M29.8-45.3l23.6,14.8L38.7-19.1L14.1-33.6L29.8-45.3z M31-46.2L59-64
			c0.7-0.4,1.1-1.1,1.1-1.9c0.1-0.8-0.3-1.5-0.9-2.1L40.4-84.2c-0.8-0.7-2-0.8-3-0.2L8.2-65.6c-0.7,0.4-1.1,1.2-1.1,2s0.3,1.6,1,2.1
			l20,15.2c0.4,0.3,1,0.5,1.5,0.5C30.2-45.8,30.6-45.9,31-46.2z M38.7-79.2l14.9,12.8L29.9-51.3l-15.8-12L38.7-79.2z M78.2-13.9
			L107-31.1c0.7-0.4,1.1-1.1,1.2-1.9s-0.3-1.6-0.9-2.1L88.7-50.9c-0.8-0.7-2-0.8-2.9-0.2L56.4-32.7c-0.7,0.4-1.1,1.2-1.2,2
			c0,0.8,0.3,1.6,1,2.1L75.4-14c0.4,0.3,1,0.5,1.5,0.5C77.4-13.6,77.8-13.7,78.2-13.9z M86.9-46l14.6,12.4L77.1-19l-15-11.4L86.9-46
			z"/>
	</g>
	<g id="Thin-M" transform="matrix(1 0 0 1 799.828 1126)">
		<path d="M57.7,12.9L87.4-6.5c0.6-0.4,0.9-1,0.9-1.6v-14.5c0-1.1-0.9-2-2-2s-2,0.9-2,2v13.4L56.6,8.9L28.8-9.4v-13.2
			c0-1.1-0.9-2-2-2s-2,0.9-2,2v14.3c0,0.7,0.3,1.3,0.9,1.6l29.7,19.6c0.3,0.2,0.7,0.3,1.1,0.3C57,13.2,57.4,13.1,57.7,12.9z
			 M87-47.4l18.4-15.1c0.5-0.4,0.8-1,0.7-1.6c0-0.6-0.4-1.2-0.9-1.5L77.1-83.4c-0.7-0.5-1.6-0.4-2.3,0.1l-19.4,16
			c-0.5,0.4-0.8,1-0.7,1.7c0.1,0.6,0.4,1.2,1,1.5l29.1,16.8c0.3,0.2,0.6,0.3,1,0.3S86.6-47.1,87-47.4z M76.2-79.4l24.6,15.6
			L85.5-51.3L60-66L76.2-79.4z M39.2-14.7l18.6-14.5c0.5-0.4,0.8-1,0.8-1.6s-0.4-1.2-0.9-1.6L30-49.8c-0.7-0.4-1.6-0.4-2.2,0.1
			L8-34.8c-0.5,0.4-0.8,1-0.8,1.7s0.4,1.2,1,1.6l28.9,17c0.3,0.2,0.7,0.3,1,0.3C38.4-14.3,38.9-14.4,39.2-14.7z M29-45.8l24.2,15.2
			L37.8-18.7L12.6-33.6L29-45.8z M29.9-46.5l27.7-17.6c0.5-0.3,0.9-0.9,0.9-1.5s-0.2-1.2-0.7-1.6l-18.6-16c-0.7-0.6-1.6-0.6-2.3-0.2
			L8-64.8c-0.5,0.3-0.9,0.9-0.9,1.6c0,0.6,0.3,1.3,0.8,1.6l19.8,15.1c0.3,0.3,0.8,0.4,1.2,0.4C29.3-46.2,29.6-46.3,29.9-46.5z
			 M37.8-79.4L53.3-66L29-50.5L12.5-63L37.8-79.4z M76.6-14.6l28.5-17c0.5-0.3,0.9-0.9,0.9-1.5c0.1-0.6-0.2-1.2-0.7-1.7L86.9-50.4
			c-0.6-0.6-1.6-0.6-2.3-0.2L55.5-32.4c-0.5,0.3-0.9,0.9-0.9,1.6c0,0.6,0.3,1.3,0.8,1.6l19,14.5c0.3,0.3,0.8,0.4,1.2,0.4
			C76-14.3,76.3-14.4,76.6-14.6z M85.6-46.5l15.2,12.9l-25,15L60.1-30.5L85.6-46.5z"/>
	</g>
	<g id="Ultralight-M" transform="matrix(1 0 0 1 503.679 1126)">
		<path d="M55.8,12L85.2-7.2c0.4-0.3,0.7-0.7,0.7-1.2v-14.3c0-0.8-0.7-1.5-1.5-1.5s-1.5,0.7-1.5,1.5v13.5L55,9.1L27.1-9.3v-13.3
			c0-0.8-0.7-1.5-1.5-1.5s-1.5,0.7-1.5,1.5v14.1c0,0.5,0.2,0.9,0.7,1.2l29.4,19.4c0.2,0.2,0.5,0.2,0.8,0.2
			C55.3,12.2,55.6,12.2,55.8,12z M84.7-47.7l18.2-14.9c0.4-0.3,0.6-0.7,0.5-1.2c0-0.5-0.3-0.9-0.7-1.1L74.9-82.5
			c-0.5-0.3-1.2-0.3-1.7,0.1L54-66.5c-0.4,0.3-0.6,0.8-0.5,1.2c0,0.5,0.3,0.9,0.7,1.1L83-47.5c0.2,0.1,0.5,0.2,0.7,0.2
			C84.1-47.3,84.5-47.4,84.7-47.7z M74.3-79.5l25.2,16l-15.9,13L57.5-65.6L74.3-79.5z M37.5-15.3l18.4-14.3c0.4-0.3,0.6-0.7,0.6-1.2
			s-0.3-0.9-0.7-1.2L28.4-49.2c-0.5-0.3-1.2-0.3-1.6,0.1L7.2-34.4c-0.4,0.3-0.6,0.8-0.6,1.2c0,0.5,0.3,0.9,0.7,1.2l28.6,16.9
			c0.2,0.1,0.5,0.2,0.7,0.2C36.9-15,37.2-15.1,37.5-15.3z M27.7-46.2l24.8,15.6l-16,12.4L10.6-33.4L27.7-46.2z M28.4-46.8l27.4-17.4
			c0.4-0.2,0.6-0.7,0.7-1.1c0-0.5-0.2-0.9-0.5-1.2L37.6-82.4c-0.5-0.4-1.2-0.5-1.7-0.1L7.3-64.1c-0.4,0.3-0.6,0.7-0.7,1.2
			c0,0.5,0.2,0.9,0.6,1.2l19.6,14.9c0.3,0.2,0.6,0.3,0.9,0.3C27.9-46.5,28.1-46.6,28.4-46.8z M36.5-79.5l16.1,13.9L27.7-49.8
			l-17.1-13L36.5-79.5z M74.6-15.2l28.2-16.9c0.4-0.2,0.7-0.7,0.7-1.1c0-0.5-0.2-0.9-0.5-1.2L84.8-49.9c-0.5-0.4-1.2-0.5-1.7-0.1
			L54.3-32c-0.4,0.3-0.7,0.7-0.7,1.2s0.2,0.9,0.6,1.2L73-15.3c0.3,0.2,0.6,0.3,0.9,0.3C74.1-15,74.3-15.1,74.6-15.2z M83.7-47
			l15.9,13.5L74-18.2L57.6-30.6L83.7-47z"/>
	</g>
	<g id="Black-S" transform="matrix(1 0 0 1 2884.57 696)">
		<path d="M51.3,7.5L76.2-8.7c1.3-0.8,2-2.3,2-3.8v-12.1c0-2.5-2-4.5-4.5-4.5s-4.5,2-4.5,4.5v9.7L48.9-1.6L28.5-15v-9.5
			c0-2.5-2-4.5-4.5-4.5s-4.5,2-4.5,4.5v11.9c0,1.5,0.8,2.9,2,3.8L46.4,7.6c0.8,0.5,1.6,0.7,2.5,0.7C49.7,8.2,50.5,8,51.3,7.5z
			 M76-43.2l15.4-12.6c1.1-0.9,1.7-2.3,1.6-3.8c-0.1-1.4-0.9-2.8-2.1-3.5L67.4-78c-1.7-1-3.8-0.9-5.3,0.3L45.9-64.3
			c-1.1,0.9-1.7,2.4-1.6,3.9c0.1,1.5,1,2.8,2.2,3.5l24.4,14.1c0.7,0.4,1.5,0.6,2.3,0.6C74.2-42.2,75.2-42.5,76-43.2z M65.4-68.6
			l15.5,9.8l-8.2,6.7l-16-9.3L65.4-68.6z M36-15.8l15.6-12.1c1.2-0.9,1.8-2.3,1.7-3.8s-0.9-2.8-2.1-3.6L28-49.9
			c-1.6-1-3.6-0.9-5.1,0.2L6.3-37.3c-1.2,0.9-1.9,2.4-1.8,3.9c0.1,1.5,0.9,2.9,2.2,3.6l24.2,14.3c0.7,0.4,1.5,0.6,2.3,0.6
			C34.2-14.8,35.2-15.1,36-15.8z M25.8-40.6l15.1,9.5l-8.1,6.3l-15.7-9.3L25.8-40.6z M28-42.2l23.2-14.7c1.2-0.8,2-2.1,2.1-3.5
			s-0.5-2.8-1.6-3.7L36.1-77.5c-1.5-1.3-3.7-1.5-5.4-0.4L6.5-62.3c-1.2,0.8-2,2.1-2.1,3.6s0.6,2.9,1.8,3.8l16.6,12.6
			c0.8,0.6,1.8,0.9,2.7,0.9C26.4-41.5,27.3-41.7,28-42.2z M32.8-68.6l8.4,7.3l-15.4,9.8l-8.9-6.8L32.8-68.6z M67-15.5l23.9-14.3
			c1.2-0.7,2.1-2,2.2-3.5s-0.5-2.9-1.6-3.8L76.1-50.2c-1.5-1.3-3.6-1.4-5.3-0.4L46.4-35.4c-1.3,0.8-2,2.1-2.1,3.6s0.6,2.9,1.8,3.8
			L62-15.9c0.8,0.6,1.8,0.9,2.7,0.9C65.5-14.8,66.3-15,67-15.5z M72.8-41.1l8.1,6.9l-15.8,9.5L56.8-31L72.8-41.1z"/>
	</g>
	<g id="Heavy-S" transform="matrix(1 0 0 1 2588.47 696)">
		<path d="M50.4,6.8L75-9.3c1.1-0.8,1.8-2,1.8-3.4v-12c0-2.2-1.8-4.1-4.1-4.1c-2.2,0-4.1,1.8-4.1,4.1v9.8L48-1.5L27.4-15.1v-9.6
			c0-2.2-1.8-4.1-4.1-4.1c-2.2,0-4.1,1.8-4.1,4.1v11.8c0,1.4,0.7,2.6,1.8,3.4L45.6,6.8c0.7,0.4,1.5,0.7,2.2,0.7
			C49,7.4,49.7,7.2,50.4,6.8z M74.9-43.4l15.3-12.5c1-0.8,1.6-2.1,1.5-3.4c-0.1-1.3-0.8-2.5-1.9-3.2L66.5-77.3
			c-1.5-0.9-3.4-0.8-4.8,0.3L45.6-63.7c-1,0.8-1.6,2.1-1.5,3.5c0.1,1.3,0.9,2.5,2,3.2l24.1,14c0.6,0.4,1.3,0.5,2,0.5
			C73.3-42.5,74.2-42.8,74.9-43.4z M64.6-68.8l16.1,10.2L72-51.5l-16.7-9.6L64.6-68.8z M35.2-16.3l15.4-12c1-0.8,1.6-2.1,1.6-3.4
			c-0.1-1.3-0.8-2.5-1.9-3.2l-23-14.5c-1.4-0.9-3.3-0.8-4.6,0.2L6.3-36.9c-1.1,0.8-1.7,2.1-1.6,3.5c0.1,1.4,0.8,2.6,2,3.3l24,14.1
			c0.6,0.4,1.4,0.6,2.1,0.6C33.6-15.4,34.5-15.7,35.2-16.3z M25.4-41l15.7,9.9l-8.7,6.7L16-34L25.4-41z M27.4-42.5l23-14.6
			c1.1-0.7,1.8-1.9,1.9-3.1c0.1-1.3-0.4-2.5-1.4-3.4L35.5-76.9c-1.4-1.2-3.3-1.3-4.9-0.3l-24,15.4c-1.1,0.7-1.8,1.9-1.9,3.3
			c-0.1,1.3,0.5,2.6,1.6,3.4l16.4,12.5c0.7,0.6,1.6,0.8,2.5,0.8C25.9-41.9,26.7-42.1,27.4-42.5z M32.4-68.8l9,7.8l-16,10.2l-9.6-7.3
			L32.4-68.8z M66.1-16l23.7-14.1c1.1-0.7,1.9-1.8,2-3.2c0.1-1.3-0.4-2.6-1.4-3.4l-15.3-13c-1.3-1.1-3.3-1.3-4.8-0.3L46.2-34.9
			c-1.1,0.7-1.8,1.9-1.9,3.3c-0.1,1.3,0.5,2.6,1.6,3.4l15.8,12c0.7,0.6,1.6,0.8,2.5,0.8C64.7-15.4,65.4-15.6,66.1-16z M72-41.6
			l8.7,7.4l-16.4,9.8l-8.9-6.8L72-41.6z"/>
	</g>
	<g id="Bold-S" transform="matrix(1 0 0 1 2292.43 696)">
		<path d="M49.6,6L74-10c1-0.7,1.6-1.8,1.6-3v-11.9c0-2-1.6-3.6-3.6-3.6s-3.6,1.6-3.6,3.6v9.9L47.6-1.4L26.8-15.1v-9.8
			c0-2-1.6-3.6-3.6-3.6s-3.6,1.6-3.6,3.6v11.7c0,1.2,0.6,2.4,1.6,3L45.6,6c0.6,0.4,1.3,0.6,2,0.6S49,6.4,49.6,6z M73.8-43.7
			l15.1-12.4c0.9-0.7,1.4-1.9,1.3-3c-0.1-1.2-0.7-2.2-1.7-2.8L65.4-76.6c-1.3-0.8-3-0.7-4.3,0.3l-16,13.2c-0.9,0.8-1.4,1.9-1.3,3.1
			c0.1,1.2,0.8,2.2,1.8,2.8l23.9,13.8c0.6,0.3,1.2,0.5,1.8,0.5C72.3-42.9,73.1-43.1,73.8-43.7z M63.8-69l16.7,10.6l-9.3,7.6L54-60.8
			L63.8-69z M34.5-16.8l15.3-11.9c0.9-0.7,1.5-1.9,1.4-3c-0.1-1.2-0.7-2.3-1.7-2.9L26.7-48.9c-1.3-0.8-2.9-0.7-4.1,0.2L6.3-36.5
			c-1,0.7-1.5,1.9-1.4,3.1c0.1,1.2,0.7,2.3,1.8,2.9l23.8,14c0.6,0.3,1.2,0.5,1.8,0.5C33.1-16,33.8-16.3,34.5-16.8z M25-41.4
			l16.3,10.2L32-24L15-34L25-41.4z M26.7-42.8l22.8-14.5c1-0.6,1.6-1.7,1.7-2.8c0.1-1.1-0.4-2.3-1.2-3L34.7-76.3
			c-1.2-1-3-1.2-4.3-0.3L6.6-61.3c-1,0.6-1.6,1.7-1.7,2.9c0,1.2,0.5,2.3,1.4,3L22.6-43c0.6,0.5,1.4,0.7,2.2,0.7
			C25.5-42.2,26.1-42.4,26.7-42.8z M32-69l9.6,8.2L25.1-50.3L14.9-58L32-69z M65.1-16.5l23.4-14c1-0.6,1.7-1.6,1.8-2.8
			s-0.4-2.3-1.3-3.1L73.9-49.3c-1.2-1-2.9-1.1-4.3-0.3l-23.9,15c-1,0.6-1.6,1.7-1.7,2.9c-0.1,1.2,0.5,2.3,1.4,3.1L61-16.7
			c0.6,0.5,1.4,0.7,2.2,0.7C63.8-16,64.5-16.2,65.1-16.5z M71.2-42l9.3,7.9l-17,10.2L54-31.1L71.2-42z"/>
	</g>
	<g id="Semibold-S" transform="matrix(1 0 0 1 1996.19 696)">
		<path d="M48.8,5.3L73-10.5c0.9-0.6,1.4-1.6,1.4-2.7V-25c0-1.8-1.4-3.2-3.2-3.2S68-26.8,68-25v10L47-1.3L26-15.2v-9.9
			c0-1.8-1.4-3.2-3.2-3.2s-3.2,1.4-3.2,3.2v11.6c0,1.1,0.5,2.1,1.4,2.7l24.2,16c0.5,0.4,1.1,0.5,1.8,0.5C47.7,5.9,48.3,5.7,48.8,5.3
			z M72.8-43.9l15-12.3c0.8-0.6,1.2-1.6,1.2-2.7c-0.1-1-0.6-2-1.5-2.5L64.6-75.9c-1.2-0.7-2.7-0.6-3.7,0.2L45.1-62.6
			c-0.8,0.7-1.2,1.7-1.1,2.7s0.7,2,1.6,2.5l23.7,13.7c0.5,0.3,1,0.4,1.6,0.4C71.5-43.2,72.2-43.4,72.8-43.9z M63.1-69.2l17.2,10.9
			l-9.9,8.1L52.6-60.5L63.1-69.2z M33.9-17.2L49.1-29c0.8-0.6,1.3-1.6,1.2-2.7c-0.1-1-0.6-2-1.5-2.5L26.2-48.4
			c-1.1-0.7-2.6-0.6-3.6,0.1L6.5-36.2c-0.9,0.6-1.3,1.7-1.3,2.7c0.1,1.1,0.6,2,1.6,2.6L30.4-17c0.5,0.3,1.1,0.4,1.6,0.4
			C32.6-16.6,33.3-16.8,33.9-17.2z M24.6-41.9l16.9,10.6l-9.8,7.6L14.1-34L24.6-41.9z M26.2-43l22.6-14.4c0.9-0.5,1.4-1.5,1.5-2.5
			s-0.3-2-1.1-2.7L34-75.7c-1.1-0.9-2.6-1-3.8-0.3L6.6-60.8c-0.9,0.6-1.4,1.5-1.5,2.6c0,1,0.4,2,1.3,2.7l16.1,12.3
			c0.6,0.4,1.3,0.7,1.9,0.7C25.1-42.5,25.7-42.7,26.2-43z M31.6-69.2l10.1,8.7L24.6-49.6l-10.7-8.2L31.6-69.2z M64.2-17l23.2-13.9
			c0.9-0.5,1.5-1.5,1.5-2.5c0.1-1-0.3-2-1.1-2.7l-15-12.7c-1.1-0.9-2.6-1-3.8-0.3L45.3-34.3c-0.9,0.6-1.4,1.5-1.5,2.6
			c0,1,0.4,2.1,1.3,2.7l15.5,11.8c0.6,0.4,1.2,0.7,1.9,0.7C63.1-16.6,63.7-16.7,64.2-17z M70.5-42.4l9.8,8.3L62.8-23.6l-10.1-7.7
			L70.5-42.4z"/>
	</g>
	<g id="Medium-S" transform="matrix(1 0 0 1 1699.83 696)">
		<path d="M48.3,4.6l24-15.7c0.8-0.5,1.3-1.4,1.3-2.3V-25c0-1.5-1.2-2.8-2.8-2.8S68-26.6,68-25v10.2L46.8-1L25.6-15v-10
			c0-1.5-1.2-2.8-2.8-2.8S20-26.6,20-25v11.5c0,0.9,0.5,1.8,1.2,2.3l24,15.8c0.5,0.3,1,0.5,1.5,0.5C47.3,5.1,47.8,4.9,48.3,4.6z
			 M72-44.1l14.9-12.1c0.7-0.6,1.1-1.4,1-2.3c-0.1-0.9-0.5-1.7-1.3-2.2L63.9-75.1c-1-0.6-2.3-0.6-3.2,0.2L45-62
			c-0.7,0.6-1.1,1.5-1,2.4s0.6,1.7,1.4,2.2l23.5,13.6c0.4,0.2,0.9,0.4,1.4,0.4C70.9-43.5,71.5-43.7,72-44.1z M62.6-69.4l17.8,11.3
			L70-49.6L51.6-60.2L62.6-69.4z M33.4-17.7l15-11.7c0.7-0.6,1.1-1.4,1.1-2.3c0-0.9-0.5-1.7-1.3-2.2L25.8-48c-1-0.6-2.2-0.6-3.1,0.1
			l-16,12c-0.7,0.6-1.2,1.4-1.1,2.4c0.1,0.9,0.6,1.8,1.4,2.2l23.3,13.7c0.4,0.3,0.9,0.4,1.4,0.4C32.3-17.1,32.9-17.3,33.4-17.7z
			 M24.5-42.3l17.4,10.9l-10.4,8.1L13.4-34L24.5-42.3z M25.9-43.3l22.4-14.2c0.7-0.5,1.2-1.3,1.3-2.1c0.1-0.9-0.3-1.7-1-2.3
			l-15-12.9c-0.9-0.8-2.3-0.9-3.3-0.2L7-60c-0.8,0.5-1.2,1.3-1.3,2.2c0,0.9,0.4,1.8,1.1,2.3l16,12.1c0.5,0.4,1.1,0.6,1.7,0.6
			C24.9-42.9,25.4-43,25.9-43.3z M31.5-69.4l10.6,9.2L24.5-49l-11.3-8.6L31.5-69.4z M63.5-17.5l23-13.7c0.8-0.5,1.3-1.3,1.3-2.1
			c0.1-0.9-0.3-1.8-1-2.3L71.9-48.2c-0.9-0.8-2.2-0.9-3.3-0.2L45.1-33.7c-0.8,0.5-1.3,1.3-1.3,2.2s0.4,1.8,1.1,2.3l15.3,11.7
			c0.5,0.4,1.1,0.6,1.7,0.6C62.6-17.1,63.1-17.3,63.5-17.5z M70-42.9l10.4,8.8L62.3-23.3l-10.7-8.1L70-42.9z"/>
	</g>
	<g id="Regular-S" transform="matrix(1 0 0 1 1403.58 696)">
		<path d="M47.5,3.9l23.7-15.5c0.7-0.4,1.1-1.2,1.1-2v-11.6c0-1.3-1.1-2.3-2.3-2.3c-1.3,0-2.3,1.1-2.3,2.3v10.3l-21.4,14L24.9-15
			v-10.1c0-1.3-1.1-2.3-2.3-2.3s-2.3,1.1-2.3,2.3v11.4c0,0.8,0.4,1.5,1.1,2L45.1,4c0.4,0.3,0.8,0.4,1.3,0.4
			C46.7,4.3,47.1,4.2,47.5,3.9z M71-44.4l14.7-12c0.6-0.5,0.9-1.2,0.9-2s-0.5-1.4-1.1-1.8L63-74.4c-0.9-0.5-2-0.5-2.8,0.2L44.7-61.4
			c-0.6,0.5-0.9,1.2-0.8,2s0.5,1.5,1.2,1.8l23.3,13.5c0.4,0.2,0.8,0.3,1.2,0.3C70-43.8,70.6-44,71-44.4z M61.9-69.5l18.3,11.6
			L69.3-49L50.4-59.9L61.9-69.5z M32.8-18.2l14.9-11.6c0.6-0.5,0.9-1.2,0.9-2s-0.4-1.5-1.1-1.9L25.3-47.6c-0.8-0.5-1.9-0.5-2.7,0.1
			L6.8-35.6c-0.6,0.5-1,1.2-0.9,2c0,0.8,0.5,1.5,1.2,1.9l23.1,13.6c0.4,0.2,0.8,0.3,1.2,0.3C31.9-17.7,32.4-17.9,32.8-18.2z
			 M24.2-42.7l17.9,11.3l-11,8.5l-18.7-11L24.2-42.7z M25.3-43.6l22.2-14.1c0.6-0.4,1-1.1,1.1-1.8s-0.2-1.5-0.8-2L32.9-74.3
			c-0.8-0.7-1.9-0.8-2.8-0.2L7-59.6c-0.6,0.4-1,1.1-1.1,1.9c0,0.8,0.3,1.5,0.9,2l15.8,12c0.4,0.3,0.9,0.5,1.4,0.5
			C24.5-43.2,25-43.3,25.3-43.6z M31.2-69.5l11.1,9.6L24.2-48.4l-11.9-9L31.2-69.5z M62.6-18l22.8-13.6c0.7-0.4,1.1-1.1,1.1-1.8
			c0.1-0.8-0.2-1.5-0.8-2L71-47.9c-0.8-0.7-1.9-0.7-2.8-0.2L44.9-33.5c-0.7,0.4-1.1,1.1-1.1,1.9c0,0.8,0.3,1.5,0.9,2L59.9-18
			c0.4,0.3,0.9,0.5,1.4,0.5C61.9-17.7,62.3-17.8,62.6-18z M69.3-43.3L80.2-34L61.6-22.9l-11.2-8.5L69.3-43.3z"/>
	</g>
	<g id="Light-S" transform="matrix(1 0 0 1 1107.6 696)">
		<path d="M46.6,3.2l23.5-15.4c0.5-0.4,0.9-1,0.9-1.6v-11.4c0-1.1-0.9-1.9-1.9-1.9c-1.1,0-1.9,0.9-1.9,1.9v10.4L45.6-0.7L24-14.9
			v-10.2c0-1.1-0.9-1.9-1.9-1.9c-1.1,0-1.9,0.9-1.9,1.9v11.3c0,0.7,0.3,1.3,0.9,1.6L44.6,3.3c0.3,0.2,0.7,0.3,1.1,0.3
			C45.9,3.5,46.3,3.4,46.6,3.2z M69.8-44.6l14.6-11.9c0.5-0.4,0.7-1,0.7-1.6s-0.4-1.2-0.9-1.5L62-73.7c-0.7-0.4-1.6-0.4-2.3,0.1
			L44.3-60.9c-0.5,0.4-0.7,1-0.7,1.7c0.1,0.6,0.4,1.2,1,1.5l23,13.3c0.3,0.2,0.6,0.3,1,0.3S69.4-44.3,69.8-44.6z M61-69.7l18.8,11.9
			l-11.5,9.4L48.8-59.7L61-69.7z M32-18.7l14.7-11.4c0.5-0.4,0.8-1,0.7-1.6c0-0.6-0.4-1.2-0.9-1.5L24.6-47c-0.7-0.4-1.6-0.4-2.2,0.1
			L6.7-35.1c-0.5,0.4-0.8,1-0.8,1.7c0,0.6,0.4,1.2,1,1.6l22.9,13.5c0.3,0.2,0.6,0.3,1,0.3C31.2-18.3,31.6-18.4,32-18.7z M23.7-43.1
			l18.5,11.6l-11.5,8.9L11.5-33.9L23.7-43.1z M24.6-43.8l21.9-13.9c0.5-0.3,0.8-0.9,0.9-1.5c0-0.6-0.2-1.2-0.7-1.6L32-73.5
			c-0.7-0.6-1.6-0.6-2.3-0.2L6.8-59c-0.5,0.3-0.9,0.9-0.9,1.6c0,0.6,0.3,1.2,0.8,1.6l15.7,11.9c0.3,0.3,0.8,0.4,1.2,0.4
			C24-43.5,24.3-43.6,24.6-43.8z M30.6-69.7l11.7,10L23.7-47.9l-12.4-9.4L30.6-69.7z M61.6-18.5L84.2-32c0.5-0.3,0.9-0.9,0.9-1.5
			c0.1-0.6-0.2-1.2-0.7-1.6L69.8-47.5c-0.6-0.5-1.6-0.6-2.3-0.2l-23,14.4c-0.5,0.3-0.9,0.9-0.9,1.6c0,0.6,0.3,1.2,0.8,1.6l15,11.4
			c0.3,0.3,0.8,0.4,1.2,0.4C60.9-18.3,61.3-18.4,61.6-18.5z M68.4-43.7L79.8-34L60.7-22.6l-11.8-8.9L68.4-43.7z"/>
	</g>
	<g id="Thin-S" transform="matrix(1 0 0 1 811.863 696)">
		<path d="M45.4,2.5l23.3-15.2c0.4-0.3,0.7-0.8,0.7-1.3v-11.3c0-0.8-0.7-1.5-1.5-1.5s-1.5,0.7-1.5,1.5v10.5L44.7-0.6L22.8-15v-10.3
			c0-0.8-0.7-1.5-1.5-1.5s-1.5,0.7-1.5,1.5v11.2c0,0.5,0.3,1,0.7,1.3L43.8,2.5c0.3,0.2,0.6,0.3,0.8,0.3C44.8,2.7,45.1,2.6,45.4,2.5z
			 M68.3-44.8l14.4-11.8c0.4-0.3,0.6-0.8,0.6-1.3s-0.3-0.9-0.7-1.2l-22-14c-0.6-0.4-1.3-0.3-1.8,0.1L43.6-60.4
			c-0.4,0.3-0.6,0.8-0.6,1.3s0.3,0.9,0.8,1.2l22.8,13.2c0.2,0.1,0.5,0.2,0.8,0.2C67.7-44.4,68-44.5,68.3-44.8z M59.8-69.8l19.3,12.2
			l-12,9.8l-20-11.5L59.8-69.8z M30.9-19.2l14.6-11.3c0.4-0.3,0.6-0.8,0.6-1.3s-0.3-1-0.7-1.2L23.7-46.6c-0.5-0.3-1.2-0.3-1.7,0.1
			L6.5-34.9c-0.4,0.3-0.6,0.8-0.6,1.3s0.3,1,0.8,1.2l22.6,13.3c0.2,0.1,0.5,0.2,0.8,0.2C30.3-18.8,30.6-18.9,30.9-19.2z M22.9-43.5
			l19,11.9l-12,9.3L10.1-33.9L22.9-43.5z M23.6-44l21.7-13.8c0.4-0.3,0.7-0.7,0.7-1.2s-0.2-1-0.5-1.3L30.9-72.9
			c-0.5-0.4-1.3-0.5-1.8-0.1L6.5-58.4c-0.4,0.3-0.7,0.7-0.7,1.2s0.2,1,0.6,1.3l15.5,11.8c0.3,0.2,0.6,0.3,0.9,0.3
			C23.1-43.8,23.4-43.9,23.6-44z M29.8-69.8l12.1,10.5L22.8-47.2L9.9-57L29.8-69.8z M60.2-19l22.3-13.3c0.4-0.3,0.7-0.7,0.7-1.2
			s-0.2-1-0.5-1.3L68.3-47c-0.5-0.4-1.2-0.5-1.8-0.1L43.7-33c-0.4,0.3-0.7,0.7-0.7,1.2s0.2,1,0.6,1.3l14.9,11.3
			c0.3,0.2,0.6,0.3,0.9,0.3C59.7-18.8,60-18.9,60.2-19z M67.2-44.1L79.1-34L59.5-22.3l-12.3-9.3L67.2-44.1z"/>
	</g>
	<g id="Ultralight-S" transform="matrix(1 0 0 1 515.649 696)">
		<path d="M43.7,1.8l23-15c0.3-0.2,0.5-0.6,0.5-1v-11.2c0-0.6-0.5-1.1-1.1-1.1S65-26,65-25.4v10.6L43.1-0.5L21.2-15v-10.4
			c0-0.6-0.5-1.1-1.1-1.1S19-26,19-25.4v11.1c0,0.4,0.2,0.7,0.5,1l23,15.2c0.2,0.1,0.4,0.2,0.6,0.2C43.3,1.9,43.5,1.9,43.7,1.8z
			 M66.4-45l14.3-11.7c0.3-0.2,0.4-0.6,0.4-1s-0.2-0.7-0.5-0.9L58.8-72.4c-0.4-0.3-1-0.2-1.3,0.1l-15,12.4c-0.3,0.2-0.4,0.6-0.4,1
			s0.2,0.7,0.6,0.9l22.6,13c0.2,0.1,0.4,0.2,0.6,0.2C65.9-44.7,66.2-44.8,66.4-45z M58.2-69.9L78-57.4L65.6-47.2L45.1-59L58.2-69.9z
			 M29.4-19.6l14.4-11.2c0.3-0.2,0.5-0.6,0.4-1c0-0.4-0.2-0.7-0.5-0.9L22.2-46.2c-0.4-0.3-0.9-0.2-1.3,0.1L5.6-34.6
			c-0.3,0.2-0.5,0.6-0.5,1s0.2,0.7,0.6,0.9l22.4,13.2c0.2,0.1,0.4,0.2,0.6,0.2C28.9-19.4,29.2-19.5,29.4-19.6z M21.7-43.8l19.4,12.2
			l-12.5,9.7L8.3-33.8L21.7-43.8z M22.2-44.3L43.7-58c0.3-0.2,0.5-0.5,0.5-0.9s-0.1-0.7-0.4-0.9L29.4-72.2c-0.4-0.3-0.9-0.4-1.4-0.1
			L5.6-57.9c-0.3,0.2-0.5,0.5-0.5,0.9s0.2,0.7,0.4,1l15.3,11.7c0.2,0.2,0.4,0.2,0.7,0.2C21.8-44.1,22.1-44.1,22.2-44.3z M28.6-69.9
			L41.2-59L21.7-46.6L8.3-56.8L28.6-69.9z M58.4-19.5l22.1-13.2c0.3-0.2,0.5-0.5,0.6-0.9c0-0.4-0.1-0.7-0.4-1L66.4-46.7
			c-0.4-0.3-0.9-0.4-1.3-0.1L42.5-32.7c-0.3,0.2-0.5,0.5-0.5,0.9s0.2,0.7,0.4,1l14.7,11.2c0.2,0.2,0.4,0.2,0.7,0.2
			C58-19.4,58.2-19.4,58.4-19.5z M65.6-44.4L78-33.9l-20.1,12l-12.8-9.7L65.6-44.4z"/>
	</g>
</g>
</svg>
