<?xml version="1.0" encoding="UTF-8"?>
<svg xmlns="http://www.w3.org/2000/svg" xmlns:xlink="http://www.w3.org/1999/xlink" width="112.5pt" height="112.5pt" viewBox="0 0 112.5 112.5" version="1.1">
<g id="surface12408">
<path style=" stroke:none;fill-rule:nonzero;fill:rgb(100%,100%,100%);fill-opacity:1;" d="M 11.199219 4.480469 C 7.515625 4.480469 4.480469 7.515625 4.480469 11.199219 L 4.480469 24.640625 C 4.480469 26.355469 5.152344 27.929688 6.230469 29.121094 C 5.152344 30.308594 4.480469 31.886719 4.480469 33.601562 L 4.480469 47.039062 C 4.480469 48.753906 5.152344 50.328125 6.230469 51.519531 C 5.152344 52.710938 4.480469 54.285156 4.480469 56 L 4.480469 69.441406 C 4.480469 73.125 7.515625 76.160156 11.199219 76.160156 L 24.640625 76.160156 C 26.355469 76.160156 27.929688 75.484375 29.121094 74.410156 C 30.308594 75.484375 31.886719 76.160156 33.601562 76.160156 L 47.039062 76.160156 C 48.203125 76.160156 49.234375 75.773438 50.191406 75.25 L 51.308594 79.03125 C 49.996094 78.925781 49.550781 78.828125 47.460938 78.75 C 43.59375 78.601562 39.21875 78.546875 36.121094 79.449219 C 31.414062 80.824219 27.527344 83.753906 24.851562 87.011719 C 22.171875 90.265625 20.414062 93.84375 21.421875 97.300781 C 22.25 100.152344 23.101562 103.179688 23.101562 103.179688 C 23.265625 103.757812 23.652344 104.246094 24.175781 104.535156 C 24.703125 104.824219 25.324219 104.894531 25.898438 104.71875 L 39.269531 100.800781 L 66.148438 105.699219 L 68.109375 107.101562 C 69.117188 107.835938 70.523438 107.617188 71.261719 106.609375 C 71.996094 105.605469 71.777344 104.195312 70.769531 103.460938 L 68.390625 101.710938 C 68.117188 101.527344 67.804688 101.414062 67.480469 101.359375 L 39.621094 96.320312 C 39.277344 96.234375 38.910156 96.234375 38.570312 96.320312 L 26.808594 99.75 C 26.476562 98.613281 26.214844 97.84375 25.691406 96.039062 C 25.445312 95.207031 26.136719 92.480469 28.28125 89.878906 C 30.421875 87.28125 33.703125 84.796875 37.378906 83.71875 C 39.09375 83.222656 43.539062 83.082031 47.25 83.230469 C 50.960938 83.378906 54.109375 83.71875 54.109375 83.71875 C 54.855469 83.796875 55.589844 83.5 56.070312 82.921875 C 56.542969 82.347656 56.707031 81.566406 56.488281 80.851562 L 53.550781 70.769531 C 53.542969 70.402344 53.445312 70.042969 53.269531 69.71875 L 53.199219 69.648438 L 40.949219 27.578125 C 40.171875 24.902344 41.632812 22.128906 44.308594 21.351562 C 46.988281 20.570312 49.761719 22.03125 50.539062 24.710938 L 59.359375 54.878906 C 59.804688 55.929688 60.960938 56.480469 62.054688 56.15625 C 63.148438 55.832031 63.832031 54.738281 63.628906 53.621094 C 62.851562 50.941406 64.382812 48.167969 67.058594 47.390625 C 69.738281 46.609375 72.441406 48.140625 73.21875 50.820312 L 73.921875 53.128906 C 74.367188 54.179688 75.519531 54.730469 76.613281 54.40625 C 77.707031 54.082031 78.390625 52.988281 78.191406 51.871094 C 77.410156 49.191406 78.941406 46.417969 81.621094 45.640625 C 84.296875 44.859375 87.070312 46.390625 87.851562 49.070312 L 87.78125 49.070312 L 88.828125 52.429688 C 89.136719 53.496094 90.175781 54.1875 91.28125 54.039062 L 91.421875 54.039062 C 92.601562 53.855469 93.433594 52.78125 93.308594 51.589844 C 93.046875 49.21875 94.5 46.96875 96.878906 46.269531 C 99.558594 45.492188 102.261719 46.953125 103.039062 49.628906 C 103.390625 50.828125 104.640625 51.519531 105.839844 51.171875 C 107.039062 50.820312 107.730469 49.570312 107.378906 48.371094 C 105.917969 43.363281 100.625 40.46875 95.621094 41.929688 C 93.617188 42.515625 91.972656 43.742188 90.789062 45.289062 C 88.550781 41.9375 84.421875 40.179688 80.359375 41.371094 C 78.679688 41.859375 77.261719 42.804688 76.160156 44.03125 L 76.160156 33.601562 C 76.160156 31.886719 75.484375 30.308594 74.410156 29.121094 C 75.484375 27.929688 76.160156 26.355469 76.160156 24.640625 L 76.160156 11.199219 C 76.160156 7.515625 73.125 4.480469 69.441406 4.480469 L 56 4.480469 C 54.285156 4.480469 52.710938 5.152344 51.519531 6.230469 C 50.328125 5.152344 48.753906 4.480469 47.039062 4.480469 L 33.601562 4.480469 C 31.886719 4.480469 30.308594 5.152344 29.121094 6.230469 C 27.929688 5.152344 26.355469 4.480469 24.640625 4.480469 Z M 11.199219 8.960938 L 24.640625 8.960938 C 25.910156 8.960938 26.878906 9.929688 26.878906 11.199219 L 26.878906 24.640625 C 26.878906 25.910156 25.910156 26.878906 24.640625 26.878906 L 11.199219 26.878906 C 9.929688 26.878906 8.960938 25.910156 8.960938 24.640625 L 8.960938 11.199219 C 8.960938 9.929688 9.929688 8.960938 11.199219 8.960938 Z M 33.601562 8.960938 L 47.039062 8.960938 C 48.308594 8.960938 49.28125 9.929688 49.28125 11.199219 L 49.28125 17.359375 C 48.5 17.046875 47.679688 16.828125 46.828125 16.730469 C 45.605469 16.582031 44.300781 16.640625 43.050781 17.011719 C 38.691406 18.277344 35.9375 22.503906 36.261719 26.878906 L 33.601562 26.878906 C 32.332031 26.878906 31.359375 25.910156 31.359375 24.640625 L 31.359375 11.199219 C 31.359375 9.929688 32.332031 8.960938 33.601562 8.960938 Z M 56 8.960938 L 69.441406 8.960938 C 70.707031 8.960938 71.679688 9.929688 71.679688 11.199219 L 71.679688 24.640625 C 71.679688 25.910156 70.707031 26.878906 69.441406 26.878906 L 55.789062 26.878906 L 54.808594 23.519531 C 54.566406 22.679688 54.199219 21.917969 53.761719 21.210938 L 53.761719 20.441406 C 53.769531 20.328125 53.769531 20.203125 53.761719 20.089844 L 53.761719 11.199219 C 53.761719 9.929688 54.730469 8.960938 56 8.960938 Z M 11.199219 31.359375 L 24.640625 31.359375 C 25.910156 31.359375 26.878906 32.332031 26.878906 33.601562 L 26.878906 47.039062 C 26.878906 48.308594 25.910156 49.28125 24.640625 49.28125 L 11.199219 49.28125 C 9.929688 49.28125 8.960938 48.308594 8.960938 47.039062 L 8.960938 33.601562 C 8.960938 32.332031 9.929688 31.359375 11.199219 31.359375 Z M 33.601562 31.359375 L 37.378906 31.359375 L 42.628906 49.28125 L 33.601562 49.28125 C 32.332031 49.28125 31.359375 48.308594 31.359375 47.039062 L 31.359375 33.601562 C 31.359375 32.332031 32.332031 31.359375 33.601562 31.359375 Z M 57.121094 31.359375 L 69.441406 31.359375 C 70.707031 31.359375 71.679688 32.332031 71.679688 33.601562 L 71.679688 43.398438 C 69.859375 42.691406 67.828125 42.523438 65.800781 43.121094 C 63.996094 43.644531 62.613281 44.800781 61.460938 46.128906 Z M 11.199219 53.761719 L 24.640625 53.761719 C 25.910156 53.761719 26.878906 54.730469 26.878906 56 L 26.878906 69.441406 C 26.878906 70.707031 25.910156 71.679688 24.640625 71.679688 L 11.199219 71.679688 C 9.929688 71.679688 8.960938 70.707031 8.960938 69.441406 L 8.960938 56 C 8.960938 54.730469 9.929688 53.761719 11.199219 53.761719 Z M 33.601562 53.761719 L 43.890625 53.761719 L 48.859375 70.699219 C 48.449219 71.277344 47.800781 71.679688 47.039062 71.679688 L 33.601562 71.679688 C 32.332031 71.679688 31.359375 70.707031 31.359375 69.441406 L 31.359375 56 C 31.359375 54.730469 32.332031 53.761719 33.601562 53.761719 Z M 33.601562 53.761719 "/>
</g>
</svg>
