<?xml version="1.0" encoding="utf-8"?>
<!-- Generator: Adobe Illustrator 24.1.1, SVG Export Plug-In . SVG Version: 6.00 Build 0)  -->
<svg version="1.1" id="Layer_1" xmlns="http://www.w3.org/2000/svg" xmlns:xlink="http://www.w3.org/1999/xlink" x="0px" y="0px"
	 viewBox="0 0 3300 2200" style="enable-background:new 0 0 3300 2200;" xml:space="preserve">
<style type="text/css">
	.st0{fill:#FFFFFF;}
	.st1{fill:none;stroke:#000000;stroke-width:0.5;}
	.st2{font-family:'Arial-BoldMT';}
	.st3{font-size:13px;}
	.st4{font-family:'ArialMT';}
	.st5{fill:none;stroke:#00AEEF;stroke-width:0.5;}
	.st6{fill:#27AAE1;}
	.st7{fill:none;stroke:#27AAE1;stroke-width:0.5;}
</style>
<g id="Notes">
	<rect id="artboard" class="st0" width="3300" height="2200"/>
	<line class="st1" x1="263" y1="292" x2="3036" y2="292"/>
	<text transform="matrix(1 0 0 1 263 322)" class="st2 st3">Weight/Scale Variations</text>
	<text transform="matrix(1 0 0 1 534.0632 322)" class="st4 st3">Ultralight</text>
	<text transform="matrix(1 0 0 1 843.7775 322)" class="st4 st3">Thin</text>
	<text transform="matrix(1 0 0 1 1139.035 322)" class="st4 st3">Light</text>
	<text transform="matrix(1 0 0 1 1427.0773 322)" class="st4 st3">Regular</text>
	<text transform="matrix(1 0 0 1 1723.4419 322)" class="st4 st3">Medium</text>
	<text transform="matrix(1 0 0 1 2016.1719 322)" class="st4 st3">Semibold</text>
	<text transform="matrix(1 0 0 1 2326.9705 322)" class="st4 st3">Bold</text>
	<text transform="matrix(1 0 0 1 2618.2659 322)" class="st4 st3">Heavy</text>
	<text transform="matrix(1 0 0 1 2917.5054 322)" class="st4 st3">Black</text>
	<line class="st1" x1="263" y1="1903" x2="3036" y2="1903"/>
	<g transform="matrix(1 0 0 1 263 1933)">
		<path d="M9.2,0.8c4.3,0,7.9-3.6,7.9-7.9S13.5-15,9.2-15s-7.9,3.6-7.9,7.9C1.4-2.7,5,0.8,9.2,0.8z M9.2-0.7C5.7-0.7,2.9-3.5,2.9-7
			c0-3.6,2.8-6.4,6.4-6.4s6.4,2.8,6.4,6.4C15.6-3.5,12.8-0.7,9.2-0.7z M5.7-7.1c0,0.4,0.3,0.7,0.8,0.7h2.1v2.1
			c0,0.4,0.3,0.7,0.7,0.7S10-3.9,10-4.3v-2.1h2.1c0.4,0,0.7-0.3,0.7-0.7c0-0.4-0.3-0.7-0.7-0.7H10v-2.1c0-0.4-0.3-0.8-0.7-0.8
			s-0.7,0.3-0.7,0.8v2.1H6.4C6-7.8,5.7-7.5,5.7-7.1z"/>
	</g>
	<g transform="matrix(1 0 0 1 281.867 1933)">
		<path d="M11.7,2.9c5.4,0,10-4.5,10-10c0-5.4-4.5-10-10-10c-5.4,0-10,4.5-10,10C1.7-1.6,6.3,2.9,11.7,2.9z M11.7,1.3
			C7.1,1.3,3.4-2.4,3.4-7s3.7-8.3,8.3-8.3S20-11.7,20-7.1C20-2.4,16.3,1.3,11.7,1.3z M7.2-7.1c0,0.5,0.3,0.8,0.8,0.8h2.9v2.9
			c0,0.5,0.3,0.8,0.8,0.8s0.8-0.3,0.8-0.8v-2.9h2.9c0.5,0,0.8-0.3,0.8-0.8s-0.3-0.8-0.8-0.8h-2.9v-2.9c0-0.5-0.3-0.8-0.8-0.8
			s-0.8,0.3-0.8,0.8v2.9H8C7.5-7.9,7.2-7.5,7.2-7.1z"/>
	</g>
	<g transform="matrix(1 0 0 1 305.646 1933)">
		<path d="M15,5.7c7,0,12.7-5.8,12.7-12.7c0-7-5.8-12.7-12.7-12.7C8-19.8,2.3-14,2.3-7.1C2.3-0.1,8,5.7,15,5.7z M15,3.8
			C8.9,3.8,4.1-1,4.1-7S8.9-17.9,15-17.9c6,0,10.9,4.9,10.9,10.9S21,3.8,15,3.8z M9.2-7.1c0,0.5,0.4,0.9,0.9,0.9H14v4
			c0,0.5,0.4,0.9,0.9,0.9s0.9-0.4,0.9-0.9v-4h4c0.5,0,0.9-0.4,0.9-0.9S20.3-8,19.8-8h-4v-3.9c0-0.5-0.4-0.9-0.9-0.9S14-12.4,14-11.9
			V-8h-3.9C9.6-8,9.2-7.6,9.2-7.1z"/>
	</g>
	<text transform="matrix(1 0 0 1 263 1953)" class="st2 st3">Design Variations</text>
	<text transform="matrix(1 0 0 1 263 1971)" class="st4 st3">Symbols are supported in up to nine weights and three scales.</text>
	<text transform="matrix(1 0 0 1 263 1989)" class="st4 st3">For optimal layout with text and other symbols, vertically align</text>
	<text transform="matrix(1 0 0 1 263 2007)" class="st4 st3">symbols with the adjacent text.</text>
	<line class="st5" x1="776" y1="1919" x2="776" y2="1933"/>
	<g transform="matrix(1 0 0 1 776 1933)">
		<path d="M3.3,0.2c0.5,0,0.8-0.2,1-0.7L5.5-4h5.8l1.3,3.4C12.7,0,13,0.2,13.5,0.2s0.9-0.3,0.9-0.8c0-0.2,0-0.3-0.1-0.5L9.7-13.4
			C9.4-14,9-14.3,8.4-14.3s-1,0.3-1.2,0.9L2.6-1.2C2.5-1,2.5-0.8,2.5-0.6C2.5-0.1,2.8,0.2,3.3,0.2z M6-5.5l2.4-6.6l0,0l2.4,6.6
			C10.8-5.5,6-5.5,6-5.5z"/>
	</g>
	<line class="st5" x1="793.2" y1="1919" x2="793.2" y2="1933"/>
	<text transform="matrix(1 0 0 1 776 1953)" class="st2 st3">Margins</text>
	<text transform="matrix(1 0 0 1 776 1971)" class="st4 st3">Leading and trailing margins on the left and right side of each symbol</text>
	<text transform="matrix(1 0 0 1 776 1989)" class="st4 st3">can be adjusted by modifying the x-location of the margin guidelines.</text>
	<text transform="matrix(1 0 0 1 776 2007)" class="st4 st3">Modifications are automatically applied proportionally to all</text>
	<text transform="matrix(1 0 0 1 776 2025)" class="st4 st3">scales and weights.</text>
	<g transform="matrix(1 0 0 1 1289 1933)">
		<path d="M2.8,1.9l1.7,1.7c0.9,0.9,1.8,0.8,2.8-0.2L18-8.4l-1-1L6.4,2.3C6,2.7,5.7,2.8,5.2,2.3L4.1,1.1C3.6,0.7,3.7,0.3,4.1,0
			l11.5-10.8l-1-1L3-0.9C2.1,0,2,1,2.8,1.9z M9.3-16.3c-0.4,0.4-0.4,1-0.2,1.4s0.7,0.6,1.3,0.4c1.5-0.3,3-0.4,4.4,0.5l-0.6,1.5
			c-0.3,0.8-0.2,1.4,0.4,2l2.3,2.3c0.5,0.5,0.9,0.5,1.5,0.4l1-0.2l0.7,0.7v0.6c0,0.5,0.1,0.9,0.6,1.4l0.8,0.7c0.5,0.5,1.1,0.5,1.6,0
			L26-7.5C26.5-8,26.4-8.6,26-9l-1-0.9c-0.5-0.5-0.9-0.6-1.3-0.6h-0.6l-0.6-0.6l0.2-1.1c0.1-0.6,0-1-0.6-1.6L19.9-16
			C16.6-19.3,12.1-19.2,9.3-16.3z M10.8-16c2.4-1.8,5.7-1.5,7.9,0.8l2.4,2.4c0.2,0.2,0.3,0.4,0.2,0.8L21-10.5L22.5-9l1-0.1
			c0.3,0,0.3,0,0.5,0.2l0.6,0.6l-2.4,2.4l-0.6-0.6c-0.2-0.2-0.2-0.3-0.2-0.5l0.1-1L20-9.5l-1.5,0.3c-0.3,0.1-0.5,0-0.7-0.2l-2-2
			c-0.3-0.2-0.3-0.4-0.1-0.8l0.9-2.1C15-15.8,13-16.4,11-15.8C10.7-15.7,10.6-15.9,10.8-16z"/>
	</g>
	<text transform="matrix(1 0 0 1 1289 1953)" class="st2 st3">Exporting</text>
	<text transform="matrix(1 0 0 1 1289 1971)" class="st4 st3">Symbols should be outlined when exporting to ensure the</text>
	<text transform="matrix(1 0 0 1 1289 1989)" class="st4 st3">design is preserved when submitting to Xcode.</text>
	<text id="template-version" transform="matrix(1 0 0 1 2952.4204 1933)" class="st4 st3">Template v.4.0</text>
	<text transform="matrix(1 0 0 1 2865.4575 1951)" class="st4 st3">Requires Xcode 14 or greater</text>
	<text id="descriptive-name" transform="matrix(1 0 0 1 2852.4634 1969)" class="st4 st3">Generated from show.password</text>
	<text transform="matrix(1 0 0 1 2912.4175 1987)" class="st4 st3">Typeset at 100 points</text>
	<text transform="matrix(1 0 0 1 263 726)" class="st4 st3">Small</text>
	<text transform="matrix(1 0 0 1 263 1156)" class="st4 st3">Medium</text>
	<text transform="matrix(1 0 0 1 263 1586)" class="st4 st3">Large</text>
</g>
<g id="Guides">
	<g id="H-reference" transform="matrix(1 0 0 1 339 696)">
		<path class="st6" d="M1,0h2.6l25.7-67.1H30v-3.3h-1.9L1,0z M11.7-24.5H47l-0.8-2.2H12.4L11.7-24.5z M55.1,0h2.6L30.6-70.5h-1.2
			v3.3L55.1,0z"/>
	</g>
	<line id="Baseline-S" class="st7" x1="263" y1="696" x2="3036" y2="696"/>
	<line id="Capline-S" class="st7" x1="263" y1="625.5" x2="3036" y2="625.5"/>
	<g id="H-reference_1_" transform="matrix(1 0 0 1 339 1126)">
		<path class="st6" d="M1,0h2.6l25.7-67.1H30v-3.3h-1.9L1,0z M11.7-24.5H47l-0.8-2.2H12.4L11.7-24.5z M55.1,0h2.6L30.6-70.5h-1.2
			v3.3L55.1,0z"/>
	</g>
	<line id="Baseline-M" class="st7" x1="263" y1="1126" x2="3036" y2="1126"/>
	<line id="Capline-M" class="st7" x1="263" y1="1055.5" x2="3036" y2="1055.5"/>
	<g id="H-reference_2_" transform="matrix(1 0 0 1 339 1556)">
		<path class="st6" d="M1,0h2.6l25.7-67.1H30v-3.3h-1.9L1,0z M11.7-24.5H47l-0.8-2.2H12.4L11.7-24.5z M55.1,0h2.6L30.6-70.5h-1.2
			v3.3L55.1,0z"/>
	</g>
	<line id="Baseline-L" class="st7" x1="263" y1="1556" x2="3036" y2="1556"/>
	<line id="Capline-L" class="st7" x1="263" y1="1485.5" x2="3036" y2="1485.5"/>
	<line id="left-margin-Regular-M" class="st5" x1="1391.3" y1="1030.8" x2="1391.3" y2="1150.1"/>
	<line id="right-margin-Regular-M" class="st5" x1="1508.4" y1="1030.8" x2="1508.4" y2="1150.1"/>
</g>
<g id="Symbols">
	<g id="Black-L" transform="matrix(1 0 0 1 2854.19 1556)">
		<path d="M50.1-61.7c0,4.8-3.9,8.7-8.7,8.7s-8.7-3.9-8.7-8.7s3.9-8.7,8.7-8.7S50.1-66.4,50.1-61.7z M87.9-61.7
			c0,4.8-3.9,8.7-8.7,8.7c-4.8,0-8.7-3.9-8.7-8.7s3.9-8.7,8.7-8.7C83.9-70.4,87.9-66.4,87.9-61.7z M125.7-61.7
			c0,4.8-3.9,8.7-8.7,8.7c-4.8,0-8.7-3.9-8.7-8.7s3.9-8.7,8.7-8.7C121.7-70.4,125.7-66.4,125.7-61.7z M79.2,33.1
			C59,33.1,42.6,16.7,42.6-3.5c0-20.2,16.4-36.6,36.6-36.6c20.2,0,36.6,16.4,36.6,36.6C115.7,16.7,99.3,33.1,79.2,33.1z M79.2-25.1
			c-11.9,0-21.6,9.7-21.6,21.6c0,11.9,9.7,21.6,21.6,21.6c11.9,0,21.6-9.7,21.6-21.6C100.8-15.4,91.1-25.1,79.2-25.1z M79.2,33.1
			c-37.9,0-60.3-30.9-61.3-32.2c-1.9-2.7-1.8-6.4,0.3-9c1-1.3,26-31.9,61-31.9c35,0,60,30.6,61,31.9c2.1,2.6,2.2,6.3,0.3,9
			C139.5,2.2,117.1,33.1,79.2,33.1z M34-3.3c7,7.4,23,21.4,45.2,21.4c22.2,0,38.2-13.9,45.2-21.4c-7.5-7.5-24.6-21.8-45.2-21.8
			C58.6-25.1,41.5-10.8,34-3.3z M87.6-5.9c-3.4,0-6-2.7-6-6c0-2.2,1.1-3.9,2.7-5c-1.6-0.7-3.4-1-5.2-1c-8,0-14.5,6.5-14.5,14.5
			s6.5,14.5,14.5,14.5S93.7,4.7,93.7-3.4c0-1.9-0.4-3.5-1-5.2C91.7-7,89.8-5.9,87.6-5.9z M150.3-33.5v-57.2
			c0-7.1-5.8-12.9-12.9-12.9H21c-7.1,0-12.9,5.8-12.9,12.9v57.2c0,7.1,5.8,12.9,12.9,12.9h0.6c4.9-4.5,11.7-10.1,20.2-15H24.4
			c-0.8,0-1.4-0.6-1.4-1.4v-50.4c0-0.8,0.6-1.4,1.4-1.4h109.6c0.8,0,1.4,0.6,1.4,1.4v50.4c0,0.8-0.6,1.4-1.4,1.4h-17.4
			c8.4,4.8,15.3,10.4,20.1,15h0.7C144.5-20.6,150.3-26.4,150.3-33.5z"/>
	</g>
	<g id="Heavy-L" transform="matrix(1 0 0 1 2558.42 1556)">
		<path d="M49.6-61.4c0,4.7-3.9,8.6-8.6,8.6s-8.6-3.9-8.6-8.6s3.9-8.6,8.6-8.6S49.6-66.1,49.6-61.4z M86.9-61.4
			c0,4.7-3.9,8.6-8.6,8.6s-8.6-3.9-8.6-8.6s3.9-8.6,8.6-8.6S86.9-66.1,86.9-61.4z M124.3-61.4c0,4.7-3.9,8.6-8.6,8.6
			s-8.6-3.9-8.6-8.6s3.9-8.6,8.6-8.6S124.3-66.1,124.3-61.4z M78.3,31.8c-19.6,0-35.6-16-35.6-35.6c0-19.6,16-35.6,35.6-35.6
			s35.6,16,35.6,35.6C113.8,15.8,97.9,31.8,78.3,31.8z M78.3-25.9c-12.2,0-22.1,9.9-22.1,22.1s9.9,22.1,22.1,22.1
			s22.1-9.9,22.1-22.1S90.4-25.9,78.3-25.9z M78.3,31.8C41,31.8,19,1.4,18.1,0.1c-1.7-2.5-1.6-5.8,0.2-8.1
			c1-1.3,25.6-31.3,59.9-31.3S137.2-9.3,138.2-8c1.9,2.3,2,5.7,0.2,8.1C137.5,1.4,115.5,31.8,78.3,31.8z M32.5-3.6
			c6.8,7.3,23,21.9,45.7,21.9c22.7,0,39-14.6,45.7-21.9c-7.3-7.4-24.7-22.3-45.7-22.3C57.1-25.9,39.8-11,32.5-3.6z M86.6-6.2
			c-3.4,0-5.9-2.7-5.9-5.9c0-2.2,1.1-3.9,2.7-5c-1.6-0.7-3.4-0.9-5.1-0.9c-7.9,0-14.4,6.5-14.4,14.4s6.5,14.4,14.4,14.4
			S92.7,4.3,92.7-3.6c0-1.9-0.4-3.5-0.9-5.1C90.7-7.3,88.8-6.2,86.6-6.2z M135.9-102.4H20.6c-6.7,0-12.1,5.4-12.1,12.1v56.7
			c0,6.7,5.4,12.1,12.1,12.1H22c4.5-4.2,10.7-9.1,18.1-13.5H23.3c-0.7,0-1.3-0.6-1.3-1.3v-51.3c0-0.7,0.6-1.3,1.3-1.3h109.9
			c0.7,0,1.3,0.6,1.3,1.3v51.3c0,0.7-0.6,1.3-1.3,1.3h-16.7c7.4,4.4,13.5,9.3,18.1,13.5h1.4c6.7,0,12.1-5.4,12.1-12.1v-56.7
			C148-97,142.6-102.4,135.9-102.4z"/>
	</g>
	<g id="Bold-L" transform="matrix(1 0 0 1 2262.89 1556)">
		<path d="M48.7-61.2c0,4.7-3.9,8.5-8.5,8.5s-8.5-3.9-8.5-8.5s3.9-8.5,8.5-8.5S48.7-65.9,48.7-61.2z M85.6-61.2
			c0,4.7-3.9,8.5-8.5,8.5s-8.5-3.9-8.5-8.5s3.9-8.5,8.5-8.5S85.6-65.9,85.6-61.2z M122.7-61.2c0,4.7-3.9,8.5-8.5,8.5
			s-8.5-3.9-8.5-8.5s3.9-8.5,8.5-8.5S122.7-65.9,122.7-61.2z M77.1,30.5C58,30.5,42.5,15,42.5-4.1S58-38.6,77.1-38.6
			s34.6,15.5,34.6,34.6S96.2,30.5,77.1,30.5z M77.1-26.6c-12.4,0-22.6,10.1-22.6,22.6c0,12.4,10.1,22.6,22.6,22.6
			c12.4,0,22.6-10.1,22.6-22.6C99.7-16.5,89.5-26.6,77.1-26.6z M77.1,30.5C40.5,30.5,18.9,0.7,18-0.6c-1.6-2.2-1.5-5.1,0.2-7.2
			c1-1.3,25.1-30.8,58.9-30.8c33.7,0,57.9,29.5,58.9,30.8c1.7,2.1,1.8,5,0.2,7.2C135.3,0.7,113.7,30.5,77.1,30.5z M30.9-3.9
			c6.5,7.2,23,22.4,46.2,22.4c23.4,0,39.8-15.2,46.2-22.4c-7-7.2-24.7-22.7-46.2-22.7C55.6-26.6,37.9-11.1,30.9-3.9z M85.5-6.5
			c-3.3,0-5.9-2.7-5.9-5.9c0-2.1,1.1-3.9,2.7-4.9c-1.6-0.7-3.3-0.9-5.1-0.9C69.4-18.2,63-11.8,63-3.9s6.4,14.3,14.3,14.3
			S91.5,3.9,91.5-3.9c0-1.9-0.4-3.5-0.9-5.1C89.4-7.5,87.5-6.5,85.5-6.5z M134.2-101.1H20c-6.3,0-11.3,5.1-11.3,11.3v56.2
			c0,6.3,5.1,11.3,11.3,11.3h2.1c4.2-3.8,9.6-8.1,16.1-12H22c-0.7,0-1.3-0.6-1.3-1.3v-52.2c0-0.7,0.6-1.3,1.3-1.3h110.2
			c0.7,0,1.3,0.6,1.3,1.3v52.2c0,0.7-0.6,1.3-1.3,1.3h-16.1c6.5,3.9,11.9,8.3,16,12h2.1c6.3,0,11.3-5.1,11.3-11.3v-56.2
			C145.6-96,140.5-101.1,134.2-101.1z"/>
	</g>
	<g id="Semibold-L" transform="matrix(1 0 0 1 1966.99 1556)">
		<path d="M47.9-60.9c0,4.6-3.8,8.5-8.5,8.5S31-56.3,31-60.9s3.8-8.5,8.5-8.5S47.9-65.6,47.9-60.9z M84.6-60.9
			c0,4.6-3.8,8.5-8.5,8.5c-4.6,0-8.5-3.8-8.5-8.5s3.8-8.5,8.5-8.5C80.8-69.4,84.6-65.6,84.6-60.9z M121.3-60.9
			c0,4.6-3.8,8.5-8.5,8.5c-4.6,0-8.5-3.8-8.5-8.5s3.8-8.5,8.5-8.5C117.4-69.4,121.3-65.6,121.3-60.9z M76,29.2
			c-18.5,0-33.6-15.1-33.6-33.6c0-18.5,15.1-33.6,33.6-33.6c18.5,0,33.6,15.1,33.6,33.6C109.6,14.1,94.6,29.2,76,29.2z M76-27.4
			c-12.7,0-23,10.3-23,23c0,12.7,10.3,23,23,23c12.7,0,23-10.3,23-23C99-17.1,88.7-27.4,76-27.4z M76.2,29.2
			c-35.9,0-57.1-29.3-58-30.5c-1.4-1.9-1.3-4.5,0.2-6.4c1-1.2,24.7-30.3,57.8-30.3S133-8.9,134-7.7c1.5,1.8,1.6,4.4,0.2,6.4
			C133.3-0.1,112.1,29.2,76.2,29.2z M29.5-4.2c6.2,7,22.9,22.8,46.7,22.8s40.5-15.9,46.7-22.8c-6.7-7-24.7-23.2-46.7-23.2
			C54.2-27.4,36.2-11.2,29.5-4.2z M84.4-6.8c-3.3,0-5.8-2.6-5.8-5.8c0-2.1,1.1-3.8,2.6-4.9c-1.6-0.7-3.3-0.9-5-0.9
			C68.4-18.4,62-12,62-4.2S68.4,9.9,76.2,9.9c7.8,0,14.1-6.3,14.1-14.1c0-1.9-0.4-3.4-0.9-5C88.2-7.8,86.4-6.8,84.4-6.8z
			 M132.7-99.8H19.6C13.8-99.8,9-95.1,9-89.2v55.6C9-27.7,13.8-23,19.6-23h4.6c4-3.4,8.9-7.2,14.6-10.6H20.9c-0.7,0-1.3-0.6-1.3-1.3
			v-53c0-0.7,0.6-1.3,1.3-1.3h110.5c0.7,0,1.3,0.6,1.3,1.3l0,53c0,0.7-0.6,1.3-1.3,1.3h-18.1c5.7,3.4,10.7,7.2,14.6,10.6h4.8
			c5.8,0,10.6-4.7,10.6-10.6v-55.6C143.3-95.1,138.6-99.8,132.7-99.8z"/>
	</g>
	<g id="Medium-L" transform="matrix(1 0 0 1 1670.9 1556)">
		<path d="M47.6-60.7c0,4.6-3.8,8.4-8.4,8.4s-8.4-3.8-8.4-8.4s3.8-8.4,8.4-8.4C43.8-69.1,47.6-65.3,47.6-60.7z M84-60.7
			c0,4.6-3.8,8.4-8.4,8.4c-4.6,0-8.4-3.8-8.4-8.4s3.8-8.4,8.4-8.4C80.2-69.1,84-65.3,84-60.7z M120.3-60.7c0,4.6-3.8,8.4-8.4,8.4
			c-4.6,0-8.4-3.8-8.4-8.4s3.8-8.4,8.4-8.4C116.5-69.1,120.3-65.3,120.3-60.7z M75.5,27.9c-18,0-32.6-14.6-32.6-32.6
			c0-18,14.6-32.6,32.6-32.6s32.6,14.6,32.6,32.6C108.1,13.3,93.5,27.9,75.5,27.9z M75.5-28.1c-12.9,0-23.4,10.5-23.4,23.4
			s10.5,23.4,23.4,23.4S98.9,8.2,98.9-4.7S88.4-28.1,75.5-28.1z M75.6,27.9C40.4,27.8,19.7-0.8,18.8-2c-1.2-1.7-1.1-3.9,0.2-5.5
			c1-1.2,24.3-29.7,56.7-29.7c32.4,0,55.7,28.5,56.7,29.7c1.3,1.6,1.3,3.9,0.2,5.5C131.7-0.8,110.9,27.9,75.6,27.9z M28.5-4.5
			c5.9,6.7,22.8,23.2,47.1,23.3c24.3,0,41.2-16.5,47.1-23.3c-6.4-6.7-24.6-23.6-47.1-23.6C53.1-28.1,34.9-11.3,28.5-4.5z M83.8-7
			C80.5-7,78-9.6,78-12.8c0-2.1,1-3.8,2.6-4.8c-1.6-0.7-3.3-0.9-5-0.9c-7.7,0-14,6.3-14,14s6.3,14,14,14c7.7,0,14-6.3,14-14
			c0-1.8-0.4-3.4-0.9-5C87.6-8.1,85.9-7,83.8-7z M131.7-98.5h-112c-5.4,0-9.8,4.4-9.8,9.8v55.1c0,5.4,4.4,9.8,9.8,9.8h7.5
			c3.7-3,8.1-6.2,13.1-9.2H19.6c-0.3,0-0.7-0.3-0.7-0.7v-55.1c0-0.3,0.3-0.7,0.7-0.7h112c0.3,0,0.7,0.3,0.7,0.7v55.1
			c0,0.3-0.3,0.7-0.7,0.7H111c5,2.9,9.5,6.1,13.2,9.2h7.5c5.4,0,9.8-4.4,9.8-9.8v-55.1C141.5-94.1,137.1-98.5,131.7-98.5z"/>
	</g>
	<g id="Regular-L" transform="matrix(1 0 0 1 1374.99 1556)">
		<path d="M47.1-60.4c0,4.5-3.8,8.3-8.3,8.3s-8.3-3.8-8.3-8.3s3.8-8.3,8.3-8.3S47.1-65,47.1-60.4z M83.1-60.4c0,4.5-3.8,8.3-8.3,8.3
			c-4.5,0-8.3-3.8-8.3-8.3s3.8-8.3,8.3-8.3C79.4-68.7,83.1-65,83.1-60.4z M119-60.4c0,4.5-3.8,8.3-8.3,8.3c-4.5,0-8.3-3.8-8.3-8.3
			s3.8-8.3,8.3-8.3C115.2-68.7,119-65,119-60.4z M74.7,26.6C57.3,26.6,43.1,12.4,43.1-5s14.2-31.6,31.6-31.6S106.3-22.4,106.3-5
			S92.1,26.6,74.7,26.6z M74.7-28.8C61.6-28.8,50.9-18.1,50.9-5c0,13.1,10.7,23.8,23.8,23.8S98.5,8.2,98.5-5
			C98.5-18.1,87.8-28.8,74.7-28.8z M74.8,26.6C40.3,26.5,19.9-1.5,19.1-2.7c-1-1.4-1-3.3,0.1-4.7c1-1.2,23.8-29.2,55.6-29.2
			c31.8,0,54.7,28,55.6,29.2c1.1,1.4,1.1,3.3,0.1,4.7C129.7-1.5,109.3,26.6,74.8,26.6z M27.3-4.9C32.8,1.6,50,18.8,74.8,18.8
			c25,0,42-17.3,47.5-23.7c-6-6.4-24.5-24-47.5-24C51.8-28.8,33.3-11.3,27.3-4.9z M82.9-7.3c-3.2,0-5.7-2.6-5.7-5.7
			c0-2.1,1-3.8,2.6-4.8c-1.6-0.6-3.2-0.9-4.9-0.9C67.2-18.7,61-12.5,61-4.9S67.2,9,74.8,9c7.6,0,13.9-6.2,13.9-13.9
			c0-1.8-0.4-3.4-0.9-4.9C86.6-8.4,84.9-7.3,82.9-7.3z M130.3-97.2H19.4c-5,0-9.1,4.1-9.1,9.1v54.5c0,5,4.1,9.1,9.1,9.1h10.3
			c3.4-2.6,7.2-5.3,11.6-7.8H19.4c-0.7,0-1.3-0.6-1.3-1.3v-54.5c0-0.7,0.6-1.3,1.3-1.3h110.9c0.7,0,1.3,0.6,1.3,1.3v54.5
			c0,0.7-0.6,1.3-1.3,1.3h-21.9c4.3,2.5,8.2,5.1,11.6,7.8h10.3c5,0,9.1-4.1,9.1-9.1v-54.5C139.3-93.2,135.3-97.2,130.3-97.2z"/>
	</g>
	<g id="Light-L" transform="matrix(1 0 0 1 1079.2 1556)">
		<path d="M46.7-60.2c0,4.5-3.7,8.2-8.2,8.2s-8.2-3.7-8.2-8.2s3.7-8.2,8.2-8.2S46.7-64.7,46.7-60.2z M82.2-60.2
			c0,4.5-3.7,8.2-8.2,8.2s-8.2-3.7-8.2-8.2s3.7-8.2,8.2-8.2S82.2-64.7,82.2-60.2z M117.8-60.2c0,4.5-3.7,8.2-8.2,8.2
			s-8.2-3.7-8.2-8.2s3.7-8.2,8.2-8.2S117.8-64.7,117.8-60.2z M74,25.3c-16.9,0-30.6-13.7-30.6-30.6c0-16.9,13.7-30.6,30.6-30.6
			s30.6,13.7,30.6,30.6C104.6,11.6,90.9,25.3,74,25.3z M74-29.5c-13.4,0-24.2,10.9-24.2,24.2c0,13.4,10.9,24.2,24.2,24.2
			S98.2,8.1,98.2-5.3C98.2-18.7,87.3-29.5,74-29.5z M74,25.3c-33.8,0-53.8-27.6-54.7-28.8c-0.8-1.2-0.8-2.7,0.1-3.9
			C20.4-8.5,42.8-35.9,74-35.9s53.6,27.5,54.5,28.6c0.9,1.1,0.9,2.7,0.1,3.9C127.8-2.3,107.8,25.3,74,25.3z M26.1-5.2
			C31.2,0.9,48.5,18.9,74,18.9s42.8-18.1,47.9-24.1c-5.5-6-24.3-24.3-47.9-24.3C50.4-29.5,31.7-11.2,26.1-5.2z M82.1-7.6
			c-3.2,0-5.6-2.6-5.6-5.6c0-2.1,1-3.7,2.6-4.7c-1.5-0.6-3.2-0.9-4.9-0.9c-7.6,0-13.7,6.2-13.7,13.7S66.6,8.5,74.1,8.5
			S87.8,2.4,87.8-5.2c0-1.8-0.4-3.3-0.9-4.9C85.8-8.6,84-7.6,82.1-7.6z M128.9-95.9H19.1c-4.6,0-8.3,3.7-8.3,8.3v54
			c0,4.6,3.7,8.3,8.3,8.3h11.1c2.8-2.2,6-4.4,9.5-6.4H19.1c-1,0-1.9-0.9-1.9-1.9v-54c0-1,0.9-1.9,1.9-1.9h109.7c1,0,1.9,0.9,1.9,1.9
			v54c0,1-0.7,1.9-1.9,1.9h-20.5c3.5,2,6.7,4.2,9.5,6.4h11c4.7,0,8.3-3.7,8.3-8.3v-54C137.2-92.2,133.4-95.9,128.9-95.9z"/>
	</g>
	<g id="Thin-L" transform="matrix(1 0 0 1 783.716 1556)">
		<path d="M45.6-59.9c0,4.4-3.7,8.1-8.1,8.1s-8.1-3.7-8.1-8.1S33-68,37.5-68C42-68,45.6-64.3,45.6-59.9z M80.8-59.9
			c0,4.4-3.7,8.1-8.1,8.1c-4.4,0-8.1-3.7-8.1-8.1s3.7-8.1,8.1-8.1C77.1-68,80.8-64.3,80.8-59.9z M116.1-59.9c0,4.4-3.7,8.1-8.1,8.1
			c-4.4,0-8.1-3.7-8.1-8.1s3.7-8.1,8.1-8.1C112.4-68,116.1-64.3,116.1-59.9z M72.7,24C56.4,24,43,10.7,43-5.6
			C43-22,56.4-35.3,72.7-35.3S102.4-22,102.4-5.6C102.4,10.7,89.1,24,72.7,24z M72.7-30.2c-13.6,0-24.6,11-24.6,24.6
			S59.1,19,72.7,19s24.6-11,24.6-24.6S86.3-30.2,72.7-30.2z M72.7,24C39.6,24,20-3,19.2-4.2c-0.7-0.9-0.6-2.2,0.1-3.1
			c0.9-1.1,22.9-28.1,53.5-28.1s52.5,26.9,53.5,28.1c0.7,0.9,0.7,2.1,0.1,3.1C125.4-3,105.8,24,72.7,24z M24.5-5.5
			C29.1,0.1,46.6,19,72.7,19c26.1,0,43.6-18.9,48.2-24.5c-5-5.6-24.1-24.7-48.2-24.7C48.6-30.2,29.6-11.1,24.5-5.5z M80.6-7.9
			c-3.2,0-5.6-2.5-5.6-5.6c0-2,1-3.7,2.5-4.7c-1.5-0.6-3.2-0.9-4.8-0.9c-7.5,0-13.6,6.1-13.6,13.6S65.2,8.1,72.7,8.1
			c7.5,0,13.6-6.1,13.6-13.6c0-1.8-0.4-3.3-0.9-4.8C84.4-8.9,82.6-7.9,80.6-7.9z M127-94.6H18.4c-4.2,0-7.6,3.4-7.6,7.6v53.4
			c0,4.2,3.4,7.6,7.6,7.6h13.8c2.4-1.7,5-3.5,7.9-5.1H18.4c-1.4,0-2.5-1.1-2.5-2.5V-87c0-1.4,1.1-2.5,2.5-2.5H127
			c1.4,0,2.5,1.1,2.5,2.5v53.4c0,1.4-1.1,2.5-2.5,2.5h-21.7c2.8,1.6,5.5,3.3,7.9,5.1H127c4.2,0,7.6-3.4,7.6-7.6V-87
			C134.6-91.2,131.2-94.6,127-94.6z"/>
	</g>
	<g id="Ultralight-L" transform="matrix(1 0 0 1 487.631 1556)">
		<path d="M44.2-59.6c0,4.4-3.6,8-8,8s-8-3.6-8-8s3.6-8,8-8S44.2-64,44.2-59.6z M79.1-59.6c0,4.4-3.6,8-8,8c-4.4,0-8-3.6-8-8
			s3.6-8,8-8C75.4-67.6,79.1-64,79.1-59.6z M113.8-59.6c0,4.4-3.6,8-8,8c-4.4,0-8-3.6-8-8s3.6-8,8-8C110.3-67.6,113.8-64,113.8-59.6
			z M70.9,22.8C55.1,22.8,42.2,9.9,42.2-6s12.9-28.7,28.7-28.7S99.6-21.8,99.6-6S86.8,22.8,70.9,22.8z M70.9-30.9
			c-13.8,0-25,11.2-25,25S57.2,19,70.9,19s25-11.2,25-24.9S84.7-30.9,70.9-30.9z M124.7-93.3H17.4c-3.8,0-6.9,3.1-6.9,6.9v52.8
			c0,3.8,3.1,6.9,6.9,6.9h16.8c1.9-1.3,4-2.6,6.1-3.8H17.4c-1.7,0-3.1-1.4-3.1-3.1v-52.8c0-1.7,1.4-3.1,3.1-3.1h107.3
			c1.7,0,3.1,1.4,3.1,3.1v52.8c0,1.7-1.4,3.1-3.1,3.1h-23c2.2,1.2,4.2,2.5,6.1,3.8h16.8c3.8,0,6.9-3.1,6.9-6.9v-52.8
			C131.6-90.3,128.5-93.3,124.7-93.3z M71,22.8c-32.4,0-51.6-26.5-52.4-27.6c-0.5-0.7-0.5-1.6,0.1-2.3C19.6-8.3,41.2-34.7,71-34.7
			s51.5,26.4,52.4,27.5c0.5,0.7,0.6,1.6,0.1,2.3C122.7-3.7,103.5,22.8,71,22.8z M22.6-5.9C26.6-0.9,44.3,19,71,19
			c26.8,0,44.4-19.8,48.5-24.9c-4.4-5-23.8-25-48.5-25C46.4-30.9,27-10.9,22.6-5.9z M78.8-8.2c-3.1,0-5.5-2.5-5.5-5.5
			c0-2,1-3.6,2.5-4.6c-1.5-0.6-3.1-0.9-4.8-0.9c-7.4,0-13.4,6-13.4,13.4S63.7,7.6,71,7.6s13.4-6,13.4-13.4c0-1.8-0.4-3.3-0.9-4.8
			C82.5-9.2,80.8-8.2,78.8-8.2z"/>
	</g>
	<g id="Black-M" transform="matrix(1 0 0 1 2871.36 1126)">
		<path d="M39.5-55.7c0,3.7-3.1,6.7-6.7,6.7C29-49,26-52.1,26-55.7c0-3.7,3.1-6.7,6.7-6.7C36.4-62.5,39.5-59.4,39.5-55.7z
			 M68.7-55.7c0,3.7-3.1,6.7-6.7,6.7c-3.7,0-6.7-3.1-6.7-6.7c0-3.7,3.1-6.7,6.7-6.7C65.7-62.5,68.7-59.4,68.7-55.7z M98-55.7
			c0,3.7-3.1,6.7-6.7,6.7c-3.7,0-6.7-3.1-6.7-6.7c0-3.7,3.1-6.7,6.7-6.7C95-62.5,98-59.4,98-55.7z M62,17.7
			C46.4,17.7,33.7,5,33.7-10.6C33.7-26.3,46.4-39,62-39c15.6,0,28.3,12.7,28.3,28.3C90.3,5,77.6,17.7,62,17.7z M62-27.4
			c-9.2,0-16.8,7.5-16.8,16.8c0,9.2,7.5,16.8,16.8,16.8c9.2,0,16.8-7.5,16.8-16.8C78.8-19.9,71.2-27.4,62-27.4z M62,17.7
			c-29.4,0-46.8-24-47.5-25c-1.5-2.1-1.4-5,0.2-7C15.5-15.3,34.9-39,62-39c27.1,0,46.5,23.7,47.3,24.7c1.6,2,1.7,4.9,0.2,7
			C108.8-6.3,91.4,17.7,62,17.7z M27-10.5C32.4-4.7,44.8,6.1,62,6.1c17.2,0,29.6-10.8,35-16.6c-5.8-5.8-19.1-16.9-35-16.9
			C46.1-27.4,32.8-16.3,27-10.5z M68.5-12.5c-2.6,0-4.6-2.1-4.6-4.6c0-1.7,0.8-3.1,2.1-3.9c-1.3-0.5-2.6-0.7-4-0.7
			c-6.2,0-11.3,5.1-11.3,11.3S55.8,0.7,62,0.7s11.3-5.1,11.3-11.3c0-1.5-0.3-2.7-0.7-4C71.7-13.4,70.2-12.5,68.5-12.5z M117.1-33.9
			v-44.4c0-5.5-4.5-10-10-10H16.9c-5.5,0-10,4.5-10,10v44.4c0,5.5,4.5,10,10,10h0.5c3.8-3.5,9.1-7.9,15.6-11.6H19.5
			c-0.6,0-1.1-0.5-1.1-1.1v-39.1c0-0.6,0.5-1.1,1.1-1.1h84.9c0.6,0,1.1,0.5,1.1,1.1v39.1c0,0.6-0.5,1.1-1.1,1.1H91
			c6.5,3.7,11.8,8.1,15.6,11.6h0.6C112.6-23.9,117.1-28.4,117.1-33.9z"/>
	</g>
	<g id="Heavy-M" transform="matrix(1 0 0 1 2575.48 1126)">
		<path d="M39-55.6c0,3.7-3,6.7-6.7,6.7s-6.7-3-6.7-6.7s3-6.7,6.7-6.7S39-59.2,39-55.6z M67.9-55.6c0,3.7-3,6.7-6.7,6.7
			c-3.7,0-6.7-3-6.7-6.7s3-6.7,6.7-6.7C64.9-62.2,67.9-59.2,67.9-55.6z M96.9-55.6c0,3.7-3,6.7-6.7,6.7s-6.7-3-6.7-6.7
			s3-6.7,6.7-6.7S96.9-59.2,96.9-55.6z M61.2,16.7C46,16.7,33.6,4.3,33.6-10.9c0-15.2,12.4-27.6,27.6-27.6s27.6,12.4,27.6,27.6
			C88.8,4.3,76.4,16.7,61.2,16.7z M61.2-28c-9.4,0-17.1,7.7-17.1,17.1S51.8,6.3,61.2,6.3s17.1-7.7,17.1-17.1S70.6-28,61.2-28z
			 M61.2,16.7c-28.9,0-45.9-23.5-46.7-24.5c-1.4-1.9-1.3-4.5,0.2-6.3c0.8-1,19.8-24.3,46.5-24.3s45.7,23.3,46.5,24.3
			c1.5,1.8,1.5,4.4,0.2,6.3C107.1-6.8,90.1,16.7,61.2,16.7z M25.7-10.7C31-5,43.6,6.3,61.2,6.3c17.6,0,30.2-11.3,35.5-17
			C91-16.4,77.5-28,61.2-28C44.8-28,31.4-16.4,25.7-10.7z M67.7-12.7c-2.6,0-4.6-2.1-4.6-4.6c0-1.7,0.8-3,2.1-3.9
			c-1.3-0.5-2.6-0.7-4-0.7c-6.2,0-11.2,5-11.2,11.2S55,0.4,61.2,0.4s11.2-5,11.2-11.2c0-1.5-0.3-2.7-0.7-4
			C70.8-13.6,69.3-12.7,67.7-12.7z M105.9-87.3H16.5c-5.2,0-9.4,4.2-9.4,9.4v44c0,5.2,4.2,9.4,9.4,9.4h1.1c3.5-3.2,8.3-7.1,14-10.4
			h-13c-0.6,0-1-0.5-1-1v-39.8c0-0.6,0.5-1,1-1h85.2c0.6,0,1,0.5,1,1V-36c0,0.6-0.5,1-1,1h-13c5.8,3.4,10.5,7.2,14,10.4h1.1
			c5.2,0,9.4-4.2,9.4-9.4v-44C115.3-83.1,111.1-87.3,105.9-87.3z"/>
	</g>
	<g id="Bold-M" transform="matrix(1 0 0 1 2279.69 1126)">
		<path d="M38.3-55.4c0,3.6-3,6.6-6.6,6.6s-6.6-3-6.6-6.6c0-3.6,3-6.6,6.6-6.6S38.3-59,38.3-55.4z M66.9-55.4c0,3.6-3,6.6-6.6,6.6
			s-6.6-3-6.6-6.6c0-3.6,3-6.6,6.6-6.6S66.9-59,66.9-55.4z M95.7-55.4c0,3.6-3,6.6-6.6,6.6s-6.6-3-6.6-6.6c0-3.6,3-6.6,6.6-6.6
			S95.7-59,95.7-55.4z M60.3,15.7c-14.8,0-26.8-12-26.8-26.8s12-26.8,26.8-26.8s26.8,12,26.8,26.8S75.1,15.7,60.3,15.7z M60.3-28.6
			c-9.6,0-17.5,7.8-17.5,17.5c0,9.6,7.8,17.5,17.5,17.5c9.6,0,17.5-7.8,17.5-17.5C77.8-20.7,69.9-28.6,60.3-28.6z M60.3,15.7
			c-28.4,0-45.1-23.1-45.8-24.1c-1.2-1.7-1.1-4,0.2-5.6c0.8-1,19.5-23.9,45.6-23.9c26.1,0,44.8,22.9,45.6,23.9
			c1.3,1.6,1.4,3.9,0.2,5.6C105.4-7.4,88.7,15.7,60.3,15.7z M24.5-11c5,5.6,17.8,17.3,35.8,17.3c18.1,0,30.8-11.8,35.8-17.3
			C90.7-16.5,77-28.6,60.3-28.6C43.6-28.6,29.9-16.5,24.5-11z M66.8-13c-2.6,0-4.6-2.1-4.6-4.6c0-1.7,0.8-3,2.1-3.8
			c-1.2-0.5-2.6-0.7-3.9-0.7c-6.1,0-11.1,5-11.1,11.1s5,11.1,11.1,11.1s11.1-5,11.1-11.1c0-1.4-0.3-2.7-0.7-3.9
			C69.8-13.8,68.4-13,66.8-13z M104.6-86.3H16c-4.9,0-8.8,3.9-8.8,8.8V-34c0,4.9,3.9,8.8,8.8,8.8h1.6c3.2-2.9,7.4-6.3,12.5-9.3H17.6
			c-0.6,0-1-0.5-1-1V-76c0-0.6,0.5-1,1-1H103c0.6,0,1,0.5,1,1v40.4c0,0.6-0.5,1-1,1H90.6c5,3,9.2,6.4,12.4,9.3h1.6
			c4.9,0,8.8-3.9,8.8-8.8v-43.6C113.4-82.4,109.4-86.3,104.6-86.3z"/>
	</g>
	<g id="Semibold-M" transform="matrix(1 0 0 1 1983.62 1126)">
		<path d="M37.6-55.2c0,3.6-3,6.6-6.6,6.6s-6.6-3-6.6-6.6c0-3.6,3-6.6,6.6-6.6S37.6-58.8,37.6-55.2z M66.1-55.2c0,3.6-3,6.6-6.6,6.6
			c-3.6,0-6.6-3-6.6-6.6c0-3.6,3-6.6,6.6-6.6C63.1-61.7,66.1-58.8,66.1-55.2z M94.5-55.2c0,3.6-3,6.6-6.6,6.6c-3.6,0-6.6-3-6.6-6.6
			c0-3.6,3-6.6,6.6-6.6C91.5-61.7,94.5-58.8,94.5-55.2z M59.4,14.7c-14.4,0-26-11.7-26-26c0-14.4,11.7-26,26-26
			c14.3,0,26,11.7,26,26C85.5,3,73.8,14.7,59.4,14.7z M59.4-29.2c-9.8,0-17.8,8-17.8,17.8c0,9.8,8,17.8,17.8,17.8
			c9.8,0,17.8-8,17.8-17.8C77.3-21.2,69.3-29.2,59.4-29.2z M59.5,14.7C31.7,14.7,15.3-8,14.6-9c-1.1-1.5-1-3.5,0.1-4.9
			c0.8-1,19.1-23.5,44.8-23.5s44,22.5,44.8,23.5c1.1,1.4,1.2,3.4,0.1,4.9C103.8-8,87.4,14.7,59.5,14.7z M23.4-11.2
			C28.2-5.8,41.1,6.5,59.5,6.5S90.9-5.8,95.7-11.2c-5.2-5.4-19.1-18-36.2-18C42.5-29.2,28.6-16.6,23.4-11.2z M65.9-13.2
			c-2.6,0-4.5-2-4.5-4.5c0-1.6,0.8-3,2-3.8c-1.2-0.5-2.6-0.7-3.9-0.7c-6,0-11,4.9-11,11s4.9,11,11,11c6,0,11-4.9,11-11
			c0-1.4-0.3-2.7-0.7-3.9C68.9-14,67.4-13.2,65.9-13.2z M103.4-85.3H15.7c-4.5,0-8.2,3.7-8.2,8.2V-34c0,4.5,3.7,8.2,8.2,8.2h3.5
			c3.1-2.6,6.9-5.6,11.3-8.2H16.7c-0.6,0-1-0.5-1-1v-41.1c0-0.6,0.5-1,1-1h85.7c0.6,0,1,0.5,1,1l0,41.1c0,0.6-0.5,1-1,1H88.3
			c4.4,2.6,8.3,5.5,11.3,8.2h3.7c4.5,0,8.2-3.7,8.2-8.2v-43.1C111.6-81.6,107.9-85.3,103.4-85.3z"/>
	</g>
	<g id="Medium-M" transform="matrix(1 0 0 1 1687.4 1126)">
		<path d="M37.4-55c0,3.6-2.9,6.5-6.5,6.5s-6.5-2.9-6.5-6.5s2.9-6.5,6.5-6.5C34.5-61.5,37.4-58.5,37.4-55z M65.6-55
			c0,3.6-2.9,6.5-6.5,6.5s-6.5-2.9-6.5-6.5s2.9-6.5,6.5-6.5S65.6-58.5,65.6-55z M93.7-55c0,3.6-2.9,6.5-6.5,6.5
			c-3.6,0-6.5-2.9-6.5-6.5s2.9-6.5,6.5-6.5C90.8-61.5,93.7-58.5,93.7-55z M59,13.7c-13.9,0-25.3-11.3-25.3-25.3
			c0-13.9,11.3-25.3,25.3-25.3s25.3,11.3,25.3,25.3C84.3,2.4,73,13.7,59,13.7z M59-29.7c-10,0-18.2,8.1-18.2,18.2S49,6.6,59,6.6
			s18.2-8.1,18.2-18.2S69.1-29.7,59-29.7z M59.1,13.7C31.9,13.6,15.7-8.6,15.1-9.5c-0.9-1.3-0.9-3,0.1-4.3c0.8-0.9,18.8-23,44-23
			c25.2,0,43.2,22.1,44,23c1,1.2,1,3,0.1,4.3C102.6-8.6,86.4,13.7,59.1,13.7z M22.6-11.5c4.6,5.2,17.7,18,36.5,18.1
			c18.8,0,32-12.8,36.5-18c-4.9-5.2-19.1-18.3-36.5-18.3C41.7-29.7,27.6-16.7,22.6-11.5z M65.4-13.4c-2.5,0-4.5-2-4.5-4.5
			c0-1.6,0.8-2.9,2-3.8c-1.2-0.5-2.5-0.7-3.9-0.7c-6,0-10.9,4.9-10.9,10.9S53.2-0.6,59.1-0.6c6,0,10.9-4.9,10.9-10.9
			c0-1.4-0.3-2.6-0.7-3.9C68.4-14.2,67.1-13.4,65.4-13.4z M102.6-84.3H15.7c-4.2,0-7.6,3.4-7.6,7.6V-34c0,4.2,3.4,7.6,7.6,7.6h5.8
			c2.9-2.4,6.3-4.8,10.2-7.1h-16c-0.3,0-0.5-0.2-0.5-0.5v-42.7c0-0.3,0.2-0.5,0.5-0.5h86.8c0.3,0,0.5,0.2,0.5,0.5V-34
			c0,0.3-0.2,0.5-0.5,0.5h-16c3.9,2.3,7.3,4.7,10.2,7.1h5.8c4.2,0,7.6-3.4,7.6-7.6v-42.7C110.2-80.9,106.8-84.3,102.6-84.3z"/>
	</g>
	<g id="Regular-M" transform="matrix(1 0 0 1 1391.32 1126)">
		<path d="M37-54.8c0,3.5-2.9,6.4-6.4,6.4s-6.4-2.9-6.4-6.4c0-3.5,2.9-6.4,6.4-6.4S37-58.3,37-54.8z M64.9-54.8
			c0,3.5-2.9,6.4-6.4,6.4c-3.5,0-6.4-2.9-6.4-6.4c0-3.5,2.9-6.4,6.4-6.4C62-61.2,64.9-58.3,64.9-54.8z M92.7-54.8
			c0,3.5-2.9,6.4-6.4,6.4c-3.5,0-6.4-2.9-6.4-6.4c0-3.5,2.9-6.4,6.4-6.4C89.8-61.2,92.7-58.3,92.7-54.8z M58.4,12.7
			c-13.5,0-24.5-11-24.5-24.5s11-24.5,24.5-24.5s24.5,11,24.5,24.5S71.9,12.7,58.4,12.7z M58.4-30.3c-10.2,0-18.5,8.3-18.5,18.5
			c0,10.2,8.3,18.5,18.5,18.5s18.5-8.3,18.5-18.5C76.9-22,68.6-30.3,58.4-30.3z M58.5,12.7C31.7,12.6,15.9-9.1,15.3-10.1
			c-0.8-1.1-0.7-2.6,0.1-3.6c0.7-0.9,18.5-22.6,43.1-22.6c24.7,0,42.4,21.7,43.1,22.6c0.8,1,0.9,2.5,0.1,3.6
			C101.1-9.1,85.3,12.7,58.5,12.7z M21.7-11.7C26-6.7,39.2,6.6,58.5,6.7c19.4,0,32.6-13.4,36.8-18.4c-4.6-5-19-18.6-36.8-18.6
			C40.7-30.3,26.3-16.7,21.7-11.7z M64.7-13.6c-2.5,0-4.4-2-4.4-4.4c0-1.6,0.8-2.9,2-3.7c-1.2-0.5-2.5-0.7-3.8-0.7
			c-5.9,0-10.7,4.8-10.7,10.7S52.6-1,58.5-1c5.9,0,10.7-4.8,10.7-10.7c0-1.4-0.3-2.6-0.7-3.8C67.6-14.4,66.3-13.6,64.7-13.6z
			 M101.5-83.3h-86c-3.9,0-7,3.2-7,7V-34c0,3.9,3.2,7,7,7h8c2.6-2,5.6-4.1,9-6h-17c-0.5,0-1-0.5-1-1v-42.3c0-0.5,0.5-1,1-1h86
			c0.5,0,1,0.5,1,1V-34c0,0.5-0.5,1-1,1h-17c3.4,1.9,6.4,4,9,6h8c3.9,0,7-3.2,7-7v-42.3C108.5-80.1,105.4-83.3,101.5-83.3z"/>
	</g>
	<g id="Light-M" transform="matrix(1 0 0 1 1095.44 1126)">
		<path d="M36.6-54.6c0,3.5-2.9,6.4-6.4,6.4s-6.4-2.9-6.4-6.4c0-3.5,2.9-6.4,6.4-6.4S36.6-58.1,36.6-54.6z M64.1-54.6
			c0,3.5-2.9,6.4-6.4,6.4c-3.5,0-6.4-2.9-6.4-6.4c0-3.5,2.9-6.4,6.4-6.4C61.2-60.9,64.1-58.1,64.1-54.6z M91.7-54.6
			c0,3.5-2.9,6.4-6.4,6.4c-3.5,0-6.4-2.9-6.4-6.4c0-3.5,2.9-6.4,6.4-6.4C88.9-60.9,91.7-58.1,91.7-54.6z M57.8,11.7
			C44.7,11.7,34,1,34-12c0-13.1,10.7-23.7,23.7-23.7S81.5-25.1,81.5-12C81.5,1,70.8,11.7,57.8,11.7z M57.8-30.8
			C47.4-30.8,39-22.4,39-12C39-1.7,47.4,6.7,57.8,6.7S76.5-1.7,76.5-12C76.5-22.4,68.1-30.8,57.8-30.8z M57.8,11.7
			C31.5,11.7,16-9.7,15.4-10.6c-0.6-0.9-0.6-2.1,0.1-3c0.7-0.9,18.1-22.2,42.3-22.2S99.3-14.5,100-13.6c0.7,0.9,0.7,2.1,0.1,3
			C99.5-9.7,84,11.7,57.8,11.7z M20.6-12C24.6-7.3,38,6.7,57.8,6.7S90.9-7.3,94.9-12C90.6-16.6,76-30.8,57.8-30.8
			C39.5-30.8,24.9-16.6,20.6-12z M64-13.8c-2.5,0-4.4-2-4.4-4.4c0-1.6,0.8-2.9,2-3.7c-1.2-0.5-2.5-0.7-3.8-0.7
			c-5.9,0-10.6,4.8-10.6,10.6S52-1.3,57.8-1.3s10.6-4.8,10.6-10.6c0-1.4-0.3-2.6-0.7-3.8C66.9-14.6,65.5-13.8,64-13.8z M100.3-82.3
			H15.2c-3.6,0-6.5,2.9-6.5,6.5V-34c0,3.6,2.9,6.5,6.5,6.5h8.6c2.2-1.7,4.7-3.4,7.4-5h-16c-0.8,0-1.5-0.7-1.5-1.5v-41.8
			c0-0.8,0.7-1.5,1.5-1.5h85.1c0.8,0,1.5,0.7,1.5,1.5V-34c0,0.7-0.5,1.5-1.5,1.5H84.4c2.7,1.6,5.2,3.3,7.4,5h8.5
			c3.6,0,6.5-2.8,6.5-6.5v-41.8C106.7-79.4,103.8-82.3,100.3-82.3z"/>
	</g>
	<g id="Thin-M" transform="matrix(1 0 0 1 799.828 1126)">
		<path d="M35.6-54.4c0,3.4-2.9,6.3-6.3,6.3S23-50.9,23-54.4c0-3.4,2.9-6.3,6.3-6.3C32.8-60.7,35.6-57.8,35.6-54.4z M62.9-54.4
			c0,3.4-2.9,6.3-6.3,6.3c-3.4,0-6.3-2.9-6.3-6.3c0-3.4,2.9-6.3,6.3-6.3C60-60.7,62.9-57.8,62.9-54.4z M90.2-54.4
			c0,3.4-2.9,6.3-6.3,6.3c-3.4,0-6.3-2.9-6.3-6.3c0-3.4,2.9-6.3,6.3-6.3C87.4-60.7,90.2-57.8,90.2-54.4z M56.6,10.7
			c-12.7,0-23-10.3-23-23c0-12.7,10.3-23,23-23s23,10.3,23,23C79.6,0.4,69.3,10.7,56.6,10.7z M56.6-31.4c-10.5,0-19.1,8.6-19.1,19.1
			S46.1,6.8,56.6,6.8s19.1-8.6,19.1-19.1S67.1-31.4,56.6-31.4z M56.6,10.7c-25.7,0-40.9-21-41.5-21.9c-0.5-0.7-0.5-1.7,0.1-2.4
			c0.7-0.9,17.8-21.8,41.4-21.8S97.3-14.4,98-13.5c0.6,0.7,0.6,1.7,0.1,2.4C97.5-10.3,82.3,10.7,56.6,10.7z M19.2-12.2
			c3.6,4.4,17.1,19,37.4,19c20.3,0,33.8-14.6,37.4-19c-3.9-4.3-18.7-19.1-37.4-19.1C37.9-31.4,23.2-16.6,19.2-12.2z M62.7-14.1
			c-2.5,0-4.3-2-4.3-4.3c0-1.6,0.8-2.9,2-3.6c-1.2-0.5-2.5-0.7-3.7-0.7c-5.8,0-10.5,4.7-10.5,10.5S50.8-1.7,56.6-1.7
			s10.5-4.7,10.5-10.5c0-1.4-0.3-2.6-0.7-3.7C65.6-14.9,64.3-14.1,62.7-14.1z M98.7-81.3H14.5c-3.3,0-5.9,2.6-5.9,5.9V-34
			c0,3.3,2.6,5.9,5.9,5.9h10.7c1.9-1.3,3.9-2.7,6.1-3.9H14.5c-1.1,0-2-0.9-2-2v-41.4c0-1.1,0.9-2,2-2h84.1c1.1,0,2,0.9,2,2V-34
			c0,1.1-0.9,2-2,2H81.8c2.2,1.3,4.2,2.6,6.1,3.9h10.7c3.3,0,5.9-2.6,5.9-5.9v-41.4C104.6-78.7,101.9-81.3,98.7-81.3z"/>
	</g>
	<g id="Ultralight-M" transform="matrix(1 0 0 1 503.679 1126)">
		<path d="M34.2-54.2c0,3.4-2.8,6.2-6.2,6.2s-6.2-2.8-6.2-6.2c0-3.4,2.8-6.2,6.2-6.2S34.2-57.6,34.2-54.2z M61.2-54.2
			c0,3.4-2.8,6.2-6.2,6.2c-3.4,0-6.2-2.8-6.2-6.2c0-3.4,2.8-6.2,6.2-6.2C58.4-60.4,61.2-57.6,61.2-54.2z M88.1-54.2
			c0,3.4-2.8,6.2-6.2,6.2s-6.2-2.8-6.2-6.2c0-3.4,2.8-6.2,6.2-6.2C85.4-60.4,88.1-57.6,88.1-54.2z M54.9,9.7
			c-12.3,0-22.3-10-22.3-22.3s10-22.3,22.3-22.3s22.3,10,22.3,22.3S67.2,9.7,54.9,9.7z M54.9-31.9c-10.7,0-19.3,8.7-19.3,19.3
			S44.2,6.8,54.9,6.8s19.3-8.7,19.3-19.3S65.6-31.9,54.9-31.9z M96.6-80.3H13.4c-2.9,0-5.3,2.4-5.3,5.3V-34c0,2.9,2.4,5.3,5.3,5.3
			h13c1.5-1,3.1-2,4.8-2.9H13.4c-1.3,0-2.4-1.1-2.4-2.4V-75c0-1.3,1.1-2.4,2.4-2.4h83.2c1.3,0,2.4,1.1,2.4,2.4V-34
			c0,1.3-1.1,2.4-2.4,2.4H78.8c1.7,0.9,3.3,1.9,4.8,2.9h13.1c2.9,0,5.3-2.4,5.3-5.3V-75C101.9-77.9,99.5-80.3,96.6-80.3z M55,9.7
			c-25.2,0-40-20.5-40.6-21.4C14-12.2,14-13,14.4-13.5c0.7-0.9,17.4-21.3,40.6-21.3s39.9,20.5,40.6,21.3c0.4,0.5,0.4,1.2,0.1,1.8
			C95-10.8,80.2,9.7,55,9.7z M17.4-12.5C20.6-8.6,34.3,6.8,55,6.8c20.8,0,34.4-15.4,37.6-19.3C89.1-16.4,74.1-31.9,55-31.9
			C35.9-31.9,20.9-16.4,17.4-12.5z M61-14.3c-2.4,0-4.3-1.9-4.3-4.3c0-1.6,0.8-2.8,1.9-3.6c-1.2-0.5-2.4-0.7-3.7-0.7
			c-5.7,0-10.4,4.7-10.4,10.4S49.3-2.1,55-2.1s10.4-4.7,10.4-10.4c0-1.4-0.3-2.5-0.7-3.7C63.8-15.1,62.6-14.3,61-14.3z"/>
	</g>
	<g id="Black-S" transform="matrix(1 0 0 1 2884.57 696)">
		<path d="M31.1-51.2c0,2.9-2.4,5.3-5.3,5.3s-5.3-2.4-5.3-5.3c0-2.9,2.4-5.3,5.3-5.3S31.1-54.1,31.1-51.2z M54.1-51.2
			c0,2.9-2.4,5.3-5.3,5.3c-2.9,0-5.3-2.4-5.3-5.3c0-2.9,2.4-5.3,5.3-5.3C51.7-56.5,54.1-54.1,54.1-51.2z M77-51.2
			c0,2.9-2.4,5.3-5.3,5.3c-2.9,0-5.3-2.4-5.3-5.3c0-2.9,2.4-5.3,5.3-5.3C74.6-56.5,77-54.1,77-51.2z M48.8,6.3
			c-12.2,0-22.2-10-22.2-22.2c0-12.2,10-22.2,22.2-22.2C61-38.1,71-28.1,71-15.9C71-3.7,61,6.3,48.8,6.3z M48.8-29
			c-7.2,0-13.1,5.9-13.1,13.1c0,7.2,5.9,13.1,13.1,13.1c7.2,0,13.1-5.9,13.1-13.1C61.9-23.1,56-29,48.8-29z M48.8,6.3
			c-23,0-36.6-18.8-37.2-19.6c-1.2-1.7-1.1-3.9,0.2-5.5c0.6-0.8,15.8-19.4,37-19.4c21.2,0,36.4,18.6,37,19.4
			c1.3,1.6,1.3,3.8,0.2,5.5C85.4-12.5,71.8,6.3,48.8,6.3z M21.3-15.8c4.2,4.5,14,13,27.4,13c13.5,0,23.2-8.5,27.4-13
			C71.7-20.3,61.3-29,48.8-29C36.3-29,25.9-20.3,21.3-15.8z M53.9-17.4c-2.1,0-3.6-1.7-3.6-3.6c0-1.3,0.7-2.4,1.7-3.1
			c-1-0.4-2.1-0.6-3.1-0.6c-4.9,0-8.8,4-8.8,8.8s4,8.8,8.8,8.8s8.8-4,8.8-8.8c0-1.2-0.2-2.1-0.6-3.1C56.4-18,55.2-17.4,53.9-17.4z
			 M91.9-34.1v-34.7c0-4.3-3.5-7.8-7.8-7.8H13.5c-4.3,0-7.8,3.5-7.8,7.8v34.7c0,4.3,3.5,7.8,7.8,7.8h0.4c3-2.8,7.1-6.2,12.2-9.1
			H15.5c-0.5,0-0.8-0.4-0.8-0.8v-30.6c0-0.5,0.4-0.8,0.8-0.8H82c0.5,0,0.8,0.4,0.8,0.8v30.6c0,0.5-0.4,0.8-0.8,0.8H71.5
			c5.1,2.9,9.3,6.3,12.2,9.1h0.4C88.4-26.3,91.9-29.8,91.9-34.1z"/>
	</g>
	<g id="Heavy-S" transform="matrix(1 0 0 1 2588.47 696)">
		<path d="M30.8-51.1c0,2.9-2.4,5.2-5.2,5.2s-5.2-2.4-5.2-5.2c0-2.9,2.4-5.2,5.2-5.2S30.8-53.9,30.8-51.1z M53.4-51.1
			c0,2.9-2.4,5.2-5.2,5.2c-2.9,0-5.2-2.4-5.2-5.2c0-2.9,2.4-5.2,5.2-5.2C51.1-56.3,53.4-53.9,53.4-51.1z M76.2-51.1
			c0,2.9-2.4,5.2-5.2,5.2s-5.2-2.4-5.2-5.2c0-2.9,2.4-5.2,5.2-5.2S76.2-53.9,76.2-51.1z M48.2,5.5c-11.9,0-21.6-9.7-21.6-21.6
			c0-11.9,9.7-21.6,21.6-21.6S69.8-28,69.8-16.1C69.8-4.2,60.1,5.5,48.2,5.5z M48.2-29.5c-7.4,0-13.4,6-13.4,13.4s6,13.4,13.4,13.4
			s13.4-6,13.4-13.4S55.6-29.5,48.2-29.5z M48.2,5.5c-22.6,0-36-18.4-36.5-19.2c-1.1-1.5-1-3.5,0.1-4.9c0.6-0.8,15.5-19,36.4-19
			s35.8,18.2,36.4,19c1.1,1.4,1.2,3.4,0.1,4.9C84.2-12.9,70.8,5.5,48.2,5.5z M20.4-16c4.1,4.4,14,13.3,27.8,13.3
			C62-2.7,71.9-11.5,76-15.9c-4.4-4.5-15-13.5-27.8-13.5C35.4-29.5,24.9-20.4,20.4-16z M53.3-17.5c-2,0-3.6-1.6-3.6-3.6
			c0-1.3,0.7-2.4,1.6-3c-1-0.4-2-0.6-3.1-0.6c-4.8,0-8.7,3.9-8.7,8.7s3.9,8.7,8.7,8.7S57-11.2,57-16c0-1.1-0.2-2.1-0.6-3.1
			C55.7-18.2,54.6-17.5,53.3-17.5z M83.2-75.9h-70c-4.1,0-7.4,3.3-7.4,7.4v34.4c0,4.1,3.3,7.4,7.4,7.4H14c2.8-2.5,6.5-5.5,11-8.2
			H14.9c-0.5,0-0.8-0.4-0.8-0.8v-31.1c0-0.5,0.4-0.8,0.8-0.8h66.7c0.5,0,0.8,0.4,0.8,0.8v31.1c0,0.5-0.4,0.8-0.8,0.8H71.4
			c4.5,2.7,8.2,5.7,11,8.2h0.8c4.1,0,7.4-3.3,7.4-7.4v-34.4C90.6-72.6,87.3-75.9,83.2-75.9z"/>
	</g>
	<g id="Bold-S" transform="matrix(1 0 0 1 2292.43 696)">
		<path d="M30.3-50.9c0,2.8-2.3,5.2-5.2,5.2s-5.2-2.3-5.2-5.2s2.3-5.2,5.2-5.2S30.3-53.7,30.3-50.9z M52.7-50.9
			c0,2.8-2.3,5.2-5.2,5.2s-5.2-2.3-5.2-5.2s2.3-5.2,5.2-5.2S52.7-53.7,52.7-50.9z M75.3-50.9c0,2.8-2.3,5.2-5.2,5.2
			c-2.8,0-5.2-2.3-5.2-5.2s2.3-5.2,5.2-5.2C72.9-56.1,75.3-53.7,75.3-50.9z M47.6,4.7c-11.6,0-21-9.4-21-21s9.4-21,21-21
			s21,9.4,21,21S59.1,4.7,47.6,4.7z M47.6-29.9c-7.5,0-13.7,6.1-13.7,13.7c0,7.5,6.1,13.7,13.7,13.7c7.5,0,13.7-6.1,13.7-13.7
			C61.2-23.8,55.1-29.9,47.6-29.9z M47.6,4.7c-22.2,0-35.3-18.1-35.9-18.9c-0.9-1.3-0.9-3.1,0.1-4.4c0.6-0.8,15.3-18.7,35.7-18.7
			c20.5,0,35.1,17.9,35.7,18.7c1,1.3,1.1,3.1,0.1,4.4C82.9-13.4,69.8,4.7,47.6,4.7z M19.5-16.1c3.9,4.4,14,13.6,28.1,13.6
			c14.2,0,24.2-9.2,28.1-13.6c-4.3-4.4-15-13.8-28.1-13.8C34.5-29.9,23.8-20.5,19.5-16.1z M52.7-17.7c-2,0-3.6-1.6-3.6-3.6
			c0-1.3,0.6-2.3,1.6-3c-1-0.4-2-0.6-3.1-0.6c-4.8,0-8.7,3.9-8.7,8.7s3.9,8.7,8.7,8.7s8.7-3.9,8.7-8.7c0-1.1-0.2-2.1-0.6-3.1
			C55-18.4,53.9-17.7,52.7-17.7z M82.2-75.1H12.9c-3.8,0-6.9,3.1-6.9,6.9v34.1c0,3.8,3.1,6.9,6.9,6.9h1.3c2.5-2.3,5.8-4.9,9.8-7.3
			h-9.8c-0.4,0-0.8-0.4-0.8-0.8V-67c0-0.4,0.4-0.8,0.8-0.8H81c0.4,0,0.8,0.4,0.8,0.8v31.7c0,0.4-0.4,0.8-0.8,0.8h-9.7
			c3.9,2.4,7.2,5,9.7,7.3h1.3c3.8,0,6.9-3.1,6.9-6.9v-34.1C89.1-72.1,86-75.1,82.2-75.1z"/>
	</g>
	<g id="Semibold-S" transform="matrix(1 0 0 1 1996.19 696)">
		<path d="M29.8-50.8c0,2.8-2.3,5.1-5.1,5.1s-5.1-2.3-5.1-5.1c0-2.8,2.3-5.1,5.1-5.1S29.8-53.6,29.8-50.8z M52.1-50.8
			c0,2.8-2.3,5.1-5.1,5.1c-2.8,0-5.1-2.3-5.1-5.1c0-2.8,2.3-5.1,5.1-5.1C49.8-55.9,52.1-53.6,52.1-50.8z M74.3-50.8
			c0,2.8-2.3,5.1-5.1,5.1s-5.1-2.3-5.1-5.1c0-2.8,2.3-5.1,5.1-5.1S74.3-53.6,74.3-50.8z M46.9,3.9c-11.2,0-20.4-9.1-20.4-20.4
			c0-11.2,9.1-20.4,20.4-20.4c11.2,0,20.4,9.1,20.4,20.4C67.3-5.2,58.1,3.9,46.9,3.9z M46.9-30.4c-7.7,0-14,6.3-14,14
			c0,7.7,6.3,14,14,14c7.7,0,14-6.3,14-14C60.9-24.1,54.6-30.4,46.9-30.4z M47,3.9c-21.8,0-34.7-17.8-35.2-18.5
			c-0.8-1.2-0.8-2.7,0.1-3.9c0.6-0.7,15-18.4,35.1-18.4s34.5,17.6,35.1,18.4c0.9,1.1,0.9,2.7,0.1,3.9C81.6-13.8,68.8,3.9,47,3.9z
			 M18.6-16.3C22.4-12.1,32.6-2.5,47-2.5s24.6-9.6,28.3-13.9c-4.1-4.2-15-14.1-28.3-14.1C33.6-30.4,22.7-20.6,18.6-16.3z M52-17.9
			c-2,0-3.5-1.6-3.5-3.5c0-1.3,0.6-2.3,1.6-3c-1-0.4-2-0.6-3-0.6c-4.7,0-8.6,3.9-8.6,8.6s3.9,8.6,8.6,8.6c4.7,0,8.6-3.9,8.6-8.6
			c0-1.1-0.2-2.1-0.6-3C54.3-18.5,53.2-17.9,52-17.9z M81.3-74.4H12.6c-3.5,0-6.4,2.9-6.4,6.4v33.8c0,3.5,2.9,6.4,6.4,6.4h2.8
			c2.4-2.1,5.4-4.4,8.9-6.4H13.4c-0.4,0-0.8-0.4-0.8-0.8v-32.2c0-0.4,0.4-0.8,0.8-0.8h67.1c0.4,0,0.8,0.4,0.8,0.8l0,32.2
			c0,0.4-0.4,0.8-0.8,0.8h-11c3.5,2.1,6.5,4.3,8.9,6.4h2.9c3.5,0,6.4-2.9,6.4-6.4v-33.8C87.7-71.5,84.9-74.4,81.3-74.4z"/>
	</g>
	<g id="Medium-S" transform="matrix(1 0 0 1 1699.83 696)">
		<path d="M29.7-50.6c0,2.8-2.3,5.1-5.1,5.1s-5.1-2.3-5.1-5.1c0-2.8,2.3-5.1,5.1-5.1C27.4-55.7,29.7-53.4,29.7-50.6z M51.8-50.6
			c0,2.8-2.3,5.1-5.1,5.1c-2.8,0-5.1-2.3-5.1-5.1c0-2.8,2.3-5.1,5.1-5.1C49.5-55.7,51.8-53.4,51.8-50.6z M73.8-50.6
			c0,2.8-2.3,5.1-5.1,5.1c-2.8,0-5.1-2.3-5.1-5.1c0-2.8,2.3-5.1,5.1-5.1C71.5-55.7,73.8-53.4,73.8-50.6z M46.6,3.2
			c-10.9,0-19.8-8.9-19.8-19.8c0-10.9,8.9-19.8,19.8-19.8s19.8,8.9,19.8,19.8C66.4-5.7,57.5,3.2,46.6,3.2z M46.6-30.8
			c-7.8,0-14.2,6.4-14.2,14.2S38.8-2.4,46.6-2.4s14.2-6.4,14.2-14.2S54.5-30.8,46.6-30.8z M46.7,3.2C25.4,3.1,12.7-14.3,12.2-15
			c-0.7-1-0.7-2.4,0.1-3.4c0.6-0.7,14.7-18,34.4-18c19.7,0,33.8,17.3,34.4,18c0.8,1,0.8,2.3,0.1,3.4C80.7-14.3,68.1,3.2,46.7,3.2z
			 M18.1-16.5C21.7-12.4,32-2.5,46.7-2.4c14.8,0,25-10,28.6-14.1c-3.9-4.1-14.9-14.3-28.6-14.3C33.1-30.8,22-20.6,18.1-16.5z
			 M51.6-18c-2,0-3.5-1.6-3.5-3.5c0-1.3,0.6-2.3,1.6-2.9c-1-0.4-2-0.6-3-0.6c-4.7,0-8.5,3.8-8.5,8.5S42-8,46.7-8
			c4.7,0,8.5-3.8,8.5-8.5c0-1.1-0.2-2.1-0.6-3C53.9-18.7,52.9-18,51.6-18z M80.7-73.6h-68c-3.3,0-6,2.7-6,6v33.4c0,3.3,2.7,6,6,6
			h4.5c2.2-1.8,4.9-3.8,8-5.6H12.7c-0.2,0-0.4-0.2-0.4-0.4v-33.4c0-0.2,0.2-0.4,0.4-0.4h68c0.2,0,0.4,0.2,0.4,0.4v33.4
			c0,0.2-0.2,0.4-0.4,0.4H68.2c3.1,1.8,5.7,3.7,8,5.6h4.6c3.3,0,6-2.7,6-6v-33.4C86.7-70.9,84-73.6,80.7-73.6z"/>
	</g>
	<g id="Regular-S" transform="matrix(1 0 0 1 1403.58 696)">
		<path d="M29.4-50.5c0,2.8-2.3,5-5,5s-5-2.3-5-5c0-2.8,2.3-5,5-5S29.4-53.2,29.4-50.5z M51.3-50.5c0,2.8-2.3,5-5,5
			c-2.8,0-5-2.3-5-5c0-2.8,2.3-5,5-5C49-55.5,51.3-53.2,51.3-50.5z M73.1-50.5c0,2.8-2.3,5-5,5s-5-2.3-5-5c0-2.8,2.3-5,5-5
			S73.1-53.2,73.1-50.5z M46.2,2.4C35.6,2.4,27-6.2,27-16.8S35.6-36,46.2-36s19.2,8.6,19.2,19.2S56.7,2.4,46.2,2.4z M46.2-31.3
			c-8,0-14.5,6.5-14.5,14.5c0,8,6.5,14.5,14.5,14.5s14.5-6.5,14.5-14.5C60.6-24.8,54.1-31.3,46.2-31.3z M46.2,2.4
			C25.3,2.3,12.9-14.7,12.4-15.4c-0.6-0.9-0.6-2,0.1-2.8C13.1-19,26.9-36,46.2-36C65.5-36,79.4-19,80-18.3c0.7,0.8,0.7,2,0.1,2.8
			C79.6-14.7,67.2,2.4,46.2,2.4z M17.4-16.7c3.4,3.9,13.7,14.3,28.8,14.4c15.2,0,25.5-10.5,28.8-14.4c-3.6-3.9-14.9-14.5-28.8-14.5
			C32.3-31.3,21-20.6,17.4-16.7z M51.1-18.2c-2,0-3.5-1.6-3.5-3.5c0-1.3,0.6-2.3,1.6-2.9c-0.9-0.4-2-0.6-3-0.6
			c-4.6,0-8.4,3.8-8.4,8.4s3.8,8.4,8.4,8.4c4.6,0,8.4-3.8,8.4-8.4c0-1.1-0.2-2-0.6-3C53.4-18.8,52.4-18.2,51.1-18.2z M79.9-72.8
			H12.6c-3,0-5.5,2.5-5.5,5.5v33.1c0,3,2.5,5.5,5.5,5.5h6.3c2-1.6,4.4-3.2,7-4.7H12.6c-0.4,0-0.8-0.4-0.8-0.8v-33.1
			c0-0.4,0.4-0.8,0.8-0.8h67.3c0.4,0,0.8,0.4,0.8,0.8v33.1c0,0.4-0.4,0.8-0.8,0.8H66.6c2.6,1.5,5,3.1,7,4.7h6.3c3,0,5.5-2.5,5.5-5.5
			v-33.1C85.4-70.3,82.9-72.8,79.9-72.8z"/>
	</g>
	<g id="Light-S" transform="matrix(1 0 0 1 1107.6 696)">
		<path d="M29-50.3c0,2.7-2.3,5-5,5s-5-2.3-5-5s2.3-5,5-5S29-53,29-50.3z M50.6-50.3c0,2.7-2.3,5-5,5s-5-2.3-5-5s2.3-5,5-5
			S50.6-53,50.6-50.3z M72.2-50.3c0,2.7-2.3,5-5,5s-5-2.3-5-5s2.3-5,5-5S72.2-53,72.2-50.3z M45.6,1.6C35.3,1.6,27-6.7,27-17
			c0-10.3,8.3-18.6,18.6-18.6S64.2-27.2,64.2-17C64.2-6.7,55.8,1.6,45.6,1.6z M45.6-31.7c-8.1,0-14.7,6.6-14.7,14.7
			c0,8.1,6.6,14.7,14.7,14.7S60.3-8.9,60.3-17C60.3-25.1,53.7-31.7,45.6-31.7z M45.6,1.6c-20.5,0-32.7-16.8-33.2-17.5
			c-0.5-0.7-0.5-1.7,0.1-2.3c0.6-0.7,14.2-17.4,33.1-17.4s32.5,16.7,33.1,17.4c0.5,0.7,0.6,1.6,0.1,2.3C78.3-15.2,66.1,1.6,45.6,1.6
			z M16.5-16.9c3.1,3.7,13.6,14.6,29.1,14.6s26-11,29.1-14.6c-3.4-3.7-14.8-14.8-29.1-14.8C31.3-31.7,19.9-20.6,16.5-16.9z
			 M50.5-18.4c-1.9,0-3.4-1.6-3.4-3.4c0-1.2,0.6-2.3,1.6-2.9c-0.9-0.4-1.9-0.5-3-0.5c-4.6,0-8.3,3.7-8.3,8.3s3.7,8.3,8.3,8.3
			s8.3-3.7,8.3-8.3c0-1.1-0.2-2-0.5-3C52.7-19,51.7-18.4,50.5-18.4z M78.9-72H12.3c-2.8,0-5.1,2.3-5.1,5.1v32.8
			c0,2.8,2.3,5.1,5.1,5.1H19c1.7-1.3,3.7-2.6,5.8-3.9H12.3c-0.6,0-1.2-0.5-1.2-1.2v-32.8c0-0.6,0.5-1.2,1.2-1.2h66.6
			c0.6,0,1.2,0.5,1.2,1.2v32.8c0,0.6-0.4,1.2-1.2,1.2H66.4c2.1,1.2,4.1,2.6,5.8,3.9h6.7c2.8,0,5.1-2.2,5.1-5.1v-32.8
			C83.9-69.7,81.7-72,78.9-72z"/>
	</g>
	<g id="Thin-S" transform="matrix(1 0 0 1 811.863 696)">
		<path d="M28.1-50.1c0,2.7-2.2,4.9-4.9,4.9s-4.9-2.2-4.9-4.9s2.2-4.9,4.9-4.9C25.9-55.1,28.1-52.8,28.1-50.1z M49.5-50.1
			c0,2.7-2.2,4.9-4.9,4.9s-4.9-2.2-4.9-4.9s2.2-4.9,4.9-4.9S49.5-52.8,49.5-50.1z M70.9-50.1c0,2.7-2.2,4.9-4.9,4.9
			c-2.7,0-4.9-2.2-4.9-4.9s2.2-4.9,4.9-4.9C68.7-55.1,70.9-52.8,70.9-50.1z M44.6,0.8c-9.9,0-18-8.1-18-18c0-9.9,8.1-18,18-18
			s18,8.1,18,18C62.6-7.3,54.5,0.8,44.6,0.8z M44.6-32.1c-8.2,0-14.9,6.7-14.9,14.9S36.3-2.3,44.6-2.3S59.5-9,59.5-17.2
			S52.8-32.1,44.6-32.1z M44.6,0.8c-20.1,0-32-16.4-32.5-17.1c-0.4-0.6-0.4-1.3,0.1-1.9c0.6-0.7,13.9-17,32.4-17s31.9,16.3,32.4,17
			c0.4,0.5,0.5,1.3,0.1,1.9C76.6-15.6,64.7,0.8,44.6,0.8z M15.3-17.1c2.8,3.4,13.4,14.9,29.3,14.9c15.9,0,26.5-11.5,29.3-14.9
			c-3.1-3.4-14.6-15-29.3-15C29.9-32.1,18.4-20.5,15.3-17.1z M49.3-18.6c-1.9,0-3.4-1.5-3.4-3.4c0-1.2,0.6-2.2,1.5-2.8
			c-0.9-0.4-1.9-0.5-2.9-0.5c-4.5,0-8.2,3.7-8.2,8.2s3.7,8.2,8.2,8.2s8.2-3.7,8.2-8.2c0-1.1-0.2-2-0.5-2.9
			C51.6-19.2,50.6-18.6,49.3-18.6z M77.5-71.2H11.6c-2.5,0-4.6,2.1-4.6,4.6v32.4c0,2.5,2.1,4.6,4.6,4.6H20c1.5-1.1,3.1-2.1,4.8-3.1
			H11.6c-0.8,0-1.5-0.7-1.5-1.5v-32.4c0-0.8,0.7-1.5,1.5-1.5h65.9c0.8,0,1.5,0.7,1.5,1.5v32.4c0,0.8-0.7,1.5-1.5,1.5H64.3
			c1.7,1,3.3,2,4.8,3.1h8.4c2.5,0,4.6-2.1,4.6-4.6v-32.4C82.1-69.1,80.1-71.2,77.5-71.2z"/>
	</g>
	<g id="Ultralight-S" transform="matrix(1 0 0 1 515.649 696)">
		<path d="M26.7-50c0,2.7-2.2,4.9-4.9,4.9S17-47.3,17-50c0-2.7,2.2-4.9,4.9-4.9S26.7-52.6,26.7-50z M47.9-50c0,2.7-2.2,4.9-4.9,4.9
			c-2.7,0-4.9-2.2-4.9-4.9c0-2.7,2.2-4.9,4.9-4.9C45.7-54.8,47.9-52.6,47.9-50z M69-50c0,2.7-2.2,4.9-4.9,4.9
			c-2.7,0-4.9-2.2-4.9-4.9c0-2.7,2.2-4.9,4.9-4.9C66.9-54.8,69-52.6,69-50z M43,0c-9.6,0-17.4-7.8-17.4-17.4S33.3-34.8,43-34.8
			S60.4-27,60.4-17.4S52.6,0,43,0z M43-32.5c-8.4,0-15.1,6.8-15.1,15.1S34.6-2.2,43-2.2S58.1-9,58.1-17.4S51.3-32.5,43-32.5z
			 M75.6-70.4H10.5c-2.3,0-4.2,1.9-4.2,4.2v32c0,2.3,1.9,4.2,4.2,4.2h10.2c1.2-0.8,2.4-1.6,3.7-2.3H10.5c-1,0-1.9-0.9-1.9-1.9v-32
			c0-1,0.9-1.9,1.9-1.9h65.1c1,0,1.9,0.9,1.9,1.9v32c0,1-0.9,1.9-1.9,1.9H61.7c1.3,0.7,2.6,1.5,3.7,2.3h10.2c2.3,0,4.2-1.9,4.2-4.2
			v-32C79.8-68.6,77.9-70.4,75.6-70.4z M43,0C23.3,0,11.7-16,11.2-16.7c-0.3-0.4-0.3-1,0-1.4c0.5-0.7,13.6-16.7,31.8-16.7
			s31.2,16,31.8,16.7c0.3,0.4,0.3,1,0,1.4C74.4-16,62.7,0,43,0z M13.6-17.4C16.1-14.3,26.8-2.2,43-2.2c16.3,0,27-12,29.4-15.1
			C69.8-20.4,58-32.5,43-32.5C28-32.5,16.3-20.4,13.6-17.4z M47.7-18.8c-1.9,0-3.3-1.5-3.3-3.3c0-1.2,0.6-2.2,1.5-2.8
			C45-25.3,44-25.5,43-25.5c-4.5,0-8.1,3.7-8.1,8.1s3.7,8.1,8.1,8.1s8.1-3.7,8.1-8.1c0-1.1-0.2-2-0.5-2.9C50-19.4,49-18.8,47.7-18.8
			z"/>
	</g>
</g>
</svg>
