<?xml version="1.0" encoding="utf-8"?>
<!-- Generator: Adobe Illustrator 27.5.0, SVG Export Plug-In . SVG Version: 6.00 Build 0)  -->
<svg version="1.1" id="Layer_1" xmlns="http://www.w3.org/2000/svg" xmlns:xlink="http://www.w3.org/1999/xlink" x="0px" y="0px"
	 viewBox="0 0 3300 2200" style="enable-background:new 0 0 3300 2200;" xml:space="preserve">
<style type="text/css">
	.st0{fill:#FFFFFF;}
	.st1{fill:none;stroke:#000000;stroke-width:0.5;}
	.st2{font-family:'Helvetica-Bold';}
	.st3{font-size:13px;}
	.st4{font-family:'Helvetica';}
	.st5{fill:none;stroke:#00AEEF;stroke-width:0.5;}
	.st6{fill:#27AAE1;}
	.st7{fill:none;stroke:#27AAE1;stroke-width:0.5;}
</style>
<g id="Notes">
	<rect id="artboard" class="st0" width="3300" height="2200"/>
	<line class="st1" x1="263" y1="292" x2="3036" y2="292"/>
	<text transform="matrix(1 0 0 1 263 322)" class="st2 st3">Weight/Scale Variations</text>
	<text transform="matrix(1 0 0 1 534.0633 322)" class="st4 st3">Ultralight</text>
	<text transform="matrix(1 0 0 1 843.7775 322)" class="st4 st3">Thin</text>
	<text transform="matrix(1 0 0 1 1139.035 322)" class="st4 st3">Light</text>
	<text transform="matrix(1 0 0 1 1427.0773 322)" class="st4 st3">Regular</text>
	<text transform="matrix(1 0 0 1 1723.4419 322)" class="st4 st3">Medium</text>
	<text transform="matrix(1 0 0 1 2016.1719 322)" class="st4 st3">Semibold</text>
	<text transform="matrix(1 0 0 1 2326.9705 322)" class="st4 st3">Bold</text>
	<text transform="matrix(1 0 0 1 2618.2659 322)" class="st4 st3">Heavy</text>
	<text transform="matrix(1 0 0 1 2917.5054 322)" class="st4 st3">Black</text>
	<line class="st1" x1="263" y1="1903" x2="3036" y2="1903"/>
	<g transform="matrix(1 0 0 1 263 1933)">
		<path d="M9.2,0.8c4.3,0,7.9-3.6,7.9-7.9S13.5-15,9.2-15s-7.9,3.6-7.9,7.9C1.4-2.7,5,0.8,9.2,0.8z M9.2-0.7c-3.5,0-6.4-2.8-6.4-6.4
			s2.8-6.4,6.4-6.4s6.4,2.8,6.4,6.4S12.8-0.7,9.2-0.7z M5.7-7.1c0,0.4,0.3,0.7,0.8,0.7h2.1v2.1c0,0.4,0.3,0.7,0.7,0.7S10-3.9,10-4.3
			v-2.1h2.1c0.4,0,0.7-0.3,0.7-0.7c0-0.4-0.3-0.7-0.7-0.7H10v-2.1c0-0.4-0.3-0.8-0.7-0.8s-0.7,0.3-0.7,0.8v2.1H6.4
			C6-7.8,5.7-7.5,5.7-7.1z"/>
	</g>
	<g transform="matrix(1 0 0 1 281.867 1933)">
		<path d="M11.7,2.9c5.4,0,10-4.5,10-10c0-5.4-4.5-10-10-10c-5.4,0-10,4.5-10,10C1.7-1.6,6.3,2.9,11.7,2.9z M11.7,1.2
			c-4.6,0-8.3-3.7-8.3-8.3s3.7-8.3,8.3-8.3S20-11.7,20-7.1C20-2.4,16.3,1.2,11.7,1.2z M7.2-7.1c0,0.5,0.3,0.8,0.8,0.8h2.9v2.9
			c0,0.5,0.3,0.8,0.8,0.8s0.8-0.3,0.8-0.8v-2.9h2.9c0.5,0,0.8-0.3,0.8-0.8s-0.3-0.8-0.8-0.8h-2.9v-2.9c0-0.5-0.3-0.8-0.8-0.8
			s-0.8,0.3-0.8,0.8v2.9H8C7.5-7.9,7.2-7.5,7.2-7.1z"/>
	</g>
	<g transform="matrix(1 0 0 1 305.646 1933)">
		<path d="M15,5.7c7,0,12.7-5.8,12.7-12.7c0-7-5.8-12.7-12.7-12.7C8-19.8,2.3-14,2.3-7.1C2.3-0.1,8,5.7,15,5.7z M15,3.8
			C8.9,3.8,4.1-1,4.1-7.1C4.1-13.1,8.9-18,15-18c6,0,10.9,4.9,10.9,10.9C25.9-1,21,3.8,15,3.8z M9.2-7.1c0,0.5,0.4,0.9,0.9,0.9H14v4
			c0,0.5,0.4,0.9,0.9,0.9s0.9-0.4,0.9-0.9v-4h4c0.5,0,0.9-0.4,0.9-0.9S20.3-8,19.8-8h-4v-3.9c0-0.5-0.4-0.9-0.9-0.9S14-12.4,14-11.9
			V-8h-3.9C9.6-8,9.2-7.6,9.2-7.1z"/>
	</g>
	<text transform="matrix(1 0 0 1 263 1953)" class="st2 st3">Design Variations</text>
	<text transform="matrix(1 0 0 1 263 1971)" class="st4 st3">Symbols are supported in up to nine weights and three scales.</text>
	<text transform="matrix(1 0 0 1 263 1989)" class="st4 st3">For optimal layout with text and other symbols, vertically align</text>
	<text transform="matrix(1 0 0 1 263 2007)" class="st4 st3">symbols with the adjacent text.</text>
	<line class="st5" x1="776" y1="1919" x2="776" y2="1933"/>
	<g transform="matrix(1 0 0 1 776 1933)">
		<path d="M3.3,0.2c0.5,0,0.8-0.2,1-0.7L5.5-4h5.8l1.3,3.4C12.7,0,13,0.2,13.5,0.2s0.8-0.3,0.8-0.8c0-0.2,0-0.3-0.1-0.5L9.7-13.4
			C9.4-14,9-14.3,8.4-14.3s-1,0.3-1.2,0.9L2.6-1.2C2.5-1,2.5-0.8,2.5-0.6C2.5-0.1,2.8,0.2,3.3,0.2z M6-5.5l2.4-6.6l0,0l2.4,6.6
			C10.8-5.5,6-5.5,6-5.5z"/>
	</g>
	<line class="st5" x1="793.2" y1="1919" x2="793.2" y2="1933"/>
	<text transform="matrix(1 0 0 1 776 1953)" class="st2 st3">Margins</text>
	<text transform="matrix(1 0 0 1 776 1971)" class="st4 st3">Leading and trailing margins on the left and right side of each symbol</text>
	<text transform="matrix(1 0 0 1 776 1989)" class="st4 st3">can be adjusted by modifying the x-location of the margin guidelines.</text>
	<text transform="matrix(1 0 0 1 776 2007)" class="st4 st3">Modifications are automatically applied proportionally to all</text>
	<text transform="matrix(1 0 0 1 776 2025)" class="st4 st3">scales and weights.</text>
	<g transform="matrix(1 0 0 1 1289 1933)">
		<path d="M2.8,1.9l1.7,1.7c0.9,0.9,1.8,0.8,2.8-0.2L18-8.4l-1-1L6.4,2.3C6,2.7,5.7,2.8,5.2,2.3L4.1,1.1C3.6,0.7,3.7,0.3,4.1,0
			l11.5-10.8l-1-1L3-0.9C2.1,0,2,1,2.8,1.9z M9.3-16.3c-0.4,0.4-0.4,1-0.2,1.4s0.7,0.6,1.3,0.4c1.5-0.3,3-0.4,4.4,0.5l-0.6,1.5
			c-0.3,0.8-0.2,1.4,0.4,2l2.3,2.3c0.5,0.5,0.9,0.5,1.5,0.4l1-0.2l0.7,0.7v0.6c0,0.5,0.1,0.9,0.6,1.4l0.8,0.7c0.5,0.5,1.1,0.5,1.6,0
			L26-7.5C26.5-8,26.4-8.6,26-9l-1-0.9c-0.5-0.5-0.8-0.6-1.3-0.6h-0.6l-0.6-0.6l0.2-1.1c0.1-0.6,0-1-0.6-1.6L19.9-16
			C16.6-19.3,12.1-19.2,9.3-16.3z M10.8-16c2.4-1.8,5.7-1.5,7.9,0.8l2.4,2.4c0.2,0.2,0.3,0.4,0.2,0.8L21-10.5L22.5-9l1-0.1
			c0.3,0,0.3,0,0.5,0.2l0.6,0.6l-2.4,2.4l-0.6-0.6c-0.2-0.2-0.2-0.3-0.2-0.5l0.1-1L20-9.5l-1.5,0.3c-0.3,0.1-0.5,0-0.7-0.2l-2-2
			c-0.3-0.2-0.3-0.4-0.1-0.8l0.9-2.1C15-15.8,13-16.4,11-15.8C10.7-15.7,10.6-15.8,10.8-16z"/>
	</g>
	<text transform="matrix(1 0 0 1 1289 1953)" class="st2 st3">Exporting</text>
	<text transform="matrix(1 0 0 1 1289 1971)" class="st4 st3">Symbols should be outlined when exporting to ensure the</text>
	<text transform="matrix(1 0 0 1 1289 1989)" class="st4 st3">design is preserved when submitting to Xcode.</text>
	<text id="template-version" transform="matrix(1 0 0 1 2952.4141 1933)" class="st4 st3">Template v.4.0</text>
	<text transform="matrix(1 0 0 1 2865.4575 1951)" class="st4 st3">Requires Xcode 14 or greater</text>
	<text id="descriptive-name" transform="matrix(1 0 0 1 2920.3838 1969)" class="st4 st3">Generated from eye</text>
	<text transform="matrix(1 0 0 1 2912.4111 1987)" class="st4 st3">Typeset at 100 points</text>
	<text transform="matrix(1 0 0 1 263 726)" class="st4 st3">Small</text>
	<text transform="matrix(1 0 0 1 263 1156)" class="st4 st3">Medium</text>
	<text transform="matrix(1 0 0 1 263 1586)" class="st4 st3">Large</text>
</g>
<g id="Guides">
	<g id="H-reference" transform="matrix(1 0 0 1 339 696)">
		<path class="st6" d="M1,0h2.6l25.7-67.1H30v-3.3h-1.9L1,0z M11.7-24.5H47l-0.8-2.2H12.4L11.7-24.5z M55.1,0h2.6L30.6-70.5h-1.2
			v3.3L55.1,0z"/>
	</g>
	<line id="Baseline-S" class="st7" x1="263" y1="696" x2="3036" y2="696"/>
	<line id="Capline-S" class="st7" x1="263" y1="625.5" x2="3036" y2="625.5"/>
	<g id="H-reference_00000168820843084754473740000009140028302573334461_" transform="matrix(1 0 0 1 339 1126)">
		<path class="st6" d="M1,0h2.6l25.7-67.1H30v-3.3h-1.9L1,0z M11.7-24.5H47l-0.8-2.2H12.4L11.7-24.5z M55.1,0h2.6L30.6-70.5h-1.2
			v3.3L55.1,0z"/>
	</g>
	<line id="Baseline-M" class="st7" x1="263" y1="1126" x2="3036" y2="1126"/>
	<line id="Capline-M" class="st7" x1="263" y1="1055.5" x2="3036" y2="1055.5"/>
	<g id="H-reference_00000078034423727928833490000005800728138923938461_" transform="matrix(1 0 0 1 339 1556)">
		<path class="st6" d="M1,0h2.6l25.7-67.1H30v-3.3h-1.9L1,0z M11.7-24.5H47l-0.8-2.2H12.4L11.7-24.5z M55.1,0h2.6L30.6-70.5h-1.2
			v3.3L55.1,0z"/>
	</g>
	<line id="Baseline-L" class="st7" x1="263" y1="1556" x2="3036" y2="1556"/>
	<line id="Capline-L" class="st7" x1="263" y1="1485.5" x2="3036" y2="1485.5"/>
	<line id="left-margin-Regular-M" class="st5" x1="1373.2" y1="1030.8" x2="1373.2" y2="1150.1"/>
	<line id="right-margin-Regular-M" class="st5" x1="1526.5" y1="1030.8" x2="1526.5" y2="1150.1"/>
</g>
<g id="Symbols">
	<g id="Semibold-L" transform="matrix(1 0 0 1 1944.21 1556)">
		<g>
			<path d="M184-37.5c-1.3-1.5-27.4-31.5-63.2-41.2c10.6,7.1,17.6,19.1,17.6,32.8l0,0c0,21.7-17.6,39.3-39.3,39.3
				S59.8-24.2,59.7-45.9l0,0c0-13.7,7-25.7,17.6-32.8C41.5-69,15.4-39.1,14.1-37.5c-1.2,1.3-1.2,3.3,0,4.7
				C15.7-31,52.5,11.3,99,11.3s83.4-42.3,84.9-44.1C185.1-34.2,185.1-36.2,184-37.5L184-37.5z"/>
			<path d="M116.4-45.6c0,9.6-7.8,17.4-17.4,17.4S81.7-36,81.7-45.6S89.5-63,99.1-63S116.4-55.2,116.4-45.6z"/>
		</g>
	</g>
	<g id="Regular-L" transform="matrix(1 0 0 1 1351.83 1556)">
		<g>
			<path d="M182.2-37.7c-1.3-1.5-27.2-31.2-62.7-40.8c10.5,7,17.4,18.9,17.4,32.5l0,0c0,21.5-17.5,39-39,39S59-24.4,59-46l0,0
				c0-13.6,6.9-25.5,17.4-32.5C41-68.9,15.1-39.2,13.8-37.7c-1.1,1.3-1.1,3.3,0,4.6c1.5,1.8,38.1,43.8,84.2,43.8s82.7-42,84.2-43.8
				C183.4-34.4,183.4-36.3,182.2-37.7L182.2-37.7z"/>
			<path d="M115.5-45.8c0,9.7-7.9,17.6-17.6,17.6s-17.6-7.9-17.6-17.6S88.2-63.4,98-63.4S115.5-55.5,115.5-45.8z"/>
		</g>
	</g>
	<g id="Semibold-M" transform="matrix(1 0 0 1 1965.96 1126)">
		<g>
			<path d="M144.1-36.9c-1-1.2-21.5-24.7-49.7-32.4c8.3,5.5,13.8,15,13.8,25.8l0,0c0,17.1-13.8,30.9-30.9,30.9S46.4-26.4,46.4-43.5
				l0,0c0-10.8,5.5-20.2,13.8-25.8C32-61.7,11.5-38.1,10.5-36.9c-0.9,1.1-0.9,2.6,0,3.7c1.2,1.4,30.2,34.7,66.8,34.7
				s65.6-33.3,66.8-34.7C145-34.3,145-35.8,144.1-36.9L144.1-36.9z"/>
			<path d="M90.8-43c0,7.5-6,13.5-13.5,13.5s-13.5-6-13.5-13.5s6-13.5,13.5-13.5S90.8-50.4,90.8-43z"/>
		</g>
	</g>
	<g id="Regular-M" transform="matrix(1 0 0 1 1373.17 1126)">
		<g>
			<path d="M142.6-37c-1-1.2-21.3-24.4-49.1-32c8.2,5.5,13.7,14.8,13.7,25.4l0,0c0,16.9-13.7,30.5-30.5,30.5S46.2-26.6,46.1-43.5
				l0,0c0-10.6,5.4-20,13.7-25.4C32-61.4,11.7-38.2,10.7-37c-0.9,1-0.9,2.6,0,3.6c1.2,1.4,29.8,34.3,66,34.3s64.7-32.9,66-34.3
				C143.5-34.4,143.5-36,142.6-37L142.6-37z"/>
			<path d="M90.3-43.4c0,7.5-6.1,13.7-13.7,13.7c-7.5,0-13.7-6.1-13.7-13.7S69.1-57,76.6-57C84.2-57,90.3-50.9,90.3-43.4z"/>
		</g>
	</g>
	<g id="Semibold-S" transform="matrix(1 0 0 1 1982.27 696)">
		<g>
			<path d="M113.5-36.8c-0.8-0.9-16.9-19.4-39.1-25.4C81-57.9,85.3-50.4,85.3-42l0,0c0,13.4-10.9,24.3-24.3,24.3S36.7-28.6,36.7-42
				l0,0c0-8.5,4.3-15.9,10.9-20.2c-22.1,6-38.2,24.5-39.1,25.4c-0.7,0.8-0.7,2.1,0,2.9C9.5-32.8,32.3-6.6,61-6.6
				s51.5-26.2,52.5-27.3C114.2-34.7,114.2-36,113.5-36.8L113.5-36.8z"/>
			<path d="M71.6-41.9c0,5.8-4.7,10.6-10.6,10.6S50.4-36,50.4-41.9S55.2-52.5,61-52.5S71.6-47.8,71.6-41.9z"/>
		</g>
	</g>
	<g id="Regular-S" transform="matrix(1 0 0 1 1389.2 696)">
		<g>
			<path d="M112.8-36.8C112-37.7,96-56.2,73.9-62.1c6.5,4.3,10.8,11.7,10.8,20.1l0,0c0,13.4-10.8,24.2-24.2,24.2S36.4-28.6,36.4-42
				l0,0c0-8.4,4.3-15.8,10.8-20.1c-22,6-38.1,24.4-38.9,25.3c-0.7,0.8-0.7,2,0,2.9C9.3-32.8,32-6.8,60.6-6.8s51.3-26,52.2-27.1
				C113.5-34.8,113.5-36,112.8-36.8L112.8-36.8z"/>
			<path d="M71.4-41.7c0,5.9-4.8,10.8-10.8,10.8s-10.8-4.8-10.8-10.8s4.8-10.8,10.8-10.8S71.4-47.6,71.4-41.7z"/>
		</g>
	</g>
</g>
</svg>
