<?xml version="1.0" encoding="utf-8"?>
<!-- Generator: Adobe Illustrator 24.1.1, SVG Export Plug-In . SVG Version: 6.00 Build 0)  -->
<svg version="1.1" id="Layer_1" xmlns="http://www.w3.org/2000/svg" xmlns:xlink="http://www.w3.org/1999/xlink" x="0px" y="0px"
	 viewBox="0 0 3300 2200" style="enable-background:new 0 0 3300 2200;" xml:space="preserve">
<style type="text/css">
	.st0{fill:#FFFFFF;}
	.st1{fill:none;stroke:#000000;stroke-width:0.5;}
	.st2{font-family:'Arial-BoldMT';}
	.st3{font-size:13px;}
	.st4{font-family:'ArialMT';}
	.st5{fill:none;stroke:#00AEEF;stroke-width:0.5;}
	.st6{fill:#27AAE1;}
	.st7{fill:none;stroke:#27AAE1;stroke-width:0.5;}
</style>
<g id="Notes">
	<rect id="artboard" class="st0" width="3300" height="2200"/>
	<line class="st1" x1="263" y1="292" x2="3036" y2="292"/>
	<text transform="matrix(1 0 0 1 263 322)" class="st2 st3">Weight/Scale Variations</text>
	<text transform="matrix(1 0 0 1 534.0632 322)" class="st4 st3">Ultralight</text>
	<text transform="matrix(1 0 0 1 843.7775 322)" class="st4 st3">Thin</text>
	<text transform="matrix(1 0 0 1 1139.035 322)" class="st4 st3">Light</text>
	<text transform="matrix(1 0 0 1 1427.0773 322)" class="st4 st3">Regular</text>
	<text transform="matrix(1 0 0 1 1723.4419 322)" class="st4 st3">Medium</text>
	<text transform="matrix(1 0 0 1 2016.1719 322)" class="st4 st3">Semibold</text>
	<text transform="matrix(1 0 0 1 2326.9705 322)" class="st4 st3">Bold</text>
	<text transform="matrix(1 0 0 1 2618.2659 322)" class="st4 st3">Heavy</text>
	<text transform="matrix(1 0 0 1 2917.5054 322)" class="st4 st3">Black</text>
	<line class="st1" x1="263" y1="1903" x2="3036" y2="1903"/>
	<g transform="matrix(1 0 0 1 263 1933)">
		<path d="M9.2,0.8c4.3,0,7.9-3.6,7.9-7.9S13.5-15,9.2-15s-7.9,3.6-7.9,7.9C1.4-2.7,5,0.8,9.2,0.8z M9.2-0.7C5.7-0.7,2.9-3.5,2.9-7
			c0-3.6,2.8-6.4,6.4-6.4s6.4,2.8,6.4,6.4C15.6-3.5,12.8-0.7,9.2-0.7z M5.7-7.1c0,0.4,0.3,0.7,0.8,0.7h2.1v2.1
			c0,0.4,0.3,0.7,0.7,0.7S10-3.9,10-4.3v-2.1h2.1c0.4,0,0.7-0.3,0.7-0.7c0-0.4-0.3-0.7-0.7-0.7H10v-2.1c0-0.4-0.3-0.8-0.7-0.8
			s-0.7,0.3-0.7,0.8v2.1H6.4C6-7.8,5.7-7.5,5.7-7.1z"/>
	</g>
	<g transform="matrix(1 0 0 1 281.867 1933)">
		<path d="M11.7,2.9c5.4,0,10-4.5,10-10c0-5.4-4.5-10-10-10c-5.4,0-10,4.5-10,10C1.7-1.6,6.3,2.9,11.7,2.9z M11.7,1.3
			C7.1,1.3,3.4-2.4,3.4-7s3.7-8.3,8.3-8.3S20-11.7,20-7.1C20-2.4,16.3,1.3,11.7,1.3z M7.2-7.1c0,0.5,0.3,0.8,0.8,0.8h2.9v2.9
			c0,0.5,0.3,0.8,0.8,0.8s0.8-0.3,0.8-0.8v-2.9h2.9c0.5,0,0.8-0.3,0.8-0.8s-0.3-0.8-0.8-0.8h-2.9v-2.9c0-0.5-0.3-0.8-0.8-0.8
			s-0.8,0.3-0.8,0.8v2.9H8C7.5-7.9,7.2-7.5,7.2-7.1z"/>
	</g>
	<g transform="matrix(1 0 0 1 305.646 1933)">
		<path d="M15,5.7c7,0,12.7-5.8,12.7-12.7c0-7-5.8-12.7-12.7-12.7C8-19.8,2.3-14,2.3-7.1C2.3-0.1,8,5.7,15,5.7z M15,3.8
			C8.9,3.8,4.1-1,4.1-7S8.9-17.9,15-17.9c6,0,10.9,4.9,10.9,10.9S21,3.8,15,3.8z M9.2-7.1c0,0.5,0.4,0.9,0.9,0.9H14v4
			c0,0.5,0.4,0.9,0.9,0.9s0.9-0.4,0.9-0.9v-4h4c0.5,0,0.9-0.4,0.9-0.9S20.3-8,19.8-8h-4v-3.9c0-0.5-0.4-0.9-0.9-0.9S14-12.4,14-11.9
			V-8h-3.9C9.6-8,9.2-7.6,9.2-7.1z"/>
	</g>
	<text transform="matrix(1 0 0 1 263 1953)" class="st2 st3">Design Variations</text>
	<text transform="matrix(1 0 0 1 263 1971)" class="st4 st3">Symbols are supported in up to nine weights and three scales.</text>
	<text transform="matrix(1 0 0 1 263 1989)" class="st4 st3">For optimal layout with text and other symbols, vertically align</text>
	<text transform="matrix(1 0 0 1 263 2007)" class="st4 st3">symbols with the adjacent text.</text>
	<line class="st5" x1="776" y1="1919" x2="776" y2="1933"/>
	<g transform="matrix(1 0 0 1 776 1933)">
		<path d="M3.3,0.2c0.5,0,0.8-0.2,1-0.7L5.5-4h5.8l1.3,3.4C12.7,0,13,0.2,13.5,0.2s0.9-0.3,0.9-0.8c0-0.2,0-0.3-0.1-0.5L9.7-13.4
			C9.4-14,9-14.3,8.4-14.3s-1,0.3-1.2,0.9L2.6-1.2C2.5-1,2.5-0.8,2.5-0.6C2.5-0.1,2.8,0.2,3.3,0.2z M6-5.5l2.4-6.6l0,0l2.4,6.6
			C10.8-5.5,6-5.5,6-5.5z"/>
	</g>
	<line class="st5" x1="793.2" y1="1919" x2="793.2" y2="1933"/>
	<text transform="matrix(1 0 0 1 776 1953)" class="st2 st3">Margins</text>
	<text transform="matrix(1 0 0 1 776 1971)" class="st4 st3">Leading and trailing margins on the left and right side of each symbol</text>
	<text transform="matrix(1 0 0 1 776 1989)" class="st4 st3">can be adjusted by modifying the x-location of the margin guidelines.</text>
	<text transform="matrix(1 0 0 1 776 2007)" class="st4 st3">Modifications are automatically applied proportionally to all</text>
	<text transform="matrix(1 0 0 1 776 2025)" class="st4 st3">scales and weights.</text>
	<g transform="matrix(1 0 0 1 1289 1933)">
		<path d="M2.8,1.9l1.7,1.7c0.9,0.9,1.8,0.8,2.8-0.2L18-8.4l-1-1L6.4,2.3C6,2.7,5.7,2.8,5.2,2.3L4.1,1.1C3.6,0.7,3.7,0.3,4.1,0
			l11.5-10.8l-1-1L3-0.9C2.1,0,2,1,2.8,1.9z M9.3-16.3c-0.4,0.4-0.4,1-0.2,1.4s0.7,0.6,1.3,0.4c1.5-0.3,3-0.4,4.4,0.5l-0.6,1.5
			c-0.3,0.8-0.2,1.4,0.4,2l2.3,2.3c0.5,0.5,0.9,0.5,1.5,0.4l1-0.2l0.7,0.7v0.6c0,0.5,0.1,0.9,0.6,1.4l0.8,0.7c0.5,0.5,1.1,0.5,1.6,0
			L26-7.5C26.5-8,26.4-8.6,26-9l-1-0.9c-0.5-0.5-0.9-0.6-1.3-0.6h-0.6l-0.6-0.6l0.2-1.1c0.1-0.6,0-1-0.6-1.6L19.9-16
			C16.6-19.3,12.1-19.2,9.3-16.3z M10.8-16c2.4-1.8,5.7-1.5,7.9,0.8l2.4,2.4c0.2,0.2,0.3,0.4,0.2,0.8L21-10.5L22.5-9l1-0.1
			c0.3,0,0.3,0,0.5,0.2l0.6,0.6l-2.4,2.4l-0.6-0.6c-0.2-0.2-0.2-0.3-0.2-0.5l0.1-1L20-9.5l-1.5,0.3c-0.3,0.1-0.5,0-0.7-0.2l-2-2
			c-0.3-0.2-0.3-0.4-0.1-0.8l0.9-2.1C15-15.8,13-16.4,11-15.8C10.7-15.7,10.6-15.9,10.8-16z"/>
	</g>
	<text transform="matrix(1 0 0 1 1289 1953)" class="st2 st3">Exporting</text>
	<text transform="matrix(1 0 0 1 1289 1971)" class="st4 st3">Symbols should be outlined when exporting to ensure the</text>
	<text transform="matrix(1 0 0 1 1289 1989)" class="st4 st3">design is preserved when submitting to Xcode.</text>
	<text id="template-version" transform="matrix(1 0 0 1 2952.4204 1933)" class="st4 st3">Template v.4.0</text>
	<text transform="matrix(1 0 0 1 2865.4575 1951)" class="st4 st3">Requires Xcode 14 or greater</text>
	<text id="descriptive-name" transform="matrix(1 0 0 1 2910.9966 1969)" class="st4 st3">Generated from dsfile</text>
	<text transform="matrix(1 0 0 1 2912.4175 1987)" class="st4 st3">Typeset at 100 points</text>
	<text transform="matrix(1 0 0 1 263 726)" class="st4 st3">Small</text>
	<text transform="matrix(1 0 0 1 263 1156)" class="st4 st3">Medium</text>
	<text transform="matrix(1 0 0 1 263 1586)" class="st4 st3">Large</text>
</g>
<g id="Guides">
	<g id="H-reference" transform="matrix(1 0 0 1 339 696)">
		<path class="st6" d="M1,0h2.6l25.7-67.1H30v-3.3h-1.9L1,0z M11.7-24.5H47l-0.8-2.2H12.4L11.7-24.5z M55.1,0h2.6L30.6-70.5h-1.2
			v3.3L55.1,0z"/>
	</g>
	<line id="Baseline-S" class="st7" x1="263" y1="696" x2="3036" y2="696"/>
	<line id="Capline-S" class="st7" x1="263" y1="625.5" x2="3036" y2="625.5"/>
	<g id="H-reference_1_" transform="matrix(1 0 0 1 339 1126)">
		<path class="st6" d="M1,0h2.6l25.7-67.1H30v-3.3h-1.9L1,0z M11.7-24.5H47l-0.8-2.2H12.4L11.7-24.5z M55.1,0h2.6L30.6-70.5h-1.2
			v3.3L55.1,0z"/>
	</g>
	<line id="Baseline-M" class="st7" x1="263" y1="1126" x2="3036" y2="1126"/>
	<line id="Capline-M" class="st7" x1="263" y1="1055.5" x2="3036" y2="1055.5"/>
	<g id="H-reference_2_" transform="matrix(1 0 0 1 339 1556)">
		<path class="st6" d="M1,0h2.6l25.7-67.1H30v-3.3h-1.9L1,0z M11.7-24.5H47l-0.8-2.2H12.4L11.7-24.5z M55.1,0h2.6L30.6-70.5h-1.2
			v3.3L55.1,0z"/>
	</g>
	<line id="Baseline-L" class="st7" x1="263" y1="1556" x2="3036" y2="1556"/>
	<line id="Capline-L" class="st7" x1="263" y1="1485.5" x2="3036" y2="1485.5"/>
	<line id="left-margin-Regular-M" class="st5" x1="1391.3" y1="1030.8" x2="1391.3" y2="1150.1"/>
	<line id="right-margin-Regular-M" class="st5" x1="1508.4" y1="1030.8" x2="1508.4" y2="1150.1"/>
</g>
<g id="Symbols">
	<g id="Black-L" transform="matrix(1 0 0 1 2854.19 1556)">
		<path d="M145.4-53.2c0-4.1-3.3-7.5-7.5-7.5H20.5c-4.1,0-7.5,3.3-7.5,7.5s3.3,7.5,7.5,7.5h117.4C142-45.8,145.4-49.1,145.4-53.2z
			 M145.4,17.9v-89.8c0-7.1-5.6-12.6-12.7-12.6H64.6l-7-10.6c-2.4-3.7-6.3-5.9-10.7-5.9H25.6c-7.1,0-12.7,5.5-12.7,12.6V17.9
			c0,7.1,5.6,12.6,12.7,12.6h107.1C139.8,30.5,145.4,24.9,145.4,17.9z M27.9,14.3v-89.1v-10c0-0.7,0.6-1.3,1.3-1.3h16.4L54.3-73
			c1.4,2.1,3.7,3.4,6.2,3.4h68.6c0.7,0,1.3,0.6,1.3,1.3v82.6c0,0.7-0.6,1.3-1.3,1.3H29.2C28.5,15.5,27.9,15,27.9,14.3z"/>
	</g>
	<g id="Heavy-L" transform="matrix(1 0 0 1 2558.42 1556)">
		<path d="M142.9-53.1c0-3.7-3-6.7-6.7-6.7h-116c-3.7,0-6.7,3-6.7,6.7c0,3.7,3,6.7,6.7,6.7h116C139.9-46.4,142.9-49.4,142.9-53.1z
			 M143.1,17.4v-89c0-6.6-5.2-11.8-11.9-11.8H63.5l-7.1-10.9c-2.2-3.5-5.9-5.5-10-5.5h-21c-6.6,0-11.9,5.2-11.9,11.8V17.4
			c0,6.6,5.2,11.8,11.9,11.8h105.9C137.8,29.2,143.1,24,143.1,17.4z M26.9,14.5v-91.7v-7.8c0-0.7,0.6-1.3,1.3-1.3h17.3L54.2-73
			c1.2,1.9,3.4,3,5.6,3h68.5c0.7,0,1.3,0.6,1.3,1.3v83.2c0,0.7-0.6,1.3-1.3,1.3H28.2C27.5,15.7,26.9,15.2,26.9,14.5z"/>
	</g>
	<g id="Bold-L" transform="matrix(1 0 0 1 2262.89 1556)">
		<path d="M140.5-52.9c0-3.3-2.7-6-6-6H19.7c-3.3,0-6,2.7-6,6c0,3.3,2.7,6,6,6h114.8C137.8-46.9,140.5-49.6,140.5-52.9z M140.5,16.9
			v-88.1c0-6.2-4.9-11-11.1-11H62.1l-7.3-11.1c-2.1-3.2-5.5-5.2-9.3-5.2H24.8c-6.2,0-11.1,4.9-11.1,11V16.9c0,6.2,4.9,11,11.1,11
			h104.7C135.6,27.9,140.5,23.1,140.5,16.9z M25.7,14.6v-89v-10.9c0-0.7,0.6-1.3,1.3-1.3H45L53.9-73c1.1,1.7,3,2.7,5,2.7h68.3
			c0.7,0,1.3,0.6,1.3,1.3v83.7c0,0.7-0.6,1.3-1.3,1.3H27C26.3,15.9,25.7,15.4,25.7,14.6z"/>
	</g>
	<g id="Semibold-L" transform="matrix(1 0 0 1 1966.99 1556)">
		<path d="M138.1-52.7c0-2.9-2.4-5.3-5.3-5.3H19.4c-2.9,0-5.3,2.4-5.3,5.3s2.4,5.3,5.3,5.3h113.4C135.7-47.5,138.1-49.8,138.1-52.7z
			 M138.2,16.4v-87.2c0-5.8-4.5-10.3-10.3-10.3H61l-7.4-11.2c-1.9-3-5.2-4.8-8.7-4.8H24.4c-5.8,0-10.3,4.5-10.3,10.3V16.4
			c0,5.8,4.5,10.3,10.3,10.3h103.5C133.7,26.6,138.2,22.1,138.2,16.4z M24.7,14.8l0-84.3l0-15.9c0-0.7,0.6-1.3,1.3-1.3h18.8l9,13.7
			c1,1.5,2.6,2.4,4.4,2.4l68.2,0c0.7,0,1.3,0.6,1.3,1.3l0,84.1c0,0.7-0.6,1.3-1.3,1.3L26,16.1C25.3,16.1,24.7,15.5,24.7,14.8z"/>
	</g>
	<g id="Medium-L" transform="matrix(1 0 0 1 1670.9 1556)">
		<path d="M136.3-52.6c0-2.5-2-4.6-4.6-4.6H19.5c-2.5,0-4.6,2-4.6,4.6s2,4.6,4.6,4.6h112.2C134.3-48,136.3-50,136.3-52.6z
			 M136.3,15.8v-86.4c0-5.4-4.1-9.5-9.5-9.5H60.3l-7.5-11.4c-1.8-2.8-4.8-4.5-8-4.5H24.5c-5.4,0-9.5,4.1-9.5,9.5V15.8
			c0,5.4,4.1,9.5,9.5,9.5h102.3C132.2,25.3,136.3,21.2,136.3,15.8z M44.8-86.8c0.1,0,0.2,0.1,0.4,0.3L54-73c0.8,1.3,2.3,2.1,3.8,2.1
			h68.1c0.7,0,1.3,0.6,1.3,1.3v84.6c0,0.7-0.6,1.3-1.3,1.3H25.4c-0.7,0-1.3-0.6-1.3-1.3V-85.5c0-0.7,0.6-1.3,1.3-1.3H44.8z"/>
	</g>
	<g id="Regular-L" transform="matrix(1 0 0 1 1374.99 1556)">
		<path d="M134-52.4c0-2.1-1.7-3.9-3.9-3.9H19.4c-2.1,0-3.9,1.7-3.9,3.9c0,2.1,1.7,3.9,3.9,3.9h110.8C132.3-48.5,134-50.2,134-52.4z
			 M134.2,15.3v-85.4c0-5-3.8-8.8-8.8-8.8H59.3l-7.6-11.6c-1.6-2.6-4.4-4.1-7.4-4.1H24.3c-5,0-8.8,3.8-8.8,8.8V15.3
			c0,5,3.8,8.8,8.8,8.8h101.1C130.4,24,134.2,20.3,134.2,15.3z M44.4-86.9c0.3,0,0.7,0.2,0.9,0.6L54-72.9c0.7,1.1,1.9,1.7,3.2,1.7
			h68.2c0.7,0,1,0.3,1,1v85.4c0,0.7-0.3,1-1,1H24.3c-0.7,0-1-0.3-1-1V-85.9c0-0.7,0.3-1,1-1H44.4z"/>
	</g>
	<g id="Light-L" transform="matrix(1 0 0 1 1079.2 1556)">
		<path d="M131.9-52.2c0-1.8-1.4-3.2-3.2-3.2H19.2c-1.8,0-3.2,1.4-3.2,3.2s1.4,3.2,3.2,3.2h109.5C130.4-49,131.9-50.4,131.9-52.2z
			 M132,14.7v-84.5c0-4.6-3.4-8-8-8H58.3l-7.7-11.8c-1.5-2.4-4-3.8-6.8-3.8H24c-4.6,0-8,3.5-8,8v100c0,4.6,3.4,8,8,8h100
			C128.5,22.8,132,19.3,132,14.7z M43.9-87c0.5,0,1.1,0.3,1.4,0.9l8.7,13.3c0.6,0.9,1.6,1.4,2.7,1.4H124c1,0,1.7,0.6,1.7,1.7v84.5
			c0,1-0.6,1.7-1.7,1.7H24c-1,0-1.7-0.6-1.7-1.7v-100c0-1,0.6-1.7,1.7-1.7H43.9z"/>
	</g>
	<g id="Thin-L" transform="matrix(1 0 0 1 783.716 1556)">
		<path d="M129.4-52c0-1.4-1.1-2.5-2.5-2.5H18.5c-1.4,0-2.5,1.1-2.5,2.5c0,1.4,1.1,2.5,2.5,2.5h108.4
			C128.3-49.5,129.4-50.6,129.4-52z M129.4,14.2v-83.5c0-4.2-3.1-7.3-7.3-7.3H56.9l-7.8-11.9c-1.4-2.2-3.7-3.4-6.2-3.4H23.3
			c-4.2,0-7.3,3.1-7.3,7.3v98.9c0,4.2,3.1,7.3,7.3,7.3h98.8C126.3,21.5,129.4,18.3,129.4,14.2z M42.9-87c0.7,0,1.5,0.4,1.9,1.1
			l8.6,13.1c0.5,0.7,1.3,1.1,2.1,1.1h66.6c1.4,0,2.3,0.9,2.3,2.3v83.5c0,1.4-0.9,2.3-2.3,2.3H23.3c-1.4,0-2.3-0.9-2.3-2.3v-98.9
			c0-1.4,0.9-2.3,2.3-2.3H42.9z"/>
	</g>
	<g id="Ultralight-L" transform="matrix(1 0 0 1 487.631 1556)">
		<path d="M126.4-51.8c0-1-0.8-1.9-1.9-1.9H17.6c-1,0-1.9,0.8-1.9,1.9s0.8,1.9,1.9,1.9h106.9C125.6-49.9,126.4-50.8,126.4-51.8z
			 M126.4,13.6V-69c0-3.8-2.8-6.6-6.6-6.6H55.2l-8-12.1c-1.2-1.9-3.3-3.1-5.6-3.1H22.2c-3.8,0-6.6,2.8-6.6,6.6v97.7
			c0,3.8,2.8,6.6,6.6,6.6h97.6C123.6,20.2,126.4,17.3,126.4,13.6z M41.6-87c0.9,0,1.9,0.5,2.4,1.4l8.6,12.9c0.3,0.5,0.9,0.8,1.6,0.8
			h65.7c1.7,0,2.9,1.2,2.9,2.9v82.6c0,1.7-1.1,2.9-2.9,2.9H22.2c-1.7,0-2.9-1.2-2.9-2.9v-97.7c0-1.7,1.1-2.9,2.9-2.9H41.6z"/>
	</g>
	<g id="Black-M" transform="matrix(1 0 0 1 2871.36 1126)">
		<path d="M113.3-49.2c0-3.2-2.6-5.8-5.8-5.8h-91c-3.2,0-5.8,2.6-5.8,5.8c0,3.2,2.6,5.8,5.8,5.8h91C110.7-43.4,113.3-46,113.3-49.2z
			 M113.3,5.9v-69.6c0-5.5-4.3-9.8-9.8-9.8H50.7l-5.4-8.2c-1.8-2.9-4.9-4.6-8.3-4.6H20.5c-5.5,0-9.8,4.3-9.8,9.8V5.9
			c0,5.5,4.3,9.8,9.8,9.8h83C109,15.7,113.3,11.4,113.3,5.9z M22.3,3.1V-66v-7.7c0-0.5,0.4-1,1-1H36l6.7,10.2
			c1.1,1.6,2.9,2.6,4.8,2.6h53.2c0.5,0,1,0.4,1,1v64c0,0.5-0.4,1-1,1H23.3C22.7,4.1,22.3,3.7,22.3,3.1z"/>
	</g>
	<g id="Heavy-M" transform="matrix(1 0 0 1 2575.48 1126)">
		<path d="M111.3-49.1c0-2.9-2.3-5.2-5.2-5.2H16.2c-2.9,0-5.2,2.3-5.2,5.2s2.3,5.2,5.2,5.2h89.9C109-43.9,111.3-46.2,111.3-49.1z
			 M111.4,5.5v-69c0-5.1-4-9.2-9.2-9.2H49.7L44.2-81c-1.7-2.7-4.6-4.3-7.7-4.3H20.2c-5.2,0-9.2,4-9.2,9.2V5.5c0,5.1,4,9.2,9.2,9.2
			h82.1C107.4,14.7,111.4,10.7,111.4,5.5z M21.4,3.3v-71.1v-6.1c0-0.5,0.4-1,1-1h13.4l6.8,10.3c1,1.5,2.6,2.4,4.4,2.4H100
			c0.5,0,1,0.4,1,1V3.3c0,0.5-0.4,1-1,1H22.4C21.8,4.3,21.4,3.8,21.4,3.3z"/>
	</g>
	<g id="Bold-M" transform="matrix(1 0 0 1 2279.69 1126)">
		<path d="M109.5-49c0-2.6-2.1-4.6-4.6-4.6h-89c-2.6,0-4.6,2.1-4.6,4.6c0,2.6,2.1,4.6,4.6,4.6h89C107.4-44.3,109.5-46.4,109.5-49z
			 M109.5,5.1v-68.3c0-4.8-3.8-8.6-8.6-8.6H48.7l-5.6-8.6c-1.6-2.5-4.3-4-7.2-4H19.7c-4.8,0-8.6,3.8-8.6,8.6V5.1
			c0,4.8,3.8,8.6,8.6,8.6h81.2C105.7,13.7,109.5,9.9,109.5,5.1z M20.4,3.4v-69V-74c0-0.6,0.4-1,1-1h14l6.9,10.5
			c0.9,1.3,2.3,2.1,3.9,2.1h53c0.6,0,1,0.4,1,1V3.4c0,0.6-0.4,1-1,1H21.4C20.9,4.4,20.4,4,20.4,3.4z"/>
	</g>
	<g id="Semibold-M" transform="matrix(1 0 0 1 1983.62 1126)">
		<path d="M107.5-48.8c0-2.3-1.8-4.1-4.1-4.1H15.5c-2.3,0-4.1,1.8-4.1,4.1s1.8,4.1,4.1,4.1h87.9C105.7-44.7,107.5-46.6,107.5-48.8z
			 M107.6,4.7v-67.6c0-4.5-3.5-8-8-8H47.8l-5.7-8.7c-1.5-2.3-4-3.7-6.7-3.7H19.4c-4.5,0-8,3.5-8,8V4.7c0,4.5,3.5,8,8,8h80.2
			C104.1,12.7,107.6,9.2,107.6,4.7z M19.6,3.5l0-65.3l0-12.3c0-0.6,0.4-1,1-1h14.6l6.9,10.6c0.8,1.2,2,1.8,3.4,1.8l52.9,0
			c0.6,0,1,0.4,1,1l0,65.2c0,0.6-0.4,1-1,1l-77.8,0C20.1,4.5,19.6,4.1,19.6,3.5z"/>
	</g>
	<g id="Medium-M" transform="matrix(1 0 0 1 1687.4 1126)">
		<path d="M106.2-48.7c0-2-1.6-3.5-3.5-3.5h-87c-2,0-3.5,1.6-3.5,3.5s1.6,3.5,3.5,3.5h87C104.6-45.1,106.2-46.7,106.2-48.7z
			 M106.2,4.3v-66.9c0-4.2-3.2-7.4-7.4-7.4H47.3l-5.8-8.9c-1.4-2.2-3.7-3.5-6.2-3.5H19.5c-4.2,0-7.4,3.2-7.4,7.4V4.3
			c0,4.2,3.2,7.4,7.4,7.4h79.3C103,11.7,106.2,8.5,106.2,4.3z M35.3-75.2c0.1,0,0.2,0.1,0.3,0.2l6.9,10.5c0.7,1,1.8,1.6,3,1.6h52.8
			c0.6,0,1,0.4,1,1V3.6c0,0.6-0.4,1-1,1H20.2c-0.6,0-1-0.4-1-1v-77.9c0-0.6,0.4-1,1-1H35.3z"/>
	</g>
	<g id="Regular-M" transform="matrix(1 0 0 1 1391.32 1126)">
		<path d="M104.4-48.5c0-1.7-1.3-3-3-3H15.5c-1.7,0-3,1.3-3,3s1.3,3,3,3h85.9C103.1-45.5,104.4-46.9,104.4-48.5z M104.5,3.9v-66.2
			c0-3.9-2.9-6.8-6.8-6.8H46.5l-5.9-9c-1.3-2-3.4-3.2-5.7-3.2H19.3c-3.9,0-6.8,2.9-6.8,6.8V3.9c0,3.9,2.9,6.8,6.8,6.8h78.4
			C101.6,10.7,104.5,7.8,104.5,3.9z M34.9-75.3c0.3,0,0.5,0.2,0.7,0.4l6.8,10.4c0.6,0.8,1.5,1.4,2.5,1.4h52.8c0.5,0,0.8,0.3,0.8,0.8
			V3.9c0,0.5-0.3,0.8-0.8,0.8H19.3c-0.5,0-0.8-0.3-0.8-0.8v-78.4c0-0.5,0.3-0.8,0.8-0.8H34.9z"/>
	</g>
	<g id="Light-M" transform="matrix(1 0 0 1 1095.44 1126)">
		<path d="M102.6-48.4c0-1.4-1.1-2.5-2.5-2.5H15.3c-1.4,0-2.5,1.1-2.5,2.5c0,1.4,1.1,2.5,2.5,2.5h84.9
			C101.5-45.9,102.6-47,102.6-48.4z M102.7,3.5V-62c0-3.5-2.7-6.2-6.2-6.2H45.6l-6-9.1c-1.2-1.8-3.1-2.9-5.2-2.9H19
			c-3.5,0-6.2,2.7-6.2,6.2V3.5c0,3.5,2.7,6.2,6.2,6.2h77.5C100,9.7,102.7,7,102.7,3.5z M34.4-75.4c0.4,0,0.8,0.2,1.1,0.7l6.7,10.3
			c0.5,0.7,1.2,1.1,2.1,1.1h52.2c0.8,0,1.3,0.5,1.3,1.3V3.5c0,0.8-0.5,1.3-1.3,1.3H19c-0.8,0-1.3-0.5-1.3-1.3v-77.6
			c0-0.8,0.5-1.3,1.3-1.3H34.4z"/>
	</g>
	<g id="Thin-M" transform="matrix(1 0 0 1 799.828 1126)">
		<path d="M100.6-48.2c0-1.1-0.9-2-2-2h-84c-1.1,0-2,0.9-2,2s0.9,2,2,2h84C99.7-46.3,100.6-47.2,100.6-48.2z M100.6,3v-64.8
			c0-3.2-2.4-5.7-5.7-5.7H44.3l-6-9.3c-1.1-1.7-2.8-2.7-4.8-2.7H18.3c-3.2,0-5.7,2.4-5.7,5.7V3c0,3.2,2.4,5.7,5.7,5.7h76.6
			C98.1,8.7,100.6,6.3,100.6,3z M33.5-75.4c0.6,0,1.1,0.3,1.5,0.9l6.6,10.2c0.4,0.6,1,0.9,1.6,0.9h51.6c1.1,0,1.8,0.7,1.8,1.8V3
			c0,1.1-0.7,1.8-1.8,1.8H18.3c-1.1,0-1.8-0.7-1.8-1.8v-76.7c0-1.1,0.7-1.8,1.8-1.8H33.5z"/>
	</g>
	<g id="Ultralight-M" transform="matrix(1 0 0 1 503.679 1126)">
		<path d="M97.9-48.1c0-0.8-0.6-1.4-1.4-1.4H13.6c-0.8,0-1.4,0.6-1.4,1.4s0.6,1.4,1.4,1.4h82.9C97.3-46.6,97.9-47.3,97.9-48.1z
			 M97.9,2.6v-64c0-2.9-2.2-5.1-5.1-5.1H42.7l-6.2-9.4c-1-1.5-2.6-2.4-4.3-2.4h-15c-2.9,0-5.1,2.2-5.1,5.1V2.6
			c0,2.9,2.2,5.1,5.1,5.1h75.7C95.7,7.7,97.9,5.5,97.9,2.6z M32.2-75.4c0.7,0,1.4,0.4,1.9,1.1l6.7,10c0.3,0.4,0.7,0.6,1.2,0.6h50.9
			c1.3,0,2.2,0.9,2.2,2.2v64c0,1.3-0.9,2.2-2.2,2.2H17.2c-1.3,0-2.2-0.9-2.2-2.2v-75.8c0-1.3,0.9-2.2,2.2-2.2H32.2z"/>
	</g>
	<g id="Black-S" transform="matrix(1 0 0 1 2884.57 696)">
		<path d="M89-46.1c0-2.5-2-4.5-4.5-4.5H13.2c-2.5,0-4.5,2-4.5,4.5c0,2.5,2,4.5,4.5,4.5h71.3C86.9-41.6,89-43.6,89-46.1z M89-2.9
			v-54.5c0-4.3-3.4-7.7-7.7-7.7H39.9l-4.3-6.5c-1.4-2.2-3.9-3.6-6.5-3.6H16.3c-4.3,0-7.7,3.4-7.7,7.7v64.5c0,4.3,3.4,7.7,7.7,7.7h65
			C85.6,4.7,89,1.4,89-2.9z M17.7-5.1v-54.1v-6.1c0-0.4,0.3-0.8,0.8-0.8h10l5.3,8c0.8,1.3,2.3,2,3.8,2h41.6c0.4,0,0.8,0.3,0.8,0.8
			v50.1c0,0.4-0.3,0.8-0.8,0.8H18.5C18-4.3,17.7-4.7,17.7-5.1z"/>
	</g>
	<g id="Heavy-S" transform="matrix(1 0 0 1 2588.47 696)">
		<path d="M87.5-46c0-2.3-1.8-4.1-4.1-4.1H13c-2.3,0-4.1,1.8-4.1,4.1s1.8,4.1,4.1,4.1h70.4C85.6-41.9,87.5-43.7,87.5-46z M87.5-3.2
			v-54c0-4-3.2-7.2-7.2-7.2H39.2L34.9-71c-1.3-2.1-3.6-3.3-6.1-3.3H16.1c-4,0-7.2,3.2-7.2,7.2v63.9c0,4,3.2,7.2,7.2,7.2h64.3
			C84.4,3.9,87.5,0.8,87.5-3.2z M17-5v-55.7v-4.8c0-0.4,0.3-0.8,0.8-0.8h10.5l5.3,8.1c0.8,1.1,2,1.8,3.4,1.8h41.6
			c0.4,0,0.8,0.3,0.8,0.8V-5c0,0.4-0.3,0.8-0.8,0.8H17.8C17.4-4.2,17-4.6,17-5z"/>
	</g>
	<g id="Bold-S" transform="matrix(1 0 0 1 2292.43 696)">
		<path d="M86-45.9c0-2-1.6-3.6-3.6-3.6H12.7c-2,0-3.6,1.6-3.6,3.6c0,2,1.6,3.6,3.6,3.6h69.7C84.4-42.3,86-43.9,86-45.9z M86-3.5
			V-57c0-3.8-2.9-6.7-6.7-6.7H38.5l-4.4-6.7c-1.3-2-3.4-3.1-5.7-3.1H15.8c-3.8,0-6.7,2.9-6.7,6.7v63.3c0,3.8,2.9,6.7,6.7,6.7h63.5
			C83.1,3.2,86,0.2,86-3.5z M16.3-4.9v-54v-6.6c0-0.4,0.3-0.8,0.8-0.8h11l5.4,8.2c0.7,1,1.8,1.6,3,1.6H78c0.4,0,0.8,0.3,0.8,0.8
			v50.8c0,0.4-0.3,0.8-0.8,0.8H17.1C16.7-4.1,16.3-4.5,16.3-4.9z"/>
	</g>
	<g id="Semibold-S" transform="matrix(1 0 0 1 1996.19 696)">
		<path d="M84.6-45.8c0-1.8-1.4-3.2-3.2-3.2H12.5c-1.8,0-3.2,1.4-3.2,3.2s1.4,3.2,3.2,3.2h68.8C83.1-42.6,84.6-44,84.6-45.8z
			 M84.6-3.8v-53c0-3.5-2.7-6.2-6.2-6.2H37.8l-4.5-6.8c-1.2-1.8-3.1-2.9-5.3-2.9H15.6c-3.5,0-6.2,2.7-6.2,6.2v62.7
			c0,3.5,2.7,6.2,6.2,6.2h62.8C81.9,2.4,84.6-0.4,84.6-3.8z M15.7-4.8l0-51.1l0-9.7c0-0.4,0.3-0.8,0.8-0.8h11.4l5.4,8.3
			c0.6,0.9,1.6,1.4,2.7,1.4l41.4,0c0.4,0,0.8,0.3,0.8,0.8l0,51.1c0,0.4-0.3,0.8-0.8,0.8L16.5-4C16.1-4,15.7-4.4,15.7-4.8z"/>
	</g>
	<g id="Medium-S" transform="matrix(1 0 0 1 1699.83 696)">
		<path d="M83.5-45.7c0-1.5-1.2-2.8-2.8-2.8H12.7c-1.5,0-2.8,1.2-2.8,2.8c0,1.5,1.2,2.8,2.8,2.8h68.1C82.3-42.9,83.5-44.1,83.5-45.7
			z M83.5-4.2v-52.4c0-3.3-2.5-5.8-5.8-5.8H37.4l-4.5-6.9C31.8-71,30-72,28-72H15.7c-3.3,0-5.8,2.5-5.8,5.8v62.1
			c0,3.3,2.5,5.8,5.8,5.8h62.1C81.1,1.6,83.5-0.9,83.5-4.2z M28-66.5c0.1,0,0.1,0,0.2,0.2l5.4,8.2c0.5,0.8,1.4,1.3,2.3,1.3h41.3
			c0.4,0,0.8,0.4,0.8,0.8v51.3c0,0.4-0.4,0.8-0.8,0.8h-61c-0.4,0-0.8-0.4-0.8-0.8v-61c0-0.4,0.4-0.8,0.8-0.8H28z"/>
	</g>
	<g id="Regular-S" transform="matrix(1 0 0 1 1403.58 696)">
		<path d="M82.2-45.6c0-1.3-1.1-2.3-2.3-2.3H12.6c-1.3,0-2.3,1.1-2.3,2.3c0,1.3,1.1,2.3,2.3,2.3h67.3C81.1-43.2,82.2-44.3,82.2-45.6
			z M82.3-4.5v-51.9c0-3-2.3-5.3-5.3-5.3H36.8l-4.6-7c-1-1.6-2.7-2.5-4.5-2.5H15.5c-3,0-5.3,2.3-5.3,5.3v61.4c0,3,2.3,5.3,5.3,5.3
			h61.4C80,0.8,82.3-1.5,82.3-4.5z M27.7-66.5c0.2,0,0.4,0.1,0.5,0.3l5.3,8.1c0.4,0.7,1.2,1.1,2,1.1h41.4c0.4,0,0.6,0.2,0.6,0.6
			v51.9c0,0.4-0.2,0.6-0.6,0.6H15.5c-0.4,0-0.6-0.2-0.6-0.6v-61.4c0-0.4,0.2-0.6,0.6-0.6H27.7z"/>
	</g>
	<g id="Light-S" transform="matrix(1 0 0 1 1107.6 696)">
		<path d="M80.7-45.4c0-1.1-0.9-1.9-1.9-1.9H12.3c-1.1,0-1.9,0.9-1.9,1.9c0,1.1,0.9,1.9,1.9,1.9h66.5C79.9-43.5,80.7-44.4,80.7-45.4
			z M80.8-4.8v-51.3c0-2.8-2.1-4.9-4.9-4.9H36.1l-4.7-7.1c-0.9-1.4-2.4-2.3-4.1-2.3H15.3c-2.8,0-4.9,2.1-4.9,4.9v60.7
			c0,2.8,2.1,4.9,4.9,4.9h60.7C78.7,0,80.8-2.1,80.8-4.8z M27.3-66.6c0.3,0,0.6,0.2,0.9,0.5l5.3,8c0.4,0.5,1,0.9,1.6,0.9h40.9
			c0.6,0,1,0.4,1,1v51.3c0,0.6-0.4,1-1,1H15.3c-0.6,0-1-0.4-1-1v-60.7c0-0.6,0.4-1,1-1H27.3z"/>
	</g>
	<g id="Thin-S" transform="matrix(1 0 0 1 811.863 696)">
		<path d="M79-45.3c0-0.8-0.7-1.5-1.5-1.5H11.7c-0.8,0-1.5,0.7-1.5,1.5s0.7,1.5,1.5,1.5h65.8C78.3-43.8,79-44.5,79-45.3z M79-5.2
			v-50.7c0-2.5-1.9-4.4-4.4-4.4H35l-4.7-7.2c-0.8-1.3-2.2-2.1-3.7-2.1H14.6c-2.5,0-4.4,1.9-4.4,4.4v60c0,2.5,1.9,4.4,4.4,4.4h60
			C77.1-0.7,79-2.7,79-5.2z M26.5-66.6c0.5,0,0.9,0.3,1.2,0.7l5.2,8c0.3,0.4,0.8,0.7,1.3,0.7h40.4c0.8,0,1.4,0.5,1.4,1.4v50.7
			c0,0.8-0.5,1.4-1.4,1.4h-60c-0.8,0-1.4-0.5-1.4-1.4v-60c0-0.8,0.5-1.4,1.4-1.4H26.5z"/>
	</g>
	<g id="Ultralight-S" transform="matrix(1 0 0 1 515.649 696)">
		<path d="M76.7-45.2c0-0.6-0.5-1.1-1.1-1.1H10.6c-0.6,0-1.1,0.5-1.1,1.1c0,0.6,0.5,1.1,1.1,1.1h64.9C76.1-44.1,76.7-44.6,76.7-45.2
			z M76.7-5.5v-50.1c0-2.3-1.7-4-4-4H33.4L28.6-67c-0.8-1.2-2-1.9-3.4-1.9H13.4c-2.3,0-4,1.7-4,4v59.3c0,2.3,1.7,4,4,4h59.3
			C74.9-1.5,76.7-3.3,76.7-5.5z M25.2-66.6c0.6,0,1.1,0.3,1.5,0.9l5.2,7.9c0.2,0.3,0.6,0.5,0.9,0.5h39.9c1,0,1.7,0.7,1.7,1.7v50.1
			c0,1-0.7,1.7-1.7,1.7H13.4c-1,0-1.7-0.7-1.7-1.7v-59.3c0-1,0.7-1.7,1.7-1.7H25.2z"/>
	</g>
</g>
</svg>
