<?xml version="1.0" encoding="utf-8"?>
<!-- Generator: Adobe Illustrator 27.5.0, SVG Export Plug-In . SVG Version: 6.00 Build 0)  -->
<svg version="1.1" id="Layer_1" xmlns="http://www.w3.org/2000/svg" xmlns:xlink="http://www.w3.org/1999/xlink" x="0px" y="0px"
	 viewBox="0 0 3300 2200" style="enable-background:new 0 0 3300 2200;" xml:space="preserve">
<style type="text/css">
	.st0{fill:#FFFFFF;}
	.st1{fill:none;stroke:#000000;stroke-width:0.5;}
	.st2{font-family:'Helvetica-Bold';}
	.st3{font-size:13px;}
	.st4{font-family:'Helvetica';}
	.st5{fill:none;stroke:#00AEEF;stroke-width:0.5;}
	.st6{fill:#27AAE1;}
	.st7{fill:none;stroke:#27AAE1;stroke-width:0.5;}
</style>
<g id="Notes">
	<rect id="artboard" class="st0" width="3300" height="2200"/>
	<line class="st1" x1="263" y1="292" x2="3036" y2="292"/>
	<text transform="matrix(1 0 0 1 263 322)" class="st2 st3">Weight/Scale Variations</text>
	<text transform="matrix(1 0 0 1 534.0633 322)" class="st4 st3">Ultralight</text>
	<text transform="matrix(1 0 0 1 843.7775 322)" class="st4 st3">Thin</text>
	<text transform="matrix(1 0 0 1 1139.035 322)" class="st4 st3">Light</text>
	<text transform="matrix(1 0 0 1 1427.0773 322)" class="st4 st3">Regular</text>
	<text transform="matrix(1 0 0 1 1723.4419 322)" class="st4 st3">Medium</text>
	<text transform="matrix(1 0 0 1 2016.1719 322)" class="st4 st3">Semibold</text>
	<text transform="matrix(1 0 0 1 2326.9705 322)" class="st4 st3">Bold</text>
	<text transform="matrix(1 0 0 1 2618.2659 322)" class="st4 st3">Heavy</text>
	<text transform="matrix(1 0 0 1 2917.5054 322)" class="st4 st3">Black</text>
	<line class="st1" x1="263" y1="1903" x2="3036" y2="1903"/>
	<g transform="matrix(1 0 0 1 263 1933)">
		<path d="M9.2,0.8c4.3,0,7.9-3.6,7.9-7.9c0-4.3-3.6-7.9-7.9-7.9c-4.3,0-7.9,3.6-7.9,7.9C1.4-2.7,5,0.8,9.2,0.8z M9.2-0.7
			c-3.5,0-6.4-2.8-6.4-6.4c0-3.6,2.8-6.4,6.4-6.4c3.6,0,6.4,2.8,6.4,6.4C15.6-3.5,12.8-0.7,9.2-0.7z M5.7-7.1c0,0.4,0.3,0.7,0.8,0.7
			h2.1v2.1c0,0.4,0.3,0.7,0.7,0.7c0.4,0,0.7-0.3,0.7-0.7v-2.1h2.1c0.4,0,0.7-0.3,0.7-0.7c0-0.4-0.3-0.7-0.7-0.7H10v-2.1
			c0-0.4-0.3-0.8-0.7-0.8c-0.4,0-0.7,0.3-0.7,0.8v2.1H6.4C6-7.8,5.7-7.5,5.7-7.1z"/>
	</g>
	<g transform="matrix(1 0 0 1 281.867 1933)">
		<path d="M11.7,2.9c5.4,0,10-4.5,10-10c0-5.4-4.5-10-10-10c-5.4,0-10,4.5-10,10C1.7-1.6,6.3,2.9,11.7,2.9z M11.7,1.2
			c-4.6,0-8.3-3.7-8.3-8.3c0-4.6,3.7-8.3,8.3-8.3c4.6,0,8.3,3.7,8.3,8.3C20-2.4,16.3,1.2,11.7,1.2z M7.2-7.1c0,0.5,0.3,0.8,0.8,0.8
			h2.9v2.9c0,0.5,0.3,0.8,0.8,0.8c0.5,0,0.8-0.3,0.8-0.8v-2.9h2.9c0.5,0,0.8-0.3,0.8-0.8c0-0.5-0.3-0.8-0.8-0.8h-2.9v-2.9
			c0-0.5-0.3-0.8-0.8-0.8c-0.5,0-0.8,0.3-0.8,0.8v2.9H8C7.5-7.9,7.2-7.5,7.2-7.1z"/>
	</g>
	<g transform="matrix(1 0 0 1 305.646 1933)">
		<path d="M15,5.7c7,0,12.7-5.8,12.7-12.7c0-7-5.8-12.7-12.7-12.7C8-19.8,2.3-14,2.3-7.1C2.3-0.1,8,5.7,15,5.7z M15,3.8
			C8.9,3.8,4.1-1,4.1-7.1c0-6,4.8-10.9,10.9-10.9c6,0,10.9,4.9,10.9,10.9C25.9-1,21,3.8,15,3.8z M9.2-7.1c0,0.5,0.4,0.9,0.9,0.9h3.9
			v4c0,0.5,0.4,0.9,0.9,0.9c0.5,0,0.9-0.4,0.9-0.9v-4h4c0.5,0,0.9-0.4,0.9-0.9c0-0.5-0.4-0.9-0.9-0.9h-4v-3.9c0-0.5-0.4-0.9-0.9-0.9
			c-0.5,0-0.9,0.4-0.9,0.9V-8h-3.9C9.6-8,9.2-7.6,9.2-7.1z"/>
	</g>
	<text transform="matrix(1 0 0 1 263 1953)" class="st2 st3">Design Variations</text>
	<text transform="matrix(1 0 0 1 263 1971)" class="st4 st3">Symbols are supported in up to nine weights and three scales.</text>
	<text transform="matrix(1 0 0 1 263 1989)" class="st4 st3">For optimal layout with text and other symbols, vertically align</text>
	<text transform="matrix(1 0 0 1 263 2007)" class="st4 st3">symbols with the adjacent text.</text>
	<line class="st5" x1="776" y1="1919" x2="776" y2="1933"/>
	<g transform="matrix(1 0 0 1 776 1933)">
		<path d="M3.3,0.2c0.5,0,0.8-0.2,1-0.7L5.5-4h5.8l1.3,3.4C12.7,0,13,0.2,13.5,0.2c0.5,0,0.8-0.3,0.8-0.8c0-0.2,0-0.3-0.1-0.5
			L9.7-13.4C9.4-14,9-14.3,8.4-14.3c-0.6,0-1,0.3-1.2,0.9L2.6-1.2C2.5-1,2.5-0.8,2.5-0.6C2.5-0.1,2.8,0.2,3.3,0.2z M6-5.5l2.4-6.6h0
			l2.4,6.6H6z"/>
	</g>
	<line class="st5" x1="793.2" y1="1919" x2="793.2" y2="1933"/>
	<text transform="matrix(1 0 0 1 776 1953)" class="st2 st3">Margins</text>
	<text transform="matrix(1 0 0 1 776 1971)" class="st4 st3">Leading and trailing margins on the left and right side of each symbol</text>
	<text transform="matrix(1 0 0 1 776 1989)" class="st4 st3">can be adjusted by modifying the x-location of the margin guidelines.</text>
	<text transform="matrix(1 0 0 1 776 2007)" class="st4 st3">Modifications are automatically applied proportionally to all</text>
	<text transform="matrix(1 0 0 1 776 2025)" class="st4 st3">scales and weights.</text>
	<g transform="matrix(1 0 0 1 1289 1933)">
		<path d="M2.8,1.9l1.7,1.7c0.9,0.9,1.8,0.8,2.8-0.2L18-8.4l-1-1L6.4,2.3c-0.4,0.4-0.7,0.5-1.2,0L4.1,1.1C3.6,0.7,3.7,0.3,4.1,0
			l11.5-10.8l-1-1L3-0.9C2.1,0,2,1,2.8,1.9z M9.3-16.3c-0.4,0.4-0.4,1-0.2,1.4c0.2,0.4,0.7,0.6,1.3,0.4c1.5-0.3,3-0.4,4.4,0.5
			l-0.6,1.5c-0.3,0.8-0.2,1.4,0.4,2l2.3,2.3c0.5,0.5,0.9,0.5,1.5,0.4L19.4-8l0.7,0.7l0,0.6c0,0.5,0.1,0.9,0.6,1.4l0.8,0.7
			c0.5,0.5,1.1,0.5,1.6,0l2.9-2.9c0.5-0.5,0.4-1.1,0-1.5L25-9.9c-0.5-0.5-0.8-0.6-1.3-0.6l-0.6,0l-0.6-0.6l0.2-1.1
			c0.1-0.6,0-1-0.6-1.6L19.9-16C16.6-19.3,12.1-19.2,9.3-16.3z M10.8-16c2.4-1.8,5.7-1.5,7.9,0.8l2.4,2.4c0.2,0.2,0.3,0.4,0.2,0.8
			L21-10.5l1.5,1.5l1-0.1c0.3,0,0.3,0,0.5,0.2l0.6,0.6l-2.4,2.4l-0.6-0.6c-0.2-0.2-0.2-0.3-0.2-0.5l0.1-1L20-9.5l-1.5,0.3
			c-0.3,0.1-0.5,0-0.7-0.2l-2-2c-0.3-0.2-0.3-0.4-0.1-0.8l0.9-2.1c-1.6-1.5-3.6-2.1-5.6-1.5C10.7-15.7,10.6-15.8,10.8-16z"/>
	</g>
	<text transform="matrix(1 0 0 1 1289 1953)" class="st2 st3">Exporting</text>
	<text transform="matrix(1 0 0 1 1289 1971)" class="st4 st3">Symbols should be outlined when exporting to ensure the</text>
	<text transform="matrix(1 0 0 1 1289 1989)" class="st4 st3">design is preserved when submitting to Xcode.</text>
	<text id="template-version" transform="matrix(1 0 0 1 2952.4141 1933)" class="st4 st3">Template v.4.0</text>
	<text transform="matrix(1 0 0 1 2865.4575 1951)" class="st4 st3">Requires Xcode 14 or greater</text>
	<text id="descriptive-name" transform="matrix(1 0 0 1 2888.5884 1969)" class="st4 st3">Generated from clipboard</text>
	<text transform="matrix(1 0 0 1 2912.4111 1987)" class="st4 st3">Typeset at 100 points</text>
	<text transform="matrix(1 0 0 1 263 726)" class="st4 st3">Small</text>
	<text transform="matrix(1 0 0 1 263 1156)" class="st4 st3">Medium</text>
	<text transform="matrix(1 0 0 1 263 1586)" class="st4 st3">Large</text>
</g>
<g id="Guides">
	<g id="H-reference" transform="matrix(1 0 0 1 339 696)">
		<path class="st6" d="M1,0h2.6l25.7-67.1H30v-3.3h-1.9L1,0z M11.7-24.5H47l-0.8-2.2H12.4L11.7-24.5z M55.1,0h2.6L30.6-70.5h-1.2
			v3.3L55.1,0z"/>
	</g>
	<line id="Baseline-S" class="st7" x1="263" y1="696" x2="3036" y2="696"/>
	<line id="Capline-S" class="st7" x1="263" y1="625.5" x2="3036" y2="625.5"/>
	<g id="H-reference_00000181066169351809344920000001838932408179133337_" transform="matrix(1 0 0 1 339 1126)">
		<path class="st6" d="M1,0h2.6l25.7-67.1H30v-3.3h-1.9L1,0z M11.7-24.5H47l-0.8-2.2H12.4L11.7-24.5z M55.1,0h2.6L30.6-70.5h-1.2
			v3.3L55.1,0z"/>
	</g>
	<line id="Baseline-M" class="st7" x1="263" y1="1126" x2="3036" y2="1126"/>
	<line id="Capline-M" class="st7" x1="263" y1="1055.5" x2="3036" y2="1055.5"/>
	<g id="H-reference_00000113327307052074902060000003793424406425130912_" transform="matrix(1 0 0 1 339 1556)">
		<path class="st6" d="M1,0h2.6l25.7-67.1H30v-3.3h-1.9L1,0z M11.7-24.5H47l-0.8-2.2H12.4L11.7-24.5z M55.1,0h2.6L30.6-70.5h-1.2
			v3.3L55.1,0z"/>
	</g>
	<line id="Baseline-L" class="st7" x1="263" y1="1556" x2="3036" y2="1556"/>
	<line id="Capline-L" class="st7" x1="263" y1="1485.5" x2="3036" y2="1485.5"/>
	<line id="left-margin-Regular-M" class="st5" x1="1396.3" y1="1030.8" x2="1396.3" y2="1150.1"/>
	<line id="right-margin-Regular-M" class="st5" x1="1503.4" y1="1030.8" x2="1503.4" y2="1150.1"/>
</g>
<g id="Symbols">
	<g id="Semibold-L" transform="matrix(1 0 0 1 1973.23 1556)">
		<path d="M36.5,38h67c13.2,0,20.5-7.3,20.5-20.7v-95.9c0-13.2-7.1-20.7-20-20.7h-2c0.3,0.9,0.4,1.9,0.4,2.9v5.4
			c0,1.3-0.2,2.6-0.5,3.7h1.8c5.5,0,8.3,3.4,8.3,8.8v95.6c0,5.7-3.1,8.9-9,8.9H37c-5.9,0-9-3.2-9-8.9v-95.6c0-5.5,2.9-8.8,8.4-8.8
			h1.9c-0.4-1.1-0.6-2.4-0.6-3.7v-5.4c0-1,0.1-2,0.4-2.9h-2c-12.9,0-20,7.5-20,20.7v95.9C16.1,30.7,23.3,38,36.5,38z M50.7-83.6
			h38.6c3.7,0,6-2.3,6-6.2v-6.6c0-3.9-2.2-6.2-6-6.2h-5.5c-0.4-7.3-6.4-13.1-13.8-13.1c-7.4,0-13.4,5.8-13.9,13.1h-5.5
			c-3.7,0-5.9,2.3-5.9,6.2v6.6C44.8-85.9,47-83.6,50.7-83.6z M70-96.5c-3.1,0-5.7-2.6-5.7-5.7c0-3.1,2.5-5.6,5.7-5.6
			c3.1,0,5.6,2.5,5.6,5.6C75.7-99.1,73.2-96.5,70-96.5z"/>
		<path d="M53.7-26c-1.8,0-3-1.3-3-3.1c0-1.8,1.3-3.1,3-3.1h13.2v-18.1c0-1.8,1.3-3.1,3.1-3.1c1.8,0,3.2,1.3,3.2,3.1v21.2
			c0,1.8-1.4,3.1-3.2,3.1H53.7z M70,2.7c18.3,0,33.3-15.1,33.3-33.3c0-18.2-15-33.3-33.3-33.3c-18.2,0-33.2,15.1-33.2,33.3
			C36.7-12.4,51.8,2.7,70,2.7z"/>
	</g>
	<g id="Regular-L" transform="matrix(1 0 0 1 1381.33 1556)">
		<path d="M34.9,37h67.2c12.5,0,18.9-6.3,18.9-19v-96.6c0-12.4-6.2-19-18.3-19h-2.6c0.1,0.5,0.1,1,0.1,1.4v4.8
			c0,0.8-0.1,1.7-0.2,2.5h2.5c6.5,0,9.8,3.9,9.8,10.5v96.2c0,6.8-3.6,10.5-10.6,10.5H35.4c-7,0-10.6-3.7-10.6-10.5v-96.2
			c0-6.5,3.3-10.5,9.8-10.5h2.5c-0.2-0.8-0.2-1.6-0.2-2.5v-4.8c0-0.5,0-1,0.1-1.4h-2.6c-12.2,0-18.3,6.6-18.3,19V18
			C16.1,30.7,22.4,37,34.9,37z M49.2-84h38.6c3.4,0,5.5-2.1,5.5-5.7v-6.5c0-3.6-2.1-5.7-5.5-5.7h-6.3c-0.3-6.9-6-12.4-13-12.4
			c-7,0-12.7,5.5-13,12.4h-6.3c-3.4,0-5.5,2.1-5.5,5.7v6.5C43.7-86.1,45.7-84,49.2-84z M68.5-95.9c-3.1,0-5.6-2.5-5.6-5.6
			c0-3.1,2.5-5.6,5.6-5.6c3.1,0,5.6,2.5,5.6,5.6C74.1-98.4,71.6-95.9,68.5-95.9z"/>
		<path d="M50.8-26.2c-1.6,0-2.7-1.1-2.7-2.7c0-1.6,1.1-2.7,2.7-2.7h15v-20.2c0-1.6,1.2-2.7,2.7-2.7c1.6,0,2.8,1.1,2.8,2.7v22.9
			c0,1.6-1.3,2.7-2.8,2.7H50.8z M68.5,3.6c18.6,0,33.8-15.3,33.8-33.8S87.1-64.1,68.5-64.1c-18.5,0-33.8,15.3-33.8,33.8
			S50,3.6,68.5,3.6z"/>
	</g>
	<g id="Semibold-M" transform="matrix(1 0 0 1 1988.48 1126)">
		<path d="M28.9,21.9h51.8c10.6,0,16.5-5.9,16.5-16.6v-73.8c0-10.5-5.7-16.6-16.1-16.6H80c0.3,0.8,0.4,1.7,0.4,2.6v4.6
			c0,1.2-0.2,2.3-0.5,3.3h0.9c3.8,0,5.8,2.4,5.8,6.2V5.1c0,4-2.2,6.3-6.3,6.3H29.3c-4.2,0-6.4-2.3-6.4-6.3v-73.5
			c0-3.8,2-6.2,5.8-6.2h0.9c-0.4-1-0.5-2.1-0.5-3.3v-4.6c0-0.9,0.1-1.8,0.4-2.6h-1.1c-10.3,0-16.1,6.1-16.1,16.6V5.2
			C12.5,15.9,18.3,21.9,28.9,21.9z M39.8-72.3h30c3,0,4.9-1.9,4.9-5.1v-5.1c0-3.2-1.8-5.1-4.9-5.1h-3.9c-0.4-5.8-5.2-10.4-11.1-10.4
			c-5.9,0-10.8,4.6-11.2,10.4h-3.9c-3,0-4.8,1.9-4.8,5.1v5.1C34.9-74.2,36.7-72.3,39.8-72.3z M54.8-83c-2.4,0-4.4-2-4.4-4.4
			c0-2.4,2-4.3,4.4-4.3c2.4,0,4.3,1.9,4.3,4.3C59.1-85,57.2-83,54.8-83z"/>
		<path d="M42.6-27.9c-1.5,0-2.6-1.1-2.6-2.6c0-1.5,1.1-2.6,2.6-2.6h9.6v-13.2c0-1.5,1.1-2.6,2.6-2.6c1.5,0,2.7,1.1,2.7,2.6v15.8
			c0,1.5-1.2,2.6-2.7,2.6H42.6z M54.8-6c14.1,0,25.7-11.6,25.7-25.7c0-14.1-11.6-25.7-25.7-25.7c-14.1,0-25.6,11.6-25.6,25.7
			C29.1-17.6,40.7-6,54.8-6z"/>
	</g>
	<g id="Regular-M" transform="matrix(1 0 0 1 1396.32 1126)">
		<path d="M27.6,21.1h51.9c10.1,0,15.2-5.1,15.2-15.3v-74c0-10-4.9-15.3-14.6-15.3h-1.2c0.1,0.4,0.1,0.9,0.1,1.2v4.4
			c0,0.8-0.1,1.6-0.2,2.3h1.1c4.6,0,6.9,2.9,6.9,7.5V5.6c0,4.9-2.6,7.6-7.7,7.6H28c-5.1,0-7.7-2.7-7.7-7.6v-73.8
			c0-4.6,2.3-7.5,6.9-7.5h1.2c-0.2-0.7-0.2-1.5-0.2-2.3v-4.4c0-0.4,0-0.9,0.1-1.2h-1.2c-9.8,0-14.6,5.3-14.6,15.3v74
			C12.5,16,17.5,21.1,27.6,21.1z M38.4-72.4h30.1c2.9,0,4.6-1.8,4.6-4.8v-5.1c0-3-1.7-4.8-4.6-4.8h-4.5c-0.3-5.5-4.9-10-10.6-10
			c-5.7,0-10.3,4.5-10.6,10h-4.5c-2.9,0-4.6,1.8-4.6,4.8v5.1C33.9-74.2,35.6-72.4,38.4-72.4z M53.5-82.5c-2.3,0-4.3-2-4.3-4.3
			c0-2.4,1.9-4.2,4.3-4.2c2.3,0,4.2,1.9,4.2,4.2C57.8-84.5,55.9-82.5,53.5-82.5z"/>
		<path d="M40.2-27.9c-1.4,0-2.3-1-2.3-2.4c0-1.4,1-2.3,2.3-2.3h11v-14.9c0-1.4,1-2.4,2.3-2.4c1.4,0,2.4,1,2.4,2.4v17.2
			c0,1.4-1.1,2.4-2.4,2.4H40.2z M53.5-5.1c14.4,0,26.2-11.9,26.2-26.2c0-14.3-11.8-26.2-26.2-26.2c-14.3,0-26.1,11.9-26.1,26.2
			C27.3-17,39.2-5.1,53.5-5.1z"/>
	</g>
	<g id="Semibold-S" transform="matrix(1 0 0 1 2000.02 696)">
		<path d="M23,9.7h40.5C72,9.7,76.7,5,76.7-3.7v-57.4c0-8.5-4.6-13.4-12.9-13.4h-0.4c0.3,0.7,0.4,1.4,0.4,2.2v4c0,1-0.1,2-0.5,2.9
			h0.3c2.7,0,4.1,1.8,4.1,4.5v57.2c0,2.9-1.6,4.5-4.6,4.5H23.4c-3,0-4.6-1.7-4.6-4.5V-61c0-2.7,1.4-4.5,4.1-4.5h0.3
			c-0.3-0.9-0.5-1.8-0.5-2.9v-4c0-0.8,0.1-1.5,0.4-2.2h-0.4c-8.3,0-12.9,4.9-12.9,13.4v57.4C9.8,5,14.5,9.7,23,9.7z M31.4-64H55
			c2.5,0,4-1.6,4-4.3v-4.1c0-2.7-1.5-4.3-4-4.3h-2.8c-0.3-4.7-4.2-8.4-9-8.4c-4.8,0-8.7,3.7-9.1,8.4h-2.8c-2.5,0-4,1.6-4,4.3v4.1
			C27.5-65.6,28.9-64,31.4-64z M43.2-72.8c-1.9,0-3.4-1.6-3.4-3.4c0-1.9,1.5-3.4,3.4-3.4c1.9,0,3.4,1.5,3.4,3.4
			C46.6-74.4,45.1-72.8,43.2-72.8z"/>
		<path d="M34-29.3c-1.2,0-2.1-0.9-2.1-2.2c0-1.2,0.9-2.1,2.1-2.1h7.1v-9.9c0-1.2,0.9-2.2,2.2-2.2c1.2,0,2.2,0.9,2.2,2.2v12
			c0,1.2-1,2.2-2.2,2.2H34z M43.2-12.3c11,0,20.1-9.1,20.1-20.1s-9.1-20.1-20.1-20.1c-11,0-20,9.1-20,20.1S32.3-12.3,43.2-12.3z"/>
	</g>
	<g id="Regular-S" transform="matrix(1 0 0 1 1407.56 696)">
		<path d="M22,9.1h40.5c8.2,0,12.3-4.1,12.3-12.5v-57.4c0-8.1-3.9-12.5-11.8-12.5h-0.3c0,0.3,0,0.7,0,1.1v4c0,0.7,0,1.4-0.2,2.1h0.3
			c3.2,0,4.8,2.2,4.8,5.5v57.2c0,3.5-1.9,5.5-5.6,5.5H22.4c-3.7,0-5.6-2-5.6-5.5v-57.2c0-3.3,1.6-5.5,4.9-5.5H22
			c-0.1-0.6-0.2-1.3-0.2-2.1v-4c0-0.3,0-0.7,0-1.1h-0.3c-7.9,0-11.8,4.3-11.8,12.5v57.4C9.8,5,13.8,9.1,22,9.1z M30.4-63.9h23.8
			c2.4,0,3.9-1.5,3.9-4.1v-4.1c0-2.6-1.5-4.1-3.9-4.1H51c-0.3-4.5-4.1-8.1-8.7-8.1c-4.6,0-8.4,3.6-8.7,8.1h-3.2
			c-2.4,0-3.8,1.5-3.8,4.1v4.1C26.6-65.4,28-63.9,30.4-63.9z M42.3-72.6c-1.8,0-3.3-1.5-3.3-3.3c0-1.8,1.5-3.3,3.3-3.3
			c1.8,0,3.3,1.5,3.3,3.3C45.6-74.1,44.1-72.6,42.3-72.6z"/>
		<path d="M32.1-29.3c-1.2,0-2-0.8-2-2.1c0-1.2,0.8-2,2-2h8.1v-11c0-1.2,0.9-2.1,2-2.1c1.2,0,2.1,0.9,2.1,2.1v13
			c0,1.2-0.9,2.1-2.1,2.1H32.1z M42.3-11.5c11.2,0,20.5-9.3,20.5-20.5s-9.3-20.5-20.6-20.5c-11.2,0-20.5,9.3-20.5,20.5
			S31.1-11.5,42.3-11.5z"/>
	</g>
</g>
</svg>
