<?xml version="1.0" encoding="utf-8"?>
<!-- Generator: Adobe Illustrator 27.5.0, SVG Export Plug-In . SVG Version: 6.00 Build 0)  -->
<svg version="1.1" id="Layer_1" xmlns="http://www.w3.org/2000/svg" xmlns:xlink="http://www.w3.org/1999/xlink" x="0px" y="0px"
	 viewBox="0 0 3300 2200" style="enable-background:new 0 0 3300 2200;" xml:space="preserve">
<style type="text/css">
	.st0{fill:#FFFFFF;}
	.st1{fill:none;stroke:#000000;stroke-width:0.5;}
	.st2{font-family:'Helvetica-Bold';}
	.st3{font-size:13px;}
	.st4{font-family:'Helvetica';}
	.st5{fill:none;stroke:#00AEEF;stroke-width:0.5;}
	.st6{fill:#27AAE1;}
	.st7{fill:none;stroke:#27AAE1;stroke-width:0.5;}
</style>
<g id="Notes">
	<rect id="artboard" class="st0" width="3300" height="2200"/>
	<line class="st1" x1="263" y1="292" x2="3036" y2="292"/>
	<text transform="matrix(1 0 0 1 263 322)" class="st2 st3">Weight/Scale Variations</text>
	<text transform="matrix(1 0 0 1 534.0633 322)" class="st4 st3">Ultralight</text>
	<text transform="matrix(1 0 0 1 843.7775 322)" class="st4 st3">Thin</text>
	<text transform="matrix(1 0 0 1 1139.035 322)" class="st4 st3">Light</text>
	<text transform="matrix(1 0 0 1 1427.0773 322)" class="st4 st3">Regular</text>
	<text transform="matrix(1 0 0 1 1723.4419 322)" class="st4 st3">Medium</text>
	<text transform="matrix(1 0 0 1 2016.1719 322)" class="st4 st3">Semibold</text>
	<text transform="matrix(1 0 0 1 2326.9705 322)" class="st4 st3">Bold</text>
	<text transform="matrix(1 0 0 1 2618.2659 322)" class="st4 st3">Heavy</text>
	<text transform="matrix(1 0 0 1 2917.5054 322)" class="st4 st3">Black</text>
	<line class="st1" x1="263" y1="1903" x2="3036" y2="1903"/>
	<g transform="matrix(1 0 0 1 263 1933)">
		<path d="M9.2,0.8c4.3,0,7.9-3.6,7.9-7.9c0-4.3-3.6-7.9-7.9-7.9c-4.3,0-7.9,3.6-7.9,7.9C1.4-2.7,5,0.8,9.2,0.8z M9.2-0.7
			c-3.5,0-6.4-2.8-6.4-6.4c0-3.6,2.8-6.4,6.4-6.4c3.6,0,6.4,2.8,6.4,6.4C15.6-3.5,12.8-0.7,9.2-0.7z M5.7-7.1c0,0.4,0.3,0.7,0.8,0.7
			h2.1v2.1c0,0.4,0.3,0.7,0.7,0.7c0.4,0,0.7-0.3,0.7-0.7v-2.1h2.1c0.4,0,0.7-0.3,0.7-0.7c0-0.4-0.3-0.7-0.7-0.7H10v-2.1
			c0-0.4-0.3-0.8-0.7-0.8c-0.4,0-0.7,0.3-0.7,0.8v2.1H6.4C6-7.8,5.7-7.5,5.7-7.1z"/>
	</g>
	<g transform="matrix(1 0 0 1 281.867 1933)">
		<path d="M11.7,2.9c5.4,0,10-4.5,10-10c0-5.4-4.5-10-10-10c-5.4,0-10,4.5-10,10C1.7-1.6,6.3,2.9,11.7,2.9z M11.7,1.2
			c-4.6,0-8.3-3.7-8.3-8.3c0-4.6,3.7-8.3,8.3-8.3c4.6,0,8.3,3.7,8.3,8.3C20-2.4,16.3,1.2,11.7,1.2z M7.2-7.1c0,0.5,0.3,0.8,0.8,0.8
			h2.9v2.9c0,0.5,0.3,0.8,0.8,0.8c0.5,0,0.8-0.3,0.8-0.8v-2.9h2.9c0.5,0,0.8-0.3,0.8-0.8c0-0.5-0.3-0.8-0.8-0.8h-2.9v-2.9
			c0-0.5-0.3-0.8-0.8-0.8c-0.5,0-0.8,0.3-0.8,0.8v2.9H8C7.5-7.9,7.2-7.5,7.2-7.1z"/>
	</g>
	<g transform="matrix(1 0 0 1 305.646 1933)">
		<path d="M15,5.7c7,0,12.7-5.8,12.7-12.7c0-7-5.8-12.7-12.7-12.7C8-19.8,2.3-14,2.3-7.1C2.3-0.1,8,5.7,15,5.7z M15,3.8
			C8.9,3.8,4.1-1,4.1-7.1c0-6,4.8-10.9,10.9-10.9c6,0,10.9,4.9,10.9,10.9C25.9-1,21,3.8,15,3.8z M9.2-7.1c0,0.5,0.4,0.9,0.9,0.9h3.9
			v4c0,0.5,0.4,0.9,0.9,0.9c0.5,0,0.9-0.4,0.9-0.9v-4h4c0.5,0,0.9-0.4,0.9-0.9c0-0.5-0.4-0.9-0.9-0.9h-4v-3.9c0-0.5-0.4-0.9-0.9-0.9
			c-0.5,0-0.9,0.4-0.9,0.9V-8h-3.9C9.6-8,9.2-7.6,9.2-7.1z"/>
	</g>
	<text transform="matrix(1 0 0 1 263 1953)" class="st2 st3">Design Variations</text>
	<text transform="matrix(1 0 0 1 263 1971)" class="st4 st3">Symbols are supported in up to nine weights and three scales.</text>
	<text transform="matrix(1 0 0 1 263 1989)" class="st4 st3">For optimal layout with text and other symbols, vertically align</text>
	<text transform="matrix(1 0 0 1 263 2007)" class="st4 st3">symbols with the adjacent text.</text>
	<line class="st5" x1="776" y1="1919" x2="776" y2="1933"/>
	<g transform="matrix(1 0 0 1 776 1933)">
		<path d="M3.3,0.2c0.5,0,0.8-0.2,1-0.7L5.5-4h5.8l1.3,3.4C12.7,0,13,0.2,13.5,0.2c0.5,0,0.8-0.3,0.8-0.8c0-0.2,0-0.3-0.1-0.5
			L9.7-13.4C9.4-14,9-14.3,8.4-14.3c-0.6,0-1,0.3-1.2,0.9L2.6-1.2C2.5-1,2.5-0.8,2.5-0.6C2.5-0.1,2.8,0.2,3.3,0.2z M6-5.5l2.4-6.6h0
			l2.4,6.6H6z"/>
	</g>
	<line class="st5" x1="793.2" y1="1919" x2="793.2" y2="1933"/>
	<text transform="matrix(1 0 0 1 776 1953)" class="st2 st3">Margins</text>
	<text transform="matrix(1 0 0 1 776 1971)" class="st4 st3">Leading and trailing margins on the left and right side of each symbol</text>
	<text transform="matrix(1 0 0 1 776 1989)" class="st4 st3">can be adjusted by modifying the x-location of the margin guidelines.</text>
	<text transform="matrix(1 0 0 1 776 2007)" class="st4 st3">Modifications are automatically applied proportionally to all</text>
	<text transform="matrix(1 0 0 1 776 2025)" class="st4 st3">scales and weights.</text>
	<g transform="matrix(1 0 0 1 1289 1933)">
		<path d="M2.8,1.9l1.7,1.7c0.9,0.9,1.8,0.8,2.8-0.2L18-8.4l-1-1L6.4,2.3c-0.4,0.4-0.7,0.5-1.2,0L4.1,1.1C3.6,0.7,3.7,0.3,4.1,0
			l11.5-10.8l-1-1L3-0.9C2.1,0,2,1,2.8,1.9z M9.3-16.3c-0.4,0.4-0.4,1-0.2,1.4c0.2,0.4,0.7,0.6,1.3,0.4c1.5-0.3,3-0.4,4.4,0.5
			l-0.6,1.5c-0.3,0.8-0.2,1.4,0.4,2l2.3,2.3c0.5,0.5,0.9,0.5,1.5,0.4L19.4-8l0.7,0.7l0,0.6c0,0.5,0.1,0.9,0.6,1.4l0.8,0.7
			c0.5,0.5,1.1,0.5,1.6,0l2.9-2.9c0.5-0.5,0.4-1.1,0-1.5L25-9.9c-0.5-0.5-0.8-0.6-1.3-0.6l-0.6,0l-0.6-0.6l0.2-1.1
			c0.1-0.6,0-1-0.6-1.6L19.9-16C16.6-19.3,12.1-19.2,9.3-16.3z M10.8-16c2.4-1.8,5.7-1.5,7.9,0.8l2.4,2.4c0.2,0.2,0.3,0.4,0.2,0.8
			L21-10.5l1.5,1.5l1-0.1c0.3,0,0.3,0,0.5,0.2l0.6,0.6l-2.4,2.4l-0.6-0.6c-0.2-0.2-0.2-0.3-0.2-0.5l0.1-1L20-9.5l-1.5,0.3
			c-0.3,0.1-0.5,0-0.7-0.2l-2-2c-0.3-0.2-0.3-0.4-0.1-0.8l0.9-2.1c-1.6-1.5-3.6-2.1-5.6-1.5C10.7-15.7,10.6-15.8,10.8-16z"/>
	</g>
	<text transform="matrix(1 0 0 1 1289 1953)" class="st2 st3">Exporting</text>
	<text transform="matrix(1 0 0 1 1289 1971)" class="st4 st3">Symbols should be outlined when exporting to ensure the</text>
	<text transform="matrix(1 0 0 1 1289 1989)" class="st4 st3">design is preserved when submitting to Xcode.</text>
	<text id="template-version" transform="matrix(1 0 0 1 2952.4141 1933)" class="st4 st3">Template v.4.0</text>
	<text transform="matrix(1 0 0 1 2865.4575 1951)" class="st4 st3">Requires Xcode 14 or greater</text>
	<text id="descriptive-name" transform="matrix(1 0 0 1 2868.3774 1969)" class="st4 st3">Generated from xmark.shield</text>
	<text transform="matrix(1 0 0 1 2912.4111 1987)" class="st4 st3">Typeset at 100 points</text>
	<text transform="matrix(1 0 0 1 263 726)" class="st4 st3">Small</text>
	<text transform="matrix(1 0 0 1 263 1156)" class="st4 st3">Medium</text>
	<text transform="matrix(1 0 0 1 263 1586)" class="st4 st3">Large</text>
</g>
<g id="Guides">
	<g id="H-reference" transform="matrix(1 0 0 1 339 696)">
		<path class="st6" d="M1,0h2.6l25.7-67.1H30v-3.3h-1.9L1,0z M11.7-24.5H47l-0.8-2.2H12.4L11.7-24.5z M55.1,0h2.6L30.6-70.5h-1.2
			v3.3L55.1,0z"/>
	</g>
	<line id="Baseline-S" class="st7" x1="263" y1="696" x2="3036" y2="696"/>
	<line id="Capline-S" class="st7" x1="263" y1="625.5" x2="3036" y2="625.5"/>
	<g id="H-reference_00000177483324529735393190000009140616788498089358_" transform="matrix(1 0 0 1 339 1126)">
		<path class="st6" d="M1,0h2.6l25.7-67.1H30v-3.3h-1.9L1,0z M11.7-24.5H47l-0.8-2.2H12.4L11.7-24.5z M55.1,0h2.6L30.6-70.5h-1.2
			v3.3L55.1,0z"/>
	</g>
	<line id="Baseline-M" class="st7" x1="263" y1="1126" x2="3036" y2="1126"/>
	<line id="Capline-M" class="st7" x1="263" y1="1055.5" x2="3036" y2="1055.5"/>
	<g id="H-reference_00000054223430560725152120000001177993802275581088_" transform="matrix(1 0 0 1 339 1556)">
		<path class="st6" d="M1,0h2.6l25.7-67.1H30v-3.3h-1.9L1,0z M11.7-24.5H47l-0.8-2.2H12.4L11.7-24.5z M55.1,0h2.6L30.6-70.5h-1.2
			v3.3L55.1,0z"/>
	</g>
	<line id="Baseline-L" class="st7" x1="263" y1="1556" x2="3036" y2="1556"/>
	<line id="Capline-L" class="st7" x1="263" y1="1485.5" x2="3036" y2="1485.5"/>
	<line id="left-margin-Regular-M" class="st5" x1="1390.5" y1="1030.8" x2="1390.5" y2="1150.1"/>
	<line id="right-margin-Regular-M" class="st5" x1="1509.2" y1="1030.8" x2="1509.2" y2="1150.1"/>
</g>
<g id="Symbols">
	<g id="Semibold-L" transform="matrix(1 0 0 1 1967.58 1556)">
		<path d="M75.8,30.2c1.2,0,2.9-0.5,4.5-1.4c36.1-19.7,48.6-28.7,48.6-51.2v-47.3c0-7.9-2.8-10.8-9.6-13.6
			C111.9-86.3,90-94,82.8-96.5c-2.2-0.7-4.7-1.2-7-1.2c-2.2,0-4.8,0.6-7,1.2c-7.2,2.2-29.2,10.2-36.6,13.2
			c-6.7,2.8-9.6,5.7-9.6,13.6v47.3c0,22.5,12.5,31.3,48.6,51.2C72.9,29.7,74.6,30.2,75.8,30.2z M75.8,17.2c-0.9,0-1.8-0.3-3.5-1.3
			C43.6-1.9,34.4-6.4,34.4-24.4v-43.4c0-2.6,0.6-3.7,2.6-4.5c8.8-3.5,27.5-9.9,35.1-12.8c1.6-0.6,2.8-0.8,3.8-0.8s2.1,0.3,3.8,0.8
			c7.6,2.9,26.2,9.6,35.1,12.8c2,0.8,2.6,1.9,2.6,4.5v43.4c0,18.1-9.7,23.1-37.9,40.3C77.6,16.9,76.7,17.2,75.8,17.2z"/>
		<path d="M59.5-29.1c-1.8,0-3-1.3-3-3.1c0-1.8,1.3-3.1,3-3.1h13.2v-18.1c0-1.8,1.3-3.1,3.1-3.1c1.8,0,3.2,1.3,3.2,3.1v21.2
			c0,1.8-1.4,3.1-3.2,3.1H59.5z M75.8-0.4c18.3,0,33.3-15.1,33.3-33.3c0-18.2-15-33.3-33.3-33.3C57.5-67,42.5-52,42.5-33.7
			C42.5-15.5,57.6-0.4,75.8-0.4z"/>
	</g>
	<g id="Regular-L" transform="matrix(1 0 0 1 1374.57 1556)">
		<path d="M74.3,29.5c1.1,0,2.7-0.5,4.2-1.3c35.4-20.2,47.4-28.2,47.4-50.4v-48c0-6.7-2.6-8.9-8.3-11.2
			c-8.4-3.4-29.8-11.2-38.2-14.2c-1.7-0.6-3.3-1-5.1-1c-1.7,0-3.5,0.5-5.1,1C60.8-93,39.3-84.8,30.9-81.5c-5.6,2.2-8.2,4.4-8.2,11.2
			v48c0,22.1,12,29.9,47.4,50.4C71.6,29,73.2,29.5,74.3,29.5z M74.3,19.8c-1,0-2.1-0.4-3.8-1.4C41.3,0.3,31.2-4.9,31.2-24.1v-44.6
			c0-2.7,0.5-3.8,2.7-4.7c8.8-3.5,28.7-10.4,37.5-13.9c1.1-0.5,2.1-0.7,2.8-0.7c0.7,0,1.7,0.2,2.8,0.7c8.8,3.5,28.5,10.7,37.5,13.9
			c2.2,0.8,2.7,2,2.7,4.7v44.6c0,19.2-10.1,24.3-39.2,42.4C76.4,19.3,75.3,19.8,74.3,19.8z"/>
		<path d="M56.5-29.9c-1.6,0-2.7-1.1-2.7-2.7c0-1.6,1.1-2.7,2.7-2.7h15v-20.2c0-1.6,1.2-2.7,2.7-2.7c1.6,0,2.8,1.1,2.8,2.7v22.9
			c0,1.6-1.3,2.7-2.8,2.7H56.5z M74.2-0.2c18.6,0,33.8-15.3,33.8-33.8S92.8-67.9,74.2-67.9c-18.5,0-33.8,15.3-33.8,33.8
			S55.7-0.2,74.2-0.2z"/>
	</g>
	<g id="Semibold-M" transform="matrix(1 0 0 1 1984.03 1126)">
		<path d="M59.4,15.8c0.9,0,2.3-0.4,3.5-1.1c28.3-15.1,38.2-22.4,38.2-40.2V-62c0-6.3-2.3-8.7-7.7-11c-5.2-2.2-23.3-8.4-28.2-10.1
			c-1.8-0.6-4-1-5.8-1s-4,0.5-5.8,1c-5,1.4-23.1,7.9-28.3,10.1c-5.3,2.2-7.6,4.6-7.6,11v36.6c0,17.8,10,25.1,38.2,40.2
			C57.2,15.4,58.5,15.8,59.4,15.8z M59.4,4.5c-0.6,0-1.3-0.2-2.7-1c-22.1-13.6-28.8-17-28.8-30.7v-33.2c0-1.7,0.4-2.5,1.8-3.1
			c7.1-2.8,20.8-7.4,26.8-9.7c1.3-0.4,2.2-0.6,3-0.6s1.7,0.2,3,0.6c5.9,2.3,19.5,7.1,26.7,9.7c1.4,0.5,1.8,1.3,1.8,3.1v33.2
			c0,13.9-7.1,17.7-28.8,30.7C60.7,4.2,60.1,4.5,59.4,4.5z"/>
		<path d="M47.3-30.3c-1.5,0-2.6-1.1-2.6-2.6c0-1.5,1.1-2.6,2.6-2.6h9.6v-13.2c0-1.5,1.1-2.6,2.6-2.6c1.5,0,2.7,1.1,2.7,2.6v15.8
			c0,1.5-1.2,2.6-2.7,2.6H47.3z M59.4-8.4c14.1,0,25.7-11.6,25.7-25.7c0-14.1-11.6-25.7-25.7-25.7c-14.1,0-25.6,11.6-25.6,25.7
			C33.8-20.1,45.4-8.4,59.4-8.4z"/>
	</g>
	<g id="Regular-M" transform="matrix(1 0 0 1 1390.48 1126)">
		<path d="M58.4,15.4c0.8,0,2-0.3,3.3-1C89.4-1.1,99-7.7,99-25.6v-37.4c0-5.2-2.2-6.8-6.3-8.5c-5.8-2.4-24.4-9.1-30.2-11.1
			c-1.3-0.4-2.7-0.7-4.1-0.7s-2.8,0.4-4.1,0.7c-5.8,1.6-24.4,8.7-30.2,11.1c-4.1,1.7-6.3,3.3-6.3,8.5v37.4
			c0,17.8,9.6,24.3,37.3,39.9C56.4,15.1,57.6,15.4,58.4,15.4z M58.4,6.5c-0.8,0-1.6-0.3-3.1-1.1C32.8-8.3,25.5-12.3,25.5-27.4v-34.1
			c0-1.6,0.3-2.3,1.6-2.8C34.6-67.2,49-72,56.4-74.9c0.7-0.3,1.4-0.4,1.9-0.4c0.5,0,1.2,0.1,1.9,0.4c7.4,2.9,21.6,8.1,29.2,10.7
			c1.4,0.5,1.6,1.2,1.6,2.8v34.1c0,15-7.2,19-29.8,32.7C59.9,6.2,59.1,6.5,58.4,6.5z"/>
		<path d="M45-31.1c-1.4,0-2.3-1-2.3-2.4c0-1.4,1-2.3,2.3-2.3h11v-14.9c0-1.4,1-2.4,2.3-2.4c1.4,0,2.4,1,2.4,2.4v17.2
			c0,1.4-1.1,2.4-2.4,2.4H45z M58.4-8.2c14.4,0,26.2-11.9,26.2-26.2c0-14.3-11.8-26.2-26.2-26.2c-14.3,0-26.1,11.9-26.1,26.2
			C32.2-20.1,44.1-8.2,58.4-8.2z"/>
	</g>
	<g id="Semibold-S" transform="matrix(1 0 0 1 1996.34 696)">
		<path d="M47.1,5c0.7,0,1.7-0.3,2.8-0.8c22.3-11.7,30.3-17.7,30.3-32v-28.7c0-5-1.9-6.9-6.1-8.7c-3.6-1.6-18.8-6.7-22.3-7.9
			c-1.5-0.5-3.3-0.8-4.8-0.8c-1.5,0-3.3,0.4-4.8,0.8c-3.5,0.9-18.6,6.4-22.3,7.9c-4.2,1.8-6.1,3.7-6.1,8.7v28.7
			c0,14.3,8,20.2,30.3,32C45.3,4.8,46.4,5,47.1,5z M47.1-4.7c-0.5,0-0.9-0.1-2.1-0.8C27.7-16,22.7-18.6,22.7-29.4v-25.7
			c0-1.1,0.3-1.6,1.2-2c5.8-2.3,16.1-5.6,20.9-7.5c1-0.3,1.7-0.5,2.3-0.5c0.6,0,1.3,0.1,2.3,0.5c4.8,1.9,14.9,5.4,20.8,7.5
			c0.9,0.4,1.2,0.9,1.2,2v25.7c0,10.9-5.3,13.8-22.2,23.9C48-4.8,47.5-4.7,47.1-4.7z"/>
		<path d="M37.8-31.8c-1.2,0-2.1-0.9-2.1-2.2c0-1.2,0.9-2.1,2.1-2.1h7.1V-46c0-1.2,0.9-2.2,2.2-2.2c1.2,0,2.2,0.9,2.2,2.2v12
			c0,1.2-1,2.2-2.2,2.2H37.8z M47.1-14.8c11,0,20.1-9.1,20.1-20.1S58.1-54.9,47-54.9c-11,0-20,9.1-20,20.1S36.1-14.8,47.1-14.8z"/>
	</g>
	<g id="Regular-S" transform="matrix(1 0 0 1 1402.53 696)">
		<path d="M46.4,4.8c0.5,0,1.5-0.2,2.6-0.8C70.9-8,78.7-13.5,78.7-27.9v-29.4c0-4-1.9-5.2-4.9-6.5c-4-1.7-20.1-7.4-24.1-8.8
			c-1-0.3-2.1-0.6-3.3-0.6c-1.1,0-2.3,0.3-3.3,0.6c-4,1-20.1,7.1-24.1,8.8c-3,1.3-4.9,2.5-4.9,6.5v29.4c0,14.5,7.8,19.9,29.7,31.9
			C44.9,4.6,45.8,4.8,46.4,4.8z M46.4-3.2c-0.6,0-1.2-0.1-2.5-0.9C26.3-14.6,21-17.8,21-29.6V-56c0-0.9,0.2-1.3,1-1.6
			c6.2-2.4,16.8-5.8,23-8.3c0.5-0.2,0.9-0.2,1.3-0.2c0.4,0,0.8,0,1.3,0.2c6.2,2.5,16.6,6.2,23,8.3c0.8,0.3,1,0.7,1,1.6v26.4
			c0,11.9-5.2,15-22.9,25.5C47.6-3.4,47-3.2,46.4-3.2z"/>
		<path d="M36.2-32c-1.2,0-2-0.8-2-2.1c0-1.2,0.8-2,2-2h8.1v-11c0-1.2,0.9-2.1,2-2.1c1.2,0,2.1,0.9,2.1,2.1v13
			c0,1.2-0.9,2.1-2.1,2.1H36.2z M46.4-14.2c11.2,0,20.5-9.3,20.5-20.5s-9.3-20.5-20.6-20.5c-11.2,0-20.5,9.3-20.5,20.5
			S35.2-14.2,46.4-14.2z"/>
	</g>
</g>
</svg>
