<?xml version="1.0" encoding="UTF-8"?>
<svg xmlns="http://www.w3.org/2000/svg" xmlns:xlink="http://www.w3.org/1999/xlink" width="112.5pt" height="112.5pt" viewBox="0 0 112.5 112.5" version="1.1">
<g id="surface15851">
<path style="fill:none;stroke-width:2;stroke-linecap:round;stroke-linejoin:round;stroke:rgb(100%,100%,100%);stroke-opacity:1;stroke-miterlimit:10;" d="M 45.000349 15.000698 L 45.000349 9.999302 C 45.000349 7.23877 42.76123 4.999651 40.000698 4.999651 L 34.999302 4.999651 " transform="matrix(2.24,0,0,2.24,-0.000000000000007105,-0.000000000000007105)"/>
<path style="fill:none;stroke-width:2;stroke-linecap:round;stroke-linejoin:round;stroke:rgb(100%,100%,100%);stroke-opacity:1;stroke-miterlimit:10;" d="M 15.000698 4.999651 L 9.999302 4.999651 C 7.23877 4.999651 4.999651 7.23877 4.999651 9.999302 L 4.999651 15.000698 " transform="matrix(2.24,0,0,2.24,-0.000000000000007105,-0.000000000000007105)"/>
<path style="fill:none;stroke-width:2;stroke-linecap:round;stroke-linejoin:round;stroke:rgb(100%,100%,100%);stroke-opacity:1;stroke-miterlimit:10;" d="M 4.999651 34.00007 L 4.999651 40.000698 C 4.999651 42.76123 7.23877 45.000349 9.999302 45.000349 L 15.000698 45.000349 " transform="matrix(2.24,0,0,2.24,-0.000000000000007105,-0.000000000000007105)"/>
<path style="fill:none;stroke-width:2;stroke-linecap:round;stroke-linejoin:round;stroke:rgb(100%,100%,100%);stroke-opacity:1;stroke-miterlimit:10;" d="M 34.999302 45.000349 L 40.000698 45.000349 C 42.76123 45.000349 45.000349 42.76123 45.000349 40.000698 L 45.000349 34.00007 " transform="matrix(2.24,0,0,2.24,-0.000000000000007105,-0.000000000000007105)"/>
<path style="fill:none;stroke-width:2;stroke-linecap:round;stroke-linejoin:round;stroke:rgb(100%,100%,100%);stroke-opacity:1;stroke-miterlimit:10;" d="M 25.999233 18.999372 L 25.999233 27.000209 C 25.999233 28.105818 25.104632 29.000419 24.000767 29.000419 L 22.999791 29.000419 " transform="matrix(2.24,0,0,2.24,-0.000000000000007105,-0.000000000000007105)"/>
<path style="fill:none;stroke-width:2;stroke-linecap:round;stroke-linejoin:round;stroke:rgb(100%,100%,100%);stroke-opacity:1;stroke-miterlimit:10;" d="M 15.99993 18.999372 L 15.99993 22.000558 " transform="matrix(2.24,0,0,2.24,-0.000000000000007105,-0.000000000000007105)"/>
<path style="fill:none;stroke-width:2;stroke-linecap:round;stroke-linejoin:round;stroke:rgb(100%,100%,100%);stroke-opacity:1;stroke-miterlimit:10;" d="M 34.00007 18.999372 L 34.00007 22.000558 " transform="matrix(2.24,0,0,2.24,-0.000000000000007105,-0.000000000000007105)"/>
<path style="fill:none;stroke-width:2;stroke-linecap:round;stroke-linejoin:round;stroke:rgb(100%,100%,100%);stroke-opacity:1;stroke-miterlimit:10;" d="M 18.999372 34.00007 C 18.999372 34.00007 20.999581 36.000279 25 36.000279 C 29.000419 36.000279 31.000628 34.00007 31.000628 34.00007 " transform="matrix(2.24,0,0,2.24,-0.000000000000007105,-0.000000000000007105)"/>
</g>
</svg>
