<?xml version="1.0" encoding="utf-8"?>
<!-- Generator: Adobe Illustrator 27.5.0, SVG Export Plug-In . SVG Version: 6.00 Build 0)  -->
<svg version="1.1" id="Layer_1" xmlns="http://www.w3.org/2000/svg" xmlns:xlink="http://www.w3.org/1999/xlink" x="0px" y="0px"
	 viewBox="0 0 3300 2200" style="enable-background:new 0 0 3300 2200;" xml:space="preserve">
<style type="text/css">
	.st0{fill:#FFFFFF;}
	.st1{fill:none;stroke:#000000;stroke-width:0.5;}
	.st2{font-family:'Helvetica-Bold';}
	.st3{font-size:13px;}
	.st4{font-family:'Helvetica';}
	.st5{fill:none;stroke:#00AEEF;stroke-width:0.5;}
	.st6{fill:#27AAE1;}
	.st7{fill:none;stroke:#27AAE1;stroke-width:0.5;}
</style>
<g id="Notes">
	<rect id="artboard" class="st0" width="3300" height="2200"/>
	<line class="st1" x1="263" y1="292" x2="3036" y2="292"/>
	<text transform="matrix(1 0 0 1 263 322)" class="st2 st3">Weight/Scale Variations</text>
	<text transform="matrix(1 0 0 1 534.0633 322)" class="st4 st3">Ultralight</text>
	<text transform="matrix(1 0 0 1 843.7775 322)" class="st4 st3">Thin</text>
	<text transform="matrix(1 0 0 1 1139.035 322)" class="st4 st3">Light</text>
	<text transform="matrix(1 0 0 1 1427.0773 322)" class="st4 st3">Regular</text>
	<text transform="matrix(1 0 0 1 1723.4419 322)" class="st4 st3">Medium</text>
	<text transform="matrix(1 0 0 1 2016.1719 322)" class="st4 st3">Semibold</text>
	<text transform="matrix(1 0 0 1 2326.9705 322)" class="st4 st3">Bold</text>
	<text transform="matrix(1 0 0 1 2618.2659 322)" class="st4 st3">Heavy</text>
	<text transform="matrix(1 0 0 1 2917.5054 322)" class="st4 st3">Black</text>
	<line class="st1" x1="263" y1="1903" x2="3036" y2="1903"/>
	<g transform="matrix(1 0 0 1 263 1933)">
		<path d="M9.2,0.8c4.3,0,7.9-3.6,7.9-7.9c0-4.3-3.6-7.9-7.9-7.9c-4.3,0-7.9,3.6-7.9,7.9C1.4-2.7,5,0.8,9.2,0.8z M9.2-0.7
			c-3.5,0-6.4-2.8-6.4-6.4c0-3.6,2.8-6.4,6.4-6.4c3.6,0,6.4,2.8,6.4,6.4C15.6-3.5,12.8-0.7,9.2-0.7z M5.7-7.1c0,0.4,0.3,0.7,0.8,0.7
			h2.1v2.1c0,0.4,0.3,0.7,0.7,0.7c0.4,0,0.7-0.3,0.7-0.7v-2.1h2.1c0.4,0,0.7-0.3,0.7-0.7c0-0.4-0.3-0.7-0.7-0.7H10v-2.1
			c0-0.4-0.3-0.8-0.7-0.8c-0.4,0-0.7,0.3-0.7,0.8v2.1H6.4C6-7.8,5.7-7.5,5.7-7.1z"/>
	</g>
	<g transform="matrix(1 0 0 1 281.867 1933)">
		<path d="M11.7,2.9c5.4,0,10-4.5,10-10c0-5.4-4.5-10-10-10c-5.4,0-10,4.5-10,10C1.7-1.6,6.3,2.9,11.7,2.9z M11.7,1.2
			c-4.6,0-8.3-3.7-8.3-8.3c0-4.6,3.7-8.3,8.3-8.3c4.6,0,8.3,3.7,8.3,8.3C20-2.4,16.3,1.2,11.7,1.2z M7.2-7.1c0,0.5,0.3,0.8,0.8,0.8
			h2.9v2.9c0,0.5,0.3,0.8,0.8,0.8c0.5,0,0.8-0.3,0.8-0.8v-2.9h2.9c0.5,0,0.8-0.3,0.8-0.8c0-0.5-0.3-0.8-0.8-0.8h-2.9v-2.9
			c0-0.5-0.3-0.8-0.8-0.8c-0.5,0-0.8,0.3-0.8,0.8v2.9H8C7.5-7.9,7.2-7.5,7.2-7.1z"/>
	</g>
	<g transform="matrix(1 0 0 1 305.646 1933)">
		<path d="M15,5.7c7,0,12.7-5.8,12.7-12.7c0-7-5.8-12.7-12.7-12.7C8-19.8,2.3-14,2.3-7.1C2.3-0.1,8,5.7,15,5.7z M15,3.8
			C8.9,3.8,4.1-1,4.1-7.1c0-6,4.8-10.9,10.9-10.9c6,0,10.9,4.9,10.9,10.9C25.9-1,21,3.8,15,3.8z M9.2-7.1c0,0.5,0.4,0.9,0.9,0.9h3.9
			v4c0,0.5,0.4,0.9,0.9,0.9c0.5,0,0.9-0.4,0.9-0.9v-4h4c0.5,0,0.9-0.4,0.9-0.9c0-0.5-0.4-0.9-0.9-0.9h-4v-3.9c0-0.5-0.4-0.9-0.9-0.9
			c-0.5,0-0.9,0.4-0.9,0.9V-8h-3.9C9.6-8,9.2-7.6,9.2-7.1z"/>
	</g>
	<text transform="matrix(1 0 0 1 263 1953)" class="st2 st3">Design Variations</text>
	<text transform="matrix(1 0 0 1 263 1971)" class="st4 st3">Symbols are supported in up to nine weights and three scales.</text>
	<text transform="matrix(1 0 0 1 263 1989)" class="st4 st3">For optimal layout with text and other symbols, vertically align</text>
	<text transform="matrix(1 0 0 1 263 2007)" class="st4 st3">symbols with the adjacent text.</text>
	<line class="st5" x1="776" y1="1919" x2="776" y2="1933"/>
	<g transform="matrix(1 0 0 1 776 1933)">
		<path d="M3.3,0.2c0.5,0,0.8-0.2,1-0.7L5.5-4h5.8l1.3,3.4C12.7,0,13,0.2,13.5,0.2c0.5,0,0.8-0.3,0.8-0.8c0-0.2,0-0.3-0.1-0.5
			L9.7-13.4C9.4-14,9-14.3,8.4-14.3c-0.6,0-1,0.3-1.2,0.9L2.6-1.2C2.5-1,2.5-0.8,2.5-0.6C2.5-0.1,2.8,0.2,3.3,0.2z M6-5.5l2.4-6.6h0
			l2.4,6.6H6z"/>
	</g>
	<line class="st5" x1="793.2" y1="1919" x2="793.2" y2="1933"/>
	<text transform="matrix(1 0 0 1 776 1953)" class="st2 st3">Margins</text>
	<text transform="matrix(1 0 0 1 776 1971)" class="st4 st3">Leading and trailing margins on the left and right side of each symbol</text>
	<text transform="matrix(1 0 0 1 776 1989)" class="st4 st3">can be adjusted by modifying the x-location of the margin guidelines.</text>
	<text transform="matrix(1 0 0 1 776 2007)" class="st4 st3">Modifications are automatically applied proportionally to all</text>
	<text transform="matrix(1 0 0 1 776 2025)" class="st4 st3">scales and weights.</text>
	<g transform="matrix(1 0 0 1 1289 1933)">
		<path d="M2.8,1.9l1.7,1.7c0.9,0.9,1.8,0.8,2.8-0.2L18-8.4l-1-1L6.4,2.3c-0.4,0.4-0.7,0.5-1.2,0L4.1,1.1C3.6,0.7,3.7,0.3,4.1,0
			l11.5-10.8l-1-1L3-0.9C2.1,0,2,1,2.8,1.9z M9.3-16.3c-0.4,0.4-0.4,1-0.2,1.4c0.2,0.4,0.7,0.6,1.3,0.4c1.5-0.3,3-0.4,4.4,0.5
			l-0.6,1.5c-0.3,0.8-0.2,1.4,0.4,2l2.3,2.3c0.5,0.5,0.9,0.5,1.5,0.4L19.4-8l0.7,0.7l0,0.6c0,0.5,0.1,0.9,0.6,1.4l0.8,0.7
			c0.5,0.5,1.1,0.5,1.6,0l2.9-2.9c0.5-0.5,0.4-1.1,0-1.5L25-9.9c-0.5-0.5-0.8-0.6-1.3-0.6l-0.6,0l-0.6-0.6l0.2-1.1
			c0.1-0.6,0-1-0.6-1.6L19.9-16C16.6-19.3,12.1-19.2,9.3-16.3z M10.8-16c2.4-1.8,5.7-1.5,7.9,0.8l2.4,2.4c0.2,0.2,0.3,0.4,0.2,0.8
			L21-10.5l1.5,1.5l1-0.1c0.3,0,0.3,0,0.5,0.2l0.6,0.6l-2.4,2.4l-0.6-0.6c-0.2-0.2-0.2-0.3-0.2-0.5l0.1-1L20-9.5l-1.5,0.3
			c-0.3,0.1-0.5,0-0.7-0.2l-2-2c-0.3-0.2-0.3-0.4-0.1-0.8l0.9-2.1c-1.6-1.5-3.6-2.1-5.6-1.5C10.7-15.7,10.6-15.8,10.8-16z"/>
	</g>
	<text transform="matrix(1 0 0 1 1289 1953)" class="st2 st3">Exporting</text>
	<text transform="matrix(1 0 0 1 1289 1971)" class="st4 st3">Symbols should be outlined when exporting to ensure the</text>
	<text transform="matrix(1 0 0 1 1289 1989)" class="st4 st3">design is preserved when submitting to Xcode.</text>
	<text id="template-version" transform="matrix(1 0 0 1 2952.4141 1933)" class="st4 st3">Template v.4.0</text>
	<text transform="matrix(1 0 0 1 2865.4575 1951)" class="st4 st3">Requires Xcode 14 or greater</text>
	<text id="descriptive-name" transform="matrix(1 0 0 1 2920.3838 1969)" class="st4 st3">Generated from eye</text>
	<text transform="matrix(1 0 0 1 2912.4111 1987)" class="st4 st3">Typeset at 100 points</text>
	<text transform="matrix(1 0 0 1 263 726)" class="st4 st3">Small</text>
	<text transform="matrix(1 0 0 1 263 1156)" class="st4 st3">Medium</text>
	<text transform="matrix(1 0 0 1 263 1586)" class="st4 st3">Large</text>
</g>
<g id="Guides">
	<g id="H-reference" transform="matrix(1 0 0 1 339 696)">
		<path class="st6" d="M1,0h2.6l25.7-67.1H30v-3.3h-1.9L1,0z M11.7-24.5H47l-0.8-2.2H12.4L11.7-24.5z M55.1,0h2.6L30.6-70.5h-1.2
			v3.3L55.1,0z"/>
	</g>
	<line id="Baseline-S" class="st7" x1="263" y1="696" x2="3036" y2="696"/>
	<line id="Capline-S" class="st7" x1="263" y1="625.5" x2="3036" y2="625.5"/>
	<g id="H-reference_00000168820843084754473740000009140028302573334461_" transform="matrix(1 0 0 1 339 1126)">
		<path class="st6" d="M1,0h2.6l25.7-67.1H30v-3.3h-1.9L1,0z M11.7-24.5H47l-0.8-2.2H12.4L11.7-24.5z M55.1,0h2.6L30.6-70.5h-1.2
			v3.3L55.1,0z"/>
	</g>
	<line id="Baseline-M" class="st7" x1="263" y1="1126" x2="3036" y2="1126"/>
	<line id="Capline-M" class="st7" x1="263" y1="1055.5" x2="3036" y2="1055.5"/>
	<g id="H-reference_00000078034423727928833490000005800728138923938461_" transform="matrix(1 0 0 1 339 1556)">
		<path class="st6" d="M1,0h2.6l25.7-67.1H30v-3.3h-1.9L1,0z M11.7-24.5H47l-0.8-2.2H12.4L11.7-24.5z M55.1,0h2.6L30.6-70.5h-1.2
			v3.3L55.1,0z"/>
	</g>
	<line id="Baseline-L" class="st7" x1="263" y1="1556" x2="3036" y2="1556"/>
	<line id="Capline-L" class="st7" x1="263" y1="1485.5" x2="3036" y2="1485.5"/>
	<line id="left-margin-Regular-M" class="st5" x1="1373.2" y1="1030.8" x2="1373.2" y2="1150.1"/>
	<line id="right-margin-Regular-M" class="st5" x1="1526.5" y1="1030.8" x2="1526.5" y2="1150.1"/>
</g>
<g id="Symbols">
	<g id="Semibold-L" transform="matrix(1 0 0 1 1944.21 1556)">
		<g>
			<path d="M99.1,12.5c-46.3,0-82.9-42-84.4-43.7c-1.9-2.2-1.9-5.6,0-7.8c1.5-1.8,38.1-43.7,84.4-43.7s82.9,42,84.4,43.7
				c1.9,2.2,1.9,5.6,0,7.8C181.9-29.5,145.4,12.5,99.1,12.5z M27.5-35.2c9.9,10,38.6,35.7,71.6,35.7s61.7-25.7,71.6-35.7
				c-9.9-10-38.6-35.7-71.6-35.7S37.4-45.1,27.5-35.2z"/>
			<path d="M99.1-1.4c-24.4,0-44.2-19.8-44.2-44.2c0-10.9,4-21.5,11.4-29.6c2.2-2.5,6-2.7,8.5-0.4c2.5,2.2,2.7,6,0.4,8.5
				c-5.3,5.9-8.3,13.6-8.3,21.5c0,17.7,14.4,32.2,32.2,32.2s32.2-14.4,32.2-32.2c0-8-3-15.7-8.3-21.6c-2.2-2.5-2-6.2,0.4-8.5
				c2.5-2.2,6.3-2,8.5,0.4c7.4,8.1,11.4,18.7,11.4,29.7C143.2-21.2,123.4-1.4,99.1-1.4z"/>
			<path d="M116.4-45.6c0,9.6-7.8,17.4-17.4,17.4S81.7-36,81.7-45.6s7.8-17.4,17.4-17.4S116.4-55.2,116.4-45.6z"/>
		</g>
	</g>
	<g id="Regular-L" transform="matrix(1 0 0 1 1351.83 1556)">
		<g>
			<path d="M98,11.2c-46.1,0-82.6-41.9-84.1-43.7c-1.4-1.6-1.4-4,0-5.6c1.5-1.8,38-43.7,84.1-43.7c46.1,0,82.6,41.9,84.1,43.7
				c1.4,1.6,1.4,4,0,5.6C180.6-30.7,144.1,11.2,98,11.2z M22.9-35.3c3.6,3.8,10.9,10.8,20.5,17.7C56.2-8.3,76.1,2.6,98,2.6
				s41.7-11,54.5-20.2c9.7-6.9,16.9-14,20.5-17.7c-3.6-3.8-10.9-10.8-20.5-17.7c-12.8-9.2-32.7-20.2-54.5-20.2
				c-12.1,0-31.3,3.5-54.5,20.2C33.8-46.1,26.5-39,22.9-35.3z"/>
			<path d="M98-2.8c-23.7,0-43-19.3-43-43c0-10.7,3.9-20.9,11.1-28.8c1.6-1.8,4.3-1.9,6.1-0.3c1.8,1.6,1.9,4.3,0.3,6.1
				c-5.7,6.3-8.8,14.5-8.8,23c0,19,15.4,34.4,34.4,34.4s34.4-15.4,34.4-34.4c0-8.6-3.2-16.8-8.9-23.1c-1.6-1.8-1.5-4.5,0.3-6.1
				c1.8-1.6,4.5-1.5,6.1,0.3c7.2,7.9,11.1,18.2,11.1,28.9C140.9-22.1,121.7-2.8,98-2.8z"/>
			<path d="M115.5-45.8c0,9.7-7.9,17.6-17.6,17.6s-17.6-7.9-17.6-17.6S88.2-63.4,98-63.4S115.5-55.5,115.5-45.8z"/>
		</g>
	</g>
	<g id="Semibold-M" transform="matrix(1 0 0 1 1965.96 1126)">
		<g>
			<path d="M77.3,2.8C41,2.8,12.4-30,11.2-31.4c-1.7-2-1.7-4.9,0-6.9c1.2-1.4,29.8-34.3,66.1-34.3c36.3,0,64.9,32.9,66.1,34.3
				c1.7,2,1.7,4.9,0,6.9C142.3-30,113.6,2.8,77.3,2.8z M22.5-34.9c8,8,29.9,27.1,54.8,27.1c25,0,46.8-19.1,54.8-27.1
				c-8-8-29.9-27.1-54.8-27.1C52.3-62,30.5-42.9,22.5-34.9z"/>
			<path d="M77.3-8c-19.3,0-35-15.7-35-35c0-8.7,3.2-17,9-23.4c2-2.2,5.3-2.3,7.5-0.4c2.2,2,2.3,5.3,0.4,7.5
				c-4,4.5-6.3,10.3-6.3,16.3c0,13.5,11,24.4,24.4,24.4s24.4-11,24.4-24.4c0-6.1-2.2-11.9-6.3-16.4c-2-2.2-1.8-5.5,0.4-7.5
				c2.2-2,5.5-1.8,7.5,0.4c5.8,6.5,9.1,14.8,9.1,23.5C112.3-23.7,96.6-8,77.3-8z"/>
			<path d="M90.8-43c0,7.5-6,13.5-13.5,13.5c-7.5,0-13.5-6-13.5-13.5s6-13.5,13.5-13.5C84.8-56.5,90.8-50.4,90.8-43z"/>
		</g>
	</g>
	<g id="Regular-M" transform="matrix(1 0 0 1 1373.17 1126)">
		<g>
			<path d="M76.6,1.4c-36,0-64.5-32.7-65.7-34.1c-1.2-1.4-1.2-3.6,0-5c1.2-1.4,29.7-34.1,65.7-34.1c36,0,64.5,32.7,65.7,34.1
				c1.2,1.4,1.2,3.6,0,5C141.2-31.3,112.7,1.4,76.6,1.4z M19.1-35.2c7.3,7.4,30.6,28.9,57.5,28.9c27,0,50.3-21.5,57.5-28.9
				c-7.3-7.5-30.6-28.9-57.5-28.9C49.6-64.1,26.4-42.7,19.1-35.2z"/>
			<path d="M76.6-9.5C58-9.5,42.8-24.7,42.8-43.4c0-8.4,3.1-16.5,8.7-22.7c1.4-1.6,3.9-1.7,5.4-0.3c1.6,1.4,1.7,3.9,0.3,5.4
				c-4.3,4.8-6.7,11-6.7,17.5c0,14.4,11.7,26.2,26.2,26.2c14.4,0,26.2-11.7,26.2-26.2c0-6.5-2.4-12.8-6.8-17.6
				c-1.4-1.6-1.3-4,0.3-5.4c1.6-1.4,4-1.3,5.4,0.3c5.7,6.2,8.8,14.3,8.8,22.8C110.5-24.7,95.3-9.5,76.6-9.5z"/>
			<path d="M90.3-43.4c0,7.5-6.1,13.7-13.7,13.7c-7.5,0-13.7-6.1-13.7-13.7S69.1-57,76.6-57C84.2-57,90.3-50.9,90.3-43.4z"/>
		</g>
	</g>
	<g id="Semibold-S" transform="matrix(1 0 0 1 1982.27 696)">
		<g>
			<path d="M61-5.7c-28.6,0-51.1-25.9-52.1-27c-1.4-1.7-1.4-4.2,0-5.9c0.9-1.1,23.5-27,52.1-27c28.6,0,51.1,25.9,52.1,27
				c1.4,1.7,1.4,4.2,0,5.9C112.1-31.6,89.6-5.7,61-5.7z M18.6-35.6C25-29.2,41.8-14.7,61-14.7c19.2,0,36-14.5,42.4-20.9
				C97-42,80.2-56.5,61-56.5C41.8-56.5,25-42,18.6-35.6z"/>
			<path d="M61-14.2c-15.3,0-27.8-12.5-27.8-27.8c0-6.9,2.5-13.5,7.1-18.6c1.7-1.8,4.5-2,6.4-0.3c1.8,1.7,2,4.5,0.3,6.4
				c-3.1,3.4-4.8,7.9-4.8,12.6c0,10.3,8.4,18.8,18.8,18.8c10.3,0,18.8-8.4,18.8-18.8c0-4.7-1.7-9.1-4.9-12.6
				c-1.7-1.8-1.5-4.7,0.3-6.4c1.8-1.7,4.7-1.5,6.4,0.3c4.6,5.1,7.2,11.7,7.2,18.6C88.8-26.6,76.3-14.2,61-14.2z"/>
			<path d="M71.6-41.9c0,5.8-4.7,10.6-10.6,10.6s-10.6-4.7-10.6-10.6S55.2-52.5,61-52.5S71.6-47.8,71.6-41.9z"/>
		</g>
	</g>
	<g id="Regular-S" transform="matrix(1 0 0 1 1389.2 696)">
		<g>
			<path d="M60.6-6C32.1-6,9.6-31.9,8.6-33c-1.1-1.3-1.1-3.2,0-4.4c0.9-1.1,23.5-27,52-27s51.1,25.9,52,27c1.1,1.3,1.1,3.2,0,4.4
				C111.7-31.9,89.2-6,60.6-6z M15.8-35.2c6,6.1,24,22.4,44.8,22.4s38.8-16.4,44.8-22.4c-6-6.1-24-22.4-44.8-22.4
				S21.8-41.3,15.8-35.2z"/>
			<path d="M60.6-14.6c-14.9,0-27.1-12.1-27.1-27.1c0-6.7,2.5-13.1,7-18.1c1.3-1.4,3.4-1.5,4.8-0.2c1.4,1.3,1.5,3.4,0.2,4.8
				c-3.4,3.7-5.2,8.5-5.2,13.6c0,11.2,9.1,20.3,20.3,20.3s20.3-9.1,20.3-20.3c0-5-1.9-9.9-5.2-13.6c-1.3-1.4-1.2-3.5,0.2-4.8
				c1.4-1.3,3.5-1.2,4.8,0.2c4.5,5,7,11.4,7,18.2C87.7-26.7,75.6-14.6,60.6-14.6z"/>
			<path d="M71.4-41.7c0,5.9-4.8,10.8-10.8,10.8s-10.8-4.8-10.8-10.8s4.8-10.8,10.8-10.8S71.4-47.6,71.4-41.7z"/>
		</g>
	</g>
</g>
</svg>
