<?xml version="1.0" encoding="utf-8"?>
<!-- Generator: Adobe Illustrator 24.1.1, SVG Export Plug-In . SVG Version: 6.00 Build 0)  -->
<svg version="1.1" id="Layer_1" xmlns="http://www.w3.org/2000/svg" xmlns:xlink="http://www.w3.org/1999/xlink" x="0px" y="0px"
	 viewBox="0 0 3300 2200" style="enable-background:new 0 0 3300 2200;" xml:space="preserve">
<style type="text/css">
	.st0{fill:#FFFFFF;}
	.st1{fill:none;stroke:#000000;stroke-width:0.5;}
	.st2{font-family:'Arial-BoldMT';}
	.st3{font-size:13px;}
	.st4{font-family:'ArialMT';}
	.st5{fill:none;stroke:#00AEEF;stroke-width:0.5;}
	.st6{fill:#27AAE1;}
	.st7{fill:none;stroke:#27AAE1;stroke-width:0.5;}
</style>
<g id="Notes">
	<rect id="artboard" class="st0" width="3300" height="2200"/>
	<line class="st1" x1="263" y1="292" x2="3036" y2="292"/>
	<text transform="matrix(1 0 0 1 263 322)" class="st2 st3">Weight/Scale Variations</text>
	<text transform="matrix(1 0 0 1 534.0632 322)" class="st4 st3">Ultralight</text>
	<text transform="matrix(1 0 0 1 843.7775 322)" class="st4 st3">Thin</text>
	<text transform="matrix(1 0 0 1 1139.035 322)" class="st4 st3">Light</text>
	<text transform="matrix(1 0 0 1 1427.0773 322)" class="st4 st3">Regular</text>
	<text transform="matrix(1 0 0 1 1723.4419 322)" class="st4 st3">Medium</text>
	<text transform="matrix(1 0 0 1 2016.1719 322)" class="st4 st3">Semibold</text>
	<text transform="matrix(1 0 0 1 2326.9705 322)" class="st4 st3">Bold</text>
	<text transform="matrix(1 0 0 1 2618.2659 322)" class="st4 st3">Heavy</text>
	<text transform="matrix(1 0 0 1 2917.5054 322)" class="st4 st3">Black</text>
	<line class="st1" x1="263" y1="1903" x2="3036" y2="1903"/>
	<g transform="matrix(1 0 0 1 263 1933)">
		<path d="M9.2,0.8c4.3,0,7.9-3.6,7.9-7.9S13.5-15,9.2-15s-7.9,3.6-7.9,7.9C1.4-2.7,5,0.8,9.2,0.8z M9.2-0.7C5.7-0.7,2.9-3.5,2.9-7
			c0-3.6,2.8-6.4,6.4-6.4s6.4,2.8,6.4,6.4C15.6-3.5,12.8-0.7,9.2-0.7z M5.7-7.1c0,0.4,0.3,0.7,0.8,0.7h2.1v2.1
			c0,0.4,0.3,0.7,0.7,0.7S10-3.9,10-4.3v-2.1h2.1c0.4,0,0.7-0.3,0.7-0.7c0-0.4-0.3-0.7-0.7-0.7H10v-2.1c0-0.4-0.3-0.8-0.7-0.8
			s-0.7,0.3-0.7,0.8v2.1H6.4C6-7.8,5.7-7.5,5.7-7.1z"/>
	</g>
	<g transform="matrix(1 0 0 1 281.867 1933)">
		<path d="M11.7,2.9c5.4,0,10-4.5,10-10c0-5.4-4.5-10-10-10c-5.4,0-10,4.5-10,10C1.7-1.6,6.3,2.9,11.7,2.9z M11.7,1.3
			C7.1,1.3,3.4-2.4,3.4-7s3.7-8.3,8.3-8.3S20-11.7,20-7.1C20-2.4,16.3,1.3,11.7,1.3z M7.2-7.1c0,0.5,0.3,0.8,0.8,0.8h2.9v2.9
			c0,0.5,0.3,0.8,0.8,0.8s0.8-0.3,0.8-0.8v-2.9h2.9c0.5,0,0.8-0.3,0.8-0.8s-0.3-0.8-0.8-0.8h-2.9v-2.9c0-0.5-0.3-0.8-0.8-0.8
			s-0.8,0.3-0.8,0.8v2.9H8C7.5-7.9,7.2-7.5,7.2-7.1z"/>
	</g>
	<g transform="matrix(1 0 0 1 305.646 1933)">
		<path d="M15,5.7c7,0,12.7-5.8,12.7-12.7c0-7-5.8-12.7-12.7-12.7C8-19.8,2.3-14,2.3-7.1C2.3-0.1,8,5.7,15,5.7z M15,3.8
			C8.9,3.8,4.1-1,4.1-7S8.9-17.9,15-17.9c6,0,10.9,4.9,10.9,10.9S21,3.8,15,3.8z M9.2-7.1c0,0.5,0.4,0.9,0.9,0.9H14v4
			c0,0.5,0.4,0.9,0.9,0.9s0.9-0.4,0.9-0.9v-4h4c0.5,0,0.9-0.4,0.9-0.9S20.3-8,19.8-8h-4v-3.9c0-0.5-0.4-0.9-0.9-0.9S14-12.4,14-11.9
			V-8h-3.9C9.6-8,9.2-7.6,9.2-7.1z"/>
	</g>
	<text transform="matrix(1 0 0 1 263 1953)" class="st2 st3">Design Variations</text>
	<text transform="matrix(1 0 0 1 263 1971)" class="st4 st3">Symbols are supported in up to nine weights and three scales.</text>
	<text transform="matrix(1 0 0 1 263 1989)" class="st4 st3">For optimal layout with text and other symbols, vertically align</text>
	<text transform="matrix(1 0 0 1 263 2007)" class="st4 st3">symbols with the adjacent text.</text>
	<line class="st5" x1="776" y1="1919" x2="776" y2="1933"/>
	<g transform="matrix(1 0 0 1 776 1933)">
		<path d="M3.3,0.2c0.5,0,0.8-0.2,1-0.7L5.5-4h5.8l1.3,3.4C12.7,0,13,0.2,13.5,0.2s0.9-0.3,0.9-0.8c0-0.2,0-0.3-0.1-0.5L9.7-13.4
			C9.4-14,9-14.3,8.4-14.3s-1,0.3-1.2,0.9L2.6-1.2C2.5-1,2.5-0.8,2.5-0.6C2.5-0.1,2.8,0.2,3.3,0.2z M6-5.5l2.4-6.6l0,0l2.4,6.6
			C10.8-5.5,6-5.5,6-5.5z"/>
	</g>
	<line class="st5" x1="793.2" y1="1919" x2="793.2" y2="1933"/>
	<text transform="matrix(1 0 0 1 776 1953)" class="st2 st3">Margins</text>
	<text transform="matrix(1 0 0 1 776 1971)" class="st4 st3">Leading and trailing margins on the left and right side of each symbol</text>
	<text transform="matrix(1 0 0 1 776 1989)" class="st4 st3">can be adjusted by modifying the x-location of the margin guidelines.</text>
	<text transform="matrix(1 0 0 1 776 2007)" class="st4 st3">Modifications are automatically applied proportionally to all</text>
	<text transform="matrix(1 0 0 1 776 2025)" class="st4 st3">scales and weights.</text>
	<g transform="matrix(1 0 0 1 1289 1933)">
		<path d="M2.8,1.9l1.7,1.7c0.9,0.9,1.8,0.8,2.8-0.2L18-8.4l-1-1L6.4,2.3C6,2.7,5.7,2.8,5.2,2.3L4.1,1.1C3.6,0.7,3.7,0.3,4.1,0
			l11.5-10.8l-1-1L3-0.9C2.1,0,2,1,2.8,1.9z M9.3-16.3c-0.4,0.4-0.4,1-0.2,1.4s0.7,0.6,1.3,0.4c1.5-0.3,3-0.4,4.4,0.5l-0.6,1.5
			c-0.3,0.8-0.2,1.4,0.4,2l2.3,2.3c0.5,0.5,0.9,0.5,1.5,0.4l1-0.2l0.7,0.7v0.6c0,0.5,0.1,0.9,0.6,1.4l0.8,0.7c0.5,0.5,1.1,0.5,1.6,0
			L26-7.5C26.5-8,26.4-8.6,26-9l-1-0.9c-0.5-0.5-0.9-0.6-1.3-0.6h-0.6l-0.6-0.6l0.2-1.1c0.1-0.6,0-1-0.6-1.6L19.9-16
			C16.6-19.3,12.1-19.2,9.3-16.3z M10.8-16c2.4-1.8,5.7-1.5,7.9,0.8l2.4,2.4c0.2,0.2,0.3,0.4,0.2,0.8L21-10.5L22.5-9l1-0.1
			c0.3,0,0.3,0,0.5,0.2l0.6,0.6l-2.4,2.4l-0.6-0.6c-0.2-0.2-0.2-0.3-0.2-0.5l0.1-1L20-9.5l-1.5,0.3c-0.3,0.1-0.5,0-0.7-0.2l-2-2
			c-0.3-0.2-0.3-0.4-0.1-0.8l0.9-2.1C15-15.8,13-16.4,11-15.8C10.7-15.7,10.6-15.9,10.8-16z"/>
	</g>
	<text transform="matrix(1 0 0 1 1289 1953)" class="st2 st3">Exporting</text>
	<text transform="matrix(1 0 0 1 1289 1971)" class="st4 st3">Symbols should be outlined when exporting to ensure the</text>
	<text transform="matrix(1 0 0 1 1289 1989)" class="st4 st3">design is preserved when submitting to Xcode.</text>
	<text id="template-version" transform="matrix(1 0 0 1 2952.4204 1933)" class="st4 st3">Template v.4.0</text>
	<text transform="matrix(1 0 0 1 2865.4575 1951)" class="st4 st3">Requires Xcode 14 or greater</text>
	<text id="descriptive-name" transform="matrix(1 0 0 1 2920.3833 1969)" class="st4 st3">Generated from nas</text>
	<text transform="matrix(1 0 0 1 2912.4175 1987)" class="st4 st3">Typeset at 100 points</text>
	<text transform="matrix(1 0 0 1 263 726)" class="st4 st3">Small</text>
	<text transform="matrix(1 0 0 1 263 1156)" class="st4 st3">Medium</text>
	<text transform="matrix(1 0 0 1 263 1586)" class="st4 st3">Large</text>
</g>
<g id="Guides">
	<g id="H-reference" transform="matrix(1 0 0 1 339 696)">
		<path class="st6" d="M1,0h2.6l25.7-67.1H30v-3.3h-1.9L1,0z M11.7-24.5H47l-0.8-2.2H12.4L11.7-24.5z M55.1,0h2.6L30.6-70.5h-1.2
			v3.3L55.1,0z"/>
	</g>
	<line id="Baseline-S" class="st7" x1="263" y1="696" x2="3036" y2="696"/>
	<line id="Capline-S" class="st7" x1="263" y1="625.5" x2="3036" y2="625.5"/>
	<g id="H-reference_1_" transform="matrix(1 0 0 1 339 1126)">
		<path class="st6" d="M1,0h2.6l25.7-67.1H30v-3.3h-1.9L1,0z M11.7-24.5H47l-0.8-2.2H12.4L11.7-24.5z M55.1,0h2.6L30.6-70.5h-1.2
			v3.3L55.1,0z"/>
	</g>
	<line id="Baseline-M" class="st7" x1="263" y1="1126" x2="3036" y2="1126"/>
	<line id="Capline-M" class="st7" x1="263" y1="1055.5" x2="3036" y2="1055.5"/>
	<g id="H-reference_2_" transform="matrix(1 0 0 1 339 1556)">
		<path class="st6" d="M1,0h2.6l25.7-67.1H30v-3.3h-1.9L1,0z M11.7-24.5H47l-0.8-2.2H12.4L11.7-24.5z M55.1,0h2.6L30.6-70.5h-1.2
			v3.3L55.1,0z"/>
	</g>
	<line id="Baseline-L" class="st7" x1="263" y1="1556" x2="3036" y2="1556"/>
	<line id="Capline-L" class="st7" x1="263" y1="1485.5" x2="3036" y2="1485.5"/>
	<line id="left-margin-Regular-M" class="st5" x1="1391.3" y1="1030.8" x2="1391.3" y2="1150.1"/>
	<line id="right-margin-Regular-M" class="st5" x1="1508.4" y1="1030.8" x2="1508.4" y2="1150.1"/>
</g>
<g id="Symbols">
	<g id="Black-L" transform="matrix(1 0 0 1 2854.19 1556)">
		<path d="M42.4-44.7c0,2.2-1.8,3.8-3.8,3.8c-2.2,0-3.8-1.8-3.8-3.8c0-2.2,1.8-3.8,3.8-3.8C40.7-48.5,42.4-46.9,42.4-44.7z
			 M76.2-37.9c0,2.2-1.8,3.8-3.8,3.8c-2.2,0-3.8-1.8-3.8-3.8c0-2.2,1.8-3.8,3.8-3.8C74.4-41.9,76.2-40.1,76.2-37.9z M97.7-37.9
			c0,2.2-1.8,3.8-3.8,3.8c-2.2,0-3.8-1.8-3.8-3.8c0-2.2,1.8-3.8,3.8-3.8C96.1-41.9,97.7-40.1,97.7-37.9z M119.4-37.9
			c0,2.2-1.8,3.8-3.8,3.8c-2.2,0-3.8-1.8-3.8-3.8c0-2.2,1.8-3.8,3.8-3.8C117.7-41.9,119.4-40.1,119.4-37.9z M42.4-28.6
			c0,2.2-1.8,3.8-3.8,3.8c-2.2,0-3.8-1.8-3.8-3.8c0-2.2,1.8-3.8,3.8-3.8C40.7-32.4,42.4-30.6,42.4-28.6z M141.2,35.7H17.1
			c-5.6,0-10.2-4.6-10.2-10.2v-89c0-5.6,4.6-10.2,10.2-10.2h124.1c5.6,0,10.2,4.6,10.2,10.2v89C151.4,31.1,146.8,35.7,141.2,35.7z
			 M23.2,20.7h111.9c0.7,0,1.4-0.6,1.4-1.4v-76.8c0-0.7-0.6-1.4-1.4-1.4H23.2c-0.7,0-1.4,0.6-1.4,1.4v76.8
			C21.8,20.1,22.4,20.7,23.2,20.7z M143.3-58c-2.9,0-5.6-1.6-6.8-4.4l-12.9-28.9H34.8l-2.1,4.7L21.7-62.4c-1.7,3.8-6.1,5.4-9.9,3.7
			c-3.8-1.7-5.4-6.1-3.7-9.9l14.1-31.3c1.7-3.8,5.6-6.4,9.8-6.4h94.3c3.9,0,7.8,2.5,9.6,6.2c0,0.1,0.1,0.2,0.1,0.3l14,31.3
			c1.7,3.8,0,8.2-3.8,9.8C145.3-58.2,144.3-58,143.3-58z M80.4,15H64.1c-4.7,0-8.5-3.8-8.5-8.5v-52.6c0-4.7,3.8-8.5,8.5-8.5h16.3
			c4.7,0,8.5,3.8,8.5,8.5V6.5C88.9,11.2,85.1,15,80.4,15z M68.5,3.5H76c0.7,0,1.4-0.6,1.4-1.4v-43.8c0-0.7-0.6-1.4-1.4-1.4h-7.5
			c-0.7,0-1.4,0.6-1.4,1.4V2.1C67.2,2.9,67.8,3.5,68.5,3.5z M102.1,15H85.8c-4.7,0-8.5-3.8-8.5-8.5v-52.6c0-4.7,3.8-8.5,8.5-8.5
			h16.3c4.7,0,8.5,3.8,8.5,8.5V6.5C110.5,11.2,106.7,15,102.1,15z M90.2,3.5h7.5c0.7,0,1.4-0.6,1.4-1.4v-43.8c0-0.7-0.6-1.4-1.4-1.4
			h-7.5c-0.7,0-1.4,0.6-1.4,1.4V2.1C88.9,2.9,89.5,3.5,90.2,3.5z M123.6,15h-16.3c-4.7,0-8.5-3.8-8.5-8.5v-52.6
			c0-4.7,3.8-8.5,8.5-8.5h16.3c4.7,0,8.5,3.8,8.5,8.5V6.5C132.1,11.2,128.3,15,123.6,15z M111.8,3.5h7.5c0.7,0,1.4-0.6,1.4-1.4
			v-43.8c0-0.7-0.6-1.4-1.4-1.4h-7.5c-0.7,0-1.4,0.6-1.4,1.4V2.1C110.4,2.9,111,3.5,111.8,3.5z"/>
	</g>
	<g id="Heavy-L" transform="matrix(1 0 0 1 2558.42 1556)">
		<path d="M43.5-44.6c0,2.3-1.7,4-4,4s-4-1.7-4-4s1.7-4,4-4S43.5-46.9,43.5-44.6z M76.9-37.9c0,2.3-1.7,4-4,4s-4-1.7-4-4s1.7-4,4-4
			S76.9-40.2,76.9-37.9z M98.4-37.9c0,2.3-1.7,4-4,4c-2.3,0-4-1.7-4-4s1.7-4,4-4C96.7-42,98.4-40.2,98.4-37.9z M119.8-37.9
			c0,2.3-1.7,4-4,4s-4-1.7-4-4s1.7-4,4-4S119.8-40.2,119.8-37.9z M43.5-28.6c0,2.3-1.7,4-4,4s-4-1.7-4-4s1.7-4,4-4
			S43.5-30.8,43.5-28.6z M139.8,34.4H16.7c-5.2,0-9.4-4.2-9.4-9.4v-88.3c0-5.2,4.2-9.4,9.4-9.4h123.1c5.2,0,9.4,4.2,9.4,9.4V25
			C149.2,30.1,145,34.4,139.8,34.4z M22.1,20.9h112.3c0.7,0,1.3-0.6,1.3-1.3v-77.5c0-0.7-0.6-1.3-1.3-1.3H22.1
			c-0.7,0-1.3,0.6-1.3,1.3v77.5C20.8,20.3,21.4,20.9,22.1,20.9z M80.9,14.1H64.8c-4.4,0-8-3.6-8-8V-46c0-4.4,3.6-8,8-8h16.1
			c4.4,0,8,3.6,8,8V6.1C88.9,10.6,85.4,14.1,80.9,14.1z M68.8,3.5H77c0.7,0,1.3-0.6,1.3-1.3V-42c0-0.7-0.6-1.3-1.3-1.3h-8.2
			c-0.7,0-1.3,0.6-1.3,1.3V2.2C67.4,2.9,68,3.5,68.8,3.5z M102.3,14.1H86.2c-4.4,0-8-3.6-8-8V-46c0-4.4,3.6-8,8-8h16.1
			c4.4,0,8,3.6,8,8V6.1C110.3,10.6,106.7,14.1,102.3,14.1z M90.2,3.5h8.2c0.7,0,1.3-0.6,1.3-1.3V-42c0-0.7-0.6-1.3-1.3-1.3h-8.2
			c-0.7,0-1.3,0.6-1.3,1.3V2.2C88.8,2.9,89.4,3.5,90.2,3.5z M123.8,14.1h-16.1c-4.4,0-8-3.6-8-8V-46c0-4.4,3.6-8,8-8h16.1
			c4.4,0,8,3.6,8,8V6.1C131.8,10.6,128.2,14.1,123.8,14.1z M111.6,3.5h8.2c0.7,0,1.3-0.6,1.3-1.3V-42c0-0.7-0.6-1.3-1.3-1.3h-8.2
			c-0.7,0-1.3,0.6-1.3,1.3V2.2C110.3,2.9,110.9,3.5,111.6,3.5z M141.9-58.5c-2.6,0-5-1.5-6.1-4l-13-29.1H33.9l-2.3,5L20.8-62.4
			c-1.5,3.4-5.5,4.9-8.9,3.4C8.5-60.6,7-64.6,8.5-68l14-31c1.6-3.5,5.3-6,9.1-6h93.5c3.6,0,7.3,2.4,9,5.7c0,0.1,0.1,0.2,0.1,0.3
			l13.8,31c1.5,3.4,0,7.4-3.4,8.9C143.7-58.7,142.8-58.5,141.9-58.5z"/>
	</g>
	<g id="Bold-L" transform="matrix(1 0 0 1 2262.89 1556)">
		<path d="M41.3-44.6c0,2.1-1.7,4-4,4s-4-1.7-4-4c0-2.3,1.7-4,4-4S41.3-46.8,41.3-44.6z M74.4-37.9c0,2.1-1.7,4-4,4
			c-2.1,0-4-1.7-4-4c0-2.3,1.7-4,4-4C72.6-41.9,74.4-40.2,74.4-37.9z M95.6-37.9c0,2.1-1.7,4-4,4c-2.1,0-4-1.7-4-4c0-2.3,1.7-4,4-4
			S95.6-40.2,95.6-37.9z M116.8-37.9c0,2.1-1.7,4-4,4c-2.1,0-4-1.7-4-4c0-2.3,1.7-4,4-4C115-41.9,116.8-40.2,116.8-37.9z M41.3-28.7
			c0,2.1-1.7,4-4,4s-4-1.7-4-4s1.7-4,4-4S41.3-30.8,41.3-28.7z M138.1,33.1h-122c-4.8,0-8.7-3.9-8.7-8.7v-87.5
			c0-4.8,3.9-8.7,8.7-8.7h122c4.8,0,8.7,3.9,8.7,8.7v87.5C146.7,29.2,142.9,33.1,138.1,33.1z M20.8,21.1h112.6
			c0.7,0,1.3-0.6,1.3-1.3v-78.2c0-0.7-0.6-1.3-1.3-1.3H20.8c-0.7,0-1.3,0.6-1.3,1.3v78.2C19.4,20.5,20,21.1,20.8,21.1z M140.1-58.9
			c-2.3,0-4.5-1.3-5.5-3.6l-13-29.2h-89l-2.1,4.8l-11,24.5c-1.4,3-4.9,4.4-7.9,3c-3-1.4-4.4-4.9-3-7.9l13.8-30.8
			c1.4-3.2,4.9-5.5,8.4-5.5h92.7c3.3,0,6.7,2.2,8.3,5.3c0,0.1,0.1,0.2,0.1,0.2l13.7,30.8c1.3,3,0,6.6-3,7.9
			C141.7-59.1,140.9-58.9,140.1-58.9z M78.4,13.2h-16c-4.1,0-7.5-3.3-7.5-7.5v-51.7c0-4.1,3.3-7.5,7.5-7.5h16c4.1,0,7.5,3.3,7.5,7.5
			V5.8C85.9,9.9,82.5,13.2,78.4,13.2z M65.9,3.6H75c0.7,0,1.3-0.6,1.3-1.3v-44.7c0-0.7-0.6-1.3-1.3-1.3h-9.1c-0.7,0-1.3,0.6-1.3,1.3
			V2.3C64.6,3,65.2,3.6,65.9,3.6z M99.6,13.2h-16c-4.1,0-7.5-3.3-7.5-7.5v-51.7c0-4.1,3.3-7.5,7.5-7.5h16c4.1,0,7.5,3.3,7.5,7.5V5.8
			C107.1,9.9,103.7,13.2,99.6,13.2z M87.1,3.6h9.1c0.7,0,1.3-0.6,1.3-1.3v-44.7c0-0.7-0.6-1.3-1.3-1.3h-9.1c-0.7,0-1.3,0.6-1.3,1.3
			V2.3C85.8,3,86.3,3.6,87.1,3.6z M120.9,13.2h-16c-4.1,0-7.5-3.3-7.5-7.5v-51.7c0-4.1,3.3-7.5,7.5-7.5h16c4.1,0,7.5,3.3,7.5,7.5
			V5.8C128.4,9.9,125,13.2,120.9,13.2z M108.4,3.6h9.1c0.7,0,1.3-0.6,1.3-1.3v-44.7c0-0.7-0.6-1.3-1.3-1.3h-9.1
			c-0.7,0-1.3,0.6-1.3,1.3V2.3C107.1,3,107.7,3.6,108.4,3.6z"/>
	</g>
	<g id="Semibold-L" transform="matrix(1 0 0 1 1966.99 1556)">
		<path d="M40.8-44.5c0,2.2-1.8,4.1-4.1,4.1c-2.2,0-4.1-1.8-4.1-4.1s1.8-4.1,4.1-4.1C39-48.6,40.8-46.7,40.8-44.5z M73.7-37.9
			c0,2.2-1.8,4.1-4.1,4.1s-4.1-1.8-4.1-4.1s1.8-4.1,4.1-4.1S73.7-40.1,73.7-37.9z M94.6-37.9c0,2.2-1.8,4.1-4.1,4.1
			c-2.2,0-4.1-1.8-4.1-4.1s1.8-4.1,4.1-4.1S94.6-40.1,94.6-37.9z M115.8-37.9c0,2.2-1.8,4.1-4.1,4.1c-2.2,0-4.1-1.8-4.1-4.1
			s1.8-4.1,4.1-4.1C113.9-42,115.8-40.1,115.8-37.9z M40.8-28.8c0,2.2-1.8,4.1-4.1,4.1c-2.2,0-4.1-1.8-4.1-4.1s1.8-4.1,4.1-4.1
			C39-32.9,40.8-31,40.8-28.8z M136.6,31.8H15.8c-4.4,0-7.9-3.6-7.9-7.9v-86.7c0-4.4,3.6-7.9,7.9-7.9h120.8c4.4,0,7.9,3.6,7.9,7.9
			v86.7C144.5,28.2,141,31.8,136.6,31.8z M19.7,21.2h112.9c0.7,0,1.3-0.6,1.3-1.3v-78.8c0-0.7-0.6-1.3-1.3-1.3H19.7
			c-0.7,0-1.3,0.6-1.3,1.3v78.8C18.4,20.6,19,21.2,19.7,21.2z M138.6-59.4c-2,0-3.9-1.2-4.8-3.1l-13.1-29.3h-89l-2.8,6.3L18.5-62.5
			c-1.2,2.7-4.3,3.8-7,2.6c-2.7-1.2-3.8-4.3-2.6-7l13.7-30.5c1.3-3,4.5-5.1,7.7-5.1h91.8c3,0,6.2,2,7.6,4.9c0,0.1,0.1,0.1,0.1,0.2
			l13.6,30.5c1.2,2.7,0,5.8-2.7,7C140-59.5,139.3-59.4,138.6-59.4z M77.4,12.3H61.5c-3.8,0-6.9-3.1-6.9-6.9v-51.2
			c0-3.8,3.1-6.9,6.9-6.9h15.8c3.8,0,6.9,3.1,6.9,6.9V5.4C84.3,9.2,81.2,12.3,77.4,12.3z M64.5,3.7h9.9c0.7,0,1.3-0.6,1.3-1.3v-45.2
			c0-0.7-0.6-1.3-1.3-1.3h-9.9c-0.7,0-1.3,0.6-1.3,1.3V2.4C63.2,3.2,63.8,3.7,64.5,3.7z M98.5,12.3H82.6c-3.8,0-6.9-3.1-6.9-6.9
			v-51.2c0-3.8,3.1-6.9,6.9-6.9h15.8c3.8,0,6.9,3.1,6.9,6.9V5.4C105.4,9.2,102.3,12.3,98.5,12.3z M85.6,3.7h9.9
			c0.7,0,1.3-0.6,1.3-1.3v-45.2c0-0.7-0.6-1.3-1.3-1.3h-9.9c-0.7,0-1.3,0.6-1.3,1.3V2.4C84.3,3.2,84.9,3.7,85.6,3.7z M119.4,12.3
			h-15.8c-3.8,0-6.9-3.1-6.9-6.9v-51.2c0-3.8,3.1-6.9,6.9-6.9h15.8c3.8,0,6.9,3.1,6.9,6.9V5.4C126.4,9.2,123.3,12.3,119.4,12.3z
			 M106.6,3.7h9.9c0.7,0,1.3-0.6,1.3-1.3v-45.2c0-0.7-0.6-1.3-1.3-1.3h-9.9c-0.7,0-1.3,0.6-1.3,1.3V2.4
			C105.3,3.2,105.9,3.7,106.6,3.7z"/>
	</g>
	<g id="Medium-L" transform="matrix(1 0 0 1 1670.9 1556)">
		<path d="M73.6-37.8c0,2.3-1.9,4.3-4.3,4.3c-2.3,0-4.3-1.9-4.3-4.3s1.9-4.3,4.3-4.3C71.7-42.1,73.6-40.3,73.6-37.8z M41.5-28.9
			c0,2.3-1.9,4.3-4.3,4.3c-2.3,0-4.3-1.9-4.3-4.3s1.9-4.3,4.3-4.3C39.5-33.2,41.5-31.2,41.5-28.9z M41.5-44.3c0,2.3-1.9,4.3-4.3,4.3
			c-2.3,0-4.3-1.9-4.3-4.3s1.9-4.3,4.3-4.3C39.5-48.5,41.5-46.6,41.5-44.3z M94.1-37.8c0,2.3-1.9,4.3-4.3,4.3
			c-2.3,0-4.3-1.9-4.3-4.3s1.9-4.3,4.3-4.3C92.2-42.1,94.1-40.3,94.1-37.8z M114.6-37.8c0,2.3-1.9,4.3-4.3,4.3s-4.3-1.9-4.3-4.3
			s1.9-4.3,4.3-4.3C112.8-42.1,114.6-40.3,114.6-37.8z M134.7,29.6H16.6c-3.9,0-7.1-3.2-7.1-7.1v-84.7c0-3.9,3.2-7.1,7.1-7.1h118.2
			c3.9,0,7.1,3.2,7.1,7.1v84.7C141.8,26.5,138.6,29.6,134.7,29.6z M19.8,20.6h111.7c0.7,0,1.3-0.6,1.3-1.3V-59
			c0-0.7-0.6-1.3-1.3-1.3H19.8c-0.7,0-1.3,0.6-1.3,1.3v78.3C18.5,20,19.1,20.6,19.8,20.6z M136.8-59.5c-1.7,0-3.4-1-4.1-2.7
			l-13-29.1H31.8l-2,4.5l-11,24.5c-1,2.3-3.7,3.3-6,2.3c-2.3-1-3.3-3.7-2.3-6l13.4-29.8c1.2-2.7,4.1-4.6,7-4.6h89.8
			c2.7,0,5.6,1.8,6.9,4.4c0,0.1,0.1,0.1,0.1,0.2l13.3,29.8c1,2.3,0,4.9-2.3,6C138-59.6,137.4-59.5,136.8-59.5z M76.9,10.8H61.5
			c-3.5,0-6.3-2.8-6.3-6.3v-50c0-3.5,2.8-6.3,6.3-6.3h15.5c3.5,0,6.3,2.8,6.3,6.3v50C83.3,8,80.4,10.8,76.9,10.8z M63.9,3.3h10.6
			c0.7,0,1.3-0.6,1.3-1.3v-45.1c0-0.7-0.6-1.3-1.3-1.3H63.9c-0.7,0-1.3,0.6-1.3,1.3V2C62.6,2.8,63.2,3.3,63.9,3.3z M97.6,10.8H82.1
			c-3.5,0-6.3-2.8-6.3-6.3v-50c0-3.5,2.8-6.3,6.3-6.3h15.5c3.5,0,6.3,2.8,6.3,6.3v50C103.9,8,101.1,10.8,97.6,10.8z M84.6,3.3h10.6
			c0.7,0,1.3-0.6,1.3-1.3v-45.1c0-0.7-0.6-1.3-1.3-1.3H84.6c-0.7,0-1.3,0.6-1.3,1.3V2C83.3,2.8,83.8,3.3,84.6,3.3z M118.1,10.8
			h-15.5c-3.5,0-6.3-2.8-6.3-6.3v-50c0-3.5,2.8-6.3,6.3-6.3h15.5c3.5,0,6.3,2.8,6.3,6.3v50C124.4,8,121.6,10.8,118.1,10.8z
			 M105.1,3.3h10.6c0.7,0,1.3-0.6,1.3-1.3v-45.1c0-0.7-0.6-1.3-1.3-1.3h-10.6c-0.7,0-1.3,0.6-1.3,1.3V2
			C103.8,2.8,104.3,3.3,105.1,3.3z"/>
	</g>
	<g id="Regular-L" transform="matrix(1 0 0 1 1374.99 1556)">
		<path d="M40.8-44.3c0,2.6-2.1,4.7-4.7,4.7c-2.6,0-4.7-2.1-4.7-4.7c0-2.6,2.1-4.7,4.7-4.7C38.7-49,40.8-46.9,40.8-44.3z M73-37.8
			c0,2.6-2.1,4.7-4.7,4.7c-2.6,0-4.7-2.1-4.7-4.7c0-2.6,2.1-4.7,4.7-4.7C70.9-42.5,73-40.4,73-37.8z M40.8-28.9
			c0,2.6-2.1,4.7-4.7,4.7c-2.6,0-4.7-2.1-4.7-4.7s2.1-4.7,4.7-4.7C38.7-33.6,40.8-31.5,40.8-28.9z M134.1,29.2H15.6
			c-3.6,0-6.5-2.9-6.5-6.5v-85c0-3.6,2.9-6.5,6.5-6.5h118.5c3.6,0,6.5,2.9,6.5,6.5v85C140.6,26.3,137.7,29.2,134.1,29.2z M18.2,21.4
			h113.3c0.7,0,1.3-0.6,1.3-1.3v-79.8c0-0.7-0.6-1.3-1.3-1.3H18.2c-0.7,0-1.3,0.6-1.3,1.3v79.8C16.9,20.9,17.4,21.4,18.2,21.4z
			 M136-60.2c-1.5,0-2.9-0.9-3.5-2.3L119.3-92h-89l-1.5,3.3L17-62.5c-0.9,2-3.2,2.8-5.1,1.9c-2-0.9-2.8-3.2-1.9-5.1l13.5-29.9
			c1.1-2.5,3.7-4.2,6.4-4.2h90.1c2.5,0,5.1,1.7,6.3,4.1c0,0.1,0,0.1,0.1,0.2l13.3,29.9c0.9,2,0,4.3-2,5.1
			C137.1-60.3,136.6-60.2,136-60.2z M76.1,10.5H60.6c-3.2,0-5.9-2.6-5.9-5.9v-50.2c0-3.2,2.6-5.9,5.9-5.9h15.5
			c3.2,0,5.9,2.6,5.9,5.9V4.6C82,7.9,79.4,10.5,76.1,10.5z M62.6,3.9h11.5c0.7,0,1.3-0.6,1.3-1.3v-46.2c0-0.7-0.6-1.3-1.3-1.3H62.6
			c-0.7,0-1.3,0.6-1.3,1.3V2.6C61.3,3.3,61.9,3.9,62.6,3.9z M93.7-37.8c0,2.6-2.1,4.7-4.7,4.7s-4.7-2.1-4.7-4.7
			c0-2.6,2.1-4.7,4.7-4.7S93.7-40.4,93.7-37.8z M96.7,10.5H81.2c-3.2,0-5.9-2.6-5.9-5.9v-50.2c0-3.2,2.6-5.9,5.9-5.9h15.5
			c3.2,0,5.9,2.6,5.9,5.9V4.6C102.6,7.9,99.9,10.5,96.7,10.5z M83.2,3.9h11.5c0.7,0,1.3-0.6,1.3-1.3v-46.2c0-0.7-0.6-1.3-1.3-1.3
			H83.2c-0.7,0-1.3,0.6-1.3,1.3V2.6C81.9,3.3,82.5,3.9,83.2,3.9z M114.3-37.8c0,2.6-2.1,4.7-4.7,4.7c-2.6,0-4.7-2.1-4.7-4.7
			c0-2.6,2.1-4.7,4.7-4.7C112.2-42.5,114.3-40.4,114.3-37.8z M117.4,10.5h-15.5c-3.2,0-5.9-2.6-5.9-5.9v-50.2c0-3.2,2.6-5.9,5.9-5.9
			h15.5c3.2,0,5.9,2.6,5.9,5.9V4.6C123.3,7.9,120.6,10.5,117.4,10.5z M103.9,3.9h11.5c0.7,0,1.3-0.6,1.3-1.3v-46.2
			c0-0.7-0.6-1.3-1.3-1.3h-11.5c-0.7,0-1.3,0.6-1.3,1.3V2.6C102.6,3.3,103.2,3.9,103.9,3.9z"/>
	</g>
	<g id="Light-L" transform="matrix(1 0 0 1 1079.2 1556)">
		<path d="M40.3-44.3c0,2.7-2.2,4.9-4.9,4.9s-4.9-2.2-4.9-4.9s2.2-4.9,4.9-4.9S40.3-47,40.3-44.3z M72.4-37.8c0,2.7-2.2,4.9-4.9,4.9
			s-4.9-2.2-4.9-4.9c0-2.7,2.2-4.9,4.9-4.9S72.4-40.5,72.4-37.8z M40.3-28.9c0,2.7-2.2,4.9-4.9,4.9s-4.9-2.2-4.9-4.9
			s2.2-4.9,4.9-4.9S40.3-31.5,40.3-28.9z M133.1,28.4H14.9c-3.2,0-5.8-2.6-5.8-5.8v-84.8c0-3.2,2.6-5.8,5.8-5.8h118.2
			c3.2,0,5.8,2.6,5.8,5.8v84.8C138.9,25.8,136.3,28.4,133.1,28.4z M16.8,21.9h114.3c0.7,0,1.3-0.6,1.3-1.3v-80.9
			c0-0.7-0.6-1.3-1.3-1.3H16.8c-0.7,0-1.3,0.6-1.3,1.3v80.9C15.6,21.3,16.1,21.9,16.8,21.9z M135.1-60.8c-1.2,0-2.4-0.7-2.9-1.9
			L119-92.4c0,0-0.1-0.1-0.2-0.1H28.1c0,0,1.2,0,1.2,0.1L15.9-62.7c-0.7,1.6-2.6,2.3-4.3,1.6c-1.6-0.7-2.3-2.6-1.6-4.3l13.4-29.8
			c1-2.3,3.4-3.8,5.8-3.8H119c2.2,0,4.6,1.6,5.7,3.7c0,0,0,0.1,0.1,0.1l13.3,29.8C138.8-63.7,137.7-60.8,135.1-60.8z M75.3,9.9H59.8
			c-3,0-5.4-2.4-5.4-5.4v-50.1c0-3,2.4-5.4,5.4-5.4h15.5c3,0,5.4,2.4,5.4,5.4V4.5C80.7,7.5,78.3,9.9,75.3,9.9z M61.3,4.2h12.4
			c0.7,0,1.3-0.6,1.3-1.3v-47c0-0.7-0.6-1.3-1.3-1.3H61.3c-0.7,0-1.3,0.6-1.3,1.3v47C60.1,3.7,60.6,4.2,61.3,4.2z M93-37.8
			c0,2.7-2.2,4.9-4.9,4.9s-4.9-2.2-4.9-4.9c0-2.7,2.2-4.9,4.9-4.9S93-40.5,93-37.8z M95.9,9.9H80.4c-3,0-5.4-2.4-5.4-5.4v-50.1
			c0-3,2.4-5.4,5.4-5.4h15.5c3,0,5.4,2.4,5.4,5.4V4.5C101.3,7.5,98.9,9.9,95.9,9.9z M82,4.2h12.4c0.7,0,1.3-0.6,1.3-1.3v-47
			c0-0.7-0.6-1.3-1.3-1.3H82c-0.7,0-1.3,0.6-1.3,1.3v47C80.7,3.7,81.3,4.2,82,4.2z M113.6-37.8c0,2.7-2.2,4.9-4.9,4.9
			s-4.9-2.2-4.9-4.9c0-2.7,2.2-4.9,4.9-4.9S113.6-40.5,113.6-37.8z M116.4,9.9H101c-3,0-5.4-2.4-5.4-5.4v-50.1c0-3,2.4-5.4,5.4-5.4
			h15.5c3,0,5.4,2.4,5.4,5.4V4.5C121.8,7.5,119.4,9.9,116.4,9.9z M102.5,4.2h12.4c0.7,0,1.3-0.6,1.3-1.3v-47c0-0.7-0.6-1.3-1.3-1.3
			h-12.4c-0.7,0-1.3,0.6-1.3,1.3v47C101.2,3.7,101.8,4.2,102.5,4.2z"/>
	</g>
	<g id="Thin-L" transform="matrix(1 0 0 1 783.716 1556)">
		<path d="M39.3-44.3c0,2.8-2.3,5.2-5.2,5.2S29-41.4,29-44.3s2.3-5.2,5.2-5.2S39.3-47.1,39.3-44.3z M71.4-37.8
			c0,2.8-2.3,5.2-5.2,5.2c-2.8,0-5.2-2.3-5.2-5.2s2.3-5.2,5.2-5.2C69.1-43,71.4-40.7,71.4-37.8z M39.3-28.9c0,2.8-2.3,5.2-5.2,5.2
			S29-26.1,29-28.9s2.3-5.2,5.2-5.2C37-33.9,39.3-31.8,39.3-28.9z M131.8,27.7H13.6c-2.8,0-5.2-2.3-5.2-5.2v-84.8
			c0-2.8,2.3-5.2,5.2-5.2h118.2c2.8,0,5.2,2.3,5.2,5.2v84.8C137,25.4,134.6,27.7,131.8,27.7z M13.6-60.9v82.2c0,0.7,0.6,1.3,1.3,1.3
			h115.6c0.7,0,1.3-0.6,1.3-1.3v-82.2c0-0.7-0.6-1.3-1.3-1.3H14.9C14.2-62.2,13.6-61.6,13.6-60.9z M133.7-61.4c-1,0-1.9-0.6-2.4-1.5
			l-13.3-29.8c0-0.1-0.4-0.4-0.6-0.4l-89.7,0c-0.1,0-0.4,0.2-0.5,0.4L13.9-62.9c-0.6,1.3-2.1,1.9-3.4,1.3c-1.3-0.6-1.9-2.1-1.3-3.4
			l13.4-29.8c0.9-2,3.1-3.5,5.2-3.5h89.8c2,0,4.2,1.4,5.1,3.4l13.3,29.9c0.6,1.3,0,2.8-1.3,3.4C134.4-61.5,134.1-61.4,133.7-61.4z
			 M73.9,9.5H58.4c-2.7,0-5-2.2-5-5v-50.1c0-2.7,2.2-5,5-5h15.5c2.7,0,5,2.2,5,5V4.5C78.8,7.2,76.6,9.5,73.9,9.5z M58.4-45.7
			c-0.1,0-0.2,0.1-0.2,0.2V4.5c0,0.1,0.1,0.2,0.2,0.2h15.5c0.1,0,0.2-0.1,0.2-0.2v-50.1c0-0.1-0.1-0.2-0.2-0.2H58.4z M91.9-37.8
			c0,2.8-2.3,5.2-5.2,5.2c-2.8,0-5.2-2.3-5.2-5.2s2.3-5.2,5.2-5.2C89.6-43,91.9-40.7,91.9-37.8z M94.5,9.5H79c-2.7,0-5-2.2-5-5
			v-50.1c0-2.7,2.2-5,5-5h15.5c2.7,0,5,2.2,5,5V4.5C99.5,7.2,97.3,9.5,94.5,9.5z M79-45.7c-0.1,0-0.2,0.1-0.2,0.2V4.5
			c0,0.1,0.1,0.2,0.2,0.2h15.5c0.1,0,0.2-0.1,0.2-0.2v-50.1c0-0.1-0.1-0.2-0.2-0.2H79z M112.4-37.8c0,2.8-2.3,5.2-5.2,5.2
			c-2.8,0-5.2-2.3-5.2-5.2s2.3-5.2,5.2-5.2C110.1-43,112.4-40.7,112.4-37.8z M115,9.5H99.5c-2.7,0-5-2.2-5-5v-50.1c0-2.7,2.2-5,5-5
			H115c2.7,0,5,2.2,5,5V4.5C120,7.2,117.8,9.5,115,9.5z M99.5-45.7c-0.1,0-0.2,0.1-0.2,0.2V4.5c0,0.1,0.1,0.2,0.2,0.2H115
			c0.1,0,0.2-0.1,0.2-0.2v-50.1c0-0.1-0.1-0.2-0.2-0.2H99.5z"/>
	</g>
	<g id="Ultralight-L" transform="matrix(1 0 0 1 487.631 1556)">
		<path d="M38.6-44c0,2.8-2.3,5-5,5s-5-2.3-5-5s2.3-5,5-5S38.6-46.8,38.6-44z M69.8-37.7c0,2.8-2.3,5-5,5c-2.8,0-5-2.3-5-5
			c0-2.8,2.3-5,5-5C67.5-42.8,69.8-40.5,69.8-37.7z M38.6-29.1c0,2.8-2.3,5-5,5s-5-2.3-5-5s2.3-5,5-5S38.6-31.9,38.6-29.1z
			 M128.5,25.3H13.6c-2.4,0-4.4-2-4.4-4.4v-82.4c0-2.4,2-4.4,4.4-4.4h114.9c2.4,0,4.4,2,4.4,4.4v82.4
			C132.9,23.4,130.9,25.3,128.5,25.3z M13.6-62.1c-0.3,0-0.6,0.3-0.6,0.6v82.4c0,0.3,0.3,0.6,0.6,0.6h114.9c0.3,0,0.6-0.3,0.6-0.6
			v-82.4c0-0.3-0.3-0.6-0.6-0.6H13.6z M130.4-61.3c-0.7,0-1.4-0.4-1.7-1.1l-12.9-29c-0.2-0.3-0.8-0.7-1-0.8H27.4
			c-0.2,0-0.8,0.3-1,0.8l-13,29c-0.4,0.9-1.5,1.4-2.5,0.9C9.9-61.9,9.5-63,9.9-64l13-29c0.8-1.7,2.7-3,4.5-3h87.3
			c1.7,0,3.6,1.3,4.4,2.9l13,29c0.4,0.9,0,2.1-1,2.5C130.9-61.4,130.6-61.3,130.4-61.3z M72.3,7.8h-15c-2.4,0-4.4-2-4.4-4.4v-48.7
			c0-2.4,2-4.4,4.4-4.4h15c2.4,0,4.4,2,4.4,4.4V3.4C76.7,5.8,74.7,7.8,72.3,7.8z M57.3-45.9c-0.3,0-0.6,0.3-0.6,0.6V3.4
			c0,0.3,0.3,0.6,0.6,0.6h15c0.3,0,0.6-0.3,0.6-0.6v-48.7c0-0.3-0.3-0.6-0.6-0.6H57.3z M89.7-37.7c0,2.8-2.3,5-5,5s-5-2.3-5-5
			c0-2.8,2.3-5,5-5S89.7-40.5,89.7-37.7z M92.2,7.8h-15c-2.4,0-4.4-2-4.4-4.4v-48.7c0-2.4,2-4.4,4.4-4.4h15c2.4,0,4.4,2,4.4,4.4V3.4
			C96.6,5.8,94.7,7.8,92.2,7.8z M77.2-45.9c-0.3,0-0.6,0.3-0.6,0.6V3.4c0,0.3,0.3,0.6,0.6,0.6h15c0.3,0,0.6-0.3,0.6-0.6v-48.7
			c0-0.3-0.3-0.6-0.6-0.6H77.2z M109.8-37.7c0,2.8-2.3,5-5,5s-5-2.3-5-5c0-2.8,2.3-5,5-5S109.8-40.5,109.8-37.7z M112.2,7.8h-15
			c-2.4,0-4.4-2-4.4-4.4v-48.7c0-2.4,2-4.4,4.4-4.4h15c2.4,0,4.4,2,4.4,4.4V3.4C116.6,5.8,114.6,7.8,112.2,7.8z M97.1-45.9
			c-0.3,0-0.6,0.3-0.6,0.6V3.4c0,0.3,0.3,0.6,0.6,0.6h15c0.3,0,0.6-0.3,0.6-0.6v-48.7c0-0.3-0.3-0.6-0.6-0.6H97.1z"/>
	</g>
	<g id="Black-M" transform="matrix(1 0 0 1 2871.36 1126)">
		<path d="M33.5-42.6c0,1.7-1.4,2.9-2.9,2.9c-1.7,0-2.9-1.4-2.9-2.9c0-1.7,1.4-2.9,2.9-2.9C32.2-45.5,33.5-44.3,33.5-42.6z
			 M59.7-37.3c0,1.7-1.4,2.9-2.9,2.9c-1.7,0-2.9-1.4-2.9-2.9c0-1.7,1.4-2.9,2.9-2.9C58.3-40.4,59.7-39,59.7-37.3z M76.4-37.3
			c0,1.7-1.4,2.9-2.9,2.9c-1.7,0-2.9-1.4-2.9-2.9c0-1.7,1.4-2.9,2.9-2.9C75.1-40.4,76.4-39,76.4-37.3z M93.2-37.3
			c0,1.7-1.4,2.9-2.9,2.9c-1.7,0-2.9-1.4-2.9-2.9c0-1.7,1.4-2.9,2.9-2.9C91.8-40.4,93.2-39,93.2-37.3z M33.5-30.1
			c0,1.7-1.4,2.9-2.9,2.9c-1.7,0-2.9-1.4-2.9-2.9c0-1.7,1.4-2.9,2.9-2.9C32.2-33,33.5-31.7,33.5-30.1z M110.1,19.7H13.9
			c-4.3,0-7.9-3.5-7.9-7.9v-69c0-4.3,3.5-7.9,7.9-7.9h96.2c4.3,0,7.9,3.5,7.9,7.9v69C118,16.2,114.5,19.7,110.1,19.7z M18.6,8.1
			h86.8c0.6,0,1.1-0.5,1.1-1.1v-59.6c0-0.6-0.5-1.1-1.1-1.1H18.6c-0.6,0-1.1,0.5-1.1,1.1V7.1C17.6,7.7,18,8.1,18.6,8.1z M111.7-52.9
			c-2.2,0-4.3-1.3-5.3-3.4l-10-22.4H27.6l-1.6,3.6l-8.5,18.8c-1.3,2.9-4.7,4.2-7.6,2.9c-2.9-1.3-4.2-4.7-2.9-7.6l10.9-24.3
			c1.3-3,4.4-5,7.6-5h73.1c3,0,6.1,2,7.5,4.8c0,0.1,0.1,0.2,0.1,0.2L117-61c1.3,2.9,0,6.3-2.9,7.6C113.3-53.1,112.5-52.9,111.7-52.9
			z M62.9,3.7H50.3c-3.6,0-6.6-2.9-6.6-6.6v-40.8c0-3.6,2.9-6.6,6.6-6.6h12.6c3.6,0,6.6,2.9,6.6,6.6v40.8
			C69.5,0.7,66.6,3.7,62.9,3.7z M53.8-5.3h5.8c0.6,0,1.1-0.5,1.1-1.1v-33.9c0-0.6-0.5-1.1-1.1-1.1h-5.8c-0.6,0-1.1,0.5-1.1,1.1v33.9
			C52.7-5.7,53.2-5.3,53.8-5.3z M79.8,3.7H67.1c-3.6,0-6.6-2.9-6.6-6.6v-40.8c0-3.6,2.9-6.6,6.6-6.6h12.6c3.6,0,6.6,2.9,6.6,6.6
			v40.8C86.3,0.7,83.4,3.7,79.8,3.7z M70.6-5.3h5.8c0.6,0,1.1-0.5,1.1-1.1v-33.9c0-0.6-0.5-1.1-1.1-1.1h-5.8c-0.6,0-1.1,0.5-1.1,1.1
			v33.9C69.5-5.7,70-5.3,70.6-5.3z M96.5,3.7H83.9c-3.6,0-6.6-2.9-6.6-6.6v-40.8c0-3.6,2.9-6.6,6.6-6.6h12.6c3.6,0,6.6,2.9,6.6,6.6
			v40.8C103,0.7,100.1,3.7,96.5,3.7z M87.3-5.3H93c0.6,0,1.1-0.5,1.1-1.1v-33.9c0-0.6-0.5-1.1-1.1-1.1h-5.8c-0.6,0-1.1,0.5-1.1,1.1
			v33.9C86.2-5.7,86.7-5.3,87.3-5.3z"/>
	</g>
	<g id="Heavy-M" transform="matrix(1 0 0 1 2575.48 1126)">
		<path d="M34.2-42.5c0,1.8-1.4,3.1-3.1,3.1c-1.8,0-3.1-1.4-3.1-3.1c0-1.8,1.4-3.1,3.1-3.1C32.9-45.7,34.2-44.3,34.2-42.5z
			 M60.2-37.3c0,1.8-1.4,3.1-3.1,3.1s-3.1-1.4-3.1-3.1c0-1.8,1.4-3.1,3.1-3.1S60.2-39.1,60.2-37.3z M76.8-37.3
			c0,1.8-1.4,3.1-3.1,3.1s-3.1-1.4-3.1-3.1c0-1.8,1.4-3.1,3.1-3.1S76.8-39.1,76.8-37.3z M93.4-37.3c0,1.8-1.4,3.1-3.1,3.1
			c-1.8,0-3.1-1.4-3.1-3.1c0-1.8,1.4-3.1,3.1-3.1C92-40.5,93.4-39.1,93.4-37.3z M34.2-30.1c0,1.8-1.4,3.1-3.1,3.1
			c-1.8,0-3.1-1.4-3.1-3.1c0-1.8,1.4-3.1,3.1-3.1C32.9-33.3,34.2-31.8,34.2-30.1z M108.9,18.7H13.5c-4,0-7.3-3.3-7.3-7.3V-57
			c0-4,3.3-7.3,7.3-7.3h95.4c4,0,7.3,3.3,7.3,7.3v68.4C116.2,15.4,112.9,18.7,108.9,18.7z M17.7,8.3h87.1c0.6,0,1-0.5,1-1v-60.1
			c0-0.6-0.5-1-1-1H17.7c-0.6,0-1,0.5-1,1V7.2C16.6,7.8,17.1,8.3,17.7,8.3z M63.3,3H50.8c-3.4,0-6.2-2.8-6.2-6.2v-40.4
			c0-3.4,2.8-6.2,6.2-6.2h12.5c3.4,0,6.2,2.8,6.2,6.2v40.4C69.5,0.2,66.7,3,63.3,3z M53.9-5.2h6.4c0.6,0,1-0.5,1-1v-34.3
			c0-0.6-0.5-1-1-1h-6.4c-0.6,0-1,0.5-1,1v34.3C52.8-5.7,53.3-5.2,53.9-5.2z M79.8,3H67.3c-3.4,0-6.2-2.8-6.2-6.2v-40.4
			c0-3.4,2.8-6.2,6.2-6.2h12.5c3.4,0,6.2,2.8,6.2,6.2v40.4C86,0.2,83.3,3,79.8,3z M70.4-5.2h6.4c0.6,0,1-0.5,1-1v-34.3
			c0-0.6-0.5-1-1-1h-6.4c-0.6,0-1,0.5-1,1v34.3C69.4-5.7,69.8-5.2,70.4-5.2z M96.5,3H84c-3.4,0-6.2-2.8-6.2-6.2v-40.4
			c0-3.4,2.8-6.2,6.2-6.2h12.5c3.4,0,6.2,2.8,6.2,6.2v40.4C102.7,0.2,99.9,3,96.5,3z M87.1-5.2h6.4c0.6,0,1-0.5,1-1v-34.3
			c0-0.6-0.5-1-1-1h-6.4c-0.6,0-1,0.5-1,1v34.3C86-5.7,86.5-5.2,87.1-5.2z M110.5-53.3c-2,0-3.9-1.2-4.8-3.1l-10-22.5H26.8L25-75
			l-8.4,18.7c-1.2,2.6-4.3,3.8-6.9,2.6C7.1-54.9,6-58,7.1-60.6L18-84.7c1.2-2.7,4.1-4.6,7-4.6h72.5c2.8,0,5.6,1.8,6.9,4.4
			c0,0.1,0.1,0.1,0.1,0.2l10.7,24.1c1.2,2.6,0,5.7-2.6,6.9C111.9-53.4,111.2-53.3,110.5-53.3z"/>
	</g>
	<g id="Bold-M" transform="matrix(1 0 0 1 2279.69 1126)">
		<path d="M32.5-42.5c0,1.7-1.3,3.1-3.1,3.1s-3.1-1.3-3.1-3.1s1.3-3.1,3.1-3.1S32.5-44.2,32.5-42.5z M58.2-37.3
			c0,1.7-1.3,3.1-3.1,3.1c-1.7,0-3.1-1.3-3.1-3.1c0-1.8,1.3-3.1,3.1-3.1C56.8-40.4,58.2-39.1,58.2-37.3z M74.6-37.3
			c0,1.7-1.3,3.1-3.1,3.1c-1.7,0-3.1-1.3-3.1-3.1c0-1.8,1.3-3.1,3.1-3.1S74.6-39.1,74.6-37.3z M91.1-37.3c0,1.7-1.3,3.1-3.1,3.1
			c-1.7,0-3.1-1.3-3.1-3.1c0-1.8,1.3-3.1,3.1-3.1C89.7-40.4,91.1-39.1,91.1-37.3z M32.5-30.2c0,1.7-1.3,3.1-3.1,3.1
			s-3.1-1.3-3.1-3.1s1.3-3.1,3.1-3.1S32.5-31.8,32.5-30.2z M107.6,17.7H13c-3.7,0-6.7-3-6.7-6.7v-67.8c0-3.7,3-6.7,6.7-6.7h94.5
			c3.7,0,6.7,3,6.7,6.7V11C114.3,14.7,111.3,17.7,107.6,17.7z M16.6,8.4H104c0.6,0,1-0.5,1-1v-60.6c0-0.6-0.5-1-1-1H16.6
			c-0.6,0-1,0.5-1,1V7.4C15.6,7.9,16.1,8.4,16.6,8.4z M109.1-53.6c-1.8,0-3.5-1-4.2-2.8L94.8-79h-69l-1.7,3.7l-8.5,19
			C14.6-54,11.8-53,9.5-54c-2.3-1.1-3.4-3.8-2.3-6.1L17.9-84c1.1-2.5,3.8-4.3,6.5-4.3h71.8c2.6,0,5.2,1.7,6.4,4.1
			c0,0.1,0.1,0.1,0.1,0.2l10.6,23.8c1,2.3,0,5.1-2.4,6.1C110.4-53.7,109.8-53.6,109.1-53.6z M61.3,2.3H48.9c-3.2,0-5.8-2.6-5.8-5.8
			v-40c0-3.2,2.6-5.8,5.8-5.8h12.4c3.2,0,5.8,2.6,5.8,5.8v40C67.1-0.3,64.5,2.3,61.3,2.3z M51.6-5.1h7c0.6,0,1-0.5,1-1v-34.7
			c0-0.6-0.5-1-1-1h-7c-0.6,0-1,0.5-1,1v34.7C50.6-5.6,51.1-5.1,51.6-5.1z M77.7,2.3H65.4c-3.2,0-5.8-2.6-5.8-5.8v-40
			c0-3.2,2.6-5.8,5.8-5.8h12.4c3.2,0,5.8,2.6,5.8,5.8v40C83.5-0.3,80.9,2.3,77.7,2.3z M68-5.1h7c0.6,0,1-0.5,1-1v-34.7
			c0-0.6-0.5-1-1-1h-7c-0.6,0-1,0.5-1,1v34.7C67-5.6,67.5-5.1,68-5.1z M94.3,2.3H81.9c-3.2,0-5.8-2.6-5.8-5.8v-40
			c0-3.2,2.6-5.8,5.8-5.8h12.4c3.2,0,5.8,2.6,5.8,5.8v40C100-0.3,97.4,2.3,94.3,2.3z M84.6-5.1h7c0.6,0,1-0.5,1-1v-34.7
			c0-0.6-0.5-1-1-1h-7c-0.6,0-1,0.5-1,1v34.7C83.5-5.6,84-5.1,84.6-5.1z"/>
	</g>
	<g id="Semibold-M" transform="matrix(1 0 0 1 1983.62 1126)">
		<path d="M32.1-42.4c0,1.7-1.4,3.2-3.2,3.2s-3.2-1.4-3.2-3.2c0-1.7,1.4-3.2,3.2-3.2S32.1-44.1,32.1-42.4z M57.6-37.3
			c0,1.7-1.4,3.2-3.2,3.2c-1.7,0-3.2-1.4-3.2-3.2c0-1.7,1.4-3.2,3.2-3.2C56.2-40.5,57.6-39,57.6-37.3z M73.9-37.3
			c0,1.7-1.4,3.2-3.2,3.2c-1.7,0-3.2-1.4-3.2-3.2c0-1.7,1.4-3.2,3.2-3.2S73.9-39,73.9-37.3z M90.2-37.3c0,1.7-1.4,3.2-3.2,3.2
			c-1.7,0-3.2-1.4-3.2-3.2c0-1.7,1.4-3.2,3.2-3.2C88.8-40.5,90.2-39,90.2-37.3z M32.1-30.2c0,1.7-1.4,3.2-3.2,3.2s-3.2-1.4-3.2-3.2
			s1.4-3.2,3.2-3.2S32.1-32,32.1-30.2z M106.4,16.7H12.7c-3.4,0-6.1-2.8-6.1-6.1v-67.2c0-3.4,2.8-6.1,6.1-6.1h93.7
			c3.4,0,6.1,2.8,6.1,6.1v67.2C112.5,13.9,109.8,16.7,106.4,16.7z M15.8,8.5h87.5c0.6,0,1-0.5,1-1v-61.1c0-0.6-0.5-1-1-1H15.8
			c-0.6,0-1,0.5-1,1V7.5C14.8,8.1,15.2,8.5,15.8,8.5z M107.9-54c-1.6,0-3.1-0.9-3.7-2.4L94-79.1H25l-2.2,4.9l-8,17.9
			c-0.9,2.1-3.4,3-5.4,2.1c-2.1-0.9-3-3.3-2.1-5.4L18-83.4c1-2.3,3.5-3.9,6-3.9h71.2c2.4,0,4.8,1.6,5.9,3.8c0,0.1,0.1,0.1,0.1,0.2
			l10.5,23.6c0.9,2.1,0,4.5-2.1,5.4C109-54.1,108.5-54,107.9-54z M60.5,1.6H48.2c-3,0-5.4-2.4-5.4-5.4v-39.7c0-3,2.4-5.4,5.4-5.4
			h12.3c3,0,5.4,2.4,5.4,5.4v39.7C65.8-0.8,63.4,1.6,60.5,1.6z M50.5-5h7.7c0.6,0,1-0.5,1-1v-35.1c0-0.6-0.5-1-1-1h-7.7
			c-0.6,0-1,0.5-1,1v35.1C49.5-5.5,49.9-5,50.5-5z M76.8,1.6H64.6c-3,0-5.4-2.4-5.4-5.4v-39.7c0-3,2.4-5.4,5.4-5.4h12.3
			c3,0,5.4,2.4,5.4,5.4v39.7C82.2-0.8,79.8,1.6,76.8,1.6z M66.9-5h7.7c0.6,0,1-0.5,1-1v-35.1c0-0.6-0.5-1-1-1h-7.7c-0.6,0-1,0.5-1,1
			v35.1C65.8-5.5,66.3-5,66.9-5z M93.1,1.6H80.8c-3,0-5.4-2.4-5.4-5.4v-39.7c0-3,2.4-5.4,5.4-5.4h12.3c3,0,5.4,2.4,5.4,5.4v39.7
			C98.5-0.8,96.1,1.6,93.1,1.6z M83.1-5h7.7c0.6,0,1-0.5,1-1v-35.1c0-0.6-0.5-1-1-1h-7.7c-0.6,0-1,0.5-1,1v35.1
			C82.1-5.5,82.6-5,83.1-5z"/>
	</g>
	<g id="Medium-M" transform="matrix(1 0 0 1 1687.4 1126)">
		<path d="M57.6-37.2c0,1.8-1.5,3.3-3.3,3.3c-1.8,0-3.3-1.5-3.3-3.3s1.5-3.3,3.3-3.3C56.1-40.5,57.6-39.1,57.6-37.2z M32.7-30.4
			c0,1.8-1.5,3.3-3.3,3.3c-1.8,0-3.3-1.5-3.3-3.3c0-1.8,1.5-3.3,3.3-3.3C31.2-33.7,32.7-32.2,32.7-30.4z M32.7-42.2
			c0,1.8-1.5,3.3-3.3,3.3c-1.8,0-3.3-1.5-3.3-3.3s1.5-3.3,3.3-3.3C31.2-45.5,32.7-44,32.7-42.2z M73.4-37.2c0,1.8-1.5,3.3-3.3,3.3
			c-1.8,0-3.3-1.5-3.3-3.3s1.5-3.3,3.3-3.3C71.9-40.5,73.4-39.1,73.4-37.2z M89.3-37.2c0,1.8-1.5,3.3-3.3,3.3
			c-1.8,0-3.3-1.5-3.3-3.3s1.5-3.3,3.3-3.3C87.9-40.5,89.3-39.1,89.3-37.2z M104.9,15H13.4c-3,0-5.5-2.5-5.5-5.5v-65.7
			c0-3,2.5-5.5,5.5-5.5h91.6c3,0,5.5,2.5,5.5,5.5V9.5C110.4,12.6,108,15,104.9,15z M15.9,8h86.6c0.6,0,1-0.4,1-1v-60.7
			c0-0.6-0.4-1-1-1H15.9c-0.6,0-1,0.4-1,1V7C14.9,7.6,15.3,8,15.9,8z M106.5-54c-1.3,0-2.6-0.8-3.2-2.1l-10-22.5H25.2l-1.6,3.5
			l-8.6,19c-0.8,1.8-2.9,2.5-4.6,1.8c-1.8-0.8-2.5-2.9-1.8-4.6l10.4-23.1c0.9-2.1,3.2-3.6,5.4-3.6H94c2.1,0,4.3,1.4,5.3,3.4
			c0,0,0,0.1,0.1,0.1L109.7-59c0.8,1.8,0,3.8-1.8,4.6C107.5-54.1,107-54,106.5-54z M60.2,0.4h-12c-2.7,0-4.9-2.2-4.9-4.9v-38.8
			c0-2.7,2.2-4.9,4.9-4.9h12c2.7,0,4.9,2.2,4.9,4.9v38.8C65.1-1.8,62.9,0.4,60.2,0.4z M50.1-5.4h8.2c0.6,0,1-0.4,1-1v-35
			c0-0.6-0.4-1-1-1h-8.2c-0.6,0-1,0.4-1,1v35C49.1-5.8,49.5-5.4,50.1-5.4z M76.1,0.4h-12c-2.7,0-4.9-2.2-4.9-4.9v-38.8
			c0-2.7,2.2-4.9,4.9-4.9h12c2.7,0,4.9,2.2,4.9,4.9v38.8C81-1.8,78.9,0.4,76.1,0.4z M66.1-5.4h8.2c0.6,0,1-0.4,1-1v-35
			c0-0.6-0.4-1-1-1h-8.2c-0.6,0-1,0.4-1,1v35C65.1-5.8,65.5-5.4,66.1-5.4z M92,0.4H80c-2.7,0-4.9-2.2-4.9-4.9v-38.8
			c0-2.7,2.2-4.9,4.9-4.9h12c2.7,0,4.9,2.2,4.9,4.9v38.8C96.9-1.8,94.7,0.4,92,0.4z M81.9-5.4h8.2c0.6,0,1-0.4,1-1v-35
			c0-0.6-0.4-1-1-1h-8.2c-0.6,0-1,0.4-1,1v35C80.9-5.8,81.4-5.4,81.9-5.4z"/>
	</g>
	<g id="Regular-M" transform="matrix(1 0 0 1 1391.32 1126)">
		<path d="M32.1-42.3c0,2-1.6,3.6-3.6,3.6s-3.6-1.6-3.6-3.6c0-2,1.6-3.6,3.6-3.6S32.1-44.3,32.1-42.3z M57.1-37.3
			c0,2-1.6,3.6-3.6,3.6c-2,0-3.6-1.6-3.6-3.6c0-2,1.6-3.6,3.6-3.6C55.5-40.9,57.1-39.3,57.1-37.3z M32.1-30.3c0,2-1.6,3.6-3.6,3.6
			s-3.6-1.6-3.6-3.6s1.6-3.6,3.6-3.6S32.1-32.3,32.1-30.3z M104.4,14.7H12.6c-2.8,0-5-2.2-5-5v-65.9c0-2.8,2.2-5,5-5h91.9
			c2.8,0,5,2.2,5,5V9.7C109.5,12.5,107.2,14.7,104.4,14.7z M14.6,8.7h87.9c0.6,0,1-0.4,1-1v-61.9c0-0.6-0.4-1-1-1H14.6
			c-0.6,0-1,0.4-1,1V7.7C13.6,8.2,14,8.7,14.6,8.7z M105.9-54.6c-1.2,0-2.3-0.7-2.7-1.8L93-79.3H24l-1.1,2.5l-9.2,20.4
			c-0.7,1.5-2.5,2.2-4,1.5c-1.5-0.7-2.2-2.5-1.5-4L18.6-82c0.9-1.9,2.9-3.3,5-3.3h69.8c1.9,0,4,1.3,4.9,3.2c0,0,0,0.1,0.1,0.1
			l10.3,23.2c0.7,1.5,0,3.3-1.5,4C106.8-54.7,106.4-54.6,105.9-54.6z M59.5,0.2h-12c-2.5,0-4.6-2-4.6-4.6v-38.9c0-2.5,2-4.6,4.6-4.6
			h12c2.5,0,4.6,2,4.6,4.6v38.9C64.1-1.8,62,0.2,59.5,0.2z M49-4.9h8.9c0.6,0,1-0.4,1-1v-35.8c0-0.6-0.4-1-1-1H49c-0.6,0-1,0.4-1,1
			v35.8C48-5.4,48.5-4.9,49-4.9z M73.1-37.3c0,2-1.6,3.6-3.6,3.6c-2,0-3.6-1.6-3.6-3.6c0-2,1.6-3.6,3.6-3.6
			C71.5-40.9,73.1-39.3,73.1-37.3z M75.5,0.2h-12c-2.5,0-4.6-2-4.6-4.6v-38.9c0-2.5,2-4.6,4.6-4.6h12c2.5,0,4.6,2,4.6,4.6v38.9
			C80-1.8,78,0.2,75.5,0.2z M65-4.9h8.9c0.6,0,1-0.4,1-1v-35.8c0-0.6-0.4-1-1-1H65c-0.6,0-1,0.4-1,1v35.8C64-5.4,64.4-4.9,65-4.9z
			 M89.1-37.3c0,2-1.6,3.6-3.6,3.6s-3.6-1.6-3.6-3.6c0-2,1.6-3.6,3.6-3.6S89.1-39.3,89.1-37.3z M91.5,0.2h-12c-2.5,0-4.6-2-4.6-4.6
			v-38.9c0-2.5,2-4.6,4.6-4.6h12c2.5,0,4.6,2,4.6,4.6v38.9C96.1-1.8,94,0.2,91.5,0.2z M81-4.9h8.9c0.6,0,1-0.4,1-1v-35.8
			c0-0.6-0.4-1-1-1H81c-0.6,0-1,0.4-1,1v35.8C80-5.4,80.5-4.9,81-4.9z"/>
	</g>
	<g id="Light-M" transform="matrix(1 0 0 1 1095.44 1126)">
		<path d="M31.7-42.2c0,2.1-1.7,3.8-3.8,3.8s-3.8-1.7-3.8-3.8s1.7-3.8,3.8-3.8S31.7-44.3,31.7-42.2z M56.6-37.2
			c0,2.1-1.7,3.8-3.8,3.8s-3.8-1.7-3.8-3.8s1.7-3.8,3.8-3.8S56.6-39.3,56.6-37.2z M31.7-30.3c0,2.1-1.7,3.8-3.8,3.8
			s-3.8-1.7-3.8-3.8s1.7-3.8,3.8-3.8S31.7-32.3,31.7-30.3z M103.5,14H12c-2.5,0-4.5-2-4.5-4.5v-65.7c0-2.5,2-4.5,4.5-4.5h91.6
			c2.5,0,4.5,2,4.5,4.5V9.5C108,12,106,14,103.5,14z M13.5,9H102c0.6,0,1-0.4,1-1v-62.7c0-0.6-0.4-1-1-1H13.5c-0.6,0-1,0.4-1,1V8
			C12.5,8.6,12.9,9,13.5,9z M105.2-55c-1,0-1.9-0.6-2.3-1.5l-10.3-23c0,0-0.1-0.1-0.1-0.1H22.2c0,0,1,0,0.9,0.1L12.7-56.5
			c-0.6,1.3-2,1.8-3.3,1.3c-1.3-0.6-1.8-2-1.3-3.3l10.4-23.1c0.8-1.7,2.6-3,4.5-3h69.6c1.7,0,3.6,1.2,4.4,2.9c0,0,0,0.1,0,0.1
			l10.3,23.1C108-57.3,107.2-55,105.2-55z M58.8-0.3h-12c-2.3,0-4.2-1.9-4.2-4.2v-38.8c0-2.3,1.9-4.2,4.2-4.2h12
			c2.3,0,4.2,1.9,4.2,4.2v38.8C63-2.1,61.1-0.3,58.8-0.3z M48-4.7h9.6c0.6,0,1-0.4,1-1V-42c0-0.6-0.4-1-1-1H48c-0.6,0-1,0.4-1,1
			v36.4C47-5.1,47.4-4.7,48-4.7z M72.4-37.2c0,2.1-1.7,3.8-3.8,3.8s-3.8-1.7-3.8-3.8s1.7-3.8,3.8-3.8S72.4-39.3,72.4-37.2z
			 M74.7-0.3h-12c-2.3,0-4.2-1.9-4.2-4.2v-38.8c0-2.3,1.9-4.2,4.2-4.2h12c2.3,0,4.2,1.9,4.2,4.2v38.8C79-2.1,77.1-0.3,74.7-0.3z
			 M64-4.7h9.6c0.6,0,1-0.4,1-1V-42c0-0.6-0.4-1-1-1H64c-0.6,0-1,0.4-1,1v36.4C63-5.1,63.4-4.7,64-4.7z M88.4-37.2
			c0,2.1-1.7,3.8-3.8,3.8s-3.8-1.7-3.8-3.8s1.7-3.8,3.8-3.8S88.4-39.3,88.4-37.2z M90.6-0.3h-12c-2.3,0-4.2-1.9-4.2-4.2v-38.8
			c0-2.3,1.9-4.2,4.2-4.2h12c2.3,0,4.2,1.9,4.2,4.2v38.8C94.8-2.1,93-0.3,90.6-0.3z M79.9-4.7h9.6c0.6,0,1-0.4,1-1V-42
			c0-0.6-0.4-1-1-1h-9.6c-0.6,0-1,0.4-1,1v36.4C78.9-5.1,79.3-4.7,79.9-4.7z"/>
	</g>
	<g id="Thin-M" transform="matrix(1 0 0 1 799.828 1126)">
		<path d="M30.7-42.2c0,2.2-1.8,4-4,4s-4-1.8-4-4s1.8-4,4-4S30.7-44.4,30.7-42.2z M55.6-37.2c0,2.2-1.8,4-4,4s-4-1.8-4-4s1.8-4,4-4
			S55.6-39.4,55.6-37.2z M30.7-30.3c0,2.2-1.8,4-4,4s-4-1.8-4-4s1.8-4,4-4C28.9-34.2,30.7-32.5,30.7-30.3z M102.4,13.5H10.8
			c-2.2,0-4-1.8-4-4v-65.7c0-2.2,1.8-4,4-4h91.6c2.2,0,4,1.8,4,4V9.5C106.4,11.8,104.6,13.5,102.4,13.5z M10.8-55.1V8.5
			c0,0.6,0.4,1,1,1h89.6c0.6,0,1-0.4,1-1v-63.7c0-0.6-0.4-1-1-1H11.8C11.2-56.1,10.8-55.7,10.8-55.1z M103.9-55.5
			c-0.8,0-1.5-0.4-1.8-1.2L91.8-79.8c0-0.1-0.3-0.3-0.5-0.3l-69.5,0c-0.1,0-0.3,0.2-0.4,0.3L11-56.7c-0.5,1-1.6,1.5-2.6,1
			c-1-0.5-1.5-1.6-1-2.6l10.4-23.1c0.7-1.5,2.4-2.7,4-2.7h69.6c1.6,0,3.2,1.1,4,2.6l10.3,23.2c0.4,1,0,2.2-1,2.6
			C104.4-55.6,104.2-55.5,103.9-55.5z M57.5-0.6h-12c-2.1,0-3.9-1.7-3.9-3.8v-38.8c0-2.1,1.7-3.9,3.9-3.9h12c2.1,0,3.9,1.7,3.9,3.9
			v38.8C61.3-2.3,59.6-0.6,57.5-0.6z M45.5-43.4c-0.1,0-0.1,0.1-0.1,0.1v38.8c0,0.1,0.1,0.2,0.1,0.2h12c0.1,0,0.1-0.1,0.1-0.2v-38.8
			c0-0.1-0.1-0.1-0.1-0.1H45.5z M71.5-37.2c0,2.2-1.8,4-4,4s-4-1.8-4-4s1.8-4,4-4C69.7-41.2,71.5-39.4,71.5-37.2z M73.5-0.6h-12
			c-2.1,0-3.9-1.7-3.9-3.8v-38.8c0-2.1,1.7-3.9,3.9-3.9h12c2.1,0,3.9,1.7,3.9,3.9v38.8C77.3-2.3,75.6-0.6,73.5-0.6z M61.5-43.4
			c-0.1,0-0.1,0.1-0.1,0.1v38.8c0,0.1,0.1,0.2,0.1,0.2h12c0.1,0,0.1-0.1,0.1-0.2v-38.8c0-0.1-0.1-0.1-0.1-0.1H61.5z M87.4-37.2
			c0,2.2-1.8,4-4,4s-4-1.8-4-4s1.8-4,4-4S87.4-39.4,87.4-37.2z M89.4-0.6h-12c-2.1,0-3.9-1.7-3.9-3.8v-38.8c0-2.1,1.7-3.9,3.9-3.9
			h12c2.1,0,3.9,1.7,3.9,3.9v38.8C93.2-2.3,91.5-0.6,89.4-0.6z M77.4-43.4c-0.1,0-0.1,0.1-0.1,0.1v38.8c0,0.1,0.1,0.2,0.1,0.2h12
			c0.1,0,0.1-0.1,0.1-0.2v-38.8c0-0.1-0.1-0.1-0.1-0.1H77.4z"/>
	</g>
	<g id="Ultralight-M" transform="matrix(1 0 0 1 503.679 1126)">
		<path d="M29.8-42.1c0,2.1-1.7,3.9-3.9,3.9S22-39.9,22-42.1c0-2.1,1.7-3.9,3.9-3.9S29.8-44.2,29.8-42.1z M54-37.2
			c0,2.1-1.7,3.9-3.9,3.9s-3.9-1.7-3.9-3.9s1.7-3.9,3.9-3.9S54-39.3,54-37.2z M29.8-30.5c0,2.1-1.7,3.9-3.9,3.9S22-28.3,22-30.5
			s1.7-3.9,3.9-3.9S29.8-32.6,29.8-30.5z M99.5,11.7h-89c-1.9,0-3.4-1.5-3.4-3.4v-63.9c0-1.9,1.5-3.4,3.4-3.4h89
			c1.9,0,3.4,1.5,3.4,3.4V8.3C102.9,10.2,101.4,11.7,99.5,11.7z M10.5-56.1c-0.3,0-0.5,0.2-0.5,0.5V8.3c0,0.3,0.2,0.5,0.5,0.5h89
			c0.3,0,0.5-0.2,0.5-0.5v-63.9c0-0.3-0.2-0.5-0.5-0.5H10.5z M101-55.5c-0.6,0-1.1-0.3-1.3-0.9l-10-22.5c-0.1-0.3-0.6-0.6-0.8-0.6
			H21.2c-0.2,0-0.6,0.2-0.8,0.6L10.3-56.3c-0.3,0.7-1.2,1.1-1.9,0.7c-0.7-0.3-1.1-1.2-0.7-1.9L17.7-80c0.6-1.3,2.1-2.3,3.5-2.3h67.7
			c1.3,0,2.8,1,3.4,2.3l10,22.5c0.3,0.7,0,1.6-0.7,1.9C101.4-55.5,101.2-55.5,101-55.5z M56-1.9H44.3c-1.9,0-3.4-1.5-3.4-3.4V-43
			c0-1.9,1.5-3.4,3.4-3.4H56c1.9,0,3.4,1.5,3.4,3.4v37.7C59.4-3.4,57.8-1.9,56-1.9z M44.3-43.5c-0.3,0-0.5,0.2-0.5,0.5v37.7
			c0,0.3,0.2,0.5,0.5,0.5H56c0.3,0,0.5-0.2,0.5-0.5V-43c0-0.3-0.2-0.5-0.5-0.5H44.3z M69.5-37.2c0,2.1-1.7,3.9-3.9,3.9
			c-2.1,0-3.9-1.7-3.9-3.9s1.7-3.9,3.9-3.9C67.7-41.1,69.5-39.3,69.5-37.2z M71.4-1.9H59.8c-1.9,0-3.4-1.5-3.4-3.4V-43
			c0-1.9,1.5-3.4,3.4-3.4h11.7c1.9,0,3.4,1.5,3.4,3.4v37.7C74.8-3.4,73.3-1.9,71.4-1.9z M59.8-43.5c-0.3,0-0.5,0.2-0.5,0.5v37.7
			c0,0.3,0.2,0.5,0.5,0.5h11.7c0.3,0,0.5-0.2,0.5-0.5V-43c0-0.3-0.2-0.5-0.5-0.5H59.8z M85-37.2c0,2.1-1.7,3.9-3.9,3.9
			c-2.1,0-3.9-1.7-3.9-3.9s1.7-3.9,3.9-3.9C83.3-41.1,85-39.3,85-37.2z M86.9-1.9H75.2c-1.9,0-3.4-1.5-3.4-3.4V-43
			c0-1.9,1.5-3.4,3.4-3.4h11.7c1.9,0,3.4,1.5,3.4,3.4v37.7C90.3-3.4,88.8-1.9,86.9-1.9z M75.2-43.5c-0.3,0-0.5,0.2-0.5,0.5v37.7
			c0,0.3,0.2,0.5,0.5,0.5h11.7c0.3,0,0.5-0.2,0.5-0.5V-43c0-0.3-0.2-0.5-0.5-0.5H75.2z"/>
	</g>
	<g id="Black-S" transform="matrix(1 0 0 1 2884.57 696)">
		<path d="M26.5-40.9c0,1.3-1.1,2.3-2.3,2.3c-1.3,0-2.3-1.1-2.3-2.3c0-1.3,1.1-2.3,2.3-2.3C25.4-43.2,26.5-42.2,26.5-40.9z M47-36.8
			c0,1.3-1.1,2.3-2.3,2.3c-1.3,0-2.3-1.1-2.3-2.3c0-1.3,1.1-2.3,2.3-2.3C45.9-39.2,47-38.1,47-36.8z M60.1-36.8
			c0,1.3-1.1,2.3-2.3,2.3c-1.3,0-2.3-1.1-2.3-2.3c0-1.3,1.1-2.3,2.3-2.3C59.1-39.2,60.1-38.1,60.1-36.8z M73.2-36.8
			c0,1.3-1.1,2.3-2.3,2.3c-1.3,0-2.3-1.1-2.3-2.3c0-1.3,1.1-2.3,2.3-2.3C72.2-39.2,73.2-38.1,73.2-36.8z M26.5-31.1
			c0,1.3-1.1,2.3-2.3,2.3c-1.3,0-2.3-1.1-2.3-2.3c0-1.3,1.1-2.3,2.3-2.3C25.4-33.4,26.5-32.4,26.5-31.1z M86.5,7.9H11.1
			c-3.4,0-6.2-2.8-6.2-6.2v-54c0-3.4,2.8-6.2,6.2-6.2h75.4c3.4,0,6.2,2.8,6.2,6.2v54C92.6,5.1,89.9,7.9,86.5,7.9z M14.8-1.2h67.9
			c0.5,0,0.8-0.4,0.8-0.8v-46.6c0-0.5-0.4-0.8-0.8-0.8H14.8c-0.5,0-0.8,0.4-0.8,0.8V-2C14-1.6,14.4-1.2,14.8-1.2z M87.7-49
			c-1.7,0-3.4-1-4.1-2.7l-7.8-17.6H21.8l-1.3,2.8l-6.6,14.7c-1,2.3-3.7,3.3-6,2.3c-2.3-1-3.3-3.7-2.3-6l8.6-19
			c1-2.3,3.4-3.9,5.9-3.9h57.3c2.3,0,4.8,1.5,5.9,3.7c0,0.1,0.1,0.1,0.1,0.2l8.5,19c1,2.3,0,5-2.3,6C88.9-49.1,88.3-49,87.7-49z
			 M49.5-4.7h-9.9c-2.8,0-5.1-2.3-5.1-5.1v-31.9c0-2.8,2.3-5.1,5.1-5.1h9.9c2.8,0,5.1,2.3,5.1,5.1v31.9C54.7-7,52.4-4.7,49.5-4.7z
			 M42.3-11.7h4.5c0.5,0,0.8-0.4,0.8-0.8v-26.6c0-0.5-0.4-0.8-0.8-0.8h-4.5c-0.5,0-0.8,0.4-0.8,0.8v26.6
			C41.5-12,41.9-11.7,42.3-11.7z M62.7-4.7h-9.9c-2.8,0-5.1-2.3-5.1-5.1v-31.9c0-2.8,2.3-5.1,5.1-5.1h9.9c2.8,0,5.1,2.3,5.1,5.1
			v31.9C67.8-7,65.5-4.7,62.7-4.7z M55.5-11.7H60c0.5,0,0.8-0.4,0.8-0.8v-26.6c0-0.5-0.4-0.8-0.8-0.8h-4.5c-0.5,0-0.8,0.4-0.8,0.8
			v26.6C54.7-12,55-11.7,55.5-11.7z M75.8-4.7h-9.9c-2.8,0-5.1-2.3-5.1-5.1v-31.9c0-2.8,2.3-5.1,5.1-5.1h9.9c2.8,0,5.1,2.3,5.1,5.1
			v31.9C80.9-7,78.6-4.7,75.8-4.7z M68.6-11.7h4.5c0.5,0,0.8-0.4,0.8-0.8v-26.6c0-0.5-0.4-0.8-0.8-0.8h-4.5c-0.5,0-0.8,0.4-0.8,0.8
			v26.6C67.8-12,68.1-11.7,68.6-11.7z"/>
	</g>
	<g id="Heavy-S" transform="matrix(1 0 0 1 2588.47 696)">
		<path d="M27.1-40.9c0,1.4-1.1,2.4-2.4,2.4s-2.4-1.1-2.4-2.4c0-1.4,1.1-2.4,2.4-2.4S27.1-42.3,27.1-40.9z M47.4-36.8
			c0,1.4-1.1,2.4-2.4,2.4c-1.4,0-2.4-1.1-2.4-2.4c0-1.4,1.1-2.4,2.4-2.4C46.3-39.2,47.4-38.2,47.4-36.8z M60.4-36.8
			c0,1.4-1.1,2.4-2.4,2.4c-1.4,0-2.4-1.1-2.4-2.4c0-1.4,1.1-2.4,2.4-2.4C59.4-39.2,60.4-38.2,60.4-36.8z M73.4-36.8
			c0,1.4-1.1,2.4-2.4,2.4c-1.4,0-2.4-1.1-2.4-2.4c0-1.4,1.1-2.4,2.4-2.4C72.3-39.2,73.4-38.2,73.4-36.8z M27.1-31.2
			c0,1.4-1.1,2.4-2.4,2.4s-2.4-1.1-2.4-2.4s1.1-2.4,2.4-2.4S27.1-32.5,27.1-31.2z M85.6,7.1H10.9c-3.1,0-5.7-2.6-5.7-5.7v-53.6
			c0-3.1,2.6-5.7,5.7-5.7h74.7c3.1,0,5.7,2.6,5.7,5.7V1.4C91.3,4.5,88.7,7.1,85.6,7.1z M14.1-1.1h68.2c0.5,0,0.8-0.4,0.8-0.8v-47.1
			c0-0.5-0.4-0.8-0.8-0.8H14.1c-0.5,0-0.8,0.4-0.8,0.8v47.1C13.3-1.4,13.7-1.1,14.1-1.1z M49.8-5.2h-9.8c-2.7,0-4.9-2.2-4.9-4.9
			v-31.6c0-2.7,2.2-4.9,4.9-4.9h9.8c2.7,0,4.9,2.2,4.9,4.9V-10C54.7-7.4,52.5-5.2,49.8-5.2z M42.5-11.6h5c0.5,0,0.8-0.4,0.8-0.8
			v-26.8c0-0.5-0.4-0.8-0.8-0.8h-5c-0.5,0-0.8,0.4-0.8,0.8v26.8C41.6-12,42-11.6,42.5-11.6z M62.8-5.2H53c-2.7,0-4.9-2.2-4.9-4.9
			v-31.6c0-2.7,2.2-4.9,4.9-4.9h9.8c2.7,0,4.9,2.2,4.9,4.9V-10C67.7-7.4,65.5-5.2,62.8-5.2z M55.4-11.6h5c0.5,0,0.8-0.4,0.8-0.8
			v-26.8c0-0.5-0.4-0.8-0.8-0.8h-5c-0.5,0-0.8,0.4-0.8,0.8v26.8C54.6-12,55-11.6,55.4-11.6z M75.9-5.2h-9.8c-2.7,0-4.9-2.2-4.9-4.9
			v-31.6c0-2.7,2.2-4.9,4.9-4.9h9.8c2.7,0,4.9,2.2,4.9,4.9V-10C80.7-7.4,78.5-5.2,75.9-5.2z M68.5-11.6h5c0.5,0,0.8-0.4,0.8-0.8
			v-26.8c0-0.5-0.4-0.8-0.8-0.8h-5c-0.5,0-0.8,0.4-0.8,0.8v26.8C67.7-12,68-11.6,68.5-11.6z M86.8-49.3c-1.6,0-3.1-0.9-3.7-2.4
			l-7.9-17.6h-54l-1.4,3.1l-6.6,14.6c-0.9,2.1-3.3,3-5.4,2c-2.1-0.9-3-3.3-2-5.4l8.5-18.8c0.9-2.1,3.2-3.6,5.5-3.6h56.8
			c2.2,0,4.4,1.4,5.4,3.5c0,0.1,0.1,0.1,0.1,0.2L90.5-55c0.9,2.1,0,4.5-2.1,5.4C87.9-49.4,87.4-49.3,86.8-49.3z"/>
	</g>
	<g id="Bold-S" transform="matrix(1 0 0 1 2292.43 696)">
		<path d="M25.8-40.8c0,1.3-1.1,2.4-2.4,2.4c-1.4,0-2.4-1.1-2.4-2.4s1.1-2.4,2.4-2.4C24.8-43.2,25.8-42.2,25.8-40.8z M45.9-36.8
			c0,1.3-1.1,2.4-2.4,2.4c-1.3,0-2.4-1.1-2.4-2.4s1.1-2.4,2.4-2.4C44.8-39.2,45.9-38.1,45.9-36.8z M58.8-36.8c0,1.3-1.1,2.4-2.4,2.4
			c-1.3,0-2.4-1.1-2.4-2.4s1.1-2.4,2.4-2.4S58.8-38.1,58.8-36.8z M71.6-36.8c0,1.3-1.1,2.4-2.4,2.4c-1.3,0-2.4-1.1-2.4-2.4
			s1.1-2.4,2.4-2.4S71.6-38.1,71.6-36.8z M25.8-31.2c0,1.3-1.1,2.4-2.4,2.4c-1.4,0-2.4-1.1-2.4-2.4s1.1-2.4,2.4-2.4
			C24.8-33.6,25.8-32.5,25.8-31.2z M84.6,6.3h-74C7.6,6.3,5.3,3.9,5.3,1v-53.1c0-2.9,2.4-5.3,5.3-5.3h74c2.9,0,5.3,2.4,5.3,5.3V1
			C89.8,3.9,87.5,6.3,84.6,6.3z M13.4-1h68.4c0.4,0,0.8-0.4,0.8-0.8v-47.4c0-0.4-0.4-0.8-0.8-0.8H13.4c-0.4,0-0.8,0.4-0.8,0.8v47.4
			C12.6-1.3,12.9-1,13.4-1z M85.8-49.5c-1.4,0-2.7-0.8-3.3-2.2l-7.9-17.7h-54l-1.3,2.9l-6.7,14.9c-0.8,1.8-3,2.6-4.8,1.8
			c-1.8-0.8-2.6-3-1.8-4.8l8.4-18.7c0.9-2,3-3.4,5.1-3.4h56.2c2,0,4.1,1.3,5,3.2c0,0,0,0.1,0.1,0.1l8.3,18.7c0.8,1.8,0,4-1.8,4.8
			C86.8-49.6,86.3-49.5,85.8-49.5z M48.4-5.7h-9.7c-2.5,0-4.5-2-4.5-4.5v-31.4c0-2.5,2-4.5,4.5-4.5h9.7c2.5,0,4.5,2,4.5,4.5v31.4
			C52.9-7.8,50.9-5.7,48.4-5.7z M40.8-11.6h5.5c0.4,0,0.8-0.4,0.8-0.8v-27.2c0-0.4-0.4-0.8-0.8-0.8h-5.5c-0.4,0-0.8,0.4-0.8,0.8
			v27.2C40-11.9,40.3-11.6,40.8-11.6z M61.2-5.7h-9.7c-2.5,0-4.5-2-4.5-4.5v-31.4c0-2.5,2-4.5,4.5-4.5h9.7c2.5,0,4.5,2,4.5,4.5v31.4
			C65.7-7.8,63.7-5.7,61.2-5.7z M53.6-11.6h5.5c0.4,0,0.8-0.4,0.8-0.8v-27.2c0-0.4-0.4-0.8-0.8-0.8h-5.5c-0.4,0-0.8,0.4-0.8,0.8
			v27.2C52.8-11.9,53.2-11.6,53.6-11.6z M74.1-5.7h-9.7c-2.5,0-4.5-2-4.5-4.5v-31.4c0-2.5,2-4.5,4.5-4.5h9.7c2.5,0,4.5,2,4.5,4.5
			v31.4C78.7-7.8,76.6-5.7,74.1-5.7z M66.6-11.6H72c0.4,0,0.8-0.4,0.8-0.8v-27.2c0-0.4-0.4-0.8-0.8-0.8h-5.5c-0.4,0-0.8,0.4-0.8,0.8
			v27.2C65.7-11.9,66.1-11.6,66.6-11.6z"/>
	</g>
	<g id="Semibold-S" transform="matrix(1 0 0 1 1996.19 696)">
		<path d="M25.5-40.8c0,1.4-1.1,2.5-2.5,2.5c-1.4,0-2.5-1.1-2.5-2.5s1.1-2.5,2.5-2.5C24.4-43.2,25.5-42.1,25.5-40.8z M45.5-36.8
			c0,1.4-1.1,2.5-2.5,2.5c-1.4,0-2.5-1.1-2.5-2.5s1.1-2.5,2.5-2.5C44.3-39.2,45.5-38.1,45.5-36.8z M58.2-36.8c0,1.4-1.1,2.5-2.5,2.5
			c-1.4,0-2.5-1.1-2.5-2.5s1.1-2.5,2.5-2.5S58.2-38.1,58.2-36.8z M71-36.8c0,1.4-1.1,2.5-2.5,2.5S66-35.4,66-36.8s1.1-2.5,2.5-2.5
			C69.9-39.2,71-38.1,71-36.8z M25.5-31.2c0,1.4-1.1,2.5-2.5,2.5c-1.4,0-2.5-1.1-2.5-2.5c0-1.4,1.1-2.5,2.5-2.5
			C24.4-33.7,25.5-32.6,25.5-31.2z M83.7,5.5H10.3c-2.6,0-4.8-2.2-4.8-4.8v-52.6c0-2.6,2.2-4.8,4.8-4.8h73.3c2.6,0,4.8,2.2,4.8,4.8
			V0.7C88.5,3.4,86.3,5.5,83.7,5.5z M12.7-0.9h68.5c0.4,0,0.8-0.4,0.8-0.8v-47.8c0-0.4-0.4-0.8-0.8-0.8H12.7c-0.4,0-0.8,0.4-0.8,0.8
			v47.8C11.9-1.2,12.3-0.9,12.7-0.9z M84.9-49.8c-1.2,0-2.4-0.7-2.9-1.9L74-69.5H20l-1.7,3.8l-6.3,14c-0.7,1.6-2.6,2.3-4.2,1.6
			c-1.6-0.7-2.3-2.6-1.6-4.2l8.3-18.5c0.8-1.8,2.7-3.1,4.7-3.1h55.7c1.9,0,3.8,1.2,4.6,3c0,0,0,0.1,0.1,0.1l8.2,18.5
			c0.7,1.6,0,3.5-1.6,4.2C85.7-49.9,85.3-49.8,84.9-49.8z M47.7-6.3h-9.6c-2.3,0-4.2-1.9-4.2-4.2v-31.1c0-2.3,1.9-4.2,4.2-4.2h9.6
			c2.3,0,4.2,1.9,4.2,4.2v31.1C51.9-8.2,50-6.3,47.7-6.3z M39.9-11.5h6c0.4,0,0.8-0.4,0.8-0.8v-27.5c0-0.4-0.4-0.8-0.8-0.8h-6
			c-0.4,0-0.8,0.4-0.8,0.8v27.5C39.1-11.9,39.5-11.5,39.9-11.5z M60.5-6.3h-9.6c-2.3,0-4.2-1.9-4.2-4.2v-31.1c0-2.3,1.9-4.2,4.2-4.2
			h9.6c2.3,0,4.2,1.9,4.2,4.2v31.1C64.7-8.2,62.8-6.3,60.5-6.3z M52.7-11.5h6c0.4,0,0.8-0.4,0.8-0.8v-27.5c0-0.4-0.4-0.8-0.8-0.8h-6
			c-0.4,0-0.8,0.4-0.8,0.8v27.5C51.9-11.9,52.3-11.5,52.7-11.5z M73.2-6.3h-9.6c-2.3,0-4.2-1.9-4.2-4.2v-31.1c0-2.3,1.9-4.2,4.2-4.2
			h9.6c2.3,0,4.2,1.9,4.2,4.2v31.1C77.4-8.2,75.6-6.3,73.2-6.3z M65.4-11.5h6c0.4,0,0.8-0.4,0.8-0.8v-27.5c0-0.4-0.4-0.8-0.8-0.8h-6
			c-0.4,0-0.8,0.4-0.8,0.8v27.5C64.6-11.9,65-11.5,65.4-11.5z"/>
	</g>
	<g id="Medium-S" transform="matrix(1 0 0 1 1699.83 696)">
		<path d="M45.5-36.7c0,1.4-1.2,2.6-2.6,2.6s-2.6-1.2-2.6-2.6c0-1.4,1.2-2.6,2.6-2.6S45.5-38.2,45.5-36.7z M26-31.3
			c0,1.4-1.2,2.6-2.6,2.6c-1.4,0-2.6-1.2-2.6-2.6s1.2-2.6,2.6-2.6C24.8-33.9,26-32.7,26-31.3z M26-40.6c0,1.4-1.2,2.6-2.6,2.6
			c-1.4,0-2.6-1.2-2.6-2.6c0-1.4,1.2-2.6,2.6-2.6C24.8-43.2,26-42.1,26-40.6z M57.9-36.7c0,1.4-1.2,2.6-2.6,2.6s-2.6-1.2-2.6-2.6
			c0-1.4,1.2-2.6,2.6-2.6S57.9-38.2,57.9-36.7z M70.4-36.7c0,1.4-1.2,2.6-2.6,2.6c-1.4,0-2.6-1.2-2.6-2.6c0-1.4,1.2-2.6,2.6-2.6
			C69.3-39.3,70.4-38.2,70.4-36.7z M82.6,4.2H10.9c-2.4,0-4.3-1.9-4.3-4.3v-51.4c0-2.4,1.9-4.3,4.3-4.3h71.7c2.4,0,4.3,1.9,4.3,4.3
			v51.4C86.9,2.3,85,4.2,82.6,4.2z M12.8-1.3h67.8c0.4,0,0.8-0.4,0.8-0.8v-47.5c0-0.4-0.4-0.8-0.8-0.8H12.8c-0.4,0-0.8,0.4-0.8,0.8
			V-2C12-1.6,12.4-1.3,12.8-1.3z M83.8-49.9c-1,0-2-0.6-2.5-1.6l-7.9-17.6H20.1l-1.2,2.7l-6.7,14.9c-0.6,1.4-2.2,2-3.6,1.4
			c-1.4-0.6-2-2.2-1.4-3.6l8.1-18.1c0.7-1.6,2.5-2.8,4.2-2.8H74c1.7,0,3.4,1.1,4.2,2.7c0,0,0,0.1,0.1,0.1l8.1,18.1
			c0.6,1.4,0,3-1.4,3.6C84.6-50,84.2-49.9,83.8-49.9z M47.5-7.2h-9.4c-2.1,0-3.8-1.7-3.8-3.8v-30.4c0-2.1,1.7-3.8,3.8-3.8h9.4
			c2.1,0,3.8,1.7,3.8,3.8V-11C51.3-8.9,49.6-7.2,47.5-7.2z M39.6-11.8H46c0.4,0,0.8-0.4,0.8-0.8v-27.4c0-0.4-0.4-0.8-0.8-0.8h-6.4
			c-0.4,0-0.8,0.4-0.8,0.8v27.4C38.8-12.1,39.2-11.8,39.6-11.8z M60-7.2h-9.4c-2.1,0-3.8-1.7-3.8-3.8v-30.4c0-2.1,1.7-3.8,3.8-3.8
			H60c2.1,0,3.8,1.7,3.8,3.8V-11C63.9-8.9,62.1-7.2,60-7.2z M52.1-11.8h6.4c0.4,0,0.8-0.4,0.8-0.8v-27.4c0-0.4-0.4-0.8-0.8-0.8h-6.4
			c-0.4,0-0.8,0.4-0.8,0.8v27.4C51.3-12.1,51.7-11.8,52.1-11.8z M72.5-7.2h-9.4c-2.1,0-3.8-1.7-3.8-3.8v-30.4c0-2.1,1.7-3.8,3.8-3.8
			h9.4c2.1,0,3.8,1.7,3.8,3.8V-11C76.3-8.9,74.6-7.2,72.5-7.2z M64.6-11.8H71c0.4,0,0.8-0.4,0.8-0.8v-27.4c0-0.4-0.4-0.8-0.8-0.8
			h-6.4c-0.4,0-0.8,0.4-0.8,0.8v27.4C63.8-12.1,64.1-11.8,64.6-11.8z"/>
	</g>
	<g id="Regular-S" transform="matrix(1 0 0 1 1403.58 696)">
		<path d="M25.6-40.7c0,1.6-1.3,2.8-2.8,2.8s-2.8-1.3-2.8-2.8s1.3-2.8,2.8-2.8S25.6-42.2,25.6-40.7z M45.1-36.7
			c0,1.6-1.3,2.8-2.8,2.8s-2.8-1.3-2.8-2.8s1.3-2.8,2.8-2.8S45.1-38.3,45.1-36.7z M25.6-31.3c0,1.6-1.3,2.8-2.8,2.8
			s-2.8-1.3-2.8-2.8c0-1.6,1.3-2.8,2.8-2.8S25.6-32.9,25.6-31.3z M82.2,3.9H10.3C8.1,3.9,6.3,2.2,6.3,0v-51.6c0-2.2,1.8-3.9,3.9-3.9
			h71.9c2.2,0,3.9,1.8,3.9,3.9V0C86.1,2.2,84.4,3.9,82.2,3.9z M11.8-0.8h68.8c0.4,0,0.8-0.4,0.8-0.8V-50c0-0.4-0.4-0.8-0.8-0.8H11.8
			c-0.4,0-0.8,0.4-0.8,0.8v48.5C11.1-1.1,11.4-0.8,11.8-0.8z M83.4-50.3c-0.9,0-1.8-0.5-2.2-1.4l-8-17.9h-54l-0.9,2l-7.2,16
			C10.6-50.5,9.2-50,8-50.5c-1.2-0.5-1.7-1.9-1.2-3.1L15-71.8c0.7-1.5,2.3-2.6,3.9-2.6h54.7c1.5,0,3.1,1,3.8,2.5c0,0,0,0.1,0,0.1
			l8.1,18.1c0.5,1.2,0,2.6-1.2,3.1C84-50.4,83.7-50.3,83.4-50.3z M47-7.4h-9.4C35.6-7.4,34-9,34-11v-30.5c0-2,1.6-3.6,3.6-3.6H47
			c2,0,3.6,1.6,3.6,3.6V-11C50.6-9,49-7.4,47-7.4z M38.8-11.4h7c0.4,0,0.8-0.4,0.8-0.8v-28c0-0.4-0.4-0.8-0.8-0.8h-7
			c-0.4,0-0.8,0.4-0.8,0.8v28C38-11.8,38.4-11.4,38.8-11.4z M57.7-36.7c0,1.6-1.3,2.8-2.8,2.8s-2.8-1.3-2.8-2.8s1.3-2.8,2.8-2.8
			S57.7-38.3,57.7-36.7z M59.5-7.4h-9.4c-2,0-3.6-1.6-3.6-3.6v-30.5c0-2,1.6-3.6,3.6-3.6h9.4c2,0,3.6,1.6,3.6,3.6V-11
			C63.1-9,61.5-7.4,59.5-7.4z M51.3-11.4h7c0.4,0,0.8-0.4,0.8-0.8v-28c0-0.4-0.4-0.8-0.8-0.8h-7c-0.4,0-0.8,0.4-0.8,0.8v28
			C50.5-11.8,50.9-11.4,51.3-11.4z M70.2-36.7c0,1.6-1.3,2.8-2.8,2.8s-2.8-1.3-2.8-2.8s1.3-2.8,2.8-2.8S70.2-38.3,70.2-36.7z
			 M72.1-7.4h-9.4c-2,0-3.6-1.6-3.6-3.6v-30.5c0-2,1.6-3.6,3.6-3.6h9.4c2,0,3.6,1.6,3.6,3.6V-11C75.7-9,74-7.4,72.1-7.4z M63.9-11.4
			h7c0.4,0,0.8-0.4,0.8-0.8v-28c0-0.4-0.4-0.8-0.8-0.8h-7c-0.4,0-0.8,0.4-0.8,0.8v28C63.1-11.8,63.4-11.4,63.9-11.4z"/>
	</g>
	<g id="Light-S" transform="matrix(1 0 0 1 1107.6 696)">
		<path d="M25.2-40.6c0,1.6-1.3,3-3,3c-1.6,0-3-1.3-3-3c0-1.6,1.3-3,3-3C23.8-43.6,25.2-42.3,25.2-40.6z M44.7-36.7c0,1.6-1.3,3-3,3
			c-1.6,0-3-1.3-3-3c0-1.6,1.3-3,3-3C43.3-39.7,44.7-38.4,44.7-36.7z M25.2-31.3c0,1.6-1.3,3-3,3c-1.6,0-3-1.3-3-3c0-1.6,1.3-3,3-3
			C23.8-34.3,25.2-32.9,25.2-31.3z M81.5,3.4H9.7c-1.9,0-3.5-1.6-3.5-3.5v-51.4c0-1.9,1.6-3.5,3.5-3.5h71.7c1.9,0,3.5,1.6,3.5,3.5
			v51.4C85,1.9,83.4,3.4,81.5,3.4z M10.9-0.5h69.4c0.4,0,0.8-0.4,0.8-0.8v-49.1c0-0.4-0.4-0.8-0.8-0.8H10.9c-0.4,0-0.8,0.4-0.8,0.8
			v49.1C10.1-0.8,10.5-0.5,10.9-0.5z M82.7-50.7c-0.7,0-1.5-0.4-1.8-1.2l-8-18c0,0-0.1-0.1-0.1-0.1h-55c0,0,0.7,0,0.7,0l-8.1,18.1
			c-0.4,1-1.6,1.4-2.6,1c-1-0.4-1.4-1.6-1-2.6l8.1-18.1c0.6-1.4,2.1-2.3,3.5-2.3h54.5c1.4,0,2.8,0.9,3.5,2.3c0,0,0,0.1,0,0.1
			l8.1,18.1C84.9-52.4,84.3-50.7,82.7-50.7z M46.4-7.8H37c-1.8,0-3.3-1.5-3.3-3.3v-30.4c0-1.8,1.5-3.3,3.3-3.3h9.4
			c1.8,0,3.3,1.5,3.3,3.3V-11C49.7-9.2,48.2-7.8,46.4-7.8z M37.9-11.2h7.5c0.4,0,0.8-0.4,0.8-0.8v-28.5c0-0.4-0.4-0.8-0.8-0.8h-7.5
			c-0.4,0-0.8,0.4-0.8,0.8V-12C37.1-11.6,37.5-11.2,37.9-11.2z M57.1-36.7c0,1.6-1.3,3-3,3c-1.6,0-3-1.3-3-3c0-1.6,1.3-3,3-3
			C55.8-39.7,57.1-38.4,57.1-36.7z M58.9-7.8h-9.4c-1.8,0-3.3-1.5-3.3-3.3v-30.4c0-1.8,1.5-3.3,3.3-3.3h9.4c1.8,0,3.3,1.5,3.3,3.3
			V-11C62.2-9.2,60.7-7.8,58.9-7.8z M50.4-11.2H58c0.4,0,0.8-0.4,0.8-0.8v-28.5c0-0.4-0.4-0.8-0.8-0.8h-7.5c-0.4,0-0.8,0.4-0.8,0.8
			V-12C49.7-11.6,50-11.2,50.4-11.2z M69.6-36.7c0,1.6-1.3,3-3,3s-3-1.3-3-3c0-1.6,1.3-3,3-3S69.6-38.4,69.6-36.7z M71.4-7.8H62
			c-1.8,0-3.3-1.5-3.3-3.3v-30.4c0-1.8,1.5-3.3,3.3-3.3h9.4c1.8,0,3.3,1.5,3.3,3.3V-11C74.6-9.2,73.2-7.8,71.4-7.8z M62.9-11.2h7.5
			c0.4,0,0.8-0.4,0.8-0.8v-28.5c0-0.4-0.4-0.8-0.8-0.8h-7.5c-0.4,0-0.8,0.4-0.8,0.8V-12C62.1-11.6,62.5-11.2,62.9-11.2z"/>
	</g>
	<g id="Thin-S" transform="matrix(1 0 0 1 811.863 696)">
		<path d="M24.3-40.6c0,1.7-1.4,3.1-3.1,3.1c-1.7,0-3.1-1.4-3.1-3.1s1.4-3.1,3.1-3.1C22.9-43.8,24.3-42.4,24.3-40.6z M43.8-36.7
			c0,1.7-1.4,3.1-3.1,3.1c-1.7,0-3.1-1.4-3.1-3.1s1.4-3.1,3.1-3.1C42.4-39.9,43.8-38.4,43.8-36.7z M24.3-31.3c0,1.7-1.4,3.1-3.1,3.1
			c-1.7,0-3.1-1.4-3.1-3.1c0-1.7,1.4-3.1,3.1-3.1C22.9-34.4,24.3-33,24.3-31.3z M80.4,3H8.7C7,3,5.6,1.6,5.6-0.1v-51.4
			c0-1.7,1.4-3.1,3.1-3.1h71.7c1.7,0,3.1,1.4,3.1,3.1v51.4C83.6,1.6,82.2,3,80.4,3z M8.7-50.7v49.9c0,0.4,0.4,0.8,0.8,0.8h70.2
			c0.4,0,0.8-0.4,0.8-0.8v-49.9c0-0.4-0.4-0.8-0.8-0.8H9.5C9.1-51.5,8.7-51.2,8.7-50.7z M81.6-51.1c-0.6,0-1.2-0.3-1.4-0.9
			l-8.1-18.1c0-0.1-0.3-0.2-0.4-0.3l-54.4,0c-0.1,0-0.2,0.1-0.3,0.2L8.9-52c-0.4,0.8-1.3,1.1-2.1,0.8C6-51.5,5.7-52.5,6-53.3
			l8.1-18.1c0.5-1.2,1.9-2.1,3.2-2.1h54.5c1.2,0,2.5,0.9,3.1,2L83-53.3c0.4,0.8,0,1.7-0.8,2.1C82-51.1,81.8-51.1,81.6-51.1z M45.3-8
			h-9.4c-1.7,0-3-1.4-3-3v-30.4c0-1.7,1.4-3,3-3h9.4c1.7,0,3,1.4,3,3V-11C48.3-9.4,46.9-8,45.3-8z M35.9-41.5
			c-0.1,0-0.1,0.1-0.1,0.1V-11c0,0.1,0.1,0.1,0.1,0.1h9.4c0.1,0,0.1-0.1,0.1-0.1v-30.4c0-0.1-0.1-0.1-0.1-0.1H35.9z M56.2-36.7
			c0,1.7-1.4,3.1-3.1,3.1c-1.7,0-3.1-1.4-3.1-3.1s1.4-3.1,3.1-3.1C54.8-39.9,56.2-38.4,56.2-36.7z M57.8-8h-9.4c-1.7,0-3-1.4-3-3
			v-30.4c0-1.7,1.4-3,3-3h9.4c1.7,0,3,1.4,3,3V-11C60.8-9.4,59.5-8,57.8-8z M48.4-41.5c-0.1,0-0.1,0.1-0.1,0.1V-11
			c0,0.1,0.1,0.1,0.1,0.1h9.4c0.1,0,0.1-0.1,0.1-0.1v-30.4c0-0.1-0.1-0.1-0.1-0.1H48.4z M68.7-36.7c0,1.7-1.4,3.1-3.1,3.1
			s-3.1-1.4-3.1-3.1s1.4-3.1,3.1-3.1S68.7-38.4,68.7-36.7z M70.2-8h-9.4c-1.7,0-3-1.4-3-3v-30.4c0-1.7,1.4-3,3-3h9.4
			c1.7,0,3,1.4,3,3V-11C73.3-9.4,71.9-8,70.2-8z M60.9-41.5c-0.1,0-0.1,0.1-0.1,0.1V-11c0,0.1,0.1,0.1,0.1,0.1h9.4
			c0.1,0,0.1-0.1,0.1-0.1v-30.4c0-0.1-0.1-0.1-0.1-0.1H60.9z"/>
	</g>
	<g id="Ultralight-S" transform="matrix(1 0 0 1 515.649 696)">
		<path d="M23.3-40.5c0,1.7-1.4,3-3,3s-3-1.4-3-3c0-1.7,1.4-3,3-3S23.3-42.2,23.3-40.5z M42.3-36.7c0,1.7-1.4,3-3,3s-3-1.4-3-3
			s1.4-3,3-3S42.3-38.4,42.3-36.7z M23.3-31.4c0,1.7-1.4,3-3,3s-3-1.4-3-3c0-1.7,1.4-3,3-3S23.3-33.1,23.3-31.4z M77.9,1.6H8.2
			c-1.5,0-2.7-1.2-2.7-2.7v-50c0-1.5,1.2-2.7,2.7-2.7h69.7c1.5,0,2.7,1.2,2.7,2.7v50C80.6,0.4,79.4,1.6,77.9,1.6z M8.2-51.5
			c-0.2,0-0.4,0.2-0.4,0.4v50c0,0.2,0.2,0.4,0.4,0.4h69.7c0.2,0,0.4-0.2,0.4-0.4v-50c0-0.2-0.2-0.4-0.4-0.4H8.2z M79-51
			c-0.4,0-0.9-0.3-1-0.7l-7.8-17.6c-0.1-0.2-0.5-0.5-0.6-0.5h-53c-0.1,0-0.5,0.2-0.6,0.5L8-51.7c-0.3,0.6-0.9,0.8-1.5,0.6
			c-0.6-0.3-0.8-0.9-0.6-1.5l7.9-17.6c0.5-1,1.6-1.8,2.7-1.8h53c1,0,2.2,0.8,2.7,1.8l7.9,17.6c0.3,0.6,0,1.3-0.6,1.5
			C79.3-51,79.2-51,79-51z M43.8-9.1h-9.1c-1.5,0-2.7-1.2-2.7-2.7v-29.5c0-1.5,1.2-2.7,2.7-2.7h9.1c1.5,0,2.7,1.2,2.7,2.7v29.5
			C46.5-10.3,45.3-9.1,43.8-9.1z M34.7-41.6c-0.2,0-0.4,0.2-0.4,0.4v29.5c0,0.2,0.2,0.4,0.4,0.4h9.1c0.2,0,0.4-0.2,0.4-0.4v-29.5
			c0-0.2-0.2-0.4-0.4-0.4H34.7z M54.4-36.7c0,1.7-1.4,3-3,3c-1.7,0-3-1.4-3-3s1.4-3,3-3C53-39.7,54.4-38.4,54.4-36.7z M55.9-9.1
			h-9.1c-1.5,0-2.7-1.2-2.7-2.7v-29.5c0-1.5,1.2-2.7,2.7-2.7h9.1c1.5,0,2.7,1.2,2.7,2.7v29.5C58.6-10.3,57.4-9.1,55.9-9.1z
			 M46.8-41.6c-0.2,0-0.4,0.2-0.4,0.4v29.5c0,0.2,0.2,0.4,0.4,0.4h9.1c0.2,0,0.4-0.2,0.4-0.4v-29.5c0-0.2-0.2-0.4-0.4-0.4H46.8z
			 M66.5-36.7c0,1.7-1.4,3-3,3s-3-1.4-3-3s1.4-3,3-3S66.5-38.4,66.5-36.7z M68-9.1h-9.1c-1.5,0-2.7-1.2-2.7-2.7v-29.5
			c0-1.5,1.2-2.7,2.7-2.7H68c1.5,0,2.7,1.2,2.7,2.7v29.5C70.7-10.3,69.5-9.1,68-9.1z M58.9-41.6c-0.2,0-0.4,0.2-0.4,0.4v29.5
			c0,0.2,0.2,0.4,0.4,0.4H68c0.2,0,0.4-0.2,0.4-0.4v-29.5c0-0.2-0.2-0.4-0.4-0.4H58.9z"/>
	</g>
</g>
</svg>
