<?xml version="1.0" encoding="utf-8"?>
<!-- Generator: Adobe Illustrator 24.1.1, SVG Export Plug-In . SVG Version: 6.00 Build 0)  -->
<svg version="1.1" id="Layer_1" xmlns="http://www.w3.org/2000/svg" xmlns:xlink="http://www.w3.org/1999/xlink" x="0px" y="0px"
	 viewBox="0 0 3300 2200" style="enable-background:new 0 0 3300 2200;" xml:space="preserve">
<style type="text/css">
	.st0{fill:#FFFFFF;}
	.st1{fill:none;stroke:#000000;stroke-width:0.5;}
	.st2{font-family:'Arial-BoldMT';}
	.st3{font-size:13px;}
	.st4{font-family:'ArialMT';}
	.st5{fill:none;stroke:#00AEEF;stroke-width:0.5;}
	.st6{fill:#27AAE1;}
	.st7{fill:none;stroke:#27AAE1;stroke-width:0.5;}
</style>
<g id="Notes">
	<rect id="artboard" class="st0" width="3300" height="2200"/>
	<line class="st1" x1="263" y1="292" x2="3036" y2="292"/>
	<text transform="matrix(1 0 0 1 263 322)" class="st2 st3">Weight/Scale Variations</text>
	<text transform="matrix(1 0 0 1 534.0632 322)" class="st4 st3">Ultralight</text>
	<text transform="matrix(1 0 0 1 843.7775 322)" class="st4 st3">Thin</text>
	<text transform="matrix(1 0 0 1 1139.035 322)" class="st4 st3">Light</text>
	<text transform="matrix(1 0 0 1 1427.0773 322)" class="st4 st3">Regular</text>
	<text transform="matrix(1 0 0 1 1723.4419 322)" class="st4 st3">Medium</text>
	<text transform="matrix(1 0 0 1 2016.1719 322)" class="st4 st3">Semibold</text>
	<text transform="matrix(1 0 0 1 2326.9705 322)" class="st4 st3">Bold</text>
	<text transform="matrix(1 0 0 1 2618.2659 322)" class="st4 st3">Heavy</text>
	<text transform="matrix(1 0 0 1 2917.5054 322)" class="st4 st3">Black</text>
	<line class="st1" x1="263" y1="1903" x2="3036" y2="1903"/>
	<g transform="matrix(1 0 0 1 263 1933)">
		<path d="M9.2,0.8c4.3,0,7.9-3.6,7.9-7.9S13.5-15,9.2-15s-7.9,3.6-7.9,7.9C1.4-2.7,5,0.8,9.2,0.8z M9.2-0.7C5.7-0.7,2.9-3.5,2.9-7
			c0-3.6,2.8-6.4,6.4-6.4s6.4,2.8,6.4,6.4C15.6-3.5,12.8-0.7,9.2-0.7z M5.7-7.1c0,0.4,0.3,0.7,0.8,0.7h2.1v2.1
			c0,0.4,0.3,0.7,0.7,0.7S10-3.9,10-4.3v-2.1h2.1c0.4,0,0.7-0.3,0.7-0.7c0-0.4-0.3-0.7-0.7-0.7H10v-2.1c0-0.4-0.3-0.8-0.7-0.8
			s-0.7,0.3-0.7,0.8v2.1H6.4C6-7.8,5.7-7.5,5.7-7.1z"/>
	</g>
	<g transform="matrix(1 0 0 1 281.867 1933)">
		<path d="M11.7,2.9c5.4,0,10-4.5,10-10c0-5.4-4.5-10-10-10c-5.4,0-10,4.5-10,10C1.7-1.6,6.3,2.9,11.7,2.9z M11.7,1.3
			C7.1,1.3,3.4-2.4,3.4-7s3.7-8.3,8.3-8.3S20-11.7,20-7.1C20-2.4,16.3,1.3,11.7,1.3z M7.2-7.1c0,0.5,0.3,0.8,0.8,0.8h2.9v2.9
			c0,0.5,0.3,0.8,0.8,0.8s0.8-0.3,0.8-0.8v-2.9h2.9c0.5,0,0.8-0.3,0.8-0.8s-0.3-0.8-0.8-0.8h-2.9v-2.9c0-0.5-0.3-0.8-0.8-0.8
			s-0.8,0.3-0.8,0.8v2.9H8C7.5-7.9,7.2-7.5,7.2-7.1z"/>
	</g>
	<g transform="matrix(1 0 0 1 305.646 1933)">
		<path d="M15,5.7c7,0,12.7-5.8,12.7-12.7c0-7-5.8-12.7-12.7-12.7C8-19.8,2.3-14,2.3-7.1C2.3-0.1,8,5.7,15,5.7z M15,3.8
			C8.9,3.8,4.1-1,4.1-7S8.9-17.9,15-17.9c6,0,10.9,4.9,10.9,10.9S21,3.8,15,3.8z M9.2-7.1c0,0.5,0.4,0.9,0.9,0.9H14v4
			c0,0.5,0.4,0.9,0.9,0.9s0.9-0.4,0.9-0.9v-4h4c0.5,0,0.9-0.4,0.9-0.9S20.3-8,19.8-8h-4v-3.9c0-0.5-0.4-0.9-0.9-0.9S14-12.4,14-11.9
			V-8h-3.9C9.6-8,9.2-7.6,9.2-7.1z"/>
	</g>
	<text transform="matrix(1 0 0 1 263 1953)" class="st2 st3">Design Variations</text>
	<text transform="matrix(1 0 0 1 263 1971)" class="st4 st3">Symbols are supported in up to nine weights and three scales.</text>
	<text transform="matrix(1 0 0 1 263 1989)" class="st4 st3">For optimal layout with text and other symbols, vertically align</text>
	<text transform="matrix(1 0 0 1 263 2007)" class="st4 st3">symbols with the adjacent text.</text>
	<line class="st5" x1="776" y1="1919" x2="776" y2="1933"/>
	<g transform="matrix(1 0 0 1 776 1933)">
		<path d="M3.3,0.2c0.5,0,0.8-0.2,1-0.7L5.5-4h5.8l1.3,3.4C12.7,0,13,0.2,13.5,0.2s0.9-0.3,0.9-0.8c0-0.2,0-0.3-0.1-0.5L9.7-13.4
			C9.4-14,9-14.3,8.4-14.3s-1,0.3-1.2,0.9L2.6-1.2C2.5-1,2.5-0.8,2.5-0.6C2.5-0.1,2.8,0.2,3.3,0.2z M6-5.5l2.4-6.6l0,0l2.4,6.6
			C10.8-5.5,6-5.5,6-5.5z"/>
	</g>
	<line class="st5" x1="793.2" y1="1919" x2="793.2" y2="1933"/>
	<text transform="matrix(1 0 0 1 776 1953)" class="st2 st3">Margins</text>
	<text transform="matrix(1 0 0 1 776 1971)" class="st4 st3">Leading and trailing margins on the left and right side of each symbol</text>
	<text transform="matrix(1 0 0 1 776 1989)" class="st4 st3">can be adjusted by modifying the x-location of the margin guidelines.</text>
	<text transform="matrix(1 0 0 1 776 2007)" class="st4 st3">Modifications are automatically applied proportionally to all</text>
	<text transform="matrix(1 0 0 1 776 2025)" class="st4 st3">scales and weights.</text>
	<g transform="matrix(1 0 0 1 1289 1933)">
		<path d="M2.8,1.9l1.7,1.7c0.9,0.9,1.8,0.8,2.8-0.2L18-8.4l-1-1L6.4,2.3C6,2.7,5.7,2.8,5.2,2.3L4.1,1.1C3.6,0.7,3.7,0.3,4.1,0
			l11.5-10.8l-1-1L3-0.9C2.1,0,2,1,2.8,1.9z M9.3-16.3c-0.4,0.4-0.4,1-0.2,1.4s0.7,0.6,1.3,0.4c1.5-0.3,3-0.4,4.4,0.5l-0.6,1.5
			c-0.3,0.8-0.2,1.4,0.4,2l2.3,2.3c0.5,0.5,0.9,0.5,1.5,0.4l1-0.2l0.7,0.7v0.6c0,0.5,0.1,0.9,0.6,1.4l0.8,0.7c0.5,0.5,1.1,0.5,1.6,0
			L26-7.5C26.5-8,26.4-8.6,26-9l-1-0.9c-0.5-0.5-0.9-0.6-1.3-0.6h-0.6l-0.6-0.6l0.2-1.1c0.1-0.6,0-1-0.6-1.6L19.9-16
			C16.6-19.3,12.1-19.2,9.3-16.3z M10.8-16c2.4-1.8,5.7-1.5,7.9,0.8l2.4,2.4c0.2,0.2,0.3,0.4,0.2,0.8L21-10.5L22.5-9l1-0.1
			c0.3,0,0.3,0,0.5,0.2l0.6,0.6l-2.4,2.4l-0.6-0.6c-0.2-0.2-0.2-0.3-0.2-0.5l0.1-1L20-9.5l-1.5,0.3c-0.3,0.1-0.5,0-0.7-0.2l-2-2
			c-0.3-0.2-0.3-0.4-0.1-0.8l0.9-2.1C15-15.8,13-16.4,11-15.8C10.7-15.7,10.6-15.9,10.8-16z"/>
	</g>
	<text transform="matrix(1 0 0 1 1289 1953)" class="st2 st3">Exporting</text>
	<text transform="matrix(1 0 0 1 1289 1971)" class="st4 st3">Symbols should be outlined when exporting to ensure the</text>
	<text transform="matrix(1 0 0 1 1289 1989)" class="st4 st3">design is preserved when submitting to Xcode.</text>
	<text id="template-version" transform="matrix(1 0 0 1 2952.4204 1933)" class="st4 st3">Template v.4.0</text>
	<text transform="matrix(1 0 0 1 2865.4575 1951)" class="st4 st3">Requires Xcode 14 or greater</text>
	<text id="descriptive-name" transform="matrix(1 0 0 1 2890.5903 1969)" class="st4 st3">Generated from fp.server</text>
	<text transform="matrix(1 0 0 1 2912.4175 1987)" class="st4 st3">Typeset at 100 points</text>
	<text transform="matrix(1 0 0 1 263 726)" class="st4 st3">Small</text>
	<text transform="matrix(1 0 0 1 263 1156)" class="st4 st3">Medium</text>
	<text transform="matrix(1 0 0 1 263 1586)" class="st4 st3">Large</text>
</g>
<g id="Guides">
	<g id="H-reference" transform="matrix(1 0 0 1 339 696)">
		<path class="st6" d="M1,0h2.6l25.7-67.1H30v-3.3h-1.9L1,0z M11.7-24.5H47l-0.8-2.2H12.4L11.7-24.5z M55.1,0h2.6L30.6-70.5h-1.2
			v3.3L55.1,0z"/>
	</g>
	<line id="Baseline-S" class="st7" x1="263" y1="696" x2="3036" y2="696"/>
	<line id="Capline-S" class="st7" x1="263" y1="625.5" x2="3036" y2="625.5"/>
	<g id="H-reference_1_" transform="matrix(1 0 0 1 339 1126)">
		<path class="st6" d="M1,0h2.6l25.7-67.1H30v-3.3h-1.9L1,0z M11.7-24.5H47l-0.8-2.2H12.4L11.7-24.5z M55.1,0h2.6L30.6-70.5h-1.2
			v3.3L55.1,0z"/>
	</g>
	<line id="Baseline-M" class="st7" x1="263" y1="1126" x2="3036" y2="1126"/>
	<line id="Capline-M" class="st7" x1="263" y1="1055.5" x2="3036" y2="1055.5"/>
	<g id="H-reference_2_" transform="matrix(1 0 0 1 339 1556)">
		<path class="st6" d="M1,0h2.6l25.7-67.1H30v-3.3h-1.9L1,0z M11.7-24.5H47l-0.8-2.2H12.4L11.7-24.5z M55.1,0h2.6L30.6-70.5h-1.2
			v3.3L55.1,0z"/>
	</g>
	<line id="Baseline-L" class="st7" x1="263" y1="1556" x2="3036" y2="1556"/>
	<line id="Capline-L" class="st7" x1="263" y1="1485.5" x2="3036" y2="1485.5"/>
	<line id="left-margin-Regular-M" class="st5" x1="1391.3" y1="1030.8" x2="1391.3" y2="1150.1"/>
	<line id="right-margin-Regular-M" class="st5" x1="1508.4" y1="1030.8" x2="1508.4" y2="1150.1"/>
</g>
<g id="Symbols">
	<g id="Black-L" transform="matrix(1 0 0 1 2854.19 1556)">
		<path d="M63.3-14.3c0,3.2-2.6,5.6-5.6,5.6s-5.6-2.6-5.6-5.6s2.6-5.6,5.6-5.6S63.3-17.4,63.3-14.3z M63.3,8.4
			c0,3.2-2.6,5.6-5.6,5.6s-5.6-2.6-5.6-5.6s2.6-5.6,5.6-5.6S63.3,5.3,63.3,8.4z M63.4,27.7c-0.3-3.5-3.5-6.1-7-6.1l-27.6,0
			c-0.7,0-1.2-0.5-1.2-1.2v-97.5c0-0.7,0.5-1.2,1.2-1.2h57.7c0.7,0,1.2,0.5,1.2,1.2V-34c0,3.9,3.4,7.1,7.4,6.7
			c3.5-0.3,6.1-3.5,6.1-7v-48c0-5.3-4.3-9.5-9.5-9.5h-68c-5.3,0-9.5,4.3-9.5,9.5V25.5c0,5.3,4.3,9.5,9.5,9.5h33
			C60.7,35,63.8,31.7,63.4,27.7z M27.6-81.7l5.2-13.7h36.5h13.1l4.7,12.7c1.3,3.5,5.2,5.3,8.6,4c3.5-1.3,5.3-5.2,4-8.6l-5.6-15.2
			c-0.2-0.6-0.6-1.2-1-1.8c-2.2-2.8-5.9-4.6-9.6-4.6H54.2H32.1c-4.7,0-7.7,2.5-9.5,4.3c-0.7,0.7-1.2,1.5-1.5,2.4l-6,15.7
			c-1.3,3.5,0.4,7.4,3.9,8.7c0.8,0.3,1.6,0.4,2.4,0.4C24.1-77.4,26.6-79,27.6-81.7z M77.6-49.7H37.8c-4,0-7.1-3.1-7.1-7.1v-11.4
			c0-4,3.1-7.1,7.1-7.1h39.9c4,0,7.1,3.1,7.1,7.1v11.4C84.7-52.8,81.7-49.7,77.6-49.7z M40.4-58.3h34.5c0.7,0,1.2-0.5,1.2-1.2v-6
			c0-0.7-0.5-1.2-1.2-1.2H40.4c-0.7,0-1.2,0.5-1.2,1.2v6C39.2-58.8,39.8-58.3,40.4-58.3z M77.6-32.7H37.8c-4,0-7.1-3.1-7.1-7.1
			v-11.4c0-4,3.1-7.1,7.1-7.1h39.9c4,0,7.1,3.1,7.1,7.1v11.4C84.7-35.8,81.7-32.7,77.6-32.7z M40.4-41.3h34.5c0.7,0,1.2-0.5,1.2-1.2
			v-6c0-0.7-0.5-1.2-1.2-1.2H40.4c-0.7,0-1.2,0.5-1.2,1.2v6C39.2-41.8,39.8-41.3,40.4-41.3z M129.3,38.2H74.7
			c-2.2,0-4.2-0.9-5.6-2.6c-1.4-1.6-1.9-3.8-1.5-5.9l7-33.2c0.3-3.7,3.3-6.6,7.1-6.6h55.3c4,0,7.1,3.1,7.1,7.1v0.4l-4.3,21.9
			l-2.3,11.9C136.9,35.3,133.4,38.2,129.3,38.2z M78,29.7h51.3l1.6-8.6L135-0.1c0.1-0.8-0.4-1.5-1.2-1.5h-32.5H84
			c-0.6,0-1.1,0.4-1.2,1L79,17.5l-2.3,10.6C76.6,28.9,77.2,29.7,78,29.7z M76.3,31h-8.6v-51c0-4,3.1-7.1,7.1-7.1h12.7
			c3.4,0,5.2,2.9,6.4,4.8c0.2,0.2,0.3,0.5,0.5,0.8H115h16.5c4,0,7.1,3.1,7.1,7.1v8.6H130v-7.1h-15H93.2c-3.4,0-5.2-2.9-6.4-4.8
			c-0.2-0.2-0.3-0.5-0.5-0.8h-9.9V31z"/>
	</g>
	<g id="Heavy-L" transform="matrix(1 0 0 1 2558.42 1556)">
		<path d="M62.4-14.6c0,3.1-2.5,5.6-5.6,5.6c-3,0-5.6-2.5-5.6-5.6s2.5-5.6,5.6-5.6C59.9-20.2,62.4-17.8,62.4-14.6z M62.4,7.7
			c0,3.1-2.5,5.6-5.6,5.6c-3,0-5.6-2.5-5.6-5.6s2.5-5.6,5.6-5.6C59.9,2.2,62.4,4.7,62.4,7.7z M61.9,26.9c-0.3-3.1-3.1-5.5-6.3-5.5
			l-27.9,0c-0.7,0-1.2-0.5-1.2-1.2v-97.6c0-0.7,0.5-1.2,1.2-1.2H86c0.7,0,1.2,0.5,1.2,1.2v43.3c0,3.5,3,6.4,6.6,6
			c3.1-0.3,5.5-3.1,5.5-6.3v-47.5c0-4.9-4-8.8-8.8-8.8H23.3c-4.9,0-8.8,4-8.8,8.8V24.7c0,4.9,4,8.8,8.8,8.8h32.7
			C59.4,33.5,62.3,30.5,61.9,26.9z M26.6-81.6l5.3-13.9h28.7h21l4.8,13c1.2,3.1,4.6,4.7,7.8,3.6c3.1-1.2,4.7-4.6,3.6-7.8l-5.6-15
			c-0.2-0.6-0.5-1.1-0.9-1.6c-2-2.6-5.5-4.3-9-4.3H60.3H31.6c-4.4,0-7.2,2.3-9,4.1c-0.6,0.6-1.1,1.3-1.4,2.1l-5.9,15.5
			c-1.2,3.1,0.4,6.6,3.5,7.8c0.7,0.3,1.4,0.4,2.2,0.4C23.4-77.7,25.7-79.1,26.6-81.6z M76.6-50H37.2c-3.9,0-6.7-2.8-6.7-6.7V-68
			c0-3.9,2.8-6.7,6.7-6.7h39.4c3.9,0,6.7,2.8,6.7,6.7v11.2C83.3-52.8,80.5-50,76.6-50z M39.5-57.9h34.7c0.7,0,1.2-0.5,1.2-1.2v-6.5
			c0-0.7-0.5-1.2-1.2-1.2H39.5c-0.7,0-1.2,0.5-1.2,1.2v6.5C38.3-58.4,38.9-57.9,39.5-57.9z M76.6-33.2H37.2c-3.9,0-6.7-2.8-6.7-6.7
			v-11.2c0-3.9,2.8-6.7,6.7-6.7h39.4c3.9,0,6.7,2.8,6.7,6.7v11.2C83.3-36,80.5-33.2,76.6-33.2z M39.5-41.1h34.7
			c0.7,0,1.2-0.5,1.2-1.2v-6.5c0-0.7-0.5-1.2-1.2-1.2H39.5c-0.7,0-1.2,0.5-1.2,1.2v6.5C38.3-41.6,38.9-41.1,39.5-41.1z M127.6,36.9
			h-9.3H73.7c-2.1,0-4-0.9-5.3-2.5c-1.3-1.6-1.8-3.6-1.4-5.6L74-4c0.2-3.5,3.1-6.2,6.7-6.2h54.7c3.8,0,6.7,2.9,6.7,6.7v0.4
			l-6.5,33.4C134.9,34.1,131.6,36.9,127.6,36.9z M75.4,27.6c-0.2,0.8,0.4,1.5,1.2,1.5h51.1c0.1,0,0.2,0,0.2-0.3l1.9-9.8l3.9-20
			c0.1-0.7-0.4-1.4-1.2-1.4h-30.7H82.7c-0.6,0-1.1,0.4-1.2,1L75.4,27.6z M75,30.1h-7.9v-50.4c0-3.8,2.9-6.7,6.7-6.7h12.6
			c3.2,0,4.9,2.7,6.1,4.6c0.2,0.3,0.4,0.6,0.6,0.9h16.6h20.2c3.8,0,6.7,2.9,6.7,6.7v8.5h-7.9v-7.3h-14.1H92c-3.2,0-4.9-2.7-6.1-4.6
			c-0.2-0.3-0.4-0.6-0.6-0.9H75V30.1z"/>
	</g>
	<g id="Bold-L" transform="matrix(1 0 0 1 2262.89 1556)">
		<path d="M61.3-15c0,3.1-2.5,5.5-5.5,5.5c-3,0-5.5-2.5-5.5-5.5s2.5-5.5,5.5-5.5C58.8-20.5,61.3-18.1,61.3-15z M61.3,7.1
			c0,3.1-2.5,5.5-5.5,5.5c-3,0-5.5-2.5-5.5-5.5s2.5-5.5,5.5-5.5C58.8,1.6,61.3,4.1,61.3,7.1z M60.2,26c-0.3-2.8-2.8-4.9-5.6-4.9
			l-28.2,0c-0.7,0-1.2-0.5-1.2-1.2v-97.7c0-0.7,0.5-1.2,1.2-1.2h58.8c0.7,0,1.2,0.5,1.2,1.2v43.4c0,3.1,2.7,5.7,5.9,5.4
			c2.8-0.3,4.9-2.8,4.9-5.6v-47c0-4.5-3.6-8.1-8.1-8.1H22.6c-4.5,0-8.1,3.6-8.1,8.1V23.8c0,4.5,3.6,8.1,8.1,8.1h32.3
			C58,31.9,60.5,29.2,60.2,26z M25.3-81.4l5.4-14.1c0.1,0,0.1,0,0.1,0h0l49.9,0l4.9,13.2c1,2.8,4.1,4.2,6.9,3.2
			c2.8-1,4.2-4.1,3.2-6.9l-5.5-14.8c-0.2-0.5-0.5-1-0.8-1.4c-1.9-2.5-5.1-4-8.4-4H30.8c-4.1,0-6.8,2.2-8.5,3.8
			c-0.5,0.5-1,1.2-1.2,1.9l-5.9,15.3c-1.1,2.8,0.3,5.9,3.1,6.9c0.6,0.2,1.3,0.4,1.9,0.4C22.5-77.9,24.5-79.2,25.3-81.4z M75.3-50.3
			h-39c-3.7,0-6.3-2.7-6.3-6.3v-11.1c0-3.7,2.7-6.3,6.3-6.3h39c3.7,0,6.3,2.7,6.3,6.3v11.1C81.6-53,79-50.3,75.3-50.3z M38.4-57.5
			h34.9c0.7,0,1.2-0.5,1.2-1.2v-7.1c0-0.7-0.5-1.2-1.2-1.2H38.4c-0.7,0-1.2,0.5-1.2,1.2v7.1C37.2-58,37.7-57.5,38.4-57.5z
			 M75.3-33.7h-39c-3.7,0-6.3-2.7-6.3-6.3v-11.1c0-3.7,2.7-6.3,6.3-6.3h39c3.7,0,6.3,2.7,6.3,6.3V-40C81.6-36.4,79-33.7,75.3-33.7z
			 M38.4-40.9h34.9c0.7,0,1.2-0.5,1.2-1.2v-7.1c0-0.7-0.5-1.2-1.2-1.2H38.4c-0.7,0-1.2,0.5-1.2,1.2v7.1
			C37.2-41.4,37.7-40.9,38.4-40.9z M125.8,35.7H72.4c-1.8,0-3.6-0.8-4.8-2.1c-1.2-1.4-1.8-3.3-1.5-5.3l0-0.3l6.9-32.5
			c0.2-3.3,2.9-5.9,6.3-5.9h54c3.6,0,6.3,2.8,6.3,6.3v0.3l-6.4,33C132.7,32.9,129.5,35.7,125.8,35.7z M73.7,27
			c-0.2,0.7,0.4,1.4,1.2,1.4h50.9c0.4,0,0.5-0.3,0.5-0.5l1.5-7.6l4.3-22.1c0.1-0.7-0.4-1.4-1.2-1.4h-22H81.1c-0.6,0-1.1,0.4-1.2,0.9
			L73.7,27z M73.4,29.2h-7.2v-49.9c0-3.6,2.8-6.3,6.3-6.3H85c3,0,4.6,2.6,5.8,4.4c0.2,0.3,0.5,0.8,0.7,1.1h18.2h18.3
			c3.6,0,6.3,2.8,6.3,6.3v8.4h-7.2v-7.5h-13.8H90.5c-3,0-4.6-2.6-5.8-4.4c-0.2-0.3-0.5-0.8-0.7-1.1H73.4V29.2z"/>
	</g>
	<g id="Semibold-L" transform="matrix(1 0 0 1 1966.99 1556)">
		<path d="M60.4-15.4c0,3.1-2.5,5.4-5.4,5.4s-5.4-2.5-5.4-5.4s2.5-5.4,5.4-5.4S60.4-18.5,60.4-15.4z M60.4,6.4
			c0,3.1-2.5,5.4-5.4,5.4s-5.4-2.5-5.4-5.4S52.1,1,55,1S60.4,3.5,60.4,6.4z M58.8,25.7c0-2.6-2.1-4.7-4.7-4.7H24.2v-100h48.1h13.6
			v44.6c0,2.6,2.1,4.7,4.7,4.7s4.7-2.1,4.7-4.7v-46.7c0-4.2-3.2-7.4-7.4-7.4H71.2H57.6H22.2c-4.2,0-7.4,3.2-7.4,7.4V23
			c0,4.2,3.2,7.4,7.4,7.4h31.9C56.7,30.4,58.8,28.3,58.8,25.7z M24.3-81.2l5.4-14.1c0.3-0.3,0.5-0.3,0.6-0.3h49.6c0,0,0.1,0,0.2,0
			l5,13.4c0.9,2.4,3.6,3.7,6.1,2.8c2.4-0.9,3.7-3.6,2.8-6.1L88.5-100c-0.2-0.5-0.4-0.9-0.7-1.3c-1.8-2.3-4.8-3.7-7.9-3.7H30.3
			c-3.8,0-6.3,1.9-7.9,3.6c-0.5,0.5-0.8,1-1.1,1.7l-5.8,15.1c-0.9,2.4,0.3,5.2,2.7,6.1c0.6,0.2,1.1,0.3,1.7,0.3
			C21.8-78.1,23.6-79.3,24.3-81.2z M74.3-50.6H35.8c-3.5,0-6-2.5-6-6v-11c0-3.5,2.5-6,6-6h38.5c3.5,0,6,2.5,6,6v11
			C80.2-53.1,77.7-50.6,74.3-50.6z M36.5-57.1l37,0c0.1,0,0.2-0.1,0.2-0.2v-9.4c0-0.1-0.1-0.2-0.2-0.2l-37,0c-0.1,0-0.2,0.1-0.2,0.2
			l0,9.4C36.3-57.2,36.4-57.1,36.5-57.1z M74.3-34.1H35.8c-3.5,0-6-2.5-6-6v-11c0-3.5,2.5-6,6-6h38.5c3.5,0,6,2.5,6,6v11
			C80.2-36.7,77.7-34.1,74.3-34.1z M36.5-40.6l37,0c0.1,0,0.2-0.1,0.2-0.2v-9.4c0-0.1-0.1-0.2-0.2-0.2l-37,0c-0.1,0-0.2,0.1-0.2,0.2
			l0,9.4C36.3-40.8,36.4-40.6,36.5-40.6z M124.1,34.4H71.4c-1.7,0-3.3-0.7-4.5-2c-1.2-1.3-1.7-3.1-1.5-4.9l0-0.2L72.3-5
			c0.2-3.2,2.7-5.6,6-5.6h53.4c3.3,0,6,2.6,6,6v0.3l-6.3,32.6C130.7,31.8,127.7,34.4,124.1,34.4z M72.3,26.4
			c-0.2,0.7,0.4,1.4,1.2,1.4h50.6c0.4,0,0.7-0.3,0.8-0.7l2.2-11.6l3.5-18.2c0.1-0.7-0.4-1.4-1.2-1.4H96.1H79.7c-0.6,0-1,0.4-1.2,0.9
			L72.3,26.4z M72.1,28.3h-6.5V-21c0-3.3,2.6-6,6-6h12.3c2.8,0,4.3,2.4,5.5,4.2c0.2,0.4,0.5,0.9,0.8,1.2h15.3h20.8c3.3,0,6,2.6,6,6
			v8.3h-6.5V-15h-11.5h-25c-2.8,0-4.3-2.4-5.5-4.2c-0.2-0.4-0.5-0.9-0.8-1.2H72.1V28.3z"/>
	</g>
	<g id="Medium-L" transform="matrix(1 0 0 1 1670.9 1556)">
		<path d="M60-15.8c0,3-2.5,5.4-5.4,5.4c-2.9,0-5.4-2.5-5.4-5.4s2.5-5.4,5.4-5.4C57.5-21.2,60-18.8,60-15.8z M60,5.8
			c0,3-2.5,5.4-5.4,5.4c-2.9,0-5.4-2.5-5.4-5.4s2.5-5.4,5.4-5.4C57.5,0.4,60,2.9,60,5.8z M57.7,23.9c-0.4-1.9-2.2-3.2-4.1-3.2
			l-28.8,0c-0.6,0-1.2-0.5-1.2-1.2v-97.7c0-0.6,0.5-1.2,1.2-1.2h59.7c0.6,0,1.2,0.5,1.2,1.2v43.5c0,2.5,2.3,4.5,4.9,4
			c1.9-0.4,3.2-2.2,3.2-4.1v-46c0-3.7-3-6.8-6.8-6.8H22.2c-3.7,0-6.8,3-6.8,6.8V22.1c0,3.7,3,6.8,6.8,6.8h31.5
			C56.2,28.9,58.2,26.6,57.7,23.9z M23.8-81L29.1-95c0.6-0.5,0.8-0.5,1.1-0.5h49c0.2,0,0.4,0.1,0.6,0.1l5,13.5
			c0.8,2.1,3.1,3.2,5.2,2.4c2.1-0.8,3.2-3.1,2.4-5.2l-5.4-14.5c-0.1-0.4-0.3-0.8-0.6-1.1c-1.6-2.1-4.5-3.4-7.3-3.4h-49
			c-3.6,0-5.8,1.8-7.4,3.4c-0.4,0.4-0.7,0.9-0.9,1.4l-5.7,14.9c-0.8,2.1,0.2,4.5,2.4,5.3c0.5,0.2,1,0.3,1.5,0.3
			C21.6-78.4,23.1-79.4,23.8-81z M73.6-50.8h-38c-3.2,0-5.6-2.4-5.6-5.6v-10.9c0-3.2,2.4-5.6,5.6-5.6h38c3.2,0,5.6,2.4,5.6,5.6v10.9
			C79.2-53.2,76.9-50.8,73.6-50.8z M36-56.7l37.1,0c0.1,0,0.2-0.1,0.2-0.2v-9.9c0-0.1-0.1-0.2-0.2-0.2L36-67c-0.1,0-0.2,0.1-0.2,0.2
			l0,9.9C35.8-56.8,35.9-56.7,36-56.7z M73.6-34.6h-38c-3.2,0-5.6-2.4-5.6-5.6v-10.9c0-3.2,2.4-5.6,5.6-5.6h38
			c3.2,0,5.6,2.4,5.6,5.6v10.9C79.2-37,76.9-34.6,73.6-34.6z M36-40.4l37.1,0c0.1,0,0.2-0.1,0.2-0.2v-9.9c0-0.1-0.1-0.2-0.2-0.2
			l-37.1,0c-0.1,0-0.2,0.1-0.2,0.2l0,9.9C35.8-40.5,35.9-40.4,36-40.4z M122.8,33.1h-52c-1.6,0-3.1-0.7-4.2-1.9
			c-1.1-1.3-1.6-3-1.4-4.7l0-0.2L72-5.4c0.2-3,2.6-5.2,5.6-5.2h52.7c3.1,0,5.6,2.5,5.6,5.6l-0.1,0.6l-6.2,31.9
			C129.1,30.6,126.2,33.1,122.8,33.1z M71,27.2h51.8c0.6,0,1-0.4,1.1-1l1.7-8.6l4.1-21.1c0.1-0.7-0.4-1.4-1.1-1.4l-35.8,0l-14.9,0
			l-0.1,0.3l-3.3,15.7L71,27.2z M71.2,27.4h-5.8v-48.7c0-3.1,2.5-5.6,5.6-5.6h12.1c2.6,0,4,2.2,5.1,4c0.2,0.4,0.6,1,0.9,1.3h11.5
			h24.4c3.1,0,5.6,2.5,5.6,5.6v8.2h-5.8v-7.9h-14.2H88.4c-2.6,0-4-2.2-5.2-4c-0.2-0.4-0.6-1-0.9-1.3H71.2V27.4z"/>
	</g>
	<g id="Regular-L" transform="matrix(1 0 0 1 1374.99 1556)">
		<path d="M59.3-16.2c0,3-2.4,5.3-5.3,5.3c-2.9,0-5.3-2.4-5.3-5.3s2.4-5.3,5.3-5.3C56.9-21.5,59.3-19.2,59.3-16.2z M59.3,5.1
			c0,3-2.4,5.3-5.3,5.3c-2.9,0-5.3-2.4-5.3-5.3s2.4-5.3,5.3-5.3C56.9-0.2,59.3,2.2,59.3,5.1z M56.4,23.7c-0.1-1.9-1.8-3.3-3.6-3.3
			l-29,0c-0.6,0-1.2-0.5-1.2-1.2v-97.6c0-0.6,0.5-1.2,1.2-1.2H84c0.6,0,1.2,0.5,1.2,1.2v43.5c0,2.1,1.9,3.8,4.1,3.4
			c1.6-0.3,2.8-1.8,2.8-3.5v-45.4c0-3.4-2.7-6.1-6.1-6.1H21.9c-3.4,0-6.1,2.7-6.1,6.1V21.2c0,3.4,2.7,6.1,6.1,6.1H53
			C54.9,27.3,56.5,25.7,56.4,23.7z M22.9-80.8l5.4-14c0.7-0.6,1.1-0.7,1.5-0.7h48.4c0.4,0,0.8,0.2,1.1,0.3l5,13.6
			c0.7,1.8,2.7,2.7,4.4,2c1.8-0.7,2.7-2.7,2-4.4l-5.3-14.3c-0.1-0.3-0.3-0.6-0.5-0.9c-1.5-1.9-4.2-3.2-6.8-3.2H29.8
			c-3.3,0-5.4,1.7-6.9,3.2c-0.3,0.3-0.6,0.8-0.8,1.2l-5.6,14.7c-0.7,1.8,0.2,3.8,2,4.5c0.4,0.2,0.8,0.2,1.2,0.2
			C21.1-78.5,22.4-79.4,22.9-80.8z M72.7-51.1H35.1c-3,0-5.2-2.2-5.2-5.2V-67c0-3,2.2-5.2,5.2-5.2h37.6c3,0,5.2,2.2,5.2,5.2v10.7
			C77.9-53.3,75.7-51.1,72.7-51.1z M35.1-56.2C35.1-56.2,35.1-56.2,35.1-56.2c0.1,0,37.7,0,37.7,0c0,0,0-10.8,0-10.8c0,0,0,0,0-0.1
			c0,0,0,0-0.1,0c0,0-37.6,0-37.6,0c0,0,0,0,0,0.1C35.1-67,35.1-56.3,35.1-56.2z M72.7-35H35.1c-3,0-5.2-2.2-5.2-5.2V-51
			c0-3,2.2-5.2,5.2-5.2h37.6c3,0,5.2,2.2,5.2,5.2v10.7C77.9-37.2,75.7-35,72.7-35z M35.1-40.2c0,0,37.6,0,37.6,0c0,0,0,0,0.1,0
			c0,0,0,0,0-0.1V-51c0,0,0,0,0-0.1c0,0-37.7,0-37.7,0.1L35.1-40.2C35.1-40.3,35.1-40.2,35.1-40.2z M121.3,31.8H69.9
			c-1.5,0-2.9-0.7-3.9-1.8c-1-1.2-1.5-2.8-1.3-4.4l0-0.2l6.6-31.3c0.2-2.8,2.4-4.9,5.2-4.9h52.1c2.9,0,5.2,2.3,5.2,5.2l0,0.5
			l-6.1,31.5C127.2,29.5,124.5,31.8,121.3,31.8z M69.9,26.6h51.4c0.7,0,1.2-0.5,1.4-1.2l5.8-29.6c0.1-0.7-0.4-1.4-1.1-1.4L76.6-5.7
			v0.3l-0.1,0.3l-1.6,7.6l-5,23.8C69.8,26.5,69.9,26.6,69.9,26.6z M70,26.4h-5.2v-48c0-2.9,2.3-5.2,5.2-5.2h12
			c2.4,0,3.8,2.1,4.8,3.9c0.3,0.4,0.7,1.1,1,1.4h21.8h13.7c2.9,0,5.2,2.3,5.2,5.2v8.1h-5.2v-8.1l-13.2,0l-22.9,0
			c-2.4,0-3.8-2.1-4.8-3.9c-0.3-0.4-0.7-1.1-1-1.4H70L70,26.4z"/>
	</g>
	<g id="Light-L" transform="matrix(1 0 0 1 1079.2 1556)">
		<path d="M58.4-16.6c0,3-2.4,5.2-5.2,5.2s-5.2-2.4-5.2-5.2s2.4-5.2,5.2-5.2S58.4-19.5,58.4-16.6z M58.4,4.4c0,3-2.4,5.2-5.2,5.2
			s-5.2-2.4-5.2-5.2s2.4-5.2,5.2-5.2S58.4,1.6,58.4,4.4z M55.1,22.7c-0.1-1.5-1.5-2.6-3-2.6l-29.2,0c-0.6,0-1.1-0.5-1.1-1.1l0-97.5
			c0-0.6,0.5-1.1,1.1-1.1l60.5,0c0.6,0,1.1,0.5,1.1,1.1v43.5c0,1.7,1.4,3,3.1,2.8c1.5-0.1,2.6-1.5,2.6-3v-44.8c0-3-2.4-5.5-5.5-5.5
			H21.6c-3,0-5.5,2.4-5.5,5.5V20.4c0,3,2.4,5.5,5.5,5.5h30.7C53.9,25.8,55.3,24.4,55.1,22.7z M22.1-80.5l5.3-14
			c0.9-0.8,1.4-0.9,2-0.9h47.8c0.6,0,1.2,0.3,1.5,0.5l5,13.5c0.5,1.5,2.2,2.2,3.7,1.7c1.5-0.5,2.2-2.2,1.7-3.7l-5.2-14.1
			c-0.1-0.3-0.2-0.5-0.4-0.8c-1.4-1.8-3.8-2.9-6.2-2.9H29.4c-3,0-5,1.5-6.4,3c-0.3,0.3-0.5,0.6-0.6,1l-5.6,14.6
			c-0.6,1.5,0.2,3.1,1.6,3.7c0.3,0.1,0.7,0.2,1,0.2C20.5-78.7,21.6-79.4,22.1-80.5z M71.7-51.3H34.6c-2.8,0-4.9-2.1-4.9-4.9v-10.6
			c0-2.8,2.1-4.9,4.9-4.9h37.1c2.8,0,4.9,2.1,4.9,4.9v10.6C76.6-53.3,74.5-51.3,71.7-51.3z M34.6-55.8h37.1c0.2,0,0.3-0.1,0.3-0.3
			v-10.6c0-0.2-0.1-0.3-0.3-0.3H34.6c-0.2,0-0.3,0.1-0.3,0.3v10.6C34.3-56,34.4-55.8,34.6-55.8z M71.7-35.5H34.6
			c-2.8,0-4.9-2.1-4.9-4.9v-10.6c0-2.8,2.1-4.9,4.9-4.9h37.1c2.8,0,4.9,2.1,4.9,4.9v10.6C76.6-37.5,74.5-35.5,71.7-35.5z M34.6-40
			h37.1c0.2,0,0.3-0.1,0.3-0.3v-10.6c0-0.2-0.1-0.3-0.3-0.3H34.6c-0.2,0-0.3,0.1-0.3,0.3v10.6C34.3-40.2,34.4-40,34.6-40z
			 M119.7,30.5h-11H69c-1.5,0-2.9-0.7-3.8-1.8c-0.9-1.1-1.3-2.6-1-4.1l6.6-31C70.8-9,72.9-11,75.6-11H127c2.7,0,4.9,2.1,4.9,4.9
			l0,0.4l-6,31C125.3,28.3,122.7,30.5,119.7,30.5z M75.6-6.5c-0.2,0-0.3,0.1-0.3,0.3l0,0.5l-6.6,31.2c0,0.1,0,0.2,0.1,0.3
			c0,0.1,0.1,0.1,0.3,0.1h50.7c0.8,0,1.5-0.6,1.6-1.4l6-30.8c0-0.1-0.2-0.2-0.3-0.2H75.6z M68.8,25.5h-4.5v-47.4
			c0-2.7,2.1-4.9,4.9-4.9h11.8c2.2,0,3.5,2,4.5,3.7c0.3,0.5,0.8,1.2,1.1,1.6h35.2c2.7,0,4.9,2.1,4.9,4.9v8h-4.5v-8
			c0-0.2-0.1-0.3-0.3-0.3H86.2c-2.2,0-3.5-2-4.5-3.7c-0.3-0.5-0.8-1.2-1.1-1.6H69.1c-0.2,0-0.3,0.1-0.3,0.3V25.5z"/>
	</g>
	<g id="Thin-L" transform="matrix(1 0 0 1 783.716 1556)">
		<path d="M57.3-17c0,2.9-2.4,5.2-5.2,5.2c-2.8,0-5.2-2.4-5.2-5.2c0-2.8,2.4-5.2,5.2-5.2C54.9-22.1,57.3-19.9,57.3-17z M57.3,3.8
			c0,2.9-2.4,5.2-5.2,5.2c-2.8,0-5.2-2.4-5.2-5.2s2.4-5.2,5.2-5.2C54.9-1.4,57.3,1,57.3,3.8z M53.4,22.1c0-1.2-1-2.2-2.2-2.2H20.9
			c-0.2,0-0.3-0.1-0.3-0.3v-98.9c0-0.2,0.1-0.3,0.3-0.3h62.4c0.2,0,0.3,0.1,0.3,0.3V-35c0,1.2,1,2.2,2.2,2.2c1.2,0,2.2-1,2.2-2.2
			v-44.3c0-2.8-2-4.8-4.8-4.8H20.9c-2.8,0-4.8,2-4.8,4.8v98.9c0,2.8,2,4.8,4.8,4.8h30.3C52.4,24.3,53.4,23.3,53.4,22.1z M20.9-80.3
			l5.3-13.9c1-1,1.7-1.2,2.5-1.2h47.1c0.8,0,1.5,0.3,2,0.7l5,13.5c0.4,1.2,1.7,1.8,2.9,1.3c1.2-0.4,1.8-1.7,1.3-2.9l-5.2-13.9
			c-0.1-0.2-0.2-0.4-0.3-0.6c-1.3-1.6-3.5-2.7-5.7-2.7H28.6c-2.8,0-4.6,1.4-6,2.8c-0.2,0.2-0.4,0.5-0.5,0.8l-5.5,14.4
			c-0.4,1.2,0.1,2.5,1.3,2.9c0.3,0.1,0.5,0.1,0.8,0.1C19.7-78.8,20.5-79.4,20.9-80.3z M70.4-51.5H33.8c-2.7,0-4.5-1.9-4.5-4.5v-10.4
			c0-2.7,1.9-4.5,4.5-4.5h36.6c2.7,0,4.5,1.9,4.5,4.5V-56C74.9-53.4,73.1-51.5,70.4-51.5z M33.8-67.1c-0.5,0-0.6,0.1-0.6,0.6V-56
			c0,0.5,0.1,0.6,0.6,0.6h36.6c0.5,0,0.6-0.1,0.6-0.6v-10.4c0-0.5-0.1-0.6-0.6-0.6H33.8z M70.4-35.9H33.8c-2.7,0-4.5-1.9-4.5-4.5
			v-10.4c0-2.7,1.9-4.5,4.5-4.5h36.6c2.7,0,4.5,1.9,4.5,4.5v10.4C74.9-37.8,73.1-35.9,70.4-35.9z M33.8-51.5c-0.5,0-0.6,0.1-0.6,0.6
			v10.4c0,0.5,0.1,0.6,0.6,0.6h36.6c0.5,0,0.6-0.1,0.6-0.6v-10.4c0-0.5-0.1-0.6-0.6-0.6H33.8z M117.6,29.2H67.6
			c-1.3,0-2.5-0.6-3.4-1.6c-0.9-1-1.3-2.4-1.1-3.8l0-0.1l6.5-30.6c0.1-2.4,2.1-4.3,4.5-4.3h50.7c2.5,0,4.5,2,4.5,4.5l0,0.4
			l-5.9,30.6C122.9,27.2,120.5,29.2,117.6,29.2z M66.9,24.4c0,0.2,0.1,0.5,0.2,0.7c0.1,0.1,0.2,0.2,0.4,0.2h50.1
			c1,0,1.7-0.7,1.9-1.6l5.9-30.4c-0.1-0.3-0.3-0.5-0.6-0.5H74.1c-0.4,0-0.6,0.2-0.6,0.6l0,0.4L66.9,24.4z M67,24.5H63v-46.8
			c0-2.5,2-4.5,4.5-4.5h11.8c2,0,3.2,1.9,4.2,3.5c0.3,0.5,0.9,1.4,1.2,1.7h34.9c2.5,0,4.5,2,4.5,4.5v7.9h-3.9v-7.9
			c0-0.4-0.2-0.6-0.6-0.6H84.5c-2,0-3.2-1.9-4.2-3.5c-0.3-0.5-0.9-1.4-1.2-1.7H67.6c-0.4,0-0.6,0.2-0.6,0.6V24.5z"/>
	</g>
	<g id="Ultralight-L" transform="matrix(1 0 0 1 487.631 1556)">
		<path d="M55.7-17.4c0,2.9-2.3,5.1-5.1,5.1c-2.9,0-5.1-2.3-5.1-5.1s2.3-5.1,5.1-5.1C53.4-22.5,55.7-20.2,55.7-17.4z M55.7,3.1
			c0,2.9-2.3,5.1-5.1,5.1c-2.9,0-5.1-2.3-5.1-5.1S47.9-2,50.6-2C53.4-2,55.7,0.3,55.7,3.1z M51.3,21.2c0-0.9-0.7-1.7-1.7-1.7H19.7
			c-0.6,0-0.9-0.3-0.9-0.9v-97.5c0-0.6,0.3-0.9,0.9-0.9h61.5c0.6,0,0.9,0.3,0.9,0.9v43.7c0,0.9,0.7,1.7,1.7,1.7
			c0.9,0,1.7-0.7,1.7-1.7v-43.7c0-2.5-1.7-4.2-4.2-4.2H19.7c-2.5,0-4.2,1.7-4.2,4.2v97.5c0,2.5,1.7,4.2,4.2,4.2h29.9
			C50.5,22.8,51.3,22.1,51.3,21.2z M19.2-80l5.3-13.8c1.1-1,1.8-1.4,2.9-1.4h46.5c1,0,1.9,0.5,2.4,1l5,13.4c0.3,0.9,1.3,1.3,2.1,1
			c0.9-0.3,1.3-1.3,1-2.1l-5.1-13.7c-0.1-0.2-0.1-0.3-0.2-0.4c-1.1-1.4-3.2-2.4-5.2-2.4H27.4c-2.6,0-4.2,1.3-5.5,2.6
			c-0.2,0.2-0.3,0.4-0.4,0.6l-5.4,14.2c-0.3,0.9,0.1,1.8,1,2.1c0.2,0.1,0.4,0.1,0.6,0.1C18.3-78.9,18.9-79.3,19.2-80z M68.7-51.7
			H32.6c-2.5,0-4.2-1.7-4.2-4.2v-10.3c0-2.5,1.7-4.2,4.2-4.2h36c2.5,0,4.2,1.7,4.2,4.2c0,0,0.1,10.1,0.1,10.3
			C72.9-53.4,71.1-51.7,68.7-51.7z M32.6-67.1c-0.6,0-0.9,0.3-0.9,0.9v10.3c0,0.6,0.3,0.9,0.9,0.9h36.1c0.5,0,0.7-0.1,0.8-0.5
			c0-0.1-0.1-10.7-0.1-10.7c0-0.6-0.3-0.9-0.9-0.9H32.6z M68.7-36.3H32.6c-2.5,0-4.2-1.7-4.2-4.2v-10.3c0-2.5,1.7-4.2,4.2-4.2h36
			c2.5,0,4.2,1.7,4.2,4.2c0,0,0.1,10.1,0.1,10.3C72.9-38,71.1-36.3,68.7-36.3z M32.6-51.7c-0.6,0-0.9,0.3-0.9,0.9v10.3
			c0,0.6,0.3,0.9,0.9,0.9h36.1c0.5,0,0.7-0.1,0.8-0.5c0-0.1-0.1-10.7-0.1-10.7c0-0.6-0.3-0.9-0.9-0.9H32.6z M115.3,27.9H65.9
			c-1.2,0-2.3-0.5-3.1-1.4c-0.8-1-1.2-2.3-1.1-3.5l0-0.1l6.4-30.2c0.1-2.3,1.9-4,4.2-4h50c2.4,0,4.2,1.8,4.2,4.2l0,0.3l-5.9,30.2
			C120.2,26,118,27.9,115.3,27.9z M65,23.4c0,0.3,0.1,0.6,0.3,0.9c0.1,0.1,0.3,0.3,0.6,0.3h49.4c1.1,0,1.9-0.7,2.1-1.8l5.8-30.1
			c-0.1-0.5-0.4-0.8-0.9-0.8h-50c-0.5,0-0.9,0.4-0.9,0.9l0,0.3L65,23.4z M65.1,23.6h-3.3v-46.2c0-2.4,1.8-4.2,4.2-4.2h11.5
			c1.9,0,3,1.8,4,3.3c0.4,0.6,1,1.5,1.3,1.8h34.5c2.4,0,4.2,1.8,4.2,4.2v7.7h-3.3v-7.7c0-0.5-0.4-0.9-0.9-0.9H82.6
			c-1.9,0-3-1.8-4-3.3c-0.4-0.6-1-1.5-1.3-1.8H66c-0.5,0-0.9,0.4-0.9,0.9V23.6z"/>
	</g>
	<g id="Black-M" transform="matrix(1 0 0 1 2871.36 1126)">
		<path d="M49.7-19c0,2.5-2,4.4-4.4,4.4S41-16.6,41-19s2-4.4,4.4-4.4S49.7-21.5,49.7-19z M49.7-1.4c0,2.5-2,4.4-4.4,4.4
			S41,0.9,41-1.4s2-4.4,4.4-4.4S49.7-3.8,49.7-1.4z M49.8,13.5c-0.3-2.7-2.7-4.7-5.4-4.7L23,8.8c-0.5,0-0.9-0.4-0.9-0.9v-75.6
			c0-0.5,0.4-0.9,0.9-0.9h44.8c0.5,0,0.9,0.4,0.9,0.9v33.5c0,3.1,2.6,5.5,5.7,5.2c2.7-0.3,4.7-2.7,4.7-5.4v-37.2
			c0-4.1-3.3-7.4-7.4-7.4H19c-4.1,0-7.4,3.3-7.4,7.4v83.6c0,4.1,3.3,7.4,7.4,7.4h25.6C47.6,19.2,50.1,16.6,49.8,13.5z M22.1-71.3
			l4.1-10.6h28.3h10.1l3.7,9.9c1,2.7,4,4.1,6.7,3.1c2.7-1,4.1-4,3.1-6.7l-4.4-11.8c-0.2-0.5-0.4-1-0.8-1.4c-1.7-2.2-4.5-3.5-7.4-3.5
			H42.7H25.5c-3.6,0-6,1.9-7.4,3.3c-0.5,0.5-0.9,1.1-1.2,1.8L12.3-75c-1,2.7,0.3,5.7,3,6.7c0.6,0.2,1.2,0.3,1.9,0.3
			C19.3-67.9,21.3-69.2,22.1-71.3z M60.8-46.5H29.9c-3.1,0-5.5-2.4-5.5-5.5v-8.8c0-3.1,2.4-5.5,5.5-5.5h30.9c3.1,0,5.5,2.4,5.5,5.5
			v8.8C66.3-48.9,64-46.5,60.8-46.5z M32-53.1h26.7c0.5,0,0.9-0.4,0.9-0.9v-4.6c0-0.5-0.4-0.9-0.9-0.9H32c-0.5,0-0.9,0.4-0.9,0.9
			v4.6C31-53.6,31.5-53.1,32-53.1z M60.8-33.3H29.9c-3.1,0-5.5-2.4-5.5-5.5v-8.8c0-3.1,2.4-5.5,5.5-5.5h30.9c3.1,0,5.5,2.4,5.5,5.5
			v8.8C66.3-35.7,64-33.3,60.8-33.3z M32-39.9h26.7c0.5,0,0.9-0.4,0.9-0.9v-4.6c0-0.5-0.4-0.9-0.9-0.9H32c-0.5,0-0.9,0.4-0.9,0.9
			v4.6C31-40.4,31.5-39.9,32-39.9z M100.8,21.7H58.5c-1.7,0-3.3-0.7-4.3-2c-1-1.3-1.5-3-1.1-4.6l5.5-25.8c0.2-2.9,2.5-5.1,5.5-5.1
			h42.9c3.1,0,5.5,2.4,5.5,5.5v0.3l-3.3,17l-1.8,9.2C106.8,19.4,104,21.7,100.8,21.7z M61.1,15.1h39.8l1.3-6.6L105.3-8
			c0.1-0.6-0.3-1.1-0.9-1.1H79.1H65.8c-0.4,0-0.8,0.3-0.9,0.8l-3,14l-1.7,8.3C60,14.5,60.5,15.1,61.1,15.1z M59.8,16.1h-6.6v-39.5
			c0-3.1,2.4-5.5,5.5-5.5h9.9c2.6,0,4.1,2.2,5,3.7c0.1,0.2,0.3,0.4,0.4,0.6h15.9h12.8c3.1,0,5.5,2.4,5.5,5.5v6.6h-6.6v-5.5H89.8
			H72.9c-2.6,0-4.1-2.2-5-3.7c-0.1-0.2-0.3-0.4-0.4-0.6h-7.7V16.1z"/>
	</g>
	<g id="Heavy-M" transform="matrix(1 0 0 1 2575.48 1126)">
		<path d="M48.9-19.3c0,2.4-2,4.3-4.3,4.3c-2.3,0-4.3-2-4.3-4.3s2-4.3,4.3-4.3C47-23.6,48.9-21.7,48.9-19.3z M48.9-1.9
			c0,2.4-2,4.3-4.3,4.3c-2.3,0-4.3-2-4.3-4.3s2-4.3,4.3-4.3C47-6.3,48.9-4.3,48.9-1.9z M48.5,12.9c-0.2-2.4-2.4-4.2-4.9-4.2L22,8.7
			c-0.5,0-0.9-0.4-0.9-0.9V-68c0-0.5,0.4-0.9,0.9-0.9h45.2c0.5,0,0.9,0.4,0.9,0.9v33.6c0,2.7,2.4,4.9,5.1,4.7
			c2.4-0.2,4.2-2.4,4.2-4.9v-36.8c0-3.8-3.1-6.8-6.8-6.8H18.6c-3.8,0-6.8,3.1-6.8,6.8v82.6c0,3.8,3.1,6.8,6.8,6.8h25.3
			C46.6,18,48.8,15.7,48.5,12.9z M21.2-71.2l4.1-10.8h22.3h16.3l3.7,10.1c0.9,2.4,3.6,3.7,6,2.8c2.4-0.9,3.7-3.6,2.8-6l-4.3-11.6
			c-0.2-0.4-0.4-0.9-0.7-1.2c-1.6-2-4.3-3.3-7-3.3H47.2H25c-3.4,0-5.6,1.8-7,3.2c-0.5,0.5-0.8,1-1.1,1.6l-4.6,12
			c-0.9,2.4,0.3,5.1,2.7,6.1c0.6,0.2,1.1,0.3,1.7,0.3C18.7-68.1,20.4-69.3,21.2-71.2z M59.9-46.7H29.3c-3,0-5.2-2.2-5.2-5.2v-8.7
			c0-3,2.2-5.2,5.2-5.2h30.6c3,0,5.2,2.2,5.2,5.2v8.7C65.1-48.9,62.9-46.7,59.9-46.7z M31.2-52.8h26.9c0.5,0,0.9-0.4,0.9-0.9v-5.1
			c0-0.5-0.4-0.9-0.9-0.9H31.2c-0.5,0-0.9,0.4-0.9,0.9v5.1C30.2-53.2,30.7-52.8,31.2-52.8z M59.9-33.7H29.3c-3,0-5.2-2.2-5.2-5.2
			v-8.7c0-3,2.2-5.2,5.2-5.2h30.6c3,0,5.2,2.2,5.2,5.2v8.7C65.1-35.9,62.9-33.7,59.9-33.7z M31.2-39.8h26.9c0.5,0,0.9-0.4,0.9-0.9
			v-5.1c0-0.5-0.4-0.9-0.9-0.9H31.2c-0.5,0-0.9,0.4-0.9,0.9v5.1C30.2-40.2,30.7-39.8,31.2-39.8z M99.5,20.7h-7.2H57.7
			c-1.6,0-3.1-0.7-4.1-1.9c-1-1.2-1.4-2.8-1.1-4.4L57.9-11c0.2-2.7,2.4-4.8,5.2-4.8h42.4c2.9,0,5.2,2.3,5.2,5.2v0.3l-5,25.9
			C105.1,18.5,102.5,20.7,99.5,20.7z M58.9,13.5c-0.1,0.6,0.3,1.1,0.9,1.1h39.6c0,0,0.2,0,0.2-0.2l1.5-7.6l3-15.5
			c0.1-0.6-0.3-1.1-0.9-1.1H79.5H64.6c-0.4,0-0.8,0.3-0.9,0.7L58.9,13.5z M58.6,15.4h-6.1v-39.1c0-2.9,2.3-5.2,5.2-5.2h9.8
			c2.5,0,3.8,2.1,4.7,3.6c0.1,0.2,0.3,0.5,0.5,0.7h12.8h15.6c2.9,0,5.2,2.3,5.2,5.2v6.6h-6.1v-5.7H89.4H71.8c-2.5,0-3.8-2.1-4.7-3.6
			c-0.1-0.2-0.3-0.5-0.5-0.7h-8V15.4z"/>
	</g>
	<g id="Bold-M" transform="matrix(1 0 0 1 2279.69 1126)">
		<path d="M48.1-19.6c0,2.4-1.9,4.3-4.3,4.3s-4.3-1.9-4.3-4.3s1.9-4.3,4.3-4.3S48.1-22,48.1-19.6z M48.1-2.4c0,2.4-1.9,4.3-4.3,4.3
			s-4.3-1.9-4.3-4.3s1.9-4.3,4.3-4.3S48.1-4.8,48.1-2.4z M47.2,12.2c-0.2-2.2-2.2-3.8-4.3-3.8L21,8.5c-0.5,0-0.9-0.4-0.9-0.9v-75.7
			c0-0.5,0.4-0.9,0.9-0.9h45.6c0.5,0,0.9,0.4,0.9,0.9v33.6c0,2.4,2.1,4.4,4.6,4.2c2.2-0.2,3.8-2.2,3.8-4.3l0-36.4
			c0-3.5-2.8-6.3-6.3-6.3H18c-3.5,0-6.3,2.8-6.3,6.3v81.6c0,3.5,2.8,6.3,6.3,6.3h25C45.5,16.8,47.5,14.7,47.2,12.2z M20.2-71
			l4.2-10.9c0,0,0.1,0,0.1,0h0l38.7,0L67-71.7c0.8,2.2,3.2,3.3,5.4,2.5c2.2-0.8,3.3-3.2,2.5-5.4l-4.3-11.5c-0.1-0.4-0.4-0.8-0.6-1.1
			c-1.5-1.9-4-3.1-6.5-3.1H24.4c-3.2,0-5.3,1.7-6.6,3c-0.4,0.4-0.7,0.9-0.9,1.5L12.4-74c-0.8,2.2,0.3,4.6,2.4,5.4
			c0.5,0.2,1,0.3,1.5,0.3C18-68.3,19.5-69.4,20.2-71z M58.9-46.9H28.7c-2.8,0-4.9-2.1-4.9-4.9v-8.6c0-2.8,2.1-4.9,4.9-4.9h30.2
			c2.8,0,4.9,2.1,4.9,4.9v8.6C63.8-49,61.8-46.9,58.9-46.9z M30.3-52.5h27.1c0.5,0,0.9-0.4,0.9-0.9v-5.5c0-0.5-0.4-0.9-0.9-0.9H30.3
			c-0.5,0-0.9,0.4-0.9,0.9v5.5C29.3-52.9,29.8-52.5,30.3-52.5z M58.9-34H28.7c-2.8,0-4.9-2.1-4.9-4.9v-8.6c0-2.8,2.1-4.9,4.9-4.9
			h30.2c2.8,0,4.9,2.1,4.9,4.9v8.6C63.8-36.1,61.8-34,58.9-34z M30.3-39.6h27.1c0.5,0,0.9-0.4,0.9-0.9V-46c0-0.5-0.4-0.9-0.9-0.9
			H30.3c-0.5,0-0.9,0.4-0.9,0.9v5.5C29.3-40,29.8-39.6,30.3-39.6z M98,19.7H56.7c-1.4,0-2.8-0.6-3.7-1.7c-1-1.1-1.4-2.6-1.2-4.1
			l0-0.2l5.3-25.2c0.2-2.6,2.3-4.6,4.9-4.6h41.9c2.8,0,4.9,2.2,4.9,4.9v0.3l-5,25.6C103.4,17.6,100.9,19.7,98,19.7z M57.7,13
			c-0.1,0.6,0.3,1.1,0.9,1.1H98c0.3,0,0.4-0.2,0.4-0.4l1.1-5.9l3.3-17.1c0.1-0.6-0.3-1.1-0.9-1.1H84.9H63.4c-0.4,0-0.8,0.3-0.9,0.7
			L57.7,13z M57.4,14.7h-5.6v-38.6c0-2.8,2.2-4.9,4.9-4.9h9.6c2.3,0,3.6,2,4.5,3.4c0.2,0.3,0.4,0.6,0.5,0.8h14.1h14.2
			c2.8,0,4.9,2.2,4.9,4.9v6.5H99V-19H88.4H70.7c-2.3,0-3.6-2-4.5-3.4c-0.2-0.3-0.4-0.6-0.5-0.8h-8.2V14.7z"/>
	</g>
	<g id="Semibold-M" transform="matrix(1 0 0 1 1983.62 1126)">
		<path d="M47.3-19.9c0,2.4-1.9,4.2-4.2,4.2s-4.2-1.9-4.2-4.2s1.9-4.2,4.2-4.2S47.3-22.3,47.3-19.9z M47.3-3c0,2.4-1.9,4.2-4.2,4.2
			S38.9-0.7,38.9-3s1.9-4.2,4.2-4.2S47.3-5.2,47.3-3z M46.1,12c0-2-1.6-3.7-3.7-3.7H19.2v-77.6h37.3H67v34.6c0,2,1.6,3.7,3.7,3.7
			s3.7-1.6,3.7-3.7v-36.2c0-3.3-2.5-5.8-5.8-5.8H55.7H45.2H17.7c-3.3,0-5.8,2.5-5.8,5.8V9.9c0,3.3,2.5,5.8,5.8,5.8h24.7
			C44.4,15.6,46.1,14,46.1,12z M19.4-70.9l4.2-10.9C23.8-82,23.9-82,24-82h38.5c0,0,0.1,0,0.1,0l3.9,10.4c0.7,1.9,2.8,2.9,4.7,2.2
			c1.9-0.7,2.9-2.8,2.2-4.7l-4.2-11.4c-0.1-0.4-0.3-0.7-0.5-1c-1.4-1.7-3.8-2.9-6.1-2.9H24c-3,0-4.9,1.5-6.2,2.8
			c-0.4,0.4-0.6,0.8-0.8,1.3l-4.5,11.7c-0.7,1.9,0.2,4,2.1,4.7c0.4,0.2,0.9,0.2,1.3,0.2C17.4-68.5,18.8-69.4,19.4-70.9z M58.1-47.1
			H28.2c-2.7,0-4.6-1.9-4.6-4.6v-8.5c0-2.7,1.9-4.6,4.6-4.6h29.8c2.7,0,4.6,1.9,4.6,4.6v8.5C62.7-49.1,60.7-47.1,58.1-47.1z
			 M28.8-52.2l28.7,0c0.1,0,0.2-0.1,0.2-0.2v-7.3c0-0.1-0.1-0.2-0.2-0.2l-28.7,0c-0.1,0-0.2,0.1-0.2,0.2l0,7.3
			C28.6-52.3,28.7-52.2,28.8-52.2z M58.1-34.4H28.2c-2.7,0-4.6-1.9-4.6-4.6v-8.5c0-2.7,1.9-4.6,4.6-4.6h29.8c2.7,0,4.6,1.9,4.6,4.6
			v8.5C62.7-36.4,60.7-34.4,58.1-34.4z M28.8-39.4l28.7,0c0.1,0,0.2-0.1,0.2-0.2V-47c0-0.1-0.1-0.2-0.2-0.2l-28.7,0
			c-0.1,0-0.2,0.1-0.2,0.2l0,7.3C28.6-39.5,28.7-39.4,28.8-39.4z M96.7,18.7H55.9c-1.3,0-2.6-0.6-3.5-1.6c-0.9-1-1.3-2.4-1.1-3.8
			l0-0.2l5.3-24.9c0.2-2.4,2.1-4.3,4.6-4.3h41.4c2.6,0,4.6,2,4.6,4.6v0.2L102.3,14C101.8,16.7,99.5,18.7,96.7,18.7z M56.6,12.6
			c-0.1,0.6,0.3,1.1,0.9,1.1h39.3c0.3,0,0.6-0.2,0.6-0.6l1.7-9l2.7-14.1c0.1-0.6-0.3-1.1-0.9-1.1H75H62.3c-0.4,0-0.8,0.3-0.9,0.7
			L56.6,12.6z M56.4,14h-5v-38.2c0-2.6,2-4.6,4.6-4.6h9.5c2.2,0,3.4,1.9,4.2,3.3c0.2,0.3,0.4,0.7,0.6,0.9h11.9h16.2
			c2.6,0,4.6,2,4.6,4.6v6.4h-5v-6h-8.9H69.7c-2.2,0-3.4-1.9-4.2-3.3c-0.2-0.3-0.4-0.7-0.6-0.9h-8.5V14z"/>
	</g>
	<g id="Medium-M" transform="matrix(1 0 0 1 1687.4 1126)">
		<path d="M47-20.2c0,2.4-1.9,4.2-4.2,4.2c-2.3,0-4.2-1.9-4.2-4.2s1.9-4.2,4.2-4.2C45.1-24.4,47-22.5,47-20.2z M47-3.5
			c0,2.4-1.9,4.2-4.2,4.2c-2.3,0-4.2-1.9-4.2-4.2s1.9-4.2,4.2-4.2C45.1-7.6,47-5.7,47-3.5z M45.2,10.6c-0.3-1.5-1.7-2.5-3.2-2.5
			l-22.3,0c-0.5,0-0.9-0.4-0.9-0.9v-75.7c0-0.5,0.4-0.9,0.9-0.9H66c0.5,0,0.9,0.4,0.9,0.9v33.7c0,2,1.8,3.5,3.8,3.1
			c1.5-0.3,2.5-1.7,2.5-3.2v-35.6c0-2.9-2.3-5.2-5.2-5.2H17.7c-2.9,0-5.2,2.3-5.2,5.2V9.2c0,2.9,2.3,5.2,5.2,5.2h24.4
			C44.1,14.4,45.6,12.7,45.2,10.6z M18.9-70.7l4.2-10.9c0.4-0.4,0.6-0.4,0.8-0.4h38c0.2,0,0.3,0.1,0.5,0.1l3.9,10.5
			c0.6,1.6,2.4,2.5,4.1,1.9c1.6-0.6,2.5-2.4,1.9-4.1L68-84.8c-0.1-0.3-0.3-0.6-0.5-0.8c-1.3-1.6-3.5-2.7-5.7-2.7h-38
			c-2.8,0-4.5,1.4-5.8,2.6c-0.3,0.3-0.6,0.7-0.7,1.1L13-73c-0.6,1.6,0.2,3.5,1.8,4.1c0.4,0.1,0.8,0.2,1.1,0.2
			C17.2-68.7,18.4-69.4,18.9-70.7z M57.6-47.3H28.1c-2.5,0-4.3-1.8-4.3-4.3v-8.4c0-2.5,1.8-4.3,4.3-4.3h29.5c2.5,0,4.3,1.8,4.3,4.3
			v8.4C61.9-49.2,60.1-47.3,57.6-47.3z M28.4-51.9l28.8,0c0.1,0,0.2-0.1,0.2-0.2v-7.7c0-0.1-0.1-0.2-0.2-0.2l-28.8,0
			c-0.1,0-0.2,0.1-0.2,0.2l0,7.7C28.3-51.9,28.3-51.9,28.4-51.9z M57.6-34.8H28.1c-2.5,0-4.3-1.8-4.3-4.3v-8.4
			c0-2.5,1.8-4.3,4.3-4.3h29.5c2.5,0,4.3,1.8,4.3,4.3v8.4C61.9-36.6,60.1-34.8,57.6-34.8z M28.4-39.3l28.8,0c0.1,0,0.2-0.1,0.2-0.2
			v-7.7c0-0.1-0.1-0.2-0.2-0.2l-28.8,0c-0.1,0-0.2,0.1-0.2,0.2l0,7.7C28.3-39.4,28.3-39.3,28.4-39.3z M95.7,17.7H55.4
			c-1.2,0-2.4-0.5-3.2-1.5c-0.9-1-1.3-2.3-1.1-3.6l0-0.2l5.2-24.6c0.1-2.3,2-4.1,4.3-4.1h40.9c2.4,0,4.3,1.9,4.3,4.3l0,0.4L101,13.2
			C100.6,15.8,98.3,17.7,95.7,17.7z M55.6,13.2h40.2c0.4,0,0.8-0.3,0.8-0.8l1.3-6.7l3.2-16.4c0.1-0.6-0.3-1.1-0.9-1.1l-27.8,0
			l-11.6,0l0,0.3L58.2,0.7L55.6,13.2z M55.7,13.3h-4.5v-37.7c0-2.4,1.9-4.3,4.3-4.3h9.4c2,0,3.1,1.7,4,3.1c0.2,0.3,0.5,0.7,0.7,1
			h8.9h18.9c2.4,0,4.3,1.9,4.3,4.3v6.3h-4.5v-6.2h-11H69.1c-2,0-3.1-1.7-4-3.1c-0.2-0.3-0.5-0.7-0.7-1h-8.7V13.3z"/>
	</g>
	<g id="Regular-M" transform="matrix(1 0 0 1 1391.32 1126)">
		<path d="M46.5-20.5c0,2.3-1.9,4.1-4.1,4.1c-2.2,0-4.1-1.9-4.1-4.1s1.9-4.1,4.1-4.1C44.6-24.6,46.5-22.8,46.5-20.5z M46.5-4
			c0,2.3-1.9,4.1-4.1,4.1c-2.2,0-4.1-1.9-4.1-4.1s1.9-4.1,4.1-4.1C44.6-8.1,46.5-6.2,46.5-4z M44.2,10.4c-0.1-1.4-1.4-2.5-2.8-2.5
			L19,7.9c-0.5,0-0.9-0.4-0.9-0.9v-75.6c0-0.5,0.4-0.9,0.9-0.9h46.6c0.5,0,0.9,0.4,0.9,0.9v33.8c0,1.7,1.5,3,3.2,2.6
			c1.3-0.2,2.1-1.4,2.1-2.7l0-35.2c0-2.6-2.1-4.7-4.7-4.7H17.4c-2.6,0-4.7,2.1-4.7,4.7V8.5c0,2.6,2.1,4.7,4.7,4.7h24.1
			C43.1,13.3,44.3,12,44.2,10.4z M18.2-70.5l4.2-10.9c0.6-0.5,0.9-0.5,1.2-0.5h37.5c0.3,0,0.6,0.1,0.8,0.2l3.9,10.5
			c0.5,1.4,2.1,2.1,3.4,1.6c1.4-0.5,2.1-2.1,1.6-3.4l-4.1-11.1c-0.1-0.3-0.2-0.5-0.4-0.7c-1.2-1.5-3.2-2.5-5.2-2.5H23.6
			c-2.6,0-4.2,1.3-5.4,2.5c-0.3,0.3-0.5,0.6-0.6,0.9l-4.4,11.4c-0.5,1.4,0.2,2.9,1.5,3.5c0.3,0.1,0.6,0.2,1,0.2
			C16.8-68.8,17.8-69.5,18.2-70.5z M56.8-47.5H27.7c-2.4,0-4.1-1.7-4.1-4.1v-8.3c0-2.4,1.7-4.1,4.1-4.1h29.1c2.4,0,4.1,1.7,4.1,4.1
			v8.3C60.9-49.2,59.2-47.5,56.8-47.5z M27.7-51.5C27.7-51.5,27.7-51.5,27.7-51.5c0,0,29.2,0,29.2,0c0,0,0-8.3,0-8.3c0,0,0,0,0,0
			c0,0,0,0,0,0c0,0-29.1,0-29.2,0c0,0,0,0,0,0C27.7-59.9,27.7-51.5,27.7-51.5z M56.8-35.1H27.7c-2.4,0-4.1-1.7-4.1-4.1v-8.3
			c0-2.4,1.7-4.1,4.1-4.1h29.1c2.4,0,4.1,1.7,4.1,4.1v8.3C60.9-36.8,59.2-35.1,56.8-35.1z M27.7-39.1c0,0,29.2,0,29.2,0c0,0,0,0,0,0
			c0,0,0,0,0,0v-8.3c0,0,0,0,0,0c0,0-29.2,0-29.2,0L27.7-39.1C27.7-39.1,27.7-39.1,27.7-39.1z M94.5,16.7H54.7c-1.2,0-2.3-0.5-3-1.4
			c-0.8-0.9-1.2-2.2-1-3.4l0-0.2l5.1-24.3c0.1-2.2,1.9-3.8,4.1-3.8h40.4c2.3,0,4.1,1.8,4.1,4.1l0,0.4l-4.7,24.4
			C99.1,14.9,97,16.7,94.5,16.7z M54.7,12.7h39.8c0.5,0,1-0.4,1.1-0.9l4.5-23c0.1-0.6-0.3-1.1-0.9-1.1l-39.3,0v0.2l-0.1,0.3L58.5-6
			l-3.9,18.5C54.6,12.6,54.7,12.7,54.7,12.7z M54.7,12.5h-4v-37.2c0-2.3,1.8-4.1,4.1-4.1h9.3c1.9,0,2.9,1.7,3.8,3
			c0.2,0.3,0.5,0.8,0.8,1.1h16.9h10.6c2.3,0,4.1,1.8,4.1,4.1v6.3h-4v-6.3l-10.2,0l-17.8,0c-1.9,0-2.9-1.7-3.8-3
			c-0.2-0.3-0.5-0.8-0.8-1.1h-8.9L54.7,12.5z"/>
	</g>
	<g id="Light-M" transform="matrix(1 0 0 1 1095.44 1126)">
		<path d="M45.7-20.8c0,2.3-1.9,4.1-4.1,4.1s-4.1-1.9-4.1-4.1s1.9-4.1,4.1-4.1S45.7-23.1,45.7-20.8z M45.7-4.5
			c0,2.3-1.9,4.1-4.1,4.1s-4.1-1.9-4.1-4.1s1.9-4.1,4.1-4.1S45.7-6.7,45.7-4.5z M43.1,9.7c-0.1-1.1-1.2-2-2.3-2l-22.6,0
			c-0.5,0-0.9-0.4-0.9-0.9l0-75.5c0-0.5,0.4-0.9,0.9-0.9l46.9,0c0.5,0,0.9,0.4,0.9,0.9V-35c0,1.3,1.1,2.3,2.4,2.2
			c1.1-0.1,2-1.2,2-2.3l0-34.7c0-2.3-1.9-4.2-4.2-4.2h-49c-2.3,0-4.2,1.9-4.2,4.2V7.9c0,2.3,1.9,4.2,4.2,4.2h23.8
			C42.2,12.1,43.2,11,43.1,9.7z M17.5-70.3l4.1-10.8c0.7-0.6,1.1-0.7,1.6-0.7h37c0.5,0,0.9,0.2,1.2,0.4L65.3-71
			c0.4,1.1,1.7,1.7,2.8,1.3c1.1-0.4,1.7-1.7,1.3-2.8l-4.1-10.9c-0.1-0.2-0.2-0.4-0.3-0.6c-1.1-1.4-3-2.3-4.8-2.3h-37
			c-2.4,0-3.8,1.2-5,2.3c-0.2,0.2-0.4,0.5-0.5,0.8l-4.3,11.3c-0.4,1.1,0.1,2.4,1.3,2.8c0.3,0.1,0.5,0.1,0.8,0.1
			C16.3-68.9,17.2-69.5,17.5-70.3z M56-47.7H27.2c-2.2,0-3.8-1.6-3.8-3.8v-8.2c0-2.2,1.6-3.8,3.8-3.8H56c2.2,0,3.8,1.6,3.8,3.8v8.2
			C59.8-49.3,58.2-47.7,56-47.7z M27.2-51.2H56c0.2,0,0.3-0.1,0.3-0.3v-8.2c0-0.2-0.1-0.3-0.3-0.3H27.2c-0.2,0-0.3,0.1-0.3,0.3v8.2
			C27-51.3,27.1-51.2,27.2-51.2z M56-35.4H27.2c-2.2,0-3.8-1.6-3.8-3.8v-8.2c0-2.2,1.6-3.8,3.8-3.8H56c2.2,0,3.8,1.6,3.8,3.8v8.2
			C59.8-37,58.2-35.4,56-35.4z M27.2-39H56c0.2,0,0.3-0.1,0.3-0.3v-8.2c0-0.2-0.1-0.3-0.3-0.3H27.2c-0.2,0-0.3,0.1-0.3,0.3v8.2
			C27-39.1,27.1-39,27.2-39z M93.2,15.7h-8.5H53.9c-1.2,0-2.3-0.5-3-1.4c-0.7-0.9-1-2-0.8-3.2l5.1-24c0.1-2,1.7-3.6,3.8-3.6h39.8
			c2.1,0,3.8,1.7,3.8,3.8l0,0.3l-4.7,24.1C97.5,14,95.5,15.7,93.2,15.7z M59-13c-0.2,0-0.3,0.1-0.3,0.3l0,0.4l-5.1,24.2
			c0,0.1,0,0.2,0.1,0.2c0,0,0.1,0.1,0.3,0.1h39.3c0.6,0,1.1-0.4,1.3-1.1l4.6-23.9c0-0.1-0.1-0.2-0.3-0.2H59z M53.7,11.8h-3.5v-36.8
			c0-2.1,1.7-3.8,3.8-3.8h9.2c1.7,0,2.7,1.6,3.5,2.9c0.2,0.4,0.6,0.9,0.8,1.2h27.3c2.1,0,3.8,1.7,3.8,3.8v6.2H95v-6.2
			c0-0.2-0.1-0.3-0.3-0.3H67.2c-1.7,0-2.7-1.6-3.5-2.9c-0.2-0.4-0.6-0.9-0.8-1.2H54c-0.2,0-0.3,0.1-0.3,0.3V11.8z"/>
	</g>
	<g id="Thin-M" transform="matrix(1 0 0 1 799.828 1126)">
		<path d="M44.6-21.1c0,2.3-1.8,4-4,4s-4-1.8-4-4s1.8-4,4-4S44.6-23.4,44.6-21.1z M44.6-5c0,2.3-1.8,4-4,4s-4-1.8-4-4s1.8-4,4-4
			S44.6-7.2,44.6-5z M41.7,9.2c0-1-0.8-1.7-1.7-1.7H16.4c-0.2,0-0.3-0.1-0.3-0.3v-76.6c0-0.2,0.1-0.3,0.3-0.3h48.4
			c0.2,0,0.3,0.1,0.3,0.3v34.4c0,1,0.8,1.7,1.7,1.7s1.7-0.8,1.7-1.7v-34.4c0-2.2-1.6-3.7-3.7-3.7H16.4c-2.2,0-3.7,1.6-3.7,3.7V7.2
			c0,2.2,1.6,3.7,3.7,3.7h23.5C40.9,10.9,41.7,10.1,41.7,9.2z M16.4-70.2l4.1-10.8c0.8-0.7,1.3-0.9,1.9-0.9H59
			c0.6,0,1.2,0.3,1.5,0.6l3.9,10.5c0.3,0.9,1.3,1.4,2.2,1c0.9-0.3,1.4-1.3,1-2.2l-4-10.8c-0.1-0.2-0.1-0.3-0.3-0.5
			c-1-1.3-2.7-2.1-4.4-2.1H22.4c-2.2,0-3.6,1.1-4.6,2.2c-0.2,0.2-0.3,0.4-0.4,0.6l-4.3,11.1c-0.3,0.9,0.1,1.9,1,2.2
			c0.2,0.1,0.4,0.1,0.6,0.1C15.5-69,16.1-69.5,16.4-70.2z M54.8-47.8H26.4c-2.1,0-3.5-1.4-3.5-3.5v-8.1c0-2.1,1.4-3.5,3.5-3.5h28.4
			c2.1,0,3.5,1.4,3.5,3.5v8.1C58.3-49.3,56.9-47.8,54.8-47.8z M26.4-59.9c-0.4,0-0.5,0.1-0.5,0.5v8.1c0,0.4,0.1,0.5,0.5,0.5h28.4
			c0.4,0,0.5-0.1,0.5-0.5v-8.1c0-0.4-0.1-0.5-0.5-0.5H26.4z M54.8-35.8H26.4c-2.1,0-3.5-1.4-3.5-3.5v-8.1c0-2.1,1.4-3.5,3.5-3.5
			h28.4c2.1,0,3.5,1.4,3.5,3.5v8.1C58.3-37.2,56.9-35.8,54.8-35.8z M26.4-47.8c-0.4,0-0.5,0.1-0.5,0.5v8.1c0,0.4,0.1,0.5,0.5,0.5
			h28.4c0.4,0,0.5-0.1,0.5-0.5v-8.1c0-0.4-0.1-0.5-0.5-0.5H26.4z M91.4,14.7H52.6c-1,0-2-0.4-2.6-1.2c-0.7-0.8-1-1.9-0.9-3l0-0.1
			l5-23.7c0.1-1.9,1.6-3.3,3.5-3.3H97c2,0,3.5,1.5,3.5,3.5l0,0.3l-4.6,23.7C95.5,13.1,93.7,14.7,91.4,14.7z M52.1,11
			c0,0.2,0,0.4,0.2,0.5c0.1,0.1,0.2,0.2,0.3,0.2h38.8c0.7,0,1.3-0.5,1.5-1.3l4.6-23.6c0-0.2-0.2-0.4-0.5-0.4H57.7
			c-0.3,0-0.5,0.2-0.5,0.5l0,0.3L52.1,11z M52.1,11.1h-3v-36.3c0-2,1.5-3.5,3.5-3.5h9.1c1.6,0,2.5,1.4,3.3,2.7
			c0.3,0.4,0.7,1.1,0.9,1.3h27c2,0,3.5,1.5,3.5,3.5v6.1h-3v-6.1c0-0.3-0.2-0.5-0.5-0.5H65.8c-1.6,0-2.5-1.4-3.3-2.7
			c-0.3-0.4-0.7-1.1-0.9-1.3h-8.9c-0.3,0-0.5,0.2-0.5,0.5V11.1z"/>
	</g>
	<g id="Ultralight-M" transform="matrix(1 0 0 1 503.679 1126)">
		<path d="M43.1-21.4c0,2.2-1.8,3.9-3.9,3.9c-2.2,0-3.9-1.8-3.9-3.9s1.8-3.9,3.9-3.9C41.3-25.3,43.1-23.6,43.1-21.4z M43.1-5.5
			c0,2.2-1.8,3.9-3.9,3.9c-2.2,0-3.9-1.8-3.9-3.9s1.8-3.9,3.9-3.9C41.3-9.5,43.1-7.7,43.1-5.5z M39.7,8.5c0-0.7-0.6-1.3-1.3-1.3
			H15.2c-0.5,0-0.7-0.2-0.7-0.7v-75.6c0-0.5,0.2-0.7,0.7-0.7h47.7c0.5,0,0.7,0.2,0.7,0.7v33.9c0,0.7,0.6,1.3,1.3,1.3
			s1.3-0.6,1.3-1.3v-33.9c0-1.9-1.3-3.3-3.3-3.3H15.2c-1.9,0-3.3,1.3-3.3,3.3V6.5c0,1.9,1.3,3.3,3.3,3.3h23.2
			C39.1,9.8,39.7,9.2,39.7,8.5z M14.8-69.9l4.1-10.7c0.8-0.8,1.4-1.1,2.2-1.1h36c0.8,0,1.5,0.4,1.9,0.8l3.9,10.4
			c0.2,0.7,1,1,1.7,0.8c0.7-0.2,1-1,0.8-1.7l-3.9-10.6c0-0.1-0.1-0.2-0.2-0.3c-0.9-1.1-2.5-1.9-4-1.9h-36c-2,0-3.3,1-4.3,2
			c-0.1,0.1-0.2,0.3-0.3,0.5l-4.2,11c-0.3,0.7,0.1,1.4,0.7,1.7c0.2,0.1,0.3,0.1,0.5,0.1C14.1-69.1,14.6-69.4,14.8-69.9z M53.2-48
			h-28c-1.9,0-3.3-1.3-3.3-3.3v-8c0-1.9,1.3-3.3,3.3-3.3h27.9c1.9,0,3.3,1.3,3.3,3.3c0,0,0.1,7.8,0.1,8C56.4-49.3,55.1-48,53.2-48z
			 M25.2-59.9c-0.5,0-0.7,0.2-0.7,0.7v8c0,0.5,0.2,0.7,0.7,0.7h28c0.4,0,0.6-0.1,0.6-0.4c0-0.1,0-8.3,0-8.3c0-0.5-0.2-0.7-0.7-0.7
			H25.2z M53.2-36.1h-28c-1.9,0-3.3-1.3-3.3-3.3v-8c0-1.9,1.3-3.3,3.3-3.3h27.9c1.9,0,3.3,1.3,3.3,3.3c0,0,0.1,7.8,0.1,8
			C56.4-37.4,55.1-36.1,53.2-36.1z M25.2-48c-0.5,0-0.7,0.2-0.7,0.7v8c0,0.5,0.2,0.7,0.7,0.7h28c0.4,0,0.6-0.1,0.6-0.4
			c0-0.1,0-8.3,0-8.3c0-0.5-0.2-0.7-0.7-0.7H25.2z M89.3,13.7H51c-0.9,0-1.8-0.4-2.4-1.1c-0.7-0.7-0.9-1.7-0.8-2.7l0-0.1l5-23.4
			c0.1-1.8,1.5-3.1,3.3-3.1h38.8c1.8,0,3.3,1.4,3.3,3.3l0,0.2l-4.5,23.4C93.1,12.2,91.4,13.7,89.3,13.7z M50.3,10.2
			c0,0.3,0.1,0.5,0.2,0.7c0.1,0.1,0.2,0.2,0.5,0.2h38.3c0.8,0,1.5-0.6,1.7-1.4l4.5-23.3c0-0.4-0.3-0.6-0.7-0.6H56
			c-0.4,0-0.7,0.3-0.7,0.7l0,0.3L50.3,10.2z M50.4,10.4h-2.6v-35.8c0-1.8,1.4-3.3,3.3-3.3H60c1.4,0,2.3,1.4,3.1,2.6
			c0.3,0.4,0.7,1.2,1,1.4h26.7c1.8,0,3.3,1.4,3.3,3.3v6h-2.6v-6c0-0.4-0.3-0.7-0.7-0.7H64c-1.4,0-2.3-1.4-3.1-2.6
			c-0.3-0.4-0.7-1.2-1-1.4h-8.8c-0.4,0-0.7,0.3-0.7,0.7V10.4z"/>
	</g>
	<g id="Black-S" transform="matrix(1 0 0 1 2884.57 696)">
		<path d="M39.2-22.4c0,1.9-1.6,3.4-3.4,3.4c-1.9,0-3.4-1.6-3.4-3.4c0-1.9,1.6-3.4,3.4-3.4C37.6-25.8,39.2-24.4,39.2-22.4z
			 M39.2-8.7c0,1.9-1.6,3.4-3.4,3.4c-1.9,0-3.4-1.6-3.4-3.4s1.6-3.4,3.4-3.4C37.6-12.1,39.2-10.5,39.2-8.7z M39.2,3
			C39,0.9,37.1-0.7,35-0.7l-16.8,0c-0.4,0-0.7-0.3-0.7-0.7v-59.2c0-0.4,0.3-0.7,0.7-0.7h35.1c0.4,0,0.7,0.3,0.7,0.7v26.2
			c0,2.4,2.1,4.3,4.5,4.1c2.1-0.2,3.7-2.1,3.7-4.2v-29.2c0-3.2-2.6-5.8-5.8-5.8H15.1c-3.2,0-5.8,2.6-5.8,5.8V1.7
			c0,3.2,2.6,5.8,5.8,5.8h20.1C37.6,7.5,39.5,5.4,39.2,3z M17.5-63.4l3.2-8.3h22.1h7.9l2.9,7.7c0.8,2.1,3.1,3.2,5.2,2.4
			c2.1-0.8,3.2-3.1,2.4-5.3L57.9-76c-0.1-0.4-0.3-0.8-0.6-1.1c-1.3-1.7-3.6-2.8-5.8-2.8H33.6H20.2c-2.8,0-4.7,1.5-5.8,2.6
			c-0.4,0.4-0.7,0.9-0.9,1.4l-3.6,9.5c-0.8,2.1,0.2,4.5,2.4,5.3c0.5,0.2,1,0.3,1.5,0.3C15.3-60.7,16.9-61.7,17.5-63.4z M47.9-44
			H23.7c-2.5,0-4.3-1.9-4.3-4.3v-6.9c0-2.5,1.9-4.3,4.3-4.3h24.2c2.5,0,4.3,1.9,4.3,4.3v6.9C52.2-45.8,50.3-44,47.9-44z M25.3-49.2
			h20.9c0.4,0,0.7-0.3,0.7-0.7v-3.6c0-0.4-0.3-0.7-0.7-0.7H25.3c-0.4,0-0.7,0.3-0.7,0.7v3.6C24.5-49.5,24.9-49.2,25.3-49.2z
			 M47.9-33.6H23.7c-2.5,0-4.3-1.9-4.3-4.3v-6.9c0-2.5,1.9-4.3,4.3-4.3h24.2c2.5,0,4.3,1.9,4.3,4.3v6.9
			C52.2-35.5,50.3-33.6,47.9-33.6z M25.3-38.8h20.9c0.4,0,0.7-0.3,0.7-0.7v-3.6c0-0.4-0.3-0.7-0.7-0.7H25.3c-0.4,0-0.7,0.3-0.7,0.7
			v3.6C24.5-39.2,24.9-38.8,25.3-38.8z M79.2,9.4H46.1c-1.3,0-2.5-0.6-3.4-1.6c-0.8-1-1.1-2.3-0.9-3.6l4.3-20.2c0.2-2.3,2-4,4.3-4
			H84c2.4,0,4.3,1.9,4.3,4.3v0.3L85.7-2.1l-1.4,7.2C83.8,7.6,81.7,9.4,79.2,9.4z M48.1,4.2h31.1l1-5.2l2.5-12.9
			c0.1-0.5-0.3-0.9-0.7-0.9H62.2H51.7c-0.4,0-0.7,0.2-0.7,0.6l-2.3,11l-1.4,6.5C47.2,3.8,47.6,4.2,48.1,4.2z M47,5h-5.2v-31
			c0-2.4,1.9-4.3,4.3-4.3h7.7c2.1,0,3.2,1.8,3.9,2.9c0.1,0.1,0.2,0.3,0.3,0.5h12.4h10c2.4,0,4.3,1.9,4.3,4.3v5.2h-5.2v-4.3h-9.1
			H57.3c-2.1,0-3.2-1.8-3.9-2.9c-0.1-0.1-0.2-0.3-0.3-0.5h-6V5z"/>
	</g>
	<g id="Heavy-S" transform="matrix(1 0 0 1 2588.47 696)">
		<path d="M38.6-22.7c0,1.9-1.5,3.4-3.4,3.4c-1.8,0-3.4-1.5-3.4-3.4s1.5-3.4,3.4-3.4C37.1-26,38.6-24.6,38.6-22.7z M38.6-9.1
			c0,1.9-1.5,3.4-3.4,3.4c-1.8,0-3.4-1.5-3.4-3.4s1.5-3.4,3.4-3.4C37.1-12.5,38.6-10.9,38.6-9.1z M38.3,2.5
			c-0.2-1.9-1.9-3.3-3.8-3.3l-16.9,0c-0.4,0-0.7-0.3-0.7-0.7v-59.2c0-0.4,0.3-0.7,0.7-0.7h35.4c0.4,0,0.7,0.3,0.7,0.7v26.3
			c0,2.1,1.8,3.9,4,3.7c1.9-0.2,3.3-1.9,3.3-3.8l0-28.8c0-3-2.4-5.4-5.4-5.4H14.8c-3,0-5.4,2.4-5.4,5.4V1.2c0,3,2.4,5.4,5.4,5.4
			h19.8C36.8,6.6,38.5,4.7,38.3,2.5z M16.9-63.3l3.2-8.4h17.4h12.8l2.9,7.9c0.7,1.9,2.8,2.9,4.7,2.2c1.9-0.7,2.9-2.8,2.2-4.7
			l-3.4-9.1c-0.1-0.4-0.3-0.7-0.5-1c-1.2-1.6-3.3-2.6-5.5-2.6H37.3H19.9c-2.7,0-4.4,1.4-5.5,2.5c-0.4,0.4-0.6,0.8-0.8,1.3L10-65.9
			c-0.7,1.9,0.2,4,2.1,4.7c0.4,0.2,0.9,0.2,1.3,0.2C14.9-60.9,16.3-61.8,16.9-63.3z M47.2-44.1H23.3c-2.4,0-4.1-1.7-4.1-4.1V-55
			c0-2.4,1.7-4.1,4.1-4.1h23.9c2.4,0,4.1,1.7,4.1,4.1v6.8C51.3-45.9,49.6-44.1,47.2-44.1z M24.7-48.9h21.1c0.4,0,0.7-0.3,0.7-0.7v-4
			c0-0.4-0.3-0.7-0.7-0.7H24.7c-0.4,0-0.7,0.3-0.7,0.7v4C24-49.2,24.3-48.9,24.7-48.9z M47.2-33.9H23.3c-2.4,0-4.1-1.7-4.1-4.1v-6.8
			c0-2.4,1.7-4.1,4.1-4.1h23.9c2.4,0,4.1,1.7,4.1,4.1v6.8C51.3-35.6,49.6-33.9,47.2-33.9z M24.7-38.7h21.1c0.4,0,0.7-0.3,0.7-0.7v-4
			c0-0.4-0.3-0.7-0.7-0.7H24.7c-0.4,0-0.7,0.3-0.7,0.7v4C24-39,24.3-38.7,24.7-38.7z M78.2,8.6h-5.7H45.4c-1.2,0-2.4-0.5-3.2-1.5
			c-0.8-0.9-1.1-2.2-0.8-3.4l4.2-19.9c0.1-2.1,1.9-3.8,4.1-3.8h33.2c2.3,0,4.1,1.8,4.1,4.1v0.2L83,4.6C82.6,6.9,80.6,8.6,78.2,8.6z
			 M46.4,3c-0.1,0.5,0.3,0.9,0.7,0.9h31c0,0,0.1,0,0.1-0.2l1.2-5.9l2.4-12.1c0.1-0.5-0.3-0.9-0.7-0.9H62.5H50.9
			c-0.3,0-0.6,0.2-0.7,0.6L46.4,3z M46.2,4.5h-4.8v-30.6c0-2.3,1.8-4.1,4.1-4.1h7.6c1.9,0,3,1.6,3.7,2.8c0.1,0.2,0.2,0.4,0.4,0.6h10
			h12.2c2.3,0,4.1,1.8,4.1,4.1v5.1h-4.8V-22h-8.5H56.5c-1.9,0-3-1.6-3.7-2.8c-0.1-0.2-0.2-0.4-0.4-0.6h-6.2V4.5z"/>
	</g>
	<g id="Bold-S" transform="matrix(1 0 0 1 2292.43 696)">
		<path d="M38-22.9c0,1.9-1.5,3.3-3.3,3.3c-1.8,0-3.3-1.5-3.3-3.3s1.5-3.3,3.3-3.3C36.5-26.2,38-24.8,38-22.9z M38-9.5
			c0,1.9-1.5,3.3-3.3,3.3c-1.8,0-3.3-1.5-3.3-3.3s1.5-3.3,3.3-3.3C36.5-12.8,38-11.3,38-9.5z M37.3,2c-0.2-1.7-1.7-2.9-3.4-2.9
			l-17.1,0c-0.4,0-0.7-0.3-0.7-0.7v-59.3c0-0.4,0.3-0.7,0.7-0.7h35.7c0.4,0,0.7,0.3,0.7,0.7v26.3c0,1.9,1.6,3.4,3.6,3.2
			c1.7-0.2,2.9-1.7,2.9-3.4v-28.5c0-2.7-2.2-4.9-4.9-4.9H14.5c-2.7,0-4.9,2.2-4.9,4.9V0.7c0,2.7,2.2,4.9,4.9,4.9h19.6
			C36,5.6,37.5,4,37.3,2z M16.1-63.2l3.3-8.5c0,0,0.1,0,0.1,0h0l30.3,0l3,8c0.6,1.7,2.5,2.6,4.2,1.9c1.7-0.6,2.6-2.5,1.9-4.2l-3.3-9
			c-0.1-0.3-0.3-0.6-0.5-0.9c-1.2-1.5-3.1-2.4-5.1-2.4H19.5c-2.5,0-4.1,1.3-5.1,2.3c-0.3,0.3-0.6,0.7-0.7,1.1L10-65.5
			c-0.6,1.7,0.2,3.6,1.9,4.2c0.4,0.1,0.8,0.2,1.2,0.2C14.4-61.1,15.6-61.9,16.1-63.2z M46.5-44.3H22.8c-2.2,0-3.8-1.6-3.8-3.8v-6.7
			c0-2.2,1.6-3.8,3.8-3.8h23.7c2.2,0,3.8,1.6,3.8,3.8v6.7C50.3-45.9,48.7-44.3,46.5-44.3z M24.1-48.7h21.2c0.4,0,0.7-0.3,0.7-0.7
			v-4.3c0-0.4-0.3-0.7-0.7-0.7H24.1c-0.4,0-0.7,0.3-0.7,0.7v4.3C23.3-49,23.6-48.7,24.1-48.7z M46.5-34.2H22.8
			c-2.2,0-3.8-1.6-3.8-3.8v-6.7c0-2.2,1.6-3.8,3.8-3.8h23.7c2.2,0,3.8,1.6,3.8,3.8v6.7C50.3-35.8,48.7-34.2,46.5-34.2z M24.1-38.6
			h21.2c0.4,0,0.7-0.3,0.7-0.7v-4.3c0-0.4-0.3-0.7-0.7-0.7H24.1c-0.4,0-0.7,0.3-0.7,0.7v4.3C23.3-38.9,23.6-38.6,24.1-38.6z
			 M77.1,7.9H44.7c-1.1,0-2.2-0.5-2.9-1.3c-0.8-0.9-1.1-2-0.9-3.2l0-0.2l4.2-19.7c0.1-2,1.8-3.6,3.8-3.6h32.8c2.2,0,3.8,1.7,3.8,3.8
			v0.2L81.7,4C81.3,6.2,79.4,7.9,77.1,7.9z M45.5,2.6c-0.1,0.5,0.2,0.9,0.7,0.9h30.9c0.2,0,0.3-0.2,0.3-0.3l0.9-4.6l2.6-13.4
			c0.1-0.4-0.3-0.9-0.7-0.9H66.8H50c-0.3,0-0.6,0.2-0.7,0.6L45.5,2.6z M45.3,3.9H41v-30.3c0-2.2,1.7-3.8,3.8-3.8h7.5
			c1.8,0,2.8,1.6,3.5,2.7c0.1,0.2,0.3,0.5,0.4,0.7h11h11.1c2.2,0,3.8,1.7,3.8,3.8v5.1h-4.4v-4.6h-8.4H55.7c-1.8,0-2.8-1.6-3.5-2.7
			c-0.1-0.2-0.3-0.5-0.4-0.7h-6.4V3.9z"/>
	</g>
	<g id="Semibold-S" transform="matrix(1 0 0 1 1996.19 696)">
		<path d="M37.4-23.1c0,1.9-1.5,3.3-3.3,3.3s-3.3-1.5-3.3-3.3c0-1.8,1.5-3.3,3.3-3.3S37.4-25,37.4-23.1z M37.4-9.9
			c0,1.9-1.5,3.3-3.3,3.3s-3.3-1.5-3.3-3.3s1.5-3.3,3.3-3.3S37.4-11.7,37.4-9.9z M36.4,1.8c0-1.6-1.3-2.9-2.9-2.9H15.4v-60.7h29.2
			h8.2v27.1c0,1.6,1.3,2.9,2.9,2.9s2.9-1.3,2.9-2.9V-63c0-2.6-1.9-4.5-4.5-4.5H44h-8.2H14.2c-2.6,0-4.5,1.9-4.5,4.5V0.2
			c0,2.6,1.9,4.5,4.5,4.5h19.4C35.1,4.7,36.4,3.4,36.4,1.8z M15.5-63l3.3-8.5c0.2-0.2,0.3-0.2,0.4-0.2h30.1c0,0,0.1,0,0.1,0l3,8.2
			c0.6,1.5,2.2,2.2,3.7,1.7c1.5-0.6,2.2-2.2,1.7-3.7l-3.3-8.9c-0.1-0.3-0.2-0.5-0.4-0.8c-1.1-1.4-2.9-2.3-4.8-2.3H19.1
			c-2.3,0-3.8,1.2-4.8,2.2c-0.3,0.3-0.5,0.6-0.7,1l-3.5,9.2c-0.6,1.5,0.2,3.1,1.7,3.7c0.3,0.1,0.7,0.2,1,0.2
			C14-61.2,15.1-61.9,15.5-63z M45.8-44.5H22.4c-2.1,0-3.6-1.5-3.6-3.6v-6.7c0-2.1,1.5-3.6,3.6-3.6h23.4c2.1,0,3.6,1.5,3.6,3.6v6.7
			C49.4-46,47.9-44.5,45.8-44.5z M22.9-48.4l22.4,0c0.1,0,0.1-0.1,0.1-0.1v-5.7c0-0.1-0.1-0.1-0.1-0.1l-22.4,0
			c-0.1,0-0.1,0.1-0.1,0.1l0,5.7C22.8-48.5,22.8-48.4,22.9-48.4z M45.8-34.5H22.4c-2.1,0-3.6-1.5-3.6-3.6v-6.7
			c0-2.1,1.5-3.6,3.6-3.6h23.4c2.1,0,3.6,1.5,3.6,3.6v6.7C49.4-36,47.9-34.5,45.8-34.5z M22.9-38.4l22.4,0c0.1,0,0.1-0.1,0.1-0.1
			v-5.7c0-0.1-0.1-0.1-0.1-0.1l-22.4,0c-0.1,0-0.1,0.1-0.1,0.1l0,5.7C22.8-38.5,22.8-38.4,22.9-38.4z M76.1,7.1h-32
			c-1,0-2-0.5-2.7-1.2c-0.7-0.8-1-1.9-0.9-3l0-0.1l4.1-19.5c0.1-1.9,1.7-3.4,3.6-3.4h32.4c2,0,3.6,1.6,3.6,3.6v0.2L80.4,3.4
			C80.1,5.5,78.2,7.1,76.1,7.1z M44.6,2.3c-0.1,0.4,0.2,0.9,0.7,0.9h30.7c0.3,0,0.4-0.2,0.5-0.5l1.4-7l2.1-11
			c0.1-0.4-0.3-0.9-0.7-0.9H59.1h-10c-0.3,0-0.6,0.2-0.7,0.6L44.6,2.3z M44.5,3.4h-3.9v-29.9c0-2,1.6-3.6,3.6-3.6h7.5
			c1.7,0,2.6,1.5,3.3,2.6c0.1,0.2,0.3,0.5,0.5,0.7h9.3h12.6c2,0,3.6,1.6,3.6,3.6v5H77v-4.7h-7H54.9c-1.7,0-2.6-1.5-3.3-2.6
			c-0.1-0.2-0.3-0.5-0.5-0.7h-6.6V3.4z"/>
	</g>
	<g id="Medium-S" transform="matrix(1 0 0 1 1699.83 696)">
		<path d="M37.2-23.4c0,1.8-1.5,3.3-3.3,3.3c-1.8,0-3.3-1.5-3.3-3.3c0-1.8,1.5-3.3,3.3-3.3C35.7-26.6,37.2-25.2,37.2-23.4z
			 M37.2-10.3c0,1.8-1.5,3.3-3.3,3.3c-1.8,0-3.3-1.5-3.3-3.3s1.5-3.3,3.3-3.3C35.7-13.5,37.2-12,37.2-10.3z M35.8,0.8
			c-0.2-1.2-1.3-2-2.5-2l-17.5,0c-0.4,0-0.7-0.3-0.7-0.7v-59.3c0-0.4,0.3-0.7,0.7-0.7h36.3c0.4,0,0.7,0.3,0.7,0.7v26.4
			c0,1.5,1.4,2.7,3,2.4c1.2-0.2,2-1.3,2-2.5l0-27.9c0-2.3-1.8-4.1-4.1-4.1H14.3c-2.3,0-4.1,1.8-4.1,4.1v62.4c0,2.3,1.8,4.1,4.1,4.1
			h19.1C34.9,3.7,36.1,2.3,35.8,0.8z M15.2-62.9l3.3-8.5c0.3-0.3,0.5-0.3,0.7-0.3h29.7c0.1,0,0.3,0,0.4,0.1l3,8.2
			c0.5,1.3,1.9,1.9,3.2,1.5c1.3-0.5,1.9-1.9,1.5-3.2l-3.3-8.8c-0.1-0.2-0.2-0.5-0.4-0.7c-1-1.3-2.7-2.1-4.4-2.1H19.1
			c-2.2,0-3.5,1.1-4.5,2.1c-0.2,0.2-0.4,0.5-0.6,0.9l-3.5,9.1c-0.5,1.3,0.2,2.7,1.4,3.2c0.3,0.1,0.6,0.2,0.9,0.2
			C13.9-61.3,14.8-61.9,15.2-62.9z M45.5-44.6H22.4c-2,0-3.4-1.4-3.4-3.4v-6.6c0-2,1.4-3.4,3.4-3.4h23.1c2,0,3.4,1.4,3.4,3.4v6.6
			C48.9-46,47.5-44.6,45.5-44.6z M22.7-48.2l22.5,0c0.1,0,0.1-0.1,0.1-0.1v-6c0-0.1-0.1-0.1-0.1-0.1l-22.5,0c-0.1,0-0.1,0.1-0.1,0.1
			l0,6C22.5-48.2,22.6-48.2,22.7-48.2z M45.5-34.8H22.4c-2,0-3.4-1.4-3.4-3.4v-6.6c0-2,1.4-3.4,3.4-3.4h23.1c2,0,3.4,1.4,3.4,3.4
			v6.6C48.9-36.2,47.5-34.8,45.5-34.8z M22.7-38.3l22.5,0c0.1,0,0.1-0.1,0.1-0.1v-6c0-0.1-0.1-0.1-0.1-0.1l-22.5,0
			c-0.1,0-0.1,0.1-0.1,0.1l0,6C22.5-38.4,22.6-38.3,22.7-38.3z M75.4,6.3H43.8c-1,0-1.9-0.4-2.5-1.2c-0.7-0.8-1-1.8-0.8-2.8l0-0.1
			l4.1-19.3c0.1-1.8,1.6-3.2,3.4-3.2h32c1.9,0,3.4,1.5,3.4,3.4l0,0.3L79.5,2.8C79.2,4.8,77.4,6.3,75.4,6.3z M43.9,2.8h31.4
			c0.3,0,0.6-0.2,0.7-0.6l1-5.2l2.5-12.8c0.1-0.4-0.3-0.8-0.7-0.8l-21.7,0l-9.1,0l0,0.2L46-7L43.9,2.8z M44,2.8h-3.5v-29.5
			c0-1.9,1.5-3.4,3.4-3.4h7.4c1.6,0,2.4,1.4,3.1,2.5c0.1,0.2,0.4,0.6,0.5,0.8h7h14.8c1.9,0,3.4,1.5,3.4,3.4v5h-3.5v-4.8h-8.6H54.5
			c-1.6,0-2.4-1.4-3.1-2.5c-0.1-0.2-0.4-0.6-0.5-0.8H44V2.8z"/>
	</g>
	<g id="Regular-S" transform="matrix(1 0 0 1 1403.58 696)">
		<path d="M36.8-23.6c0,1.8-1.5,3.2-3.2,3.2c-1.7,0-3.2-1.5-3.2-3.2s1.5-3.2,3.2-3.2C35.3-26.8,36.8-25.4,36.8-23.6z M36.8-10.7
			c0,1.8-1.5,3.2-3.2,3.2c-1.7,0-3.2-1.5-3.2-3.2s1.5-3.2,3.2-3.2C35.3-13.9,36.8-12.4,36.8-10.7z M35.1,0.6c-0.1-1.1-1.1-2-2.2-2
			l-17.6,0c-0.4,0-0.7-0.3-0.7-0.7v-59.2c0-0.4,0.3-0.7,0.7-0.7h36.5c0.4,0,0.7,0.3,0.7,0.7v26.4c0,1.3,1.2,2.3,2.5,2.1
			c1-0.2,1.7-1.1,1.7-2.1v-27.5c0-2-1.7-3.7-3.7-3.7H14.1c-2,0-3.7,1.7-3.7,3.7v61.6c0,2,1.7,3.7,3.7,3.7H33
			C34.2,2.8,35.1,1.8,35.1,0.6z M14.7-62.8l3.3-8.5c0.5-0.4,0.7-0.4,0.9-0.4h29.4c0.2,0,0.5,0.1,0.6,0.2l3.1,8.2
			c0.4,1.1,1.6,1.6,2.7,1.2c1.1-0.4,1.6-1.6,1.2-2.7l-3.2-8.7c-0.1-0.2-0.2-0.4-0.3-0.6c-0.9-1.2-2.5-1.9-4.1-1.9H18.9
			c-2,0-3.3,1-4.2,1.9c-0.2,0.2-0.4,0.5-0.5,0.7l-3.4,9c-0.4,1.1,0.1,2.3,1.2,2.7c0.2,0.1,0.5,0.1,0.7,0.1
			C13.6-61.4,14.4-62,14.7-62.8z M44.9-44.8H22.1c-1.8,0-3.2-1.3-3.2-3.2v-6.5c0-1.8,1.3-3.2,3.2-3.2h22.8c1.8,0,3.2,1.3,3.2,3.2
			v6.5C48.1-46.1,46.8-44.8,44.9-44.8z M22.1-47.9C22.1-47.9,22.1-47.9,22.1-47.9c0,0,22.9,0,22.9,0c0,0,0-6.5,0-6.5c0,0,0,0,0,0
			c0,0,0,0,0,0c0,0-22.8,0-22.8,0c0,0,0,0,0,0C22.1-54.4,22.1-47.9,22.1-47.9z M44.9-35H22.1c-1.8,0-3.2-1.3-3.2-3.2v-6.5
			c0-1.8,1.3-3.2,3.2-3.2h22.8c1.8,0,3.2,1.3,3.2,3.2v6.5C48.1-36.4,46.8-35,44.9-35z M22.1-38.2c0,0,22.8,0,22.8,0c0,0,0,0,0,0
			c0,0,0,0,0,0v-6.5c0,0,0,0,0,0c0,0-22.9,0-22.9,0L22.1-38.2C22.1-38.2,22.1-38.2,22.1-38.2z M74.4,5.5H43.3
			c-0.9,0-1.8-0.4-2.4-1.1c-0.6-0.7-0.9-1.7-0.8-2.7l0-0.1l4-19c0.1-1.7,1.5-3,3.2-3h31.6c1.8,0,3.2,1.4,3.2,3.2l0,0.3L78.4,2.2
			C78,4.1,76.4,5.5,74.4,5.5z M43.3,2.4h31.2c0.4,0,0.8-0.3,0.8-0.7l3.5-18c0.1-0.4-0.2-0.8-0.7-0.8l-30.8,0v0.2l-0.1,0.2l-1,4.6
			L43.2,2.2C43.2,2.3,43.2,2.4,43.3,2.4z M43.3,2.3h-3.1v-29.2c0-1.8,1.4-3.2,3.2-3.2h7.3c1.5,0,2.3,1.3,2.9,2.3
			c0.2,0.3,0.4,0.7,0.6,0.9h13.3h8.3c1.8,0,3.2,1.4,3.2,3.2v4.9h-3.1v-4.9l-8,0l-13.9,0c-1.5,0-2.3-1.3-2.9-2.3
			c-0.2-0.3-0.4-0.7-0.6-0.9h-7L43.3,2.3z"/>
	</g>
	<g id="Light-S" transform="matrix(1 0 0 1 1107.6 696)">
		<path d="M36.1-23.8c0,1.8-1.4,3.2-3.2,3.2c-1.7,0-3.2-1.4-3.2-3.2c0-1.7,1.4-3.2,3.2-3.2C34.7-27,36.1-25.6,36.1-23.8z M36.1-11.1
			c0,1.8-1.4,3.2-3.2,3.2c-1.7,0-3.2-1.4-3.2-3.2s1.4-3.2,3.2-3.2C34.7-14.3,36.1-12.8,36.1-11.1z M34.1,0c-0.1-0.9-0.9-1.5-1.8-1.5
			l-17.7,0c-0.4,0-0.7-0.3-0.7-0.7l0-59.2c0-0.4,0.3-0.7,0.7-0.7l36.7,0c0.4,0,0.7,0.3,0.7,0.7V-35c0,1,0.9,1.8,1.9,1.7
			c0.9-0.1,1.5-0.9,1.5-1.8v-27.2c0-1.8-1.5-3.3-3.3-3.3H13.8c-1.8,0-3.3,1.5-3.3,3.3v60.8c0,1.8,1.5,3.3,3.3,3.3h18.6
			C33.4,1.9,34.2,1,34.1,0z M14.1-62.6l3.2-8.5c0.5-0.5,0.8-0.6,1.2-0.6h29c0.4,0,0.7,0.2,0.9,0.3l3.1,8.2c0.3,0.9,1.3,1.3,2.2,1
			c0.9-0.3,1.3-1.3,1-2.2l-3.2-8.6c-0.1-0.2-0.1-0.3-0.3-0.5c-0.8-1.1-2.3-1.8-3.8-1.8h-29c-1.8,0-3,0.9-3.9,1.8
			c-0.2,0.2-0.3,0.4-0.4,0.6l-3.4,8.8c-0.3,0.9,0.1,1.9,1,2.2c0.2,0.1,0.4,0.1,0.6,0.1C13.2-61.5,13.8-62,14.1-62.6z M44.2-44.9
			H21.7c-1.7,0-3-1.2-3-3v-6.4c0-1.7,1.2-3,3-3h22.5c1.7,0,3,1.2,3,3v6.4C47.2-46.1,45.9-44.9,44.2-44.9z M21.7-47.7h22.5
			c0.1,0,0.2-0.1,0.2-0.2v-6.4c0-0.1-0.1-0.2-0.2-0.2H21.7c-0.1,0-0.2,0.1-0.2,0.2v6.4C21.5-47.7,21.6-47.7,21.7-47.7z M44.2-35.3
			H21.7c-1.7,0-3-1.2-3-3v-6.4c0-1.7,1.2-3,3-3h22.5c1.7,0,3,1.2,3,3v6.4C47.2-36.6,45.9-35.3,44.2-35.3z M21.7-38.1h22.5
			c0.1,0,0.2-0.1,0.2-0.2v-6.4c0-0.1-0.1-0.2-0.2-0.2H21.7c-0.1,0-0.2,0.1-0.2,0.2v6.4C21.5-38.1,21.6-38.1,21.7-38.1z M73.3,4.7
			h-6.7H42.6c-0.9,0-1.8-0.4-2.3-1.1C39.7,3,39.4,2,39.6,1.1l4-18.8c0.1-1.6,1.4-2.8,3-2.8h31.2c1.7,0,3,1.3,3,3l0,0.3L77,1.6
			C76.7,3.4,75.2,4.7,73.3,4.7z M46.6-17.7c-0.1,0-0.2,0.1-0.2,0.2l0,0.3l-4,18.9c0,0.1,0,0.1,0,0.2c0,0,0.1,0.1,0.2,0.1h30.8
			c0.5,0,0.9-0.3,1-0.9L78-17.6c0-0.1-0.1-0.1-0.2-0.1H46.6z M42.4,1.7h-2.8v-28.8c0-1.7,1.3-3,3-3h7.2c1.3,0,2.1,1.2,2.8,2.2
			c0.2,0.3,0.5,0.7,0.7,0.9h21.4c1.7,0,3,1.3,3,3v4.8h-2.8v-4.8c0-0.1-0.1-0.2-0.2-0.2H53c-1.3,0-2.1-1.2-2.8-2.2
			c-0.2-0.3-0.5-0.7-0.7-0.9h-6.9c-0.1,0-0.2,0.1-0.2,0.2V1.7z"/>
	</g>
	<g id="Thin-S" transform="matrix(1 0 0 1 811.863 696)">
		<path d="M35.2-24.1c0,1.8-1.4,3.1-3.1,3.1s-3.1-1.4-3.1-3.1s1.4-3.1,3.1-3.1S35.2-25.9,35.2-24.1z M35.2-11.5
			c0,1.8-1.4,3.1-3.1,3.1s-3.1-1.4-3.1-3.1s1.4-3.1,3.1-3.1S35.2-13.2,35.2-11.5z M32.9-0.4c0-0.8-0.6-1.4-1.4-1.4H13.1
			c-0.1,0-0.2-0.1-0.2-0.2v-60c0-0.1,0.1-0.2,0.2-0.2H51c0.1,0,0.2,0.1,0.2,0.2V-35c0,0.8,0.6,1.4,1.4,1.4c0.8,0,1.4-0.6,1.4-1.4
			V-62c0-1.7-1.2-2.9-2.9-2.9H13.1c-1.7,0-2.9,1.2-2.9,2.9v60c0,1.7,1.2,2.9,2.9,2.9h18.4C32.3,1,32.9,0.4,32.9-0.4z M13.1-62.5
			l3.2-8.4c0.6-0.6,1-0.7,1.5-0.7h28.6c0.5,0,0.9,0.2,1.2,0.4l3,8.2c0.3,0.7,1,1.1,1.8,0.8c0.7-0.3,1.1-1,0.8-1.8l-3.1-8.4
			c0-0.1-0.1-0.3-0.2-0.4c-0.8-1-2.1-1.6-3.5-1.6H17.8c-1.7,0-2.8,0.9-3.6,1.7c-0.1,0.1-0.2,0.3-0.3,0.5l-3.3,8.7
			c-0.3,0.7,0.1,1.5,0.8,1.8c0.2,0.1,0.3,0.1,0.5,0.1C12.4-61.6,12.9-61.9,13.1-62.5z M43.2-45H20.9c-1.6,0-2.8-1.1-2.8-2.8v-6.3
			c0-1.6,1.1-2.8,2.8-2.8h22.2c1.6,0,2.8,1.1,2.8,2.8v6.3C45.9-46.2,44.8-45,43.2-45z M20.9-54.5c-0.3,0-0.4,0.1-0.4,0.4v6.3
			c0,0.3,0.1,0.4,0.4,0.4h22.2c0.3,0,0.4-0.1,0.4-0.4v-6.3c0-0.3-0.1-0.4-0.4-0.4H20.9z M43.2-35.6H20.9c-1.6,0-2.8-1.1-2.8-2.8
			v-6.3c0-1.6,1.1-2.8,2.8-2.8h22.2c1.6,0,2.8,1.1,2.8,2.8v6.3C45.9-36.7,44.8-35.6,43.2-35.6z M20.9-45c-0.3,0-0.4,0.1-0.4,0.4v6.3
			c0,0.3,0.1,0.4,0.4,0.4h22.2c0.3,0,0.4-0.1,0.4-0.4v-6.3c0-0.3-0.1-0.4-0.4-0.4H20.9z M71.8,3.9H41.4c-0.8,0-1.5-0.3-2.1-0.9
			c-0.5-0.6-0.8-1.5-0.7-2.3l0-0.1L42.6-18c0.1-1.5,1.3-2.6,2.8-2.6h30.8c1.5,0,2.8,1.2,2.8,2.8l0,0.2L75.3,1
			C75,2.7,73.6,3.9,71.8,3.9z M41.1,1c0,0.1,0,0.3,0.1,0.4c0.1,0.1,0.1,0.1,0.3,0.1h30.4c0.6,0,1-0.4,1.1-1l3.6-18.5
			c0-0.2-0.2-0.3-0.4-0.3H45.4c-0.2,0-0.4,0.1-0.4,0.4l0,0.2L41.1,1z M41.1,1.1h-2.4v-28.4c0-1.5,1.2-2.8,2.8-2.8h7.2
			c1.2,0,1.9,1.1,2.6,2.1c0.2,0.3,0.5,0.8,0.7,1h21.2c1.5,0,2.8,1.2,2.8,2.8v4.8h-2.4v-4.8c0-0.2-0.1-0.4-0.4-0.4H51.7
			c-1.2,0-1.9-1.1-2.6-2.1c-0.2-0.3-0.5-0.8-0.7-1h-7c-0.2,0-0.4,0.1-0.4,0.4V1.1z"/>
	</g>
	<g id="Ultralight-S" transform="matrix(1 0 0 1 515.649 696)">
		<path d="M33.7-24.3c0,1.7-1.4,3.1-3.1,3.1c-1.7,0-3.1-1.4-3.1-3.1s1.4-3.1,3.1-3.1C32.3-27.4,33.7-26.1,33.7-24.3z M33.7-11.9
			c0,1.7-1.4,3.1-3.1,3.1c-1.7,0-3.1-1.4-3.1-3.1S29-15,30.6-15C32.3-15,33.7-13.6,33.7-11.9z M31-0.9c0-0.6-0.5-1-1-1H11.9
			c-0.4,0-0.5-0.2-0.5-0.5v-59.2c0-0.4,0.2-0.5,0.5-0.5h37.4c0.4,0,0.5,0.2,0.5,0.5v26.5c0,0.6,0.5,1,1,1s1-0.5,1-1v-26.5
			c0-1.5-1-2.6-2.6-2.6H11.9c-1.5,0-2.6,1-2.6,2.6v59.2c0,1.5,1,2.6,2.6,2.6H30C30.6,0.1,31-0.4,31-0.9z M11.6-62.3l3.2-8.4
			c0.6-0.6,1.1-0.8,1.8-0.8h28.2c0.6,0,1.2,0.3,1.5,0.6l3,8.2c0.2,0.5,0.8,0.8,1.3,0.6c0.5-0.2,0.8-0.8,0.6-1.3L48-71.8
			c0-0.1-0.1-0.2-0.1-0.3c-0.7-0.9-1.9-1.5-3.1-1.5H16.5c-1.6,0-2.6,0.8-3.3,1.6c-0.1,0.1-0.2,0.2-0.2,0.4L9.7-63
			c-0.2,0.5,0.1,1.1,0.6,1.3c0.1,0,0.2,0.1,0.4,0.1C11-61.7,11.4-61.9,11.6-62.3z M41.6-45.1H19.7c-1.5,0-2.6-1-2.6-2.6v-6.2
			c0-1.5,1-2.6,2.6-2.6h21.8c1.5,0,2.6,1,2.6,2.6c0,0,0.1,6.1,0.1,6.2C44.1-46.2,43.1-45.1,41.6-45.1z M19.7-54.5
			c-0.4,0-0.5,0.2-0.5,0.5v6.2c0,0.4,0.2,0.5,0.5,0.5h21.9c0.3,0,0.4-0.1,0.5-0.3c0-0.1,0-6.5,0-6.5c0-0.4-0.2-0.5-0.5-0.5H19.7z
			 M41.6-35.8H19.7c-1.5,0-2.6-1-2.6-2.6v-6.2c0-1.5,1-2.6,2.6-2.6h21.8c1.5,0,2.6,1,2.6,2.6c0,0,0.1,6.1,0.1,6.2
			C44.1-36.9,43.1-35.8,41.6-35.8z M19.7-45.1c-0.4,0-0.5,0.2-0.5,0.5v6.2c0,0.4,0.2,0.5,0.5,0.5h21.9c0.3,0,0.4-0.1,0.5-0.3
			c0-0.1,0-6.5,0-6.5c0-0.4-0.2-0.5-0.5-0.5H19.7z M69.9,3.2h-30c-0.7,0-1.4-0.3-1.9-0.9c-0.5-0.6-0.7-1.4-0.6-2.1l0-0.1l3.9-18.3
			c0.1-1.4,1.2-2.4,2.6-2.4h30.4c1.4,0,2.6,1.1,2.6,2.6l0,0.2L73.1,0.4C72.9,2,71.5,3.2,69.9,3.2z M39.4,0.4c0,0.2,0,0.4,0.2,0.5
			c0.1,0.1,0.2,0.2,0.4,0.2h30c0.7,0,1.2-0.4,1.3-1.1l3.5-18.2c0-0.3-0.2-0.5-0.5-0.5H43.8c-0.3,0-0.5,0.2-0.5,0.5l0,0.2L39.4,0.4z
			 M39.4,0.5h-2v-28c0-1.4,1.1-2.6,2.6-2.6h7c1.1,0,1.8,1.1,2.4,2c0.2,0.3,0.6,0.9,0.8,1.1h20.9c1.4,0,2.6,1.1,2.6,2.6v4.7h-2v-4.7
			c0-0.3-0.2-0.5-0.5-0.5h-21c-1.1,0-1.8-1.1-2.4-2c-0.2-0.3-0.6-0.9-0.8-1.1H40c-0.3,0-0.5,0.2-0.5,0.5V0.5z"/>
	</g>
</g>
</svg>
