<?xml version="1.0" encoding="utf-8"?>
<!-- Generator: Adobe Illustrator 24.1.1, SVG Export Plug-In . SVG Version: 6.00 Build 0)  -->
<svg version="1.1" id="Layer_1" xmlns="http://www.w3.org/2000/svg" xmlns:xlink="http://www.w3.org/1999/xlink" x="0px" y="0px"
	 viewBox="0 0 3300 2200" style="enable-background:new 0 0 3300 2200;" xml:space="preserve">
<style type="text/css">
	.st0{fill:#FFFFFF;}
	.st1{fill:none;stroke:#000000;stroke-width:0.5;}
	.st2{font-family:'Arial-BoldMT';}
	.st3{font-size:13px;}
	.st4{font-family:'ArialMT';}
	.st5{fill:none;stroke:#00AEEF;stroke-width:0.5;}
	.st6{fill:#27AAE1;}
	.st7{fill:none;stroke:#27AAE1;stroke-width:0.5;}
</style>
<g id="Notes">
	<rect id="artboard" class="st0" width="3300" height="2200"/>
	<line class="st1" x1="263" y1="292" x2="3036" y2="292"/>
	<text transform="matrix(1 0 0 1 263 322)" class="st2 st3">Weight/Scale Variations</text>
	<text transform="matrix(1 0 0 1 534.0632 322)" class="st4 st3">Ultralight</text>
	<text transform="matrix(1 0 0 1 843.7775 322)" class="st4 st3">Thin</text>
	<text transform="matrix(1 0 0 1 1139.035 322)" class="st4 st3">Light</text>
	<text transform="matrix(1 0 0 1 1427.0773 322)" class="st4 st3">Regular</text>
	<text transform="matrix(1 0 0 1 1723.4419 322)" class="st4 st3">Medium</text>
	<text transform="matrix(1 0 0 1 2016.1719 322)" class="st4 st3">Semibold</text>
	<text transform="matrix(1 0 0 1 2326.9705 322)" class="st4 st3">Bold</text>
	<text transform="matrix(1 0 0 1 2618.2659 322)" class="st4 st3">Heavy</text>
	<text transform="matrix(1 0 0 1 2917.5054 322)" class="st4 st3">Black</text>
	<line class="st1" x1="263" y1="1903" x2="3036" y2="1903"/>
	<g transform="matrix(1 0 0 1 263 1933)">
		<path d="M9.2,0.8c4.3,0,7.9-3.6,7.9-7.9S13.5-15,9.2-15s-7.9,3.6-7.9,7.9C1.4-2.7,5,0.8,9.2,0.8z M9.2-0.7C5.7-0.7,2.9-3.5,2.9-7
			c0-3.6,2.8-6.4,6.4-6.4s6.4,2.8,6.4,6.4C15.6-3.5,12.8-0.7,9.2-0.7z M5.7-7.1c0,0.4,0.3,0.7,0.8,0.7h2.1v2.1
			c0,0.4,0.3,0.7,0.7,0.7S10-3.9,10-4.3v-2.1h2.1c0.4,0,0.7-0.3,0.7-0.7c0-0.4-0.3-0.7-0.7-0.7H10v-2.1c0-0.4-0.3-0.8-0.7-0.8
			s-0.7,0.3-0.7,0.8v2.1H6.4C6-7.8,5.7-7.5,5.7-7.1z"/>
	</g>
	<g transform="matrix(1 0 0 1 281.867 1933)">
		<path d="M11.7,2.9c5.4,0,10-4.5,10-10c0-5.4-4.5-10-10-10c-5.4,0-10,4.5-10,10C1.7-1.6,6.3,2.9,11.7,2.9z M11.7,1.3
			C7.1,1.3,3.4-2.4,3.4-7s3.7-8.3,8.3-8.3S20-11.7,20-7.1C20-2.4,16.3,1.3,11.7,1.3z M7.2-7.1c0,0.5,0.3,0.8,0.8,0.8h2.9v2.9
			c0,0.5,0.3,0.8,0.8,0.8s0.8-0.3,0.8-0.8v-2.9h2.9c0.5,0,0.8-0.3,0.8-0.8s-0.3-0.8-0.8-0.8h-2.9v-2.9c0-0.5-0.3-0.8-0.8-0.8
			s-0.8,0.3-0.8,0.8v2.9H8C7.5-7.9,7.2-7.5,7.2-7.1z"/>
	</g>
	<g transform="matrix(1 0 0 1 305.646 1933)">
		<path d="M15,5.7c7,0,12.7-5.8,12.7-12.7c0-7-5.8-12.7-12.7-12.7C8-19.8,2.3-14,2.3-7.1C2.3-0.1,8,5.7,15,5.7z M15,3.8
			C8.9,3.8,4.1-1,4.1-7S8.9-17.9,15-17.9c6,0,10.9,4.9,10.9,10.9S21,3.8,15,3.8z M9.2-7.1c0,0.5,0.4,0.9,0.9,0.9H14v4
			c0,0.5,0.4,0.9,0.9,0.9s0.9-0.4,0.9-0.9v-4h4c0.5,0,0.9-0.4,0.9-0.9S20.3-8,19.8-8h-4v-3.9c0-0.5-0.4-0.9-0.9-0.9S14-12.4,14-11.9
			V-8h-3.9C9.6-8,9.2-7.6,9.2-7.1z"/>
	</g>
	<text transform="matrix(1 0 0 1 263 1953)" class="st2 st3">Design Variations</text>
	<text transform="matrix(1 0 0 1 263 1971)" class="st4 st3">Symbols are supported in up to nine weights and three scales.</text>
	<text transform="matrix(1 0 0 1 263 1989)" class="st4 st3">For optimal layout with text and other symbols, vertically align</text>
	<text transform="matrix(1 0 0 1 263 2007)" class="st4 st3">symbols with the adjacent text.</text>
	<line class="st5" x1="776" y1="1919" x2="776" y2="1933"/>
	<g transform="matrix(1 0 0 1 776 1933)">
		<path d="M3.3,0.2c0.5,0,0.8-0.2,1-0.7L5.5-4h5.8l1.3,3.4C12.7,0,13,0.2,13.5,0.2s0.9-0.3,0.9-0.8c0-0.2,0-0.3-0.1-0.5L9.7-13.4
			C9.4-14,9-14.3,8.4-14.3s-1,0.3-1.2,0.9L2.6-1.2C2.5-1,2.5-0.8,2.5-0.6C2.5-0.1,2.8,0.2,3.3,0.2z M6-5.5l2.4-6.6l0,0l2.4,6.6
			C10.8-5.5,6-5.5,6-5.5z"/>
	</g>
	<line class="st5" x1="793.2" y1="1919" x2="793.2" y2="1933"/>
	<text transform="matrix(1 0 0 1 776 1953)" class="st2 st3">Margins</text>
	<text transform="matrix(1 0 0 1 776 1971)" class="st4 st3">Leading and trailing margins on the left and right side of each symbol</text>
	<text transform="matrix(1 0 0 1 776 1989)" class="st4 st3">can be adjusted by modifying the x-location of the margin guidelines.</text>
	<text transform="matrix(1 0 0 1 776 2007)" class="st4 st3">Modifications are automatically applied proportionally to all</text>
	<text transform="matrix(1 0 0 1 776 2025)" class="st4 st3">scales and weights.</text>
	<g transform="matrix(1 0 0 1 1289 1933)">
		<path d="M2.8,1.9l1.7,1.7c0.9,0.9,1.8,0.8,2.8-0.2L18-8.4l-1-1L6.4,2.3C6,2.7,5.7,2.8,5.2,2.3L4.1,1.1C3.6,0.7,3.7,0.3,4.1,0
			l11.5-10.8l-1-1L3-0.9C2.1,0,2,1,2.8,1.9z M9.3-16.3c-0.4,0.4-0.4,1-0.2,1.4s0.7,0.6,1.3,0.4c1.5-0.3,3-0.4,4.4,0.5l-0.6,1.5
			c-0.3,0.8-0.2,1.4,0.4,2l2.3,2.3c0.5,0.5,0.9,0.5,1.5,0.4l1-0.2l0.7,0.7v0.6c0,0.5,0.1,0.9,0.6,1.4l0.8,0.7c0.5,0.5,1.1,0.5,1.6,0
			L26-7.5C26.5-8,26.4-8.6,26-9l-1-0.9c-0.5-0.5-0.9-0.6-1.3-0.6h-0.6l-0.6-0.6l0.2-1.1c0.1-0.6,0-1-0.6-1.6L19.9-16
			C16.6-19.3,12.1-19.2,9.3-16.3z M10.8-16c2.4-1.8,5.7-1.5,7.9,0.8l2.4,2.4c0.2,0.2,0.3,0.4,0.2,0.8L21-10.5L22.5-9l1-0.1
			c0.3,0,0.3,0,0.5,0.2l0.6,0.6l-2.4,2.4l-0.6-0.6c-0.2-0.2-0.2-0.3-0.2-0.5l0.1-1L20-9.5l-1.5,0.3c-0.3,0.1-0.5,0-0.7-0.2l-2-2
			c-0.3-0.2-0.3-0.4-0.1-0.8l0.9-2.1C15-15.8,13-16.4,11-15.8C10.7-15.7,10.6-15.9,10.8-16z"/>
	</g>
	<text transform="matrix(1 0 0 1 1289 1953)" class="st2 st3">Exporting</text>
	<text transform="matrix(1 0 0 1 1289 1971)" class="st4 st3">Symbols should be outlined when exporting to ensure the</text>
	<text transform="matrix(1 0 0 1 1289 1989)" class="st4 st3">design is preserved when submitting to Xcode.</text>
	<text id="template-version" transform="matrix(1 0 0 1 2952.4204 1933)" class="st4 st3">Template v.4.0</text>
	<text transform="matrix(1 0 0 1 2865.4575 1951)" class="st4 st3">Requires Xcode 14 or greater</text>
	<text id="descriptive-name" transform="matrix(1 0 0 1 2871.9634 1969)" class="st4 st3">Generated from fp.owncloud</text>
	<text transform="matrix(1 0 0 1 2912.4175 1987)" class="st4 st3">Typeset at 100 points</text>
	<text transform="matrix(1 0 0 1 263 726)" class="st4 st3">Small</text>
	<text transform="matrix(1 0 0 1 263 1156)" class="st4 st3">Medium</text>
	<text transform="matrix(1 0 0 1 263 1586)" class="st4 st3">Large</text>
</g>
<g id="Guides">
	<g id="H-reference" transform="matrix(1 0 0 1 339 696)">
		<path class="st6" d="M1,0h2.6l25.7-67.1H30v-3.3h-1.9L1,0z M11.7-24.5H47l-0.8-2.2H12.4L11.7-24.5z M55.1,0h2.6L30.6-70.5h-1.2
			v3.3L55.1,0z"/>
	</g>
	<line id="Baseline-S" class="st7" x1="263" y1="696" x2="3036" y2="696"/>
	<line id="Capline-S" class="st7" x1="263" y1="625.5" x2="3036" y2="625.5"/>
	<g id="H-reference_1_" transform="matrix(1 0 0 1 339 1126)">
		<path class="st6" d="M1,0h2.6l25.7-67.1H30v-3.3h-1.9L1,0z M11.7-24.5H47l-0.8-2.2H12.4L11.7-24.5z M55.1,0h2.6L30.6-70.5h-1.2
			v3.3L55.1,0z"/>
	</g>
	<line id="Baseline-M" class="st7" x1="263" y1="1126" x2="3036" y2="1126"/>
	<line id="Capline-M" class="st7" x1="263" y1="1055.5" x2="3036" y2="1055.5"/>
	<g id="H-reference_2_" transform="matrix(1 0 0 1 339 1556)">
		<path class="st6" d="M1,0h2.6l25.7-67.1H30v-3.3h-1.9L1,0z M11.7-24.5H47l-0.8-2.2H12.4L11.7-24.5z M55.1,0h2.6L30.6-70.5h-1.2
			v3.3L55.1,0z"/>
	</g>
	<line id="Baseline-L" class="st7" x1="263" y1="1556" x2="3036" y2="1556"/>
	<line id="Capline-L" class="st7" x1="263" y1="1485.5" x2="3036" y2="1485.5"/>
	<line id="left-margin-Regular-M" class="st5" x1="1391.3" y1="1030.8" x2="1391.3" y2="1150.1"/>
	<line id="right-margin-Regular-M" class="st5" x1="1508.4" y1="1030.8" x2="1508.4" y2="1150.1"/>
</g>
<g id="Symbols">
	<g id="Black-L" transform="matrix(1 0 0 1 2854.19 1556)">
		<path d="M8.4,10.3C-6.2,10.3-18-1.5-18-16c0-14.8,11.8-26.8,26.4-26.8c1.7,0,3.7,0,5.7,0.7c4,1.3,6.1,5.6,4.8,9.6
			c-1.3,3.8-5.3,6-9.2,4.9c-0.3,0-0.9,0-1.4,0C2.2-27.6-2.8-22.4-2.8-16c0,6.3,4.9,11.2,11.2,11.2c3,0,5.6-1,7.5-2.9
			c3-3,7.8-3,10.7,0s3,7.8,0,10.7C21.8,7.8,15.5,10.3,8.4,10.3z M61.6,10.3c-19,0-34.5-15.5-34.5-34.5s15.5-34.5,34.5-34.5
			s34.5,15.5,34.5,34.5S80.7,10.3,61.6,10.3z M61.6-43.5c-10.7,0-19.3,8.7-19.3,19.3S51-4.9,61.6-4.9S81-13.5,81-24.2
			S72.3-43.5,61.6-43.5z M21.5-4.7c-1.2,0-2.5-0.3-3.6-0.9C9.2-10.4,3.7-19.9,3.7-30c0-2.4,0.4-4.7,0.7-6.5c0-0.2,0.1-0.3,0.1-0.5
			c2.1-8.1,7.5-14.8,14.8-18.3c0.1-0.1,0.3-0.1,0.5-0.2c3-1.2,7.1-2.6,12.1-2.6c1.7,0,3.3,0,5.5,0.4c4.1,0.8,6.9,4.7,6.1,8.8
			c-0.8,4.1-4.7,6.9-8.8,6.1C33.8-43,33.3-43,31.8-43c-1.9,0-3.6,0.4-6.1,1.4c-3.2,1.6-5.5,4.5-6.5,8.1c-0.2,1.1-0.4,2.3-0.4,3.5
			c0,4.5,2.5,9,6.3,11c3.7,2,5,6.6,3,10.3C26.8-6.2,24.2-4.7,21.5-4.7z M22.5-43.6c-1.2,0-2.5-0.5-3.4-1.4
			c-2.9-2.9-4.5-6.6-4.5-10.6c0-8.1,6.6-14.6,14.6-14.6c4.2,0,8.2,1.9,11.1,5.3c1.7,2,1.5,5.1-0.5,6.8c-2,1.7-5.1,1.5-6.8-0.5
			c-0.6-0.7-1.9-1.9-3.8-1.9c-2.7,0-5,2.3-5,5c0,1.5,0.5,2.7,1.6,3.8c1.9,1.9,1.9,4.9,0,6.8C24.9-44.1,23.7-43.6,22.5-43.6z
			 M40.7-33.4c-1.9,0-3.9-0.7-5.4-2.2c-2.8-2.8-4.9-6.4-6.2-10.5c-0.5-1.3-0.7-2.5-0.7-3.4l0-0.1c-0.3-1.3-0.5-2.8-0.5-4.8
			c0-3.5,0.7-7,2.1-10.3c4.4-10.5,14.1-17,25.2-17c6.7,0,12.8,2.4,17.6,6.4c4.8,4,8.2,9.7,9.3,16.2c0.4,1.8,0.4,3.5,0.4,4.7
			c0,2.7-0.4,5.5-1.1,8.2c-1.1,4.1-5.2,6.5-9.3,5.4c-4.1-1.1-6.5-5.2-5.4-9.3c0.4-1.4,0.6-2.8,0.6-4.3c0-0.3,0-0.8,0-1.1
			c-0.1-0.3-0.1-0.5-0.2-0.8c-1-6-6-10.3-12-10.3c-5,0-9.2,2.9-11.2,7.7c-0.6,1.5-0.9,3-0.9,4.5c0,0.5,0.1,0.9,0.3,1.9l0.2,0.9
			c0,0.3,0.1,0.5,0.1,0.8c0,0,0,0,0,0c0.5,1.7,1.4,3.4,2.5,4.4c3,3,3,7.8,0,10.7C44.6-34.2,42.6-33.4,40.7-33.4z M96.7-33.7
			c-2.7,0-4.8-2.2-4.8-4.8v-2.1c0-6.9-5.6-12.6-12.6-12.6c-1.4,0-2.6,0.2-4,0.5l-1.7-9.5c1.6-0.3,3.5-0.6,5.7-0.6
			c12.3,0,22.2,10,22.2,22.2v2.1C101.5-35.9,99.4-33.7,96.7-33.7z M98.1,11.1C88.8,11.1,80,6.6,74.5-1c-2.4-3.4-1.7-8.1,1.7-10.6
			c3.4-2.4,8.1-1.7,10.6,1.7C89.5-6.2,93.7-4,98.1-4c4.8,0,8.1-2.4,10.1-4.5c2.3-2.5,3.6-5.8,3.6-9.2v-1
			c-0.4-7.1-6.4-12.6-13.7-12.6h-1.5c-2.3,0.2-4.3,0.9-6.2,2.3c-3.5,2.4-8.2,1.5-10.5-2c-2.4-3.5-1.5-8.2,2-10.5
			c4.3-2.9,8.9-4.5,13.9-4.9c0.2,0,0.4,0,0.5,0h1.8c15.4,0,28.1,12,28.8,27.2c0,0.1,0,0.3,0,0.4v1.2c0,7.2-2.7,14.2-7.7,19.5
			C113.6,7.8,106.1,11.1,98.1,11.1z M122.2,6c-5.3,0-10.2-2.8-12.9-7.2c-1.4-2.3-0.6-5.3,1.7-6.6c2.3-1.4,5.3-0.6,6.6,1.7
			c0.9,1.5,2.6,2.5,4.5,2.5c3,0,5.7-2.6,5.7-5.7c0-3-2.6-5.7-5.7-5.7c-0.2,0-0.9,0.1-1.5,0.3c-2.5,0.8-5.3-0.5-6.1-3.1
			c-0.8-2.5,0.5-5.3,3.1-6.1c0.6-0.2,2.6-0.8,4.6-0.8c8.3,0,15.3,7,15.3,15.3C137.6-1,130.5,6,122.2,6z M48.9-6.3
			c-0.5,9.4-8.6,17-18.1,17c-6.7,0-12.7-3.6-15.9-9.6c-1.4-2.6-2.2-5.6-2.2-8.7c0-2.1,0.2-5.3,2.2-8.6c3.1-5.9,9.2-9.5,16.1-9.5
			c3,0,6.6,1.8,6.9,1.9c3.1,1.4,4.8,4.7,4.4,7.9L37-11.1l-2.8,1.8c-0.8-0.1-3.3-1-3.6-1.2c-0.8,0.1-1.7,0.4-2.2,1.4
			c-0.1,0.2-0.2,0.5-0.4,0.7c0,0-0.1,0.2-0.1,0.8c0,0.6,0.1,1.1,0.3,1.5c0.4,0.8,1.2,1.7,2.6,1.7c1.4,0,2.8-1.3,2.9-2.6
			c0-0.4,3.9-3.7,3.9-3.7l4.3-3.4C46.1-13.9,49.2-10.4,48.9-6.3z"/>
	</g>
	<g id="Heavy-L" transform="matrix(1 0 0 1 2558.42 1556)">
		<path d="M8,9C-6,9-17.4-2.3-17.4-16.3C-17.4-30.5-6-42,8-42c1.7,0,3.6,0,5.4,0.6c3.6,1.2,5.5,5,4.3,8.6c-1.2,3.5-4.8,5.4-8.3,4.4
			c-0.3,0-1,0-1.5,0C1.5-28.4-3.7-23-3.7-16.3C-3.7-9.7,1.4-4.6,8-4.6c3.2,0,5.8-1,7.9-3c2.7-2.7,7-2.7,9.6,0c2.7,2.7,2.7,7,0,9.6
			C20.9,6.6,14.8,9,8,9z M60.4,9C42,9,27-5.9,27-24.3c0-18.4,15-33.4,33.4-33.4s33.4,15,33.4,33.4C93.8-5.9,78.8,9,60.4,9z
			 M60.4-44.1c-10.9,0-19.7,8.9-19.7,19.7S49.5-4.6,60.4-4.6s19.7-8.9,19.7-19.7S71.3-44.1,60.4-44.1z M20.8-5.8
			c-1.1,0-2.2-0.3-3.3-0.8C9.2-11.2,3.9-20.3,3.9-30.1c0-2.4,0.3-4.6,0.7-6.3c0-0.2,0.1-0.3,0.1-0.5c2-7.8,7.2-14.2,14.2-17.6
			c0.1-0.1,0.3-0.1,0.4-0.2c2.9-1.2,6.9-2.5,11.7-2.5c1.6,0,3.2,0,5.3,0.4c3.7,0.7,6.2,4.2,5.5,7.9c-0.7,3.7-4.2,6.2-7.9,5.5
			c-0.9-0.2-1.5-0.2-2.9-0.2c-1.9,0-3.8,0.4-6.3,1.4c-3.3,1.7-5.7,4.7-6.8,8.5c-0.2,1.1-0.4,2.4-0.4,3.6c0,4.7,2.6,9.3,6.5,11.5
			c3.3,1.8,4.5,5.9,2.7,9.2C25.5-7.1,23.2-5.8,20.8-5.8z M21.9-43.9c-1.1,0-2.3-0.4-3.1-1.3c-2.8-2.8-4.3-6.3-4.3-10.2
			c0-7.8,6.3-14.1,14.1-14.1c4,0,7.9,1.8,10.7,5.1c1.6,1.8,1.4,4.6-0.4,6.2c-1.8,1.6-4.6,1.4-6.2-0.4c-0.7-0.8-2-2-4-2
			c-2.9,0-5.2,2.4-5.2,5.2c0,1.5,0.5,2.8,1.7,4c1.7,1.7,1.7,4.5,0,6.3C24.1-44.3,23-43.9,21.9-43.9z M39.8-34.1
			c-1.7,0-3.5-0.7-4.8-2c-2.7-2.7-4.7-6.2-5.9-10.1c-0.5-1.3-0.6-2.3-0.7-3.2l0-0.2c-0.2-1.3-0.5-2.7-0.5-4.6c0-3.4,0.7-6.7,2-10
			c4.3-10.1,13.6-16.3,24.3-16.3c5.6,0,10.9,1.8,15.2,4.8c5.5,3.9,9.4,9.9,10.7,17c0.4,1.6,0.4,3.3,0.4,4.5c0,2.6-0.4,5.3-1,7.9
			c-1,3.6-4.7,5.8-8.3,4.8c-3.6-1-5.8-4.7-4.8-8.3c0.4-1.5,0.6-2.9,0.6-4.4c0-0.3,0-0.9,0-1.2c-0.1-0.2-0.1-0.5-0.2-0.8
			c-1-6.2-6.2-10.7-12.5-10.7c-5.1,0-9.6,3.1-11.7,8c-0.6,1.6-1,3.1-1,4.7c0,0.6,0.1,1,0.3,2l0.2,0.9c0,0.2,0.1,0.5,0.1,0.8
			c0,0,0,0.1,0,0.1c0.5,1.9,1.5,3.5,2.6,4.7c2.7,2.7,2.7,7,0,9.6C43.3-34.8,41.6-34.1,39.8-34.1z M95-34.1c-2.4,0-4.4-2-4.4-4.4v-2
			c0-7-5.7-12.7-12.7-12.7c-1.4,0-2.6,0.2-4,0.5l-1.6-8.7c1.6-0.3,3.4-0.6,5.5-0.6c11.9,0,21.6,9.7,21.6,21.6v2
			C99.4-36.1,97.4-34.1,95-34.1z M96.5,9.9c-9,0-17.4-4.4-22.7-11.7c-2.2-3.1-1.5-7.3,1.6-9.5c3.1-2.2,7.3-1.5,9.5,1.6
			c2.7,3.8,7.1,6,11.6,6c5,0,8.4-2.5,10.4-4.7c2.4-2.6,3.7-6,3.7-9.5v-1c-0.4-7.4-6.6-13.1-14.2-13.1H95c-2.4,0.2-4.5,1-6.5,2.4
			c-3.1,2.1-7.3,1.3-9.5-1.8c-2.1-3.1-1.3-7.3,1.8-9.5c4.1-2.8,8.5-4.4,13.4-4.7c0.2,0,0.3,0,0.5,0h1.8c14.8,0,27,11.5,27.8,26.2
			c0,0.1,0,0.2,0,0.3v1.2c0,7-2.6,13.7-7.4,18.8C111.5,6.7,104.2,9.9,96.5,9.9z M120.3,5.2c-5.1,0-9.9-2.7-12.4-6.9
			c-1.2-2.1-0.5-4.8,1.6-6.1c2.1-1.2,4.8-0.5,6.1,1.6c1,1.6,2.7,2.6,4.8,2.6c3.2,0,5.9-2.8,5.9-5.9s-2.8-5.9-5.9-5.9
			c-0.3,0-1,0.1-1.6,0.3c-2.3,0.8-4.8-0.5-5.6-2.8c-0.8-2.3,0.5-4.8,2.8-5.6c0.5-0.2,2.5-0.8,4.4-0.8c8,0,14.8,6.8,14.8,14.8
			C135.1-1.6,128.3,5.2,120.3,5.2z M47.2-6.7C46.7,2.2,39,9.4,30,9.4c-6.4,0-12-3.4-15.1-9.1c-1.3-2.5-2-5.3-2-8.3
			c0-2,0.2-5,2.1-8.1c2.9-5.6,8.8-9,15.3-9c2.8,0,4.4,0.8,5.9,1.5c0.2,0.1,0.4,0.2,0.6,0.3c2.7,1.2,4.2,4.1,3.9,6.9l-7.3,6.1
			c-0.8-0.1-3.1-1-3.5-1.2c-0.9,0.1-2.3,0.4-3,1.8c-0.1,0.2-0.2,0.4-0.3,0.6C26.6-9,26.5-8.9,26.5-8c0,0.7,0.1,1.3,0.4,1.8
			c0.4,0.8,1.4,2,3.1,2c1.7,0,3.5-1.6,3.6-3.2c0.1-1.1,6.4-6.6,6.4-6.4c0.3,0,0.5,0,0.8,0C44.5-13.6,47.4-10.4,47.2-6.7z"/>
	</g>
	<g id="Bold-L" transform="matrix(1 0 0 1 2262.89 1556)">
		<path d="M7.3,7.8C-6.1,7.8-17-3.2-17-16.6c0-13.6,10.9-24.7,24.3-24.7c1.6,0,3.4,0,5.1,0.6c3.2,1.1,4.9,4.5,3.8,7.6
			c-1,3.1-4.3,4.8-7.4,3.9c-0.3,0-1.1,0-1.6,0c-6.7,0-12.2,5.7-12.2,12.6c0,6.9,5.4,12.2,12.2,12.2c3.3,0,6.1-1.1,8.2-3.2
			c2.4-2.4,6.2-2.4,8.5,0s2.4,6.2,0,8.5C19.7,5.4,13.9,7.8,7.3,7.8z M59.2,7.8C41.4,7.8,27-6.7,27-24.5s14.5-32.2,32.2-32.2
			s32.2,14.5,32.2,32.2S77,7.8,59.2,7.8z M59.2-44.6c-11.1,0-20.2,9-20.2,20.2c0,11.1,9,20.2,20.2,20.2s20.2-9,20.2-20.2
			C79.3-35.6,70.3-44.6,59.2-44.6z M20.1-6.9c-1,0-2-0.2-2.9-0.7C9.3-12,4.1-20.8,4.1-30.1c0-2.3,0.3-4.4,0.6-6.1
			c0-0.1,0.1-0.3,0.1-0.4c1.9-7.5,6.9-13.7,13.7-17c0.1-0.1,0.2-0.1,0.4-0.2c2.8-1.1,6.6-2.5,11.3-2.5c1.6,0,3.1,0,5.1,0.4
			c3.3,0.6,5.5,3.7,4.9,7c-0.6,3.3-3.7,5.5-7,4.9c-0.9-0.2-1.5-0.2-2.9-0.2c-2,0-3.9,0.4-6.5,1.5c-3.5,1.8-6,4.9-7.1,8.8
			c-0.2,1.1-0.4,2.4-0.4,3.7c0,4.9,2.7,9.7,6.8,11.9c2.9,1.6,4,5.3,2.4,8.2C24.3-8,22.2-6.9,20.1-6.9z M21-44.1
			c-1,0-2.1-0.4-2.8-1.2c-2.7-2.7-4.1-6.1-4.1-9.8c0-7.5,6.1-13.6,13.6-13.6c3.9,0,7.6,1.8,10.3,4.9c1.5,1.7,1.3,4.2-0.4,5.7
			c-1.7,1.5-4.2,1.3-5.7-0.4c-0.7-0.8-2.1-2.1-4.2-2.1c-3,0-5.5,2.5-5.5,5.5c0,1.6,0.6,2.9,1.8,4.1c1.6,1.6,1.6,4.1,0,5.7
			C23.1-44.5,22.1-44.1,21-44.1z M38.8-34.8c-1.5,0-3.1-0.6-4.3-1.8c-2.6-2.6-4.6-5.9-5.7-9.7c-0.5-1.2-0.6-2.2-0.6-3l0-0.2
			c-0.2-1.2-0.5-2.6-0.5-4.4c0-3.2,0.7-6.4,1.9-9.6c4.1-9.7,13-15.7,23.3-15.7c12.3,0,22.7,8.8,24.8,21c0.4,1.6,0.4,3.1,0.4,4.3
			c0,2.5-0.3,5.1-1,7.6c-0.9,3.2-4.2,5.1-7.4,4.3c-3.2-0.9-5.1-4.2-4.3-7.4c0.4-1.5,0.6-3,0.6-4.5c0-0.4,0-1,0-1.3
			c-0.1-0.2-0.1-0.5-0.2-0.7c-0.7-4.2-3.2-7.6-6.7-9.5c-1.9-1-4-1.6-6.3-1.6c-5.3,0-10,3.2-12.2,8.3c-0.7,1.6-1,3.2-1,4.9
			c0,0.6,0.1,1.1,0.3,2.1l0.2,0.8c0,0.2,0.1,0.5,0.1,0.7c0,0.1,0,0.1,0,0.2c0.6,1.9,1.5,3.7,2.8,4.9c2.4,2.4,2.4,6.2,0,8.5
			C41.9-35.4,40.3-34.8,38.8-34.8z M93.3-34.4c-2.2,0-4-1.8-4-4v-2c0-7.1-5.8-12.9-12.9-12.9c-1.4,0-2.6,0.2-4,0.5L71-60.8
			c1.6-0.3,3.3-0.6,5.4-0.6c11.6,0,21,9.4,21,21v2C97.3-36.2,95.5-34.4,93.3-34.4z M94.7,8.6C86,8.6,77.9,4.4,72.8-2.7
			c-1.9-2.7-1.3-6.5,1.4-8.4s6.5-1.3,8.4,1.4c2.8,3.9,7.3,6.2,12,6.2c5.2,0,8.7-2.6,10.8-4.8c2.5-2.7,3.9-6.2,3.9-9.8v-1
			c-0.5-7.6-6.9-13.6-14.6-13.6h-1.5c-2.5,0.2-4.6,1-6.8,2.4c-2.8,1.9-6.5,1.2-8.4-1.6c-1.9-2.8-1.2-6.5,1.6-8.4
			c4-2.7,8.2-4.2,12.9-4.5c0.1,0,0.3,0,0.4,0h1.7c14.3,0,26,11.1,26.7,25.2c0,0.1,0,0.2,0,0.3v1.2c0,6.7-2.5,13.1-7.1,18.1
			C109,5.5,102.1,8.6,94.7,8.6z M118.2,4.3c-4.9,0-9.5-2.6-11.9-6.7c-1.1-1.9-0.5-4.4,1.4-5.5c1.9-1.1,4.4-0.5,5.5,1.4
			c1,1.7,2.9,2.7,5,2.7c3.3,0,6.2-2.9,6.2-6.2c0-3.3-2.9-6.2-6.2-6.2c-0.3,0-1.1,0.1-1.7,0.3c-2.1,0.7-4.4-0.4-5.1-2.6
			c-0.7-2.1,0.4-4.4,2.6-5.1c0.5-0.2,2.4-0.7,4.2-0.7c7.7,0,14.2,6.5,14.2,14.2C132.4-2.3,125.9,4.3,118.2,4.3z M45.5-7.1
			C45,1.3,37.8,8.2,29.2,8.2c-6,0-11.4-3.2-14.3-8.7c-1.3-2.3-1.9-5-1.9-7.9c0-1.9,0.2-4.7,2-7.7c2.8-5.4,8.2-8.6,14.5-8.6
			c2.6,0,5.9,1.6,6.1,1.8c3,1.4,4.4,5,3,8c-0.1,0.3-4.1,3.3-4.1,3.3c-1.3,0.3-2.6,0.2-3.9-0.3c-0.5-0.2-0.9-0.4-1.3-0.6c0,0,0,0,0,0
			c-1.1,0-2.8,0.4-3.7,2.2c-0.1,0.2-0.2,0.4-0.3,0.5c-0.1,0.2-0.3,0.4-0.3,1.5c0,0.8,0.2,1.5,0.5,2.1c0.5,0.9,1.6,2.4,3.7,2.4
			c2.1,0,4.1-1.8,4.2-3.8c0.1-2.1,3.9-5.9,6.3-5.7C43.1-13.2,45.7-10.4,45.5-7.1z"/>
	</g>
	<g id="Semibold-L" transform="matrix(1 0 0 1 1966.99 1556)">
		<path d="M7,6.5C-5.9,6.5-16.3-4-16.3-16.8c0-13.1,10.5-23.7,23.3-23.7c1.5,0,3.2,0,4.9,0.5c2.8,0.9,4.3,3.9,3.3,6.7
			c-0.9,2.7-3.8,4.2-6.5,3.4c-0.3,0-1.1,0-1.7,0c-7,0-12.7,5.9-12.7,13.1C-5.7-9.7-0.2-4.1,7-4.1c3.5,0,6.3-1.1,8.6-3.3
			c2.1-2.1,5.4-2.1,7.5,0C25.1-5.4,25.1-2,23,0C18.8,4.2,13.3,6.5,7,6.5z M58,6.5c-17.2,0-31.1-14-31.1-31.1s14-31.1,31.1-31.1
			s31.1,14,31.1,31.1S75.1,6.5,58,6.5z M58-45.2c-11.3,0-20.5,9.2-20.5,20.5S46.6-4.1,58-4.1s20.5-9.2,20.5-20.5S69.3-45.2,58-45.2z
			 M28.4,6.9c-5.7,0-10.7-3.1-13.5-8.2c-1.2-2.2-1.8-4.8-1.8-7.4c0-1.8,0.2-4.5,1.9-7.2c2.7-5.1,7.8-8.1,13.8-8.1
			c2.4,0,3.8,0.6,5.1,1.3c0.2,0.1,0.4,0.2,0.7,0.3c2.7,1.2,3.8,4.3,2.6,7c-1.2,2.7-4.4,3.8-7,2.6c-0.5-0.2-0.9-0.4-1.3-0.6
			c-0.1,0-0.1-0.1-0.2-0.1c-2,0-3.6,0.9-4.4,2.5c-0.1,0.2-0.2,0.3-0.3,0.5c-0.2,0.3-0.4,0.7-0.4,1.8c0,0.9,0.2,1.7,0.5,2.4
			c0.5,1,1.8,2.7,4.2,2.7c2.4,0,4.7-2.1,4.8-4.4c0.2-2.9,2.6-5.1,5.6-5c2.9,0.1,5.2,2.6,5,5.6C43.4,0.4,36.5,6.9,28.4,6.9z M19.4-8
			c-0.9,0-1.7-0.2-2.5-0.6C9.3-12.8,4.3-21.2,4.3-30.2c0-2.2,0.3-4.3,0.6-5.8c0-0.1,0-0.2,0.1-0.4c1.8-7.2,6.6-13.1,13.1-16.3
			c0.1-0.1,0.2-0.1,0.3-0.1c2.7-1.1,6.4-2.4,10.9-2.4c1.5,0,3,0,4.9,0.4c2.9,0.5,4.8,3.3,4.3,6.2c-0.5,2.9-3.3,4.8-6.2,4.3
			c-1-0.2-1.7-0.2-3-0.2c-2.1,0-4,0.4-6.7,1.5C19-41.3,16.4-38,15.3-34c-0.2,1.1-0.4,2.5-0.4,3.8c0,5.1,2.8,10,7,12.3
			c2.6,1.4,3.5,4.6,2.1,7.2C23.1-9,21.3-8,19.4-8z M20.5-44.3c-0.9,0-1.9-0.4-2.6-1.1c-2.6-2.6-4-5.9-4-9.5c0-7.2,5.9-13,13-13
			c3.7,0,7.3,1.7,9.9,4.7c1.3,1.5,1.2,3.8-0.4,5.1c-1.5,1.3-3.8,1.2-5.1-0.4c-0.7-0.8-2.2-2.2-4.4-2.2c-3.2,0-5.8,2.6-5.8,5.8
			c0,1.7,0.6,3.1,1.8,4.3c1.4,1.4,1.4,3.7,0,5.1C22.3-44.7,21.4-44.3,20.5-44.3z M38-35.5c-1.4,0-2.7-0.5-3.7-1.6
			c-2.5-2.5-4.4-5.7-5.5-9.3c-0.5-1.1-0.6-2-0.6-2.8l-0.1-0.3c-0.2-1.2-0.5-2.5-0.5-4.2c0-3.1,0.6-6.2,1.9-9.2
			c3.9-9.3,12.5-15.1,22.4-15.1c5.1,0,9.9,1.6,13.8,4.3c5.2,3.6,8.9,9.2,10,15.8c0.4,1.5,0.4,3,0.4,4.1c0,2.4-0.3,4.9-1,7.3
			c-0.8,2.8-3.7,4.5-6.5,3.8c-2.8-0.8-4.5-3.7-3.8-6.5c0.4-1.5,0.6-3.1,0.6-4.6c0-0.4,0-1.1,0-1.4c-0.1-0.2-0.1-0.5-0.2-0.7
			c-1.1-6.7-6.7-11.6-13.4-11.6c-5.5,0-10.4,3.3-12.6,8.6c-0.7,1.7-1,3.4-1,5.1c0,0.7,0.1,1.2,0.3,2.2l0.2,0.8
			c0,0.2,0.1,0.5,0.1,0.7c0,0.1,0,0.1,0.1,0.2c0.6,2,1.6,3.8,2.9,5.1c2.1,2.1,2.1,5.4,0,7.5C40.7-36,39.3-35.5,38-35.5z M91.6-34.8
			c-2,0-3.6-1.6-3.6-3.6v-2c0-7.2-5.9-13-13-13c-1.4,0-2.6,0.2-4,0.5l-1.3-7.2c1.5-0.3,3.2-0.6,5.3-0.6c11.2,0,20.3,9.1,20.3,20.3v2
			C95.2-36.4,93.6-34.8,91.6-34.8z M93,7.3c-8.3,0-16.1-4-21-10.8c-1.7-2.4-1.2-5.7,1.2-7.4c2.4-1.7,5.7-1.2,7.4,1.2
			c2.9,4,7.5,6.4,12.4,6.4c5.3,0,9-2.7,11.1-4.9c2.6-2.8,4-6.4,4-10.2v-1c-0.5-7.9-7.1-14-15.1-14h-1.5c-2.6,0.2-4.8,1-7,2.5
			c-2.4,1.6-5.7,1-7.4-1.4c-1.6-2.4-1-5.7,1.4-7.4c3.8-2.6,7.9-4,12.4-4.3c0.1,0,0.3,0,0.4,0H93c13.7,0,25,10.6,25.7,24.2
			c0,0.1,0,0.2,0,0.3v1.2c0,6.5-2.4,12.6-6.8,17.4C106.9,4.3,100.2,7.3,93,7.3z M116.2,3.4c-4.7,0-9.1-2.5-11.5-6.4
			c-1-1.7-0.4-4,1.3-5c1.7-1,4-0.4,5,1.3c1.1,1.8,3,2.8,5.2,2.8c3.4,0,6.4-3,6.4-6.4c0-3.4-3-6.4-6.4-6.4c-0.4,0-1.2,0.2-1.8,0.3
			c-1.9,0.6-4-0.4-4.6-2.3c-0.6-1.9,0.4-4,2.3-4.6c0.5-0.2,2.3-0.7,4.1-0.7c7.4,0,13.7,6.3,13.7,13.7S123.6,3.4,116.2,3.4z"/>
	</g>
	<g id="Medium-L" transform="matrix(1 0 0 1 1670.9 1556)">
		<path d="M7,5.2c-12.3,0-22.3-10-22.3-22.3c0-12.5,10-22.7,22.3-22.7c1.5,0,3.1,0,4.6,0.5c2.4,0.8,3.7,3.4,2.9,5.8
			c-0.8,2.4-3.3,3.6-5.7,2.9c-0.3-0.1-1.2-0.1-1.8-0.1c-7.3,0-13.2,6.1-13.2,13.6C-6.2-9.7-0.4-3.9,7-3.9c3.6,0,6.6-1.2,8.9-3.5
			c1.8-1.8,4.7-1.8,6.5,0c1.8,1.8,1.8,4.7,0,6.5C18.3,3.1,13,5.2,7,5.2z M57.3,5.2c-16.5,0-30-13.5-30-30c0-16.5,13.5-30,30-30
			s30,13.5,30,30C87.3-8.3,73.8,5.2,57.3,5.2z M57.3-45.7c-11.5,0-20.9,9.4-20.9,20.9S45.8-3.9,57.3-3.9s20.9-9.4,20.9-20.9
			S68.8-45.7,57.3-45.7z M28.2,5.6c-5.4,0-10.1-2.9-12.8-7.7c-1.1-2.1-1.7-4.5-1.7-7c0-1.7,0.2-4.2,1.8-6.8c2.5-4.8,7.3-7.7,13-7.7
			c2.2,0,3.5,0.6,4.7,1.2c0.2,0.1,0.4,0.2,0.7,0.3c2.3,1,3.3,3.8,2.3,6c-1,2.3-3.7,3.3-6,2.3c-0.5-0.2-0.8-0.4-1.2-0.6
			c-0.1-0.1-0.2-0.1-0.3-0.2c0,0-0.1,0-0.1,0c-2.2,0-4,1-4.9,2.8c-0.1,0.1-0.1,0.3-0.2,0.4c-0.3,0.5-0.5,1-0.5,2.1
			c0,1,0.2,1.9,0.6,2.6c0.5,0.9,1.9,3,4.7,3c2.7,0,5.2-2.3,5.4-4.9c0.1-2.5,9.2-2,9.1,0.5C42.3-0.5,35.8,5.6,28.2,5.6z M19.3-9
			c-0.7,0-1.5-0.2-2.2-0.6c-7.3-4-12-12.1-12-20.7c0-2.1,0.3-4.1,0.6-5.6c0-0.1,0-0.2,0.1-0.3c1.8-6.9,6.4-12.6,12.6-15.6
			c0.1,0,0.2-0.1,0.3-0.1c2.6-1.1,6.2-2.3,10.5-2.3c1.6,0,2.9,0,4.7,0.3c2.5,0.5,4.1,2.8,3.7,5.3c-0.5,2.5-2.8,4.1-5.3,3.7
			c-1-0.2-1.8-0.2-3.1-0.2c-2.1,0-4.2,0.5-6.9,1.6c-3.8,1.9-6.5,5.2-7.6,9.5c-0.2,1.1-0.4,2.5-0.4,3.8c0,5.2,2.9,10.3,7.3,12.7
			c2.2,1.2,3,4,1.8,6.2C22.5-9.9,21-9,19.3-9z M20.3-44.5c-0.8,0-1.7-0.3-2.3-1c-2.5-2.5-3.8-5.6-3.8-9.1c0-6.9,5.6-12.5,12.5-12.5
			c3.6,0,7,1.6,9.5,4.5c1.2,1.4,1,3.4-0.3,4.6c-1.4,1.2-3.4,1-4.6-0.3c-0.7-0.8-2.3-2.3-4.6-2.3c-3.3,0-6,2.7-6,6
			c0,1.7,0.6,3.2,1.9,4.5c1.3,1.3,1.3,3.3,0,4.6C21.9-44.8,21.1-44.5,20.3-44.5z M37.5-36.1c-1.2,0-2.3-0.4-3.2-1.3
			c-2.3-2.3-4.2-5.5-5.2-8.9c-0.4-1-0.5-1.9-0.5-2.6l-0.1-0.3c-0.2-1.2-0.5-2.4-0.5-4c0-3,0.6-5.9,1.8-8.8
			c3.8-8.9,12-14.4,21.4-14.4c11.4,0,20.9,8.1,22.8,19.3c0.4,1.4,0.4,2.8,0.4,3.9c0,2.3-0.3,4.7-0.9,7c-0.6,2.4-3.1,3.9-5.6,3.2
			c-2.4-0.6-3.9-3.1-3.2-5.6c0.4-1.6,0.6-3.1,0.6-4.7c0-0.4,0-1.3-0.1-1.5c-0.1-0.2-0.1-0.4-0.1-0.6c-0.5-3.4-2.2-6.3-4.6-8.5
			c-2.5-2.2-5.7-3.5-9.2-3.5c-5.7,0-10.7,3.4-13,8.8c-0.7,1.7-1.1,3.5-1.1,5.3c0,0.7,0.1,1.3,0.3,2.3l0.1,0.8c0,0.2,0.1,0.5,0.1,0.7
			c0,0.1,0.1,0.2,0.1,0.3c0.6,2.1,1.7,4,3,5.3c1.8,1.8,1.8,4.7,0,6.5C39.8-36.6,38.7-36.1,37.5-36.1z M90.4-35.1
			c-1.8,0-3.3-1.5-3.3-3.3v-2c0-7.3-5.9-13.2-13.2-13.2c-1.4,0-2.7,0.2-4,0.5l-1.2-6.4C70.3-59.7,72-60,74-60
			c10.9,0,19.7,8.8,19.7,19.7v2C93.7-36.6,92.2-35.1,90.4-35.1z M91.7,6C83.8,6,76.3,2.1,71.6-4.4c-1.5-2-1-4.9,1-6.4
			c2-1.5,4.9-1,6.4,1c3,4.1,7.7,6.6,12.7,6.6c4.4,0,8.3-1.8,11.4-5.1c2.7-2.9,4.1-6.6,4.1-10.4v-1.1c-0.5-8.1-7.3-14.5-15.5-14.5
			h-1.5c-2.7,0.2-5,1-7.3,2.6c-2.1,1.4-4.9,0.9-6.3-1.2c-1.4-2.1-0.9-4.9,1.2-6.3c3.7-2.5,7.6-3.9,11.9-4.2c0.1,0,0.2,0,0.3,0h1.7
			c13.2,0,24,10.2,24.6,23.2c0,0.1,0,0.2,0,0.2v1.2c0,6.2-2.3,12.1-6.6,16.7C105,3.1,98.6,6,91.7,6z M114.7,2.5
			c-4.6,0-8.8-2.4-11-6.2c-0.9-1.6-0.4-3.5,1.1-4.5c1.6-0.9,3.5-0.4,4.5,1.1c1.1,1.9,3.1,3,5.4,3c3.5,0,6.7-3.1,6.7-6.7
			s-3.1-6.7-6.7-6.7c-0.4,0-1.2,0.2-1.8,0.4c-1.7,0.6-3.6-0.4-4.1-2.1c-0.6-1.7,0.4-3.6,2.1-4.1c0.5-0.2,2.2-0.7,3.9-0.7
			c7.1,0,13.2,6,13.2,13.2S121.8,2.5,114.7,2.5z"/>
	</g>
	<g id="Regular-L" transform="matrix(1 0 0 1 1374.99 1556)">
		<path d="M21.5-2c1.5-1.5,1.5-3.9,0-5.4c-1.5-1.5-3.9-1.5-5.4,0C13.7-5,10.5-3.8,6.8-3.8c-7.5,0-13.6-6.1-13.6-13.6
			c0-7.7,6.1-14,13.6-14c0.6,0,1.6,0,1.9,0.1c2,0.6,4.2-0.4,4.8-2.4c0.7-2-0.4-4.2-2.4-4.9c-1.4-0.5-2.9-0.5-4.3-0.5
			c-11.8,0-21.3,9.7-21.3,21.7c0,11.8,9.6,21.3,21.3,21.3C12.6,3.9,17.6,1.9,21.5-2z M85.1-25c0-15.9-13-28.9-28.9-28.9
			S27.4-40.9,27.4-25c0,15.9,13,28.9,28.9,28.9S85.1-9,85.1-25z M77.4-25c0,11.7-9.5,21.2-21.2,21.2S35.1-13.3,35.1-25
			c0-11.7,9.5-21.2,21.2-21.2S77.4-36.6,77.4-25z M41.2-8.5c0.1-2.1-7.6-2.5-7.7-0.4c-0.1,2.9-2.9,5.5-5.9,5.5
			c-3.1,0-4.7-2.3-5.2-3.3c-0.4-0.8-0.7-1.8-0.7-2.9c0-1.3,0.2-1.9,0.6-2.4c0.1-0.1,0.1-0.2,0.2-0.3c1-2,3-3.1,5.4-3.1
			c0.2,0,0.3,0,0.3,0c0.2,0.1,0.3,0.1,0.5,0.2c0.3,0.2,0.7,0.4,1.1,0.6c1.9,0.9,4.2,0,5.1-1.9c0.9-1.9,0-4.2-1.9-5.1
			c-0.3-0.1-0.5-0.3-0.7-0.4c-1.2-0.6-2.3-1.1-4.3-1.1c-5.3,0-9.9,2.7-12.2,7.2c-1.5,2.4-1.7,4.7-1.7,6.4c0,2.4,0.6,4.6,1.6,6.6
			c2.5,4.6,7,7.3,12,7.3C34.8,4.3,40.9-1.4,41.2-8.5z M22.3-12.1c1-1.9,0.3-4.2-1.5-5.2c-4.5-2.4-7.5-7.7-7.5-13.1
			c0-1.3,0.2-2.8,0.4-3.9c1.2-4.4,3.9-7.8,7.8-9.8c2.7-1.1,4.9-1.6,7-1.6c1.3,0,2.1,0,3.2,0.2c2.1,0.4,4.1-1,4.5-3.1
			c0.4-2.1-1-4.1-3.1-4.5c-1.8-0.3-3-0.3-4.5-0.3c-4.1,0-7.5,1.2-10.1,2.2c-0.1,0-0.2,0.1-0.2,0.1c-6,2.9-10.4,8.4-12.1,15
			c0,0.1,0,0.2-0.1,0.3c-0.3,1.5-0.6,3.4-0.6,5.4c0,8.2,4.5,16,11.5,19.8c0.6,0.3,1.2,0.5,1.8,0.5C20.2-10.1,21.6-10.8,22.3-12.1z
			 M22-45.5c1.1-1.1,1.1-3,0-4.1c-1.3-1.3-2-2.8-2-4.6c0-3.4,2.8-6.2,6.2-6.2c2.4,0,4,1.5,4.7,2.3c1,1.2,2.9,1.3,4.1,0.3
			c1.2-1,1.3-2.9,0.3-4.1c-2.4-2.8-5.7-4.3-9.1-4.3c-6.6,0-12,5.4-12,12c0,3.3,1.3,6.3,3.7,8.7c0.6,0.6,1.3,0.8,2,0.8
			C20.7-44.7,21.4-45,22-45.5z M39.6-37.9c1.5-1.5,1.5-3.9,0-5.4c-1.4-1.4-2.5-3.4-3.1-5.5c0-0.1-0.1-0.2-0.1-0.3c0,0,0,0,0,0
			c0-0.2,0-0.5-0.1-0.7l-0.1-0.8c-0.2-1-0.3-1.6-0.3-2.4c0-1.8,0.4-3.6,1.1-5.4c2.4-5.6,7.5-9.1,13.4-9.1c7.1,0,13.2,5.2,14.3,12.3
			c0,0.2,0.1,0.4,0.1,0.6c0.1,0.3,0.1,1.2,0.1,1.7c0,1.6-0.2,3.2-0.6,4.8c-0.5,2.1,0.7,4.2,2.7,4.7c2.1,0.5,4.2-0.7,4.7-2.7
			c0.6-2.2,0.9-4.5,0.9-6.8c0-1,0-2.4-0.3-3.7c-1.8-10.7-11-18.5-21.9-18.5c-9,0-16.9,5.3-20.5,13.8c-1.1,2.7-1.7,5.6-1.7,8.4
			c0,1.5,0.2,2.7,0.4,3.8l0.1,0.4c0,0.7,0.1,1.4,0.5,2.4c1,3.3,2.8,6.3,5,8.6c0.8,0.8,1.7,1.1,2.7,1.1
			C37.8-36.8,38.8-37.2,39.6-37.9z M91.7-38.3v-1.9c0-10.5-8.6-19.1-19.1-19.1c-1.9,0-3.6,0.3-5,0.6l1,5.7c1.3-0.2,2.6-0.5,4-0.5
			c7.3,0,13.3,6,13.3,13.3v1.9c0,1.6,1.3,2.9,2.9,2.9S91.7-36.7,91.7-38.3z M107.6-3c4.1-4.4,6.3-10,6.3-16v-1.2c0-0.1,0-0.1,0-0.2
			c-0.6-12.5-11-22.3-23.6-22.3h-1.7c-0.1,0-0.2,0-0.3,0c-4.2,0.3-7.9,1.6-11.4,4c-1.8,1.2-2.2,3.6-1,5.4c1.2,1.8,3.6,2.2,5.4,1
			c2.3-1.6,4.7-2.5,7.5-2.7h1.5c8.5,0,15.5,6.5,15.9,14.9v1.1c0,4-1.5,7.8-4.2,10.7C98.8-4.8,94.7-3,90.3-3c-5.1,0-10-2.5-13-6.7
			c-1.2-1.7-3.6-2.1-5.4-0.9C70.1-9.4,69.7-7,71-5.3c4.5,6.2,11.7,10,19.3,10C96.8,4.7,103,2,107.6-3z M125.4-11.1
			c0-6.9-5.8-12.6-12.6-12.6c-1.3,0-2.8,0.3-3.7,0.7c-1.5,0.5-2.3,2.1-1.8,3.7c0.5,1.5,2.1,2.3,3.7,1.8c0.6-0.2,1.5-0.4,1.9-0.4
			c3.7,0,6.9,3.2,6.9,6.9c0,3.7-3.2,6.9-6.9,6.9c-2.4,0-4.5-1.1-5.6-3.1c-0.8-1.4-2.6-1.8-4-1c-1.4,0.8-1.8,2.6-1,4
			c2.2,3.6,6.2,5.9,10.6,5.9C119.6,1.5,125.4-4.2,125.4-11.1z"/>
	</g>
	<g id="Light-L" transform="matrix(1 0 0 1 1079.2 1556)">
		<path d="M20.6-3c1.2-1.2,1.2-3.2,0-4.5c-1.2-1.2-3.2-1.2-4.5,0C13.7-5,10.4-3.7,6.6-3.7c-7.7,0-14-6.3-14-14
			c0-7.9,6.3-14.4,14-14.4c0.6,0,1.7,0,2,0.1c1.7,0.5,3.4-0.3,4-2c0.6-1.7-0.3-3.4-2-4c-1.2-0.4-2.7-0.4-4-0.4
			c-11.2,0-20.3,9.3-20.3,20.7c0,11.2,9.1,20.3,20.3,20.3C12.1,2.6,16.9,0.7,20.6-3z M83.1-25.1c0-15.3-12.5-27.8-27.8-27.8
			S27.6-40.5,27.6-25.1S40,2.6,55.4,2.6S83.1-9.8,83.1-25.1z M76.8-25.1c0,11.8-9.6,21.5-21.5,21.5s-21.5-9.6-21.5-21.5
			s9.6-21.5,21.5-21.5S76.8-37,76.8-25.1z M39.8-8.9c0.1-1.7-1.2-3.2-3-3.3c-1.8-0.1-3.2,1.3-3.3,3c-0.2,3.2-3.2,6-6.4,6
			c-2.4,0-4.5-1.3-5.7-3.5c-0.5-0.9-0.8-2-0.8-3.2c0-1.3,0.2-2,0.6-2.7c0.1-0.1,0.1-0.2,0.2-0.3c1.1-2.2,3.2-3.4,5.9-3.4
			c0.4,0,0.4,0,1,0.3c0.3,0.2,0.7,0.3,1.1,0.5c1.6,0.7,3.5,0,4.2-1.6c0.7-1.6,0-3.5-1.6-4.2c-0.3-0.1-0.5-0.3-0.7-0.4
			c-0.9-0.5-2-1-4-1c-5,0-9.3,2.5-11.5,6.8c-1.4,2.2-1.5,4.4-1.5,6c0,2.2,0.5,4.4,1.5,6.2C18.2,0.5,22.4,3,27.1,3
			C33.8,3,39.5-2.3,39.8-8.9z M21.3-12.8c0.8-1.5,0.3-3.4-1.3-4.3c-4.7-2.5-7.7-7.8-7.7-13.4c0-1.4,0.2-2.8,0.4-4
			c1.2-4.5,4-8.1,8.1-10c2.8-1.1,4.9-1.6,7.2-1.6c1.3,0,2.1,0,3.2,0.2c1.7,0.3,3.4-0.8,3.7-2.5c0.3-1.7-0.8-3.4-2.5-3.7
			c-1.7-0.3-2.9-0.3-4.4-0.3c-3.9,0-7.2,1.1-9.7,2.1c-0.1,0-0.1,0.1-0.2,0.1c-5.7,2.8-9.9,8-11.5,14.3c0,0.1,0,0.1,0,0.2
			C6.3-34.2,6-32.4,6-30.4c0,7.9,4.3,15.3,11,18.9c0.5,0.3,1,0.4,1.5,0.4C19.6-11.1,20.7-11.7,21.3-12.8z M21.3-45.6
			c1-1,1-2.6,0-3.6c-1.4-1.4-2-2.9-2-4.8c0-3.6,2.9-6.4,6.4-6.4c2.5,0,4.1,1.5,4.9,2.4c0.9,1.1,2.5,1.2,3.6,0.3
			c1.1-0.9,1.2-2.5,0.3-3.6c-2.3-2.6-5.5-4.2-8.7-4.2c-6.3,0-11.5,5.2-11.5,11.5c0,3.2,1.2,6,3.5,8.4c0.5,0.5,1.1,0.7,1.8,0.7
			C20.1-44.8,20.8-45.1,21.3-45.6z M38.4-38.3c1.2-1.2,1.2-3.2,0-4.5c-1.5-1.5-2.6-3.5-3.2-5.7c0-0.1-0.1-0.2-0.1-0.4
			c0-0.1,0-0.1,0-0.2c0-0.2,0-0.4-0.1-0.6l-0.1-0.8c-0.2-0.9-0.3-1.6-0.3-2.5c0-1.9,0.4-3.8,1.1-5.6c2.4-5.7,7.7-9.3,13.8-9.3
			c7.3,0,13.5,5.3,14.7,12.6c0,0.2,0.1,0.3,0.1,0.5c0.1,0.3,0.1,1.3,0.1,1.8c0,1.6-0.2,3.2-0.7,4.9c-0.4,1.7,0.6,3.4,2.2,3.9
			c1.7,0.5,3.4-0.6,3.9-2.2c0.6-2.2,0.9-4.3,0.9-6.5c0-1,0-2.3-0.3-3.5C68.6-66.6,59.8-74,49.4-74c-8.6,0-16.1,5-19.6,13.2
			c-1.1,2.6-1.6,5.3-1.6,8c0,1.4,0.2,2.6,0.4,3.7l0.1,0.4c0,0.6,0.1,1.3,0.4,2.2c0.9,3.1,2.6,6,4.8,8.2c0.6,0.6,1.4,0.9,2.2,0.9
			C37-37.4,37.8-37.7,38.4-38.3z M90-38.3v-1.9c0-10.2-8.3-18.4-18.4-18.4c-1.9,0-3.4,0.3-4.9,0.5l0.9,5c1.3-0.2,2.5-0.5,4-0.5
			c7.4,0,13.4,6,13.4,13.4v1.9c0,1.4,1.1,2.5,2.5,2.5C88.8-35.7,90-36.9,90-38.3z M105.3-3.9c3.9-4.2,6-9.6,6-15.3v-1.1
			c0-0.1,0-0.1,0-0.2c-0.6-11.9-10.5-21.3-22.6-21.3h-1.6c-0.1,0-0.2,0-0.2,0c-4,0.3-7.5,1.5-10.9,3.8c-1.4,1-1.8,2.9-0.8,4.4
			c1,1.4,2.9,1.8,4.4,0.8c2.4-1.6,4.9-2.5,7.7-2.7h1.5c8.7,0,15.8,6.7,16.3,15.2v1.1c0,4.1-1.5,8-4.3,11c-3.3,3.5-7.4,5.3-12,5.3
			c-5.3,0-10.2-2.6-13.3-6.9c-1-1.4-3-1.7-4.4-0.7c-1.4,1-1.7,3-0.7,4.4c4.3,6,11.2,9.5,18.5,9.5C95,3.4,100.9,0.8,105.3-3.9z
			 M122.9-11.5c0-6.6-5.6-12.1-12.1-12.1c-1.2,0-2.7,0.3-3.6,0.6c-1.3,0.4-2,1.9-1.6,3.2c0.4,1.3,1.9,2,3.2,1.6
			c0.6-0.2,1.5-0.4,2-0.4c3.8,0,7.1,3.3,7.1,7.1s-3.3,7.1-7.1,7.1c-2.4,0-4.6-1.2-5.8-3.2c-0.7-1.2-2.3-1.6-3.5-0.9
			c-1.2,0.7-1.6,2.3-0.9,3.5c2.1,3.5,5.9,5.7,10.1,5.7C117.4,0.6,122.9-4.9,122.9-11.5z"/>
	</g>
	<g id="Thin-L" transform="matrix(1 0 0 1 783.716 1556)">
		<path d="M19.3-4c1-1,1-2.5,0-3.5c-1-1-2.5-1-3.5,0C13.2-4.9,9.8-3.6,6-3.6C-2-3.6-8.4-10.1-8.4-18C-8.4-26.1-2-32.8,6-32.8
			c0.7,0,1.8,0,2.2,0.1c1.3,0.4,2.7-0.3,3.1-1.6c0.4-1.3-0.3-2.7-1.6-3.1c-1.1-0.4-2.5-0.4-3.8-0.4c-10.7,0-19.4,8.9-19.4,19.7
			C-13.4-7.3-4.7,1.4,6,1.4C11.2,1.4,15.8-0.5,19.3-4z M80.5-25.3C80.5-40,68.6-52,53.9-52S27.2-40,27.2-25.3
			c0,14.7,12,26.7,26.7,26.7S80.5-10.6,80.5-25.3z M75.6-25.3c0,12-9.7,21.7-21.7,21.7s-21.7-9.7-21.7-21.7S41.9-47,53.9-47
			S75.6-37.3,75.6-25.3z M38.1-9.4c0.1-1.4-1-2.5-2.4-2.6c-1.4-0.1-2.5,1-2.6,2.4c-0.2,3.5-3.4,6.5-7,6.5c-2.6,0-4.8-1.4-6.1-3.8
			c-0.5-1-0.8-2.2-0.8-3.4c0-1.3,0.2-2.2,0.7-3c0-0.1,0.1-0.1,0.1-0.2c1.2-2.4,3.5-3.7,6.3-3.7c0.6,0,0.7,0,1.3,0.4
			c0.3,0.2,0.6,0.3,1,0.5c1.2,0.6,2.7,0,3.3-1.2c0.6-1.2,0-2.7-1.2-3.3c-0.3-0.1-0.5-0.3-0.8-0.4c-0.8-0.4-1.8-1-3.6-1
			c-4.7,0-8.7,2.4-10.7,6.3c-1.3,2.1-1.4,4.1-1.4,5.6c0,2.1,0.5,4.1,1.4,5.8c2.2,4,6.1,6.4,10.5,6.4C32.4,1.7,37.8-3.3,38.1-9.4z
			 M19.9-13.5c0.7-1.2,0.2-2.7-1-3.4c-4.8-2.6-7.9-8-7.9-13.7c0-1.4,0.2-2.9,0.4-4.1c1.2-4.6,4.1-8.3,8.3-10.3
			c2.8-1.2,5-1.6,7.3-1.6c1.3,0,2.1,0,3.3,0.2c1.3,0.2,2.6-0.6,2.9-2c0.2-1.3-0.6-2.6-2-2.9c-1.6-0.3-2.7-0.3-4.2-0.3
			c-3.8,0-6.9,1.1-9.3,2c0,0-0.1,0-0.1,0.1c-5.4,2.7-9.5,7.6-11,13.7c0,0.1,0,0.1,0,0.2c-0.2,1.4-0.5,3.2-0.5,5
			c0,7.5,4.1,14.6,10.5,18.1c0.4,0.2,0.8,0.3,1.2,0.3C18.6-12.2,19.5-12.6,19.9-13.5z M20.2-45.6c0.8-0.8,0.8-2.2,0-3.1
			c-1.4-1.4-2.1-3-2.1-4.9c0-3.7,3-6.6,6.6-6.6c2.5,0,4.3,1.6,5.1,2.5c0.8,0.9,2.2,1,3.1,0.2c0.9-0.8,1-2.2,0.2-3.1
			c-2.2-2.5-5.2-4-8.3-4c-6.1,0-11,4.9-11,11c0,3.1,1.1,5.8,3.4,8c0.4,0.4,1,0.6,1.5,0.6C19.2-45,19.7-45.2,20.2-45.6z M36.7-38.7
			c1-1,1-2.5,0-3.5c-1.5-1.5-2.7-3.6-3.3-5.9c0-0.1-0.1-0.3-0.2-0.4c0-0.1,0-0.2,0-0.3c0-0.1,0-0.3,0-0.4l-0.1-0.7
			c-0.2-1-0.3-1.7-0.3-2.5c0-1.9,0.4-3.9,1.2-5.7c2.5-5.9,7.9-9.5,14.1-9.5c7.5,0,13.9,5.4,15,12.9c0,0.1,0.1,0.3,0.1,0.4
			c0.1,0.4,0.1,1.4,0.1,1.9c0,1.6-0.2,3.3-0.7,4.9c-0.4,1.3,0.4,2.7,1.8,3c1.3,0.3,2.7-0.4,3-1.8c0.5-2.1,0.8-4.2,0.8-6.2
			c0-1,0-2.2-0.3-3.3c-1.7-9.8-10-16.9-19.9-16.9c-8.2,0-15.4,4.8-18.7,12.6c-1,2.5-1.6,5.1-1.6,7.6c0,1.4,0.2,2.4,0.4,3.5l0.1,0.5
			c0,0.6,0,1.2,0.4,2c0.9,3,2.5,5.8,4.5,7.8c0.5,0.5,1.1,0.7,1.8,0.7S36.3-38.2,36.7-38.7z M87.5-38.2v-1.9c0-9.8-8-17.8-17.8-17.8
			c-1.8,0-3.3,0.3-4.7,0.5l0.8,4.3c1.3-0.2,2.5-0.5,3.9-0.5c7.4,0,13.5,6,13.5,13.5v1.9c0,1.2,1,2.2,2.2,2.2S87.5-37,87.5-38.2z
			 M102.5-4.9c3.7-4,5.8-9.2,5.8-14.6v-1.1c0,0,0-0.1,0-0.1c-0.6-11.4-10.1-20.3-21.6-20.3H85c-0.1,0-0.1,0-0.2,0
			c-3.8,0.3-7.2,1.5-10.4,3.7c-1.1,0.8-1.4,2.3-0.7,3.4c0.8,1.1,2.3,1.4,3.4,0.7c2.4-1.7,5-2.6,7.9-2.8h1.5
			c8.9,0,16.2,6.8,16.6,15.6v1.1c0,4.2-1.6,8.1-4.4,11.2c-3.3,3.5-7.5,5.4-12.2,5.4c-5.4,0-10.5-2.6-13.6-7
			c-0.8-1.1-2.3-1.4-3.5-0.6C68.4-9.7,68.2-8.1,69-7c4.1,5.7,10.7,9.1,17.6,9.1C92.6,2.1,98.2-0.4,102.5-4.9z M120.1-11.9
			c0-6.3-5.3-11.6-11.6-11.6c-1.2,0-2.5,0.3-3.4,0.6c-1.1,0.4-1.8,1.6-1.4,2.7c0.4,1.1,1.6,1.8,2.7,1.4c0.7-0.2,1.5-0.4,2-0.4
			c3.9,0,7.3,3.4,7.3,7.3s-3.4,7.3-7.3,7.3c-2.5,0-4.7-1.2-5.9-3.3c-0.6-1-1.9-1.4-3-0.8c-1,0.6-1.4,1.9-0.8,3
			c2,3.3,5.7,5.4,9.7,5.4C114.7-0.3,120.1-5.6,120.1-11.9z"/>
	</g>
	<g id="Ultralight-L" transform="matrix(1 0 0 1 487.631 1556)">
		<path d="M17.7-5c0.7-0.7,0.7-1.9,0-2.6s-1.9-0.7-2.6,0c-2.6,2.6-6.1,4-10,4c-8.1,0-14.7-6.6-14.7-14.7c0-8.3,6.6-15.1,14.7-15.1
			c0.8,0,1.9,0,2.3,0.1c1,0.3,2-0.2,2.3-1.2s-0.2-2-1.2-2.3c-1-0.3-2.3-0.3-3.5-0.3c-10.1,0-18.4,8.4-18.4,18.8
			c0,10.1,8.3,18.4,18.4,18.4C10,0.1,14.4-1.7,17.7-5z M77.5-25.5c0-14.1-11.5-25.6-25.6-25.6S26.4-39.6,26.4-25.5
			C26.4-11.4,37.9,0.1,52,0.1S77.5-11.4,77.5-25.5z M73.9-25.5c0,12.1-9.8,21.9-21.9,21.9S30-13.4,30-25.5
			c0-12.1,9.8-21.9,21.9-21.9S73.9-37.6,73.9-25.5z M35.9-9.9c0.1-1-0.7-1.9-1.7-1.9c-1,0-1.9,0.7-1.9,1.7c-0.2,3.7-3.6,6.9-7.4,6.9
			c-2.8,0-5.2-1.5-6.6-4c-0.6-1-0.9-2.3-0.9-3.6c0-1.4,0.2-2.4,0.8-3.3c0-0.1,0.1-0.1,0.1-0.2c1.2-2.5,3.8-4,6.8-4
			c0.7,0,0.9,0.1,1.6,0.4c0.3,0.1,0.6,0.3,1,0.5c0.9,0.4,2,0,2.4-0.9c0.4-0.9,0-2-0.9-2.4c-0.3-0.1-0.6-0.3-0.8-0.4
			C27.5-21.5,26.7-22,25-22c-4.4,0-8.1,2.2-10,5.9c-1.2,1.9-1.3,3.8-1.3,5.2c0,1.9,0.5,3.8,1.3,5.4c2,3.7,5.7,6,9.8,6
			C30.6,0.5,35.6-4.2,35.9-9.9z M18.1-14.1c0.5-0.9,0.2-2-0.7-2.5c-4.9-2.7-8.1-8.2-8.1-14c0-1.4,0.2-3,0.4-4.1
			c1.2-4.7,4.3-8.5,8.4-10.5c2.9-1.2,5.1-1.7,7.5-1.7c1.3,0,2.1,0,3.3,0.2c1,0.2,1.9-0.5,2.1-1.5c0.2-1-0.5-1.9-1.5-2.1
			c-1.5-0.3-2.6-0.3-4-0.3c-2.8,0-5.5,0.6-9,2c-3.4,1.7-6.3,4.3-8.2,7.6c-1,1.7-1.7,3.5-2.2,5.4c0,0,0,0.1,0,0.1
			c-0.2,1.3-0.5,3.1-0.5,4.8c0,7.1,3.9,13.9,10,17.2c0.3,0.2,0.6,0.2,0.9,0.2C17.2-13.2,17.8-13.5,18.1-14.1z M18.8-45.6
			c0.7-0.7,0.7-1.9,0-2.6c-1.4-1.4-2.1-3.1-2.1-5c0-3.8,3.1-6.8,6.8-6.8c1.9,0,3.8,0.9,5.2,2.5c0.7,0.8,1.8,0.8,2.6,0.2
			c0.8-0.7,0.8-1.8,0.2-2.6c-2.1-2.4-5-3.8-8-3.8C17.7-63.7,13-59,13-53.3c0,2.9,1.1,5.5,3.2,7.6c0.4,0.4,0.8,0.5,1.3,0.5
			C18-45.1,18.4-45.3,18.8-45.6z M34.9-39.1c0.7-0.7,0.7-1.9,0-2.6c-1.5-1.5-2.8-3.7-3.4-6c0-0.1-0.1-0.3-0.2-0.4c0-0.1,0-0.3,0-0.4
			c0-0.1,0-0.2,0-0.3l-0.1-0.7c-0.2-1-0.3-1.7-0.3-2.6c0-2,0.4-3.9,1.2-5.9c2.5-6,8.1-9.7,14.4-9.7c7.7,0,14.2,5.6,15.4,13.2
			c0,0.1,0,0.2,0.1,0.3c0.1,0.5,0.1,1.5,0.1,2.1c0,1.7-0.2,3.3-0.7,5c-0.3,1,0.3,2,1.3,2.2c1,0.3,2-0.3,2.2-1.3c0.5-2,0.8-4,0.8-6
			c0-0.9,0-2.1-0.3-3.1c-1.6-9.4-9.5-16.1-19-16.1c-7.8,0-14.6,4.6-17.8,12c-1,2.4-1.5,4.8-1.5,7.3c0,1.3,0.2,2.3,0.4,3.3l0.1,0.5
			c0,0.6,0,1.1,0.4,1.8c0.8,2.9,2.4,5.5,4.3,7.5c0.4,0.4,0.8,0.5,1.3,0.5S34.5-38.7,34.9-39.1z M84.7-38.2V-40
			c0-9.5-7.7-17.2-17.2-17.2c-1.7,0-3.2,0.3-4.6,0.5l0.7,3.6c1.3-0.2,2.5-0.5,3.9-0.5c7.5,0,13.5,6.1,13.5,13.5v1.8
			c0,1,0.6,0.2,1.7,0.2S84.7-37.2,84.7-38.2z M99.4-5.9c3.5-3.8,5.5-8.7,5.5-13.9l0-1.2c-0.5-10.9-9.6-19.4-20.6-19.4h-1.6
			c0,0-0.1,0-0.1,0c-3.6,0.3-6.9,1.4-9.9,3.5c-0.8,0.6-1,1.7-0.5,2.5c0.6,0.8,1.7,1.1,2.5,0.5c2.5-1.7,5.1-2.6,8.1-2.8h1.5
			c9,0,16.5,7,16.9,15.8v1.1c0,4.2-1.6,8.3-4.5,11.4C93.3-4.7,89-2.8,84.2-2.8c-1.4,0-2.7-0.2-4-0.5c-3.9-1-7.4-3.3-9.8-6.7
			c-0.6-0.8-1.7-1-2.6-0.4c-0.8,0.6-1,1.7-0.4,2.6c3.9,5.4,10.2,8.7,16.8,8.7C90,0.8,95.3-1.5,99.4-5.9z M116.7-12.3
			c0-6-5.1-11.1-11.1-11.1c-1.1,0-2.4,0.3-3.3,0.6c-1,0.3-1.5,1.4-1.2,2.3c0.3,1,1.4,1.5,2.3,1.2c0.6-0.2,1.5-0.4,2.1-0.4
			c4,0,7.4,3.5,7.4,7.4c0,4-3.5,7.4-7.4,7.4c-2.6,0-4.9-1.3-6.1-3.4C99-9.1,97.8-9.4,97-8.9c-0.9,0.5-1.2,1.6-0.6,2.5
			c1.9,3.2,5.4,5.2,9.2,5.2C111.6-1.3,116.7-6.3,116.7-12.3z"/>
	</g>
	<g id="Black-M" transform="matrix(1 0 0 1 2871.36 1126)">
		<path d="M22.1,0.1C10.9,0.1,1.7-9.1,1.7-20.4c0-11.4,9.2-20.8,20.4-20.8c1.3,0,2.9,0,4.4,0.5c3.1,1,4.7,4.4,3.7,7.4
			c-1,3-4.1,4.6-7.1,3.8c-0.3,0-0.7,0-1.1,0c-4.8,0-8.7,4-8.7,9c0,4.9,3.8,8.7,8.7,8.7c2.4,0,4.3-0.8,5.8-2.2c2.3-2.3,6-2.3,8.3,0
			s2.3,6,0,8.3C32.5-1.9,27.7,0.1,22.1,0.1z M63.4,0.1c-14.7,0-26.7-12-26.7-26.7s12-26.7,26.7-26.7s26.7,12,26.7,26.7
			S78.2,0.1,63.4,0.1z M63.4-41.7c-8.3,0-15,6.7-15,15s6.7,15,15,15s15-6.7,15-15S71.7-41.7,63.4-41.7z M32.3-11.6
			c-1,0-1.9-0.2-2.8-0.7c-6.7-3.6-11-11-11-18.9c0-1.9,0.3-3.7,0.5-5c0-0.1,0.1-0.3,0.1-0.4c1.6-6.3,5.8-11.4,11.5-14.2
			c0.1-0.1,0.2-0.1,0.3-0.2c2.3-1,5.5-2,9.4-2c1.3,0,2.6,0,4.3,0.3c3.2,0.6,5.3,3.6,4.7,6.8c-0.6,3.2-3.6,5.3-6.8,4.7
			c-0.6-0.1-1-0.1-2.2-0.1c-1.4,0-2.8,0.3-4.7,1.1c-2.5,1.3-4.2,3.5-5,6.3c-0.1,0.8-0.3,1.8-0.3,2.7c0,3.5,1.9,6.9,4.8,8.5
			c2.9,1.6,3.9,5.1,2.3,8C36.4-12.7,34.4-11.6,32.3-11.6z M33.1-41.8c-1,0-1.9-0.4-2.6-1.1C28.2-45.1,27-48,27-51.1
			c0-6.3,5.1-11.3,11.3-11.3c3.2,0,6.4,1.5,8.6,4.1c1.4,1.6,1.2,3.9-0.4,5.3c-1.6,1.4-3.9,1.2-5.3-0.4c-0.5-0.6-1.5-1.5-2.9-1.5
			c-2.1,0-3.9,1.8-3.9,3.9c0,1.1,0.4,2.1,1.3,2.9c1.5,1.5,1.5,3.8,0,5.3C35-42.1,34-41.8,33.1-41.8z M47.2-33.9
			c-1.5,0-3-0.6-4.2-1.7c-2.2-2.2-3.8-5-4.8-8.1c-0.4-1-0.5-1.9-0.6-2.6l0-0.1c-0.2-1-0.4-2.2-0.4-3.7c0-2.7,0.5-5.4,1.6-8
			c3.4-8.1,10.9-13.2,19.6-13.2c5.2,0,9.9,1.8,13.6,5c3.7,3.1,6.3,7.5,7.2,12.6c0.3,1.4,0.3,2.7,0.3,3.6c0,2.1-0.3,4.2-0.8,6.3
			c-0.8,3.1-4.1,5-7.2,4.2c-3.1-0.8-5-4.1-4.2-7.2c0.3-1.1,0.4-2.2,0.4-3.3c0-0.2,0-0.6,0-0.8c-0.1-0.2-0.1-0.4-0.1-0.6
			c-0.7-4.6-4.6-8-9.3-8c-3.9,0-7.1,2.2-8.7,5.9c-0.5,1.1-0.7,2.3-0.7,3.5c0,0.4,0.1,0.7,0.2,1.5l0.1,0.7c0,0.2,0.1,0.4,0.1,0.6
			c0,0,0,0,0,0c0.4,1.4,1.1,2.6,1.9,3.4c2.3,2.3,2.3,6,0,8.3C50.2-34.4,48.7-33.9,47.2-33.9z M90.6-34.1c-2.1,0-3.7-1.7-3.7-3.7
			v-1.6c0-5.4-4.4-9.7-9.7-9.7c-1.1,0-2,0.2-3.1,0.4l-1.3-7.4c1.3-0.2,2.7-0.5,4.4-0.5c9.5,0,17.2,7.7,17.2,17.2v1.6
			C94.4-35.7,92.7-34.1,90.6-34.1z M91.7,0.7c-7.2,0-14-3.5-18.3-9.4c-1.9-2.6-1.3-6.3,1.3-8.2c2.6-1.9,6.3-1.3,8.2,1.3
			c2,2.8,5.3,4.5,8.7,4.5c3.7,0,6.3-1.9,7.8-3.5c1.8-1.9,2.8-4.5,2.8-7.1v-0.8c-0.3-5.5-5-9.8-10.6-9.8h-1.2
			c-1.8,0.2-3.3,0.7-4.8,1.8c-2.7,1.8-6.3,1.1-8.2-1.5c-1.8-2.7-1.1-6.3,1.5-8.2c3.3-2.3,6.9-3.5,10.8-3.8c0.1,0,0.3,0,0.4,0h1.4
			c11.9,0,21.8,9.3,22.4,21.1c0,0.1,0,0.2,0,0.3v1c0,5.6-2.1,11-6,15.1C103.7-1.9,97.9,0.7,91.7,0.7z M110.4-3.3
			c-4.1,0-7.9-2.1-10-5.6c-1.1-1.8-0.5-4.1,1.3-5.1c1.8-1.1,4.1-0.5,5.1,1.3c0.7,1.2,2,1.9,3.5,1.9c2.3,0,4.4-2,4.4-4.4
			c0-2.3-2-4.4-4.4-4.4c-0.2,0-0.7,0.1-1.2,0.2c-2,0.6-4.1-0.4-4.7-2.4c-0.7-2,0.4-4.1,2.4-4.7c0.4-0.1,2-0.6,3.5-0.6
			c6.4,0,11.9,5.4,11.9,11.9C122.3-8.7,116.8-3.3,110.4-3.3z M53.6-12.8c-0.4,7.3-6.7,13.2-14,13.2c-5.2,0-9.8-2.8-12.3-7.5
			c-1.1-2-1.7-4.3-1.7-6.8c0-1.6,0.2-4.1,1.7-6.6c2.4-4.6,7.2-7.4,12.5-7.4c2.3,0,5.1,1.4,5.3,1.5c2.4,1.1,3.7,3.6,3.4,6.1l-4.2,3.7
			l-2.2,1.4c-0.7-0.1-2.5-0.8-2.8-0.9c-0.6,0.1-1.3,0.3-1.7,1.1c-0.1,0.2-0.2,0.4-0.3,0.5c0,0,0,0.1,0,0.6c0,0.4,0.1,0.9,0.2,1.1
			c0.3,0.6,0.9,1.3,2,1.3c1.1,0,2.2-1,2.3-2c0-0.3,3-2.9,3-2.9l3.4-2.7C51.4-18.7,53.8-16,53.6-12.8z"/>
	</g>
	<g id="Heavy-M" transform="matrix(1 0 0 1 2575.48 1126)">
		<path d="M21.7-0.9C10.9-0.9,2.1-9.7,2.1-20.6c0-11,8.8-20,19.6-20c1.3,0,2.8,0,4.2,0.5c2.8,0.9,4.3,3.9,3.3,6.7
			c-0.9,2.7-3.7,4.2-6.4,3.4c-0.3,0-0.8,0-1.1,0c-5,0-9.1,4.2-9.1,9.4c0,5.1,4,9.1,9.1,9.1c2.5,0,4.5-0.8,6.1-2.4
			c2.1-2.1,5.4-2.1,7.5,0c2.1,2.1,2.1,5.4,0,7.5C31.7-2.8,27-0.9,21.7-0.9z M62.4-0.9c-14.3,0-25.9-11.6-25.9-25.9
			c0-14.3,11.6-25.9,25.9-25.9s25.9,11.6,25.9,25.9C88.3-12.5,76.7-0.9,62.4-0.9z M62.4-42.1c-8.4,0-15.3,6.9-15.3,15.3
			s6.9,15.3,15.3,15.3s15.3-6.9,15.3-15.3S70.8-42.1,62.4-42.1z M31.7-12.4c-0.9,0-1.7-0.2-2.5-0.6c-6.4-3.5-10.6-10.6-10.6-18.1
			c0-1.8,0.3-3.6,0.5-4.9c0-0.1,0-0.2,0.1-0.4c1.5-6,5.6-11,11-13.7c0.1-0.1,0.2-0.1,0.3-0.1c2.2-0.9,5.3-2,9.1-2
			c1.3,0,2.5,0,4.1,0.3c2.9,0.5,4.8,3.3,4.2,6.1c-0.5,2.9-3.3,4.8-6.1,4.2c-0.7-0.1-1.1-0.1-2.2-0.1c-1.5,0-2.9,0.3-4.9,1.1
			c-2.6,1.3-4.5,3.6-5.2,6.6c-0.1,0.8-0.3,1.9-0.3,2.8c0,3.7,2,7.2,5.1,8.9c2.6,1.4,3.5,4.6,2.1,7.2C35.3-13.4,33.5-12.4,31.7-12.4z
			 M32.5-42c-0.9,0-1.8-0.3-2.4-1c-2.2-2.2-3.3-4.9-3.3-7.9c0-6,4.9-10.9,10.9-10.9c3.1,0,6.1,1.4,8.3,3.9c1.2,1.4,1.1,3.6-0.3,4.8
			c-1.4,1.2-3.6,1.1-4.8-0.3c-0.5-0.6-1.6-1.6-3.1-1.6c-2.2,0-4.1,1.8-4.1,4.1c0,1.2,0.4,2.2,1.3,3.1c1.3,1.3,1.3,3.5,0,4.9
			C34.3-42.3,33.4-42,32.5-42z M46.4-34.4c-1.4,0-2.7-0.5-3.7-1.5c-2.1-2.1-3.7-4.8-4.6-7.8c-0.4-1-0.5-1.8-0.5-2.5l0-0.1
			c-0.2-1-0.4-2.1-0.4-3.5c0-2.6,0.5-5.2,1.6-7.7c3.3-7.8,10.5-12.7,18.8-12.7c4.4,0,8.4,1.4,11.8,3.7c4.2,3,7.3,7.7,8.3,13.1
			c0.3,1.3,0.3,2.5,0.3,3.5c0,2-0.3,4.1-0.8,6.1c-0.8,2.8-3.6,4.5-6.5,3.7c-2.8-0.8-4.5-3.6-3.7-6.5c0.3-1.1,0.5-2.3,0.5-3.4
			c0-0.2,0-0.7,0-0.9c-0.1-0.2-0.1-0.4-0.1-0.6c-0.8-4.8-4.8-8.3-9.7-8.3c-4,0-7.5,2.4-9.1,6.2c-0.5,1.2-0.7,2.4-0.7,3.6
			c0,0.4,0.1,0.8,0.2,1.6l0.1,0.7c0,0.2,0.1,0.4,0.1,0.6c0,0,0,0,0,0.1c0.4,1.4,1.1,2.7,2,3.6c2.1,2.1,2.1,5.4,0,7.5
			C49.1-34.9,47.8-34.4,46.4-34.4z M89.2-34.3c-1.9,0-3.4-1.5-3.4-3.4v-1.6c0-5.4-4.4-9.9-9.9-9.9c-1.1,0-2,0.2-3.1,0.4l-1.2-6.8
			c1.2-0.2,2.6-0.5,4.3-0.5c9.2,0,16.7,7.5,16.7,16.7v1.6C92.6-35.9,91.1-34.3,89.2-34.3z M90.4-0.3c-6.9,0-13.5-3.4-17.6-9.1
			c-1.7-2.4-1.2-5.7,1.2-7.4c2.4-1.7,5.7-1.2,7.4,1.2c2.1,2.9,5.5,4.7,9,4.7c3.9,0,6.5-2,8.1-3.6c1.9-2,2.9-4.6,2.9-7.4v-0.8
			c-0.3-5.7-5.1-10.2-11-10.2h-1.2c-1.8,0.2-3.5,0.7-5,1.8c-2.4,1.6-5.7,1-7.3-1.4c-1.6-2.4-1-5.7,1.4-7.3c3.2-2.2,6.6-3.4,10.4-3.6
			c0.1,0,0.3,0,0.4,0h1.4c11.5,0,21,8.9,21.5,20.3c0,0.1,0,0.2,0,0.3v1c0,5.4-2,10.6-5.7,14.6C102-2.8,96.4-0.3,90.4-0.3z
			 M108.8-3.9c-4,0-7.6-2.1-9.6-5.4c-1-1.6-0.4-3.7,1.2-4.7c1.6-1,3.7-0.4,4.7,1.2c0.7,1.3,2.1,2,3.7,2c2.4,0,4.6-2.1,4.6-4.6
			s-2.1-4.6-4.6-4.6c-0.2,0-0.8,0.1-1.2,0.2c-1.8,0.6-3.7-0.4-4.3-2.2c-0.6-1.8,0.4-3.7,2.2-4.3c0.4-0.1,1.9-0.6,3.4-0.6
			c6.2,0,11.5,5.2,11.5,11.5C120.3-9.2,115.1-3.9,108.8-3.9z M52.1-13.1C51.8-6.2,45.8-0.6,38.8-0.6c-4.9,0-9.3-2.7-11.7-7.1
			c-1-1.9-1.6-4.1-1.6-6.4c0-1.6,0.2-3.9,1.6-6.3c2.3-4.3,6.8-7,11.9-7c2.2,0,3.4,0.6,4.6,1.2c0.1,0.1,0.3,0.2,0.5,0.2
			c2.1,1,3.3,3.1,3,5.3l-5.7,4.7c-0.6,0-2.4-0.8-2.7-0.9c-0.7,0.1-1.8,0.3-2.3,1.4c-0.1,0.2-0.2,0.3-0.3,0.5c0,0.1-0.1,0.2-0.1,0.9
			c0,0.5,0.1,1,0.3,1.4c0.3,0.6,1.1,1.6,2.4,1.6c1.3,0,2.7-1.2,2.8-2.5c0-0.8,5-5.1,4.9-5c0.2,0,0.4,0,0.6,0
			C50-18.5,52.3-16,52.1-13.1z"/>
	</g>
	<g id="Bold-M" transform="matrix(1 0 0 1 2279.69 1126)">
		<path d="M21.2-1.9c-10.4,0-18.8-8.5-18.8-18.8c0-10.6,8.5-19.2,18.8-19.2c1.2,0,2.6,0,4,0.4c2.5,0.8,3.8,3.5,3,5.9
			c-0.8,2.4-3.3,3.7-5.7,3c-0.3,0-0.8,0-1.2,0c-5.2,0-9.5,4.4-9.5,9.8c0,5.3,4.2,9.5,9.5,9.5c2.6,0,4.7-0.8,6.4-2.5
			c1.8-1.8,4.8-1.8,6.6,0c1.8,1.8,1.8,4.8,0,6.6C30.8-3.7,26.3-1.9,21.2-1.9z M61.4-1.9c-13.8,0-25-11.2-25-25s11.2-25,25-25
			s25,11.2,25,25S75.2-1.9,61.4-1.9z M61.4-42.5c-8.6,0-15.6,7-15.6,15.6c0,8.6,7,15.6,15.6,15.6s15.6-7,15.6-15.6
			C77.1-35.5,70.1-42.5,61.4-42.5z M31.1-13.3c-0.8,0-1.5-0.2-2.2-0.6c-6.2-3.4-10.1-10.2-10.1-17.4c0-1.8,0.3-3.4,0.5-4.7
			c0-0.1,0-0.2,0.1-0.3c1.5-5.8,5.4-10.6,10.6-13.2c0.1,0,0.2-0.1,0.3-0.1c2.2-0.9,5.1-1.9,8.8-1.9c1.2,0,2.4,0,4,0.3
			c2.5,0.5,4.2,2.9,3.8,5.4c-0.5,2.5-2.9,4.2-5.4,3.8c-0.7-0.1-1.2-0.1-2.3-0.1c-1.6,0-3,0.3-5.1,1.2c-2.7,1.4-4.6,3.8-5.5,6.8
			c-0.2,0.8-0.3,1.9-0.3,2.8c0,3.8,2.1,7.5,5.3,9.2c2.3,1.2,3.1,4.1,1.9,6.4C34.4-14.2,32.8-13.3,31.1-13.3z M31.9-42.1
			c-0.8,0-1.6-0.3-2.2-0.9c-2.1-2.1-3.2-4.7-3.2-7.6c0-5.8,4.7-10.5,10.5-10.5c3,0,5.9,1.4,8,3.8c1.1,1.3,1,3.3-0.3,4.4
			c-1.3,1.1-3.3,1-4.4-0.3c-0.5-0.6-1.7-1.6-3.3-1.6c-2.4,0-4.3,1.9-4.3,4.3c0,1.2,0.4,2.3,1.4,3.2c1.2,1.2,1.2,3.2,0,4.4
			C33.5-42.4,32.7-42.1,31.9-42.1z M45.6-34.9c-1.2,0-2.4-0.5-3.3-1.4c-2-2-3.5-4.6-4.4-7.5c-0.4-0.9-0.5-1.7-0.5-2.3l0-0.2
			c-0.2-1-0.4-2-0.4-3.4c0-2.5,0.5-5,1.5-7.4c3.2-7.5,10.1-12.2,18.1-12.2c9.6,0,17.6,6.8,19.3,16.3c0.3,1.2,0.3,2.4,0.3,3.3
			c0,2-0.3,3.9-0.8,5.9c-0.7,2.5-3.2,4-5.7,3.3c-2.5-0.7-4-3.2-3.3-5.7c0.3-1.2,0.5-2.3,0.5-3.5c0-0.3,0-0.8,0-1
			c-0.1-0.2-0.1-0.4-0.1-0.6c-0.5-3.2-2.5-5.9-5.2-7.4c-1.5-0.8-3.1-1.3-4.9-1.3c-4.1,0-7.8,2.5-9.4,6.4c-0.5,1.3-0.8,2.5-0.8,3.8
			c0,0.5,0.1,0.8,0.2,1.7l0.1,0.6c0,0.2,0.1,0.4,0.1,0.6c0,0,0,0.1,0,0.1c0.4,1.5,1.2,2.9,2.1,3.8c1.8,1.8,1.8,4.8,0,6.6
			C48-35.4,46.8-34.9,45.6-34.9z M87.9-34.6c-1.7,0-3.1-1.4-3.1-3.1v-1.6c0-5.5-4.5-10-10-10c-1.1,0-2,0.2-3.1,0.4l-1.1-6.1
			c1.2-0.2,2.6-0.5,4.2-0.5c9,0,16.2,7.3,16.2,16.2v1.6C91-36,89.6-34.6,87.9-34.6z M88.9-1.3c-6.7,0-13-3.3-16.9-8.7
			c-1.5-2.1-1-5,1.1-6.5c2.1-1.5,5-1,6.5,1.1c2.2,3,5.6,4.8,9.3,4.8c4,0,6.8-2,8.3-3.7c1.9-2.1,3-4.8,3-7.6v-0.8
			c-0.4-5.9-5.3-10.5-11.4-10.5h-1.2c-1.9,0.2-3.6,0.8-5.2,1.9c-2.1,1.5-5.1,0.9-6.5-1.2c-1.5-2.1-0.9-5.1,1.2-6.5
			c3.1-2.1,6.4-3.2,10-3.5c0.1,0,0.2,0,0.3,0h1.4c11.1,0,20.2,8.6,20.7,19.6c0,0.1,0,0.2,0,0.2v0.9c0,5.2-2,10.2-5.5,14
			C100.1-3.7,94.7-1.3,88.9-1.3z M107.2-4.6c-3.8,0-7.4-2-9.3-5.2c-0.9-1.5-0.4-3.4,1.1-4.3c1.5-0.9,3.4-0.4,4.3,1.1
			c0.8,1.3,2.2,2.1,3.9,2.1c2.6,0,4.8-2.2,4.8-4.8c0-2.6-2.2-4.8-4.8-4.8c-0.3,0-0.8,0.1-1.3,0.3c-1.6,0.5-3.4-0.3-3.9-2
			c-0.5-1.6,0.3-3.4,2-3.9c0.4-0.1,1.8-0.6,3.3-0.6c6,0,11,5.1,11,11C118.2-9.7,113.1-4.6,107.2-4.6z M50.8-13.5
			c-0.3,6.5-6,11.8-12.6,11.8c-4.7,0-8.8-2.5-11.1-6.7c-1-1.8-1.5-3.9-1.5-6.1c0-1.5,0.2-3.7,1.5-5.9c2.2-4.2,6.4-6.7,11.3-6.7
			c2,0,4.6,1.3,4.8,1.4c2.4,1.1,3.4,3.8,2.3,6.2c-0.1,0.2-3.2,2.6-3.2,2.6c-1,0.2-2.1,0.2-3-0.3c-0.4-0.2-0.7-0.3-1-0.5c0,0,0,0,0,0
			c-0.9,0-2.2,0.3-2.8,1.7c-0.1,0.1-0.2,0.3-0.2,0.4c-0.1,0.1-0.2,0.3-0.2,1.1c0,0.6,0.1,1.2,0.4,1.6c0.4,0.7,1.2,1.8,2.9,1.8
			c1.6,0,3.2-1.4,3.2-2.9c0.1-1.6,3-4.6,4.9-4.4C49-18.1,50.9-16,50.8-13.5z"/>
	</g>
	<g id="Semibold-M" transform="matrix(1 0 0 1 1983.62 1126)">
		<path d="M20.9-2.9C11-2.9,2.9-11,2.9-21c0-10.1,8.1-18.4,18.1-18.4c1.2,0,2.5,0,3.8,0.4c2.2,0.7,3.3,3,2.6,5.2
			c-0.7,2.1-3,3.3-5.1,2.6c-0.3,0-0.9,0-1.3,0c-5.4,0-9.9,4.6-9.9,10.2c0,5.5,4.3,9.9,9.9,9.9c2.7,0,4.9-0.9,6.6-2.6
			c1.6-1.6,4.2-1.6,5.8,0c1.6,1.6,1.6,4.2,0,5.8C30.1-4.6,25.8-2.9,20.9-2.9z M60.4-2.9C47.1-2.9,36.3-13.7,36.3-27
			s10.8-24.1,24.1-24.1S84.6-40.3,84.6-27S73.7-2.9,60.4-2.9z M60.4-42.9c-8.8,0-15.9,7.1-15.9,15.9s7.1,15.9,15.9,15.9
			S76.4-18.3,76.4-27S69.2-42.9,60.4-42.9z M37.6-2.6C33.1-2.6,29.2-5,27.1-9c-0.9-1.7-1.4-3.7-1.4-5.8c0-1.4,0.2-3.5,1.5-5.6
			c2.1-3.9,6-6.3,10.7-6.3c1.9,0,2.9,0.5,4,1c0.1,0.1,0.3,0.2,0.5,0.3c2.1,0.9,3,3.4,2,5.4c-0.9,2.1-3.4,3-5.4,2
			c-0.4-0.2-0.7-0.3-1-0.5c0,0-0.1,0-0.1-0.1c-1.6,0-2.8,0.7-3.4,1.9c-0.1,0.1-0.1,0.2-0.2,0.4c-0.2,0.2-0.3,0.5-0.3,1.4
			c0,0.7,0.2,1.3,0.4,1.8c0.4,0.8,1.4,2.1,3.3,2.1c1.8,0,3.6-1.6,3.7-3.4c0.1-2.3,2-4,4.3-3.9c2.3,0.1,4,2,3.9,4.3
			C49.1-7.6,43.8-2.6,37.6-2.6z M30.6-14.1c-0.7,0-1.3-0.2-2-0.5c-5.9-3.2-9.7-9.8-9.7-16.7c0-1.7,0.3-3.3,0.5-4.5
			c0-0.1,0-0.2,0.1-0.3c1.4-5.6,5.1-10.2,10.2-12.6c0.1,0,0.2-0.1,0.2-0.1c2.1-0.9,5-1.8,8.4-1.8c1.2,0,2.3,0,3.8,0.3
			c2.2,0.4,3.7,2.5,3.3,4.8c-0.4,2.2-2.5,3.7-4.8,3.3c-0.8-0.1-1.3-0.1-2.3-0.1c-1.6,0-3.1,0.3-5.2,1.2c-2.8,1.4-4.8,3.9-5.7,7.1
			c-0.2,0.9-0.3,1.9-0.3,2.9c0,3.9,2.2,7.8,5.5,9.5c2,1.1,2.7,3.6,1.6,5.6C33.4-14.9,32-14.1,30.6-14.1z M31.4-42.3
			c-0.7,0-1.4-0.3-2-0.8c-2-2-3.1-4.6-3.1-7.3c0-5.6,4.5-10.1,10.1-10.1c2.9,0,5.7,1.3,7.7,3.6c1,1.2,0.9,3-0.3,4
			c-1.2,1-3,0.9-4-0.3c-0.5-0.6-1.7-1.7-3.4-1.7c-2.5,0-4.5,2-4.5,4.5c0,1.3,0.5,2.4,1.4,3.3c1.1,1.1,1.1,2.9,0,4
			C32.8-42.6,32.1-42.3,31.4-42.3z M44.9-35.5c-1.1,0-2.1-0.4-2.9-1.2c-1.9-1.9-3.4-4.4-4.2-7.2c-0.4-0.9-0.4-1.6-0.5-2.2l0-0.2
			c-0.2-1-0.4-1.9-0.4-3.3c0-2.4,0.5-4.8,1.4-7.1c3.1-7.2,9.7-11.7,17.3-11.7c4,0,7.7,1.2,10.7,3.3c4,2.8,6.9,7.1,7.8,12.3
			c0.3,1.1,0.3,2.3,0.3,3.2c0,1.9-0.3,3.8-0.8,5.7c-0.6,2.2-2.8,3.5-5,2.9c-2.2-0.6-3.5-2.8-2.9-5c0.3-1.2,0.5-2.4,0.5-3.6
			c0-0.3,0-0.8,0-1.1c-0.1-0.2-0.1-0.4-0.1-0.5c-0.8-5.2-5.2-9-10.4-9c-4.3,0-8,2.5-9.8,6.6c-0.5,1.3-0.8,2.6-0.8,3.9
			c0,0.5,0.1,0.9,0.2,1.7l0.1,0.6c0,0.2,0.1,0.4,0.1,0.6c0,0.1,0,0.1,0.1,0.2c0.4,1.6,1.2,3,2.2,4c1.6,1.6,1.6,4.2,0,5.8
			C47.1-35.9,46-35.5,44.9-35.5z M86.5-34.9c-1.6,0-2.8-1.3-2.8-2.8v-1.5c0-5.6-4.5-10.1-10.1-10.1c-1.1,0-2,0.2-3.1,0.4l-1-5.6
			c1.2-0.2,2.5-0.5,4.1-0.5c8.7,0,15.8,7.1,15.8,15.8v1.5C89.3-36.2,88.1-34.9,86.5-34.9z M87.6-2.3c-6.4,0-12.5-3.1-16.3-8.4
			c-1.3-1.8-0.9-4.4,0.9-5.7c1.8-1.3,4.4-0.9,5.7,0.9c2.2,3.1,5.8,5,9.6,5c4.1,0,7-2.1,8.6-3.8c2-2.2,3.1-4.9,3.1-7.9V-23
			c-0.4-6.1-5.5-10.9-11.7-10.9h-1.2c-2,0.2-3.7,0.8-5.4,2c-1.9,1.3-4.4,0.8-5.7-1.1c-1.3-1.9-0.8-4.4,1.1-5.7c3-2,6.1-3.1,9.6-3.4
			c0.1,0,0.2,0,0.3,0h1.3c10.6,0,19.4,8.3,19.9,18.8c0,0.1,0,0.1,0,0.2v0.9c0,5-1.9,9.8-5.3,13.5C98.4-4.6,93.2-2.3,87.6-2.3z
			 M105.6-5.3c-3.7,0-7.1-1.9-8.9-5c-0.8-1.3-0.3-3.1,1-3.9c1.3-0.8,3.1-0.3,3.9,1c0.8,1.4,2.3,2.2,4,2.2c2.7,0,5-2.3,5-5
			c0-2.7-2.3-5-5-5c-0.3,0-0.9,0.1-1.4,0.3c-1.5,0.5-3.1-0.3-3.6-1.8c-0.5-1.5,0.3-3.1,1.8-3.6c0.4-0.1,1.8-0.6,3.1-0.6
			c5.8,0,10.6,4.9,10.6,10.6S111.4-5.3,105.6-5.3z"/>
	</g>
	<g id="Medium-M" transform="matrix(1 0 0 1 1687.4 1126)">
		<path d="M20.9-3.9c-9.5,0-17.3-7.8-17.3-17.3c0-9.7,7.8-17.6,17.3-17.6c1.2,0,2.4,0,3.5,0.4c1.9,0.6,2.9,2.6,2.2,4.5
			c-0.6,1.8-2.6,2.8-4.4,2.3c-0.3,0-0.9,0-1.4,0c-5.6,0-10.2,4.7-10.2,10.5c0,5.7,4.5,10.2,10.2,10.2c2.8,0,5.1-0.9,6.9-2.7
			c1.4-1.4,3.6-1.4,5,0c1.4,1.4,1.4,3.6,0,5C29.7-5.6,25.6-3.9,20.9-3.9z M60-3.9c-12.8,0-23.3-10.4-23.3-23.3
			C36.7-40,47.1-50.4,60-50.4S83.2-40,83.2-27.2C83.2-14.3,72.8-3.9,60-3.9z M60-43.3c-8.9,0-16.2,7.3-16.2,16.2S51-11,60-11
			s16.2-7.3,16.2-16.2S68.9-43.3,60-43.3z M37.4-3.6c-4.2,0-7.9-2.2-9.9-6c-0.9-1.6-1.3-3.5-1.3-5.4c0-1.3,0.1-3.3,1.4-5.3
			c1.9-3.7,5.7-5.9,10.1-5.9c1.7,0,2.7,0.5,3.7,1c0.2,0.1,0.3,0.2,0.5,0.3c1.8,0.8,2.6,2.9,1.8,4.7c-0.8,1.8-2.9,2.6-4.7,1.8
			c-0.4-0.2-0.7-0.3-0.9-0.5c-0.1,0-0.2-0.1-0.2-0.1c0,0-0.1,0-0.1,0c-1.7,0-3.1,0.8-3.8,2.2c-0.1,0.1-0.1,0.2-0.2,0.3
			c-0.2,0.4-0.4,0.7-0.4,1.6c0,0.8,0.2,1.5,0.5,2c0.4,0.7,1.5,2.3,3.7,2.3c2.1,0,4-1.8,4.2-3.8c0.1-2,7.2-1.6,7.1,0.4
			C48.3-8.3,43.3-3.6,37.4-3.6z M30.5-14.9c-0.6,0-1.2-0.1-1.7-0.4c-5.7-3.1-9.3-9.4-9.3-16c0-1.6,0.2-3.2,0.5-4.4
			c0-0.1,0-0.2,0.1-0.2c1.4-5.3,4.9-9.8,9.8-12.1c0.1,0,0.1-0.1,0.2-0.1c2-0.8,4.8-1.8,8.1-1.8c1.2,0,2.2,0,3.7,0.3
			c1.9,0.4,3.2,2.2,2.8,4.1s-2.2,3.2-4.1,2.8c-0.8-0.1-1.4-0.1-2.4-0.1c-1.6,0-3.2,0.4-5.3,1.2c-2.9,1.5-5,4.1-5.9,7.3
			c-0.2,0.9-0.3,2-0.3,3c0,4,2.3,8,5.6,9.8c1.7,0.9,2.3,3.1,1.4,4.8C33-15.6,31.8-14.9,30.5-14.9z M31.2-42.4
			c-0.6,0-1.3-0.2-1.8-0.7c-1.9-1.9-3-4.4-3-7c0-5.4,4.4-9.7,9.7-9.7c2.8,0,5.4,1.3,7.4,3.5c0.9,1.1,0.8,2.7-0.3,3.6
			c-1.1,0.9-2.7,0.8-3.6-0.3c-0.6-0.7-1.8-1.8-3.5-1.8c-2.6,0-4.7,2.1-4.7,4.7c0,1.3,0.5,2.5,1.5,3.5c1,1,1,2.6,0,3.6
			C32.5-42.7,31.9-42.4,31.2-42.4z M44.6-36c-0.9,0-1.8-0.3-2.5-1c-1.8-1.8-3.3-4.3-4.1-6.9c-0.3-0.8-0.4-1.5-0.4-2l0-0.3
			c-0.2-0.9-0.4-1.9-0.4-3.1c0-2.3,0.5-4.6,1.4-6.8c2.9-6.9,9.3-11.2,16.6-11.2c8.8,0,16.2,6.3,17.7,15c0.3,1.1,0.3,2.2,0.3,3
			c0,1.8-0.2,3.7-0.7,5.5c-0.5,1.9-2.4,3-4.3,2.5c-1.9-0.5-3-2.4-2.5-4.3c0.3-1.2,0.5-2.4,0.5-3.6c0-0.3,0-1,0-1.2
			C66-50.7,66-50.8,66-51c-0.4-2.6-1.7-4.9-3.6-6.6c-1.9-1.7-4.4-2.7-7.2-2.7c-4.4,0-8.3,2.6-10.1,6.8c-0.6,1.3-0.8,2.7-0.8,4.1
			c0,0.6,0.1,1,0.2,1.8l0.1,0.6c0,0.2,0.1,0.4,0.1,0.6c0,0.1,0,0.1,0.1,0.2c0.5,1.6,1.3,3.1,2.3,4.1c1.4,1.4,1.4,3.6,0,5
			C46.4-36.3,45.5-36,44.6-36z M85.6-35.1c-1.4,0-2.5-1.1-2.5-2.5v-1.5c0-5.6-4.6-10.2-10.2-10.2c-1.1,0-2.1,0.2-3.1,0.4l-0.9-5
			c1.1-0.2,2.4-0.4,4-0.4c8.4,0,15.3,6.8,15.3,15.3v1.5C88.2-36.3,87-35.1,85.6-35.1z M86.7-3.3c-6.2,0-12-3-15.6-8
			c-1.1-1.6-0.8-3.8,0.8-4.9c1.6-1.1,3.8-0.8,4.9,0.8c2.3,3.2,6,5.1,9.9,5.1c3.4,0,6.4-1.4,8.8-3.9c2.1-2.2,3.2-5.1,3.2-8.1v-0.8
			c-0.4-6.3-5.6-11.2-12-11.2h-1.2c-2.1,0.2-3.9,0.8-5.6,2c-1.6,1.1-3.8,0.7-4.9-0.9c-1.1-1.6-0.7-3.8,0.9-4.9
			c2.8-1.9,5.9-3,9.2-3.2c0.1,0,0.2,0,0.3,0h1.3c10.2,0,18.6,7.9,19.1,18c0,0.1,0,0.1,0,0.2v0.9c0,4.8-1.8,9.4-5.1,12.9
			C96.9-5.5,92-3.3,86.7-3.3z M104.4-6c-3.5,0-6.8-1.8-8.5-4.8c-0.7-1.2-0.3-2.8,0.9-3.5c1.2-0.7,2.8-0.3,3.5,0.9
			c0.9,1.4,2.4,2.3,4.2,2.3c2.7,0,5.2-2.4,5.2-5.2s-2.4-5.2-5.2-5.2c-0.3,0-1,0.1-1.4,0.3c-1.3,0.4-2.8-0.3-3.2-1.6
			c-0.4-1.3,0.3-2.8,1.6-3.2c0.4-0.1,1.7-0.5,3-0.5c5.5,0,10.2,4.7,10.2,10.2S110-6,104.4-6z"/>
	</g>
	<g id="Regular-M" transform="matrix(1 0 0 1 1391.32 1126)">
		<path d="M32.2-9.5c1.2-1.2,1.2-3.1,0-4.2c-1.2-1.2-3.1-1.2-4.2,0c-1.8,1.8-4.3,2.8-7.1,2.8c-5.8,0-10.5-4.7-10.5-10.5
			c0-6,4.7-10.8,10.5-10.8c0.5,0,1.2,0,1.5,0.1c1.6,0.5,3.2-0.3,3.7-1.9c0.5-1.6-0.3-3.3-1.9-3.8c-1.1-0.4-2.2-0.4-3.3-0.4
			c-9.1,0-16.5,7.5-16.5,16.8c0,9.1,7.4,16.5,16.5,16.5C25.3-4.9,29.2-6.5,32.2-9.5z M81.5-27.3c0-12.3-10-22.4-22.4-22.4
			s-22.4,10-22.4,22.4c0,12.3,10,22.4,22.4,22.4S81.5-14.9,81.5-27.3z M75.5-27.3c0,9.1-7.4,16.4-16.4,16.4s-16.4-7.4-16.4-16.4
			c0-9.1,7.4-16.4,16.4-16.4S75.5-36.3,75.5-27.3z M47.5-14.5c0.1-1.6-5.9-2-6-0.3c-0.1,2.3-2.3,4.2-4.6,4.2c-2.4,0-3.6-1.8-4-2.5
			c-0.3-0.6-0.5-1.4-0.5-2.3c0-1,0.2-1.5,0.4-1.9c0.1-0.1,0.1-0.2,0.2-0.3c0.8-1.5,2.3-2.4,4.2-2.4c0.2,0,0.2,0,0.2,0
			c0.1,0,0.2,0.1,0.4,0.2c0.3,0.1,0.5,0.3,0.9,0.4c1.5,0.7,3.3,0,4-1.5s0-3.3-1.5-4c-0.2-0.1-0.4-0.2-0.6-0.3
			c-0.9-0.5-1.8-0.9-3.4-0.9c-4.1,0-7.7,2.1-9.5,5.6c-1.1,1.8-1.3,3.6-1.3,5c0,1.8,0.4,3.6,1.3,5.1c1.9,3.5,5.4,5.6,9.3,5.6
			C42.5-4.6,47.2-9,47.5-14.5z M32.8-17.3c0.8-1.4,0.3-3.3-1.2-4.1c-3.5-1.9-5.8-6-5.8-10.1c0-1,0.2-2.2,0.3-3
			c0.9-3.4,3-6.1,6.1-7.6c2.1-0.9,3.8-1.2,5.4-1.2c1,0,1.6,0,2.5,0.2c1.6,0.3,3.2-0.8,3.5-2.4c0.3-1.6-0.8-3.2-2.4-3.5
			c-1.4-0.2-2.4-0.2-3.5-0.2c-3.2,0-5.8,0.9-7.8,1.7c-0.1,0-0.1,0.1-0.2,0.1c-4.6,2.3-8,6.5-9.3,11.6c0,0.1,0,0.1,0,0.2
			c-0.2,1.1-0.4,2.7-0.4,4.2c0,6.4,3.5,12.4,8.9,15.4c0.5,0.2,0.9,0.4,1.4,0.4C31.2-15.7,32.2-16.3,32.8-17.3z M32.5-43.2
			c0.9-0.9,0.9-2.3,0-3.2c-1-1-1.5-2.2-1.5-3.6c0-2.7,2.2-4.8,4.8-4.8c1.8,0,3.1,1.1,3.7,1.8c0.8,0.9,2.2,1,3.2,0.2
			c0.9-0.8,1-2.2,0.2-3.2c-1.9-2.1-4.4-3.4-7.1-3.4c-5.1,0-9.3,4.2-9.3,9.3c0,2.6,1,4.9,2.8,6.8c0.4,0.4,1,0.7,1.6,0.7
			C31.5-42.6,32.1-42.8,32.5-43.2z M46.2-37.3c1.2-1.2,1.2-3.1,0-4.2c-1.1-1.1-1.9-2.6-2.4-4.3c0-0.1-0.1-0.2-0.1-0.2c0,0,0,0,0,0
			c0-0.2,0-0.4,0-0.5l-0.1-0.6c-0.1-0.7-0.2-1.2-0.2-1.8c0-1.4,0.3-2.8,0.9-4.2c1.8-4.3,5.8-7,10.4-7c5.5,0,10.2,4,11.1,9.5
			c0,0.2,0.1,0.3,0.1,0.4c0.1,0.2,0.1,0.9,0.1,1.3c0,1.2-0.2,2.5-0.5,3.7c-0.4,1.6,0.5,3.2,2.1,3.7c1.6,0.4,3.2-0.5,3.7-2.1
			c0.5-1.7,0.7-3.5,0.7-5.2c0-0.8,0-1.9-0.3-2.9c-1.4-8.3-8.5-14.4-16.9-14.4c-7,0-13.1,4.1-15.9,10.7c-0.9,2.1-1.3,4.3-1.3,6.5
			c0,1.2,0.2,2.1,0.3,3l0.1,0.3c0,0.5,0.1,1.1,0.4,1.9c0.8,2.5,2.1,4.9,3.9,6.6c0.6,0.6,1.3,0.9,2.1,0.9S45.6-36.7,46.2-37.3z
			 M86.6-37.6v-1.5c0-8.1-6.6-14.8-14.8-14.8c-1.5,0-2.8,0.2-3.9,0.4l0.8,4.4c1-0.2,2-0.4,3.1-0.4c5.7,0,10.3,4.6,10.3,10.3v1.5
			c0,1.2,1,2.2,2.2,2.2S86.6-36.4,86.6-37.6z M98.9-10.2c3.1-3.4,4.9-7.8,4.9-12.4v-0.9c0,0,0-0.1,0-0.1
			c-0.5-9.7-8.5-17.3-18.3-17.3h-1.3c-0.1,0-0.1,0-0.2,0c-3.2,0.2-6.1,1.2-8.8,3.1c-1.4,0.9-1.7,2.8-0.8,4.1s2.8,1.7,4.1,0.8
			c1.8-1.2,3.7-1.9,5.8-2.1h1.2c6.6,0,12,5.1,12.3,11.5v0.8c0,3.1-1.2,6-3.3,8.3c-2.5,2.6-5.6,4-9.1,4c-4,0-7.8-2-10.1-5.2
			c-1-1.3-2.8-1.6-4.2-0.7c-1.3,1-1.6,2.8-0.7,4.2c3.5,4.8,9.1,7.7,15,7.7C90.6-4.3,95.3-6.4,98.9-10.2z M112.7-16.5
			c0-5.3-4.5-9.8-9.8-9.8c-1,0-2.2,0.3-2.9,0.5c-1.2,0.4-1.8,1.7-1.4,2.8c0.4,1.2,1.7,1.8,2.8,1.4c0.5-0.2,1.1-0.3,1.5-0.3
			c2.8,0,5.3,2.5,5.3,5.3c0,2.8-2.5,5.3-5.3,5.3c-1.8,0-3.5-0.9-4.3-2.4c-0.6-1.1-2-1.4-3.1-0.8c-1.1,0.6-1.4,2-0.8,3.1
			c1.7,2.8,4.8,4.6,8.2,4.6C108.2-6.7,112.7-11.2,112.7-16.5z"/>
	</g>
	<g id="Light-M" transform="matrix(1 0 0 1 1095.44 1126)">
		<path d="M31.4-10.2c1-1,1-2.5,0-3.5c-1-1-2.5-1-3.5,0c-1.9,1.9-4.4,2.9-7.4,2.9c-6,0-10.9-4.9-10.9-10.9c0-6.2,4.9-11.2,10.9-11.2
			c0.5,0,1.3,0,1.6,0.1c1.3,0.4,2.7-0.3,3.1-1.5c0.4-1.3-0.3-2.7-1.5-3.1c-1-0.3-2.1-0.3-3.1-0.3c-8.7,0-15.8,7.2-15.8,16.1
			c0,8.7,7.1,15.8,15.8,15.8C24.8-5.9,28.6-7.4,31.4-10.2z M79.9-27.4c0-11.9-9.7-21.5-21.5-21.5s-21.5,9.7-21.5,21.5
			S46.5-5.9,58.3-5.9S79.9-15.5,79.9-27.4z M75-27.4c0,9.2-7.5,16.6-16.6,16.6s-16.6-7.5-16.6-16.6s7.5-16.6,16.6-16.6
			S75-36.6,75-27.4z M46.3-14.9c0.1-1.3-1-2.5-2.3-2.6c-1.4-0.1-2.5,1-2.6,2.3c-0.1,2.5-2.5,4.6-5,4.6c-1.9,0-3.5-1-4.4-2.7
			c-0.4-0.7-0.6-1.6-0.6-2.4c0-1,0.1-1.5,0.5-2.1c0-0.1,0.1-0.1,0.1-0.2c0.8-1.7,2.5-2.7,4.6-2.7c0.3,0,0.3,0,0.8,0.2
			c0.2,0.1,0.5,0.3,0.8,0.4c1.2,0.6,2.7,0,3.2-1.2c0.6-1.2,0-2.7-1.2-3.2c-0.2-0.1-0.4-0.2-0.6-0.3c-0.7-0.4-1.5-0.8-3.1-0.8
			c-3.9,0-7.2,2-8.9,5.3c-1.1,1.7-1.2,3.4-1.2,4.6c0,1.7,0.4,3.4,1.2,4.8c1.8,3.3,5.1,5.3,8.7,5.3C41.6-5.6,46-9.8,46.3-14.9z
			 M31.9-17.8c0.6-1.2,0.2-2.7-1-3.3c-3.6-2-6-6.1-6-10.4c0-1.1,0.2-2.2,0.3-3.1c0.9-3.5,3.1-6.2,6.2-7.8c2.2-0.9,3.8-1.3,5.6-1.3
			c1,0,1.6,0,2.5,0.2c1.3,0.2,2.6-0.6,2.8-2s-0.6-2.6-2-2.8c-1.3-0.2-2.3-0.2-3.4-0.2c-3.1,0-5.6,0.9-7.5,1.7c0,0-0.1,0-0.1,0.1
			c-4.4,2.2-7.7,6.2-8.9,11.1c0,0.1,0,0.1,0,0.2c-0.2,1.1-0.4,2.6-0.4,4.1c0,6.1,3.3,11.9,8.5,14.7c0.4,0.2,0.8,0.3,1.2,0.3
			C30.6-16.6,31.5-17,31.9-17.8z M31.9-43.3c0.8-0.8,0.8-2,0-2.8c-1.1-1.1-1.6-2.3-1.6-3.7c0-2.8,2.2-5,5-5c1.9,0,3.2,1.2,3.8,1.9
			c0.7,0.8,1.9,0.9,2.8,0.2c0.8-0.7,0.9-1.9,0.2-2.8c-1.8-2-4.2-3.2-6.8-3.2c-4.9,0-8.9,4-8.9,8.9c0,2.5,0.9,4.7,2.7,6.5
			c0.4,0.4,0.9,0.6,1.4,0.6C31-42.7,31.5-42.9,31.9-43.3z M45.2-37.6c1-1,1-2.5,0-3.5c-1.1-1.1-2-2.7-2.5-4.4c0-0.1-0.1-0.2-0.1-0.3
			c0,0,0-0.1,0-0.1c0-0.1,0-0.3,0-0.4l-0.1-0.6c-0.1-0.7-0.2-1.3-0.2-1.9c0-1.5,0.3-2.9,0.9-4.3c1.9-4.5,6-7.2,10.7-7.2
			c5.7,0,10.5,4.1,11.4,9.8c0,0.1,0.1,0.3,0.1,0.4c0.1,0.3,0.1,1,0.1,1.4c0,1.2-0.2,2.5-0.5,3.8c-0.3,1.3,0.4,2.6,1.7,3
			c1.3,0.3,2.6-0.4,3-1.7c0.4-1.7,0.7-3.4,0.7-5c0-0.8,0-1.8-0.3-2.7c-1.4-8-8.1-13.7-16.2-13.7c-6.7,0-12.5,3.9-15.2,10.2
			c-0.8,2-1.3,4.1-1.3,6.2c0,1.1,0.2,2,0.3,2.8l0.1,0.3c0,0.5,0,1,0.3,1.7c0.7,2.4,2,4.7,3.7,6.3c0.5,0.5,1.1,0.7,1.7,0.7
			C44.1-36.9,44.7-37.2,45.2-37.6z M85.2-37.6v-1.5c0-7.9-6.4-14.3-14.3-14.3c-1.4,0-2.6,0.2-3.8,0.4l0.7,3.9c1-0.2,2-0.4,3.1-0.4
			c5.7,0,10.4,4.7,10.4,10.4v1.5c0,1.1,0.9,2,2,2C84.3-35.6,85.2-36.5,85.2-37.6z M97-11c3-3.2,4.7-7.4,4.7-11.8v-0.9
			c0,0,0-0.1,0-0.1c-0.5-9.3-8.2-16.5-17.5-16.5h-1.3c-0.1,0-0.1,0-0.2,0c-3.1,0.2-5.8,1.2-8.4,3c-1.1,0.8-1.4,2.3-0.6,3.4
			c0.8,1.1,2.3,1.4,3.4,0.6c1.8-1.3,3.8-2,6-2.1h1.2c6.7,0,12.3,5.2,12.6,11.8v0.8c0,3.2-1.2,6.2-3.4,8.5c-2.5,2.7-5.7,4.1-9.3,4.1
			c-4.1,0-7.9-2-10.3-5.3c-0.8-1.1-2.3-1.3-3.4-0.6c-1.1,0.8-1.3,2.3-0.6,3.4c3.3,4.6,8.7,7.4,14.3,7.4C89-5.3,93.6-7.3,97-11z
			 M110.7-16.8c0-5.1-4.3-9.4-9.4-9.4c-1,0-2.1,0.3-2.8,0.5c-1,0.3-1.6,1.4-1.2,2.5c0.3,1,1.4,1.6,2.5,1.2c0.5-0.2,1.2-0.3,1.5-0.3
			c2.9,0,5.5,2.6,5.5,5.5s-2.6,5.5-5.5,5.5c-1.9,0-3.6-0.9-4.5-2.5c-0.6-0.9-1.7-1.2-2.7-0.7c-0.9,0.6-1.2,1.8-0.7,2.7
			c1.6,2.7,4.6,4.4,7.9,4.4C106.4-7.5,110.7-11.8,110.7-16.8z"/>
	</g>
	<g id="Thin-M" transform="matrix(1 0 0 1 799.828 1126)">
		<path d="M30.2-11c0.8-0.8,0.8-2,0-2.7c-0.8-0.8-2-0.8-2.7,0c-2,2-4.6,3-7.6,3c-6.2,0-11.2-5-11.2-11.2c0-6.3,5-11.4,11.2-11.4
			c0.6,0,1.4,0,1.7,0.1c1,0.3,2.1-0.2,2.4-1.2c0.3-1-0.2-2.1-1.2-2.4c-0.9-0.3-1.9-0.3-2.9-0.3c-8.3,0-15,6.9-15,15.3
			c0,8.3,6.7,15,15,15C23.9-6.9,27.5-8.3,30.2-11z M77.7-27.6c0-11.4-9.3-20.7-20.7-20.7S36.3-39,36.3-27.6
			c0,11.4,9.3,20.7,20.7,20.7S77.7-16.2,77.7-27.6z M73.8-27.6c0,9.3-7.6,16.8-16.8,16.8s-16.8-7.6-16.8-16.8S47.7-44.4,57-44.4
			S73.8-36.8,73.8-27.6z M44.8-15.2c0.1-1.1-0.8-2-1.8-2c-1.1-0.1-2,0.8-2,1.8c-0.1,2.7-2.6,5-5.4,5c-2,0-3.7-1.1-4.8-2.9
			c-0.4-0.7-0.6-1.7-0.6-2.6c0-1,0.2-1.7,0.6-2.3c0-0.1,0.1-0.1,0.1-0.2c0.9-1.8,2.7-2.9,4.9-2.9c0.4,0,0.5,0,1,0.3
			c0.2,0.1,0.5,0.3,0.8,0.4c1,0.4,2.1,0,2.5-1c0.4-1,0-2.1-1-2.5c-0.2-0.1-0.4-0.2-0.6-0.3c-0.7-0.3-1.4-0.7-2.8-0.7
			c-3.6,0-6.7,1.8-8.3,4.9c-1,1.6-1.1,3.1-1.1,4.3c0,1.6,0.4,3.2,1.1,4.5c1.7,3.1,4.7,5,8.1,5C40.4-6.6,44.5-10.5,44.8-15.2z
			 M30.7-18.4c0.5-0.9,0.2-2.1-0.8-2.6c-3.7-2-6.1-6.2-6.1-10.6c0-1.1,0.2-2.2,0.3-3.1c0.9-3.6,3.2-6.4,6.4-8
			c2.2-0.9,3.9-1.3,5.7-1.3c1,0,1.7,0,2.5,0.2c1,0.2,2-0.5,2.2-1.5c0.2-1-0.5-2-1.5-2.2c-1.2-0.2-2.1-0.2-3.2-0.2
			c-2.9,0-5.4,0.8-7.2,1.6c0,0-0.1,0-0.1,0.1c-4.2,2.1-7.3,5.9-8.5,10.6c0,0,0,0.1,0,0.1C20.2-34.4,20-33,20-31.6
			c0,5.8,3.2,11.3,8.1,14c0.3,0.2,0.6,0.2,0.9,0.2C29.7-17.4,30.4-17.7,30.7-18.4z M30.9-43.3c0.7-0.7,0.7-1.7,0-2.4
			c-1.1-1.1-1.6-2.3-1.6-3.8c0-2.8,2.3-5.1,5.1-5.1c2,0,3.3,1.2,3.9,1.9c0.6,0.7,1.7,0.8,2.4,0.2c0.7-0.6,0.8-1.7,0.2-2.4
			c-1.7-2-4.1-3.1-6.5-3.1c-4.7,0-8.5,3.8-8.5,8.5c0,2.4,0.9,4.5,2.6,6.2c0.3,0.3,0.8,0.5,1.2,0.5C30.1-42.8,30.6-43,30.9-43.3z
			 M43.7-37.9c0.8-0.8,0.8-2,0-2.7c-1.2-1.2-2.1-2.8-2.6-4.6c0-0.1-0.1-0.2-0.1-0.3c0-0.1,0-0.1,0-0.2c0-0.1,0-0.2,0-0.3l-0.1-0.6
			c-0.1-0.7-0.2-1.3-0.2-2c0-1.5,0.3-3,0.9-4.4c1.9-4.6,6.1-7.4,10.9-7.4c5.8,0,10.7,4.2,11.7,10c0,0.1,0,0.2,0.1,0.3
			c0.1,0.3,0.1,1.1,0.1,1.5c0,1.3-0.2,2.6-0.5,3.8c-0.3,1,0.3,2.1,1.4,2.4c1,0.3,2.1-0.3,2.4-1.4c0.4-1.6,0.6-3.2,0.6-4.8
			c0-0.8,0-1.7-0.2-2.6c-1.3-7.6-7.8-13.1-15.4-13.1c-6.4,0-11.9,3.7-14.5,9.8c-0.8,1.9-1.2,3.9-1.2,5.9c0,1,0.2,1.8,0.3,2.7
			l0.1,0.4c0,0.5,0,0.9,0.3,1.6c0.7,2.3,1.9,4.5,3.5,6.1c0.4,0.4,0.9,0.6,1.4,0.6S43.4-37.6,43.7-37.9z M83.1-37.6V-39
			c0-7.6-6.2-13.8-13.8-13.8c-1.4,0-2.5,0.2-3.7,0.4l0.6,3.3c1-0.2,2-0.4,3.1-0.4c5.8,0,10.4,4.7,10.4,10.4v1.4
			c0,0.9,0.8,1.7,1.7,1.7C82.4-35.9,83.1-36.6,83.1-37.6z M94.7-11.7c2.9-3.1,4.5-7.1,4.5-11.3v-0.9c0,0,0-0.1,0-0.1
			c-0.4-8.8-7.8-15.8-16.7-15.8h-1.3c0,0-0.1,0-0.1,0c-2.9,0.2-5.6,1.1-8.1,2.8c-0.9,0.6-1.1,1.8-0.5,2.7c0.6,0.9,1.8,1.1,2.7,0.5
			c1.9-1.3,3.9-2,6.1-2.2h1.2c6.9,0,12.5,5.3,12.9,12.1v0.8c0,3.2-1.2,6.3-3.4,8.7c-2.6,2.7-5.8,4.2-9.5,4.2c-4.2,0-8.1-2-10.6-5.4
			c-0.6-0.9-1.8-1.1-2.7-0.4c-0.9,0.6-1.1,1.8-0.4,2.7c3.2,4.4,8.3,7.1,13.7,7.1C87-6.3,91.4-8.2,94.7-11.7z M108.3-17.2
			c0-4.9-4.1-9-9-9c-0.9,0-2,0.2-2.6,0.5c-0.9,0.3-1.4,1.2-1.1,2.1c0.3,0.9,1.2,1.4,2.1,1.1c0.5-0.2,1.2-0.3,1.6-0.3
			c3,0,5.6,2.6,5.6,5.6s-2.6,5.6-5.6,5.6c-1.9,0-3.7-0.9-4.6-2.5c-0.5-0.8-1.5-1.1-2.3-0.6c-0.8,0.5-1.1,1.5-0.6,2.3
			c1.5,2.6,4.4,4.2,7.5,4.2C104.2-8.2,108.3-12.3,108.3-17.2z"/>
	</g>
	<g id="Ultralight-M" transform="matrix(1 0 0 1 503.679 1126)">
		<path d="M28.7-11.8c0.6-0.6,0.6-1.4,0-2c-0.6-0.6-1.5-0.6-2,0c-2,2-4.7,3.1-7.8,3.1c-6.3,0-11.4-5.1-11.4-11.4
			c0-6.5,5.1-11.7,11.4-11.7c0.7,0,1.5,0,1.8,0.1c0.7,0.2,1.5-0.2,1.8-0.9c0.2-0.7-0.2-1.5-0.9-1.8c-0.8-0.3-1.8-0.3-2.7-0.3
			c-7.9,0-14.3,6.5-14.3,14.5c0,7.9,6.4,14.3,14.3,14.3C22.7-7.9,26.1-9.2,28.7-11.8z M75.1-27.7c0-10.9-8.9-19.8-19.8-19.8
			s-19.8,8.9-19.8,19.8c0,10.9,8.9,19.8,19.8,19.8S75.1-16.8,75.1-27.7z M72.2-27.7c0,9.4-7.6,17-17,17s-17-7.6-17-17
			c0-9.4,7.6-17,17-17S72.2-37.1,72.2-27.7z M42.8-15.6c0-0.8-0.6-1.4-1.3-1.5c-0.8,0-1.4,0.6-1.5,1.3c-0.1,2.9-2.8,5.4-5.8,5.4
			c-2.2,0-4-1.1-5.1-3.1c-0.4-0.8-0.7-1.8-0.7-2.8c0-1.1,0.2-1.8,0.6-2.5c0,0,0.1-0.1,0.1-0.1c1-1.9,2.9-3.1,5.2-3.1
			c0.6,0,0.7,0.1,1.2,0.3c0.2,0.1,0.5,0.2,0.8,0.4c0.7,0.3,1.6,0,1.9-0.7c0.3-0.7,0-1.6-0.7-1.9c-0.2-0.1-0.4-0.2-0.6-0.3
			c-0.6-0.3-1.3-0.7-2.5-0.7c-3.4,0-6.3,1.7-7.8,4.6c-0.9,1.5-1,2.9-1,4c0,1.5,0.4,2.9,1,4.2c1.6,2.9,4.4,4.6,7.6,4.6
			C38.7-7.6,42.5-11.2,42.8-15.6z M29-18.9c0.4-0.7,0.1-1.5-0.6-1.9c-3.8-2.1-6.2-6.3-6.2-10.8c0-1.1,0.2-2.3,0.3-3.2
			c1-3.7,3.3-6.6,6.5-8.2c2.2-0.9,4-1.3,5.8-1.3c1,0,1.7,0,2.6,0.2c0.8,0.1,1.5-0.4,1.6-1.1s-0.4-1.5-1.1-1.6
			c-1.2-0.2-2-0.2-3.1-0.2c-2.2,0-4.3,0.5-6.9,1.6c-2.7,1.3-4.9,3.4-6.4,5.9c-0.8,1.3-1.4,2.7-1.7,4.2c0,0,0,0.1,0,0.1
			c-0.2,1-0.4,2.4-0.4,3.7c0,5.5,3,10.8,7.7,13.3c0.2,0.1,0.4,0.2,0.7,0.2C28.3-18.2,28.7-18.4,29-18.9z M29.5-43.3
			c0.6-0.6,0.6-1.5,0-2c-1.1-1.1-1.7-2.4-1.7-3.9c0-2.9,2.4-5.3,5.3-5.3c1.5,0,2.9,0.7,4,2c0.5,0.6,1.4,0.7,2,0.1
			c0.6-0.5,0.7-1.4,0.1-2c-1.6-1.9-3.9-2.9-6.2-2.9c-4.5,0-8.1,3.6-8.1,8.1c0,2.3,0.8,4.3,2.5,5.9c0.3,0.3,0.6,0.4,1,0.4
			C28.9-42.9,29.2-43,29.5-43.3z M42-38.2c0.6-0.6,0.6-1.5,0-2c-1.2-1.2-2.1-2.9-2.7-4.7c0-0.1-0.1-0.2-0.1-0.3c0-0.1,0-0.2,0-0.3
			c0-0.1,0-0.2,0-0.3l-0.1-0.6c-0.1-0.8-0.3-1.3-0.3-2c0-1.5,0.3-3.1,0.9-4.5c2-4.7,6.2-7.5,11.2-7.5c6,0,11,4.3,11.9,10.2
			c0,0.1,0,0.2,0.1,0.2c0.1,0.3,0.1,1.2,0.1,1.6c0,1.3-0.2,2.6-0.5,3.9c-0.2,0.8,0.2,1.5,1,1.7c0.8,0.2,1.5-0.2,1.7-1
			c0.4-1.5,0.6-3.1,0.6-4.6c0-0.7,0-1.6-0.2-2.4c-1.2-7.3-7.4-12.5-14.7-12.5c-6.1,0-11.4,3.6-13.8,9.3c-0.8,1.8-1.1,3.7-1.1,5.6
			c0,1,0.1,1.7,0.3,2.6l0.1,0.4c0,0.4,0,0.9,0.3,1.4c0.7,2.2,1.8,4.3,3.3,5.8c0.3,0.3,0.6,0.4,1,0.4C41.3-37.8,41.7-37.9,42-38.2z
			 M80.6-37.5v-1.4c0-7.3-6-13.3-13.3-13.3c-1.4,0-2.5,0.2-3.6,0.4l0.5,2.8c1-0.2,1.9-0.4,3-0.4c5.8,0,10.5,4.7,10.5,10.5v1.4
			c0,0.8,0.5,0.2,1.3,0.2S80.6-36.7,80.6-37.5z M92-12.5c2.7-3,4.3-6.8,4.3-10.8l0-0.9c-0.4-8.4-7.4-15-16-15H79c0,0-0.1,0-0.1,0
			c-2.8,0.2-5.3,1.1-7.7,2.7c-0.6,0.4-0.8,1.3-0.4,2c0.4,0.6,1.3,0.8,2,0.4c1.9-1.3,4-2,6.2-2.2h1.2c7,0,12.8,5.4,13.1,12.3v0.9
			c0,3.3-1.2,6.4-3.5,8.9c-2.6,2.8-5.9,4.3-9.6,4.3c-1.1,0-2.1-0.1-3.1-0.4c-3-0.7-5.8-2.6-7.6-5.2c-0.5-0.6-1.3-0.8-2-0.3
			c-0.6,0.5-0.8,1.3-0.3,2c3,4.2,7.9,6.7,13,6.7C84.7-7.3,88.8-9.1,92-12.5z M105.4-17.5c0-4.7-3.9-8.6-8.6-8.6
			c-0.9,0-1.9,0.2-2.5,0.4c-0.7,0.2-1.1,1-0.9,1.8c0.2,0.7,1,1.1,1.8,0.9c0.4-0.1,1.1-0.3,1.6-0.3c3.1,0,5.8,2.7,5.8,5.8
			c0,3.1-2.7,5.8-5.8,5.8c-2,0-3.8-1-4.7-2.6c-0.4-0.7-1.3-0.9-1.9-0.5c-0.7,0.4-0.9,1.3-0.5,1.9c1.5,2.5,4.2,4,7.2,4
			C101.4-8.9,105.4-12.8,105.4-17.5z"/>
	</g>
	<g id="Black-S" transform="matrix(1 0 0 1 2884.57 696)">
		<path d="M-1.8-7.5c-8.8,0-16-7.2-16-16c0-9,7.2-16.3,16-16.3c1.1,0,2.3,0,3.5,0.4c2.4,0.8,3.7,3.4,2.9,5.8c-0.8,2.3-3.2,3.6-5.6,3
			c-0.2,0-0.6,0-0.8,0c-3.7,0-6.8,3.2-6.8,7c0,3.8,3,6.8,6.8,6.8c1.8,0,3.4-0.6,4.5-1.7c1.8-1.8,4.7-1.8,6.5,0s1.8,4.7,0,6.5
			C6.3-9.1,2.5-7.5-1.8-7.5z M30.5-7.5C19-7.5,9.6-16.9,9.6-28.5S19-49.4,30.5-49.4S51.5-40,51.5-28.5S42.1-7.5,30.5-7.5z
			 M30.5-40.2c-6.5,0-11.7,5.3-11.7,11.7s5.3,11.7,11.7,11.7S42.3-22,42.3-28.5S37-40.2,30.5-40.2z M6.2-16.6
			c-0.7,0-1.5-0.2-2.2-0.6c-5.2-2.8-8.6-8.6-8.6-14.8c0-1.5,0.2-2.9,0.4-3.9c0-0.1,0-0.2,0.1-0.3c1.3-4.9,4.5-9,9-11.1
			c0.1,0,0.2-0.1,0.3-0.1c1.8-0.7,4.3-1.6,7.4-1.6c1,0,2,0,3.3,0.2c2.5,0.5,4.2,2.9,3.7,5.4c-0.5,2.5-2.8,4.2-5.4,3.7
			c-0.5-0.1-0.8-0.1-1.7-0.1c-1.1,0-2.2,0.2-3.7,0.9c-1.9,1-3.3,2.7-3.9,4.9c-0.1,0.6-0.2,1.4-0.2,2.1c0,2.8,1.5,5.4,3.8,6.7
			c2.2,1.2,3.1,4,1.8,6.3C9.4-17.5,7.8-16.6,6.2-16.6z M6.7-40.3c-0.8,0-1.5-0.3-2.1-0.9c-1.8-1.8-2.7-4-2.7-6.4
			c0-4.9,4-8.9,8.9-8.9c2.5,0,5,1.2,6.7,3.2c1.1,1.2,0.9,3.1-0.3,4.1c-1.2,1.1-3.1,0.9-4.1-0.3c-0.4-0.4-1.2-1.2-2.3-1.2
			c-1.6,0-3,1.4-3,3c0,0.9,0.3,1.6,1,2.3c1.1,1.1,1.1,3,0,4.1C8.2-40.6,7.5-40.3,6.7-40.3z M17.8-34.1c-1.2,0-2.4-0.4-3.3-1.3
			c-1.7-1.7-3-3.9-3.8-6.4c-0.3-0.8-0.4-1.5-0.4-2l0-0.1c-0.2-0.8-0.3-1.7-0.3-2.9c0-2.1,0.4-4.2,1.3-6.3
			c2.7-6.4,8.6-10.3,15.3-10.3c4,0,7.8,1.4,10.7,3.9c2.9,2.4,4.9,5.9,5.7,9.9c0.3,1.1,0.3,2.1,0.3,2.9c0,1.7-0.2,3.3-0.7,5
			c-0.7,2.5-3.2,3.9-5.6,3.3c-2.5-0.7-3.9-3.2-3.3-5.6c0.2-0.9,0.3-1.7,0.3-2.6c0-0.2,0-0.5,0-0.7c0-0.2-0.1-0.3-0.1-0.5
			c-0.6-3.6-3.6-6.3-7.3-6.3c-3,0-5.6,1.7-6.8,4.6c-0.4,0.9-0.6,1.8-0.6,2.7c0,0.3,0,0.6,0.2,1.2l0.1,0.5c0,0.2,0,0.3,0.1,0.5
			c0,0,0,0,0,0c0.3,1.1,0.9,2,1.5,2.7c1.8,1.8,1.8,4.7,0,6.5C20.2-34.5,19-34.1,17.8-34.1z M51.8-34.2c-1.6,0-2.9-1.3-2.9-2.9v-1.3
			c0-4.2-3.4-7.6-7.6-7.6c-0.8,0-1.6,0.1-2.4,0.3l-1-5.8c1-0.2,2.1-0.4,3.5-0.4c7.4,0,13.5,6.1,13.5,13.5v1.3
			C54.7-35.5,53.4-34.2,51.8-34.2z M52.6-7c-5.6,0-11-2.8-14.3-7.4c-1.5-2.1-1-4.9,1.1-6.4c2.1-1.5,4.9-1,6.4,1.1
			c1.6,2.2,4.1,3.5,6.8,3.5c2.9,0,4.9-1.5,6.1-2.7c1.4-1.5,2.2-3.5,2.2-5.6v-0.6c-0.3-4.3-3.9-7.7-8.3-7.7h-0.9
			c-1.4,0.1-2.6,0.6-3.8,1.4c-2.1,1.4-5,0.9-6.4-1.2c-1.4-2.1-0.9-5,1.2-6.4c2.6-1.8,5.4-2.7,8.5-3c0.1,0,0.2,0,0.3,0h1.1
			c9.4,0,17,7.3,17.5,16.5c0,0.1,0,0.2,0,0.2v0.8c0,4.4-1.7,8.6-4.7,11.8C62.1-9,57.5-7,52.6-7z M67.3-10.1c-3.2,0-6.2-1.7-7.8-4.4
			c-0.8-1.4-0.4-3.2,1-4c1.4-0.8,3.2-0.4,4,1c0.6,0.9,1.6,1.5,2.8,1.5c1.8,0,3.4-1.6,3.4-3.4c0-1.8-1.6-3.4-3.4-3.4
			c-0.2,0-0.6,0.1-0.9,0.2c-1.5,0.5-3.2-0.3-3.7-1.9c-0.5-1.5,0.3-3.2,1.9-3.7c0.3-0.1,1.6-0.5,2.8-0.5c5,0,9.3,4.3,9.3,9.3
			C76.6-14.4,72.4-10.1,67.3-10.1z M22.8-17.6c-0.3,5.7-5.2,10.3-11,10.3c-4.1,0-7.7-2.2-9.7-5.8c-0.9-1.6-1.3-3.4-1.3-5.3
			c0-1.3,0.1-3.2,1.3-5.2c1.9-3.6,5.6-5.8,9.8-5.8c1.8,0,4,1.1,4.2,1.2c1.9,0.9,2.9,2.8,2.7,4.8l-3.3,2.9l-1.7,1.1
			c-0.5,0-2-0.6-2.2-0.7c-0.5,0.1-1.1,0.3-1.4,0.9c-0.1,0.1-0.1,0.3-0.2,0.4c0,0,0,0.1,0,0.5c0,0.3,0.1,0.7,0.2,0.9
			c0.3,0.5,0.7,1,1.6,1c0.8,0,1.7-0.8,1.8-1.6c0-0.3,2.3-2.3,2.3-2.3l2.6-2.1C21.1-22.2,23-20.1,22.8-17.6z"/>
	</g>
	<g id="Heavy-S" transform="matrix(1 0 0 1 2588.47 696)">
		<path d="M-2.1-8.3c-8.5,0-15.4-6.9-15.4-15.4c0-8.6,6.9-15.6,15.4-15.6c1,0,2.2,0,3.3,0.4c2.2,0.7,3.3,3.1,2.6,5.2
			c-0.7,2.1-2.9,3.3-5,2.7c-0.2,0-0.6,0-0.9,0c-3.9,0-7.1,3.3-7.1,7.4c0,4,3.1,7.1,7.1,7.1c1.9,0,3.5-0.6,4.8-1.8
			c1.6-1.6,4.2-1.6,5.8,0c1.6,1.6,1.6,4.2,0,5.8C5.7-9.8,2.1-8.3-2.1-8.3z M29.8-8.3c-11.2,0-20.3-9.1-20.3-20.3
			c0-11.2,9.1-20.3,20.3-20.3S50-39.7,50-28.5C50-17.4,40.9-8.3,29.8-8.3z M29.8-40.5c-6.6,0-12,5.4-12,12s5.4,12,12,12
			s12-5.4,12-12S36.4-40.5,29.8-40.5z M5.7-17.3c-0.7,0-1.3-0.2-2-0.5c-5-2.7-8.3-8.3-8.3-14.2c0-1.4,0.2-2.8,0.4-3.8
			c0-0.1,0-0.2,0.1-0.3c1.2-4.7,4.4-8.6,8.6-10.7c0.1,0,0.2-0.1,0.2-0.1c1.8-0.7,4.2-1.5,7.1-1.5c1,0,1.9,0,3.2,0.2
			c2.2,0.4,3.7,2.6,3.3,4.8c-0.4,2.2-2.6,3.7-4.8,3.3c-0.5-0.1-0.9-0.1-1.7-0.1c-1.2,0-2.3,0.3-3.8,0.9c-2,1-3.5,2.8-4.1,5.1
			c-0.1,0.7-0.2,1.5-0.2,2.2c0,2.9,1.6,5.7,4,7c2,1.1,2.7,3.6,1.7,5.6C8.6-18.1,7.2-17.3,5.7-17.3z M6.4-40.4
			c-0.7,0-1.4-0.3-1.9-0.8c-1.7-1.7-2.6-3.8-2.6-6.2c0-4.7,3.8-8.6,8.6-8.6c2.4,0,4.8,1.1,6.5,3.1c1,1.1,0.8,2.8-0.3,3.8
			c-1.1,1-2.8,0.8-3.8-0.3c-0.4-0.5-1.2-1.2-2.4-1.2c-1.8,0-3.2,1.4-3.2,3.2c0,0.9,0.3,1.7,1,2.4c1,1,1,2.8,0,3.8
			C7.7-40.7,7-40.4,6.4-40.4z M17.3-34.5c-1.1,0-2.1-0.4-2.9-1.2c-1.6-1.6-2.9-3.7-3.6-6.1c-0.3-0.8-0.4-1.4-0.4-1.9l0-0.1
			c-0.1-0.8-0.3-1.6-0.3-2.8c0-2,0.4-4.1,1.2-6c2.6-6.1,8.2-9.9,14.7-9.9c3.4,0,6.6,1.1,9.2,2.9c3.3,2.4,5.7,6,6.5,10.3
			c0.3,1,0.3,2,0.3,2.7c0,1.6-0.2,3.2-0.6,4.8c-0.6,2.2-2.9,3.5-5.1,2.9c-2.2-0.6-3.5-2.9-2.9-5.1c0.2-0.9,0.4-1.8,0.4-2.7
			c0-0.2,0-0.5,0-0.7c0-0.2-0.1-0.3-0.1-0.5c-0.6-3.8-3.8-6.5-7.6-6.5c-3.1,0-5.8,1.9-7.1,4.8c-0.4,0.9-0.6,1.9-0.6,2.9
			c0,0.3,0.1,0.6,0.2,1.2l0.1,0.5c0,0.2,0,0.3,0.1,0.5c0,0,0,0,0,0.1c0.3,1.1,0.9,2.1,1.6,2.8c1.6,1.6,1.6,4.2,0,5.8
			C19.4-34.9,18.3-34.5,17.3-34.5z M50.8-34.5c-1.5,0-2.7-1.2-2.7-2.7v-1.2c0-4.3-3.5-7.7-7.7-7.7c-0.8,0-1.6,0.1-2.4,0.3l-1-5.3
			c1-0.2,2.1-0.4,3.4-0.4c7.2,0,13.1,5.9,13.1,13.1v1.2C53.4-35.7,52.2-34.5,50.8-34.5z M51.7-7.8c-5.4,0-10.6-2.7-13.8-7.1
			c-1.3-1.9-0.9-4.4,0.9-5.8c1.9-1.3,4.4-0.9,5.8,0.9c1.6,2.3,4.3,3.7,7.1,3.7c3,0,5.1-1.5,6.3-2.8c1.5-1.6,2.3-3.6,2.3-5.8v-0.6
			c-0.3-4.5-4-8-8.6-8h-0.9c-1.4,0.1-2.7,0.6-4,1.4c-1.9,1.3-4.5,0.8-5.7-1.1c-1.3-1.9-0.8-4.5,1.1-5.7c2.5-1.7,5.2-2.6,8.2-2.9
			c0.1,0,0.2,0,0.3,0h1.1c9,0,16.4,7,16.9,15.9c0,0.1,0,0.1,0,0.2v0.7c0,4.2-1.6,8.3-4.5,11.4C60.7-9.7,56.3-7.8,51.7-7.8z
			 M66.1-10.6c-3.1,0-6-1.6-7.5-4.2c-0.8-1.3-0.3-2.9,0.9-3.7c1.3-0.8,2.9-0.3,3.7,0.9c0.6,1,1.7,1.6,2.9,1.6c1.9,0,3.6-1.7,3.6-3.6
			s-1.7-3.6-3.6-3.6c-0.2,0-0.6,0.1-1,0.2c-1.4,0.5-2.9-0.3-3.4-1.7c-0.5-1.4,0.3-2.9,1.7-3.4c0.3-0.1,1.5-0.5,2.7-0.5
			c4.9,0,9,4.1,9,9C75.1-14.8,71-10.6,66.1-10.6z M21.7-17.8C21.5-12.4,16.8-8,11.3-8C7.5-8,4-10.1,2.1-13.6c-0.8-1.5-1.2-3.2-1.2-5
			c0-1.2,0.1-3,1.3-4.9C4-26.9,7.5-29,11.5-29c1.7,0,2.7,0.5,3.6,0.9c0.1,0.1,0.2,0.1,0.4,0.2c1.7,0.8,2.6,2.5,2.4,4.2L13.4-20
			c-0.5,0-1.9-0.6-2.1-0.7c-0.6,0-1.4,0.3-1.8,1.1c-0.1,0.1-0.1,0.2-0.2,0.4c0,0.1-0.1,0.2-0.1,0.7c0,0.4,0.1,0.8,0.2,1.1
			c0.3,0.5,0.8,1.2,1.9,1.2c1.1,0,2.1-0.9,2.2-1.9c0-0.6,3.9-4,3.9-3.9c0.2,0,0.3,0,0.5,0C20.1-22.1,21.8-20.1,21.7-17.8z"/>
	</g>
	<g id="Bold-S" transform="matrix(1 0 0 1 2292.43 696)">
		<path d="M-2.4-9.1c-8.1,0-14.8-6.6-14.8-14.8c0-8.3,6.6-15,14.8-15c1,0,2.1,0,3.1,0.4c1.9,0.6,3,2.7,2.3,4.6
			c-0.6,1.9-2.6,2.9-4.5,2.4c-0.2,0-0.6,0-0.9,0c-4.1,0-7.4,3.4-7.4,7.7c0,4.2,3.3,7.4,7.4,7.4c2,0,3.7-0.7,5-1.9
			c1.4-1.4,3.8-1.4,5.2,0c1.4,1.4,1.4,3.8,0,5.2C5.1-10.5,1.6-9.1-2.4-9.1z M29.1-9.1c-10.8,0-19.6-8.8-19.6-19.6
			s8.8-19.6,19.6-19.6s19.6,8.8,19.6,19.6S39.9-9.1,29.1-9.1z M29.1-40.9c-6.7,0-12.2,5.5-12.2,12.2c0,6.7,5.5,12.2,12.2,12.2
			s12.2-5.5,12.2-12.2C41.3-35.4,35.8-40.9,29.1-40.9z M5.3-18c-0.6,0-1.2-0.1-1.8-0.4c-4.8-2.6-7.9-8-7.9-13.7
			c0-1.4,0.2-2.7,0.4-3.7c0-0.1,0-0.2,0.1-0.3c1.2-4.5,4.2-8.3,8.3-10.3c0.1,0,0.1-0.1,0.2-0.1c1.7-0.7,4-1.5,6.9-1.5
			c1,0,1.9,0,3.1,0.2c2,0.4,3.3,2.3,3,4.3c-0.4,2-2.3,3.3-4.3,3c-0.5-0.1-0.9-0.1-1.8-0.1c-1.2,0-2.4,0.3-4,0.9
			c-2.1,1.1-3.6,3-4.3,5.4C3.1-33.6,3-32.8,3-32.1c0,3,1.7,5.9,4.1,7.2c1.8,1,2.4,3.2,1.5,5C7.9-18.6,6.6-18,5.3-18z M5.9-40.5
			c-0.6,0-1.3-0.2-1.7-0.7c-1.6-1.6-2.5-3.7-2.5-6c0-4.5,3.7-8.2,8.2-8.2c2.3,0,4.6,1.1,6.3,3c0.9,1,0.8,2.6-0.2,3.5
			c-1,0.9-2.6,0.8-3.5-0.2c-0.4-0.5-1.3-1.3-2.6-1.3c-1.8,0-3.3,1.5-3.3,3.3c0,1,0.3,1.8,1.1,2.5c1,1,1,2.5,0,3.5
			C7.2-40.8,6.5-40.5,5.9-40.5z M16.7-34.9c-0.9,0-1.9-0.4-2.6-1.1c-1.6-1.6-2.8-3.6-3.5-5.9c-0.3-0.7-0.4-1.3-0.4-1.8l0-0.1
			c-0.1-0.7-0.3-1.6-0.3-2.7c0-2,0.4-3.9,1.2-5.8c2.5-5.9,7.9-9.5,14.2-9.5c7.5,0,13.8,5.3,15.1,12.7c0.2,0.9,0.2,1.9,0.2,2.6
			c0,1.5-0.2,3.1-0.6,4.6c-0.5,2-2.5,3.1-4.5,2.6c-2-0.5-3.1-2.5-2.6-4.5c0.2-0.9,0.4-1.8,0.4-2.7c0-0.2,0-0.6,0-0.8
			c0-0.1-0.1-0.3-0.1-0.4c-0.4-2.5-1.9-4.6-4-5.8c-1.1-0.6-2.4-1-3.8-1c-3.2,0-6.1,1.9-7.4,5c-0.4,1-0.6,2-0.6,3
			c0,0.4,0.1,0.7,0.2,1.3l0.1,0.5c0,0.2,0,0.3,0.1,0.5c0,0,0,0.1,0,0.1c0.3,1.2,0.9,2.2,1.7,3c1.4,1.4,1.4,3.8,0,5.2
			C18.6-35.3,17.6-34.9,16.7-34.9z M49.8-34.7c-1.4,0-2.4-1.1-2.4-2.4v-1.2c0-4.3-3.5-7.8-7.8-7.8c-0.8,0-1.6,0.1-2.4,0.3l-0.9-4.8
			c0.9-0.2,2-0.4,3.3-0.4c7,0,12.7,5.7,12.7,12.7v1.2C52.2-35.8,51.1-34.7,49.8-34.7z M50.6-8.6c-5.2,0-10.2-2.6-13.3-6.8
			c-1.2-1.6-0.8-3.9,0.8-5.1c1.6-1.2,3.9-0.8,5.1,0.8c1.7,2.4,4.4,3.8,7.3,3.8c3.1,0,5.3-1.6,6.5-2.9c1.5-1.6,2.4-3.8,2.4-6v-0.6
			c-0.3-4.6-4.2-8.3-8.9-8.3h-0.9c-1.5,0.1-2.8,0.6-4.1,1.5c-1.7,1.1-4,0.7-5.1-1c-1.1-1.7-0.7-4,1-5.1c2.4-1.6,5-2.5,7.8-2.7
			c0.1,0,0.2,0,0.3,0h1.1c8.7,0,15.8,6.7,16.2,15.3c0,0.1,0,0.1,0,0.2v0.7c0,4.1-1.5,8-4.3,11C59.3-10.4,55.1-8.6,50.6-8.6z
			 M64.9-11.2c-3,0-5.8-1.6-7.2-4.1c-0.7-1.2-0.3-2.7,0.9-3.4c1.2-0.7,2.7-0.3,3.4,0.9c0.6,1,1.7,1.7,3,1.7c2,0,3.8-1.8,3.8-3.8
			c0-2-1.8-3.8-3.8-3.8c-0.2,0-0.7,0.1-1,0.2c-1.3,0.4-2.7-0.3-3.1-1.6c-0.4-1.3,0.3-2.7,1.6-3.1c0.3-0.1,1.4-0.4,2.6-0.4
			c4.7,0,8.6,4,8.6,8.6C73.5-15.1,69.6-11.2,64.9-11.2z M20.7-18.1c-0.3,5.1-4.7,9.3-9.9,9.3c-3.7,0-6.9-2-8.7-5.3
			C1.4-15.5,1-17.1,1-18.9c0-1.2,0.1-2.9,1.2-4.7c1.7-3.3,5-5.2,8.8-5.2c1.6,0,3.6,1,3.7,1.1c1.8,0.8,2.7,3,1.8,4.9
			c-0.1,0.2-2.5,2-2.5,2c-0.8,0.2-1.6,0.1-2.4-0.2c-0.3-0.1-0.6-0.3-0.8-0.4c0,0,0,0,0,0c-0.7,0-1.7,0.3-2.2,1.3
			c-0.1,0.1-0.1,0.2-0.2,0.3c-0.1,0.1-0.2,0.3-0.2,0.9c0,0.5,0.1,0.9,0.3,1.3c0.3,0.5,1,1.4,2.2,1.4c1.3,0,2.5-1.1,2.5-2.3
			c0.1-1.3,2.4-3.6,3.9-3.5C19.3-21.8,20.9-20.1,20.7-18.1z"/>
	</g>
	<g id="Semibold-S" transform="matrix(1 0 0 1 1996.19 696)">
		<path d="M-2.6-9.8c-7.8,0-14.1-6.3-14.1-14.1c0-7.9,6.3-14.4,14.1-14.4c0.9,0,2,0,2.9,0.3c1.7,0.6,2.6,2.4,2,4.1
			c-0.6,1.7-2.3,2.6-4,2.1c-0.2,0-0.7,0-1,0c-4.3,0-7.7,3.6-7.7,8c0,4.3,3.4,7.7,7.7,7.7c2.1,0,3.9-0.7,5.2-2c1.3-1.3,3.3-1.3,4.5,0
			c1.3,1.3,1.3,3.3,0,4.5C4.5-11.2,1.2-9.8-2.6-9.8z M28.3-9.8c-10.4,0-18.9-8.5-18.9-18.9s8.5-18.9,18.9-18.9s18.9,8.5,18.9,18.9
			S38.7-9.8,28.3-9.8z M28.3-41.2c-6.9,0-12.5,5.6-12.5,12.5s5.6,12.5,12.5,12.5s12.5-5.6,12.5-12.5S35.2-41.2,28.3-41.2z M10.4-9.6
			c-3.5,0-6.5-1.9-8.2-5c-0.7-1.3-1.1-2.9-1.1-4.5c0-1.1,0.1-2.7,1.1-4.4c1.6-3.1,4.7-4.9,8.3-4.9c1.5,0,2.3,0.4,3.1,0.8
			c0.1,0.1,0.2,0.1,0.4,0.2c1.6,0.7,2.3,2.6,1.6,4.3c-0.7,1.6-2.6,2.3-4.3,1.6c-0.3-0.1-0.5-0.3-0.8-0.4c0,0-0.1,0-0.1-0.1
			c-1.2,0-2.2,0.6-2.7,1.5c0,0.1-0.1,0.2-0.2,0.3c-0.1,0.2-0.2,0.4-0.2,1.1c0,0.5,0.1,1,0.3,1.4C8.1-17,8.9-16,10.4-16
			c1.4,0,2.8-1.3,2.9-2.7c0.1-1.8,1.6-3.1,3.4-3c1.8,0.1,3.1,1.6,3,3.4C19.4-13.5,15.3-9.6,10.4-9.6z M4.9-18.6
			c-0.5,0-1-0.1-1.5-0.4c-4.6-2.5-7.6-7.7-7.6-13.1c0-1.3,0.2-2.6,0.4-3.5c0-0.1,0-0.1,0-0.2c1.1-4.4,4-8,8-9.9
			c0.1,0,0.1-0.1,0.2-0.1c1.6-0.7,3.9-1.4,6.6-1.4c0.9,0,1.8,0,3,0.2c1.7,0.3,2.9,2,2.6,3.7c-0.3,1.7-2,2.9-3.7,2.6
			c-0.6-0.1-1-0.1-1.8-0.1c-1.3,0-2.4,0.3-4.1,0.9c-2.2,1.1-3.8,3.1-4.4,5.6c-0.1,0.7-0.2,1.5-0.2,2.3c0,3.1,1.7,6.1,4.3,7.5
			c1.6,0.9,2.1,2.8,1.3,4.4C7.1-19.2,6-18.6,4.9-18.6z M5.6-40.7c-0.6,0-1.1-0.2-1.6-0.6c-1.6-1.6-2.4-3.6-2.4-5.7
			c0-4.4,3.6-7.9,7.9-7.9c2.2,0,4.4,1,6,2.9c0.8,0.9,0.7,2.3-0.2,3.1c-0.9,0.8-2.3,0.7-3.1-0.2c-0.4-0.5-1.3-1.3-2.7-1.3
			C7.6-50.6,6-49,6-47.1c0,1,0.4,1.9,1.1,2.6c0.9,0.9,0.9,2.3,0,3.1C6.7-40.9,6.1-40.7,5.6-40.7z M16.2-35.3c-0.8,0-1.6-0.3-2.3-0.9
			c-1.5-1.5-2.7-3.5-3.3-5.7c-0.3-0.7-0.3-1.2-0.4-1.7l0-0.2c-0.1-0.7-0.3-1.5-0.3-2.5c0-1.9,0.4-3.8,1.1-5.6
			c2.4-5.7,7.6-9.1,13.6-9.1c3.1,0,6,1,8.4,2.6c3.1,2.2,5.4,5.6,6.1,9.6c0.2,0.9,0.2,1.8,0.2,2.5c0,1.5-0.2,3-0.6,4.4
			c-0.5,1.7-2.2,2.7-3.9,2.3c-1.7-0.5-2.7-2.2-2.3-3.9c0.2-0.9,0.4-1.9,0.4-2.8c0-0.2,0-0.7,0-0.8c0-0.1-0.1-0.3-0.1-0.4
			c-0.6-4.1-4.1-7-8.2-7c-3.4,0-6.3,2-7.6,5.2c-0.4,1-0.6,2-0.6,3.1c0,0.4,0.1,0.7,0.2,1.3l0.1,0.5c0,0.1,0,0.3,0,0.4
			c0,0,0,0.1,0,0.1c0.4,1.2,1,2.3,1.8,3.1c1.3,1.3,1.3,3.3,0,4.5C17.8-35.6,17-35.3,16.2-35.3z M48.7-34.9c-1.2,0-2.2-1-2.2-2.2
			v-1.2c0-4.4-3.6-7.9-7.9-7.9c-0.8,0-1.6,0.1-2.4,0.3l-0.8-4.3c0.9-0.2,2-0.4,3.2-0.4c6.8,0,12.3,5.5,12.3,12.3v1.2
			C50.9-35.9,49.9-34.9,48.7-34.9z M49.6-9.4c-5,0-9.8-2.5-12.7-6.6c-1-1.4-0.7-3.5,0.7-4.5c1.4-1,3.5-0.7,4.5,0.7
			c1.7,2.4,4.6,3.9,7.5,3.9c3.2,0,5.5-1.6,6.7-3c1.6-1.7,2.4-3.9,2.4-6.2v-0.6c-0.3-4.8-4.3-8.5-9.2-8.5h-0.9
			c-1.6,0.1-2.9,0.6-4.3,1.5c-1.5,1-3.5,0.6-4.5-0.8c-1-1.5-0.6-3.5,0.8-4.5c2.3-1.6,4.8-2.4,7.5-2.6c0.1,0,0.2,0,0.2,0h1
			c8.3,0,15.2,6.5,15.6,14.7c0,0.1,0,0.1,0,0.2v0.7c0,3.9-1.5,7.7-4.2,10.5C58-11.1,53.9-9.4,49.6-9.4z M63.7-11.7
			c-2.9,0-5.5-1.5-7-3.9c-0.6-1.1-0.3-2.4,0.8-3c1.1-0.6,2.4-0.3,3,0.8c0.6,1.1,1.8,1.7,3.2,1.7c2.1,0,3.9-1.8,3.9-3.9
			c0-2.1-1.8-3.9-3.9-3.9c-0.2,0-0.7,0.1-1.1,0.2c-1.2,0.4-2.4-0.2-2.8-1.4c-0.4-1.2,0.2-2.4,1.4-2.8c0.3-0.1,1.4-0.4,2.5-0.4
			c4.5,0,8.3,3.8,8.3,8.3S68.2-11.7,63.7-11.7z"/>
	</g>
	<g id="Medium-S" transform="matrix(1 0 0 1 1699.83 696)">
		<path d="M-2.6-10.6c-7.5,0-13.5-6.1-13.5-13.5c0-7.6,6.1-13.8,13.5-13.8c0.9,0,1.9,0,2.8,0.3c1.5,0.5,2.2,2.1,1.8,3.5
			c-0.5,1.4-2,2.2-3.5,1.8c-0.2,0-0.7,0-1.1,0c-4.4,0-8,3.7-8,8.2c0,4.5,3.5,8,8,8c2.2,0,4-0.7,5.4-2.1c1.1-1.1,2.8-1.1,3.9,0
			c1.1,1.1,1.1,2.8,0,3.9C4.3-11.9,1.1-10.6-2.6-10.6z M28-10.6c-10,0-18.2-8.2-18.2-18.2C9.8-38.9,17.9-47,28-47
			s18.2,8.2,18.2,18.2C46.2-18.8,38-10.6,28-10.6z M28-41.5c-7,0-12.7,5.7-12.7,12.7S21-16.2,28-16.2s12.7-5.7,12.7-12.7
			S35-41.5,28-41.5z M10.3-10.4c-3.3,0-6.1-1.8-7.7-4.7c-0.7-1.3-1-2.7-1-4.2c0-1,0.1-2.6,1.1-4.1c1.5-2.9,4.4-4.7,7.9-4.7
			c1.3,0,2.1,0.4,2.9,0.7c0.1,0.1,0.3,0.1,0.4,0.2c1.4,0.6,2,2.3,1.4,3.7c-0.6,1.4-2.3,2-3.7,1.4c-0.3-0.1-0.5-0.3-0.7-0.4
			c-0.1,0-0.1-0.1-0.2-0.1c0,0,0,0-0.1,0c-1.4,0-2.4,0.6-3,1.7c0,0.1-0.1,0.2-0.1,0.2c-0.2,0.3-0.3,0.6-0.3,1.3
			c0,0.6,0.1,1.2,0.4,1.6c0.3,0.5,1.2,1.8,2.9,1.8c1.6,0,3.2-1.4,3.3-3c0.1-1.5,5.6-1.2,5.5,0.3C18.9-14.1,14.9-10.4,10.3-10.4z
			 M4.9-19.2c-0.4,0-0.9-0.1-1.3-0.3c-4.4-2.4-7.3-7.4-7.3-12.6c0-1.3,0.2-2.5,0.4-3.4c0-0.1,0-0.1,0-0.2c1.1-4.2,3.9-7.6,7.6-9.5
			c0.1,0,0.1-0.1,0.2-0.1c1.6-0.6,3.7-1.4,6.4-1.4c0.9,0,1.8,0,2.9,0.2c1.5,0.3,2.5,1.7,2.2,3.2c-0.3,1.5-1.7,2.5-3.2,2.2
			c-0.6-0.1-1.1-0.1-1.9-0.1c-1.3,0-2.5,0.3-4.2,0.9c-2.3,1.1-3.9,3.2-4.6,5.7c-0.1,0.7-0.3,1.5-0.3,2.3c0,3.2,1.8,6.3,4.4,7.7
			c1.3,0.7,1.8,2.4,1.1,3.8C6.9-19.8,5.9-19.2,4.9-19.2z M5.5-40.8c-0.5,0-1-0.2-1.4-0.6c-1.5-1.5-2.3-3.4-2.3-5.5
			c0-4.2,3.4-7.6,7.6-7.6c2.2,0,4.3,1,5.8,2.7c0.7,0.8,0.6,2.1-0.2,2.8c-0.8,0.7-2.1,0.6-2.8-0.2c-0.4-0.5-1.4-1.4-2.8-1.4
			c-2,0-3.6,1.6-3.6,3.6c0,1,0.4,1.9,1.2,2.7c0.8,0.8,0.8,2,0,2.8C6.5-41,6-40.8,5.5-40.8z M15.9-35.7c-0.7,0-1.4-0.3-2-0.8
			c-1.4-1.4-2.5-3.3-3.2-5.4c-0.3-0.6-0.3-1.1-0.3-1.6l0-0.2c-0.1-0.7-0.3-1.5-0.3-2.4c0-1.8,0.4-3.6,1.1-5.3
			c2.3-5.4,7.3-8.8,13-8.8c6.9,0,12.7,4.9,13.9,11.7c0.2,0.8,0.2,1.7,0.2,2.4c0,1.4-0.2,2.9-0.6,4.3c-0.4,1.5-1.9,2.4-3.4,2
			c-1.5-0.4-2.4-1.9-2-3.4c0.3-1,0.4-1.9,0.4-2.8c0-0.3,0-0.8,0-0.9c0-0.1-0.1-0.2-0.1-0.4c-0.3-2.1-1.4-3.9-2.8-5.1
			c-1.5-1.3-3.5-2.1-5.6-2.1c-3.5,0-6.5,2.1-7.9,5.4c-0.4,1.1-0.7,2.1-0.7,3.2c0,0.5,0.1,0.8,0.2,1.4l0.1,0.5c0,0.1,0,0.3,0,0.4
			c0,0.1,0,0.1,0.1,0.2c0.4,1.3,1,2.4,1.8,3.2c1.1,1.1,1.1,2.8,0,3.9C17.4-36,16.6-35.7,15.9-35.7z M48.1-35.1c-1.1,0-2-0.9-2-2
			v-1.2c0-4.4-3.6-8-8-8c-0.8,0-1.6,0.1-2.4,0.3L35-49.9c0.9-0.2,1.9-0.3,3.1-0.3c6.6,0,12,5.4,12,12v1.2
			C50.1-36,49.2-35.1,48.1-35.1z M48.9-10.1c-4.8,0-9.4-2.4-12.2-6.3c-0.9-1.2-0.6-3,0.6-3.9c1.2-0.9,3-0.6,3.9,0.6
			c1.8,2.5,4.7,4,7.7,4c2.6,0,5-1.1,6.9-3.1c1.6-1.7,2.5-4,2.5-6.3v-0.6c-0.3-4.9-4.4-8.8-9.4-8.8h-0.9c-1.6,0.1-3,0.6-4.4,1.6
			c-1.3,0.9-3,0.5-3.9-0.7c-0.9-1.3-0.5-3,0.7-3.9c2.2-1.5,4.6-2.3,7.2-2.5c0.1,0,0.1,0,0.2,0h1c8,0,14.6,6.2,15,14.1
			c0,0,0,0.1,0,0.1v0.7c0,3.8-1.4,7.4-4,10.1C56.9-11.9,53-10.1,48.9-10.1z M62.8-12.3c-2.8,0-5.3-1.4-6.7-3.7
			c-0.6-0.9-0.2-2.2,0.7-2.7c0.9-0.6,2.2-0.2,2.7,0.7c0.7,1.1,1.9,1.8,3.3,1.8c2.2,0,4-1.9,4-4s-1.9-4-4-4c-0.3,0-0.8,0.1-1.1,0.2
			c-1,0.3-2.2-0.2-2.5-1.3c-0.3-1,0.2-2.2,1.3-2.5c0.3-0.1,1.3-0.4,2.4-0.4c4.3,0,8,3.7,8,8S67.1-12.3,62.8-12.3z"/>
	</g>
	<g id="Regular-S" transform="matrix(1 0 0 1 1403.58 696)">
		<path d="M6.2-15c0.9-0.9,0.9-2.4,0-3.3c-0.9-0.9-2.4-0.9-3.3,0c-1.4,1.4-3.4,2.2-5.6,2.2c-4.6,0-8.3-3.7-8.3-8.3
			c0-4.7,3.7-8.5,8.3-8.5c0.4,0,1,0,1.2,0c1.2,0.4,2.5-0.3,2.9-1.5c0.4-1.2-0.3-2.5-1.5-3c-0.8-0.3-1.7-0.3-2.6-0.3
			c-7.1,0-12.9,5.9-12.9,13.2c0,7.1,5.8,12.9,12.9,12.9C0.8-11.4,3.9-12.6,6.2-15z M44.9-28.9c0-9.7-7.9-17.5-17.5-17.5
			S9.8-38.6,9.8-28.9c0,9.7,7.9,17.5,17.5,17.5S44.9-19.3,44.9-28.9z M40.2-28.9c0,7.1-5.8,12.9-12.9,12.9s-12.9-5.8-12.9-12.9
			c0-7.1,5.8-12.9,12.9-12.9S40.2-36,40.2-28.9z M18.2-18.9c0.1-1.3-4.6-1.5-4.7-0.2c-0.1,1.8-1.8,3.3-3.6,3.3c-1.9,0-2.8-1.4-3.2-2
			c-0.3-0.5-0.4-1.1-0.4-1.8c0-0.8,0.1-1.1,0.3-1.5c0-0.1,0.1-0.1,0.1-0.2c0.6-1.2,1.8-1.9,3.3-1.9c0.1,0,0.2,0,0.2,0
			c0.1,0,0.2,0.1,0.3,0.1c0.2,0.1,0.4,0.2,0.7,0.3c1.2,0.5,2.6,0,3.1-1.2c0.5-1.2,0-2.6-1.2-3.1c-0.2-0.1-0.3-0.2-0.4-0.2
			c-0.7-0.4-1.4-0.7-2.6-0.7c-3.2,0-6,1.6-7.4,4.4c-0.9,1.4-1,2.8-1,3.9c0,1.4,0.3,2.8,1,4c1.5,2.8,4.2,4.4,7.3,4.4
			C14.3-11.2,18-14.6,18.2-18.9z M6.7-21.1c0.6-1.1,0.2-2.6-0.9-3.2c-2.7-1.5-4.5-4.7-4.5-7.9c0-0.8,0.1-1.7,0.3-2.4
			c0.7-2.7,2.4-4.8,4.8-5.9c1.7-0.7,2.9-1,4.3-1c0.8,0,1.3,0,1.9,0.1c1.3,0.2,2.5-0.6,2.7-1.9c0.2-1.3-0.6-2.5-1.9-2.7
			c-1.1-0.2-1.8-0.2-2.8-0.2c-2.5,0-4.6,0.7-6.1,1.3c0,0-0.1,0-0.1,0.1C0.6-43-2-39.7-3.1-35.7c0,0.1,0,0.1,0,0.2
			c-0.2,0.9-0.3,2.1-0.3,3.3c0,5,2.7,9.7,7,12c0.4,0.2,0.7,0.3,1.1,0.3C5.5-19.9,6.3-20.3,6.7-21.1z M6.5-41.4
			c0.7-0.7,0.7-1.8,0-2.5c-0.8-0.8-1.2-1.7-1.2-2.8c0-2.1,1.7-3.8,3.8-3.8c1.4,0,2.4,0.9,2.9,1.4c0.6,0.7,1.7,0.8,2.5,0.2
			c0.7-0.6,0.8-1.7,0.2-2.5C13.2-53,11.2-54,9.1-54c-4,0-7.3,3.3-7.3,7.3c0,2,0.8,3.8,2.2,5.3c0.3,0.3,0.8,0.5,1.2,0.5
			C5.7-40.9,6.2-41.1,6.5-41.4z M17.2-36.8c0.9-0.9,0.9-2.4,0-3.3c-0.8-0.8-1.5-2-1.9-3.4c0-0.1,0-0.1-0.1-0.2c0,0,0,0,0,0
			c0-0.1,0-0.3,0-0.4l-0.1-0.5C15-45.1,15-45.5,15-46c0-1.1,0.2-2.2,0.7-3.3c1.4-3.4,4.6-5.5,8.1-5.5c4.3,0,8,3.1,8.7,7.5
			c0,0.1,0,0.2,0.1,0.3c0,0.2,0,0.7,0,1c0,1-0.1,1.9-0.4,2.9c-0.3,1.2,0.4,2.5,1.7,2.9c1.2,0.3,2.5-0.4,2.9-1.7
			c0.4-1.4,0.5-2.7,0.5-4.1c0-0.6,0-1.5-0.2-2.2c-1.1-6.5-6.7-11.2-13.3-11.2c-5.5,0-10.3,3.2-12.4,8.4c-0.7,1.7-1,3.4-1,5.1
			c0,0.9,0.1,1.6,0.3,2.3l0,0.2c0,0.4,0,0.9,0.3,1.5c0.6,2,1.7,3.8,3,5.2c0.5,0.5,1.1,0.7,1.7,0.7C16.2-36.1,16.8-36.3,17.2-36.8z
			 M48.9-37v-1.2c0-6.4-5.2-11.6-11.6-11.6c-1.2,0-2.2,0.2-3,0.3l0.6,3.4c0.8-0.1,1.6-0.3,2.4-0.3c4.4,0,8.1,3.6,8.1,8.1v1.2
			c0,1,0.8,1.8,1.8,1.8C48.1-35.3,48.9-36.1,48.9-37z M58.5-15.6c2.5-2.7,3.8-6.1,3.8-9.7V-26c0,0,0-0.1,0-0.1
			c-0.4-7.6-6.7-13.5-14.3-13.5h-1c-0.1,0-0.1,0-0.2,0c-2.5,0.2-4.8,1-6.9,2.4c-1.1,0.7-1.3,2.2-0.6,3.2c0.7,1.1,2.2,1.3,3.2,0.6
			c1.4-1,2.9-1.5,4.5-1.6H48c5.1,0,9.4,4,9.7,9v0.6c0,2.4-0.9,4.7-2.6,6.5c-1.9,2.1-4.4,3.2-7.1,3.2c-3.1,0-6.1-1.5-7.9-4.1
			c-0.8-1-2.2-1.3-3.3-0.5c-1,0.8-1.3,2.2-0.5,3.3c2.7,3.8,7.1,6,11.7,6C52-10.9,55.7-12.6,58.5-15.6z M69.3-20.5
			c0-4.2-3.5-7.7-7.7-7.7c-0.8,0-1.7,0.2-2.3,0.4c-0.9,0.3-1.4,1.3-1.1,2.2c0.3,0.9,1.3,1.4,2.2,1.1c0.4-0.1,0.9-0.2,1.2-0.2
			c2.2,0,4.2,1.9,4.2,4.2c0,2.2-1.9,4.2-4.2,4.2c-1.4,0-2.7-0.7-3.4-1.9c-0.5-0.8-1.6-1.1-2.4-0.6c-0.8,0.5-1.1,1.6-0.6,2.4
			c1.3,2.2,3.8,3.6,6.4,3.6C65.8-12.8,69.3-16.4,69.3-20.5z"/>
	</g>
	<g id="Light-S" transform="matrix(1 0 0 1 1107.6 696)">
		<path d="M5.6-15.6c0.7-0.7,0.7-2,0-2.7c-0.7-0.7-2-0.7-2.7,0C1.4-16.8-0.6-16-2.9-16c-4.7,0-8.5-3.8-8.5-8.5
			c0-4.8,3.8-8.7,8.5-8.7c0.4,0,1,0,1.2,0.1c1,0.3,2.1-0.2,2.4-1.2c0.3-1-0.2-2.1-1.2-2.4c-0.8-0.3-1.6-0.3-2.4-0.3
			c-6.8,0-12.3,5.6-12.3,12.6c0,6.8,5.5,12.3,12.3,12.3C0.4-12.2,3.3-13.3,5.6-15.6z M43.5-29c0-9.3-7.6-16.9-16.9-16.9
			S9.8-38.3,9.8-29s7.6,16.9,16.9,16.9S43.5-19.7,43.5-29z M39.7-29c0,7.2-5.8,13-13,13s-13-5.8-13-13s5.8-13,13-13
			S39.7-36.2,39.7-29z M17.2-19.2c0.1-1.1-0.8-2-1.8-2c-1.1-0.1-2,0.8-2,1.8c-0.1,1.9-1.9,3.6-3.9,3.6c-1.5,0-2.7-0.8-3.5-2.1
			c-0.3-0.5-0.5-1.2-0.5-1.9c0-0.8,0.1-1.2,0.4-1.7c0-0.1,0.1-0.1,0.1-0.2c0.7-1.3,2-2.1,3.6-2.1c0.3,0,0.3,0,0.6,0.2
			c0.2,0.1,0.4,0.2,0.7,0.3c1,0.4,2.1,0,2.5-1c0.4-1,0-2.1-1-2.5c-0.2-0.1-0.3-0.2-0.4-0.2c-0.5-0.3-1.2-0.6-2.4-0.6
			c-3,0-5.6,1.5-7,4.1c-0.8,1.3-0.9,2.6-0.9,3.6c0,1.3,0.3,2.6,0.9,3.7c1.4,2.6,4,4.1,6.8,4.1C13.6-11.9,17-15.2,17.2-19.2z M6-21.5
			c0.5-0.9,0.2-2.1-0.8-2.6c-2.8-1.5-4.7-4.7-4.7-8.1c0-0.8,0.1-1.7,0.3-2.4c0.7-2.7,2.4-4.9,4.9-6.1c1.7-0.7,3-1,4.3-1
			c0.8,0,1.3,0,2,0.1c1,0.2,2-0.5,2.2-1.5c0.2-1-0.5-2-1.5-2.2c-1-0.2-1.8-0.2-2.6-0.2c-2.4,0-4.4,0.7-5.9,1.3c0,0-0.1,0-0.1,0.1
			c-3.5,1.7-6,4.9-7,8.7c0,0,0,0.1,0,0.1c-0.2,0.9-0.3,2-0.3,3.2c0,4.8,2.6,9.3,6.7,11.5c0.3,0.2,0.6,0.2,0.9,0.2
			C5-20.5,5.6-20.9,6-21.5z M6-41.4C6.6-42,6.6-43,6-43.6c-0.8-0.8-1.2-1.8-1.2-2.9c0-2.2,1.8-3.9,3.9-3.9c1.5,0,2.5,0.9,3,1.5
			c0.6,0.6,1.5,0.7,2.2,0.2c0.6-0.6,0.7-1.5,0.2-2.2c-1.4-1.6-3.3-2.5-5.3-2.5c-3.8,0-7,3.1-7,7c0,1.9,0.7,3.7,2.1,5.1
			C4.1-41.1,4.5-41,4.9-41C5.3-41,5.7-41.1,6-41.4z M16.4-37c0.7-0.7,0.7-2,0-2.7c-0.9-0.9-1.6-2.1-2-3.5c0-0.1,0-0.1-0.1-0.2
			c0,0,0-0.1,0-0.1c0-0.1,0-0.2,0-0.3l-0.1-0.5c-0.1-0.6-0.2-1-0.2-1.5c0-1.1,0.2-2.3,0.7-3.4c1.5-3.5,4.7-5.7,8.4-5.7
			c4.5,0,8.2,3.2,8.9,7.7c0,0.1,0,0.2,0.1,0.3c0.1,0.2,0.1,0.8,0.1,1.1c0,1-0.1,2-0.4,3c-0.3,1,0.3,2.1,1.4,2.3
			c1,0.3,2.1-0.3,2.3-1.4c0.3-1.3,0.5-2.6,0.5-3.9c0-0.6,0-1.4-0.2-2.1c-1.1-6.2-6.4-10.8-12.7-10.8c-5.2,0-9.8,3.1-11.9,8
			c-0.7,1.6-1,3.2-1,4.9c0,0.9,0.1,1.6,0.3,2.2l0,0.3c0,0.4,0,0.8,0.3,1.3c0.6,1.9,1.6,3.7,2.9,5c0.4,0.4,0.9,0.6,1.4,0.6
			S16-36.7,16.4-37z M47.7-37v-1.1c0-6.2-5-11.2-11.2-11.2c-1.1,0-2.1,0.2-3,0.3l0.5,3c0.8-0.1,1.5-0.3,2.4-0.3
			c4.5,0,8.1,3.6,8.1,8.1v1.1c0,0.8,0.7,1.5,1.5,1.5C47-35.5,47.7-36.2,47.7-37z M57-16.2c2.4-2.5,3.7-5.8,3.7-9.3v-0.7
			c0,0,0-0.1,0-0.1c-0.4-7.3-6.4-12.9-13.7-12.9h-1c0,0-0.1,0-0.1,0c-2.4,0.2-4.6,0.9-6.6,2.3c-0.9,0.6-1.1,1.8-0.5,2.7
			c0.6,0.9,1.8,1.1,2.7,0.5c1.4-1,3-1.5,4.7-1.7h0.9c5.3,0,9.6,4.1,9.9,9.2v0.6c0,2.5-0.9,4.8-2.6,6.7c-2,2.1-4.5,3.2-7.3,3.2
			c-3.2,0-6.2-1.6-8.1-4.2c-0.6-0.9-1.8-1.1-2.7-0.4c-0.9,0.6-1.1,1.8-0.4,2.7c2.6,3.6,6.8,5.8,11.2,5.8
			C50.7-11.7,54.3-13.3,57-16.2z M67.7-20.8c0-4-3.4-7.4-7.4-7.4c-0.7,0-1.6,0.2-2.2,0.4c-0.8,0.3-1.2,1.1-1,1.9
			c0.3,0.8,1.1,1.2,1.9,1c0.4-0.1,0.9-0.2,1.2-0.2c2.3,0,4.3,2,4.3,4.3s-2,4.3-4.3,4.3c-1.5,0-2.8-0.7-3.5-1.9
			c-0.4-0.7-1.4-1-2.1-0.5c-0.7,0.4-1,1.4-0.5,2.1c1.3,2.1,3.6,3.4,6.1,3.4C64.3-13.4,67.7-16.8,67.7-20.8z"/>
	</g>
	<g id="Thin-S" transform="matrix(1 0 0 1 811.863 696)">
		<path d="M4.5-16.2c0.6-0.6,0.6-1.5,0-2.1c-0.6-0.6-1.5-0.6-2.1,0C0.8-16.8-1.2-16-3.6-16c-4.8,0-8.7-3.9-8.7-8.7
			c0-4.9,3.9-9,8.7-9c0.4,0,1.1,0,1.3,0.1c0.8,0.3,1.6-0.2,1.9-1c0.3-0.8-0.2-1.6-1-1.9c-0.7-0.2-1.5-0.2-2.3-0.2
			c-6.5,0-11.7,5.4-11.7,12c0,6.5,5.3,11.7,11.7,11.7C-0.4-12.9,2.4-14.1,4.5-16.2z M41.7-29.1c0-8.9-7.3-16.2-16.2-16.2
			S9.3-38.1,9.3-29.1c0,8.9,7.3,16.2,16.2,16.2S41.7-20.2,41.7-29.1z M38.7-29.1c0,7.3-5.9,13.2-13.2,13.2s-13.2-5.9-13.2-13.2
			s5.9-13.2,13.2-13.2S38.7-36.4,38.7-29.1z M15.9-19.5c0-0.8-0.6-1.5-1.4-1.6c-0.8,0-1.5,0.6-1.6,1.4c-0.1,2.1-2,3.9-4.2,3.9
			c-1.6,0-2.9-0.8-3.7-2.3c-0.3-0.6-0.5-1.3-0.5-2.1c0-0.8,0.1-1.3,0.4-1.8C5-22,5-22,5-22.1c0.7-1.4,2.1-2.3,3.8-2.3
			c0.4,0,0.4,0,0.8,0.2c0.2,0.1,0.4,0.2,0.6,0.3c0.8,0.3,1.7,0,2-0.7c0.3-0.8,0-1.6-0.7-2c-0.2-0.1-0.3-0.2-0.5-0.2
			c-0.5-0.3-1.1-0.6-2.2-0.6c-2.8,0-5.3,1.4-6.5,3.9c-0.8,1.2-0.9,2.5-0.9,3.4c0,1.3,0.3,2.5,0.9,3.5c1.3,2.4,3.7,3.9,6.4,3.9
			C12.5-12.7,15.7-15.8,15.9-19.5z M4.9-21.9c0.4-0.7,0.1-1.6-0.6-2c-2.9-1.6-4.8-4.9-4.8-8.3c0-0.9,0.1-1.8,0.3-2.5
			c0.7-2.8,2.5-5,5-6.3c1.7-0.7,3-1,4.4-1c0.8,0,1.3,0,2,0.1c0.8,0.1,1.6-0.4,1.8-1.2c0.1-0.8-0.4-1.6-1.2-1.8
			c-1-0.2-1.7-0.2-2.5-0.2c-2.3,0-4.2,0.7-5.6,1.2c0,0-0.1,0-0.1,0c-3.3,1.6-5.7,4.6-6.7,8.3c0,0,0,0.1,0,0.1
			c-0.2,0.8-0.3,1.9-0.3,3.1c0,4.6,2.5,8.9,6.4,11c0.2,0.1,0.5,0.2,0.7,0.2C4.1-21.2,4.6-21.4,4.9-21.9z M5-41.5
			c0.5-0.5,0.5-1.3,0-1.9c-0.9-0.9-1.3-1.8-1.3-3c0-2.2,1.8-4,4-4c1.5,0,2.6,0.9,3.1,1.5c0.5,0.5,1.3,0.6,1.9,0.1
			c0.5-0.5,0.6-1.3,0.1-1.9C11.5-52.1,9.7-53,7.8-53c-3.7,0-6.7,3-6.7,6.7c0,1.9,0.7,3.5,2,4.8c0.3,0.3,0.6,0.4,0.9,0.4
			S4.8-41.2,5-41.5z M15.1-37.3c0.6-0.6,0.6-1.5,0-2.1c-0.9-0.9-1.6-2.2-2-3.6c0-0.1-0.1-0.2-0.1-0.2c0,0,0-0.1,0-0.2
			c0-0.1,0-0.2,0-0.3l-0.1-0.4c-0.1-0.6-0.2-1-0.2-1.5c0-1.2,0.2-2.3,0.7-3.5c1.5-3.6,4.8-5.8,8.6-5.8c4.6,0,8.4,3.3,9.1,7.8
			c0,0.1,0,0.2,0.1,0.2c0.1,0.2,0.1,0.9,0.1,1.2c0,1-0.1,2-0.4,3c-0.2,0.8,0.3,1.6,1.1,1.8c0.8,0.2,1.6-0.3,1.8-1.1
			c0.3-1.3,0.5-2.5,0.5-3.8c0-0.6,0-1.3-0.2-2c-1-6-6.1-10.3-12.1-10.3c-5,0-9.3,2.9-11.3,7.6c-0.6,1.5-0.9,3.1-0.9,4.6
			c0,0.8,0.1,1.4,0.2,2.1l0.1,0.3c0,0.4,0,0.7,0.2,1.2c0.5,1.8,1.5,3.5,2.8,4.7c0.3,0.3,0.7,0.4,1.1,0.4S14.8-37,15.1-37.3z
			 M45.9-37v-1.1c0-6-4.8-10.8-10.8-10.8c-1.1,0-2,0.2-2.9,0.3l0.5,2.6c0.8-0.1,1.5-0.3,2.4-0.3c4.5,0,8.2,3.7,8.2,8.2v1.1
			c0,0.7,0.6,1.3,1.3,1.3C45.4-35.7,45.9-36.2,45.9-37z M55-16.7c2.3-2.4,3.5-5.6,3.5-8.9v-0.7c0,0,0-0.1,0-0.1
			c-0.3-6.9-6.1-12.4-13.1-12.4h-1c0,0-0.1,0-0.1,0c-2.3,0.2-4.4,0.9-6.3,2.2c-0.7,0.5-0.9,1.4-0.4,2.1c0.5,0.7,1.4,0.9,2.1,0.4
			c1.5-1,3-1.6,4.8-1.7h0.9c5.4,0,9.8,4.1,10.1,9.5v0.6c0,2.5-1,4.9-2.7,6.8c-2,2.2-4.6,3.3-7.4,3.3c-3.3,0-6.3-1.6-8.3-4.3
			c-0.5-0.7-1.4-0.8-2.1-0.3c-0.7,0.5-0.8,1.4-0.3,2.1c2.5,3.5,6.5,5.5,10.7,5.5C49-12.5,52.4-14,55-16.7z M65.7-21c0-3.8-3.2-7-7-7
			c-0.7,0-1.5,0.2-2.1,0.4c-0.7,0.2-1.1,1-0.8,1.7c0.2,0.7,1,1.1,1.7,0.8c0.4-0.1,0.9-0.2,1.2-0.2c2.3,0,4.4,2.1,4.4,4.4
			s-2.1,4.4-4.4,4.4c-1.5,0-2.9-0.7-3.6-2c-0.4-0.6-1.2-0.8-1.8-0.5c-0.6,0.4-0.8,1.2-0.5,1.8c1.2,2,3.4,3.3,5.9,3.3
			C62.5-14,65.7-17.2,65.7-21z"/>
	</g>
	<g id="Ultralight-S" transform="matrix(1 0 0 1 515.649 696)">
		<path d="M3-16.8c0.4-0.4,0.4-1.1,0-1.6c-0.4-0.4-1.1-0.4-1.6,0c-1.6,1.6-3.7,2.4-6.1,2.4c-4.9,0-8.9-4-8.9-8.9
			c0-5.1,4-9.2,8.9-9.2c0.5,0,1.2,0,1.4,0.1c0.6,0.2,1.2-0.1,1.4-0.7s-0.1-1.2-0.7-1.4c-0.6-0.2-1.4-0.2-2.1-0.2
			c-6.2,0-11.2,5.1-11.2,11.4c0,6.2,5,11.2,11.2,11.2C-1.6-13.7,1-14.8,3-16.8z M39.4-29.2c0-8.6-7-15.5-15.5-15.5
			s-15.5,7-15.5,15.5c0,8.6,7,15.5,15.5,15.5S39.4-20.7,39.4-29.2z M37.1-29.2c0,7.3-6,13.3-13.3,13.3s-13.3-6-13.3-13.3
			c0-7.3,6-13.3,13.3-13.3S37.1-36.6,37.1-29.2z M14.1-19.8c0-0.6-0.4-1.1-1.1-1.2c-0.6,0-1.1,0.4-1.2,1.1c-0.1,2.3-2.2,4.2-4.5,4.2
			c-1.7,0-3.1-0.9-4-2.5c-0.3-0.6-0.5-1.4-0.5-2.2c0-0.9,0.1-1.4,0.5-2c0,0,0-0.1,0.1-0.1c0.8-1.5,2.3-2.4,4.1-2.4
			c0.4,0,0.6,0.1,0.9,0.3c0.2,0.1,0.4,0.2,0.6,0.3c0.6,0.3,1.2,0,1.5-0.6c0.3-0.6,0-1.2-0.6-1.5c-0.2-0.1-0.3-0.2-0.5-0.2
			c-0.5-0.3-1-0.5-2-0.5c-2.7,0-4.9,1.3-6.1,3.6c-0.7,1.2-0.8,2.3-0.8,3.1c0,1.2,0.3,2.3,0.8,3.3c1.2,2.3,3.4,3.6,5.9,3.6
			C10.9-13.5,13.9-16.3,14.1-19.8z M3.3-22.4c0.3-0.5,0.1-1.2-0.4-1.5c-3-1.6-4.9-5-4.9-8.5c0-0.9,0.1-1.8,0.3-2.5
			c0.7-2.9,2.6-5.2,5.1-6.4c1.8-0.7,3.1-1,4.5-1c0.8,0,1.3,0,2,0.1c0.6,0.1,1.2-0.3,1.3-0.9c0.1-0.6-0.3-1.2-0.9-1.3
			c-0.9-0.2-1.6-0.2-2.4-0.2c-1.7,0-3.3,0.4-5.4,1.2c-2.1,1-3.8,2.6-5,4.6c-0.6,1-1.1,2.1-1.4,3.3c0,0,0,0.1,0,0.1
			c-0.1,0.8-0.3,1.9-0.3,2.9c0,4.3,2.4,8.4,6,10.4c0.2,0.1,0.4,0.1,0.5,0.1C2.7-21.8,3.1-22,3.3-22.4z M3.7-41.5
			c0.4-0.4,0.4-1.1,0-1.6c-0.9-0.9-1.3-1.9-1.3-3.1c0-2.3,1.9-4.1,4.1-4.1c1.2,0,2.3,0.6,3.2,1.5c0.4,0.5,1.1,0.5,1.6,0.1
			c0.5-0.4,0.5-1.1,0.1-1.6c-1.3-1.5-3-2.3-4.8-2.3c-3.5,0-6.4,2.9-6.4,6.4c0,1.8,0.7,3.3,2,4.6c0.2,0.2,0.5,0.3,0.8,0.3
			S3.5-41.3,3.7-41.5z M13.4-37.5c0.4-0.4,0.4-1.1,0-1.6c-0.9-0.9-1.7-2.2-2.1-3.7c0-0.1-0.1-0.2-0.1-0.2c0-0.1,0-0.2,0-0.3
			c0-0.1,0-0.1,0-0.2l-0.1-0.4c-0.1-0.6-0.2-1-0.2-1.6c0-1.2,0.2-2.4,0.7-3.6c1.5-3.6,4.9-5.9,8.7-5.9c4.7,0,8.6,3.4,9.3,8
			c0,0.1,0,0.1,0,0.2c0.1,0.3,0.1,0.9,0.1,1.3c0,1-0.1,2-0.4,3c-0.2,0.6,0.2,1.2,0.8,1.4c0.6,0.2,1.2-0.2,1.4-0.8
			c0.3-1.2,0.5-2.4,0.5-3.6c0-0.6,0-1.3-0.2-1.9c-0.9-5.7-5.8-9.8-11.5-9.8c-4.8,0-8.9,2.8-10.8,7.3c-0.6,1.4-0.9,2.9-0.9,4.4
			c0,0.8,0.1,1.4,0.2,2L9-43.1c0,0.3,0,0.7,0.2,1.1c0.5,1.7,1.4,3.4,2.6,4.5c0.2,0.2,0.5,0.3,0.8,0.3S13.2-37.3,13.4-37.5z
			 M43.7-36.9V-38c0-5.7-4.7-10.4-10.4-10.4c-1.1,0-1.9,0.2-2.8,0.3l0.4,2.2c0.8-0.1,1.5-0.3,2.4-0.3c4.5,0,8.2,3.7,8.2,8.2v1.1
			c0,0.6,0.4,0.1,1,0.1S43.7-36.3,43.7-36.9z M52.6-17.3c2.1-2.3,3.3-5.3,3.3-8.4l0-0.7c-0.3-6.6-5.8-11.8-12.5-11.8h-1
			c0,0-0.1,0-0.1,0c-2.2,0.2-4.2,0.8-6,2.1c-0.5,0.3-0.6,1-0.3,1.5c0.3,0.5,1,0.6,1.5,0.3c1.5-1,3.1-1.6,4.9-1.7h0.9
			c5.5,0,10,4.2,10.3,9.6v0.7c0,2.6-1,5-2.7,6.9c-2,2.2-4.7,3.3-7.5,3.3c-0.8,0-1.6-0.1-2.4-0.3c-2.4-0.6-4.5-2-6-4
			c-0.4-0.5-1-0.6-1.5-0.3c-0.5,0.4-0.6,1.1-0.3,1.5c2.4,3.3,6.2,5.3,10.2,5.3C46.9-13.3,50.1-14.7,52.6-17.3z M63.1-21.3
			c0-3.6-3.1-6.7-6.7-6.7c-0.7,0-1.5,0.2-2,0.4c-0.6,0.2-0.9,0.8-0.7,1.4c0.2,0.6,0.8,0.9,1.4,0.7c0.3-0.1,0.9-0.2,1.3-0.2
			c2.4,0,4.5,2.1,4.5,4.5c0,2.4-2.1,4.5-4.5,4.5c-1.6,0-2.9-0.8-3.7-2c-0.3-0.5-1-0.7-1.5-0.4c-0.5,0.3-0.7,1-0.4,1.5
			c1.1,1.9,3.3,3.1,5.6,3.1C60-14.5,63.1-17.6,63.1-21.3z"/>
	</g>
</g>
</svg>
