<?xml version="1.0" encoding="UTF-8"?>
<!--Generator: Apple Native CoreSVG 175.5-->
<!DOCTYPE svg
PUBLIC "-//W3C//DTD SVG 1.1//EN"
       "http://www.w3.org/Graphics/SVG/1.1/DTD/svg11.dtd">
<svg version="1.1" xmlns="http://www.w3.org/2000/svg" xmlns:xlink="http://www.w3.org/1999/xlink" width="3300" height="2200">
 <!--glyph: "uni101262.medium", point size: 100.0, font version: "18.0d12e2", template writer version: "101"-->
 <g id="Notes">
  <rect height="2200" id="artboard" style="fill:white;opacity:1" width="3300" x="0" y="0"/>
  <line style="fill:none;stroke:black;opacity:1;stroke-width:0.5;" x1="263" x2="3036" y1="292" y2="292"/>
  <text style="stroke:none;fill:black;font-family:sans-serif;font-size:13;font-weight:bold;" transform="matrix(1 0 0 1 263 322)">Weight/Scale Variations</text>
  <text style="stroke:none;fill:black;font-family:sans-serif;font-size:13;text-anchor:middle;" transform="matrix(1 0 0 1 559.711 322)">Ultralight</text>
  <text style="stroke:none;fill:black;font-family:sans-serif;font-size:13;text-anchor:middle;" transform="matrix(1 0 0 1 856.422 322)">Thin</text>
  <text style="stroke:none;fill:black;font-family:sans-serif;font-size:13;text-anchor:middle;" transform="matrix(1 0 0 1 1153.13 322)">Light</text>
  <text style="stroke:none;fill:black;font-family:sans-serif;font-size:13;text-anchor:middle;" transform="matrix(1 0 0 1 1449.84 322)">Regular</text>
  <text style="stroke:none;fill:black;font-family:sans-serif;font-size:13;text-anchor:middle;" transform="matrix(1 0 0 1 1746.56 322)">Medium</text>
  <text style="stroke:none;fill:black;font-family:sans-serif;font-size:13;text-anchor:middle;" transform="matrix(1 0 0 1 2043.27 322)">Semibold</text>
  <text style="stroke:none;fill:black;font-family:sans-serif;font-size:13;text-anchor:middle;" transform="matrix(1 0 0 1 2339.98 322)">Bold</text>
  <text style="stroke:none;fill:black;font-family:sans-serif;font-size:13;text-anchor:middle;" transform="matrix(1 0 0 1 2636.69 322)">Heavy</text>
  <text style="stroke:none;fill:black;font-family:sans-serif;font-size:13;text-anchor:middle;" transform="matrix(1 0 0 1 2933.4 322)">Black</text>
  <line style="fill:none;stroke:black;opacity:1;stroke-width:0.5;" x1="263" x2="3036" y1="1903" y2="1903"/>
  <g transform="matrix(1 0 0 1 263 1933)">
   <path d="M9.24805 0.830078C13.5547 0.830078 17.1387-2.74414 17.1387-7.05078C17.1387-11.3574 13.5449-14.9316 9.23828-14.9316C4.94141-14.9316 1.36719-11.3574 1.36719-7.05078C1.36719-2.74414 4.95117 0.830078 9.24805 0.830078ZM9.24805-0.654297C5.70312-0.654297 2.87109-3.49609 2.87109-7.05078C2.87109-10.6055 5.69336-13.4473 9.23828-13.4473C12.793-13.4473 15.6445-10.6055 15.6445-7.05078C15.6445-3.49609 12.8027-0.654297 9.24805-0.654297ZM5.6543-7.05078C5.6543-6.62109 5.95703-6.32812 6.40625-6.32812L8.50586-6.32812L8.50586-4.20898C8.50586-3.76953 8.79883-3.4668 9.22852-3.4668C9.67773-3.4668 9.9707-3.76953 9.9707-4.20898L9.9707-6.32812L12.0898-6.32812C12.5293-6.32812 12.832-6.62109 12.832-7.05078C12.832-7.49023 12.5293-7.79297 12.0898-7.79297L9.9707-7.79297L9.9707-9.90234C9.9707-10.3516 9.67773-10.6543 9.22852-10.6543C8.79883-10.6543 8.50586-10.3516 8.50586-9.90234L8.50586-7.79297L6.40625-7.79297C5.95703-7.79297 5.6543-7.49023 5.6543-7.05078Z"/>
  </g>
  <g transform="matrix(1 0 0 1 281.867 1933)">
   <path d="M11.709 2.91016C17.1582 2.91016 21.6699-1.61133 21.6699-7.05078C21.6699-12.5 17.1484-17.0117 11.6992-17.0117C6.25977-17.0117 1.74805-12.5 1.74805-7.05078C1.74805-1.61133 6.26953 2.91016 11.709 2.91016ZM11.709 1.25C7.09961 1.25 3.41797-2.44141 3.41797-7.05078C3.41797-11.6602 7.08984-15.3516 11.6992-15.3516C16.3086-15.3516 20.0098-11.6602 20.0098-7.05078C20.0098-2.44141 16.3184 1.25 11.709 1.25ZM7.17773-7.05078C7.17773-6.57227 7.50977-6.25 8.00781-6.25L10.8789-6.25L10.8789-3.36914C10.8789-2.88086 11.2109-2.53906 11.6895-2.53906C12.1777-2.53906 12.5195-2.87109 12.5195-3.36914L12.5195-6.25L15.4004-6.25C15.8887-6.25 16.2305-6.57227 16.2305-7.05078C16.2305-7.53906 15.8887-7.88086 15.4004-7.88086L12.5195-7.88086L12.5195-10.752C12.5195-11.25 12.1777-11.5918 11.6895-11.5918C11.2109-11.5918 10.8789-11.25 10.8789-10.752L10.8789-7.88086L8.00781-7.88086C7.50977-7.88086 7.17773-7.53906 7.17773-7.05078Z"/>
  </g>
  <g transform="matrix(1 0 0 1 305.646 1933)">
   <path d="M14.9707 5.66406C21.9336 5.66406 27.6953-0.0976562 27.6953-7.05078C27.6953-14.0137 21.9238-19.7754 14.9609-19.7754C8.00781-19.7754 2.25586-14.0137 2.25586-7.05078C2.25586-0.0976562 8.01758 5.66406 14.9707 5.66406ZM14.9707 3.84766C8.93555 3.84766 4.08203-1.01562 4.08203-7.05078C4.08203-13.0957 8.92578-17.9492 14.9609-17.9492C21.0059-17.9492 25.8691-13.0957 25.8691-7.05078C25.8691-1.01562 21.0156 3.84766 14.9707 3.84766ZM9.19922-7.05078C9.19922-6.5332 9.57031-6.17188 10.1172-6.17188L14.0625-6.17188L14.0625-2.2168C14.0625-1.67969 14.4336-1.29883 14.9512-1.29883C15.4883-1.29883 15.8594-1.66992 15.8594-2.2168L15.8594-6.17188L19.8145-6.17188C20.3516-6.17188 20.7324-6.5332 20.7324-7.05078C20.7324-7.59766 20.3613-7.96875 19.8145-7.96875L15.8594-7.96875L15.8594-11.9141C15.8594-12.4609 15.4883-12.8418 14.9512-12.8418C14.4336-12.8418 14.0625-12.4609 14.0625-11.9141L14.0625-7.96875L10.1172-7.96875C9.57031-7.96875 9.19922-7.59766 9.19922-7.05078Z"/>
  </g>
  <text style="stroke:none;fill:black;font-family:sans-serif;font-size:13;font-weight:bold;" transform="matrix(1 0 0 1 263 1953)">Design Variations</text>
  <text style="stroke:none;fill:black;font-family:sans-serif;font-size:13;" transform="matrix(1 0 0 1 263 1971)">Symbols are supported in up to nine weights and three scales.</text>
  <text style="stroke:none;fill:black;font-family:sans-serif;font-size:13;" transform="matrix(1 0 0 1 263 1989)">For optimal layout with text and other symbols, vertically align</text>
  <text style="stroke:none;fill:black;font-family:sans-serif;font-size:13;" transform="matrix(1 0 0 1 263 2007)">symbols with the adjacent text.</text>
  <line style="fill:none;stroke:#00AEEF;stroke-width:0.5;opacity:1.0;" x1="776" x2="776" y1="1919" y2="1933"/>
  <g transform="matrix(1 0 0 1 776 1933)">
   <path d="M3.31055 0.15625C3.82812 0.15625 4.08203-0.0390625 4.26758-0.585938L5.52734-4.0332L11.2891-4.0332L12.5488-0.585938C12.7344-0.0390625 12.9883 0.15625 13.4961 0.15625C14.0137 0.15625 14.3457-0.15625 14.3457-0.644531C14.3457-0.810547 14.3164-0.966797 14.2383-1.17188L9.6582-13.3691C9.43359-13.9648 9.0332-14.2676 8.4082-14.2676C7.80273-14.2676 7.39258-13.9746 7.17773-13.3789L2.59766-1.16211C2.51953-0.957031 2.49023-0.800781 2.49023-0.634766C2.49023-0.146484 2.80273 0.15625 3.31055 0.15625ZM6.00586-5.51758L8.37891-12.0898L8.42773-12.0898L10.8008-5.51758Z"/>
  </g>
  <line style="fill:none;stroke:#00AEEF;stroke-width:0.5;opacity:1.0;" x1="793.197" x2="793.197" y1="1919" y2="1933"/>
  <text style="stroke:none;fill:black;font-family:sans-serif;font-size:13;font-weight:bold;" transform="matrix(1 0 0 1 776 1953)">Margins</text>
  <text style="stroke:none;fill:black;font-family:sans-serif;font-size:13;" transform="matrix(1 0 0 1 776 1971)">Leading and trailing margins on the left and right side of each symbol</text>
  <text style="stroke:none;fill:black;font-family:sans-serif;font-size:13;" transform="matrix(1 0 0 1 776 1989)">can be adjusted by modifying the x-location of the margin guidelines.</text>
  <text style="stroke:none;fill:black;font-family:sans-serif;font-size:13;" transform="matrix(1 0 0 1 776 2007)">Modifications are automatically applied proportionally to all</text>
  <text style="stroke:none;fill:black;font-family:sans-serif;font-size:13;" transform="matrix(1 0 0 1 776 2025)">scales and weights.</text>
  <g transform="matrix(1 0 0 1 1289 1933)">
   <path d="M2.8418 1.86523L4.54102 3.57422C5.40039 4.44336 6.38672 4.38477 7.31445 3.35938L18.0078-8.42773L17.041-9.4043L6.42578 2.27539C6.07422 2.67578 5.74219 2.77344 5.27344 2.30469L4.10156 1.14258C3.63281 0.683594 3.74023 0.341797 4.14062-0.0195312L15.6152-10.8203L14.6387-11.7871L3.04688-0.898438C2.06055 0.0195312 1.98242 0.996094 2.8418 1.86523ZM9.25781-16.3281C8.83789-15.918 8.80859-15.3418 9.04297-14.9512C9.27734-14.5898 9.73633-14.3555 10.3809-14.5215C11.8457-14.8633 13.3691-14.9219 14.7949-13.9844L14.209-12.5293C13.8672-11.6992 14.043-11.1133 14.5801-10.5664L16.875-8.25195C17.3633-7.76367 17.7734-7.74414 18.3398-7.8418L19.4043-8.03711L20.0684-7.36328L20.0293-6.80664C19.9902-6.30859 20.1172-5.92773 20.6055-5.44922L21.3672-4.70703C21.8457-4.22852 22.4609-4.19922 22.9297-4.66797L25.8398-7.58789C26.3086-8.05664 26.2891-8.65234 25.8105-9.13086L25.0391-9.89258C24.5605-10.3711 24.1895-10.5273 23.7109-10.4883L23.1348-10.4395L22.4902-11.0742L22.7344-12.1973C22.8613-12.7637 22.7051-13.2031 22.1191-13.7891L19.9219-15.9766C16.582-19.2969 12.1484-19.2188 9.25781-16.3281ZM10.752-15.957C13.1836-17.7344 16.4746-17.4316 18.7012-15.2051L21.1328-12.793C21.3672-12.5586 21.4062-12.373 21.3379-12.0312L21.0156-10.5469L22.5195-9.0625L23.5059-9.12109C23.7598-9.13086 23.8379-9.11133 24.0332-8.91602L24.6094-8.33984L22.168-5.89844L21.5918-6.47461C21.3965-6.66992 21.3672-6.74805 21.377-7.01172L21.4453-7.98828L19.9512-9.47266L18.4277-9.21875C18.1055-9.15039 17.959-9.17969 17.7148-9.41406L15.7129-11.416C15.459-11.6504 15.4297-11.8164 15.5859-12.1875L16.4648-14.2773C14.9023-15.7324 12.8711-16.3574 10.8398-15.7617C10.6836-15.7227 10.625-15.8496 10.752-15.957Z"/>
  </g>
  <text style="stroke:none;fill:black;font-family:sans-serif;font-size:13;font-weight:bold;" transform="matrix(1 0 0 1 1289 1953)">Exporting</text>
  <text style="stroke:none;fill:black;font-family:sans-serif;font-size:13;" transform="matrix(1 0 0 1 1289 1971)">Symbols should be outlined when exporting to ensure the</text>
  <text style="stroke:none;fill:black;font-family:sans-serif;font-size:13;" transform="matrix(1 0 0 1 1289 1989)">design is preserved when submitting to Xcode.</text>
  <text id="template-version" style="stroke:none;fill:black;font-family:sans-serif;font-size:13;text-anchor:end;" transform="matrix(1 0 0 1 3036 1933)">Template v.4.0</text>
  <text style="stroke:none;fill:black;font-family:sans-serif;font-size:13;text-anchor:end;" transform="matrix(1 0 0 1 3036 1951)">Requires Xcode 14 or greater</text>
  <text id="descriptive-name" style="stroke:none;fill:black;font-family:sans-serif;font-size:13;text-anchor:end;" transform="matrix(1 0 0 1 3036 1969)">Generated from autostartstop</text>
  <text style="stroke:none;fill:black;font-family:sans-serif;font-size:13;text-anchor:end;" transform="matrix(1 0 0 1 3036 1987)">Typeset at 100 points</text>
  <text style="stroke:none;fill:black;font-family:sans-serif;font-size:13;" transform="matrix(1 0 0 1 263 726)">Small</text>
  <text style="stroke:none;fill:black;font-family:sans-serif;font-size:13;" transform="matrix(1 0 0 1 263 1156)">Medium</text>
  <text style="stroke:none;fill:black;font-family:sans-serif;font-size:13;" transform="matrix(1 0 0 1 263 1586)">Large</text>
 </g>
 <g id="Guides">
  <g id="H-reference" style="fill:#27AAE1;stroke:none;" transform="matrix(1 0 0 1 339 696)">
   <path d="M0.993654 0L3.63775 0L29.3281-67.1323L30.0303-67.1323L30.0303-70.459L28.1226-70.459ZM11.6885-24.4799L46.9815-24.4799L46.2315-26.7285L12.4385-26.7285ZM55.1196 0L57.7637 0L30.6382-70.459L29.4326-70.459L29.4326-67.1323Z"/>
  </g>
  <line id="Baseline-S" style="fill:none;stroke:#27AAE1;opacity:1;stroke-width:0.5;" x1="263" x2="3036" y1="696" y2="696"/>
  <line id="Capline-S" style="fill:none;stroke:#27AAE1;opacity:1;stroke-width:0.5;" x1="263" x2="3036" y1="625.541" y2="625.541"/>
  <g id="H-reference" style="fill:#27AAE1;stroke:none;" transform="matrix(1 0 0 1 339 1126)">
   <path d="M0.993654 0L3.63775 0L29.3281-67.1323L30.0303-67.1323L30.0303-70.459L28.1226-70.459ZM11.6885-24.4799L46.9815-24.4799L46.2315-26.7285L12.4385-26.7285ZM55.1196 0L57.7637 0L30.6382-70.459L29.4326-70.459L29.4326-67.1323Z"/>
  </g>
  <line id="Baseline-M" style="fill:none;stroke:#27AAE1;opacity:1;stroke-width:0.5;" x1="263" x2="3036" y1="1126" y2="1126"/>
  <line id="Capline-M" style="fill:none;stroke:#27AAE1;opacity:1;stroke-width:0.5;" x1="263" x2="3036" y1="1055.54" y2="1055.54"/>
  <g id="H-reference" style="fill:#27AAE1;stroke:none;" transform="matrix(1 0 0 1 339 1556)">
   <path d="M0.993654 0L3.63775 0L29.3281-67.1323L30.0303-67.1323L30.0303-70.459L28.1226-70.459ZM11.6885-24.4799L46.9815-24.4799L46.2315-26.7285L12.4385-26.7285ZM55.1196 0L57.7637 0L30.6382-70.459L29.4326-70.459L29.4326-67.1323Z"/>
  </g>
  <line id="Baseline-L" style="fill:none;stroke:#27AAE1;opacity:1;stroke-width:0.5;" x1="263" x2="3036" y1="1556" y2="1556"/>
  <line id="Capline-L" style="fill:none;stroke:#27AAE1;opacity:1;stroke-width:0.5;" x1="263" x2="3036" y1="1485.54" y2="1485.54"/>
  <line id="left-margin-Regular-M" style="fill:none;stroke:#00AEEF;stroke-width:0.5;opacity:1.0;" x1="1391.32" x2="1391.32" y1="1030.79" y2="1150.12"/>
  <line id="right-margin-Regular-M" style="fill:none;stroke:#00AEEF;stroke-width:0.5;opacity:1.0;" x1="1508.37" x2="1508.37" y1="1030.79" y2="1150.12"/>
 </g>
 <g id="Symbols">
  <g id="Black-L" transform="matrix(1 0 0 1 2854.19 1556)">
   <path d="M11.2588-35.2697C11.2588-17.5478 19.6478 2.59662 32.0132 13.2095C37.4148 18.0101 43.4333 17.9723 47.2253 13.8634C51.4481 9.28474 50.085 3.19908 45.8788-1.30422C36.7243-10.3981 31.4468-21.8501 31.426-35.2697C31.3855-61.7213 52.765-83.0592 79.1958-83.0592C105.647-83.0592 127.027-61.7213 126.985-35.2697C126.964-21.8501 121.667-10.3981 112.534-1.30422C108.327 3.19908 106.964 9.28474 111.186 13.8634C114.979 17.9723 120.998 18.0101 126.378 13.2095C138.765 2.59662 147.154-17.5478 147.154-35.2697C147.154-72.6336 116.56-103.207 79.1958-103.207C41.8515-103.207 11.2588-72.6336 11.2588-35.2697ZM134.583 17.6275L109.324-5.6988C105.488-9.28419 101.339-7.02732 100.85-2.48525L98.1659 24.9764C97.8557 28.1677 99.8755 30.1291 103.144 29.6866L132.431 25.7673C137.256 25.1287 138.615 21.3518 134.583 17.6275ZM61.2534-10.7983C65.9043-10.7983 68.7826-13.3932 69.9561-18.8387L71.3691-23.5884L87.0225-23.5884L88.4551-18.8387C89.6078-13.3944 92.4873-10.7983 97.1394-10.7983C102.599-10.7983 105.778-13.8981 105.778-19.118C105.778-20.5044 105.423-22.4128 104.574-25.0545L93.6324-57.5902C91.1699-65.3385 86.4005-68.9993 78.9998-68.9993C71.7939-68.9993 67.2801-65.3969 64.7592-57.5902L53.8166-25.0545C52.9884-22.4128 52.6327-20.5044 52.6327-19.1192C52.6327-13.8969 55.8118-10.7983 61.2534-10.7983ZM74.3923-36.2756L78.8557-53.5568L79.5347-53.5568L83.9981-36.2756Z"/>
  </g>
  <g id="Heavy-L" transform="matrix(1 0 0 1 2558.42 1556)">
   <path d="M11.2588-35.2697C11.2588-16.6969 20.281 3.13434 33.5463 14.0614C38.296 18.2046 43.6599 18.0142 46.8899 14.309C50.4681 10.2356 49.2412 4.93468 45.4713 1.06613C35.206-8.17281 29.0554-20.7018 29.0252-35.2697C28.9705-62.5469 51.0062-84.5223 78.2532-84.5223C105.53-84.5223 127.566-62.5469 127.506-35.2697C127.476-20.7018 121.3-8.17281 111.065 1.06613C107.295 4.93468 106.069 10.2356 109.641 14.309C112.877 18.0142 118.241 18.2046 122.96 14.0614C136.256 3.13434 145.278-16.6969 145.278-35.2697C145.278-72.0727 115.056-102.264 78.2532-102.264C41.4748-102.264 11.2588-72.0727 11.2588-35.2697ZM131.981 18.4203L108.018-4.28895C104.394-7.75068 100.54-5.7177 99.9708-1.33022L96.7721 25.2078C96.3831 28.4536 98.3968 30.4226 101.706 29.9657L129.753 26.1788C134.413 25.5579 135.77 22.0071 131.981 18.4203ZM59.658-10.4812C63.72-10.4812 66.2662-12.6967 67.3862-17.518L69.5889-24.3896L86.9176-24.3896L89.1449-17.518C90.2347-12.7023 92.7865-10.4812 96.8541-10.4812C101.648-10.4812 104.486-13.2441 104.486-17.8028C104.486-19.0711 104.167-20.7241 103.409-23.0516L90.833-59.2503C88.6854-65.888 84.4994-69.0557 78.0892-69.0557C71.8374-69.0557 67.8657-65.9326 65.6735-59.2503L53.092-23.0516C52.3642-20.7241 52.045-19.0711 52.045-17.8084C52.045-13.2385 54.8827-10.4812 59.658-10.4812ZM72.4642-35.7653L77.9126-54.8339L78.5883-54.8339L84.0366-35.7653Z"/>
  </g>
  <g id="Bold-L" transform="matrix(1 0 0 1 2262.89 1556)">
   <path d="M11.2588-35.2697C11.2588-15.6889 21.0722 3.80277 35.422 15.0546C39.3648 18.3982 43.8919 18.053 46.4451 14.8771C49.254 11.4411 48.2036 7.10104 44.994 4.00142C33.3309-5.42924 26.0672-19.2728 26.0292-35.2697C25.9664-63.5614 48.8167-86.3357 77.0704-86.3357C105.362-86.3357 128.212-63.5614 128.136-35.2697C128.098-19.2728 120.81-5.42924 109.185 4.00142C105.975 7.10104 104.925 11.4411 107.72 14.8771C110.287 18.053 114.814 18.3982 118.719 15.0546C133.107 3.80277 142.92-15.6889 142.92-35.2697C142.92-71.3811 113.182-101.081 77.0704-101.081C40.9838-101.081 11.2588-71.3811 11.2588-35.2697ZM128.881 19.2697L106.434-2.70113C103.116-5.94958 99.6453-4.18579 99.0065-0.0649065L95.237 25.3729C94.7706 28.6207 96.7318 30.5528 100.02 30.088L126.612 26.4624C131.005 25.872 132.325 22.6278 128.881 19.2697ZM57.7503-10.1266C61.0972-10.1266 63.2211-11.8882 64.2571-15.9335L67.4209-25.3287L86.7199-25.3287L89.9084-15.9335C90.9064-11.9015 93.0436-10.1266 96.4037-10.1266C100.376-10.1266 102.783-12.467 102.783-16.2111C102.783-17.3259 102.51-18.6639 101.867-20.5995L87.3749-61.086C85.6117-66.3929 82.1481-68.961 76.9448-68.961C71.8539-68.961 68.5583-66.4221 66.7659-61.086L52.2601-20.5995C51.6553-18.6639 51.3821-17.3259 51.3821-16.2243C51.3821-12.4538 53.7897-10.1266 57.7503-10.1266ZM70.0746-35.0606L76.7372-56.3348L77.3904-56.3348L84.053-35.0606Z"/>
  </g>
  <g id="Semibold-L" transform="matrix(1 0 0 1 1966.99 1556)">
   <path d="M11.2588-35.2697C11.2588-14.9939 21.6177 4.26358 36.715 15.7393C40.1016 18.5317 44.0519 18.0798 46.1385 15.2688C48.417 12.2722 47.4883 8.59452 44.665 6.02499C32.0383-3.53784 24.0071-18.2877 23.9637-35.2697C23.8955-64.2608 47.3072-87.5858 76.2549-87.5858C105.246-87.5858 128.658-64.2608 128.571-35.2697C128.528-18.2877 120.472-3.53784 107.888 6.02499C105.065 8.59452 104.136 12.2722 106.396 15.2688C108.501 18.0798 112.452 18.5317 115.795 15.7393C130.936 4.26358 141.294-14.9939 141.294-35.2697C141.294-70.9043 111.889-100.266 76.2549-100.266C40.6453-100.266 11.2588-70.9043 11.2588-35.2697ZM126.744 19.8552L105.342-1.60649C102.235-4.70791 99.0287-3.1297 98.3416 0.807391L94.1788 25.4867C93.6589 28.736 95.5841 30.6425 98.8583 30.1722L124.447 26.658C128.656 26.0885 129.95 23.0556 126.744 19.8552ZM56.4351-9.88209C59.2891-9.88209 61.1219-11.3309 62.1-14.8412L65.9263-25.9761L86.5836-25.9761L90.4348-14.8412C91.3695-11.3493 93.2208-9.88209 96.0933-9.88209C99.4985-9.88209 101.61-11.9313 101.61-15.1137C101.61-16.1228 101.368-17.2435 100.805-18.909L84.9909-62.3514C83.4927-66.741 80.527-68.8956 76.1559-68.8956C71.8653-68.8956 69.0358-66.7596 67.5189-62.3514L51.6866-18.909C51.1666-17.2435 50.9251-16.1228 50.9251-15.1322C50.9251-11.9128 53.0363-9.88209 56.4351-9.88209ZM68.4272-34.5748L75.9269-57.3695L76.5645-57.3695L84.0642-34.5748Z"/>
  </g>
  <g id="Medium-L" transform="matrix(1 0 0 1 1670.9 1556)">
   <path d="M11.2588-35.2697C11.2588-14.467 22.0313 4.61299 37.6954 16.2584C40.6603 18.6329 44.1732 18.1001 45.906 15.5657C47.7824 12.9023 46.9459 9.72693 44.4155 7.55935C31.0581-2.1037 22.4451-17.5407 22.3976-35.2697C22.3252-64.7912 46.1626-88.5337 75.6366-88.5337C105.158-88.5337 128.996-64.7912 128.901-35.2697C128.853-17.5407 120.215-2.1037 106.905 7.55935C104.375 9.72693 103.538 12.9023 105.392 15.5657C107.148 18.1001 110.66 18.6329 113.578 16.2584C129.289 4.61299 140.062-14.467 140.062-35.2697C140.062-70.5427 110.91-99.6475 75.6366-99.6475C40.3886-99.6475 11.2588-70.5427 11.2588-35.2697ZM125.123 20.2992L104.514-0.776496C101.567-3.76642 98.5612-2.32892 97.8375 1.4688L93.3763 25.5731C92.816 28.8234 94.7138 30.7106 97.9771 30.2361L122.806 26.8062C126.875 26.2527 128.149 23.3801 125.123 20.2992ZM55.4379-9.69671C57.918-9.69671 59.5301-10.9082 60.4644-14.0129L64.793-26.467L86.4803-26.467L90.8339-14.0129C91.7207-10.9307 93.3552-9.69671 95.8579-9.69671C98.8333-9.69671 100.72-11.5251 100.72-14.2817C100.72-15.2105 100.502-16.1666 99.999-17.6273L83.1833-63.311C81.886-67.0049 79.2979-68.8461 75.5577-68.8461C71.8739-68.8461 69.3978-67.0155 68.09-63.311L51.2518-17.6273C50.796-16.1666 50.5787-15.2105 50.5787-14.3041C50.5787-11.5026 52.465-9.69671 55.4379-9.69671ZM67.178-34.2065L75.3124-58.154L75.9384-58.154L84.0728-34.2065Z"/>
  </g>
  <g id="Regular-L" transform="matrix(1 0 0 1 1374.99 1556)">
   <path d="M11.2588-35.2697C11.2588-13.7797 22.5707 5.06874 38.9742 16.9356C41.389 18.7648 44.3314 18.1266 45.6028 15.9531C46.9546 13.7243 46.2385 11.204 44.0901 9.56068C29.7797-0.23309 20.4076-16.5664 20.3549-35.2697C20.277-65.4829 44.6697-89.7701 74.8301-89.7701C105.043-89.7701 129.436-65.4829 129.331-35.2697C129.278-16.5664 119.881-0.23309 105.623 9.56068C103.475 11.204 102.758 13.7243 104.083 15.9531C105.382 18.1266 108.324 18.7648 110.686 16.9356C127.142 5.06874 138.454-13.7797 138.454-35.2697C138.454-70.0711 109.632-98.8411 74.8301-98.8411C40.0538-98.8411 11.2588-70.0711 11.2588-35.2697ZM123.009 20.8783L103.435 0.30611C100.696-2.5384 97.9515-1.28444 97.18 2.33151L92.3297 25.6857C91.7166 28.9374 93.5786 30.7994 96.8277 30.3194L120.664 26.9996C124.552 26.4669 125.801 23.8032 123.009 20.8783ZM54.1371-9.45491C56.1298-9.45491 57.4539-10.357 58.3309-12.9326L63.3148-27.1073L86.3455-27.1073L91.3545-12.9326C92.1787-10.3846 93.5305-9.45491 95.5508-9.45491C97.9656-9.45491 99.5587-10.9952 99.5587-13.1964C99.5587-14.0206 99.3727-14.7618 98.9481-15.9554L80.8255-64.5626C79.7903-67.3492 77.6947-68.7815 74.7774-68.7815C71.8852-68.7815 69.87-67.3492 68.8347-64.5626L50.6846-15.9554C50.3127-14.7618 50.1267-14.0206 50.1267-13.224C50.1267-10.9676 51.7198-9.45491 54.1371-9.45491ZM65.5487-33.726L74.511-59.1774L75.1216-59.1774L84.0839-33.726Z"/>
  </g>
  <g id="Light-L" transform="matrix(1 0 0 1 1079.2 1556)">
   <path d="M11.2588-35.2697C11.2588-13.3789 23.1624 5.54587 40.1194 17.2219C41.9806 18.5931 44.1787 18.0693 45.1066 16.4493C46.1149 14.7358 45.5705 12.8072 43.9374 11.5837C28.5201 1.58001 18.1746-15.5358 18.141-35.2697C18.1204-66.1318 43.0857-91.0297 73.9141-91.0297C104.776-91.0297 129.741-66.1318 129.674-35.2697C129.64-15.5358 119.308 1.58001 103.924 11.5837C102.291 12.8072 101.747 14.7358 102.708 16.4493C103.683 18.0693 105.881 18.5931 107.709 17.2219C124.699 5.54587 136.603-13.3789 136.603-35.2697C136.603-69.6131 108.257-97.925 73.9141-97.925C39.5576-97.925 11.2588-69.6131 11.2588-35.2697ZM121.654 20.6111L102.557 0.382451C100.314-1.92767 97.9515-0.807306 97.3136 2.14066L92.5015 25.0177C91.9647 27.8495 93.5022 29.3871 96.2743 28.9644L119.634 25.74C122.93 25.2836 123.93 23.0017 121.654 20.6111ZM53.2592-9.45491C54.8511-9.45491 55.8126-10.147 56.5178-12.1692L62.0552-27.4126L85.7729-27.4126L91.2972-12.1692C91.9687-10.1938 92.9771-9.45491 94.6157-9.45491C96.4769-9.45491 97.7265-10.6708 97.7265-12.3376C97.7265-13.0091 97.5787-13.5404 97.2495-14.4476L78.4971-64.4099C77.6909-66.5667 76.0915-67.6554 73.8804-67.6554C71.6562-67.6554 70.1372-66.5667 69.331-64.4099L50.5319-14.4476C50.2363-13.5404 50.0885-13.0091 50.0885-12.3843C50.0885-10.6241 51.3381-9.45491 53.2592-9.45491ZM63.8883-32.7718L73.6522-59.6927L74.1292-59.6927L83.8931-32.7718Z"/>
  </g>
  <g id="Thin-L" transform="matrix(1 0 0 1 783.716 1556)">
   <path d="M11.2588-35.2697C11.2588-12.8489 23.9449 6.17691 41.6339 17.6005C42.7631 18.3659 43.9768 17.9936 44.4503 17.1056C45.0042 16.0736 44.6871 14.9275 43.7355 14.2594C26.8541 3.97798 15.2214-14.1727 15.2129-35.2697C15.268-66.99 40.9906-92.6957 72.7024-92.6957C104.423-92.6957 130.145-66.99 130.128-35.2697C130.12-14.1727 118.551 3.97798 101.678 14.2594C100.726 14.9275 100.409 16.0736 100.891 17.1056C101.437 17.9936 102.65 18.3659 103.771 17.6005C121.468 6.17691 134.155-12.8489 134.155-35.2697C134.155-69.0073 106.44-96.7134 72.7024-96.7134C38.9013-96.7134 11.2588-69.0073 11.2588-35.2697ZM119.862 20.2577L101.395 0.483418C99.809-1.11993 97.9515-0.17626 97.4903 1.88824L92.7287 24.1342C92.2928 26.4107 93.4013 27.5192 95.5423 27.1722L118.271 24.074C120.784 23.7186 121.457 21.9415 119.862 20.2577ZM52.0981-9.45491C53.1599-9.45491 53.6418-9.86938 54.1198-11.1595L60.3892-27.8165L85.0157-27.8165L91.2215-11.1595C91.6911-9.94137 92.245-9.45491 93.3788-9.45491C94.5081-9.45491 95.3033-10.2417 95.3033-11.2017C95.3033-11.6713 95.206-11.9249 95.003-12.4535L75.4176-64.2079C74.9143-65.5318 73.9712-66.1662 72.694-66.1662C71.3533-66.1662 70.4906-65.5318 69.9873-64.2079L50.3299-12.4535C50.1354-11.9249 50.0381-11.6713 50.0381-11.2737C50.0381-10.1697 50.8333-9.45491 52.0981-9.45491ZM61.6922-31.5097L72.5163-60.3742L72.8166-60.3742L83.6407-31.5097Z"/>
  </g>
  <g id="Ultralight-L" transform="matrix(1 0 0 1 487.631 1556)">
   <path d="M11.2588-35.2697C11.2588-12.5774 24.3457 6.50013 42.4096 17.7944C43.1639 18.2495 43.8733 17.9548 44.1141 17.4417C44.4354 16.7588 44.2346 16.0135 43.6321 15.6298C26.0008 5.20621 13.7087-13.4746 13.7132-35.2697C13.8071-67.4296 39.9175-93.549 72.0819-93.549C104.242-93.549 130.352-67.4296 130.361-35.2697C130.366-13.4746 118.163 5.20621 100.527 15.6298C99.9247 16.0135 99.7239 16.7588 99.9602 17.4417C100.286 17.9548 100.995 18.2495 101.754 17.7944C119.814 6.50013 132.9-12.5774 132.9-35.2697C132.9-68.697 105.509-96.0928 72.0819-96.0928C38.5652-96.0928 11.2588-68.697 11.2588-35.2697ZM118.944 20.0767L100.801 0.535133C99.5504-0.706213 97.9515 0.146958 97.5808 1.75896L92.845 23.6817C92.4609 25.6738 93.3496 26.5624 95.1673 26.2542L117.573 23.2208C119.685 22.917 120.19 21.3985 118.944 20.0767ZM51.5034-9.45491C52.2936-9.45491 52.5299-9.72717 52.8916-10.6423L59.5359-28.0234L84.6278-28.0234L91.1827-10.6423C91.5489-9.81208 91.8701-9.45491 92.7453-9.45491C93.4996-9.45491 94.0621-10.0219 94.0621-10.6199C94.0621-10.986 93.9907-11.0975 93.8523-11.4322L73.8403-64.1045C73.4921-65.0017 72.8852-65.4034 72.0864-65.4034C71.1981-65.4034 70.6716-65.0017 70.3234-64.1045L50.2265-11.4322C50.0836-11.0975 50.0122-10.986 50.0122-10.7048C50.0122-9.93698 50.5747-9.45491 51.5034-9.45491ZM60.5674-30.8632L71.9345-60.7233L72.1443-60.7233L83.5114-30.8632Z"/>
  </g>
  <g id="Black-M" transform="matrix(1 0 0 1 2871.36 1126)">
   <path d="M8.72266-35.2606C8.72266-22.2077 14.758-6.3215 23.6395 1.60484C28.3096 5.82693 33.4342 5.94444 36.8084 2.48903C40.5875-1.42259 39.4376-6.73169 35.8737-10.7092C29.586-17.6584 26.1158-25.7111 26.1103-35.2606C26.099-55.1322 42.1762-71.1983 62.0422-71.1983C81.9138-71.1983 97.9909-55.1322 97.9799-35.2606C97.9744-25.7111 94.4985-17.6584 88.2162-10.7092C84.6524-6.73169 83.5025-1.42259 87.2818 2.48903C90.6557 5.94444 95.7804 5.82693 100.445 1.60484C109.332-6.3215 115.367-22.2077 115.367-35.2606C115.367-64.628 91.4096-88.5802 62.0422-88.5802C32.6807-88.5802 8.72266-64.628 8.72266-35.2606ZM106.32 5.00354L85.7014-13.5521C82.6153-16.3638 79.1987-14.441 78.9058-10.8797L77.2743 11.1252C77.1121 13.494 78.6383 14.963 81.0703 14.6402L104.762 11.503C108.561 11.0034 109.582 7.93458 106.32 5.00354ZM48.7077-16.5741C52.7628-16.5741 55.229-18.8821 56.1609-23.5625L56.6519-25.5634L67.4326-25.5634L67.9294-23.5625C68.8558-18.8818 71.3216-16.5741 75.3765-16.5741C80.1037-16.5741 82.8135-19.2213 82.8135-23.7613C82.8135-24.9161 82.5118-26.5856 81.7888-28.8637L74.6313-51.1059C72.4839-57.978 68.3546-61.1913 61.8655-61.1913C55.5533-61.1913 51.6576-58.0351 49.4531-51.1059L42.2959-28.8637C41.5784-26.5856 41.2767-24.9161 41.2767-23.761C41.2767-19.2216 43.9866-16.5741 48.7077-16.5741ZM59.0669-36.3492L61.787-48.4007L62.2978-48.4007L65.0179-36.3492Z"/>
  </g>
  <g id="Heavy-M" transform="matrix(1 0 0 1 2575.48 1126)">
   <path d="M8.72266-35.2606C8.72266-21.4129 15.3224-5.83986 25.0326 2.41125C29.1165 6.03299 33.6698 5.99066 36.5263 2.8789C39.7069-0.586387 38.6743-5.18291 35.4895-8.57866C28.218-15.6503 23.9841-24.6837 23.9677-35.2606C23.9371-55.8794 40.603-72.5124 61.2053-72.5124C81.8241-72.5124 98.49-55.8794 98.4571-35.2606C98.4407-24.6837 94.1927-15.6503 86.9376-8.57866C83.7527-5.18291 82.7202-0.586387 85.8985 2.8789C88.7573 5.99066 93.3106 6.03299 97.3781 2.41125C107.105-5.83986 113.704-21.4129 113.704-35.2606C113.704-64.122 90.0667-87.7433 61.2053-87.7433C32.3582-87.7433 8.72266-64.122 8.72266-35.2606ZM103.901 5.80318L84.5058-12.181C81.5805-14.921 78.4172-13.2047 78.0344-9.73296L75.896 11.413C75.6497 13.8737 77.1998 15.3802 79.716 15.0381L102.239 12.0214C105.932 11.5321 106.974 8.64915 103.901 5.80318ZM47.2291-16.2641C50.7455-16.2641 52.9205-18.2206 53.8159-22.3418L55.0279-26.3185L67.3828-26.3185L68.6089-22.3418C69.4879-18.2229 71.6652-16.2641 75.1838-16.2641C79.3113-16.2641 81.7191-18.6119 81.7191-22.5548C81.7191-23.6083 81.4495-25.0475 80.8067-27.0447L72.1096-52.7428C70.2488-58.5873 66.6442-61.3503 61.0581-61.3503C55.617-61.3503 52.2055-58.6309 50.3011-52.7428L41.6018-27.0447C40.9753-25.0475 40.7057-23.6083 40.7057-22.557C40.7057-18.6096 43.1135-16.2641 47.2291-16.2641ZM57.3353-35.9384L60.9443-49.6016L61.4641-49.6016L65.0731-35.9384Z"/>
  </g>
  <g id="Bold-M" transform="matrix(1 0 0 1 2279.69 1126)">
   <path d="M8.72266-35.2606C8.72266-20.5238 15.9537-5.30108 26.591 3.31334C30.0191 6.26349 33.9333 6.04238 36.2108 3.31503C38.7219 0.349022 37.8206-3.45039 35.0596-6.19535C26.6877-13.4039 21.5995-23.5344 21.5708-35.2606C21.5187-56.7152 38.8432-73.9825 60.2692-73.9825C81.7238-73.9825 99.0482-56.7152 98.991-35.2606C98.9624-23.5344 93.8506-13.4039 85.5073-6.19535C82.7464-3.45039 81.8451 0.349022 84.351 3.31503C86.6336 6.04238 90.5478 6.26349 93.9473 3.31334C104.613-5.30108 111.844-20.5238 111.844-35.2606C111.844-63.5559 88.5644-86.8071 60.2692-86.8071C31.9974-86.8071 8.72266-63.5559 8.72266-35.2606ZM101.196 6.69769L83.1684-10.6471C80.4229-13.3071 77.5429-11.8218 77.0596-8.45017L74.3541 11.7349C74.0137 14.2986 75.5905 15.8468 78.2011 15.4832L99.4166 12.6014C102.991 12.1235 104.056 9.4485 101.196 6.69769ZM45.5751-15.9174C48.4888-15.9174 50.3381-17.4807 51.1927-20.9763L53.2112-27.1631L67.3272-27.1631L69.3691-20.9763C70.1951-17.4858 72.0495-15.9174 74.9683-15.9174C78.425-15.9174 80.4949-17.9302 80.4949-21.2051C80.4949-22.1453 80.2612-23.327 79.708-25.0099L69.2886-54.574C67.7486-59.2689 64.7308-61.5283 60.1549-61.5283C55.6882-61.5283 52.8183-59.2975 51.2498-54.574L40.8252-25.0099C40.3006-23.327 40.0669-22.1453 40.0669-21.2102C40.0669-17.9251 42.1368-15.9174 45.5751-15.9174ZM55.3982-35.4788L60.0016-50.945L60.5316-50.945L65.135-35.4788Z"/>
  </g>
  <g id="Semibold-M" transform="matrix(1 0 0 1 1983.62 1126)">
   <path d="M8.72266-35.2606C8.72266-19.9108 16.3889-4.92964 27.6653 3.93523C30.6414 6.4224 34.115 6.07803 35.9933 3.61569C38.0428 0.993888 37.232-2.25599 34.7633-4.5523C25.6327-11.8553 19.9555-22.7421 19.9185-35.2606C19.8515-57.2915 37.63-74.9959 59.6238-74.9959C81.6546-74.9959 99.4331-57.2915 99.359-35.2606C99.322-22.7421 93.6148-11.8553 84.5213-4.5523C82.0526-2.25599 81.2418 0.993888 83.2842 3.61569C85.1696 6.07803 88.6432 6.4224 91.5822 3.93523C102.896-4.92964 110.562-19.9108 110.562-35.2606C110.562-63.1656 87.5288-86.1618 59.6238-86.1618C31.7487-86.1618 8.72266-63.1656 8.72266-35.2606ZM99.331 7.31436L82.2464-9.58967C79.6249-12.1944 76.9402-10.8685 76.3875-7.56582L73.2911 11.9569C72.8859 14.5915 74.4811 16.1685 77.1567 15.79L97.4708 13.0012C100.963 12.5312 102.044 9.99957 99.331 7.31436ZM44.4349-15.6784C46.9331-15.6784 48.5579-16.9706 49.3843-20.035L51.9587-27.7454L67.2888-27.7454L69.8931-20.035C70.6826-16.9777 72.3145-15.6784 74.8197-15.6784C77.814-15.6784 79.651-17.4602 79.651-20.2747C79.651-21.1367 79.442-22.1409 78.9506-23.6072L67.3438-55.8364C66.0249-59.7388 63.4117-61.6509 59.5323-61.6509C55.7372-61.6509 53.2408-59.757 51.9037-55.8364L40.2899-23.6072C39.8355-22.1409 39.6265-21.1367 39.6265-20.2818C39.6265-17.4531 41.4635-15.6784 44.4349-15.6784ZM54.0628-35.162L59.3517-51.8711L59.8887-51.8711L65.1776-35.162Z"/>
  </g>
  <g id="Medium-M" transform="matrix(1 0 0 1 1687.4 1126)">
   <path d="M8.72266-35.2606C8.72266-19.4461 16.7189-4.64801 28.4799 4.40678C31.1132 6.5429 34.2527 6.10506 35.8283 3.84367C37.5279 1.48285 36.7857-1.35035 34.5386-3.30648C24.8328-10.6811 18.709-22.1413 18.6656-35.2606C18.5873-57.7284 36.7101-75.7643 59.1344-75.7643C81.6021-75.7643 99.7249-57.7284 99.6381-35.2606C99.5946-22.1413 93.436-10.6811 83.7737-3.30648C81.5265-1.35035 80.7843 1.48285 82.4753 3.84367C84.0595 6.10506 87.199 6.5429 89.7889 4.40678C101.593-4.64801 109.59-19.4461 109.59-35.2606C109.59-62.8697 86.7435-85.6724 59.1344-85.6724C31.5601-85.6724 8.72266-62.8697 8.72266-35.2606ZM97.9169 7.78194L81.5472-8.78789C79.0198-11.3508 76.4832-10.1456 75.878-6.89527L72.4851 12.1252C72.0307 14.8135 73.64 16.4125 76.3648 16.0227L95.9955 13.3044C99.4254 12.8404 100.519 10.4174 97.9169 7.78194ZM43.5703-15.4972C45.7534-15.4972 47.208-16.5838 48.0131-19.3212L51.0091-28.187L67.2597-28.187L70.2905-19.3212C71.0522-16.5924 72.5154-15.4972 74.7071-15.4972C77.3507-15.4972 79.011-17.1039 79.011-19.5692C79.011-20.372 78.8208-21.2415 78.3763-22.5436L65.8692-56.7935C64.7179-60.0951 62.4115-61.744 59.0601-61.744C55.7745-61.744 53.5611-60.1054 52.3996-56.7935L39.8839-22.5436C39.4828-21.2415 39.2926-20.372 39.2926-19.5778C39.2926-17.0953 40.9529-15.4972 43.5703-15.4972ZM53.0502-34.9218L58.859-52.5733L59.4012-52.5733L65.2099-34.9218Z"/>
  </g>
  <g id="Regular-M" transform="matrix(1 0 0 1 1391.32 1126)">
   <path d="M8.72266-35.2606C8.72266-18.8399 17.1493-4.28066 29.5424 5.02184C31.7286 6.70006 34.4324 6.14032 35.6132 4.14103C36.8563 2.12063 36.2036-0.169084 34.2455-1.68149C23.7894-9.14951 17.0831-21.3577 17.0314-35.2606C16.9384-58.2983 35.5102-76.7666 58.4961-76.7666C81.5337-76.7666 100.106-58.2983 100.002-35.2606C99.9503-21.3577 93.2028-9.14951 82.7985-1.68149C80.8404-0.169084 80.1877 2.12063 81.4202 4.14103C82.6115 6.14032 85.3153 6.70006 87.4497 5.02184C99.8946-4.28066 108.321-18.8399 108.321-35.2606C108.321-62.4838 85.7192-85.0341 58.4961-85.0341C31.3141-85.0341 8.72266-62.4838 8.72266-35.2606ZM96.0724 8.39184L80.6354-7.74207C78.2306-10.2504 75.8871-9.20273 75.2133-6.02065L71.4338 12.3447C70.9153 15.1032 72.5428 16.7306 75.3319 16.3262L94.0711 13.6998C97.42 13.2436 98.5289 10.9624 96.0724 8.39184ZM42.4426-15.2608C44.2148-15.2608 45.4473-16.0793 46.2246-18.3902L49.7704-28.7629L67.2218-28.7629L70.8088-18.3902C71.5343-16.0899 72.7774-15.2608 74.5601-15.2608C76.7464-15.2608 78.1764-16.6391 78.1764-18.6489C78.1764-19.3745 78.0105-20.0684 77.6272-21.1562L63.9458-58.0421C63.0132-60.5599 61.1069-61.8653 58.4443-61.8653C55.823-61.8653 53.979-60.5599 53.0464-58.0421L39.3545-21.1562C39.0228-20.0684 38.857-19.3745 38.857-18.6595C38.857-16.6285 40.287-15.2608 42.4426-15.2608ZM51.7295-34.6085L58.2162-53.4893L58.7654-53.4893L65.2521-34.6085Z"/>
  </g>
  <g id="Light-M" transform="matrix(1 0 0 1 1095.44 1126)">
   <path d="M8.72266-35.2606C8.72266-18.4805 17.6798-3.85288 30.5691 5.2785C32.2591 6.54606 34.2955 6.08899 35.1683 4.58591C36.1034 3.02751 35.6047 1.26823 34.1086 0.132267C22.6601-7.52397 15.0811-20.4337 15.0465-35.2606C15.0049-58.8801 34.09-77.8959 57.6748-77.8959C81.2942-77.8959 100.379-58.8801 100.31-35.2606C100.275-20.4337 92.6895-7.52397 81.2756 0.132267C79.7795 1.26823 79.2808 3.02751 80.1882 4.58591C81.0887 6.08899 83.1251 6.54606 84.7804 5.2785C97.7044-3.85288 106.662-18.4805 106.662-35.2606C106.662-62.0731 84.4872-84.2128 57.6748-84.2128C30.8693-84.2128 8.72266-62.0731 8.72266-35.2606ZM94.8575 8.15228L79.8483-7.67363C77.8884-9.70281 75.8871-8.77495 75.3331-6.19176L71.5878 11.7458C71.1377 14.1279 72.4743 15.4644 74.8357 15.1113L93.1471 12.5705C95.9655 12.1827 96.852 10.2438 94.8575 8.15228ZM41.6555-15.2608C43.0683-15.2608 43.9758-15.8911 44.5991-17.7057L48.6411-29.0366L66.7084-29.0366L70.7574-17.7057C71.3461-15.9188 72.2812-15.2608 73.7217-15.2608C75.4117-15.2608 76.5337-16.3482 76.5337-17.8789C76.5337-18.4676 76.4021-18.9733 76.1043-19.8044L61.8582-57.9052C61.131-59.8583 59.6696-60.8557 57.6401-60.8557C55.6177-60.8557 54.2185-59.8583 53.4913-57.9052L39.2176-19.8044C38.9544-18.9733 38.8228-18.4676 38.8228-17.9066C38.8228-16.3205 39.9448-15.2608 41.6555-15.2608ZM50.2409-33.7529L57.4462-53.9513L57.8756-53.9513L65.081-33.7529Z"/>
  </g>
  <g id="Thin-M" transform="matrix(1 0 0 1 799.828 1126)">
   <path d="M8.72266-35.2606C8.72266-18.0053 18.3813-3.28712 31.9269 5.61796C32.9606 6.34239 34.1145 6.02109 34.5799 5.17431C35.1076 4.22693 34.8126 3.1692 33.9275 2.53111C21.1664-5.37406 12.4333-19.2116 12.4213-35.2606C12.4476-59.6495 32.2117-79.3895 56.5885-79.3895C80.9773-79.3895 100.741-59.6495 100.717-35.2606C100.705-19.2116 92.0106-5.37406 79.2615 2.53111C78.3764 3.1692 78.0814 4.22693 78.5588 5.17431C79.0745 6.02109 80.2284 6.34239 81.2501 5.61796C94.8077-3.28712 104.466-18.0053 104.466-35.2606C104.466-61.53 82.8578-83.1265 56.5885-83.1265C30.2809-83.1265 8.72266-61.53 8.72266-35.2606ZM93.2507 7.83545L78.8072-7.58311C77.4358-8.97863 75.8871-8.20919 75.4915-6.41806L71.7915 10.9537C71.4319 12.8379 72.3838 13.7898 74.1794 13.5045L91.925 11.0769C94.0419 10.7796 94.6342 9.29328 93.2507 7.83545ZM40.6145-15.2608C41.5521-15.2608 42.0295-15.6422 42.4492-16.8005L47.1475-29.3987L66.0295-29.3987L70.6896-16.8005C71.0972-15.6925 71.6249-15.2608 72.6128-15.2608C73.6465-15.2608 74.3612-15.9635 74.3612-16.8606C74.3612-17.2682 74.2748-17.5249 74.0902-18.0166L59.0973-57.7241C58.6416-58.9305 57.7686-59.5205 56.5765-59.5205C55.3461-59.5205 54.5353-58.9305 54.0797-57.7241L39.0365-18.0166C38.8639-17.5249 38.7775-17.2682 38.7775-16.9109C38.7775-15.9132 39.4922-15.2608 40.6145-15.2608ZM48.272-32.6214L56.4278-54.5623L56.6988-54.5623L64.8547-32.6214Z"/>
  </g>
  <g id="Ultralight-M" transform="matrix(1 0 0 1 503.679 1126)">
   <path d="M8.72266-35.2606C8.72266-17.7619 18.7407-2.99734 32.6224 5.79183C33.32 6.23806 34.0217 5.98632 34.2785 5.47568C34.5976 4.84127 34.4069 4.14287 33.8348 3.75979C20.4014-4.27289 11.0772-18.5857 11.0767-35.2606C11.1378-60.0436 31.2496-80.1545 56.0321-80.1545C80.8151-80.1545 100.927-60.0436 100.926-35.2606C100.926-18.5857 91.6628-4.27289 78.2298 3.75979C77.6577 4.14287 77.467 4.84127 77.7242 5.47568C78.0429 5.98632 78.7447 6.23806 79.4418 5.79183C93.324-2.99734 103.342-17.7619 103.342-35.2606C103.342-61.2518 82.0233-82.5701 56.0321-82.5701C29.9795-82.5701 8.72266-61.2518 8.72266-35.2606ZM92.4277 7.67318L78.274-7.53674C77.2039-8.6077 75.8871-7.91941 75.5726-6.53398L71.8958 10.548C71.5826 12.1772 72.3374 12.932 73.8433 12.6815L91.2991 10.3119C93.0567 10.061 93.4983 8.80644 92.4277 7.67318ZM40.0813-15.2608C40.7755-15.2608 41.0327-15.5147 41.348-16.3369L46.3825-29.5842L65.6818-29.5842L70.6548-16.3369C70.9697-15.5766 71.2888-15.2608 72.0448-15.2608C72.7424-15.2608 73.2484-15.7664 73.2484-16.339C73.2484-16.6538 73.1853-16.7831 73.0585-17.1009L57.6832-57.6314C57.3666-58.4552 56.7949-58.8366 56.0317-58.8366C55.207-58.8366 54.6976-58.4552 54.3811-57.6314L38.9438-17.1009C38.8175-16.7831 38.7544-16.6538 38.7544-16.4008C38.7544-15.7045 39.2604-15.2608 40.0813-15.2608ZM47.2636-32.0418L55.9062-54.8753L56.0961-54.8753L64.7388-32.0418Z"/>
  </g>
  <g id="Black-S" transform="matrix(1 0 0 1 2884.57 696)">
   <path d="M6.83594-35.2539C6.83594-25.2441 11.4258-12.6953 18.1641-6.5918C21.9727-3.125 26.123-2.97852 28.9062-5.76172C32.0312-8.93555 31.1035-13.2812 28.2227-16.5527C23.5352-21.9727 20.9961-28.0273 20.9961-35.2539C20.9961-50.6348 33.4473-63.0859 48.8281-63.0859C64.209-63.0859 76.6602-50.6348 76.6602-35.2539C76.6602-28.0273 74.1211-21.9727 69.4336-16.5527C66.5527-13.2812 65.625-8.93555 68.75-5.76172C71.5332-2.97852 75.6836-3.125 79.4922-6.5918C86.2305-12.6953 90.8203-25.2441 90.8203-35.2539C90.8203-58.3984 71.9727-77.2461 48.8281-77.2461C25.6836-77.2461 6.83594-58.3984 6.83594-35.2539ZM83.9844-3.95508L67.4805-18.6523C65.0391-20.8496 62.3047-19.2871 62.1094-16.5039L60.9863 0.976562C60.8887 2.7832 62.0605 3.90625 63.916 3.66211L82.8125 1.17188C85.791 0.78125 86.5723-1.66016 83.9844-3.95508ZM38.5742-20.7031C41.8945-20.7031 43.8965-22.6074 44.6289-26.416L44.8242-27.4414L52.832-27.4414L53.0273-26.416C53.7598-22.6074 55.7617-20.7031 59.082-20.7031C62.9395-20.7031 65.1367-22.8516 65.1367-26.5625C65.1367-27.4902 64.8926-28.8574 64.3066-30.7129L59.1309-47.168C57.373-52.832 54.0039-55.4688 48.6816-55.4688C43.5059-55.4688 40.332-52.8809 38.5254-47.168L33.3496-30.7129C32.7637-28.8574 32.5195-27.4902 32.5195-26.5625C32.5195-22.8516 34.7168-20.7031 38.5742-20.7031ZM46.7285-36.1816L48.6328-45.2148L49.0234-45.2148L50.9277-36.1816Z"/>
  </g>
  <g id="Heavy-S" transform="matrix(1 0 0 1 2588.47 696)">
   <path d="M6.83594-35.2539C6.83594-24.6103 11.8407-12.3381 19.2243-5.9349C22.595-2.92908 26.342-2.93242 28.7219-5.48513C31.3744-8.33627 30.5273-12.1403 27.9115-14.9624C22.5095-20.463 19.4288-27.2667 19.4172-35.2539C19.3942-51.1995 32.2833-64.0655 48.2173-64.0655C64.1629-64.0655 77.052-51.1995 77.0289-35.2539C77.0174-27.2667 73.9252-20.463 68.5347-14.9624C65.9189-12.1403 65.0718-8.33627 67.7243-5.48513C70.1042-2.93242 73.8512-2.92908 77.2103-5.9349C84.6055-12.3381 89.6102-24.6103 89.6102-35.2539C89.6102-58.0181 70.9816-76.6353 48.2173-76.6353C25.4646-76.6353 6.83594-58.0181 6.83594-35.2539ZM82.0713-3.24056L66.5585-17.4884C64.1978-19.6856 61.6363-18.2845 61.3488-15.5013L59.7878 1.29925C59.6095 3.23266 60.839 4.42485 62.8212 4.15766L80.7727 1.75962C83.7281 1.369 84.5555-0.957164 82.0713-3.24056ZM37.4102-20.4381C40.3157-20.4381 42.1102-22.0658 42.8311-25.4595L43.5796-28.0522L52.8551-28.0522L53.6151-25.4595C54.3245-22.0658 56.119-20.4381 59.0244-20.4381C62.4324-20.4381 64.4107-22.3675 64.4107-25.629C64.4107-26.4876 64.1896-27.6819 63.6613-29.33L57.2408-48.5855C55.702-53.4428 52.7247-55.7338 48.0939-55.7338C43.5865-55.7338 40.77-53.4801 39.1938-48.5855L32.7734-29.33C32.2566-27.6819 32.0355-26.4876 32.0355-25.629C32.0355-22.3675 34.0138-20.4381 37.4102-20.4381ZM45.4378-35.9396L48.0105-46.1829L48.4242-46.1829L50.9969-35.9396Z"/>
  </g>
  <g id="Bold-S" transform="matrix(1 0 0 1 2292.43 696)">
   <path d="M6.83594-35.2539C6.83594-23.9014 12.3047-11.9385 20.4102-5.2002C23.291-2.70996 26.5869-2.88086 28.5156-5.17578C30.6396-7.66602 29.8828-10.8643 27.5635-13.1836C21.3623-18.7744 17.6758-26.416 17.6514-35.2539C17.6025-51.8311 30.9814-65.1611 47.5342-65.1611C64.1113-65.1611 77.4902-51.8311 77.4414-35.2539C77.417-26.416 73.7061-18.7744 67.5293-13.1836C65.21-10.8643 64.4531-7.66602 66.5771-5.17578C68.5059-2.88086 71.8018-2.70996 74.6582-5.2002C82.7881-11.9385 88.2568-23.9014 88.2568-35.2539C88.2568-57.5928 69.873-75.9521 47.5342-75.9521C25.2197-75.9521 6.83594-57.5928 6.83594-35.2539ZM79.9316-2.44141L65.5273-16.1865C63.2568-18.3838 60.8887-17.1631 60.498-14.3799L58.4473 1.66016C58.1787 3.73535 59.4727 5.00488 61.5967 4.71191L78.4912 2.41699C81.4209 2.02637 82.2998-0.170898 79.9316-2.44141ZM36.1084-20.1416C38.5498-20.1416 40.1123-21.46 40.8203-24.3896L42.1875-28.7354L52.8809-28.7354L54.2725-24.3896C54.9561-21.46 56.5186-20.1416 58.96-20.1416C61.8652-20.1416 63.5986-21.8262 63.5986-24.585C63.5986-25.3662 63.4033-26.3672 62.9395-27.7832L55.127-50.1709C53.833-54.126 51.2939-56.0303 47.4365-56.0303C43.6768-56.0303 41.2598-54.1504 39.9414-50.1709L32.1289-27.7832C31.6895-26.3672 31.4941-25.3662 31.4941-24.585C31.4941-21.8262 33.2275-20.1416 36.1084-20.1416ZM43.9941-35.6689L47.3145-47.2656L47.7539-47.2656L51.0742-35.6689Z"/>
  </g>
  <g id="Semibold-S" transform="matrix(1 0 0 1 1996.19 696)">
   <path d="M6.83594-35.2539C6.83594-23.4126 12.6246-11.663 21.2277-4.69365C23.7709-2.55889 26.7558-2.84531 28.3734-4.9625C30.1331-7.20391 29.4385-9.98447 27.3235-11.9572C20.5714-17.6103 16.4672-25.8295 16.4339-35.2539C16.3673-52.2665 30.0839-65.9165 47.0632-65.9165C64.0758-65.9165 77.7924-52.2665 77.7258-35.2539C77.6925-25.8295 73.555-17.6103 66.8361-11.9572C64.7212-9.98447 64.0266-7.20391 65.7862-4.9625C67.4039-2.84531 70.3888-2.55889 72.8986-4.69365C81.5351-11.663 87.3237-23.4126 87.3237-35.2539C87.3237-57.2995 69.1088-75.4812 47.0632-75.4812C25.0509-75.4812 6.83594-57.2995 6.83594-35.2539ZM78.4564-1.89043L64.8164-15.289C62.6081-17.4862 60.3732-16.3899 59.9115-13.6067L57.523 1.90898C57.1923 4.08193 58.5307 5.40479 60.7524 5.09404L76.9183 2.87021C79.8302 2.47959 80.7446 0.371191 78.4564-1.89043ZM35.2108-19.9372C37.3323-19.9372 38.7349-21.0423 39.434-23.6521L41.2277-29.2063L52.8986-29.2063L54.7257-23.6521C55.3915-21.0423 56.794-19.9372 58.9155-19.9372C61.4742-19.9372 63.0388-21.4529 63.0388-23.8651C63.0388-24.5931 62.8612-25.4607 62.4418-26.7168L53.6695-51.264C52.5444-54.597 50.3075-56.2347 46.9833-56.2347C43.739-56.2347 41.5975-54.6125 40.4568-51.264L31.6846-26.7168C31.2984-25.4607 31.1209-24.5931 31.1209-23.8651C31.1209-21.4529 32.6854-19.9372 35.2108-19.9372ZM42.9988-35.4823L46.8346-48.0121L47.2918-48.0121L51.1275-35.4823Z"/>
  </g>
  <g id="Medium-S" transform="matrix(1 0 0 1 1699.83 696)">
   <path d="M6.83594-35.2539C6.83594-23.042 12.8672-11.4541 21.8477-4.30957C24.1348-2.44434 26.8838-2.81836 28.2656-4.80078C29.749-6.85352 29.1016-9.31738 27.1416-11.0273C19.9717-16.7275 15.5508-25.3848 15.5107-35.2539C15.4307-52.5967 29.4033-66.4893 46.7061-66.4893C64.0488-66.4893 78.0215-52.5967 77.9414-35.2539C77.9014-25.3848 73.4404-16.7275 66.3105-11.0273C64.3506-9.31738 63.7031-6.85352 65.1865-4.80078C66.5684-2.81836 69.3174-2.44434 71.5645-4.30957C80.585-11.4541 86.6162-23.042 86.6162-35.2539C86.6162-57.0771 68.5293-75.124 46.7061-75.124C24.9229-75.124 6.83594-57.0771 6.83594-35.2539ZM77.3379-1.47266L64.2773-14.6084C62.1162-16.8057 59.9824-15.8037 59.4668-13.0205L56.8223 2.09766C56.4443 4.34473 57.8164 5.70801 60.1123 5.38379L75.7256 3.21387C78.624 2.82324 79.5654 0.782227 77.3379-1.47266ZM34.5303-19.7822C36.4092-19.7822 37.6904-20.7256 38.3828-23.0928L40.5-29.5635L52.9121-29.5635L55.0693-23.0928C55.7217-20.7256 57.0029-19.7822 58.8818-19.7822C61.1777-19.7822 62.6143-21.1699 62.6143-23.3193C62.6143-24.0068 62.4502-24.7734 62.0645-25.9082L52.5645-52.0928C51.5674-54.9541 49.5596-56.3896 46.6396-56.3896C43.7861-56.3896 41.8535-54.9629 40.8477-52.0928L31.3477-25.9082C31.002-24.7734 30.8379-24.0068 30.8379-23.3193C30.8379-21.1699 32.2744-19.7822 34.5303-19.7822ZM42.2441-35.3408L46.4707-48.5781L46.9414-48.5781L51.168-35.3408Z"/>
  </g>
  <g id="Regular-S" transform="matrix(1 0 0 1 1403.58 696)">
   <path d="M6.83594-35.2539C6.83594-22.5586 13.1836-11.1816 22.6562-3.80859C24.6094-2.29492 27.0508-2.7832 28.125-4.58984C29.248-6.39648 28.6621-8.44727 26.9043-9.81445C19.1895-15.5762 14.3555-24.8047 14.3066-35.2539C14.209-53.0273 28.5156-67.2363 46.2402-67.2363C64.0137-67.2363 78.3203-53.0273 78.2227-35.2539C78.1738-24.8047 73.291-15.5762 65.625-9.81445C63.8672-8.44727 63.2812-6.39648 64.4043-4.58984C65.4785-2.7832 67.9199-2.29492 69.8242-3.80859C79.3457-11.1816 85.6934-22.5586 85.6934-35.2539C85.6934-56.7871 67.7734-74.6582 46.2402-74.6582C24.7559-74.6582 6.83594-56.7871 6.83594-35.2539ZM75.8789-0.927734L63.5742-13.7207C61.4746-15.918 59.4727-15.0391 58.8867-12.2559L55.9082 2.34375C55.4688 4.6875 56.8848 6.10352 59.2773 5.76172L74.1699 3.66211C77.0508 3.27148 78.0273 1.31836 75.8789-0.927734ZM33.6426-19.5801C35.2051-19.5801 36.3281-20.3125 37.0117-22.3633L39.5508-30.0293L52.9297-30.0293L55.5176-22.3633C56.1523-20.3125 57.2754-19.5801 58.8379-19.5801C60.791-19.5801 62.0605-20.8008 62.0605-22.6074C62.0605-23.2422 61.9141-23.877 61.5723-24.8535L51.123-53.1738C50.293-55.4199 48.584-56.5918 46.1914-56.5918C43.8477-56.5918 42.1875-55.4199 41.3574-53.1738L30.9082-24.8535C30.6152-23.877 30.4688-23.2422 30.4688-22.6074C30.4688-20.8008 31.7383-19.5801 33.6426-19.5801ZM41.2598-35.1562L45.9961-49.3164L46.4844-49.3164L51.2207-35.1562Z"/>
  </g>
  <g id="Light-S" transform="matrix(1 0 0 1 1107.6 696)">
   <path d="M6.83594-35.2539C6.83594-22.2407 13.6528-10.8032 23.5644-3.58154C25.0786-2.43115 26.9297-2.82861 27.7314-4.19629C28.582-5.59424 28.1323-7.17579 26.7832-8.20997C18.1904-14.1382 12.5845-23.9873 12.5508-35.2539C12.4985-53.542 27.2593-68.2353 45.5137-68.2353C63.8018-68.2353 78.5625-53.542 78.4951-35.2539C78.4614-23.9873 72.8369-14.1382 64.2778-8.20997C62.9287-7.17579 62.479-5.59424 63.3145-4.19629C64.1314-2.82861 65.9824-2.43115 67.4629-3.58154C77.4082-10.8032 84.2251-22.2407 84.2251-35.2539C84.2251-56.4238 66.6836-73.9316 45.5137-73.9316C24.3623-73.9316 6.83594-56.4238 6.83594-35.2539ZM74.8042-1.13965L62.8779-13.6602C61.1719-15.4336 59.4727-14.6606 58.9927-12.4072L56.0444 1.81397C55.6655 3.82471 56.8242 4.98341 58.8384 4.68702L73.3525 2.66309C75.7642 2.33302 76.544 0.682622 74.8042-1.13965ZM32.9463-19.5801C34.1909-19.5801 35.0264-20.146 35.5737-21.7578L38.5518-30.2715L52.4756-30.2715L55.4722-21.7578C55.9858-20.1611 56.8364-19.5801 58.0962-19.5801C59.6104-19.5801 60.6074-20.5435 60.6074-21.9263C60.6074-22.4399 60.4912-22.9082 60.2251-23.6577L49.2764-53.0527C48.6279-54.7993 47.3125-55.6987 45.48-55.6987C43.666-55.6987 42.3994-54.7993 41.751-53.0527L30.7871-23.6577C30.5547-22.9082 30.4385-22.4399 30.4385-21.9414C30.4385-20.5283 31.4355-19.5801 32.9463-19.5801ZM39.9429-34.3994L45.3149-49.7251L45.6973-49.7251L51.0693-34.3994Z"/>
  </g>
  <g id="Thin-S" transform="matrix(1 0 0 1 811.863 696)">
   <path d="M6.83594-35.2539C6.83594-21.8203 14.2734-10.3027 24.7656-3.28125C25.6992-2.61133 26.7695-2.88867 27.2109-3.67579C27.7012-4.53322 27.4317-5.49416 26.623-6.08792C16.8692-12.2364 10.2422-22.9063 10.2285-35.2539C10.2364-54.2226 25.5977-69.5566 44.5527-69.5566C63.5215-69.5566 78.8828-54.2226 78.8555-35.2539C78.8418-22.9063 72.2363-12.2364 62.4961-6.08792C61.6875-5.49416 61.418-4.53322 61.8731-3.67579C62.3496-2.88867 63.42-2.61133 64.3399-3.28125C74.8457-10.3027 82.2832-21.8203 82.2832-35.2539C82.2832-55.9434 65.2422-72.9707 44.5527-72.9707C23.8418-72.9707 6.83594-55.9434 6.83594-35.2539ZM73.3828-1.41992L61.957-13.5801C60.7715-14.793 59.4727-14.1602 59.1328-12.6074L56.2246 1.11329C55.9258 2.68361 56.7441 3.50197 58.2578 3.26564L72.2715 1.34182C74.0625 1.09181 74.5821-0.158191 73.3828-1.41992ZM32.0254-19.5801C32.8496-19.5801 33.3047-19.9258 33.6719-20.957L37.2305-30.5918L51.875-30.5918L55.4121-20.957C55.7656-19.9609 56.2559-19.5801 57.1152-19.5801C58.0488-19.5801 58.6856-20.2031 58.6856-21.0254C58.6856-21.3789 58.6094-21.627 58.4434-22.0762L46.834-52.8926C46.4258-53.9785 45.6309-54.5176 44.5391-54.5176C43.4258-54.5176 42.6797-53.9785 42.2715-52.8926L30.627-22.0762C30.4746-21.627 30.3984-21.3789 30.3984-21.0606C30.3984-20.168 31.0352-19.5801 32.0254-19.5801ZM38.2012-33.3985L44.4141-50.2656L44.6563-50.2656L50.8691-33.3985Z"/>
  </g>
  <g id="Ultralight-S" transform="matrix(1 0 0 1 515.649 696)">
   <path d="M6.83594-35.2539C6.83594-21.605 14.5913-10.0464 25.3808-3.12745C26.0171-2.70361 26.6875-2.91943 26.9443-3.40919C27.25-3.98977 27.0728-4.63284 26.541-5.00101C16.1924-11.2622 9.04252-22.3526 9.0391-35.2539C9.07768-54.5713 24.7466-70.2334 44.0606-70.2334C63.3779-70.2334 79.0469-54.5713 79.04-35.2539C79.0366-22.3526 71.9287-11.2622 61.5835-5.00101C61.0518-4.63284 60.8745-3.98977 61.1348-3.40919C61.437-2.91943 62.1075-2.70361 62.7403-3.12745C73.5332-10.0464 81.2886-21.605 81.2886-35.2539C81.2886-55.6973 64.5039-72.4785 44.0606-72.4785C23.5752-72.4785 6.83594-55.6973 6.83594-35.2539ZM72.6548-1.56347L61.4854-13.5391C60.5664-14.4649 59.4727-13.9038 59.2046-12.71L56.3169 0.754407C56.0591 2.09914 56.7031 2.74319 57.9605 2.53762L71.7178 0.665063C73.1909 0.456077 73.5772-0.588852 72.6548-1.56347ZM31.5537-19.5801C32.1626-19.5801 32.4229-19.813 32.6978-20.5469L36.5537-30.7559L51.5674-30.7559L55.3813-20.5469C55.6528-19.8584 55.9585-19.5801 56.6128-19.5801C57.2491-19.5801 57.7012-20.0288 57.7012-20.564C57.7012-20.8355 57.6455-20.9707 57.5308-21.2661L45.5831-52.8105C45.2979-53.5581 44.7696-53.9126 44.0571-53.9126C43.3027-53.9126 42.8232-53.5581 42.5381-52.8105L30.5449-21.2661C30.4336-20.9707 30.3779-20.8355 30.3779-20.6094C30.3779-19.9834 30.8301-19.5801 31.5537-19.5801ZM37.3091-32.8858L43.9527-50.5425L44.1231-50.5425L50.7666-32.8858Z"/>
  </g>
 </g>
</svg>
